<?xml version="1.0" standalone="no"?>
<!DOCTYPE svg PUBLIC "-//W3C//DTD SVG 1.1//EN" "http://www.w3.org/Graphics/SVG/1.1/DTD/svg11.dtd" >
<svg xmlns="http://www.w3.org/2000/svg" xmlns:xlink="http://www.w3.org/1999/xlink" version="1.1">
<metadata>
Created by FontForge 20190801 at Tue Mar 20 23:40:06 2018
 By www-data
Copyright 2018 The Aleo Project Authors (https://github.com/AlessioLaiso/aleo)
</metadata>
<defs>
<font id="AleoBold" horiz-adv-x="0" >
  <font-face 
    font-family="AleoBold"
    font-weight="700"
    font-stretch="normal"
    units-per-em="1000"
    panose-1="0 0 8 0 0 0 0 0 0 0"
    ascent="805"
    descent="-195"
    x-height="513"
    cap-height="723"
    bbox="-700 -336 1130 976"
    underline-thickness="80"
    underline-position="-20"
    unicode-range="U+000D-FB02"
  />
<missing-glyph horiz-adv-x="561" 
d="M534 0h-506v723h506v-723zM498 689h-437v-654h437v654zM192 612q38 16 86 16q30 0 62 -10q30 -10 48 -26q19 -18 30 -42q10 -23 10 -53t-7 -48q-8 -22 -17 -34q-7 -10 -24 -25q-16 -14 -24 -20t-20 -18q-7 -7 -11 -20l-11 -48h-84l-9 57q-1 4 -1 11q0 12 4 20q6 14 16 24
q11 11 23 20q8 6 24 20q10 9 19 23q8 13 8 30q0 19 -12 29q-11 10 -36 10q-18 0 -30 -3q-14 -3 -21 -7l-16 -8q-8 -4 -14 -4q-17 0 -25 15l-33 53q29 23 65 38zM205 183q7 14 15 22q7 7 21 14q12 6 27 6q14 0 26 -6q16 -8 22 -14t14 -22q6 -12 6 -26q0 -15 -6 -27
q-7 -14 -14 -21q-8 -8 -22 -15q-10 -5 -26 -5q-17 0 -27 5q-12 6 -21 15t-15 21q-5 10 -5 27q0 16 5 26z" />
    <glyph glyph-name="fi" unicode="fi" horiz-adv-x="630" 
d="M613 59v-59h-281v59q0 25 25 31l7 1l14 3l30 5v322h-191v-322l31 -5q5 -1 9.5 -2t8.5 -1l8 -1q25 -6 25 -31v-59h-281v59q0 25 25 31q4 0 7 1l14 3l30 5v321l-45 7q-14 3 -23 10q-9 8 -9 21v50h77v17q0 47 15 87q14 39 47 70q30 29 80 46q49 17 113 17h19q2 0 3 -0.5
t2 -0.5h3l16 -1q18 -1 33 -6q52 -12 93 -40l10 -9q10 -12 15 -23q7 -17 7 -31t-7 -30q-6 -13 -17 -24q-12 -12 -25 -17q-15 -6 -31 -6q-18 0 -31 6t-24 17t-17 24q-6 14 -6 30q0 8 1 12q-23 6 -46 6q-22 0 -46 -6q-34 -10 -50 -24q-20 -15 -29 -42q-9 -25 -9 -59v-13h318
v-409l31 -5q5 -1 9.5 -2t8.5 -1l8 -1q25 -6 25 -31z" />
    <glyph glyph-name="fl" unicode="fl" horiz-adv-x="666" 
d="M619 -6q-20 -2 -32 -2q-43 0 -77 13q-31 13 -50 35t-28 52t-9 63v493h-94q-55 0 -86 -31q-30 -31 -30 -87v-21h122v-88h-118v-322q8 -1 16 -3t15 -3l18 -2l8 -1q25 -6 25 -32v-58h-281v58q0 26 25 32l7 1l14 2l30 6v321l-44 7q-14 3 -23 10q-9 8 -9 21v51h76v21
q0 43 13 79q12 38 39 66q27 29 67 45q40 18 97 18q44 0 85 -3q40 -3 82 -3h69v-577q0 -13 4 -33q3 -12 11 -22q7 -7 21 -12q16 -4 31 -4q19 0 25 -3q7 -3 8 -13l4 -66q-18 -5 -31 -8z" />
    <glyph glyph-name=".notdef" horiz-adv-x="561" 
d="M534 0h-506v723h506v-723zM498 689h-437v-654h437v654zM192 612q38 16 86 16q30 0 62 -10q30 -10 48 -26q19 -18 30 -42q10 -23 10 -53t-7 -48q-8 -22 -17 -34q-7 -10 -24 -25q-16 -14 -24 -20t-20 -18q-7 -7 -11 -20l-11 -48h-84l-9 57q-1 4 -1 11q0 12 4 20q6 14 16 24
q11 11 23 20q8 6 24 20q10 9 19 23q8 13 8 30q0 19 -12 29q-11 10 -36 10q-18 0 -30 -3q-14 -3 -21 -7l-16 -8q-8 -4 -14 -4q-17 0 -25 15l-33 53q29 23 65 38zM205 183q7 14 15 22q7 7 21 14q12 6 27 6q14 0 26 -6q16 -8 22 -14t14 -22q6 -12 6 -26q0 -15 -6 -27
q-7 -14 -14 -21q-8 -8 -22 -15q-10 -5 -26 -5q-17 0 -27 5q-12 6 -21 15t-15 21q-5 10 -5 27q0 16 5 26z" />
    <glyph glyph-name=".null" 
 />
    <glyph glyph-name="nonmarkingreturn" unicode="&#xd;" horiz-adv-x="75" 
 />
    <glyph glyph-name="space" unicode=" " horiz-adv-x="231" 
 />
    <glyph glyph-name="exclam" unicode="!" horiz-adv-x="186" 
d="M148 348q-4 -43 -12 -93h-83q-8 50 -12 93q-5 48 -5 89v286h117v-286q0 -41 -5 -89zM23 98q6 14 16 24q9 9 25 16q14 6 30 6q15 0 29 -6t24 -16t16 -24q6 -13 6 -30q0 -16 -6 -30q-6 -13 -16 -23t-24 -16q-13 -6 -29 -6t-30 6q-16 7 -25 16q-10 10 -16 23q-5 11 -5 30
t5 30z" />
    <glyph glyph-name="quotedbl" unicode="&#x22;" horiz-adv-x="338" 
d="M120 501q-3 -20 -13 -34q-8 -11 -31 -11q-18 0 -28 11q-11 13 -14 34l-10 78v144h107v-144zM304 501q-3 -20 -13 -34q-8 -11 -31 -11q-18 0 -28 11q-11 13 -14 34l-10 78v144h107v-144z" />
    <glyph glyph-name="numbersign" unicode="#" horiz-adv-x="580" 
d="M318 0q-15 0 -26 12q-11 13 -11 29v5l1 5l30 153h-103l-29 -159q-5 -25 -20 -35q-16 -10 -36 -10h-54l38 204h-58q-14 0 -24 8q-9 8 -9 25q0 11 1 17l7 39h95l26 138h-107l9 51q3 19 16 29q12 9 39 9h55l32 161q5 22 18 31q16 11 34 11h56l-38 -203h102l38 203h56
q18 0 28 -10q11 -11 11 -25l-1 -8l-30 -160h101l-9 -52q-3 -18 -16 -28q-12 -9 -39 -9h-50l-25 -138h70q15 0 25 -8q8 -7 8 -26q0 -10 -1 -16l-6 -39h-109l-39 -204h-56zM350 431h-102l-26 -138h102z" />
    <glyph glyph-name="dollar" unicode="$" horiz-adv-x="535" 
d="M100 27q-51 24 -87 60l38 56q6 9 13 13q8 4 18 4q12 0 23 -7l29 -19q15 -9 36 -20q25 -12 48 -16l20 224q-38 11 -71 24q-38 15 -62 35q-29 25 -45 57q-17 36 -17 84q0 39 15 75t44 65q27 27 72 46t98 22l5 62q2 14 10 22q10 10 24 10h45l-8 -99q52 -9 91 -30
q35 -19 67 -49l-30 -45q-8 -12 -14 -15q-8 -5 -17 -5q-6 0 -18 5l-23 11q-4 2 -30 14q-13 6 -35 11l-17 -206q19 -6 71 -25q34 -13 63 -34q28 -21 46 -52t18 -79q0 -44 -16 -87q-15 -40 -45 -72t-73 -51q-41 -18 -100 -23l-6 -73q-2 -14 -10 -22q-10 -10 -24 -10h-45l9 108
q-61 8 -110 31zM166 501q5 -13 18 -26q10 -10 28 -20q16 -9 35 -16l15 185q-24 -3 -46 -11q-20 -9 -32 -21q-14 -14 -19 -26t-5 -32q0 -18 6 -33zM396 241q-7 15 -19 25q-14 12 -29 19q-27 12 -36 15l-17 -204q53 8 80 36q27 29 27 75q0 19 -6 34z" />
    <glyph glyph-name="percent" unicode="%" horiz-adv-x="776" 
d="M338 474q-12 -29 -37 -56q-22 -24 -53 -36q-30 -12 -64 -12q-36 0 -66 12q-31 12 -53 36q-24 26 -35 56q-12 33 -12 74q0 42 12 76q11 33 35 58q22 24 53 36q30 12 66 12q37 0 67 -12q31 -12 53 -36q24 -25 35 -58q13 -37 13 -76q0 -40 -14 -74zM607 717q9 6 25 6h90
l-538 -705q-5 -6 -15 -13q-7 -5 -22 -5h-92l537 704q5 6 15 13zM250 596q-6 20 -15 32q-8 10 -23 17q-11 5 -28 5t-28 -5q-14 -6 -22 -17q-11 -15 -15 -32q-5 -16 -5 -48t5 -47q6 -18 15 -30q10 -13 22 -17t28 -4t28 4q14 5 23 17q11 14 16 30q5 15 5 47q0 29 -6 48zM746 96
q-12 -29 -37 -56q-22 -24 -53 -36q-33 -13 -64 -13q-33 0 -66 13q-31 12 -53 36q-24 26 -35 56q-13 36 -13 74q0 39 13 76q11 33 35 58q22 24 53 36q30 12 66 12q37 0 67 -12q31 -12 53 -36q24 -25 35 -58q13 -37 13 -76q0 -40 -14 -74zM659 219q-5 16 -16 31q-8 10 -23 17
q-13 6 -28 6q-14 0 -28 -6t-22 -17q-9 -12 -15 -31q-5 -16 -5 -49q0 -31 5 -47q5 -17 15 -30t22 -17q15 -5 28 -5t28 5q14 5 23 17q11 15 16 30q5 16 5 47q0 33 -5 49z" />
    <glyph glyph-name="ampersand" unicode="&#x26;" horiz-adv-x="716" 
d="M395 718q37 -15 60 -36q23 -22 39 -52q13 -24 16 -60l-78 -16l-3 -1h-3q-9 0 -16 5q-5 3 -10 14q-4 12 -12 25q-9 14 -17 21q-9 8 -23 14q-11 5 -31 5q-23 0 -38 -7t-28 -20q-11 -11 -17 -28q-6 -16 -6 -34q0 -15 3 -29q4 -17 10 -28q12 -21 18 -29q16 -20 28 -32
l192 -199q16 32 27 66q8 28 12 71q1 9 8 18q6 8 18 8h78q0 -59 -20 -126q-18 -61 -52 -111l151 -157h-121q-12 0 -17 1q-8 2 -13 4q-11 6 -13 7q-8 6 -13 12l-50 51q-47 -38 -106 -61q-57 -22 -128 -22q-44 0 -82 14q-39 14 -71 42t-51 65q-19 38 -19 86q0 33 11 64t30 56
q20 26 47 47q26 20 59 36q-27 38 -39 73q-12 36 -12 71q0 40 13 72q13 33 40 58q26 24 65 40q37 15 86 15q45 0 78 -13zM152 160q9 -23 26 -38q14 -13 38 -23q19 -8 47 -8q45 0 80 13q32 12 66 39l-190 195q-39 -25 -58 -59q-18 -33 -18 -70q0 -26 9 -49z" />
    <glyph glyph-name="quotesingle" unicode="'" horiz-adv-x="154" 
d="M120 501q-3 -20 -13 -34q-8 -11 -31 -11q-18 0 -28 11q-11 13 -14 34l-10 78v144h107v-144z" />
    <glyph glyph-name="parenleft" unicode="(" horiz-adv-x="242" 
d="M150 111q26 -101 72 -187q2 -4 4 -12t2 -10q0 -8 -6 -16q-4 -5 -12 -10l-54 -34q-41 62 -64 114q-25 56 -42 116q-16 58 -24 119q-8 64 -8 123q0 58 8 122q8 61 24 119q17 60 42 116q23 52 64 114l54 -33q8 -5 12 -10q6 -8 6 -16q0 -6 -7 -22q-44 -82 -71 -188
q-25 -97 -25 -202q0 -106 25 -203z" />
    <glyph glyph-name="parenright" unicode=")" horiz-adv-x="242" 
d="M92 516q-27 106 -71 188q-7 16 -7 22q0 8 6 16q4 5 12 10l54 33q41 -62 64 -114q25 -56 42 -116q16 -58 24 -119q8 -64 8 -122q0 -59 -8 -123q-8 -61 -24 -119q-17 -60 -42 -116q-23 -52 -64 -114l-54 34q-8 5 -12 10q-6 8 -6 16q0 2 2 10q1 4 5 12q44 82 71 187
q25 97 25 203q0 105 -25 202z" />
    <glyph glyph-name="asterisk" unicode="*" horiz-adv-x="362" 
d="M153 530q2 12 4 18q-6 -7 -13 -13l-16 -11l-79 -46l-29 50l79 46q9 6 18 9q12 4 18 5q-12 2 -18 5q-3 1 -7.5 3t-10.5 6l-79 47l28 50l80 -47l16 -11q10 -8 14 -13q-4 12 -5 18t-1 20v92h58v-92q0 -14 -1 -20q-2 -12 -4 -18q6 7 13 13l16 11l79 46l30 -50l-80 -46
q-9 -6 -18 -9q-12 -4 -18 -5q15 -3 36 -14l79 -46l-28 -50l-80 46l-16 11q-10 8 -14 13q6 -16 6 -38v-92h-58v92q0 14 1 20z" />
    <glyph glyph-name="plus" unicode="+" horiz-adv-x="529" 
d="M508 382v-92h-194v-206h-100v206h-194v92h194v204h100v-204h194z" />
    <glyph glyph-name="comma" unicode="," horiz-adv-x="198" 
d="M41 -122q-9 7 -9 18q0 8 10 18q20 20 35 43.5t19 44.5q-17 0 -28 5q-21 10 -31.5 28.5t-10.5 40.5q0 30 20 48.5t52 18.5q36 0 55.5 -24.5t19.5 -59.5q0 -51 -31.5 -108t-78.5 -93z" />
    <glyph glyph-name="hyphen" unicode="-" horiz-adv-x="316" 
d="M288 250h-260v104h260v-104z" />
    <glyph glyph-name="period" unicode="." horiz-adv-x="203" 
d="M32 98q6 14 16 24t24 16t30 6t30 -6t24 -16t16 -24q6 -13 6 -30q0 -16 -6 -30q-6 -13 -16 -23t-24 -16q-13 -6 -29 -6t-30 6q-16 7 -25 16q-10 10 -16 23q-6 14 -6 30q0 17 6 30z" />
    <glyph glyph-name="slash" unicode="/" horiz-adv-x="436" 
d="M121 -22q-6 -8 -16 -14q-7 -4 -19 -8q-14 -4 -20 -4h-52l292 748q9 20 25 32q15 11 39 11h52l-290 -745q-5 -12 -11 -20z" />
    <glyph glyph-name="zero" unicode="0" horiz-adv-x="570" 
d="M530 197q-22 -73 -56 -115q-36 -45 -85 -68q-47 -22 -105 -22t-105 22q-46 21 -83 68q-36 45 -56 115q-20 71 -20 165q0 93 20 164q20 70 56 115q37 47 83 68q47 22 105 22t105 -22q49 -23 85 -68q34 -42 56 -115q20 -66 20 -164q0 -99 -20 -165zM411 492q-13 54 -31 82
q-20 31 -44 42q-25 12 -52 12t-51 -12q-25 -12 -44 -42q-17 -26 -30 -82q-12 -51 -12 -130t12 -130q13 -56 30 -82q20 -31 44 -43q26 -13 51 -13q24 0 52 13q24 11 44 42q18 28 31 83q11 47 11 130t-11 130z" />
    <glyph glyph-name="one" unicode="1" horiz-adv-x="483" 
d="M467 58v-58h-400v58q0 20 20 25q18 3 126 11v420q0 16 2 52l-104 -87q-6 -6 -13 -8q-8 -2 -14 -2q-11 0 -18 4t-12 10l-39 53l220 188h102v-631q91 -7 110 -10q20 -5 20 -25z" />
    <glyph glyph-name="two" unicode="2" horiz-adv-x="542" 
d="M17 0v41q0 11 5 26q6 14 17 25l219 220l18 18q31 34 32 35q21 26 36 51q16 27 23 51t7 54q0 28 -7 46t-22 33q-14 14 -33 20q-23 7 -43 7q-44 0 -73 -23q-28 -22 -40 -60q-6 -19 -17 -27q-11 -9 -28 -9q-4 0 -16 2l-65 11q7 52 29 92q21 39 53 65q30 26 74 40
q40 13 90 13t92 -15q39 -14 70 -42q29 -26 46 -65t17 -84q0 -39 -12 -74q-12 -34 -31 -65q-20 -33 -46 -60l-56 -59l-163 -167q14 4 47 11q30 4 44 4h160q3 42 4 45q5 18 23 18h53v-178h-507z" />
    <glyph glyph-name="three" unicode="3" horiz-adv-x="533" 
d="M373 717q41 -15 69 -40q30 -27 44 -59q15 -34 15 -74q0 -31 -8 -60q-8 -27 -22 -46q-15 -19 -36 -33q-22 -14 -49 -23q68 -22 98 -62q32 -43 32 -106q0 -52 -20 -95q-19 -41 -54 -70q-34 -28 -79 -43q-42 -14 -95 -14q-54 0 -95 12q-37 11 -71 38q-28 23 -50 60
q-21 37 -36 82l54 22q14 6 28 6t24 -6t16 -16q10 -19 19 -34q10 -15 26 -30q15 -13 35 -22q19 -8 48 -8q33 0 56 10q24 11 39 27q16 18 23 37q8 22 8 40q0 27 -6 48q-7 23 -22 36q-18 15 -51 24q-29 8 -87 8v88q43 0 75 8q26 7 48 23q18 15 25 34q6 16 6 44q0 51 -28 78
q-27 26 -76 26q-46 0 -73 -23q-29 -25 -41 -60q-6 -18 -16 -27q-11 -9 -28 -9q-4 0 -16 2l-66 12q7 48 30 91q21 39 53 65q33 27 74 40q40 13 90 13q52 0 90 -14z" />
    <glyph glyph-name="four" unicode="4" horiz-adv-x="584" 
d="M567 201q0 -8 -7 -17q-6 -8 -18 -8h-66v-176h-108v176h-305q-12 0 -22 8q-9 7 -12 20l-13 62l343 458h117v-452h91v-71zM369 544q0 6 0.5 15.5t2.5 22.5l-224 -310h220v237q0 23 1 35z" />
    <glyph glyph-name="five" unicode="5" horiz-adv-x="515" 
d="M455 628q-17 -17 -55 -17h-200l-26 -151q47 10 90 10q55 0 100 -17q42 -16 73 -47q30 -30 45 -70q14 -38 14 -87q0 -59 -20 -105q-22 -50 -56 -81q-38 -35 -85 -52q-52 -19 -107 -19q-37 0 -65 7q-33 8 -57 19q-29 13 -50 27q-19 12 -40 32l38 53q12 17 32 17q12 0 25 -8
q27 -17 29 -18q17 -9 40 -17q24 -8 54 -8q36 0 60 10q25 10 44 31q16 18 26 47q8 24 8 60q0 59 -34 92t-101 33q-54 0 -105 -19l-77 22l60 351h357v-53q0 -25 -17 -42z" />
    <glyph glyph-name="six" unicode="6" horiz-adv-x="541" 
d="M390 438q36 -13 68 -41q30 -27 48 -67t18 -95q0 -47 -19 -95q-17 -42 -52 -77q-32 -32 -81 -52q-47 -19 -104 -19t-104 18q-42 16 -78 52q-31 31 -50 80q-18 47 -18 104q0 51 21 105q19 49 65 111l172 232q8 11 26 20t40 9h110l-214 -263l-14 -16l-12 -15q23 12 45 17
q24 6 53 6q40 0 80 -14zM145 172q9 -25 25 -42q17 -18 40 -27q27 -10 55 -10q32 0 55 10q24 10 42 28q17 17 28 42q10 23 10 53q0 29 -10 56q-9 24 -27 42q-16 16 -42 26q-24 9 -54 9t-53 -10t-41 -28t-27 -42t-9 -52q0 -34 8 -55z" />
    <glyph glyph-name="seven" unicode="7" horiz-adv-x="538" 
d="M520 670q0 -22 -5 -39q-2 -7 -5.5 -14l-5.5 -11l-273 -564q-9 -18 -24 -30t-42 -12h-90l280 552q19 36 39 59h-291l-3 -31l-3 -32q-4 -18 -24 -18h-53v193h500v-53z" />
    <glyph glyph-name="eight" unicode="8" horiz-adv-x="536" 
d="M166 7q-45 15 -80 43q-33 27 -51 66t-18 87q0 64 31 108q31 45 98 66q-52 22 -79 63q-26 39 -26 97q0 40 17 77q15 33 46 61q28 25 72 41q42 15 92 15t92 -15q44 -16 72 -41q31 -28 46 -61q17 -37 17 -77q0 -56 -27 -97q-28 -41 -78 -63q67 -21 98 -66q31 -44 31 -108
q0 -48 -18 -87t-51 -66q-35 -28 -80 -43q-46 -15 -102 -15q-55 0 -102 15zM319 432q20 8 33 25q13 16 17 36q6 21 6 42q0 18 -7 39q-6 19 -19 33q-12 13 -33 23q-17 8 -48 8q-30 0 -47 -8q-23 -10 -34 -23q-13 -14 -19 -33q-6 -18 -6 -39q0 -24 5 -42q6 -21 18 -36
q13 -17 33 -25q23 -10 50 -10q28 0 51 10zM322 97q22 9 38 25q16 15 24 36q8 22 8 47q0 60 -33 90q-34 31 -91 31t-91 -31q-33 -30 -33 -90q0 -25 8 -47q7 -19 24 -36q16 -16 38 -25q23 -9 54 -9q32 0 54 9z" />
    <glyph glyph-name="nine" unicode="9" horiz-adv-x="523" 
d="M144 302q-38 14 -64 39q-29 28 -45 65q-17 40 -17 90t18 92q19 44 50 74q34 32 78 50q48 19 101 19q58 0 100 -17t75 -50q32 -31 48 -75q17 -45 17 -96q0 -34 -6 -64q-7 -35 -16 -58q-9 -24 -26 -54q-12 -21 -33 -53l-166 -236q-8 -11 -25 -20q-15 -8 -39 -8h-113
l225 280q6 7 16 21l14 20q-26 -17 -55 -24q-30 -9 -63 -9q-37 0 -74 14zM378 558q-8 21 -26 39q-16 16 -39 25q-20 8 -50 8q-29 0 -51 -9q-23 -9 -38 -26q-15 -16 -24 -39q-8 -20 -8 -50q0 -61 31 -92q32 -32 89 -32q26 0 53 10q21 8 39 26q15 15 24 38q8 20 8 49
q0 32 -8 53z" />
    <glyph glyph-name="colon" unicode=":" horiz-adv-x="199" 
d="M32 454q6 14 16 24t24 16t30 6t30 -6t24 -16t16 -24q6 -13 6 -29t-6 -30t-16 -24t-24 -16q-11 -5 -30 -5t-30 5q-14 6 -24 16t-16 24t-6 29q0 17 6 30zM32 98q6 14 16 24t24 16t30 6t30 -6t24 -16t16 -24q6 -13 6 -30q0 -16 -6 -30q-6 -13 -16 -23t-24 -16q-13 -6 -30 -6
q-16 0 -30 6t-24 16t-16 23q-6 14 -6 30q0 17 6 30z" />
    <glyph glyph-name="semicolon" unicode=";" horiz-adv-x="195" 
d="M28 454q6 14 16 24t24 16t30 6q17 0 30 -6q14 -6 24 -16t16 -24q6 -13 6 -30q0 -15 -6 -29t-16 -24t-24 -16q-11 -5 -30 -5t-30 5q-14 6 -24 16t-16 24t-6 29q0 17 6 30zM31 102q7 14 15 22t22 14q11 5 30 5q20 0 33 -6t23 -19t14 -27q5 -17 5 -32q0 -26 -7 -51
q-5 -18 -22 -52q-14 -27 -34 -52q-22 -26 -47 -46l-21 20q-10 8 -10 18q0 4 3 9q4 6 7 9l14 15q14 17 16 20q12 18 14 24q8 17 10 29q-17 0 -28 5q-15 7 -23 16t-14 23q-5 11 -5 30q0 16 5 26z" />
    <glyph glyph-name="less" unicode="&#x3c;" horiz-adv-x="440" 
d="M416 481q0 -12 -4 -19t-17 -14l-181 -93l-25 -10q-15 -6 -27 -8q12 -2 27 -8q20 -7 25 -10l181 -93q13 -6 17 -15q4 -8 4 -18v-88l-396 207v50l396 206v-87z" />
    <glyph glyph-name="equal" unicode="=" horiz-adv-x="500" 
d="M472 378h-443v92h443v-92zM472 202h-443v92h443v-92z" />
    <glyph glyph-name="greater" unicode="&#x3e;" horiz-adv-x="441" 
d="M29 211q4 9 17 15l181 93q24 11 51 18q-12 2 -27 8q-16 6 -24 10l-181 93q-13 7 -17 14q-5 10 -5 18v88l396 -206v-50l-396 -207v88q0 8 5 18z" />
    <glyph glyph-name="question" unicode="?" horiz-adv-x="419" 
d="M53 686q23 15 44 24q17 7 51 15q27 6 60 6q43 0 79 -12t61 -34q27 -24 40 -54q14 -33 14 -71q0 -34 -12 -65q-10 -28 -27 -49q-13 -17 -37 -35l-37 -28q-16 -12 -30 -26q-12 -14 -15 -29l-12 -73h-84l-9 81v9q0 21 11 38q12 19 27 31q10 9 36 27q8 6 35 30q20 20 28 35
q11 20 11 48q0 15 -7 32q-5 13 -18 24q-11 9 -29 16q-16 6 -37 6q-25 0 -48 -7q-17 -5 -33 -14l-23 -14q-9 -6 -18 -6q-18 0 -26 15l-32 52q16 14 37 28zM116 97q6 14 16 24q11 11 24 17q14 6 30 6q17 0 30 -6q14 -6 24 -16t16 -24q6 -13 6 -30q0 -16 -6 -30t-16 -24
q-8 -8 -24 -15q-13 -6 -30 -6q-16 0 -30 6q-16 7 -24 15q-10 10 -16 24t-6 30t6 29z" />
    <glyph glyph-name="at" unicode="@" horiz-adv-x="796" 
d="M507 108q-27 16 -37 52q-32 -38 -62 -52q-33 -15 -71 -15q-30 0 -55 11q-24 11 -39 30q-18 23 -24 45q-7 25 -7 58q0 29 7 57q8 32 22 57q15 27 36 51q19 22 51 41q28 17 66 28t81 11q39 0 66 -6q20 -4 53 -18l-48 -185q-8 -34 -8 -53q0 -12 4 -26q5 -10 10 -16
q4 -4 15 -8q6 -2 19 -2q23 0 40 13q21 16 33 37t22 58q9 33 9 72q0 65 -21 114q-22 52 -56 83q-37 34 -87 50q-53 17 -110 17q-63 0 -122 -25q-55 -23 -98 -68q-39 -41 -64 -101q-23 -56 -23 -126q0 -83 25 -145t70 -104t105 -63q57 -20 130 -20q43 0 72 4q40 5 61 11
q28 7 52 17q18 7 40 20q9 5 18 5q14 0 20 -16l17 -45q-52 -34 -121 -55t-159 -21q-92 0 -167 28q-78 29 -134 82q-57 54 -88 130q-32 78 -32 172q0 51 14 104q12 44 40 94q26 45 61 82q32 33 80 63q40 25 95 41q51 15 108 15q70 0 136 -24q65 -23 115 -68q51 -45 81 -108
t30 -143q0 -51 -16 -101q-15 -46 -44 -81t-67 -54q-40 -20 -83 -20q-35 0 -61 16zM387 176q16 5 26 14q9 8 22 28q10 15 16 42l37 141q-16 3 -33 3q-32 0 -58 -13t-47 -37q-18 -21 -31 -53q-12 -30 -12 -61t14 -50q14 -18 40 -18q14 0 26 4z" />
    <glyph glyph-name="A" unicode="A" horiz-adv-x="812" 
d="M793 51v-51h-244v51q0 17 20 26l20 8l-40 109h-288l-40 -109l20 -8q20 -9 20 -26v-51h-244v51q0 17 20 26l55 23l244 623h138l245 -623l55 -23q19 -7 19 -26zM515 289l-83 225q-12 33 -27 85l-9 -31q-8 -27 -18 -55l-82 -224h219z" />
    <glyph glyph-name="B" unicode="B" horiz-adv-x="645" 
d="M632 213q0 -46 -18 -85q-18 -40 -51 -68q-31 -27 -82 -44q-48 -16 -112 -16h-349v59q0 25 25 31l6 1q3 0 6.5 1t8.5 2l30 5v525l-30 5q-5 1 -8.5 2t-6.5 1l-6 1q-25 6 -25 31v59h325q72 0 121 -13q52 -14 83 -39q32 -25 47 -61t15 -79q0 -27 -7 -49t-24 -44
q-15 -18 -40 -36q-22 -15 -57 -28q149 -33 149 -161zM338 410q69 0 104 25t35 80q0 56 -32 80q-31 24 -100 24h-115v-209h108zM499 216q0 21 -8 42q-8 20 -23 32t-41 20q-24 7 -61 7h-136v-212h137q38 0 63 9t40 24q16 16 22 35q7 18 7 43z" />
    <glyph glyph-name="C" unicode="C" horiz-adv-x="637" 
d="M531 513q-3 13 -9 80q-79 23 -138 23q-53 0 -94 -17q-43 -18 -73 -51q-31 -34 -48 -80q-18 -48 -18 -107q0 -60 18 -108q19 -50 46 -80q29 -32 70 -50q38 -17 86 -17q28 0 50 3q23 3 41 9q17 6 35 17q15 9 33 26q3 3 11 7q4 2 12 2q12 0 19 -8l53 -58q-44 -55 -108 -83
q-66 -29 -155 -29q-77 0 -144 28q-66 28 -110 76q-47 51 -70 117q-24 68 -24 148q0 83 27 150t76 116q51 51 117 77q68 27 151 27q92 0 227 -52v-184h-58q-18 0 -23 18z" />
    <glyph glyph-name="D" unicode="D" horiz-adv-x="742" 
d="M727 362q0 -80 -27 -146q-28 -69 -74 -115t-116 -74q-67 -27 -149 -27h-341v59q0 25 25 31l6 1q3 0 6.5 1t8.5 2l30 5v525l-30 5q-5 1 -8.5 2t-6.5 1l-6 1q-25 6 -25 31v59h341q82 0 149 -27q70 -28 116 -74t74 -114q27 -66 27 -146zM589 362q0 59 -16 106q-18 50 -45 80
q-29 31 -72 50q-42 18 -95 18h-130v-509h130q53 0 95 18q43 19 72 50q28 31 45 80q16 47 16 107z" />
    <glyph glyph-name="E" unicode="E" horiz-adv-x="574" 
d="M552 533h-58q-18 0 -23 19q-5 39 -7 64h-233v-200h245v-104h-245v-204h233q2 25 7 64q5 19 23 19h58v-191h-532v59q0 25 25 31l6 1q3 0 6.5 1t8.5 2l30 5v525l-30 5q-5 1 -8.5 2t-6.5 1l-6 1q-25 6 -25 31v59h532v-190z" />
    <glyph glyph-name="F" unicode="F" horiz-adv-x="593" 
d="M577 533h-58q-18 0 -23 19q-5 39 -7 64h-258v-214h253v-107h-253v-196l30 -5q5 -1 8.5 -2t6.5 -1l6 -1q25 -6 25 -31v-59h-287v59q0 25 25 31l6 1q3 0 6.5 1t8.5 2l30 5v525l-30 5q-5 1 -8.5 2t-6.5 1l-6 1q-25 6 -25 31v59h557v-190z" />
    <glyph glyph-name="G" unicode="G" horiz-adv-x="673" 
d="M653 70q-29 -21 -57 -35q-30 -15 -63 -24q-35 -10 -73 -14q-43 -5 -83 -5q-77 0 -145 28t-115 76q-50 51 -76 117q-27 68 -27 149q0 84 26 149q27 68 76 117q47 48 118 76q66 25 149 27h7q114 0 256 -52v-184h-58q-18 0 -23 18q-3 14 -9 78q-74 25 -171 25q-52 0 -96 -18
t-74 -51q-31 -34 -47 -80q-17 -48 -17 -105q0 -64 18 -112q18 -50 49 -82q32 -33 75 -51q44 -18 95 -18q42 0 79 8q33 8 64 23v131h-90q-13 0 -21 8q-7 7 -7 17v76h240v-292z" />
    <glyph glyph-name="H" unicode="H" horiz-adv-x="801" 
d="M750 632q-3 0 -6.5 -1t-8.5 -2l-29 -5v-525l29 -5q5 -1 8.5 -2t6.5 -1l6 -1q25 -6 25 -31v-59h-286v59q0 25 25 31l6 1l15 3l29 5v217h-339v-217l30 -5q5 -1 8.5 -2t6.5 -1l6 -1q25 -6 25 -31v-59h-287v59q0 25 25 31l6 1q3 0 6.5 1t8.5 2l30 5v525l-30 5q-5 1 -8.5 2
t-6.5 1l-6 1q-25 6 -25 31v59h287v-59q0 -25 -25 -31l-6 -1q-3 0 -6.5 -1t-8.5 -2l-30 -5v-212h339v212l-29 5l-15 3l-6 1q-25 6 -25 31v59h286v-59q0 -25 -25 -31z" />
    <glyph glyph-name="I" unicode="I" horiz-adv-x="326" 
d="M275 632q-3 0 -6.5 -1t-8.5 -2l-29 -5v-525l29 -5q5 -1 8.5 -2t6.5 -1l6 -1q25 -6 25 -31v-59h-286v59q0 25 25 31l6 1l15 3l30 5v525l-30 5q-5 1 -8.5 2t-6.5 1l-6 1q-25 6 -25 31v59h286v-59q0 -25 -25 -31z" />
    <glyph glyph-name="J" unicode="J" horiz-adv-x="452" 
d="M437 664q0 -25 -25 -31l-6 -1q-3 0 -6.5 -1t-8.5 -2l-30 -5v-367q0 -60 -15 -110t-44 -83q-31 -35 -75 -53q-47 -19 -103 -19q-27 0 -53 3q-24 3 -55 11l7 80q1 9 9 17q9 7 21 7q8 0 22 -3q18 -4 35 -4q30 0 50 8q20 7 37 27q14 17 22 46q8 30 8 70v370l-32 5q-6 1 -11 2
t-8 1l-9 1q-25 6 -25 31v59h295v-59z" />
    <glyph glyph-name="K" unicode="K" horiz-adv-x="736" 
d="M717 59v-59h-280v59q0 25 25 31l8 1l14 3l-153 200q-8 11 -23 18q-12 6 -35 6h-43v-219l30 -5q5 -1 8.5 -2t6.5 -1l6 -1q25 -6 25 -31v-59h-286v59q0 25 25 31l6 1l15 3l30 5v525l-30 6l-15 2l-6 1q-25 6 -25 32v58h286v-58q0 -26 -25 -32l-6 -1q1 0 -15 -2l-30 -6v-204
h32q21 0 31 5q15 7 22 17l149 189l-7 1l-6 1q-25 6 -25 31v59h266v-59q0 -25 -25 -31l-8 -1q-4 0 -8.5 -1t-9.5 -2l-30 -5l-163 -202q-15 -17 -22 -23q-13 -11 -23 -16q15 -6 30 -17q13 -10 26 -28l178 -239l29 -5q5 -1 9.5 -2t8.5 -1l8 -1q25 -6 25 -31z" />
    <glyph glyph-name="L" unicode="L" horiz-adv-x="565" 
d="M544 0h-524v59q0 25 25 31l6 1l15 3l30 5v525l-30 5q-5 1 -8.5 2t-6.5 1l-6 1q-25 6 -25 31v59h286v-59q0 -25 -25 -31l-6 -1l-15 -3l-30 -5v-513h233q3 40 4 43q5 19 23 19h54v-173z" />
    <glyph glyph-name="M" unicode="M" horiz-adv-x="975" 
d="M924 632q-3 0 -6.5 -1t-8.5 -2l-29 -5v-525l29 -5q5 -1 8.5 -2t6.5 -1l6 -1q25 -6 25 -31v-59h-284v59q0 25 25 31l65 9v368l1 28q0 10 2 32l-218 -410q-8 -15 -20 -22q-13 -8 -28 -8h-18q-15 0 -28 8q-12 7 -20 22l-221 411l2 -32q1 -10 1 -29v-368l65 -9q25 -6 25 -31
v-59h-284v59q0 25 25 31l6 1l15 3l30 5v525l-30 5q-5 1 -8.5 2t-6.5 1l-6 1q-25 6 -25 31v59h177l16 -1q6 0 12 -2q3 -1 9 -7q4 -4 9 -12l216 -401q6 -11 9.5 -19.5t5.5 -13.5l15 -35l14 35q8 20 16 34l214 400q6 10 8 12q6 6 10 7q8 2 12 2l15 1h177v-59q0 -25 -25 -31z
" />
    <glyph glyph-name="N" unicode="N" horiz-adv-x="796" 
d="M781 664q0 -25 -25 -31l-6 -1q-3 0 -6.5 -1t-8.5 -2l-29 -5v-624h-70q-14 0 -26 5q-10 4 -21 18l-378 481q2 -22 2 -31l1 -29v-345l65 -9q25 -6 25 -31v-59h-284v59q0 25 25 31l6 1l15 3l30 5v525l-30 5q-5 1 -8.5 2t-6.5 1l-6 1q-25 6 -25 31v59h146l15 -1q7 0 11 -3
q4 -1 9 -6l10 -12l380 -483l-3 34q-1 11 -1 32v340l-65 9q-25 6 -25 31v59h284v-59z" />
    <glyph glyph-name="O" unicode="O" horiz-adv-x="762" 
d="M700.5 171q-46.5 -84 -130 -131.5t-189.5 -47.5t-189.5 47t-130.5 131t-47 192t47 192t130.5 130.5t189.5 46.5q107 0 190.5 -48t129.5 -132t46 -189q0 -107 -46.5 -191zM549.5 546.5q-59.5 69.5 -168.5 69.5q-111 0 -170.5 -70t-59.5 -184q0 -116 60 -185.5t170 -69.5
t169 70t59 185t-59.5 184.5z" />
    <glyph glyph-name="P" unicode="P" horiz-adv-x="615" 
d="M600 493q0 -53 -18 -97t-52 -75q-33 -30 -88 -49q-50 -17 -123 -17h-89v-156l30 -5q5 -1 8.5 -2t6.5 -1l6 -1q25 -6 25 -31v-59h-286v59q0 25 25 31l6 1l15 3l30 5v525l-30 5q-5 1 -8.5 2t-6.5 1l-6 1q-25 6 -25 31v59h299q72 0 126 -17q50 -16 87 -48q34 -30 51 -72
q17 -43 17 -93zM465 493q0 28 -9 52q-9 23 -27 40q-17 16 -45 25q-27 9 -65 9h-89v-259h89q38 0 65 9q28 10 45 26q18 16 27 42q9 24 9 56z" />
    <glyph glyph-name="Q" unicode="Q" horiz-adv-x="796" 
d="M737 269q-10 -41 -29 -83q-16 -34 -46 -71q-28 -34 -61 -57l183 -200h-110q-21 0 -44 7q-18 6 -35 24l-106 117q-23 -7 -52 -10q-36 -4 -56 -4q-80 0 -150 28q-68 27 -116 77t-75 117q-26 65 -26 148q0 82 26 147q27 68 75 117q48 50 116 77q70 28 150 28q83 0 149 -28
q70 -30 116 -77q46 -48 74 -117q27 -67 27 -147q0 -50 -10 -93zM593 468q-15 46 -45 80q-30 33 -72 51q-40 17 -95 17t-95 -17q-44 -19 -73 -51q-30 -33 -46 -80t-16 -106q0 -60 16 -107t46 -80q29 -32 73 -51q40 -17 95 -17t95 17q42 18 72 51q30 34 45 80q16 51 16 107
q0 55 -16 106z" />
    <glyph glyph-name="R" unicode="R" horiz-adv-x="685" 
d="M667 59v-59h-135q-19 0 -30 7t-20 20l-152 232q-8 12 -19 18t-30 6h-51v-184l30 -5q5 -1 8.5 -2t6.5 -1l6 -1q25 -6 25 -31v-59h-286v59q0 25 25 31l6 1l15 3l30 5v525l-30 5q-5 1 -8.5 2t-6.5 1l-6 1q-25 6 -25 31v59h289q74 0 127 -15q51 -15 86 -43q35 -29 50 -66
q16 -38 16 -84q0 -34 -11 -69q-9 -29 -31 -59q-18 -25 -50 -46q-31 -20 -68 -32q26 -15 44 -42l114 -168l31 -5q5 -1 9.5 -2t7.5 -1l8 -1q25 -6 25 -31zM420 415q17 16 27 40q9 23 9 50q0 55 -36 85q-35 29 -111 29h-79v-240h77q34 0 66 10q28 9 47 26z" />
    <glyph glyph-name="S" unicode="S" horiz-adv-x="505" 
d="M491 226q0 -46 -17 -91q-17 -44 -49 -75q-32 -32 -79 -50q-46 -18 -106 -18h-15q-95 0 -207 38v186h57q19 0 23 -18q3 -13 9 -83q42 -13 137 -13q57 0 89 27q31 27 31 78q0 28 -14 47q-13 18 -38 30q-25 13 -53 21l-22 6l-39 12q-30 10 -61 24q-28 13 -54 37
q-24 22 -37 56q-15 37 -15 83q0 41 16 77q15 38 46 67q29 27 74 46q44 18 101 18q105 0 207 -41v-185h-57q-18 0 -23 19q-3 14 -9 81q-36 16 -117 16q-27 0 -48 -6q-23 -8 -35 -19q-15 -13 -22 -29q-7 -15 -7 -37q0 -24 15 -42t37 -29q29 -14 54 -22q10 -3 61 -20
q21 -7 61 -25q30 -13 54 -36q26 -24 38 -53q14 -29 14 -77z" />
    <glyph glyph-name="T" unicode="T" horiz-adv-x="633" 
d="M617 552h-57q-19 0 -24 19q-3 17 -5 41h-147v-513l29 -5q5 -1 8.5 -2t6.5 -1l6 -1q26 -6 26 -31v-59h-286v59q0 25 25 31l6 1q3 0 6.5 1t8.5 2l29 5v514h-147q-2 -26 -5 -42q-5 -19 -23 -19h-58v171h601v-171z" />
    <glyph glyph-name="U" unicode="U" horiz-adv-x="781" 
d="M766 664q0 -25 -25 -31l-6 -1q-3 0 -6.5 -1t-8.5 -2l-30 -5v-334q0 -65 -21 -119q-22 -57 -59 -95q-39 -39 -95 -62q-54 -22 -125 -22t-125 22t-94 62q-39 40 -60 95q-20 51 -20 119v334l-30 5q-5 1 -8.5 2t-6.5 1l-6 1q-25 6 -25 31v59h290v-59q0 -25 -25 -31l-7 -1
q-3 0 -7 -1t-10 -2l-31 -5v-333q0 -45 11 -75q10 -32 33 -58q19 -22 51 -36q29 -13 70 -13t70 13q34 15 52 36q19 22 32 57q12 38 12 75v334l-31 5q-6 1 -10 2t-7 1l-7 1q-25 6 -25 31v59h290v-59z" />
    <glyph glyph-name="V" unicode="V" horiz-adv-x="807" 
d="M790 664q0 -25 -25 -31l-6 -1q-2 0 -5.5 -1t-8.5 -2l-29 -5l-252 -624h-121l-253 624l-28 5q-5 1 -8.5 2t-6.5 1l-6 1q-25 6 -25 31v59h270v-59q0 -25 -25 -31q-3 0 -5 -1l-10 -3l-16 -4l144 -374q7 -16 16 -47l15 -54q12 55 29 101l143 374l-16 4l-11 3q-2 1 -5 1
q-25 6 -25 31v59h270v-59z" />
    <glyph glyph-name="W" unicode="W" horiz-adv-x="1133" 
d="M1118 664q0 -25 -25 -31l-11 -2l-28 -5l-195 -626h-121l-158 494l-6 20l-7 24l-6 -24l-6 -20l-160 -494h-121l-194 626l-29 5l-11 2q-25 6 -25 31v59h270v-59q0 -25 -25 -31q-3 0 -5 -1l-11 -3q-12 -2 -17 -4l103 -365l9 -35l7 -40l9 40q5 21 10 35l142 432q5 13 16 21
q13 10 28 10h40q18 0 29 -8t16 -23l141 -432q13 -38 19 -71q4 23 7 37q3 17 8 34l103 364l-41 9q-25 6 -25 31v59h270v-59z" />
    <glyph glyph-name="X" unicode="X" horiz-adv-x="779" 
d="M760 59v-59h-307v59q0 25 25 31l30 6l-123 204q-1 -6 -5 -11l-5 -10l-113 -180l42 -9q25 -6 25 -31v-59h-311v59q0 25 26 31l75 9l177 273l-166 252l-77 9q-25 6 -25 31v59h311v-59q0 -25 -25 -31l-33 -7l114 -185l6 13q5 11 7 13l100 158l-38 8q-25 6 -25 31v59h305v-59
q0 -25 -25 -31l-76 -9l-166 -246l176 -279l76 -9q25 -6 25 -31z" />
    <glyph glyph-name="Y" unicode="Y" horiz-adv-x="726" 
d="M710 664q0 -25 -25 -31l-6 -1q-3 0 -6.5 -1t-8.5 -2l-29 -5l-204 -343v-182l29 -5q5 -1 8.5 -2t6.5 -1l6 -1q25 -6 25 -31v-59h-286v59q0 25 25 31q4 0 7 1l15 3l29 5v182l-204 343l-30 5q-5 1 -8.5 2t-6.5 1l-6 1q-25 6 -25 31v59h270v-59q0 -25 -25 -31l-4 -1l-10 -3
l-14 -3l96 -175q8 -14 20 -40q5 -11 8.5 -21t6.5 -17q5 16 15 38q12 26 20 40l95 175l-15 3q-3 1 -5 2t-4 1q-2 1 -5 1q-25 6 -25 31v59h270v-59z" />
    <glyph glyph-name="Z" unicode="Z" horiz-adv-x="593" 
d="M481 107q4 34 6.5 49.5t2.5 19.5q5 19 23 19h53v-195h-549v53q0 10 3 19q4 12 9 18l372 526h-275q-4 -37 -6.5 -52t-2.5 -19q-5 -19 -23 -19h-53l-1 197h535v-50q0 -23 -13 -42l-371 -524h290z" />
    <glyph glyph-name="bracketleft" unicode="[" horiz-adv-x="248" 
d="M232 774v-49q0 -13 -9 -22t-23 -9h-70v-768h70q14 0 23 -9t9 -23v-48h-204v928h204z" />
    <glyph glyph-name="backslash" unicode="\" horiz-adv-x="437" 
d="M106 732q16 -12 25 -32l291 -748h-52q-20 0 -38 12t-27 34l-290 745h53q23 0 38 -11z" />
    <glyph glyph-name="bracketright" unicode="]" horiz-adv-x="247" 
d="M25 -83q9 9 23 9h70v768h-70q-14 0 -23 9t-9 22v49h204v-928h-204v48q0 14 9 23z" />
    <glyph glyph-name="asciicircum" unicode="^" horiz-adv-x="490" 
d="M362 394q-7 6 -12 15l-80 145l-13 26q-7 14 -11 26q-1 -4 -3.5 -12t-5.5 -14l-13 -26l-78 -145q-4 -9 -12 -15t-20 -6h-96l187 335h80l187 -335h-91q-11 0 -19 6z" />
    <glyph glyph-name="underscore" unicode="_" horiz-adv-x="463" 
d="M34 -147v80h394v-80h-394z" />
    <glyph glyph-name="grave" unicode="`" horiz-adv-x="279" 
d="M168 724q11 -7 18 -20l71 -121h-71q-10 0 -22 4q-12 6 -18 13l-124 131h116q20 0 30 -7z" />
    <glyph glyph-name="a" unicode="a" horiz-adv-x="521" 
d="M503 60v-59h-118q-19 0 -28 5q-10 4 -15 22l-11 36q-20 -19 -38 -31q-14 -10 -39 -22q-18 -8 -42 -13q-25 -5 -50 -5q-33 0 -60 9q-29 10 -47 26q-21 19 -31 44q-11 27 -11 60q0 30 15 58q15 29 51 51q38 24 94 38q59 15 147 15v30q0 50 -22 77q-21 25 -63 25
q-32 0 -50 -7q-23 -9 -35 -16l-27 -15q-11 -7 -27 -7q-13 0 -22 6q-6 4 -14 16l-23 39q90 82 213 82q45 0 81 -15q35 -15 59 -41q27 -31 38 -63q12 -36 12 -80v-227l27 -5l11 -2q25 -6 25 -31zM230 212q-37 -8 -59 -18t-31 -24q-9 -13 -9 -31q0 -34 19 -47q20 -14 50 -14
q19 0 35 3q17 3 31 11q18 10 27 17q14 11 27 24v86q-56 0 -90 -7z" />
    <glyph glyph-name="b" unicode="b" horiz-adv-x="581" 
d="M566 261q0 -54 -16 -107q-14 -48 -44 -85q-29 -36 -70 -56q-39 -20 -91 -20q-112 0 -251 28v623l-31 5q-6 1 -10 2t-7 1l-7 1q-25 6 -25 31v59h203v-293q29 32 69 52q38 19 90 19q44 0 77 -17q34 -16 60 -50q25 -32 39 -82t14 -111zM438 261q0 47 -7 76q-8 32 -21 51
t-33 28q-19 9 -43 9q-40 0 -66 -16q-28 -17 -51 -46v-267q49 -9 100 -9q29 0 50 10q23 11 38 32q17 23 25 54q8 29 8 78z" />
    <glyph glyph-name="c" unicode="c" horiz-adv-x="459" 
d="M403 36q-20 -13 -50 -26q-22 -8 -53 -13q-24 -4 -55 -4q-49 0 -89 17q-42 18 -73 52q-33 36 -50 83q-18 50 -18 113q0 57 16 104q17 48 48 84q31 35 78 55q48 20 107 20q64 0 162 -37l-1 -158h-57q-18 0 -23 19l-8 72q-37 10 -66 10q-33 0 -57 -12q-25 -12 -40 -33
q-18 -25 -25 -54q-8 -34 -8 -70q0 -41 9 -73q9 -33 25 -54q17 -21 40 -33q25 -11 53 -11q31 0 48 7q22 9 31 16q5 4 10.5 7.5t11.5 8.5q8 7 20 7q16 0 23 -11l35 -45q-24 -27 -44 -41z" />
    <glyph glyph-name="d" unicode="d" horiz-adv-x="573" 
d="M411 2q-11 0 -20 6q-8 5 -11 17l-10 47q-30 -34 -71 -57q-40 -22 -95 -22q-43 0 -76 17q-35 18 -60 51q-25 32 -39 82q-14 51 -14 112q0 57 15 106q14 46 45 85q27 34 69 56q40 21 91 21q43 0 74 -14q33 -15 54 -36v171l-29 5q-5 1 -8.5 2t-6.5 1l-6 1q-25 6 -25 31v59
h199v-643l26 -4l13 -3l6 -1q25 -6 25 -31v-59h-146zM318 418q-27 11 -54 11q-26 0 -50 -11q-22 -10 -39 -32q-15 -21 -24 -54q-8 -29 -8 -77t7 -77q7 -30 21 -50q14 -21 32 -29q19 -9 44 -9q40 0 66 16q28 17 51 46v230q-20 25 -46 36z" />
    <glyph glyph-name="e" unicode="e" horiz-adv-x="499" 
d="M351 506q38 -14 70 -46q29 -29 46 -73q17 -45 17 -98q0 -12 -2 -24q-2 -11 -4 -14q-2 -5 -9 -8q-4 -2 -14 -2h-317q6 -79 43 -116t98 -37q31 0 51 7q22 7 38 16q7 4 14.5 7.5t14.5 7.5q11 7 23 7q8 0 14 -3q5 -2 9 -8l36 -45q-23 -26 -46 -41q-27 -17 -53 -26
q-25 -8 -57 -13q-25 -4 -56 -4q-55 0 -99 17t-80 53q-34 34 -54 86q-19 50 -19 119q0 50 17 98q16 45 49 81q31 34 77 54t104 20q49 0 89 -15zM180 402q-30 -30 -39 -86h232q0 21 -7 45q-6 19 -20 37q-13 16 -34 25q-23 10 -48 10q-53 0 -84 -31z" />
    <glyph glyph-name="f" unicode="f" horiz-adv-x="368" 
d="M213 543v-34h134v-88h-129v-322l30 -5q5 -1 9.5 -2t8.5 -1l8 -1q25 -6 25 -31v-59h-281v59q0 25 25 31q4 0 7 1l15 3l29 5v321l-44 7q-16 3 -24 10t-8 21v50h76v38q0 46 13 79q15 38 38 60q26 24 60 37q35 13 80 13q36 0 66 -9l-2 -62q-1 -15 -14 -18q-16 -4 -29 -4
q-24 0 -39 -4q-16 -4 -29 -17q-12 -12 -18 -31q-7 -23 -7 -47z" />
    <glyph glyph-name="g" unicode="g" horiz-adv-x="516" 
d="M301 515q28 -6 53 -20h147v-46q0 -12 -6 -18t-20 -9l-46 -8q4 -10 7 -28q3 -15 3 -30q0 -39 -15 -69q-16 -32 -42 -52t-64 -33q-36 -12 -79 -12q-34 0 -57 5q-24 -15 -24 -32q0 -16 14 -23t38 -10q32 -4 53 -4q10 0 25 -0.5t35 -2.5q31 -3 61 -9q26 -5 52 -20
q24 -13 38 -36q14 -22 14 -60q0 -34 -17 -66q-16 -32 -48 -57q-30 -25 -78 -40q-47 -15 -105 -15q-62 0 -102 11q-42 12 -71 30q-28 17 -42 43q-14 25 -14 51q0 38 22 61q21 23 61 38q-18 10 -30 28t-12 46q0 13 4 24q6 16 12 24q10 13 21 23q8 7 30 19q-39 21 -62 56
q-22 34 -22 82q0 39 15 69t43 52q27 21 64 33q38 12 82 12q29 0 62 -7zM279 275q17 6 28 17q10 8 17 27q6 15 6 34q0 37 -23 60q-22 22 -68 22q-47 0 -69 -22t-22 -60q0 -21 5 -34q6 -15 17 -26q13 -13 29 -18q18 -6 40 -6q23 0 40 6zM365 1q-9 9 -24 15q-11 4 -37 8
q-16 2 -44 4l-48 2q-32 2 -47 4q-23 -13 -34 -27q-13 -16 -13 -36q0 -11 7 -25q6 -12 21 -21q14 -8 39 -13q27 -5 57 -5q35 0 60 6q27 6 41 14q16 8 24 22q7 11 7 28q0 15 -9 24z" />
    <glyph glyph-name="h" unicode="h" horiz-adv-x="635" 
d="M617 59v-59h-199v326q0 48 -22 73q-21 26 -65 26q-31 0 -60 -15q-30 -16 -53 -39v-272l30 -5q5 -1 8.5 -2t6.5 -1l6 -1q25 -6 25 -31v-59h-275v59q0 25 25 31l6 1q3 0 6.5 1t8.5 2l30 5v545l-30 5q-5 1 -8.5 2t-6.5 1l-6 1q-25 6 -25 31v59h199v-286q29 27 66 46
q36 18 85 18q40 0 74 -14q29 -12 54 -40q21 -25 33 -62q12 -41 12 -78v-228l29 -5l15 -3l6 -1q25 -6 25 -31z" />
    <glyph glyph-name="i" unicode="i" horiz-adv-x="310" 
d="M229 633q-6 -14 -17 -25q-12 -12 -25 -17q-15 -6 -31 -6t-31 6q-12 5 -24 17q-11 11 -17 25t-6 30t6 31q5 13 17 25q11 11 24 16q18 7 31 7t31 -7q15 -6 25 -16q12 -12 17 -25q7 -17 7 -31t-7 -30zM293 59v-59h-275v59q0 25 25 31l6 1l15 3l30 5v315l-30 5q-5 1 -8.5 2
t-6.5 1l-6 1q-25 6 -25 31v59h199v-414l30 -5q5 -1 8.5 -2t6.5 -1l6 -1q25 -6 25 -31z" />
    <glyph glyph-name="j" unicode="j" horiz-adv-x="270" 
d="M256 662q0 -16 -6 -30q-5 -11 -18 -24q-12 -12 -25 -17q-15 -6 -31 -6t-30 6t-25 17t-17 24q-6 14 -6 30t6 31q5 13 17 25t25 17q14 6 30 6t31 -6q13 -5 25 -17q13 -13 18 -25q6 -15 6 -31zM237 -17q0 -36 -8 -63q-9 -30 -28 -52q-20 -23 -51 -35q-34 -13 -76 -13
q-12 0 -32 2q-6 1 -31 8l4 66q1 10 8 13q6 3 25 3q23 0 31 3q14 3 21 12q8 8 11 22q3 13 3 34v431l-29 5q-5 1 -8.5 2t-6.5 1l-7 1q-25 6 -25 31v59h199v-530z" />
    <glyph glyph-name="k" unicode="k" horiz-adv-x="606" 
d="M588 59v-59h-131q-13 0 -25 5q-10 4 -18 17l-130 195q-7 12 -15 15q-7 3 -23 3h-28v-136l30 -5l15 -3l6 -1q25 -6 25 -31v-59h-275v59q0 25 25 31l6 1q3 0 6.5 1t8.5 2l30 5v545l-30 5q-5 1 -8.5 2t-6.5 1l-6 1q-25 6 -25 31v59h199v-425h23q13 0 20 3q6 2 15 13l71 87
l-9 2q-25 6 -25 31v59h123v-1q4 1 10 1h110v-59q0 -25 -25 -31l-8 -1l-20 -3l-27 -4l-76 -92l-18 -20q-10 -10 -19 -15q12 -9 18 -17q3 -4 7 -9t9 -13l103 -150q22 -4 32 -5q22 -2 21 -2l10 -2q25 -6 25 -31z" />
    <glyph glyph-name="l" unicode="l" horiz-adv-x="311" 
d="M294 59v-59h-275v59q0 25 25 31l6 1l15 3l30 5v545l-30 5q-5 1 -8.5 2t-6.5 1l-6 1q-25 6 -25 31v59h199v-644l30 -5l15 -3l6 -1q25 -6 25 -31z" />
    <glyph glyph-name="m" unicode="m" horiz-adv-x="910" 
d="M891 59v-59h-199v326q0 50 -21 74q-21 25 -63 25q-17 0 -36 -7q-16 -6 -28 -18q-10 -10 -19 -31q-7 -17 -7 -43v-227l29 -5l15 -3l6 -1q25 -6 25 -31v-59h-199v326q0 51 -21 75t-61 24q-27 0 -50 -13q-21 -12 -43 -37v-276l29 -5l15 -3l6 -1q25 -6 25 -31v-59h-274v59
q0 25 25 31l6 1q3 0 6.5 1t8.5 2l29 5v315l-29 5q-5 1 -8.5 2t-6.5 1l-6 1q-26 6 -26 31v59h152q23 0 31 -23l8 -38q18 20 28 28q14 11 32 21q16 9 36 15q16 5 42 5q50 0 80 -26q32 -28 47 -70q12 26 30 44q16 16 39 29q17 10 46 17q24 6 49 6q43 0 75 -13q35 -14 56 -38
q22 -25 34 -61t12 -83v-227l29 -5q5 -1 8.5 -2t6.5 -1l6 -1q25 -6 25 -31z" />
    <glyph glyph-name="n" unicode="n" horiz-adv-x="636" 
d="M618 59v-59h-199v326q0 46 -22 73q-21 26 -65 26q-32 0 -60 -15q-30 -16 -53 -39v-272l29 -5l15 -3l6 -1q25 -6 25 -31v-59h-274v59q0 25 25 31l6 1l15 3l29 5v315l-29 5q-5 1 -8.5 2t-6.5 1l-6 1q-25 6 -25 31v59h151q23 0 31 -23l9 -40q14 16 32 29q14 11 37 22
q26 12 41 15q25 5 48 5q44 0 75 -14q29 -12 54 -40q21 -25 33 -62q11 -33 11 -79v-227l30 -5q5 -1 8.5 -2t6.5 -1l6 -1q25 -6 25 -31z" />
    <glyph glyph-name="o" unicode="o" horiz-adv-x="538" 
d="M374 502q48 -19 80 -52t50 -83q18 -49 18 -109t-18 -110q-19 -51 -50 -84q-33 -35 -80 -53q-46 -18 -104 -18t-105 18t-80 53q-35 36 -52 84q-18 50 -18 110t18 109q17 46 52 83q32 33 80 52q49 19 105 19q55 0 104 -19zM364 131q31 45 31 126t-31 126q-30 44 -94 44
t-96 -44t-32 -127q0 -81 32 -125q31 -43 96 -43q64 0 94 43z" />
    <glyph glyph-name="p" unicode="p" horiz-adv-x="577" 
d="M561 261q0 -54 -16 -107q-14 -48 -44 -85q-27 -34 -69 -56q-39 -20 -92 -20q-44 0 -73 13q-33 15 -55 37v-111l17.5 -3.5l12.5 -2.5q16 -2 15 -2l6 -1q25 -6 25 -32v-58h-275v58q0 26 25 32l6 1l15 2l30 6v482l-30 5q-5 1 -8.5 2t-6.5 1l-6 1q-25 6 -25 31v59h151
q12 0 21 -6q8 -5 11 -17l10 -47q30 34 71 57q40 22 94 22q44 0 77 -17q35 -18 60 -51q25 -32 39 -82q14 -51 14 -111zM433 260q0 48 -7 77q-7 30 -21 50t-33 29t-43 9q-40 0 -66 -16q-28 -17 -51 -46v-230q20 -25 46 -36q23 -10 53 -10t51 10q20 9 38 32q17 23 25 54
q8 29 8 77z" />
    <glyph glyph-name="q" unicode="q" horiz-adv-x="578" 
d="M567 -109v-59h-279v59q0 25 25 31l6 1l15 3l29 5v133q-28 -30 -69 -51q-40 -20 -90 -20q-41 0 -76 18q-36 19 -60 50q-26 33 -39 81q-14 50 -14 112q0 57 15 106q14 46 45 85q30 38 69 57q39 20 91 20q113 0 252 -28v-563l31 -5q6 -1 10 -2t6 -1l8 -1q25 -6 25 -31z
M363 151v267q-55 10 -99 10q-27 0 -51 -11q-23 -11 -38 -32q-14 -18 -24 -54q-9 -33 -9 -77q0 -42 8 -76t20 -51q14 -20 33 -29t44 -9q38 0 66 17q27 17 50 45z" />
    <glyph glyph-name="r" unicode="r" horiz-adv-x="436" 
d="M422 505l-16 -93q-1 -9 -6 -12q-6 -4 -14 -4q-7 0 -20 3q-18 4 -35 4q-39 0 -66 -21q-25 -19 -46 -63v-220l50 -9q25 -6 25 -31v-59h-274v59q0 25 25 31l50 9v315l-50 9q-25 6 -25 31v59h148q19 0 26 -7t10 -24l8 -62q27 49 64 75q38 27 83 27q39 0 63 -17z" />
    <glyph glyph-name="s" unicode="s" horiz-adv-x="402" 
d="M389 163q0 -36 -14 -69q-14 -31 -39 -54q-27 -24 -64 -35q-36 -13 -88 -13q-45 0 -88.5 8t-74.5 20v145h58q18 0 23 -19q2 -11 7 -59q27 -8 81 -8q21 0 38 5q17 6 26 14q12 10 15 19q4 11 4 24q0 18 -10 29q-9 10 -29 20q-19 9 -40 15l-47 15q-16 5 -46 19q-24 11 -41 27
q-18 16 -28 40q-11 25 -11 58q0 32 12 60t37 50t61 34q39 13 83 13q38 0 67 -5.5t83 -21.5h-1v-145h-57q-18 0 -23 19q-3 13 -7 56q-23 7 -60 7q-36 0 -57 -15t-21 -41q0 -15 11 -28q8 -9 28 -19q23 -11 40 -16q8 -2 46 -14q19 -6 47 -19q24 -11 40 -26q18 -15 28 -37
q11 -24 11 -53z" />
    <glyph glyph-name="t" unicode="t" horiz-adv-x="374" 
d="M125 30q-36 38 -36 104v286h-52q-8 0 -17 7q-8 6 -8 19v50l83 13l26 140q1 9 9 15t19 6h64v-162h135v-88h-135v-278q0 -23 12 -37q12 -13 32 -13q14 0 19 2l13 6l11 6q3 2 8 2q8 0 10 -2l7 -8l37 -60q-26 -21 -62 -34q-34 -12 -72 -12q-67 0 -103 38z" />
    <glyph glyph-name="u" unicode="u" horiz-adv-x="630" 
d="M611 59v-59h-151q-23 0 -31 23l-9 41q-17 -17 -33 -30q-15 -12 -36 -22q-20 -9 -42 -15q-25 -5 -47 -5q-41 0 -75 14q-29 12 -54 41q-20 23 -33 61q-11 38 -11 79v227l-51 9q-25 6 -25 31v59h199v-326q0 -46 22 -73q21 -25 65 -25q30 0 60 14q27 13 53 39v272
q-28 5 -37 6.5t-13 2.5q-25 6 -25 31v59h199v-414l50 -9q25 -6 25 -31z" />
    <glyph glyph-name="v" unicode="v" horiz-adv-x="614" 
d="M599 454q0 -25 -25 -31q-4 0 -12 -2t-35 -7l-165 -414h-112l-165 414q-51 10 -47 9q-25 6 -25 31v59h250v-59q0 -25 -25 -31l-28 -5l73 -202q5 -14 14 -47q7 -27 11 -46q7 34 10 46q6 24 15 47l74 201q-19 3 -24.5 4.5t-8.5 1.5q-25 6 -25 31v59h250v-59z" />
    <glyph glyph-name="w" unicode="w" horiz-adv-x="894" 
d="M879 454q0 -25 -25 -31q4 1 -47 -9l-131 -414h-100q-16 0 -23 22l-92 296q-2 5 -4.5 12.5t-4.5 17.5q-1 2 -6 29l-6 -30q-2 -10 -8 -30l-94 -295q-7 -22 -27 -22h-94l-132 414q-27 5 -35 7t-12 2q-25 6 -25 31v59h250v-59q0 -25 -25 -31l-31 -6l54 -201q8 -30 10 -44
l7 -43l12 43q10 35 13 44l85 275q3 10 12 16q10 7 21 7h55q12 0 22 -7q9 -6 12 -16l84 -280l12 -42l10 -41q2 17 8 43l11 45l55 200l-36 7q-25 6 -25 31v59h250v-59z" />
    <glyph glyph-name="x" unicode="x" horiz-adv-x="561" 
d="M542 59v-59h-223v59q0 25 24 31l-68 111q-4 -15 -13 -30l-52 -80l6 -1q25 -6 25 -31v-59h-223v59q0 25 26 31l42 7l112 167l-103 152l-41 7q-25 6 -25 31v59h222v-59q0 -25 -25 -31l61 -98l6 17q1 4 10 17l39 62l-8 2q-25 6 -25 31v59h223v-59q0 -25 -25 -31l-43 -7
l-102 -146l113 -173l42 -7q25 -6 25 -31z" />
    <glyph glyph-name="y" unicode="y" horiz-adv-x="611" 
d="M596 454q0 -25 -25 -31q-4 0 -12 -2t-35 -7l-237 -555q-6 -14 -15 -20q-7 -6 -26 -6h-92l96 205l-165 376q-27 5 -35 7t-12 2q-25 6 -25 31v59h250v-59q0 -25 -25 -31l-24 -4l81 -195q4 -9 6 -16t3 -11q2 -7 7 -28l9 28q6 18 10 27l75 193l-34 6q-25 6 -25 31v59h250v-59
z" />
    <glyph glyph-name="z" unicode="z" horiz-adv-x="449" 
d="M428 0h-410v52q0 9 4 20q5 14 12 22l246 324h-161q-4 -40 -6 -50q-5 -19 -23 -19h-58v164h389v-51q0 -14 -4 -25q-3 -7 -12 -21l-243 -321h179l6 54q5 19 23 19h58v-168z" />
    <glyph glyph-name="braceleft" unicode="{" horiz-adv-x="280" 
d="M61 255q-15 19 -45 19v72q30 0 45 19q15 20 15 50q0 14 -4 46q-4 29 -7 47q-6 34 -8 47q-3 24 -3 49q0 36 11 69q10 29 34 53q23 23 57 35q37 13 82 13h26v-56q0 -8 -2 -11q-3 -4 -7 -7q-6 -4 -9 -5t-8 -1h-5q-35 0 -53 -22q-19 -24 -19 -61q0 -27 3 -53l7 -49l6 -46
q3 -22 3 -47q0 -22 -5 -36q-7 -20 -16 -31q-12 -16 -24 -24q-15 -10 -33 -15q19 -6 33 -16q12 -8 24 -24q9 -11 16 -31q5 -14 5 -36q0 -23 -3 -46l-6 -47l-7 -49q-2 -17 -2 -53q0 -38 18 -60t54 -22h4l8 -2q6 -2 9 -4t7 -8q2 -3 2 -12v-54h-26q-47 0 -82 12q-34 12 -57 35
q-24 24 -34 53q-11 33 -11 70q0 24 3 48q2 13 8 47q3 18 7 47q4 32 4 47q0 31 -15 50z" />
    <glyph glyph-name="bar" unicode="|" horiz-adv-x="150" 
d="M124 -168h-96v942h96v-942z" />
    <glyph glyph-name="braceright" unicode="}" horiz-adv-x="280" 
d="M208 158q4 -29 7 -47q6 -34 8 -47q3 -24 3 -49q0 -36 -11 -69q-9 -29 -34 -53q-23 -23 -57 -35q-35 -12 -82 -12h-26v54q0 9 2 12q4 6 7 8t9 4l8 2h4q36 0 54 22q19 24 19 60q0 28 -3 53l-7 49l-6 46q-3 23 -3 47q0 21 5 35q8 21 16 32q12 16 24 24q14 10 33 16
q-18 5 -33 15q-12 8 -24 24q-9 11 -16 31q-5 14 -5 36q0 24 3 46l6 47l7 49q3 26 3 53q0 37 -19 61q-18 22 -53 22h-5q-5 0 -8 1t-9 5q-4 3 -7 7q-2 3 -2 11v56h26q45 0 82 -13q34 -12 57 -35q25 -24 34 -53q11 -33 11 -69q0 -25 -3 -49q-2 -13 -8 -47q-3 -14 -7 -47
q-3 -24 -3 -47q0 -31 14 -49q15 -19 46 -19v-72q-31 0 -46 -19q-14 -18 -14 -50q0 -23 3 -47z" />
    <glyph glyph-name="asciitilde" unicode="~" horiz-adv-x="532" 
d="M392 342q16 19 16 51h99q0 -40 -10 -70q-10 -31 -30 -54q-19 -22 -47 -34t-64 -12q-29 0 -51 7q-7 2 -21.5 6.5t-24.5 8.5l-41 16q-18 7 -34 7q-29 0 -44 -18q-16 -19 -16 -51h-99q0 40 10 70t30 53q21 24 47 35q28 12 64 12q29 0 51 -7q10 -3 46 -16q12 -5 22.5 -8.5
t18.5 -6.5q18 -7 34 -7q29 0 44 18z" />
    <glyph glyph-name="uni00A0" unicode="&#xa0;" horiz-adv-x="231" 
 />
    <glyph glyph-name="exclamdown" unicode="&#xa1;" horiz-adv-x="191" 
d="M26 476q6 14 15 23q10 10 24 16t30 6t30 -6q16 -7 24 -15q10 -10 16 -24q6 -13 6 -30q0 -16 -6 -30q-6 -13 -16 -23t-24 -16t-29 -6q-17 0 -30 6q-14 6 -24 16t-16 23q-6 14 -6 30q0 17 6 30zM44 188q5 44 12 93h83q7 -49 12 -93q5 -48 5 -89v-267h-117v267q0 41 5 89z
" />
    <glyph glyph-name="cent" unicode="&#xa2;" horiz-adv-x="466" 
d="M406 35q-21 -15 -49 -26q-21 -8 -54 -13q-28 -4 -43 -4l-4 -58l-2 -14q-2 -12 -10 -22q-10 -10 -23 -10h-46l6 66l4 46l-26 9q-42 18 -73 52t-49 83q-19 52 -19 113q0 55 17 104q17 50 47 84q31 35 78 55q31 14 69 18l5 47l2 32q2 12 10 22q8 9 24 9h45l-6 -72v-1l-3 -37
q38 -4 123 -35v-158h-58q-18 0 -23 19l-8 72q-27 8 -42 9l-1 -3l-29 -336h4q31 0 48 7q20 8 30 16q5 4 10.5 7.5t11.5 8.5q8 7 21 7q15 0 22 -12l36 -44q-22 -25 -45 -41zM179 130q10 -12 16 -17l11 133l15 169h-2l-0.5 -0.5l-0.5 -0.5q-25 -13 -41 -34q-17 -23 -24 -53
q-8 -34 -8 -71q0 -40 9 -72q9 -33 25 -54z" />
    <glyph glyph-name="sterling" unicode="&#xa3;" horiz-adv-x="577" 
d="M29 369q10 12 31 12h54v118q0 45 14 89q14 43 42 74q29 32 72 50q46 19 100 19q42 0 72 -10q35 -12 57 -28q28 -21 43 -41t31 -52l-49 -31q-18 -8 -29 -8q-18 0 -33 17l-19 20q-11 11 -20 16q-13 8 -23 10q-12 3 -30 3q-51 0 -77 -34q-25 -32 -25 -93v-119h204v-49
q0 -12 -9 -22t-26 -10h-169v-97q0 -33 -12 -59q-11 -23 -34 -48q38 9 73 9h293v-52q0 -10 -3 -19t-11 -17q-7 -7 -17 -12t-21 -5h-480v78q22 6 32 11q20 10 28 18q9 9 18 27q8 16 8 36v130h-96v40q0 16 11 29z" />
    <glyph glyph-name="currency" unicode="&#xa4;" horiz-adv-x="505" 
d="M75 387q5 21 19 45l-76 76l62 60l76 -74q17 11 46 20q22 7 51 7q22 0 50 -7q21 -5 45 -19l76 76l62 -61l-76 -76q11 -17 20 -46q8 -26 8 -52q0 -22 -7 -50q-5 -19 -19 -44l76 -76l-62 -62l-76 76q-17 -11 -46 -20q-26 -8 -51 -8q-22 0 -50 7q-21 5 -45 19l-76 -76l-62 62
l76 75q-11 17 -20 46q-8 26 -8 51q0 23 7 51zM167 300q7 -17 20 -30q13 -12 29 -20q18 -8 37 -8q18 0 37 8q17 7 30 20t20 30t7 36q0 21 -7 38t-20 30t-30 20q-19 8 -37 8q-19 0 -37 -8q-16 -7 -29 -20t-20 -30t-7 -38q0 -19 7 -36z" />
    <glyph glyph-name="yen" unicode="&#xa5;" horiz-adv-x="596" 
d="M16 723h102q19 0 28 -8q13 -11 18 -22l109 -244q10 -21 16 -41q3 -9 10 -38q7 29 10 38q8 26 15 41l109 244q6 11 17 21q10 9 28 9h103l-199 -407h138v-68h-160v-48h160v-68h-160v-132h-124v132h-160v68h160v48h-160v68h138z" />
    <glyph glyph-name="brokenbar" unicode="&#xa6;" horiz-adv-x="149" 
d="M122 369h-96v405h96v-405zM122 -168h-96v404h96v-404z" />
    <glyph glyph-name="section" unicode="&#xa7;" horiz-adv-x="452" 
d="M105.5 -44q-48.5 17 -81.5 46l28 47q13 18 32 18q9 0 30 -12q24 -13 46 -21t52 -8q39 0 63 16t24 48q0 22 -13.5 37t-35.5 25.5t-67 28.5l-25 9q-68 26 -104 62t-36 90q0 85 84 121q-27 24 -39.5 49.5t-12.5 61.5q0 74 53.5 115t138.5 41q52 0 96 -16.5t74 -46.5l-28 -45
q-8 -15 -24 -15q-10 0 -20 5l-25 11q-23 10 -35.5 13.5t-35.5 3.5q-36 0 -61 -16.5t-25 -43.5q0 -22 22.5 -37.5t65.5 -34.5q71 -29 108.5 -50t58.5 -50t21 -71q0 -44 -19.5 -76t-58.5 -50q50 -40 50 -101q0 -82 -56.5 -126.5t-147.5 -44.5q-48 0 -96.5 17zM327 310
q0 21 -13 36t-38 28q-31 16 -63 29q-14 6 -43 19q-22 -12 -32.5 -25.5t-10.5 -34.5q0 -37 52 -63q25 -13 64 -29q26 -10 46 -19q38 20 38 59z" />
    <glyph glyph-name="dieresis" unicode="&#xa8;" horiz-adv-x="373" 
d="M156 620q-7 -14 -15 -22q-6 -6 -22 -14q-10 -5 -27 -5q-16 0 -26 5q-16 8 -22 14t-14 22q-6 12 -6 26q0 15 6 27q9 18 14 23q6 6 22 14q12 6 26 6q15 0 27 -6q16 -8 22 -14q7 -7 15 -23q6 -12 6 -27q0 -14 -6 -26zM344 620q-6 -12 -16 -22q-6 -6 -22 -14q-10 -5 -26 -5
q-17 0 -27 5q-16 8 -22 14q-8 8 -15 22q-5 10 -5 26q0 17 5 27q8 16 15 23q6 6 22 14q12 6 27 6q14 0 26 -6q14 -6 22 -14q9 -9 16 -23q5 -10 5 -27q0 -16 -5 -26z" />
    <glyph glyph-name="copyright" unicode="&#xa9;" horiz-adv-x="775" 
d="M32 460q14 49 37 88q25 42 58 75q31 31 75 57q41 24 88 38q45 13 98 13q52 0 98 -13q49 -14 88 -37q42 -25 75 -58q33 -34 57 -75q25 -43 38 -88q13 -46 13 -98t-13 -98q-13 -45 -38 -88q-26 -44 -57 -75t-75 -57q-43 -25 -88 -38q-46 -13 -98 -13q-53 0 -98 13
q-47 14 -88 38q-44 26 -75 57q-33 33 -58 75q-22 38 -37 88q-14 48 -14 98q0 48 14 98zM109 240q24 -56 64 -98q41 -42 96 -66q56 -24 119 -24t118 24q57 25 97 66q42 44 65 98q23 55 23 122q0 41 -11 83q-10 41 -30 75q-19 33 -47 63q-22 23 -61 48q-31 20 -73 31
q-45 12 -81 12q-37 0 -82 -12q-40 -11 -72 -31q-39 -25 -61 -48q-28 -30 -47 -63q-19 -34 -30 -75q-10 -39 -10 -83q0 -67 23 -122zM510 254q7 -5 8 -6l41 -44q-28 -36 -71 -54q-44 -19 -100 -19q-49 0 -90 18t-69 49q-31 35 -45 73q-15 42 -15 92q0 54 17 94q19 44 49 73
q35 33 73 48q41 16 90 16q57 0 96 -18q41 -19 67 -48l-33 -44l-8 -8q-4 -4 -13 -4q-8 0 -16 5l-18 11q-12 7 -27 11q-18 5 -41 5q-26 0 -53 -10q-24 -10 -40 -28q-15 -17 -25 -44q-9 -25 -9 -59t9 -60t24 -44q14 -17 37 -27q21 -9 46 -9q28 0 41 4q20 5 26 9l20 12q7 4 19 8
q7 0 10 -2z" />
    <glyph glyph-name="ordfeminine" unicode="&#xaa;" horiz-adv-x="316" 
d="M230 424q-6 2 -10 14l-6 18q-5 -5 -12.5 -9.5t-11.5 -7.5q-14 -10 -22 -13q-9 -4 -25 -7q-14 -3 -29 -3q-22 0 -38 6q-20 7 -30 16q-13 11 -19 27q-7 18 -7 36q0 16 9 34t29 31q22 14 57 23q38 10 89 11v12q0 28 -11 39t-35 11q-14 0 -28 -4q-7 -2 -19 -8l-16 -8
q-7 -3 -18 -3q-9 0 -16 5q-6 5 -10 12l-16 28q27 24 62 37q33 12 72 12q29 0 51 -9q24 -10 38 -25q15 -17 24 -39t9 -48v-192h-41q-10 0 -20 4zM175 484q13 5 29 21v41q-23 -1 -48 -5q-10 -2 -30 -9q-11 -6 -16 -12q-4 -5 -4 -14q0 -17 9 -23t27 -6q16 0 33 7z" />
    <glyph glyph-name="guillemotleft" unicode="&#xab;" horiz-adv-x="393" 
d="M148 475l40 -19q11 -4 15 -12q5 -8 5 -15q0 -9 -7 -21l-69 -118q-8 -14 -16 -21q10 -10 16 -21l69 -118q7 -12 7 -22q0 -17 -19 -26l-41 -19l-128 198v16zM313 475l40 -19q11 -5 15 -11q4 -7 4 -16q0 -10 -6 -21l-69 -118q-8 -14 -16 -21q10 -10 16 -21l69 -118
q6 -10 6 -22q0 -17 -19 -26l-41 -19l-128 198l1 16z" />
    <glyph glyph-name="logicalnot" unicode="&#xac;" horiz-adv-x="498" 
d="M470 148h-105v142h-339v92h444v-234z" />
    <glyph glyph-name="uni00AD" unicode="&#xad;" horiz-adv-x="316" 
d="M288 250h-260v104h260v-104z" />
    <glyph glyph-name="registered" unicode="&#xae;" horiz-adv-x="775" 
d="M32 460q14 49 37 88q25 42 58 75q31 31 75 57q41 24 88 38q45 13 98 13q52 0 98 -13q45 -13 88 -38q44 -26 75 -57t57 -75q25 -43 38 -88q13 -46 13 -98t-13 -98q-13 -45 -38 -88q-26 -44 -57 -75t-75 -57q-43 -25 -88 -38q-46 -13 -98 -13q-53 0 -98 13q-47 14 -88 38
q-44 26 -75 57q-33 33 -58 75q-22 38 -37 88q-14 48 -14 98q0 48 14 98zM109 240q24 -56 64 -98q41 -42 96 -66q56 -24 119 -24t118 24q57 25 97 66q42 44 65 98q23 55 23 122q0 41 -11 83q-10 41 -30 75q-19 33 -47 63q-22 23 -61 48q-31 20 -73 31q-45 12 -81 12
q-37 0 -82 -12q-36 -10 -72 -31q-39 -25 -61 -48q-28 -30 -47 -63q-19 -34 -30 -75q-10 -39 -10 -84q0 -66 23 -121zM224 138v449h161q94 0 137 -33q44 -33 44 -96q0 -43 -24 -78q-23 -34 -71 -49q10 -5 19 -16q10 -14 15 -23l91 -154h-103q-23 0 -32 17l-72 131
q-5 8 -11 11q-8 4 -19 4h-27v-163h-108zM418 382q19 5 26 12q10 10 13 22t3 28q0 15 -3 27q-3 14 -11 20q-10 8 -23 11q-20 4 -38 4h-53v-128h44q27 0 42 4z" />
    <glyph glyph-name="macron" unicode="&#xaf;" horiz-adv-x="352" 
d="M326 607h-300v79h300v-79z" />
    <glyph glyph-name="degree" unicode="&#xb0;" horiz-adv-x="387" 
d="M33 628q14 32 37 54q26 25 55 37q30 13 68 13t68 -13q29 -12 55 -37q23 -22 37 -54q13 -30 13 -66t-13 -66t-37 -54q-23 -23 -55 -37q-30 -13 -69 -13q-38 0 -68 13t-54 37t-37 54t-13 66t13 66zM112 526q5 -14 19 -28q12 -12 27 -18q18 -7 35 -7q15 0 34 7q18 8 28 18
q12 12 18 28q7 19 7 34q0 17 -7 36q-6 16 -18 28q-11 12 -28 19q-15 7 -34 7q-21 0 -35 -7q-16 -8 -27 -19q-12 -12 -18 -28q-7 -19 -7 -36t6 -34z" />
    <glyph glyph-name="plusminus" unicode="&#xb1;" horiz-adv-x="531" 
d="M510 444v-92h-194v-171h-100v171h-194v92h194v176h100v-176h194zM510 40h-488v92h488v-92z" />
    <glyph glyph-name="uni00B2" unicode="&#xb2;" horiz-adv-x="312" 
d="M291 450h-271v28q0 6 4 18q4 11 11 18l104 103l21 23q5 6 17 25q8 12 12 24q4 11 4 24q0 16 -10 29q-8 11 -27 11q-17 0 -26 -8q-11 -10 -17 -24q-5 -8 -12 -13t-18 -5l-5 1h-6l-50 8q9 59 46 85q38 27 93 27q32 0 52 -8q23 -9 38 -23q18 -18 24 -34q8 -21 8 -43
q0 -21 -6 -38q-6 -16 -17 -32q-14 -20 -23 -30l-29 -30l-64 -65q7 2 28 7q9 2 25 2h45l1 14q3 11 14 11h34v-105z" />
    <glyph glyph-name="uni00B3" unicode="&#xb3;" horiz-adv-x="305" 
d="M211 816q23 -9 37 -22q18 -17 24 -30q8 -19 8 -36q0 -33 -13 -53q-14 -22 -42 -34q32 -11 46 -28q15 -18 15 -48t-12 -53q-12 -22 -30 -37q-17 -14 -42 -22q-22 -7 -47 -7q-32 0 -49 5q-24 7 -38 17q-18 13 -29 31q-15 24 -22 47l39 16q9 4 20 4q17 0 25 -14q4 -8 7 -12
q4 -6 10 -10q7 -5 14 -8t18 -3q22 0 35 13q12 12 12 30q0 13 -3 22q-3 8 -12 14q-10 7 -23 8q-10 2 -35 2v58q17 0 35 4q13 3 21 9q9 7 11 14q3 9 3 19q0 19 -9 29q-9 11 -29 11q-19 0 -28 -8q-10 -9 -16 -22q-4 -10 -10 -14q-7 -5 -16 -5t-14 1l-45 8q5 30 16 50
q13 23 29 35q21 16 40 21q23 6 48 6q31 0 51 -8z" />
    <glyph glyph-name="acute" unicode="&#xb4;" horiz-adv-x="282" 
d="M119 587q-12 -4 -23 -4h-74l71 121q8 15 17 20q12 7 30 7h120l-123 -131q-8 -10 -18 -13z" />
    <glyph glyph-name="uni00B5" unicode="&#xb5;" horiz-adv-x="503" 
d="M174 114q21 -26 65 -26q32 0 60 15q30 16 53 39v371h123v-513h-75q-25 0 -32 22l-8 42q-14 -14 -31 -26q-20 -14 -30 -18q-19 -8 -32 -10q-16 -3 -36 -3q-30 0 -54 9q-23 9 -42 26q5 -20 7 -46q2 -32 2 -44v-120h-61q-24 0 -40 14q-15 13 -15 38v629h124v-326
q0 -46 22 -73z" />
    <glyph glyph-name="paragraph" unicode="&#xb6;" horiz-adv-x="703" 
d="M578 620v-724h-108v724h-117v-724h-108v419q-53 0 -94 16t-72 44q-29 26 -46 65q-16 36 -16 78q0 48 16 84q16 37 46 64t72 42t94 15h441v-103h-108z" />
    <glyph glyph-name="periodcentered" unicode="&#xb7;" horiz-adv-x="240" 
d="M33 334q7 17 20 30t29 20q18 8 37 8q18 0 37 -8q17 -7 30 -20t20 -30q8 -19 8 -36q0 -19 -8 -37q-7 -16 -20 -29t-30 -20q-19 -8 -37 -8q-19 0 -37 8q-17 8 -29 20t-20 29q-7 15 -7 37q0 19 7 36z" />
    <glyph glyph-name="cedilla" unicode="&#xb8;" horiz-adv-x="247" 
d="M69 -117q12 -3 22 -3q15 0 24 5t9 16q0 15 -18 21q-20 7 -56 11l23 74h77l-10 -35q43 -10 62 -29q18 -18 18 -45q0 -36 -36 -54t-85 -18q-23 0 -38.5 2t-34.5 9l11 38q3 11 14 11q6 0 18 -3z" />
    <glyph glyph-name="uni00B9" unicode="&#xb9;" horiz-adv-x="284" 
d="M120 687l2 25l-38 -30q-7 -6 -18 -6q-7 0 -13 3t-9 7l-27 38l117 96h74v-313h58v-57h-216v57h70v180z" />
    <glyph glyph-name="ordmasculine" unicode="&#xba;" horiz-adv-x="368" 
d="M251 721q31 -11 51 -31q23 -23 34 -50q12 -30 12 -66t-12 -66q-11 -28 -34 -51q-20 -20 -51 -31q-34 -12 -66 -12q-33 0 -67 12q-32 11 -52 31q-23 23 -34 51q-12 30 -12 66t12 66q11 27 34 50q20 20 52 31q31 11 67 11q35 0 66 -11zM235 508q16 20 16 66q0 45 -16 65
q-17 21 -50 21q-35 0 -52 -21q-16 -20 -16 -65q0 -46 16 -66q17 -22 52 -22q33 0 50 22z" />
    <glyph glyph-name="guillemotright" unicode="&#xbb;" horiz-adv-x="394" 
d="M27 94q-5 8 -5 15q0 9 7 21l69 118q6 11 16 21q-8 7 -16 21l-69 118q-7 12 -7 21q0 18 20 27l40 19l128 -198v-16l-128 -198l-40 19q-10 5 -15 12zM192 94q-5 8 -5 15q0 9 7 21l68 118q6 11 16 21q-8 7 -16 21l-68 118q-7 12 -7 21q0 18 19 27l40 19l128 -198v-16
l-128 -198l-40 19q-9 4 -14 12z" />
    <glyph glyph-name="onequarter" unicode="&#xbc;" horiz-adv-x="701" 
d="M118 590l2 26l-38 -31q-7 -6 -17 -6q-7 0 -13 3t-9 7l-27 37l116 98h74v-314h58v-57h-216v57h70v180zM177 8q-16 -8 -33 -8h-54l418 682q13 21 26 30q16 11 38 11h53l-420 -687q-13 -21 -28 -28zM684 97q0 -7 -4 -11q-6 -6 -12 -6h-30v-80h-74v80h-145q-13 0 -19 6
q-7 7 -8 13l-8 38l168 233h86v-229h46v-44zM565 267.5q1 7.5 2 12.5l-101 -139h98v110q0 9 1 16.5z" />
    <glyph glyph-name="onehalf" unicode="&#xbd;" horiz-adv-x="689" 
d="M118 590l3 26l-39 -31q-7 -6 -17 -6q-7 0 -13 3t-9 7l-27 37l116 98h75v-314h57v-57h-215v57h69v180zM157 8q-16 -8 -34 -8h-53l417 682q12 20 27 30q16 11 38 11h53l-420 -687q-13 -21 -28 -28zM671 0h-270v29q0 8 3 17t12 18l104 103l21 23q5 6 17 25q5 8 11 24
q4 11 4 24q0 17 -9 29q-8 11 -27 11q-16 0 -27 -8q-10 -7 -17 -24q-6 -9 -11 -13q-7 -5 -18 -5l-5 1h-7l-49 8q9 59 45 85q38 27 93 27q32 0 52 -8q27 -11 39 -23q18 -18 24 -34q8 -21 8 -43q0 -19 -7 -38t-16 -32q-10 -15 -24 -30l-28 -30l-64 -65q9 3 27 7q9 2 25 2h45
l2 14q3 11 14 11h33v-105z" />
    <glyph glyph-name="threequarters" unicode="&#xbe;" horiz-adv-x="711" 
d="M209 719q25 -10 37 -21q18 -16 24 -31q8 -19 8 -36q0 -33 -13 -53q-15 -23 -41 -34q31 -11 45 -28q15 -18 15 -48q0 -32 -11 -53q-12 -22 -30 -37q-17 -14 -42 -22q-22 -7 -47 -7q-31 0 -49 5q-24 7 -38 17q-18 13 -29 31q-14 23 -22 48l38 15q9 4 20 4q18 0 26 -14
q1 -2 2 -5t4 -7q4 -6 10 -10q7 -5 14 -8q8 -3 19 -3q23 0 35 12t12 30q0 11 -4 23q-3 9 -12 15q-6 4 -22 7q-15 3 -36 3v58q22 0 35 3q15 3 22 9q9 7 11 14q3 9 3 19q0 17 -10 29q-9 11 -29 11q-17 0 -28 -8q-10 -7 -16 -21q-5 -11 -10 -15q-7 -5 -16 -5q-3 0 -13 2l-45 7
q5 33 15 50q13 23 29 35q21 16 40 21q26 7 48 7q29 0 51 -9zM189 8q-16 -8 -33 -8h-54l418 682q13 21 26 30q16 11 38 11h53l-420 -687q-13 -21 -28 -28zM695 97q0 -6 -5 -11q-6 -6 -12 -6h-30v-80h-74v80h-144q-13 0 -19 6q-8 8 -9 13l-7 38l167 233h86v-229h47v-44z
M575 250q0 9 1 16.5t2 12.5l-102 -138h98v84z" />
    <glyph glyph-name="questiondown" unicode="&#xbf;" horiz-adv-x="422" 
d="M162 476q6 14 16 24q9 9 25 16q14 6 30 6t29 -6q14 -6 24 -16t16 -24q6 -13 6 -30q0 -16 -6 -30q-6 -13 -16 -23t-24 -16q-13 -6 -30 -6q-16 0 -30 6t-24 16t-16 23q-6 14 -6 30q0 17 6 30zM367 -130q-18 -12 -44 -23q-22 -9 -51 -16q-27 -6 -60 -6q-43 0 -79 12
q-35 12 -61 33q-26 22 -40 52q-14 31 -14 70q0 33 12 64q11 27 27 45q16 17 37 32l37 25q21 14 30 23q12 12 15 28l12 72h84l9 -81l1 -5v-5q0 -21 -12 -38t-27 -28q-22 -16 -35 -23q-19 -10 -36 -24q-19 -16 -28 -31q-10 -17 -10 -44q0 -17 6 -32q5 -11 19 -24q11 -9 29 -16
q16 -6 36 -6q25 0 48 7q17 5 33 14l23 14q10 7 18 7q18 0 26 -16l32 -52q-22 -18 -37 -28z" />
    <glyph glyph-name="Agrave" unicode="&#xc0;" horiz-adv-x="812" 
d="M793 51v-51h-244v51q0 17 20 26l20 8l-40 109h-288l-40 -109l20 -8q20 -9 20 -26v-51h-244v51q0 17 20 26l55 23l244 623h138l245 -623l55 -23q19 -7 19 -26zM515 289l-83 225q-12 33 -27 85l-9 -31q-8 -27 -18 -55l-82 -224h219zM340 886l109 -112h-97q-14 0 -23 3
t-18 10l-149 109h137q31 0 41 -10z" />
    <glyph glyph-name="Aacute" unicode="&#xc1;" horiz-adv-x="812" 
d="M793 51v-51h-244v51q0 17 20 26l20 8l-40 109h-288l-40 -109l20 -8q20 -9 20 -26v-51h-244v51q0 17 20 26l55 23l244 623h138l245 -623l55 -23q19 -7 19 -26zM515 289l-83 225q-12 33 -27 85l-9 -31q-8 -27 -18 -55l-82 -224h219zM638 896l-149 -109q-9 -7 -18 -10
t-23 -3h-97l109 112q10 10 41 10h137z" />
    <glyph glyph-name="Acircumflex" unicode="&#xc2;" horiz-adv-x="811" 
d="M477 777q-8 1 -14 6l-51 33l-3 3l-4 3l-3 -3l-5 -3l-50 -33q-6 -4 -15 -6q-12 -2 -16 -2h-94l121 109h123l121 -109h-93q-5 0 -17 2zM793 51v-51h-244v51q0 17 20 26q1 1 6 2.5t14 5.5l-4 11l-36 98h-288l-37 -103l-3 -6q9 -4 14 -5.5t6 -2.5q20 -9 20 -26v-51h-244v51
q0 17 20 26l55 23l244 623h138l245 -623l55 -23q19 -7 19 -26zM515 289l-83 225l-13 37q-5 14 -8 26.5t-6 21.5l-14 -48q-2 -8 -13 -38l-82 -224h219z" />
    <glyph glyph-name="Atilde" unicode="&#xc3;" horiz-adv-x="811" 
d="M488 857q9 8 9 24h67q0 -20 -7 -45q-6 -19 -18 -35q-11 -13 -30 -23q-16 -8 -40 -8q-20 0 -34 5l-32 12l-29 12q-14 6 -24 6q-13 0 -21 -9q-9 -11 -9 -24h-68q0 21 7 45q5 19 19 36q11 13 30 23q18 9 39 9q18 0 35 -6l33 -12l28 -12q11 -5 23 -5q14 0 22 7zM793 51v-51
h-244v51q0 17 20 26q1 1 6 2.5t14 5.5l-4 11l-36 98h-288l-37 -103l-3 -6q9 -4 14 -5.5t6 -2.5q20 -9 20 -26v-51h-244v51q0 17 20 26l55 23l244 623h138l245 -623l55 -23q19 -7 19 -26zM515 289l-83 225l-13 37q-5 14 -8 26.5t-6 21.5l-14 -48q-2 -8 -13 -38l-82 -224h219z
" />
    <glyph glyph-name="Adieresis" unicode="&#xc4;" horiz-adv-x="811" 
d="M358 808q-6 -12 -15 -21t-22 -14t-26 -5q-12 0 -25 5q-11 4 -21 14q-7 7 -14 21q-5 10 -5 26q0 15 5 25q8 16 14 22q9 9 21 15q10 5 25 5q16 0 26 -5q14 -7 22 -15t15 -22q6 -12 6 -25q0 -14 -6 -26zM575 808q-6 -12 -15 -21q-10 -10 -21 -14q-13 -5 -26 -5t-26 5
q-11 4 -21 14q-11 11 -15 21q-5 10 -5 26q0 15 5 25q7 14 15 22q7 7 21 14q12 6 26 6t26 -6q14 -7 21 -14q8 -8 15 -22q5 -10 5 -25q0 -16 -5 -26zM793 51v-51h-244v51q0 17 20 26q1 1 6 2.5t14 5.5l-4 11l-36 98h-288l-37 -103l-3 -6q9 -4 14 -5.5t6 -2.5q20 -9 20 -26v-51
h-244v51q0 17 20 26l55 23l244 623h138l245 -623l55 -23q19 -7 19 -26zM515 289l-83 225l-13 37q-5 14 -8 26.5t-6 21.5l-14 -48q-2 -8 -13 -38l-82 -224h219z" />
    <glyph glyph-name="Aring" unicode="&#xc5;" horiz-adv-x="811" 
d="M310 881q9 17 23 30q12 11 32 19q17 7 39 7q23 0 41 -7t33 -19q13 -11 23 -30q9 -18 9 -39t-9 -39t-23 -29q-20 -16 -33 -20q-20 -6 -41 -6t-39 6q-15 5 -32 20q-15 14 -23 29q-8 16 -8 39t8 39zM373 810q13 -13 33 -13q19 0 32 13q12 12 12 32q0 21 -12 33t-32 12
q-21 0 -33 -12t-12 -33q0 -20 12 -32zM793 51v-51h-244v51q0 17 20 26q1 1 6 2.5t14 5.5l-4 11l-36 98h-288l-37 -103l-3 -6q9 -4 14 -5.5t6 -2.5q20 -9 20 -26v-51h-244v51q0 17 20 26l55 23l244 623h138l245 -623l55 -23q19 -7 19 -26zM515 289l-83 225l-13 37
q-5 14 -8 26.5t-6 21.5l-14 -48q-2 -8 -13 -38l-82 -224h219z" />
    <glyph glyph-name="AE" unicode="&#xc6;" horiz-adv-x="964" 
d="M854 616h-260l25 -200h247v-104h-234l25 -204h197q2 25 7 64q5 19 23 19h58v-121h-1v-70h-472v59q0 25 25 31l10 2l27 5l-10 81h-260l-44 -91l25 -10q20 -9 20 -26v-51h-244v51q0 17 19 26q35 14 49 20l272 534l-6 1l-6 1q-25 6 -25 31v59h620v-70h1v-120h-58
q-18 0 -23 19q-5 39 -7 64zM466 623q-6 -21 -17 -48q-12 -31 -17 -41l-125 -261h202z" />
    <glyph glyph-name="Ccedilla" unicode="&#xc7;" horiz-adv-x="637" 
d="M517 21q-51 -23 -124 -28l-5 -21q46 -11 63 -29q18 -20 18 -45q0 -16 -9 -29q-10 -15 -25 -23q-21 -12 -38 -15q-25 -5 -50 -5q-20 0 -38 3q-22 4 -35 8l11 38q3 11 14 11q1 0 3.5 0.5t3.5 -0.5l9 -3l10 -2q4 -1 14 -1q16 0 25 6q8 6 8 15q0 15 -18 21q-21 7 -55 11
l18 61q-52 6 -99 26q-66 28 -110 76q-47 51 -70 117q-24 68 -24 149q0 82 27 149t76 116q51 51 117 77q69 27 151 27q92 0 227 -52v-184h-58q-18 0 -23 18q-3 13 -9 80q-82 24 -138 24v-1q-54 0 -94 -17q-43 -18 -73 -51q-32 -35 -48 -80q-17 -44 -17 -107q0 -59 17 -108
q18 -48 47 -80t69 -50q38 -17 86 -17q28 0 50 3q18 2 41 10q21 7 35 16q15 9 33 26q3 3 11 7q6 3 12 3q12 0 19 -9l53 -58q-44 -55 -108 -83z" />
    <glyph glyph-name="Egrave" unicode="&#xc8;" horiz-adv-x="574" 
d="M277 895q6 0 12 -3q10 -5 11 -6l11 -10l99 -101h-110q-7 0 -10 1q-6 2 -9 4l-10 7l-148 109h137zM552 533h-58q-18 0 -23 19q-5 39 -7 64h-233v-200h245v-104h-245v-204h233q2 25 7 64q5 19 23 19h58v-191h-532v59q0 25 25 31l6 1q3 0 6.5 1t8.5 2l30 5v525l-30 5
q-5 1 -8.5 2t-6.5 1l-6 1q-25 6 -25 31v59h532v-190z" />
    <glyph glyph-name="Eacute" unicode="&#xc9;" horiz-adv-x="574" 
d="M365 781q-2 -1 -10 -4q-6 -2 -10 -2h-109l98 101l11 10q7 5 11 6q6 3 13 3l17 1h137l-148 -108zM552 533h-58q-18 0 -23 19q-5 39 -7 64h-233v-200h245v-104h-245v-204h233q2 25 7 64q5 19 23 19h58v-191h-532v59q0 25 25 31l6 1q3 0 6.5 1t8.5 2l30 5v525l-30 5
q-5 1 -8.5 2t-6.5 1l-6 1q-25 6 -25 31v59h532v-190z" />
    <glyph glyph-name="Ecircumflex" unicode="&#xca;" horiz-adv-x="574" 
d="M404 777q-9 2 -15 6l-50 33l-4 3l-4 3l-3 -3l-4 -3l-51 -33q-6 -5 -14 -6q-12 -2 -17 -2h-93l121 109h123l121 -109h-94q-4 0 -16 2zM552 533h-58q-18 0 -23 19q-5 39 -7 64h-233v-200h245v-104h-245v-204h233q2 25 7 64q5 19 23 19h58v-191h-532v59q0 25 25 31l6 1
q3 0 6.5 1t8.5 2l30 5v525l-30 5q-5 1 -8.5 2t-6.5 1l-6 1q-25 6 -25 31v59h532v-190z" />
    <glyph glyph-name="Edieresis" unicode="&#xcb;" horiz-adv-x="574" 
d="M285 808q-6 -12 -15 -21t-22 -14t-27 -5q-12 0 -25 5q-10 4 -20 14q-9 9 -15 21q-5 10 -5 26q0 15 5 25q7 14 15 22q10 10 20 15t25 5q17 0 27 -5q14 -7 22 -15t15 -22q5 -10 5 -25q0 -16 -5 -26zM501 808q-4 -11 -14 -21q-9 -9 -22 -14t-26 -5t-26 5q-11 4 -21 14
q-11 11 -15 21q-5 10 -5 26q0 15 5 25q7 14 15 22q7 7 21 14q12 6 26 6t26 -6q16 -8 22 -14t14 -22q5 -10 5 -25q0 -16 -5 -26zM552 533h-58q-18 0 -23 19q-5 39 -7 64h-233v-200h245v-104h-245v-204h233q2 25 7 64q5 19 23 19h58v-191h-532v59q0 25 25 31l6 1q3 0 6.5 1
t8.5 2l30 5v525l-30 5q-5 1 -8.5 2t-6.5 1l-6 1q-25 6 -25 31v59h532v-190z" />
    <glyph glyph-name="Igrave" unicode="&#xcc;" horiz-adv-x="380" 
d="M165 895q7 0 13 -3q8 -4 10 -6l11 -10l99 -102h-98l-12 1q-7 0 -10 1q-6 2 -9 4q-2 1 -4.5 2.5t-5.5 3.5l-148 110h137zM329 632q-3 0 -6.5 -1t-8.5 -2l-30 -5v-525l30 -5q5 -1 8.5 -2t6.5 -1l6 -1q25 -6 25 -31v-59h-286v59q0 25 25 31l6 1l15 3l30 5v525l-30 5
q-5 1 -8.5 2t-6.5 1l-6 1q-25 6 -25 31v59h286v-59q0 -25 -25 -31z" />
    <glyph glyph-name="Iacute" unicode="&#xcd;" horiz-adv-x="369" 
d="M199 781q-3 -2 -9 -4t-10 -2l-12 -1h-97l98 102l11 10q7 5 11 6q6 3 12 3l17 1h138l-148 -108zM275 632q-3 0 -6.5 -1t-8.5 -2l-29 -5v-525l29 -5q5 -1 8.5 -2t6.5 -1l6 -1q25 -6 25 -31v-59h-286v59q0 25 25 31l6 1l15 3l30 5v525l-30 5q-5 1 -8.5 2t-6.5 1l-6 1
q-25 6 -25 31v59h286v-59q0 -25 -25 -31z" />
    <glyph glyph-name="Icircumflex" unicode="&#xce;" horiz-adv-x="387" 
d="M266 776q-8 1 -14 6l-51 34l-4 2l-3 4l-4 -3l-4 -3l-50 -34q-6 -4 -15 -6q-12 -2 -17 -2h-93l121 110h123l121 -110h-94q-4 0 -16 2zM303 632q-2 0 -5.5 -1t-8.5 -2l-30 -5v-525l30 -5q5 -1 8.5 -2t5.5 -1l7 -1q25 -6 25 -31v-59h-287v59q0 25 25 31l7 1l14 3l30 5v525
l-30 5q-5 1 -8.5 2t-5.5 1q-3 1 -7 1q-25 6 -25 31v59h287v-59q0 -25 -25 -31z" />
    <glyph glyph-name="Idieresis" unicode="&#xcf;" horiz-adv-x="372" 
d="M140 808q-5 -10 -16 -21q-9 -9 -22 -14t-26 -5q-12 0 -25 5q-11 4 -21 14q-7 7 -14 21q-5 10 -5 26q0 15 5 25q8 16 14 22q9 9 21 15q10 5 25 5q16 0 26 -5q14 -7 22 -15q10 -10 16 -22q5 -10 5 -25q0 -16 -5 -26zM356 808q-6 -12 -15 -21q-10 -10 -21 -14q-13 -5 -26 -5
t-26 5q-11 4 -21 14q-9 9 -15 21q-5 10 -5 26q0 15 5 25q7 14 15 22q9 9 21 15q10 5 26 5t26 -5q14 -7 22 -15q6 -6 14 -22q5 -10 5 -25q0 -16 -5 -26zM296 632q-3 0 -6.5 -1t-8.5 -2l-29 -5v-525l29 -5q5 -1 8.5 -2t6.5 -1l6 -1q25 -6 25 -31v-59h-286v59q0 25 25 31l6 1
l15 3l30 5v525l-30 5q-5 1 -8.5 2t-6.5 1l-6 1q-25 6 -25 31v59h286v-59q0 -25 -25 -31z" />
    <glyph glyph-name="Eth" unicode="&#xd0;" horiz-adv-x="756" 
d="M741 361q0 -82 -26 -146q-27 -66 -75 -114t-115 -75q-65 -26 -150 -26h-341v59q0 25 25 31l51 9v226h-90v77h90v222l-51 9q-25 6 -25 31v59h341q83 0 150 -27q68 -27 115 -74t75 -115q26 -64 26 -146zM604 361q0 62 -16 107q-17 48 -46 80q-29 31 -72 50q-42 18 -95 18
h-130v-214h181v-77h-181v-218h130q55 0 95 17q42 18 72 51q29 32 46 80q16 45 16 106z" />
    <glyph glyph-name="Ntilde" unicode="&#xd1;" horiz-adv-x="796" 
d="M492 857q9 8 9 24h67q0 -20 -7 -45q-6 -21 -18 -36q-9 -12 -30 -22q-16 -8 -40 -8q-21 0 -35 5l-32 12l-28 12q-11 5 -24 5q-14 0 -21 -8q-9 -11 -9 -24h-68q0 21 7 45q5 19 19 36q11 13 30 23q16 8 39 8q21 0 35 -5l32 -12l29 -12q11 -5 23 -5q14 0 22 7zM781 664
q0 -25 -25 -31l-6 -1q-3 0 -6.5 -1t-8.5 -2l-29 -5v-624h-70q-14 0 -26 5q-10 4 -21 18l-378 481q2 -22 2 -31l1 -29v-345l65 -9q25 -6 25 -31v-59h-284v59q0 25 25 31l6 1l15 3l30 5v525l-30 5q-5 1 -8.5 2t-6.5 1l-6 1q-25 6 -25 31v59h146l15 -1q7 0 11 -3q4 -1 9 -6
l10 -12l380 -483l-3 34q-1 11 -1 32v340l-65 9q-25 6 -25 31v59h284v-59z" />
    <glyph glyph-name="Ograve" unicode="&#xd2;" horiz-adv-x="762" 
d="M328 895q6 0 12 -3q10 -5 11 -6l11 -10l98 -102h-97l-12 1q-7 0 -10 1q-6 2 -9 4q-2 1 -4.5 2.5t-5.5 3.5l-149 110h137zM720 214q-28 -69 -74 -117q-48 -50 -116 -77q-70 -28 -149 -28q-80 0 -150 28q-68 27 -116 77t-75 117q-26 65 -26 148q0 82 26 147q27 68 75 117
q48 50 116 77q70 28 150 28q83 0 149 -28q70 -30 116 -77q46 -48 74 -117q27 -67 27 -147t-27 -148zM593 468q-15 46 -45 80q-30 33 -72 51q-40 17 -95 17q-56 0 -96 -17q-42 -18 -72 -51t-46 -80t-16 -106q0 -60 16 -107t46 -80t72 -51q40 -17 96 -17q55 0 95 17
q42 18 72 51q30 34 45 80q16 51 16 107q0 55 -16 106z" />
    <glyph glyph-name="Oacute" unicode="&#xd3;" horiz-adv-x="762" 
d="M416 781q-2 -1 -10 -4q-6 -2 -10 -2l-12 -1h-97l98 102l11 10q7 5 11 6q6 3 13 3l16 1h138l-148 -108zM720 214q-28 -69 -74 -117q-48 -50 -116 -77q-70 -28 -149 -28q-80 0 -150 28q-68 27 -116 77t-75 117q-26 65 -26 148q0 82 26 147q27 68 75 117q48 50 116 77
q70 28 150 28q83 0 149 -28q70 -30 116 -77q46 -48 74 -117q27 -67 27 -147t-27 -148zM593 468q-15 46 -45 80q-30 33 -72 51q-40 17 -95 17q-56 0 -96 -17q-42 -18 -72 -51t-46 -80t-16 -106q0 -60 16 -107t46 -80t72 -51q40 -17 96 -17q55 0 95 17q42 18 72 51
q30 34 45 80q16 51 16 107q0 55 -16 106z" />
    <glyph glyph-name="Ocircumflex" unicode="&#xd4;" horiz-adv-x="762" 
d="M454 776q-8 1 -14 6l-51 34l-3 2l-4 4l-3 -3l-5 -3l-50 -34q-6 -4 -15 -6q-12 -2 -16 -2h-94l121 110h123l121 -110h-93q-5 0 -17 2zM720 214q-28 -69 -74 -117q-48 -50 -116 -77q-70 -28 -149 -28q-80 0 -150 28q-68 27 -116 77t-75 117q-26 65 -26 148q0 82 26 147
q27 68 75 117q48 50 116 77q70 28 150 28q83 0 149 -28q70 -30 116 -77q46 -48 74 -117q27 -67 27 -147t-27 -148zM593 468q-15 46 -45 80q-30 33 -72 51q-40 17 -95 17q-56 0 -96 -17q-42 -18 -72 -51t-46 -80t-16 -106q0 -60 16 -107t46 -80t72 -51q40 -17 96 -17
q55 0 95 17q42 18 72 51q30 34 45 80q16 51 16 107q0 55 -16 106z" />
    <glyph glyph-name="Otilde" unicode="&#xd5;" horiz-adv-x="762" 
d="M465 857q9 8 9 24h67q0 -20 -7 -45q-6 -21 -18 -36q-9 -12 -30 -22q-16 -8 -40 -8q-20 0 -34 5l-32 12l-29 12q-11 5 -23 5q-15 0 -22 -8q-8 -10 -8 -24h-68q0 24 6 45q5 19 19 36q11 13 30 23q16 8 39 8q22 0 36 -5l32 -12l28 -12q11 -5 23 -5q14 0 22 7zM720 214
q-28 -69 -74 -117q-48 -50 -116 -77q-70 -28 -149 -28q-80 0 -150 28q-68 27 -116 77t-75 117q-26 65 -26 148q0 82 26 147q27 68 75 117q48 50 116 77q70 28 150 28q83 0 149 -28q70 -30 116 -77q46 -48 74 -117q27 -67 27 -147t-27 -148zM593 468q-15 46 -45 80
q-30 33 -72 51q-40 17 -95 17q-56 0 -96 -17q-42 -18 -72 -51t-46 -80t-16 -106q0 -60 16 -107t46 -80t72 -51q40 -17 96 -17q55 0 95 17q42 18 72 51q30 34 45 80q16 51 16 107q0 55 -16 106z" />
    <glyph glyph-name="Odieresis" unicode="&#xd6;" horiz-adv-x="762" 
d="M336 808q-5 -10 -16 -21q-9 -9 -22 -14t-26 -5q-12 0 -25 5q-11 4 -21 14q-7 7 -14 21q-5 10 -5 26q0 15 5 25q8 16 14 22q9 9 21 15q10 5 25 5q16 0 26 -5q14 -7 22 -15t15 -22q6 -12 6 -25q0 -16 -5 -26zM552 808q-7 -14 -14 -21q-9 -9 -22 -14t-26 -5t-26 5
q-11 4 -21 14q-11 11 -15 21q-5 10 -5 26q0 15 5 25q7 14 15 22q9 9 21 15q10 5 26 5t26 -5q14 -7 22 -15q6 -6 14 -22q5 -10 5 -25q0 -16 -5 -26zM720 214q-28 -69 -74 -117q-48 -50 -116 -77q-70 -28 -149 -28q-80 0 -150 28q-68 27 -116 77t-75 117q-26 65 -26 148
q0 82 26 147q27 68 75 117q48 50 116 77q70 28 150 28q83 0 149 -28q70 -30 116 -77q46 -48 74 -117q27 -67 27 -147t-27 -148zM593 468q-15 46 -45 80q-30 33 -72 51q-40 17 -95 17q-56 0 -96 -17q-42 -18 -72 -51t-46 -80t-16 -106q0 -60 16 -107t46 -80t72 -51
q40 -17 96 -17q55 0 95 17q42 18 72 51q30 34 45 80q16 51 16 107q0 55 -16 106z" />
    <glyph glyph-name="multiply" unicode="&#xd7;" horiz-adv-x="494" 
d="M483 166l-65 -65l-170 169l-171 -170l-65 64l170 172l-163 163l65 65l164 -164l162 163l65 -65l-163 -162z" />
    <glyph glyph-name="Oslash" unicode="&#xd8;" horiz-adv-x="762" 
d="M718.5 513q28.5 -70 28.5 -151q0 -107 -46.5 -191t-130 -131.5t-189.5 -47.5q-100 0 -179 41l-38 -53q-28 -36 -74 -36h-52l97 134q-58 49 -89.5 122.5t-31.5 161.5q0 108 47 192t130.5 130.5t189.5 46.5q107 0 192 -49l30 41q12 19 25 26t31 7h69l-90 -123
q52 -50 80.5 -120zM166 259.5q15 -46.5 43 -80.5l294 406q-51 31 -122 31q-111 0 -170.5 -70t-59.5 -184q0 -56 15 -102.5zM550 177q59 70 59 185q0 101 -46 167l-290 -399q46 -23 108 -23q110 0 169 70z" />
    <glyph glyph-name="Ugrave" unicode="&#xd9;" horiz-adv-x="781" 
d="M336 895q7 0 13 -3q10 -5 11 -6l11 -10l98 -102h-97l-13 1q-6 0 -9 1q-6 2 -9 4q-2 1 -4.5 2.5t-5.5 3.5l-149 110h137zM766 664q0 -25 -25 -31l-6 -1q-3 0 -6.5 -1t-8.5 -2l-30 -5v-334q0 -65 -21 -119q-22 -57 -59 -95q-39 -39 -95 -62q-54 -22 -125 -22t-125 22
t-94 62q-39 40 -60 95q-20 51 -20 119v334l-30 5q-5 1 -8.5 2t-6.5 1l-6 1q-25 6 -25 31v59h290v-59q0 -25 -25 -31l-7 -1q-3 0 -7 -1t-10 -2l-31 -5v-333q0 -45 11 -75q10 -32 33 -58q19 -22 51 -36q29 -13 70 -13t70 13q34 15 52 36q19 22 32 57q12 38 12 75v334l-31 5
q-6 1 -10 2t-7 1l-7 1q-25 6 -25 31v59h290v-59z" />
    <glyph glyph-name="Uacute" unicode="&#xda;" horiz-adv-x="781" 
d="M424 781q-3 -2 -9 -4t-10 -2l-12 -1h-97l98 102l11 10q7 5 11 6q6 3 12 3l17 1h138l-148 -108zM766 664q0 -25 -25 -31l-6 -1q-3 0 -6.5 -1t-8.5 -2l-30 -5v-334q0 -65 -21 -119q-22 -57 -59 -95q-39 -39 -95 -62q-54 -22 -125 -22t-125 22t-94 62q-39 40 -60 95
q-20 51 -20 119v334l-30 5q-5 1 -8.5 2t-6.5 1l-6 1q-25 6 -25 31v59h290v-59q0 -25 -25 -31l-7 -1q-3 0 -7 -1t-10 -2l-31 -5v-333q0 -45 11 -75q10 -32 33 -58q19 -22 51 -36q29 -13 70 -13t70 13q34 15 52 36q19 22 32 57q12 38 12 75v334l-31 5q-6 1 -10 2t-7 1l-7 1
q-25 6 -25 31v59h290v-59z" />
    <glyph glyph-name="Ucircumflex" unicode="&#xdb;" horiz-adv-x="781" 
d="M463 776q-9 2 -15 6l-50 34l-4 2l-4 4l-3 -3l-4 -3l-51 -34q-6 -5 -14 -6q-12 -2 -17 -2h-93l121 110h123l121 -110h-94q-4 0 -16 2zM766 664q0 -25 -25 -31l-6 -1q-3 0 -6.5 -1t-8.5 -2l-30 -5v-334q0 -65 -21 -119q-22 -57 -59 -95q-39 -39 -95 -62q-54 -22 -125 -22
t-125 22t-94 62q-39 40 -60 95q-20 51 -20 119v334l-30 5q-5 1 -8.5 2t-6.5 1l-6 1q-25 6 -25 31v59h290v-59q0 -25 -25 -31l-7 -1q-3 0 -7 -1t-10 -2l-31 -5v-333q0 -45 11 -75q10 -32 33 -58q19 -22 51 -36q29 -13 70 -13t70 13q34 15 52 36q19 22 32 57q12 38 12 75v334
l-31 5q-6 1 -10 2t-7 1l-7 1q-25 6 -25 31v59h290v-59z" />
    <glyph glyph-name="Udieresis" unicode="&#xdc;" horiz-adv-x="781" 
d="M344 808q-6 -12 -15 -21t-22 -14t-27 -5q-12 0 -25 5q-10 4 -20 14q-9 9 -15 21q-5 10 -5 26q0 15 5 25q7 14 15 22t20 14t25 6q17 0 27 -5q14 -7 22 -15t15 -22q5 -10 5 -25q0 -16 -5 -26zM560 808q-7 -14 -14 -21q-9 -9 -22 -14t-26 -5t-26 5q-11 4 -21 14
q-11 11 -15 21q-5 10 -5 25q0 16 5 26q7 14 15 22q7 7 21 14q12 6 26 6t26 -6q16 -8 22 -14t14 -22q5 -10 5 -26q0 -15 -5 -25zM766 664q0 -25 -25 -31l-6 -1q-3 0 -6.5 -1t-8.5 -2l-30 -5v-334q0 -65 -21 -119q-22 -57 -59 -95q-39 -39 -95 -62q-54 -22 -125 -22t-125 22
t-94 62q-39 40 -60 95q-20 51 -20 119v334l-30 5q-5 1 -8.5 2t-6.5 1l-6 1q-25 6 -25 31v59h290v-59q0 -25 -25 -31l-7 -1q-3 0 -7 -1t-10 -2l-31 -5v-333q0 -45 11 -75q10 -32 33 -58q19 -22 51 -36q29 -13 70 -13t70 13q34 15 52 36q19 22 32 57q12 38 12 75v334l-31 5
q-6 1 -10 2t-7 1l-7 1q-25 6 -25 31v59h290v-59z" />
    <glyph glyph-name="Yacute" unicode="&#xdd;" horiz-adv-x="726" 
d="M398 781q-2 -1 -10 -4q-6 -2 -10 -2l-12 -1h-97l98 102l11 10q7 5 11 6q6 3 13 3l17 1h137l-148 -108zM710 664q0 -25 -25 -31l-7 -1q-3 0 -6.5 -1t-8.5 -2l-29 -5l-204 -343v-182l30 -5q5 -1 8.5 -2t5.5 -1l7 -1q25 -6 25 -31v-59h-286v59q0 25 25 31l6 1l15 3l30 5v182
l-205 343l-29 5q-5 1 -8.5 2t-6.5 1l-6 1q-25 6 -25 31v59h270v-59q0 -25 -25 -31l-5 -1l-9 -3l-15 -3l96 -175q8 -14 20 -40l16 -38q7 23 14 38q12 26 20 40l95 175l-14 3q-3 1 -5.5 2t-4.5 1l-4 1q-25 6 -25 31v59h270v-59z" />
    <glyph glyph-name="Thorn" unicode="&#xde;" horiz-adv-x="558" 
d="M27 0v723h135v-124h100q72 0 126 -17q51 -16 88 -48q33 -29 50 -72t17 -94q0 -55 -17 -96q-18 -43 -53 -75q-34 -31 -87 -49q-52 -18 -124 -18h-100v-130h-135zM327 245q28 9 45 26q20 20 28 42q8 21 8 55q0 32 -8 53q-8 22 -28 40q-17 16 -45 25q-27 9 -65 9h-100v-259
h100q38 0 65 9z" />
    <glyph glyph-name="germandbls" unicode="&#xdf;" horiz-adv-x="553" 
d="M386 718q43 -17 68 -42q27 -27 38 -55q12 -30 12 -55q0 -27 -10 -50q-10 -20 -25 -35q-16 -16 -31 -27l-32 -22q-18 -13 -25 -22q-9 -12 -9 -26q0 -16 12 -28q10 -10 31 -24q7 -5 12.5 -8t10.5 -6q12 -6 18 -10q20 -12 40 -32t31 -45q13 -29 13 -65q0 -40 -16 -75
q-13 -29 -43 -54q-26 -22 -63 -34q-33 -11 -75 -11q-21 0 -46 5q-24 5 -43 13q-25 11 -39 20q-24 16 -34 25l29 47q4 7 13 13q8 5 19 5q10 0 22 -7l23 -14q15 -9 28 -14q19 -7 39 -7q30 0 51 19q19 18 19 49q0 25 -13 39q-16 18 -34 28q-28 16 -44 24q-25 13 -44 27
q-18 13 -33 38q-14 23 -14 58q0 26 11 48q9 19 26 37q15 16 34 29q20 13 34 26q18 16 27 29q10 14 10 37q0 16 -6 31q-6 14 -18 25q-14 13 -32 18q-20 6 -48 6q-66 0 -99 -40t-33 -118v-488h-124v492q0 53 18 98q16 40 52 76q32 32 82 51q51 19 110 19q54 0 100 -18z" />
    <glyph glyph-name="agrave" unicode="&#xe0;" horiz-adv-x="520" 
d="M231 724q10 -7 17 -19l72 -122h-71q-10 0 -22 4q-10 5 -18 14l-124 130h116q20 0 30 -7zM503 60v-59h-118q-19 0 -28 5q-10 4 -15 22l-11 36q-20 -19 -38 -31q-14 -10 -39 -22q-18 -8 -42 -13q-25 -5 -50 -5q-33 0 -60 9q-29 10 -47 26q-21 19 -31 44q-11 27 -11 60
q0 30 15 58q15 29 51 51q38 24 94 38q59 15 147 15v30q0 50 -22 77q-21 25 -63 25q-32 0 -50 -7q-23 -9 -35 -16l-27 -15q-11 -7 -27 -7q-13 0 -22 6q-6 4 -14 16l-23 39q90 82 213 82q45 0 81 -15q35 -15 59 -41q27 -31 38 -63q12 -36 12 -80v-227l27 -5l11 -2
q25 -6 25 -31zM230 212q-37 -8 -59 -18t-31 -24q-9 -13 -9 -31q0 -34 19 -47q20 -14 50 -14q19 0 35 3q17 3 31 11q18 10 27 17q14 11 27 24v86q-56 0 -90 -7z" />
    <glyph glyph-name="aacute" unicode="&#xe1;" horiz-adv-x="520" 
d="M277 587q-12 -4 -23 -4h-74l71 122q8 14 17 19q12 7 30 7h120l-123 -130q-10 -11 -18 -14zM503 60v-59h-118q-19 0 -28 5q-10 4 -15 22l-11 36q-20 -19 -38 -31q-14 -10 -39 -22q-18 -8 -42 -13q-25 -5 -50 -5q-33 0 -60 9q-29 10 -47 26q-21 19 -31 44q-11 27 -11 60
q0 30 15 58q15 29 51 51q38 24 94 38q59 15 147 15v30q0 50 -22 77q-21 25 -63 25q-32 0 -50 -7q-23 -9 -35 -16l-27 -15q-11 -7 -27 -7q-13 0 -22 6q-6 4 -14 16l-23 39q90 82 213 82q45 0 81 -15q35 -15 59 -41q27 -31 38 -63q12 -36 12 -80v-227l27 -5l11 -2
q25 -6 25 -31zM230 212q-37 -8 -59 -18t-31 -24q-9 -13 -9 -31q0 -34 19 -47q20 -14 50 -14q19 0 35 3q17 3 31 11q18 10 27 17q14 11 27 24v86q-56 0 -90 -7z" />
    <glyph glyph-name="acircumflex" unicode="&#xe2;" horiz-adv-x="520" 
d="M310 593l-52 47l-5 6l-6 6l-5 -6l-5 -5l-54 -48l-10 -6q-6 -3 -15 -3h-85l114 139h116l115 -139h-83q-16 0 -25 9zM503 60v-59h-118q-19 0 -28 5q-10 4 -15 22l-11 36q-20 -19 -38 -31q-14 -10 -39 -22q-18 -8 -42 -13q-25 -5 -50 -5q-33 0 -60 9q-29 10 -47 26
q-21 19 -31 44q-11 27 -11 60q0 30 15 58q15 29 51 51q38 24 94 38q59 15 147 15v30q0 50 -22 77q-21 25 -63 25q-32 0 -50 -7q-23 -9 -35 -16l-27 -15q-11 -7 -27 -7q-13 0 -22 6q-6 4 -14 16l-23 39q90 82 213 82q45 0 81 -15q35 -15 59 -41q27 -31 38 -63q12 -36 12 -80
v-227l27 -5l11 -2q25 -6 25 -31zM230 212q-37 -8 -59 -18t-31 -24q-9 -13 -9 -31q0 -34 19 -47q20 -14 50 -14q19 0 35 3q17 3 31 11q18 10 27 17q14 11 27 24v86q-56 0 -90 -7z" />
    <glyph glyph-name="atilde" unicode="&#xe3;" horiz-adv-x="520" 
d="M322 688q9 9 9 30h75q0 -27 -8 -51q-7 -22 -21 -39q-12 -15 -32 -25q-18 -9 -42 -9q-15 0 -33 7q-14 5 -29 14l-25 14q-12 6 -22 6q-14 0 -23 -9q-8 -8 -8 -29h-77q0 26 8 50q7 20 22 39q13 16 33 26q18 9 40 9q17 0 34 -7q14 -5 29 -14l25 -14q12 -6 22 -6q15 0 23 8z
M503 60v-59h-118q-19 0 -28 5q-10 4 -15 22l-11 36q-20 -19 -38 -31q-14 -10 -39 -22q-18 -8 -42 -13q-25 -5 -50 -5q-33 0 -60 9q-29 10 -47 26q-21 19 -31 44q-11 27 -11 60q0 30 15 58q15 29 51 51q38 24 94 38q59 15 147 15v30q0 50 -22 77q-21 25 -63 25q-32 0 -50 -7
q-23 -9 -35 -16l-27 -15q-11 -7 -27 -7q-13 0 -22 6q-6 4 -14 16l-23 39q90 82 213 82q45 0 81 -15q35 -15 59 -41q27 -31 38 -63q12 -36 12 -80v-227l27 -5l11 -2q25 -6 25 -31zM230 212q-37 -8 -59 -18t-31 -24q-9 -13 -9 -31q0 -34 19 -47q20 -14 50 -14q19 0 35 3
q17 3 31 11q18 10 27 17q14 11 27 24v86q-56 0 -90 -7z" />
    <glyph glyph-name="adieresis" unicode="&#xe4;" horiz-adv-x="520" 
d="M215 620q-6 -12 -15 -21q-8 -8 -22 -15q-11 -5 -27 -5t-26 5q-14 7 -22 15q-9 9 -15 21q-5 10 -5 26q0 17 5 27q8 16 15 23q8 8 22 15q10 5 26 5q17 0 27 -5q14 -7 22 -15q7 -7 15 -23q6 -12 6 -27q0 -14 -6 -26zM402 620q-6 -12 -15 -21q-8 -8 -22 -15q-10 -5 -27 -5
q-16 0 -26 5q-14 7 -22 15q-9 9 -15 21q-5 10 -5 26q0 17 5 27q8 16 15 23q8 8 22 15q10 5 26 5q17 0 27 -5q14 -7 22 -15q7 -7 15 -23q6 -12 6 -27q0 -14 -6 -26zM503 60v-59h-118q-19 0 -28 5q-10 4 -15 22l-11 36q-20 -19 -38 -31q-14 -10 -39 -22q-18 -8 -42 -13
q-25 -5 -50 -5q-33 0 -60 9q-29 10 -47 26q-21 19 -31 44q-11 27 -11 60q0 30 15 58q15 29 51 51q38 24 94 38q59 15 147 15v30q0 50 -22 77q-21 25 -63 25q-32 0 -50 -7q-23 -9 -35 -16l-27 -15q-11 -7 -27 -7q-13 0 -22 6q-6 4 -14 16l-23 39q90 82 213 82q45 0 81 -15
q35 -15 59 -41q27 -31 38 -63q12 -36 12 -80v-227l27 -5l11 -2q25 -6 25 -31zM230 212q-37 -8 -59 -18t-31 -24q-9 -13 -9 -31q0 -34 19 -47q20 -14 50 -14q19 0 35 3q17 3 31 11q18 10 27 17q14 11 27 24v86q-56 0 -90 -7z" />
    <glyph glyph-name="aring" unicode="&#xe5;" horiz-adv-x="520" 
d="M143 705q7 16 25 32q15 13 35 21q21 8 42 8t43 -8q21 -7 36 -21q17 -16 25 -32q9 -20 9 -42q0 -23 -9 -41q-9 -17 -25 -32q-15 -14 -36 -21q-20 -7 -43 -7q-24 0 -42 7q-20 8 -35 21q-16 15 -25 32q-9 18 -9 41t9 42zM213 631q13 -13 34 -13q19 0 32 13q12 12 12 32
q0 21 -12 33t-32 12q-22 0 -34 -12t-12 -33q0 -20 12 -32zM503 60v-59h-118q-19 0 -28 5q-10 4 -15 22l-11 36q-20 -19 -38 -31q-14 -10 -39 -22q-18 -8 -42 -13q-25 -5 -50 -5q-33 0 -60 9q-29 10 -47 26q-21 19 -31 44q-11 27 -11 60q0 30 15 58q15 29 51 51q38 24 94 38
q59 15 147 15v30q0 50 -22 77q-21 25 -63 25q-32 0 -50 -7q-23 -9 -35 -16l-27 -15q-11 -7 -27 -7q-13 0 -22 6q-6 4 -14 16l-23 39q90 82 213 82q45 0 81 -15q35 -15 59 -41q27 -31 38 -63q12 -36 12 -80v-227l27 -5l11 -2q25 -6 25 -31zM230 212q-37 -8 -59 -18t-31 -24
q-9 -13 -9 -31q0 -34 19 -47q20 -14 50 -14q19 0 35 3q17 3 31 11q18 10 27 17q14 11 27 24v86q-56 0 -90 -7z" />
    <glyph glyph-name="ae" unicode="&#xe6;" horiz-adv-x="779" 
d="M640 504q38 -17 65 -48q29 -34 43 -76q16 -48 16 -101q0 -12 -2 -24q-1 -9 -4 -14t-8 -8q-4 -2 -14 -2h-299q8 -73 42 -108q35 -35 89 -35q32 0 56 7q20 6 35 14q3 2 23 15q9 6 20 6q10 0 16 -3t10 -8l32 -42q-24 -27 -44 -41q-24 -17 -52 -26q-24 -8 -54 -13
q-24 -4 -54 -4q-53 0 -101 24t-78 77q-15 -27 -37 -46q-25 -22 -48 -32q-27 -12 -57 -18t-61 -6q-34 0 -67 10q-30 9 -51 27q-19 16 -32 46q-11 25 -11 63q0 28 15 58q14 29 51 53q38 25 95 40q55 15 146 17v18q0 50 -22 78q-20 26 -63 26q-32 0 -50 -7q-19 -7 -35 -17
l-27 -17q-11 -7 -27 -7q-13 0 -22 6q-6 4 -14 16l-23 40q42 38 93 60q46 20 107 20q58 0 95 -22t56 -60q29 38 71 59q44 22 101 22q41 0 80 -17zM473 399q-30 -35 -36 -93h217q0 25 -6 47q-6 23 -18 41q-11 17 -32 28q-20 11 -44 11q-52 0 -81 -34zM230 221q-38 -8 -59 -19
q-22 -12 -31 -27t-9 -31q0 -35 19 -51t54 -16q24 0 46 8q20 7 36 23t25 41q9 26 9 59v23q-57 -3 -90 -10z" />
    <glyph glyph-name="ccedilla" unicode="&#xe7;" horiz-adv-x="459" 
d="M403 36q-20 -13 -50 -26q-22 -8 -53 -13l-19 -3l-6 -21q45 -11 63 -30q18 -20 18 -44q0 -17 -9 -30q-10 -15 -25 -23q-21 -12 -38 -15q-25 -5 -50 -5q-20 0 -38 3q-22 4 -35 8l11 38q3 12 14 12q5 0 7 -1l9 -3l10 -2q4 -1 14 -1q16 0 25 6q8 5 8 15q0 15 -18 21
q-21 7 -55 11l3 13l3 9l13 41q-31 5 -49 14q-42 18 -73 52q-33 36 -50 83q-18 50 -18 113q0 57 16 104q17 48 48 84q33 36 78 55q48 20 107 20q64 0 162 -37l-1 -158h-57q-18 0 -23 19l-8 72q-37 10 -66 10q-33 0 -57 -12t-40 -34q-18 -25 -25 -53q-8 -34 -8 -70
q0 -41 9 -73q9 -30 26 -54q17 -22 39 -33q25 -11 53 -11q31 0 48 7q22 9 31 16q5 4 10.5 7.5t11.5 8.5q8 7 20 7q16 0 23 -11l35 -45q-24 -27 -44 -41z" />
    <glyph glyph-name="egrave" unicode="&#xe8;" horiz-adv-x="499" 
d="M250 724q12 -8 18 -19l71 -122h-70q-11 0 -23 4q-11 5 -18 14l-123 130h115q19 0 30 -7zM351 506q38 -14 70 -46q29 -29 46 -73q17 -45 17 -98q0 -12 -2 -24q-2 -11 -4 -14q-2 -5 -9 -8q-4 -2 -14 -2h-317q6 -79 43 -116t98 -37q31 0 51 7q22 7 38 16q7 4 14.5 7.5
t14.5 7.5q11 7 23 7q8 0 14 -3q5 -2 9 -8l36 -45q-23 -26 -46 -41q-27 -17 -53 -26q-25 -8 -57 -13q-25 -4 -56 -4q-55 0 -99 17t-80 53q-34 34 -54 86q-19 50 -19 119q0 50 17 98q16 45 49 81q31 34 77 54t104 20q49 0 89 -15zM180 402q-30 -30 -39 -86h232q0 21 -7 45
q-6 19 -20 37q-13 16 -34 25q-23 10 -48 10q-53 0 -84 -31z" />
    <glyph glyph-name="eacute" unicode="&#xe9;" horiz-adv-x="499" 
d="M296 587q-12 -4 -23 -4h-74l71 122q7 13 18 19q12 7 30 7h120l-124 -130q-10 -11 -18 -14zM351 506q38 -14 70 -46q29 -29 46 -73q17 -45 17 -98q0 -12 -2 -24q-2 -11 -4 -14q-2 -5 -9 -8q-4 -2 -14 -2h-317q6 -79 43 -116t98 -37q31 0 51 7q22 7 38 16q7 4 14.5 7.5
t14.5 7.5q11 7 23 7q8 0 14 -3q5 -2 9 -8l36 -45q-23 -26 -46 -41q-27 -17 -53 -26q-25 -8 -57 -13q-25 -4 -56 -4q-55 0 -99 17t-80 53q-34 34 -54 86q-19 50 -19 119q0 50 17 98q16 45 49 81q31 34 77 54t104 20q49 0 89 -15zM180 402q-30 -30 -39 -86h232q0 21 -7 45
q-6 19 -20 37q-13 16 -34 25q-23 10 -48 10q-53 0 -84 -31z" />
    <glyph glyph-name="ecircumflex" unicode="&#xea;" horiz-adv-x="499" 
d="M330 593l-53 48l-5 5l-5 6l-11 -11l-53 -48l-11 -6q-6 -3 -14 -3h-86l115 139h116l114 -139h-82q-16 0 -25 9zM351 506q38 -14 70 -46q29 -29 46 -73q17 -45 17 -98q0 -12 -2 -24q-2 -11 -4 -14q-2 -5 -9 -8q-4 -2 -14 -2h-317q6 -79 43 -116t98 -37q31 0 51 7
q22 7 38 16q7 4 14.5 7.5t14.5 7.5q11 7 23 7q8 0 14 -3q5 -2 9 -8l36 -45q-23 -26 -46 -41q-27 -17 -53 -26q-25 -8 -57 -13q-25 -4 -56 -4q-55 0 -99 17t-80 53q-34 34 -54 86q-19 50 -19 119q0 50 17 98q16 45 49 81q31 34 77 54t104 20q49 0 89 -15zM180 402
q-30 -30 -39 -86h232q0 21 -7 45q-6 19 -20 37q-13 16 -34 25q-23 10 -48 10q-53 0 -84 -31z" />
    <glyph glyph-name="edieresis" unicode="&#xeb;" horiz-adv-x="499" 
d="M235 620q-5 -10 -16 -21q-8 -8 -22 -15q-10 -5 -27 -5q-16 0 -26 5q-12 6 -21 15t-15 21t-6 26q0 15 6 27q8 16 15 23q9 9 21 15q10 5 26 5q17 0 27 -5q14 -7 22 -15q8 -7 16 -23q5 -10 5 -27q0 -16 -5 -26zM422 620q-7 -14 -15 -22q-5 -5 -23 -14q-10 -5 -26 -5
q-17 0 -27 5q-16 8 -22 14t-14 22q-6 12 -6 26q0 15 6 27q9 18 14 23q8 8 22 15q10 5 27 5q16 0 26 -5q14 -6 23 -15q7 -7 15 -23q5 -10 5 -27q0 -16 -5 -26zM351 506q38 -14 70 -46q29 -29 46 -73q17 -45 17 -98q0 -12 -2 -24q-2 -11 -4 -14q-2 -5 -9 -8q-4 -2 -14 -2h-317
q6 -79 43 -116t98 -37q31 0 51 7q22 7 38 16q7 4 14.5 7.5t14.5 7.5q11 7 23 7q8 0 14 -3q5 -2 9 -8l36 -45q-23 -26 -46 -41q-27 -17 -53 -26q-25 -8 -57 -13q-25 -4 -56 -4q-55 0 -99 17t-80 53q-34 34 -54 86q-19 50 -19 119q0 50 17 98q16 45 49 81q31 34 77 54t104 20
q49 0 89 -15zM180 402q-30 -30 -39 -86h232q0 21 -7 45q-6 19 -20 37q-13 16 -34 25q-23 10 -48 10q-53 0 -84 -31z" />
    <glyph glyph-name="igrave" unicode="&#xec;" horiz-adv-x="322" 
d="M157 724q10 -7 17 -19l72 -122h-71q-11 0 -23 4q-9 4 -17 14l-124 130h116q19 0 30 -7zM305 59v-59h-275v59q0 25 25 31l6 1l15 3l30 5v315l-30 5q-5 1 -8.5 2t-6.5 1l-6 1q-25 6 -25 31v59h199v-414l30 -5q5 -1 8.5 -2t5.5 -1l7 -1q25 -6 25 -31z" />
    <glyph glyph-name="iacute" unicode="&#xed;" horiz-adv-x="344" 
d="M191 587q-12 -4 -23 -4h-74l71 122q7 13 18 19q12 7 30 7h120l-124 -130q-10 -11 -18 -14zM293 59v-59h-274v59q0 25 25 31l6 1l15 3l29 5v315l-29 5q-5 1 -8.5 2t-6.5 1l-6 1q-25 6 -25 31v59h199v-414l29 -5q5 -1 8.5 -2t6.5 -1l6 -1q25 -6 25 -31z" />
    <glyph glyph-name="icircumflex" unicode="&#xee;" horiz-adv-x="367" 
d="M249 593l-53 48l-5 5l-5 6l-11 -11l-53 -48l-11 -6q-6 -3 -14 -3h-86l115 139h116l114 -139h-82q-16 0 -25 9zM317 59v-59h-275v59q0 25 25 31l7 1l14 3l30 5v315l-30 5q-5 1 -8.5 2t-5.5 1l-7 1q-25 6 -25 31v59h200v-414l29 -5q5 -1 8.5 -2t6.5 -1l6 -1q25 -6 25 -31z
" />
    <glyph glyph-name="idieresis" unicode="&#xef;" horiz-adv-x="351" 
d="M146 620q-5 -10 -16 -21q-8 -8 -22 -15q-10 -5 -27 -5q-16 0 -26 5q-12 6 -21 15t-15 21t-6 26q0 15 6 27q8 16 15 23q9 9 21 15q10 5 26 5q17 0 27 -5q14 -7 22 -15q9 -9 16 -23q5 -10 5 -27q0 -16 -5 -26zM333 620q-6 -12 -15 -21q-7 -7 -23 -15q-11 -5 -26 -5
q-17 0 -27 5q-14 7 -22 15q-7 7 -14 21q-6 12 -6 26q0 15 6 27q9 18 14 23q8 8 22 15q10 5 27 5q16 0 26 -5q14 -6 23 -15q7 -7 15 -23q5 -10 5 -27q0 -16 -5 -26zM309 59v-59h-275v59q0 25 25 31l7 1l14 3l30 5v315l-30 5q-5 1 -8.5 2t-5.5 1l-7 1q-25 6 -25 31v59h200
v-414l29 -5q5 -1 8.5 -2t6.5 -1l6 -1q25 -6 25 -31z" />
    <glyph glyph-name="eth" unicode="&#xf0;" horiz-adv-x="530" 
d="M169 548q0 15 16 24l37 21l-33 12l-37 11q-12 3 -21 12t-9 24q0 10 4 22l15 42q50 -9 97 -24q41 -13 88 -40l88 57l25 -40q5 -10 5 -15q0 -6 -4 -14q-5 -6 -11 -10l-40 -22q29 -25 51 -57q25 -35 40 -69q16 -36 25 -82q9 -45 9 -96q0 -72 -17 -131t-49 -98
q-32 -40 -81 -61q-48 -21 -110 -21q-52 0 -96 16q-42 15 -77 49q-33 32 -51 76q-19 48 -19 103q0 47 16 88q16 40 46 72q31 32 72 50q44 19 94 19q48 0 87 -18q42 -20 70 -50q-11 54 -35 91q-25 37 -68 67l-99 -64l-23 39q-5 8 -5 17zM314 97q25 11 42 34q19 26 29 60
q12 41 13 90q-7 18 -20 35q-13 18 -28 29q-17 12 -36 19q-22 8 -47 8q-31 0 -56 -11q-24 -11 -41 -29q-15 -16 -25 -43q-9 -24 -9 -53q0 -34 10 -64q11 -28 27 -47q17 -20 39 -29q25 -10 48 -10q29 0 54 11z" />
    <glyph glyph-name="ntilde" unicode="&#xf1;" horiz-adv-x="635" 
d="M394 688q9 9 9 30h75q0 -27 -8 -51q-7 -22 -21 -39q-12 -15 -32 -25q-18 -9 -42 -9q-18 0 -33 6q-14 5 -29 14l-25 14q-14 7 -22 7q-14 0 -23 -9q-8 -8 -8 -30h-77q0 27 8 51q7 20 22 39q13 16 33 26q16 8 40 8q19 0 34 -6q14 -5 29 -14l25 -14q12 -6 22 -6q15 0 23 8z
M617 59v-59h-199v326q0 46 -22 73q-21 26 -65 26q-31 0 -60 -15q-30 -16 -53 -39v-272l29 -5l15 -3l6 -1q25 -6 25 -31v-59h-274v59q0 25 25 31l6 1l15 3l29 5v315l-29 5q-5 1 -8.5 2t-6.5 1l-6 1q-25 6 -25 31v59h151q23 0 31 -23l9 -40q14 16 32 29q14 11 37 22
q26 12 41 15q25 5 48 5q44 0 75 -14q29 -12 54 -40q21 -25 33 -62q11 -33 11 -79v-227l30 -5q5 -1 8.5 -2t6.5 -1l6 -1q25 -6 25 -31z" />
    <glyph glyph-name="ograve" unicode="&#xf2;" horiz-adv-x="538" 
d="M256 724q9 -6 17 -20l71 -121h-70q-11 0 -23 4q-10 5 -17 13l-124 131h116q19 0 30 -7zM374 502q48 -19 80 -52t50 -83q18 -49 18 -109t-18 -110q-19 -51 -50 -84q-33 -35 -80 -53q-46 -18 -104 -18t-105 18t-80 53q-35 36 -52 84q-18 50 -18 110t18 109q17 46 52 83
q32 33 80 52q49 19 105 19q55 0 104 -19zM364 131q31 45 31 126t-31 126q-30 44 -94 44t-96 -44t-32 -127q0 -81 32 -125q31 -43 96 -43q64 0 94 43z" />
    <glyph glyph-name="oacute" unicode="&#xf3;" horiz-adv-x="538" 
d="M301 587q-12 -4 -23 -4h-74l72 121q8 15 17 20q12 7 30 7h120l-123 -131q-8 -9 -19 -13zM374 502q48 -19 80 -52t50 -83q18 -49 18 -109t-18 -110q-19 -51 -50 -84q-33 -35 -80 -53q-46 -18 -104 -18t-105 18t-80 53q-35 36 -52 84q-18 50 -18 110t18 109q17 46 52 83
q32 33 80 52q49 19 105 19q55 0 104 -19zM364 131q31 45 31 126t-31 126q-30 44 -94 44t-96 -44t-32 -127q0 -81 32 -125q31 -43 96 -43q64 0 94 43z" />
    <glyph glyph-name="ocircumflex" unicode="&#xf4;" horiz-adv-x="538" 
d="M335 593l-53 47l-5 6l-5 6l-5 -6l-5 -6l-54 -47l-11 -6q-6 -3 -14 -3h-85l114 139h116l114 -139h-82q-16 0 -25 9zM374 502q48 -19 80 -52t50 -83q18 -49 18 -109t-18 -110q-19 -51 -50 -84q-33 -35 -80 -53q-46 -18 -104 -18t-105 18t-80 53q-35 36 -52 84
q-18 50 -18 110t18 109q17 46 52 83q32 33 80 52q49 19 105 19q55 0 104 -19zM364 131q31 45 31 126t-31 126q-30 44 -94 44t-96 -44t-32 -127q0 -81 32 -125q31 -43 96 -43q64 0 94 43z" />
    <glyph glyph-name="otilde" unicode="&#xf5;" horiz-adv-x="538" 
d="M347 688q9 9 9 30h74q0 -30 -7 -51q-7 -22 -21 -39q-12 -14 -33 -25q-18 -9 -41 -9q-19 0 -34 6q-10 4 -28 14l-26 14q-14 7 -22 7q-13 0 -22 -9q-8 -8 -8 -30h-77q0 27 8 51q8 23 21 39t33 26q16 8 41 8q19 0 34 -6q14 -5 29 -14l25 -14q12 -6 22 -6q15 0 23 8zM374 502
q48 -19 80 -52t50 -83q18 -49 18 -109t-18 -110q-19 -51 -50 -84q-33 -35 -80 -53q-46 -18 -104 -18t-105 18t-80 53q-35 36 -52 84q-18 50 -18 110t18 109q17 46 52 83q32 33 80 52q49 19 105 19q55 0 104 -19zM364 131q31 45 31 126t-31 126q-30 44 -94 44t-96 -44
t-32 -127q0 -81 32 -125q31 -43 96 -43q64 0 94 43z" />
    <glyph glyph-name="odieresis" unicode="&#xf6;" horiz-adv-x="537" 
d="M240 620q-6 -12 -16 -22q-6 -6 -22 -14q-10 -5 -27 -5q-16 0 -26 5q-14 7 -21 14q-10 10 -16 22q-5 10 -5 26q0 17 5 27q7 14 16 23q7 7 21 14q12 6 26 6q15 0 27 -6q16 -8 22 -14q9 -9 16 -23q5 -10 5 -27q0 -16 -5 -26zM427 620q-7 -14 -15 -22q-5 -5 -23 -14
q-10 -5 -26 -5q-17 0 -27 5q-16 8 -22 14t-14 22q-6 12 -6 26q0 15 6 27q9 18 14 23q6 6 22 14q12 6 27 6q14 0 26 -6q16 -7 23 -14q5 -5 14 -23q6 -12 6 -27q0 -16 -5 -26zM373 502q48 -19 80 -52q34 -35 51 -83q18 -49 18 -109t-18 -110t-51 -84q-33 -35 -80 -53
q-46 -18 -104 -18t-105 18t-80 53t-51 84q-19 52 -19 110q0 57 19 109q17 48 51 83q32 33 80 52q49 19 105 19q55 0 104 -19zM364 131q30 44 30 126q0 83 -30 126q-30 44 -95 44q-64 0 -96 -44q-31 -43 -31 -127q0 -82 31 -125t96 -43t95 43z" />
    <glyph glyph-name="divide" unicode="&#xf7;" horiz-adv-x="521" 
d="M190 543q6 14 16 24t24 16t30 6t29 -6q14 -6 24 -16q11 -11 17 -24t6 -29t-6 -30q-6 -13 -17 -24q-10 -10 -24 -16q-11 -5 -29 -5q-19 0 -30 5q-14 6 -24 16t-16 24t-6 30t6 29zM504 290h-488v92h488v-92zM190 187q6 14 16 24t24 16t30 6t29 -6q14 -6 24 -16
q11 -11 17 -24t6 -29t-6 -30q-6 -13 -17 -24q-10 -10 -24 -16q-11 -5 -29 -5q-19 0 -30 5q-14 6 -24 16t-16 24t-6 30t6 29z" />
    <glyph glyph-name="oslash" unicode="&#xf8;" horiz-adv-x="538" 
d="M504 367q18 -49 18 -109t-18 -110q-19 -51 -50 -84q-33 -35 -80 -53q-46 -18 -104 -18t-105 18q-6 2 -18 8l-16 -21q-27 -36 -74 -36h-46l75 101l-1 1q-35 36 -52 84q-18 50 -18 110t18 109q17 46 52 83q32 33 80 52q49 19 105 19q55 0 104 -19q15 -5 26 -12l29 40
q14 19 25.5 25.5t30.5 6.5h62l-87 -118q27 -32 44 -77zM158 161l181 247q-26 19 -69 19q-64 0 -96 -44t-32 -127q0 -59 16 -95zM395 257q0 46 -11 84l-177 -239q28 -14 63 -14q64 0 94 43q31 45 31 126z" />
    <glyph glyph-name="ugrave" unicode="&#xf9;" horiz-adv-x="629" 
d="M302 724q10 -7 17 -19l72 -122h-71q-11 0 -23 4q-9 4 -17 14l-124 130h116q19 0 30 -7zM611 59v-59h-151q-23 0 -31 23l-9 41q-17 -17 -33 -30q-15 -12 -36 -22q-20 -9 -42 -15q-25 -5 -47 -5q-41 0 -75 14q-29 12 -54 41q-20 23 -33 61q-11 38 -11 79v227l-51 9
q-25 6 -25 31v59h199v-326q0 -46 22 -73q21 -25 65 -25q30 0 60 14q27 13 53 39v272q-28 5 -37 6.5t-13 2.5q-25 6 -25 31v59h199v-414l50 -9q25 -6 25 -31z" />
    <glyph glyph-name="uacute" unicode="&#xfa;" horiz-adv-x="629" 
d="M347 587q-12 -4 -22 -4h-74l71 122q8 14 17 19q12 7 30 7h120l-123 -130q-9 -11 -19 -14zM611 59v-59h-151q-23 0 -31 23l-9 41q-17 -17 -33 -30q-15 -12 -36 -22q-20 -9 -42 -15q-25 -5 -47 -5q-41 0 -75 14q-29 12 -54 41q-20 23 -33 61q-11 38 -11 79v227l-51 9
q-25 6 -25 31v59h199v-326q0 -46 22 -73q21 -25 65 -25q30 0 60 14q27 13 53 39v272q-28 5 -37 6.5t-13 2.5q-25 6 -25 31v59h199v-414l50 -9q25 -6 25 -31z" />
    <glyph glyph-name="ucircumflex" unicode="&#xfb;" horiz-adv-x="629" 
d="M381 593l-52 48l-6 5l-5 6l-5 -6l-5 -5l-54 -48l-11 -6q-6 -3 -14 -3h-85l114 139h116l115 -139h-83q-16 0 -25 9zM611 59v-59h-151q-23 0 -31 23l-9 41q-17 -17 -33 -30q-15 -12 -36 -22q-20 -9 -42 -15q-25 -5 -47 -5q-41 0 -75 14q-29 12 -54 41q-20 23 -33 61
q-11 38 -11 79v227l-51 9q-25 6 -25 31v59h199v-326q0 -46 22 -73q21 -25 65 -25q30 0 60 14q27 13 53 39v272q-28 5 -37 6.5t-13 2.5q-25 6 -25 31v59h199v-414l50 -9q25 -6 25 -31z" />
    <glyph glyph-name="udieresis" unicode="&#xfc;" horiz-adv-x="629" 
d="M286 620q-6 -12 -15 -21q-7 -7 -23 -15q-10 -5 -26 -5t-26 5q-14 7 -22 15q-9 9 -15 21q-5 10 -5 26q0 17 5 27q8 16 15 23q8 8 22 15q10 5 26 5t26 -5q16 -8 23 -15q6 -5 15 -23q6 -12 6 -27q0 -14 -6 -26zM473 620q-6 -12 -15 -21q-8 -8 -22 -15q-10 -5 -27 -5
q-16 0 -26 5q-14 7 -22 15q-9 9 -15 21q-5 10 -5 26q0 17 5 27q8 16 15 23q8 8 22 15q10 5 26 5q17 0 27 -5q14 -7 22 -15q7 -7 15 -23q6 -12 6 -27q0 -14 -6 -26zM611 59v-59h-151q-23 0 -31 23l-9 41q-17 -17 -33 -30q-15 -12 -36 -22q-20 -9 -42 -15q-25 -5 -47 -5
q-41 0 -75 14q-29 12 -54 41q-20 23 -33 61q-11 38 -11 79v227l-51 9q-25 6 -25 31v59h199v-326q0 -46 22 -73q21 -25 65 -25q30 0 60 14q27 13 53 39v272q-28 5 -37 6.5t-13 2.5q-25 6 -25 31v59h199v-414l50 -9q25 -6 25 -31z" />
    <glyph glyph-name="yacute" unicode="&#xfd;" horiz-adv-x="611" 
d="M346 587q-12 -4 -22 -4h-74l71 121q8 15 17 20q12 7 30 7h120l-123 -131q-8 -9 -19 -13zM596 454q0 -25 -25 -31q-4 0 -12 -2t-35 -7l-237 -555q-6 -14 -15 -20q-7 -6 -26 -6h-92l96 205l-165 376q-27 5 -35 7t-12 2q-25 6 -25 31v59h250v-59q0 -25 -25 -31l-24 -4
l81 -195q4 -9 6 -16t3 -11q2 -7 7 -28l9 28q6 18 10 27l75 193l-34 6q-25 6 -25 31v59h250v-59z" />
    <glyph glyph-name="thorn" unicode="&#xfe;" horiz-adv-x="515" 
d="M150 743v-293q28 31 70 52q38 19 90 19q43 0 76 -17q34 -16 60 -50q25 -32 39 -82t14 -111q0 -57 -15 -107q-14 -46 -45 -85q-27 -34 -69 -56q-39 -20 -92 -20q-24 0 -40 4q-24 6 -34 11t-28 19q-15 12 -26 24v-219h-123v911h123zM201 409q-26 -16 -50 -46v-230
q21 -25 45 -36q23 -10 54 -10q29 0 50 10q24 11 39 32t24 54t9 78q0 42 -8 76t-20 51q-13 19 -33 28q-19 9 -44 9q-40 0 -66 -16z" />
    <glyph glyph-name="ydieresis" unicode="&#xff;" horiz-adv-x="611" 
d="M285 620q-7 -14 -15 -22q-5 -5 -23 -14q-10 -5 -26 -5t-26 5q-16 8 -22 14q-8 8 -15 22q-5 10 -5 26q0 17 5 27q8 16 15 23q6 6 22 14q12 6 26 6t26 -6q18 -9 23 -14q7 -7 15 -23q6 -12 6 -27q0 -14 -6 -26zM472 620q-7 -14 -15 -22q-6 -6 -22 -14q-10 -5 -27 -5
q-16 0 -26 5q-16 8 -22 14q-8 8 -15 22q-5 10 -5 26q0 17 5 27q8 16 15 23q6 6 22 14q12 6 26 6q15 0 27 -6q14 -6 22 -14q7 -7 15 -23q6 -12 6 -27q0 -14 -6 -26zM596 454q0 -25 -25 -31q-4 0 -12 -2t-35 -7l-237 -555q-6 -14 -15 -20q-7 -6 -26 -6h-92l96 205l-165 376
q-27 5 -35 7t-12 2q-25 6 -25 31v59h250v-59q0 -25 -25 -31l-24 -4l81 -195q4 -9 6 -16t3 -11q2 -7 7 -28l9 28q6 18 10 27l75 193l-34 6q-25 6 -25 31v59h250v-59z" />
    <glyph glyph-name="Amacron" unicode="&#x100;" horiz-adv-x="812" 
d="M793 51v-51h-244v51q0 17 20 26l20 8l-40 109h-288l-40 -109l20 -8q20 -9 20 -26v-51h-244v51q0 17 20 26l55 23l244 623h138l245 -623l55 -23q19 -7 19 -26zM515 289l-83 225q-12 33 -27 85l-9 -31q-8 -27 -18 -55l-82 -224h219zM545 817h-300v79h300v-79z" />
    <glyph glyph-name="amacron" unicode="&#x101;" horiz-adv-x="521" 
d="M503 60v-59h-118q-19 0 -28 5q-10 4 -15 22l-11 36q-20 -19 -38 -31q-14 -10 -39 -22q-18 -8 -42 -13q-25 -5 -50 -5q-33 0 -60 9q-29 10 -47 26q-21 19 -31 44q-11 27 -11 60q0 30 15 58q15 29 51 51q38 24 94 38q59 15 147 15v30q0 50 -22 77q-21 25 -63 25
q-32 0 -50 -7q-23 -9 -35 -16l-27 -15q-11 -7 -27 -7q-13 0 -22 6q-6 4 -14 16l-23 39q90 82 213 82q45 0 81 -15q35 -15 59 -41q27 -31 38 -63q12 -36 12 -80v-227l27 -5l11 -2q25 -6 25 -31zM230 212q-37 -8 -59 -18t-31 -24q-9 -13 -9 -31q0 -34 19 -47q20 -14 50 -14
q19 0 35 3q17 3 31 11q18 10 27 17q14 11 27 24v86q-56 0 -90 -7zM411 607h-300v79h300v-79z" />
    <glyph glyph-name="Abreve" unicode="&#x102;" horiz-adv-x="812" 
d="M793 51v-51h-244v51q0 17 20 26l20 8l-40 109h-288l-40 -109l20 -8q20 -9 20 -26v-51h-244v51q0 17 20 26l55 23l244 623h138l245 -623l55 -23q19 -7 19 -26zM515 289l-83 225q-12 33 -27 85l-9 -31q-8 -27 -18 -55l-82 -224h219zM323 802q-30 13 -46 30q-18 20 -26 46
q-7 24 -7 55h87q0 -19 2 -27q3 -11 10 -20q7 -8 20 -13t32 -5t32 5t20 13q7 9 10 20q3 12 3 27h86q0 -31 -7 -55q-8 -26 -26 -46q-16 -17 -46 -30q-28 -12 -72 -12q-43 0 -72 12z" />
    <glyph glyph-name="abreve" unicode="&#x103;" horiz-adv-x="521" 
d="M503 60v-59h-118q-19 0 -28 5q-10 4 -15 22l-11 36q-20 -19 -38 -31q-14 -10 -39 -22q-18 -8 -42 -13q-25 -5 -50 -5q-33 0 -60 9q-29 10 -47 26q-21 19 -31 44q-11 27 -11 60q0 30 15 58q15 29 51 51q38 24 94 38q59 15 147 15v30q0 50 -22 77q-21 25 -63 25
q-32 0 -50 -7q-23 -9 -35 -16l-27 -15q-11 -7 -27 -7q-13 0 -22 6q-6 4 -14 16l-23 39q90 82 213 82q45 0 81 -15q35 -15 59 -41q27 -31 38 -63q12 -36 12 -80v-227l27 -5l11 -2q25 -6 25 -31zM230 212q-37 -8 -59 -18t-31 -24q-9 -13 -9 -31q0 -34 19 -47q20 -14 50 -14
q19 0 35 3q17 3 31 11q18 10 27 17q14 11 27 24v86q-56 0 -90 -7zM189 592q-30 13 -46 30q-18 20 -26 46q-7 24 -7 55h87q0 -19 2 -27q3 -11 10 -20q7 -8 20 -13t32 -5t32 5t20 13q7 9 10 20q3 12 3 27h86q0 -31 -7 -55q-8 -26 -26 -46q-16 -17 -46 -30q-28 -12 -72 -12
q-43 0 -72 12z" />
    <glyph glyph-name="Aogonek" unicode="&#x104;" horiz-adv-x="811" 
d="M683 -47q-5 -12 -5 -21q0 -14 10 -24q8 -8 26 -8q12 0 16 1q3 1 5.5 1t4.5 1l6 3q2 1 5 1q9 0 12 -8l19 -46q-16 -10 -41 -18q-22 -7 -53 -7q-49 0 -75 20q-27 21 -27 53q0 26 19 53q18 25 52 46h-108v51q0 10 4.5 15.5t15.5 10.5l20 8l-4 11l-36 98h-288l-37 -103l-3 -6
l20 -8q11 -5 15.5 -10.5t4.5 -15.5v-51h-244v51q0 10 4.5 15.5t15.5 10.5l55 23l244 623h138l245 -623l55 -23q11 -4 15 -9.5t4 -16.5v-51h-62q-15 -8 -19 -12q-12 -10 -17 -16q-8 -10 -12 -19zM515 289l-83 224l-13 38q-1 3 -14 47q-12 -42 -14 -47q-2 -8 -13 -38l-82 -224
h219z" />
    <glyph glyph-name="aogonek" unicode="&#x105;" horiz-adv-x="520" 
d="M392 -46q-5 -12 -5 -21q0 -14 10 -24q8 -8 26 -8q12 0 16 1q3 1 5.5 1t4.5 1l6 3q2 1 5 1q9 0 12 -8l19 -46q-17 -11 -41 -18q-22 -7 -53 -7q-49 0 -75 20q-27 21 -27 53q0 29 19 54q20 26 54 47h1q-2 0 -6 1t-6 2q-10 4 -15 22l-11 36q-20 -19 -38 -31q-14 -10 -39 -22
q-18 -8 -42 -13q-25 -5 -50 -5q-33 0 -60 9q-29 10 -47 26q-21 19 -31 44q-11 27 -11 60q0 30 15 58q15 29 51 51q38 24 94 38q59 15 147 15v30q0 50 -22 77q-21 25 -63 25q-32 0 -50 -7q-23 -9 -35 -16l-27 -16q-11 -7 -27 -7q-12 0 -22 7q-8 5 -15 16l-22 39q88 81 213 81
q47 0 81 -14q37 -16 59 -41q27 -31 38 -63q12 -36 12 -80v-227l38 -7q25 -6 25 -31v-59h-63q-15 -8 -19 -12q-12 -10 -17 -16q-8 -10 -12 -19zM230 212q-35 -7 -58 -18t-32 -24t-9 -31q0 -34 19 -47q20 -14 50 -14q19 0 35 3q17 3 31 11q18 10 27 17q14 11 27 24v86
q-56 0 -90 -7z" />
    <glyph glyph-name="Cacute" unicode="&#x106;" horiz-adv-x="637" 
d="M415 781q-3 -2 -9 -4t-10 -2l-13 -1h-97l98 102q4 4 12 10q7 5 10 6q6 3 13 3l17 1h137l-148 -108zM531 513q-3 13 -9 80q-79 23 -138 23q-53 0 -94 -17q-43 -18 -73 -51q-31 -34 -48 -80q-18 -48 -18 -107q0 -60 18 -108q19 -50 46 -80q29 -32 70 -50q38 -17 86 -17
q28 0 50 3q23 3 41 9q17 6 35 17q15 9 33 26q3 3 11 7q4 2 12 2q12 0 19 -8l53 -58q-44 -55 -108 -83q-66 -29 -155 -29q-77 0 -144 28q-66 28 -110 76q-47 51 -70 117q-24 68 -24 148q0 83 27 150t76 116q51 51 117 77q68 27 151 27q92 0 227 -52v-184h-58q-18 0 -23 18z
" />
    <glyph glyph-name="cacute" unicode="&#x107;" horiz-adv-x="459" 
d="M294 587q-12 -4 -23 -4h-74l71 121q8 14 18 20q12 7 30 7h120l-124 -131q-8 -10 -18 -13zM403 36q-20 -13 -50 -26q-22 -8 -53 -13q-24 -4 -55 -4q-49 0 -89 17q-42 18 -73 52q-33 36 -50 83q-18 50 -18 113q0 57 16 104q17 48 48 84q31 35 78 55q48 20 107 20
q64 0 162 -37l-1 -158h-57q-18 0 -23 19l-8 72q-37 10 -66 10q-33 0 -57 -12q-25 -12 -40 -33q-18 -25 -25 -54q-8 -34 -8 -70q0 -41 9 -73q9 -33 25 -54q17 -21 40 -33q25 -11 53 -11q31 0 48 7q22 9 31 16q5 4 10.5 7.5t11.5 8.5q8 7 20 7q16 0 23 -11l35 -45
q-24 -27 -44 -41z" />
    <glyph glyph-name="Ccaron" unicode="&#x10c;" horiz-adv-x="637" 
d="M531 513q-3 13 -9 80q-79 23 -138 23q-53 0 -94 -17q-43 -18 -73 -51q-31 -34 -48 -80q-18 -48 -18 -107q0 -60 18 -108q19 -50 46 -80q29 -32 70 -50q38 -17 86 -17q28 0 50 3q23 3 41 9q17 6 35 17q15 9 33 26q3 3 11 7q4 2 12 2q12 0 19 -8l53 -58q-44 -55 -108 -83
q-66 -29 -155 -29q-77 0 -144 28q-66 28 -110 76q-47 51 -70 117q-24 68 -24 148q0 83 27 150t76 116q51 51 117 77q68 27 151 27q92 0 227 -52v-184h-58q-18 0 -23 18zM146 933h86q8 0 14 -3l11 -6l53 -48l10 -11l6 6l6 5l52 48q6 4 11 6q7 3 14 3h82l-114 -139h-116z" />
    <glyph glyph-name="ccaron" unicode="&#x10d;" horiz-adv-x="459" 
d="M403 36q-20 -13 -50 -26q-22 -8 -53 -13q-24 -4 -55 -4q-49 0 -89 17q-42 18 -73 52q-33 36 -50 83q-18 50 -18 113q0 57 16 104q17 48 48 84q31 35 78 55q48 20 107 20q64 0 162 -37l-1 -158h-57q-18 0 -23 19l-8 72q-37 10 -66 10q-33 0 -57 -12q-25 -12 -40 -33
q-18 -25 -25 -54q-8 -34 -8 -70q0 -41 9 -73q9 -33 25 -54q17 -21 40 -33q25 -11 53 -11q31 0 48 7q22 9 31 16q5 4 10.5 7.5t11.5 8.5q8 7 20 7q16 0 23 -11l35 -45q-24 -27 -44 -41zM57 723h86q8 0 14 -3l11 -6l53 -48l10 -11l6 6l6 5l52 48q6 4 11 6q7 3 14 3h82
l-114 -139h-116z" />
    <glyph glyph-name="Dcaron" unicode="&#x10e;" horiz-adv-x="742" 
d="M727 362q0 -80 -27 -146q-28 -69 -74 -115t-116 -74q-67 -27 -149 -27h-341v59q0 25 25 31l6 1q3 0 6.5 1t8.5 2l30 5v525l-30 5q-5 1 -8.5 2t-6.5 1l-6 1q-25 6 -25 31v59h341q82 0 149 -27q70 -28 116 -74t74 -114q27 -66 27 -146zM589 362q0 59 -16 106q-18 50 -45 80
q-29 31 -72 50q-42 18 -95 18h-130v-509h130q53 0 95 18q43 19 72 50q28 31 45 80q16 47 16 107zM198 933h86q8 0 14 -3l11 -6l53 -48l10 -11l6 6l6 5l52 48q6 4 11 6q7 3 14 3h82l-114 -139h-116z" />
    <glyph glyph-name="dcaron" unicode="&#x10f;" horiz-adv-x="578" 
d="M411 2q-11 0 -20 6q-8 5 -11 17l-10 47q-30 -34 -71 -57q-40 -22 -95 -22q-43 0 -76 17q-35 18 -60 51q-25 32 -39 82q-14 51 -14 112q0 57 15 106q14 46 45 85q27 34 69 56q40 21 91 21q43 0 74 -14q33 -15 54 -36v171l-29 5q-5 1 -8.5 2t-6.5 1l-6 1q-25 6 -25 31v59
h199v-643l26 -4l13 -3l6 -1q25 -6 25 -31v-59h-146zM318 418q-27 11 -54 11q-26 0 -50 -11q-22 -10 -39 -32q-15 -21 -24 -54q-8 -29 -8 -77t7 -77q7 -30 21 -50q14 -21 32 -29q19 -9 44 -9q40 0 66 16q28 17 51 46v230q-20 25 -46 36zM645 710q8 -25 8 -56q0 -52 -25 -96
q-26 -46 -73 -84l-38 24q-7 5 -8 7q-2 6 -2 9q0 9 7 16l14 17q6 8 13 21q8 15 10 26q4 18 4 30q0 17 -6 36q-8 25 -18 41q-5 7 -5 13q0 17 19 23l74 29q17 -26 26 -56z" />
    <glyph glyph-name="Dcroat" unicode="&#x110;" horiz-adv-x="756" 
d="M741 361q0 -82 -26 -146q-27 -66 -75 -114t-115 -75q-65 -26 -150 -26h-341v59q0 25 25 31l51 9v226h-90v77h90v222l-51 9q-25 6 -25 31v59h341q83 0 150 -27q68 -27 115 -74t75 -115q26 -64 26 -146zM604 361q0 62 -16 107q-17 48 -46 80q-29 31 -72 50q-42 18 -95 18
h-130v-214h181v-77h-181v-218h130q55 0 95 17q42 18 72 51q29 32 46 80q16 45 16 106z" />
    <glyph glyph-name="dcroat" unicode="&#x111;" horiz-adv-x="573" 
d="M557 61v-59h-146q-11 0 -20 6q-8 5 -11 17l-10 47q-30 -34 -71 -57q-40 -22 -95 -22q-43 0 -76 17q-35 18 -60 51q-25 32 -39 82q-14 51 -14 112q0 57 15 106q14 46 45 85q27 34 69 56q40 21 91 21q43 0 74 -14q33 -15 54 -36v62h-140v88h140v21l-29 5q-5 1 -8.5 2
t-6.5 1l-6 1q-25 6 -25 31v59h199v-120h66v-88h-66v-435l26 -4l13 -3l6 -1q25 -6 25 -31zM364 382q-20 25 -46 36q-27 11 -54 11q-26 0 -50 -11q-22 -10 -39 -32q-15 -21 -24 -54q-8 -29 -8 -77t7 -77q7 -30 21 -50q14 -21 32 -29q19 -9 44 -9q40 0 66 16q28 17 51 46v230z
" />
    <glyph glyph-name="Emacron" unicode="&#x112;" horiz-adv-x="574" 
d="M552 533h-58q-18 0 -23 19q-5 39 -7 64h-233v-200h245v-104h-245v-204h233q2 25 7 64q5 19 23 19h58v-191h-532v59q0 25 25 31l6 1q3 0 6.5 1t8.5 2l30 5v525l-30 5q-5 1 -8.5 2t-6.5 1l-6 1q-25 6 -25 31v59h532v-190zM437 817h-300v79h300v-79z" />
    <glyph glyph-name="emacron" unicode="&#x113;" horiz-adv-x="499" 
d="M351 506q38 -14 70 -46q29 -29 46 -73q17 -45 17 -98q0 -12 -2 -24q-2 -11 -4 -14q-2 -5 -9 -8q-4 -2 -14 -2h-317q6 -79 43 -116t98 -37q31 0 51 7q22 7 38 16q7 4 14.5 7.5t14.5 7.5q11 7 23 7q8 0 14 -3q5 -2 9 -8l36 -45q-23 -26 -46 -41q-27 -17 -53 -26
q-25 -8 -57 -13q-25 -4 -56 -4q-55 0 -99 17t-80 53q-34 34 -54 86q-19 50 -19 119q0 50 17 98q16 45 49 81q31 34 77 54t104 20q49 0 89 -15zM180 402q-30 -30 -39 -86h232q0 21 -7 45q-6 19 -20 37q-13 16 -34 25q-23 10 -48 10q-53 0 -84 -31zM400 607h-300v79h300v-79z
" />
    <glyph glyph-name="Edotaccent" unicode="&#x116;" horiz-adv-x="574" 
d="M552 533h-58q-18 0 -23 19q-5 39 -7 64h-233v-200h245v-104h-245v-204h233q2 25 7 64q5 19 23 19h58v-191h-532v59q0 25 25 31l6 1q3 0 6.5 1t8.5 2l30 5v525l-30 5q-5 1 -8.5 2t-6.5 1l-6 1q-25 6 -25 31v59h532v-190zM360 844q-4 -10 -18 -24q-12 -12 -25 -17
q-17 -7 -31 -7t-30 7q-14 6 -25 17q-12 12 -17 24q-6 15 -6 30q0 16 6 31q5 13 17 25q11 11 25 17q16 7 30 7t31 -7q13 -5 25 -17q13 -13 18 -25q6 -15 6 -31q0 -15 -6 -30z" />
    <glyph glyph-name="edotaccent" unicode="&#x117;" horiz-adv-x="499" 
d="M351 506q38 -14 70 -46q29 -29 46 -73q17 -45 17 -98q0 -12 -2 -24q-2 -11 -4 -14q-2 -5 -9 -8q-4 -2 -14 -2h-317q6 -79 43 -116t98 -37q31 0 51 7q22 7 38 16q7 4 14.5 7.5t14.5 7.5q11 7 23 7q8 0 14 -3q5 -2 9 -8l36 -45q-23 -26 -46 -41q-27 -17 -53 -26
q-25 -8 -57 -13q-25 -4 -56 -4q-55 0 -99 17t-80 53q-34 34 -54 86q-19 50 -19 119q0 50 17 98q16 45 49 81q31 34 77 54t104 20q49 0 89 -15zM180 402q-30 -30 -39 -86h232q0 21 -7 45q-6 19 -20 37q-13 16 -34 25q-23 10 -48 10q-53 0 -84 -31zM323 634q-4 -10 -18 -24
q-12 -12 -25 -17q-17 -7 -31 -7t-30 7q-14 6 -25 17q-12 12 -17 24q-6 15 -6 30q0 16 6 31q5 13 17 25q11 11 25 17q16 7 30 7t31 -7q13 -5 25 -17q13 -13 18 -25q6 -15 6 -31q0 -15 -6 -30z" />
    <glyph glyph-name="Eogonek" unicode="&#x118;" horiz-adv-x="574" 
d="M515 -165q-22 -7 -52 -7q-49 0 -75 20q-27 21 -27 53q0 27 18 53q17 24 53 46h-412v59q0 25 25 31l51 9v525l-51 9q-25 6 -25 31v59h532v-190h-58q-18 0 -23 19q-2 12 -7 64h-233v-201h245v-103h-245v-204h233q5 52 7 64q5 19 23 19h58v-191h-46q-15 -8 -19 -12
q-12 -10 -17 -16q-8 -10 -12 -19q-5 -12 -5 -21q0 -14 10 -24q8 -8 26 -8q12 0 16 1q10 2 9 2l7 3q2 1 5 1q9 0 12 -8l19 -46q-15 -10 -42 -18z" />
    <glyph glyph-name="eogonek" unicode="&#x119;" horiz-adv-x="499" 
d="M362.5 -95.5q3.5 -1.5 4.5 -5.5l19 -46q-16 -10 -41 -18q-22 -7 -52 -7q-49 0 -75 20q-27 21 -27 53q0 25 15 49q14 23 44 43q-51 3 -93 22q-45 20 -75 53t-49 85q-18 50 -18 115q0 50 17 98q16 45 49 81q31 34 77 54t104 20q49 0 89 -15q38 -14 70 -46q29 -29 46 -73
q17 -45 17 -99q0 -11 -2 -23q-2 -11 -4 -14q-2 -5 -9 -8q-4 -2 -14 -2h-317q6 -80 42 -116q37 -37 98 -37q32 0 52 7q27 9 38 15q27 15 29 16q11 7 23 7q16 0 23 -12l36 -45q-30 -34 -68 -52q-41 -19 -79 -26l-18 -12q-12 -10 -16 -16q-8 -12 -11 -18q-4 -8 -4 -20
q0 -15 9 -24q8 -8 27 -8q3 0 7 -0.5t8 0.5l10 3l7 3h2q6 0 9.5 -1.5zM180 402q-31 -31 -40 -86h232q0 24 -6 45q-6 19 -20 37q-13 16 -34 25q-23 10 -48 10q-53 0 -84 -31z" />
    <glyph glyph-name="Ecaron" unicode="&#x11a;" horiz-adv-x="574" 
d="M552 533h-58q-18 0 -23 19q-5 39 -7 64h-233v-200h245v-104h-245v-204h233q2 25 7 64q5 19 23 19h58v-191h-532v59q0 25 25 31l6 1q3 0 6.5 1t8.5 2l30 5v525l-30 5q-5 1 -8.5 2t-6.5 1l-6 1q-25 6 -25 31v59h532v-190zM114 933h86q8 0 14 -3l11 -6l53 -48l10 -11l6 6
l6 5l52 48q6 4 11 6q7 3 14 3h82l-114 -139h-116z" />
    <glyph glyph-name="ecaron" unicode="&#x11b;" horiz-adv-x="499" 
d="M351 506q38 -14 70 -46q29 -29 46 -73q17 -45 17 -98q0 -12 -2 -24q-2 -11 -4 -14q-2 -5 -9 -8q-4 -2 -14 -2h-317q6 -79 43 -116t98 -37q31 0 51 7q22 7 38 16q7 4 14.5 7.5t14.5 7.5q11 7 23 7q8 0 14 -3q5 -2 9 -8l36 -45q-23 -26 -46 -41q-27 -17 -53 -26
q-25 -8 -57 -13q-25 -4 -56 -4q-55 0 -99 17t-80 53q-34 34 -54 86q-19 50 -19 119q0 50 17 98q16 45 49 81q31 34 77 54t104 20q49 0 89 -15zM180 402q-30 -30 -39 -86h232q0 21 -7 45q-6 19 -20 37q-13 16 -34 25q-23 10 -48 10q-53 0 -84 -31zM77 723h86q8 0 14 -3l11 -6
l53 -48l10 -11l6 6l6 5l52 48q6 4 11 6q7 3 14 3h82l-114 -139h-116z" />
    <glyph glyph-name="uni0122" unicode="&#x122;" horiz-adv-x="673" 
d="M653 70q-29 -21 -57 -35q-30 -15 -63 -24q-35 -10 -73 -14q-43 -5 -83 -5q-77 0 -145 28t-115 76q-50 51 -76 117q-27 68 -27 149q0 84 26 149q27 68 76 117q47 48 118 76q66 25 149 27h7q114 0 256 -52v-184h-58q-18 0 -23 18q-3 14 -9 78q-74 25 -171 25q-52 0 -96 -18
t-74 -51q-31 -34 -47 -80q-17 -48 -17 -105q0 -64 18 -112q18 -50 49 -82q32 -33 75 -51q44 -18 95 -18q42 0 79 8q33 8 64 23v131h-90q-13 0 -21 8q-7 7 -7 17v76h240v-292zM278 -316q-9 7 -9 18q0 8 10 18q20 20 35 43.5t19 44.5q-17 0 -28 5q-21 10 -31.5 28.5
t-10.5 40.5q0 30 20 48.5t52 18.5q36 0 55.5 -24.5t19.5 -59.5q0 -51 -31.5 -108t-78.5 -93z" />
    <glyph glyph-name="uni0123" unicode="&#x123;" horiz-adv-x="516" 
d="M301 515q28 -6 53 -20h147v-46q0 -12 -6 -18t-20 -9l-46 -8q4 -10 7 -28q3 -15 3 -30q0 -39 -15 -69q-16 -32 -42 -52t-64 -33q-36 -12 -79 -12q-34 0 -57 5q-24 -15 -24 -32q0 -16 14 -23t38 -10q32 -4 53 -4q10 0 25 -0.5t35 -2.5q31 -3 61 -9q26 -5 52 -20
q24 -13 38 -36q14 -22 14 -60q0 -34 -17 -66q-16 -32 -48 -57q-30 -25 -78 -40q-47 -15 -105 -15q-62 0 -102 11q-42 12 -71 30q-28 17 -42 43q-14 25 -14 51q0 38 22 61q21 23 61 38q-18 10 -30 28t-12 46q0 13 4 24q6 16 12 24q10 13 21 23q8 7 30 19q-39 21 -62 56
q-22 34 -22 82q0 39 15 69t43 52q27 21 64 33q38 12 82 12q29 0 62 -7zM279 275q17 6 28 17q10 8 17 27q6 15 6 34q0 37 -23 60q-22 22 -68 22q-47 0 -69 -22t-22 -60q0 -21 5 -34q6 -15 17 -26q13 -13 29 -18q18 -6 40 -6q23 0 40 6zM365 1q-9 9 -24 15q-11 4 -37 8
q-16 2 -44 4l-48 2q-32 2 -47 4q-23 -13 -34 -27q-13 -16 -13 -36q0 -11 7 -25q6 -12 21 -21q14 -8 39 -13q27 -5 57 -5q35 0 60 6q27 6 41 14q16 8 24 22q7 11 7 28q0 15 -9 24zM316 813q9 -7 9 -18q0 -8 -10 -18q-20 -20 -35 -43.5t-19 -44.5q17 0 28 -5
q21 -10 31.5 -28.5t10.5 -40.5q0 -30 -20 -48.5t-52 -18.5q-36 0 -55.5 24.5t-19.5 59.5q0 51 31.5 108t78.5 93z" />
    <glyph glyph-name="Imacron" unicode="&#x12a;" horiz-adv-x="326" 
d="M275 632q-3 0 -6.5 -1t-8.5 -2l-29 -5v-525l29 -5q5 -1 8.5 -2t6.5 -1l6 -1q25 -6 25 -31v-59h-286v59q0 25 25 31l6 1l15 3l30 5v525l-30 5q-5 1 -8.5 2t-6.5 1l-6 1q-25 6 -25 31v59h286v-59q0 -25 -25 -31zM313 817h-300v79h300v-79z" />
    <glyph glyph-name="imacron" unicode="&#x12b;" horiz-adv-x="310" 
d="M293 59v-59h-275v59q0 25 25 31l6 1q3 0 6.5 1t8.5 2l30 5v315l-30 5q-5 1 -8.5 2t-6.5 1l-6 1q-25 6 -25 31v59h199v-414l30 -5q5 -1 8.5 -2t6.5 -1l6 -1q25 -6 25 -31zM297 607h-300v79h300v-79z" />
    <glyph glyph-name="Iogonek" unicode="&#x12e;" horiz-adv-x="326" 
d="M231 624v-525l29 -5q5 -1 8.5 -2t6.5 -1l6 -1q25 -6 25 -31v-59h-63q-54 -33 -54 -68q0 -15 9.5 -23.5t26.5 -8.5q18 0 26.5 3.5t11.5 3.5q7 0 11 -9l19 -45q-38 -25 -94 -25q-46 0 -74 19t-28 54q0 29 20 55t51 44h-148v59q0 25 25 31l6 1l15 3l30 5v525l-30 5
q-5 1 -8.5 2t-6.5 1l-6 1q-25 6 -25 31v59h286v-59q0 -25 -25 -31l-6 -1q-3 0 -6.5 -1t-8.5 -2z" />
    <glyph glyph-name="iogonek" unicode="&#x12f;" horiz-adv-x="310" 
d="M84 633q-6 14 -6 30t6 31q5 13 17 25q11 11 24 16q18 7 31 7t31 -7q15 -6 25 -16q12 -12 17 -25q7 -17 7 -31t-7 -30q-6 -14 -17 -25q-12 -12 -25 -17q-15 -6 -31 -6t-31 6q-12 5 -24 17q-11 11 -17 25zM118 -68q0 -15 9.5 -23.5t26.5 -8.5q18 0 26.5 3.5t11.5 3.5
q7 0 11 -9l19 -45q-38 -25 -94 -25q-46 0 -74 19t-28 54q0 29 20 55t51 44h-79v59q0 25 25 31l6 1l15 3l30 5v315l-30 5q-5 1 -8.5 2t-6.5 1l-6 1q-25 6 -25 31v59h199v-414l30 -5q5 -1 8.5 -2t6.5 -1l6 -1q25 -6 25 -31v-59h-121q-54 -33 -54 -68z" />
    <glyph glyph-name="dotlessi" unicode="&#x131;" horiz-adv-x="310" 
d="M293 59v-59h-275v59q0 25 25 31l6 1q3 0 6.5 1t8.5 2l30 5v315l-30 5q-5 1 -8.5 2t-6.5 1l-6 1q-25 6 -25 31v59h199v-414l30 -5q5 -1 8.5 -2t6.5 -1l6 -1q25 -6 25 -31z" />
    <glyph glyph-name="uni0136" unicode="&#x136;" horiz-adv-x="736" 
d="M717 59v-59h-280v59q0 25 25 31l8 1l14 3l-153 200q-8 11 -23 18q-12 6 -35 6h-43v-219l30 -5q5 -1 8.5 -2t6.5 -1l6 -1q25 -6 25 -31v-59h-286v59q0 25 25 31l6 1l15 3l30 5v525l-30 6l-15 2l-6 1q-25 6 -25 32v58h286v-58q0 -26 -25 -32l-6 -1q1 0 -15 -2l-30 -6v-204
h32q21 0 31 5q15 7 22 17l149 189l-7 1l-6 1q-25 6 -25 31v59h266v-59q0 -25 -25 -31l-8 -1q-4 0 -8.5 -1t-9.5 -2l-30 -5l-163 -202q-15 -17 -22 -23q-13 -11 -23 -16q15 -6 30 -17q13 -10 26 -28l178 -239l29 -5q5 -1 9.5 -2t8.5 -1l8 -1q25 -6 25 -31zM309 -316
q-9 7 -9 18q0 8 10 18q20 20 35 43.5t19 44.5q-17 0 -28 5q-21 10 -31.5 28.5t-10.5 40.5q0 30 20 48.5t52 18.5q36 0 55.5 -24.5t19.5 -59.5q0 -51 -31.5 -108t-78.5 -93z" />
    <glyph glyph-name="uni0137" unicode="&#x137;" horiz-adv-x="606" 
d="M588 59v-59h-131q-13 0 -25 5q-10 4 -18 17l-130 195q-7 12 -15 15q-7 3 -23 3h-28v-136l30 -5l15 -3l6 -1q25 -6 25 -31v-59h-275v59q0 25 25 31l6 1q3 0 6.5 1t8.5 2l30 5v545l-30 5q-5 1 -8.5 2t-6.5 1l-6 1q-25 6 -25 31v59h199v-425h23q13 0 20 3q6 2 15 13l71 87
l-9 2q-25 6 -25 31v59h123v-1q4 1 10 1h110v-59q0 -25 -25 -31l-8 -1l-20 -3l-27 -4l-76 -92l-18 -20q-10 -10 -19 -15q12 -9 18 -17q3 -4 7 -9t9 -13l103 -150q22 -4 32 -5q22 -2 21 -2l10 -2q25 -6 25 -31zM244 -316q-9 7 -9 18q0 8 10 18q20 20 35 43.5t19 44.5
q-17 0 -28 5q-21 10 -31.5 28.5t-10.5 40.5q0 30 20 48.5t52 18.5q36 0 55.5 -24.5t19.5 -59.5q0 -51 -31.5 -108t-78.5 -93z" />
    <glyph glyph-name="Lacute" unicode="&#x139;" horiz-adv-x="565" 
d="M544 0h-524v59q0 25 25 31l6 1l15 3l30 5v525l-30 5q-5 1 -8.5 2t-6.5 1l-6 1q-25 6 -25 31v59h286v-59q0 -25 -25 -31l-6 -1l-15 -3l-30 -5v-513h233q3 40 4 43q5 19 23 19h54v-173zM403 896l-149 -109q-9 -7 -18 -10t-23 -3h-97l109 112q10 10 41 10h137z" />
    <glyph glyph-name="lacute" unicode="&#x13a;" horiz-adv-x="311" 
d="M294 59v-59h-275v59q0 25 25 31l6 1l15 3l30 5v545l-30 5q-5 1 -8.5 2t-6.5 1l-6 1q-25 6 -25 31v59h199v-644l30 -5l15 -3l6 -1q25 -6 25 -31zM309 898l-149 -109q-9 -7 -18 -10t-23 -3h-97l109 112q10 10 41 10h137z" />
    <glyph glyph-name="uni013B" unicode="&#x13b;" horiz-adv-x="565" 
d="M544 0h-524v59q0 25 25 31l6 1l15 3l30 5v525l-30 5q-5 1 -8.5 2t-6.5 1l-6 1q-25 6 -25 31v59h286v-59q0 -25 -25 -31l-6 -1l-15 -3l-30 -5v-513h233q3 40 4 43q5 19 23 19h54v-173zM224 -316q-9 7 -9 18q0 8 10 18q20 20 35 43.5t19 44.5q-17 0 -28 5
q-21 10 -31.5 28.5t-10.5 40.5q0 30 20 48.5t52 18.5q36 0 55.5 -24.5t19.5 -59.5q0 -51 -31.5 -108t-78.5 -93z" />
    <glyph glyph-name="uni013C" unicode="&#x13c;" horiz-adv-x="311" 
d="M294 59v-59h-275v59q0 25 25 31l6 1l15 3l30 5v545l-30 5q-5 1 -8.5 2t-6.5 1l-6 1q-25 6 -25 31v59h199v-644l30 -5l15 -3l6 -1q25 -6 25 -31zM97 -316q-9 7 -9 18q0 8 10 18q20 20 35 43.5t19 44.5q-17 0 -28 5q-21 10 -31.5 28.5t-10.5 40.5q0 30 20 48.5t52 18.5
q36 0 55.5 -24.5t19.5 -59.5q0 -51 -31.5 -108t-78.5 -93z" />
    <glyph glyph-name="Lcaron" unicode="&#x13d;" horiz-adv-x="565" 
d="M544 0h-524v59q0 25 25 31l6 1l15 3l30 5v525l-30 5q-5 1 -8.5 2t-6.5 1l-6 1q-25 6 -25 31v59h286v-59q0 -25 -25 -31l-6 -1l-15 -3l-30 -5v-513h233q3 40 4 43q5 19 23 19h54v-173zM466 710q8 -25 8 -56q0 -52 -25 -96q-26 -46 -73 -84l-38 24q-7 5 -8 7q-2 6 -2 9
q0 9 7 16l14 17q6 8 13 21q8 15 10 26q4 18 4 30q0 17 -6 36q-8 25 -18 41q-5 7 -5 13q0 17 19 23l74 29q17 -26 26 -56z" />
    <glyph glyph-name="lcaron" unicode="&#x13e;" horiz-adv-x="311" 
d="M294 59v-59h-275v59q0 25 25 31l6 1l15 3l30 5v545l-30 5q-5 1 -8.5 2t-6.5 1l-6 1q-25 6 -25 31v59h199v-644l30 -5l15 -3l6 -1q25 -6 25 -31zM381 710q8 -25 8 -56q0 -52 -25 -96q-26 -46 -73 -84l-38 24q-7 5 -8 7q-2 6 -2 9q0 9 7 16l14 17q6 8 13 21q8 15 10 26
q4 18 4 30q0 17 -6 36q-8 25 -18 41q-5 7 -5 13q0 17 19 23l74 29q17 -26 26 -56z" />
    <glyph glyph-name="Lslash" unicode="&#x141;" horiz-adv-x="572" 
d="M552 0h-524v59q0 25 25 31q4 0 7 1l15 3l29 5v165l-90 -45v92q0 17 15 24l75 39v250l-29 5q-5 1 -8.5 2t-6.5 1q-3 1 -7 1q-25 6 -25 31v59h286v-59q0 -25 -25 -31l-6 -1l-15 -3l-30 -5v-189l179 89v-90q0 -18 -16 -27l-163 -84v-212h233q3 40 4 43q5 19 24 19h53v-173z
" />
    <glyph glyph-name="lslash" unicode="&#x142;" horiz-adv-x="319" 
d="M222 99l29 -5l15 -3l6 -1q25 -6 25 -31v-59h-275v59q0 25 25 31q4 0 7 1l15 3l29 5v230l-82 -33v73q0 18 15 24l67 28v223l-29 5q-5 1 -8.5 2t-6.5 1l-7 1q-25 6 -25 31v59h199v-278l82 33v-71q0 -21 -17 -27l-64 -28v-273z" />
    <glyph glyph-name="Nacute" unicode="&#x143;" horiz-adv-x="796" 
d="M443 781q-2 -1 -10 -4q-6 -2 -10 -2l-12 -1h-97l98 102l11 10q7 5 11 6q6 3 13 3l17 1h137l-148 -108zM781 664q0 -25 -25 -31l-6 -1q-3 0 -6.5 -1t-8.5 -2l-29 -5v-624h-70q-14 0 -26 5q-10 4 -21 18l-378 481q2 -22 2 -31l1 -29v-345l65 -9q25 -6 25 -31v-59h-284v59
q0 25 25 31l6 1l15 3l30 5v525l-30 5q-5 1 -8.5 2t-6.5 1l-6 1q-25 6 -25 31v59h146l15 -1q7 0 11 -3q4 -1 9 -6l10 -12l380 -483l-3 34q-1 11 -1 32v340l-65 9q-25 6 -25 31v59h284v-59z" />
    <glyph glyph-name="nacute" unicode="&#x144;" horiz-adv-x="635" 
d="M352 587q-12 -4 -23 -4h-74l71 121q8 15 17 20q12 7 30 7h120l-123 -131q-8 -10 -18 -13zM617 59v-59h-199v326q0 46 -22 73q-21 26 -65 26q-31 0 -60 -15q-30 -16 -53 -39v-272l29 -5l15 -3l6 -1q25 -6 25 -31v-59h-274v59q0 25 25 31l6 1l15 3l29 5v315l-29 5
q-5 1 -8.5 2t-6.5 1l-6 1q-25 6 -25 31v59h151q23 0 31 -23l9 -40q14 16 32 29q14 11 37 22q26 12 41 15q25 5 48 5q44 0 75 -14q29 -12 54 -40q21 -25 33 -62q11 -33 11 -79v-227l30 -5q5 -1 8.5 -2t6.5 -1l6 -1q25 -6 25 -31z" />
    <glyph glyph-name="uni0145" unicode="&#x145;" horiz-adv-x="796" 
d="M781 664q0 -25 -25 -31l-6 -1q-3 0 -6.5 -1t-8.5 -2l-29 -5v-624h-70q-14 0 -26 5q-10 4 -21 18l-378 481q2 -22 2 -31l1 -29v-345l65 -9q25 -6 25 -31v-59h-284v59q0 25 25 31l6 1l15 3l30 5v525l-30 5q-5 1 -8.5 2t-6.5 1l-6 1q-25 6 -25 31v59h146l15 -1q7 0 11 -3
q4 -1 9 -6l10 -12l380 -483l-3 34q-1 11 -1 32v340l-65 9q-25 6 -25 31v59h284v-59zM339 -316q-9 7 -9 18q0 8 10 18q20 20 35 43.5t19 44.5q-17 0 -28 5q-21 10 -31.5 28.5t-10.5 40.5q0 30 20 48.5t52 18.5q36 0 55.5 -24.5t19.5 -59.5q0 -51 -31.5 -108t-78.5 -93z" />
    <glyph glyph-name="uni0146" unicode="&#x146;" horiz-adv-x="636" 
d="M618 59v-59h-199v326q0 46 -22 73q-21 26 -65 26q-32 0 -60 -15q-30 -16 -53 -39v-272l29 -5l15 -3l6 -1q25 -6 25 -31v-59h-274v59q0 25 25 31l6 1l15 3l29 5v315l-29 5q-5 1 -8.5 2t-6.5 1l-6 1q-25 6 -25 31v59h151q23 0 31 -23l9 -40q14 16 32 29q14 11 37 22
q26 12 41 15q25 5 48 5q44 0 75 -14q29 -12 54 -40q21 -25 33 -62q11 -33 11 -79v-227l30 -5q5 -1 8.5 -2t6.5 -1l6 -1q25 -6 25 -31zM259 -316q-9 7 -9 18q0 8 10 18q20 20 35 43.5t19 44.5q-17 0 -28 5q-21 10 -31.5 28.5t-10.5 40.5q0 30 20 48.5t52 18.5
q36 0 55.5 -24.5t19.5 -59.5q0 -51 -31.5 -108t-78.5 -93z" />
    <glyph glyph-name="Ncaron" unicode="&#x147;" horiz-adv-x="796" 
d="M781 664q0 -25 -25 -31l-6 -1q-3 0 -6.5 -1t-8.5 -2l-29 -5v-624h-70q-14 0 -26 5q-10 4 -21 18l-378 481q2 -22 2 -31l1 -29v-345l65 -9q25 -6 25 -31v-59h-284v59q0 25 25 31l6 1l15 3l30 5v525l-30 5q-5 1 -8.5 2t-6.5 1l-6 1q-25 6 -25 31v59h146l15 -1q7 0 11 -3
q4 -1 9 -6l10 -12l380 -483l-3 34q-1 11 -1 32v340l-65 9q-25 6 -25 31v59h284v-59zM225 933h86q8 0 14 -3l11 -6l53 -48l10 -11l6 6l6 5l52 48q6 4 11 6q7 3 14 3h82l-114 -139h-116z" />
    <glyph glyph-name="ncaron" unicode="&#x148;" horiz-adv-x="636" 
d="M618 59v-59h-199v326q0 46 -22 73q-21 26 -65 26q-32 0 -60 -15q-30 -16 -53 -39v-272l29 -5l15 -3l6 -1q25 -6 25 -31v-59h-274v59q0 25 25 31l6 1l15 3l29 5v315l-29 5q-5 1 -8.5 2t-6.5 1l-6 1q-25 6 -25 31v59h151q23 0 31 -23l9 -40q14 16 32 29q14 11 37 22
q26 12 41 15q25 5 48 5q44 0 75 -14q29 -12 54 -40q21 -25 33 -62q11 -33 11 -79v-227l30 -5q5 -1 8.5 -2t6.5 -1l6 -1q25 -6 25 -31zM145 723h86q8 0 14 -3l11 -6l53 -48l10 -11l6 6l6 5l52 48q6 4 11 6q7 3 14 3h82l-114 -139h-116z" />
    <glyph glyph-name="Eng" unicode="&#x14a;" horiz-adv-x="796" 
d="M781 664q0 -25 -25 -31l-6 -1q-3 0 -6.5 -1t-8.5 -2l-29 -5v-641q0 -36 -8 -63q-9 -30 -28 -52q-20 -23 -51 -35q-34 -13 -76 -13q-12 0 -32 2q-6 1 -31 8l4 66q1 10 8 13q6 3 25 3q39 0 54.5 15.5t15.5 55.5v43l-376 478q2 -22 2 -31l1 -29v-345l65 -9q25 -6 25 -31v-59
h-284v59q0 25 25 31l6 1l15 3l30 5v525l-30 5q-5 1 -8.5 2t-6.5 1l-6 1q-25 6 -25 31v59h146l15 -1q7 0 11 -3q4 -1 9 -6l10 -12l376 -478v401l-65 9q-25 6 -25 31v59h284v-59z" />
    <glyph glyph-name="eng" unicode="&#x14b;" horiz-adv-x="560" 
d="M542 326v-343q0 -36 -8 -63q-9 -30 -28 -52q-20 -23 -51 -35q-34 -13 -76 -13q-12 0 -32 2q-6 1 -31 8l4 66q1 10 8 13q6 3 25 3q23 0 31 3q14 3 21 12q8 8 11 22q3 13 3 34v343q0 46 -22 73q-21 26 -65 26q-32 0 -60 -15q-30 -16 -53 -39v-272l29 -5l15 -3l6 -1
q25 -6 25 -31v-59h-274v59q0 25 25 31l6 1l15 3l29 5v315l-29 5q-5 1 -8.5 2t-6.5 1l-6 1q-25 6 -25 31v59h151q23 0 31 -23l9 -40q14 16 32 29q14 11 37 22q26 12 41 15q25 5 48 5q44 0 75 -14q29 -12 54 -40q21 -25 33 -62q11 -33 11 -79z" />
    <glyph glyph-name="Omacron" unicode="&#x14c;" horiz-adv-x="762" 
d="M700.5 171q-46.5 -84 -130 -131.5t-189.5 -47.5t-189.5 47t-130.5 131t-47 192t47 192t130.5 130.5t189.5 46.5q107 0 190.5 -48t129.5 -132t46 -189q0 -107 -46.5 -191zM549.5 546.5q-59.5 69.5 -168.5 69.5q-111 0 -170.5 -70t-59.5 -184q0 -116 60 -185.5t170 -69.5
t169 70t59 185t-59.5 184.5zM531 817h-300v79h300v-79z" />
    <glyph glyph-name="omacron" unicode="&#x14d;" horiz-adv-x="538" 
d="M374 502q48 -19 80 -52t50 -83q18 -49 18 -109t-18 -110q-19 -51 -50 -84q-33 -35 -80 -53q-46 -18 -104 -18t-105 18t-80 53q-35 36 -52 84q-18 50 -18 110t18 109q17 46 52 83q32 33 80 52q49 19 105 19q55 0 104 -19zM364 131q31 45 31 126t-31 126q-30 44 -94 44
t-96 -44t-32 -127q0 -81 32 -125q31 -43 96 -43q64 0 94 43zM419 607h-300v79h300v-79z" />
    <glyph glyph-name="Ohungarumlaut" unicode="&#x150;" horiz-adv-x="762" 
d="M700.5 171q-46.5 -84 -130 -131.5t-189.5 -47.5t-189.5 47t-130.5 131t-47 192t47 192t130.5 130.5t189.5 46.5q107 0 190.5 -48t129.5 -132t46 -189q0 -107 -46.5 -191zM549.5 546.5q-59.5 69.5 -168.5 69.5q-111 0 -170.5 -70t-59.5 -184q0 -116 60 -185.5t170 -69.5
t169 70t59 185t-59.5 184.5zM272 797q-12 -4 -24 -4h-50l63 121q8 15 17 20q12 7 30 7h81l-99 -131q-7 -9 -18 -13zM420 797q-8 -4 -23 -4h-58l88 121l9 12q7 7 9 8q8 4 13 5q10 2 17 2h89l-126 -131q-8 -8 -18 -13z" />
    <glyph glyph-name="ohungarumlaut" unicode="&#x151;" horiz-adv-x="538" 
d="M374 502q48 -19 80 -52t50 -83q18 -49 18 -109t-18 -110q-19 -51 -50 -84q-33 -35 -80 -53q-46 -18 -104 -18t-105 18t-80 53q-35 36 -52 84q-18 50 -18 110t18 109q17 46 52 83q32 33 80 52q49 19 105 19q55 0 104 -19zM364 131q31 45 31 126t-31 126q-30 44 -94 44
t-96 -44t-32 -127q0 -81 32 -125q31 -43 96 -43q64 0 94 43zM160 587q-12 -4 -24 -4h-50l63 121q8 15 17 20q12 7 30 7h81l-99 -131q-7 -9 -18 -13zM308 587q-8 -4 -23 -4h-58l88 121l9 12q7 7 9 8q8 4 13 5q10 2 17 2h89l-126 -131q-8 -8 -18 -13z" />
    <glyph glyph-name="OE" unicode="&#x152;" horiz-adv-x="1041" 
d="M1018 533h-58q-18 0 -23 19q-2 11 -7 64h-233v-200h245v-104h-245v-204h233q5 52 7 64q5 19 23 19h58v-191h-440v93q-44 -47 -102 -74q-56 -26 -132 -26q-78 0 -135 27q-60 27 -104 77q-43 49 -67 117t-24 148t24 147q24 68 67 117q44 50 104 77q62 28 135 28
q75 0 131 -26q62 -29 103 -74v92h440v-190zM562 362q0 57 -14 107q-14 49 -40 81q-26 33 -65 52q-37 18 -85 18t-87 -18q-38 -18 -65 -52q-24 -29 -40 -81q-15 -53 -15 -107q0 -55 15 -108q16 -52 40 -81q28 -34 65 -51q39 -18 87 -18t85 18q38 18 65 51q26 32 40 81
q14 50 14 108z" />
    <glyph glyph-name="oe" unicode="&#x153;" horiz-adv-x="840" 
d="M702 504q37 -16 64 -48q29 -34 43 -76q15 -45 15 -101q0 -18 -1 -24q-1 -9 -4 -14t-8 -8q-4 -2 -14 -2h-299q8 -73 42 -108q35 -35 90 -35q30 0 48 7q23 9 35 16l27 15q11 7 24 7q14 0 22 -11l36 -45q-21 -24 -46 -41t-51 -26q-24 -8 -54 -13q-24 -4 -53 -4
q-54 0 -102 24t-78 76q-30 -49 -78 -74q-49 -26 -112 -26q-52 0 -94 18t-74 53q-29 32 -48 84q-17 47 -17 110q0 62 17 109q18 49 49 83t75 52q46 19 96 19q62 0 109 -26q48 -26 77 -73q27 45 73 72q47 27 109 27q43 0 82 -17zM534 399q-30 -35 -36 -93h217q0 25 -6 47
q-6 23 -18 41t-31 28q-20 11 -45 11q-52 0 -81 -34zM347 131q28 43 28 126t-28 126q-29 44 -88 44t-88 -44t-29 -126t29 -126q28 -43 89 -43q59 0 87 43z" />
    <glyph glyph-name="Racute" unicode="&#x154;" horiz-adv-x="685" 
d="M667 59v-59h-135q-19 0 -30 7t-20 20l-152 232q-8 12 -19 18t-30 6h-51v-184l30 -5q5 -1 8.5 -2t6.5 -1l6 -1q25 -6 25 -31v-59h-286v59q0 25 25 31l6 1l15 3l30 5v525l-30 5q-5 1 -8.5 2t-6.5 1l-6 1q-25 6 -25 31v59h289q74 0 127 -15q51 -15 86 -43q35 -29 50 -66
q16 -38 16 -84q0 -34 -11 -69q-9 -29 -31 -59q-18 -25 -50 -46q-31 -20 -68 -32q26 -15 44 -42l114 -168l31 -5q5 -1 9.5 -2t7.5 -1l8 -1q25 -6 25 -31zM420 415q17 16 27 40q9 23 9 50q0 55 -36 85q-35 29 -111 29h-79v-240h77q34 0 66 10q28 9 47 26zM586 896l-149 -109
q-9 -7 -18 -10t-23 -3h-97l109 112q10 10 41 10h137z" />
    <glyph glyph-name="racute" unicode="&#x155;" horiz-adv-x="436" 
d="M422 505l-16 -93q-1 -9 -6 -12q-6 -4 -14 -4q-7 0 -20 3q-18 4 -35 4q-39 0 -66 -21q-25 -19 -46 -63v-220l50 -9q25 -6 25 -31v-59h-274v59q0 25 25 31l50 9v315l-50 9q-25 6 -25 31v59h148q19 0 26 -7t10 -24l8 -62q27 49 64 75q38 27 83 27q39 0 63 -17zM196 587
q-12 -4 -23 -4h-74l71 121q8 15 17 20q12 7 30 7h120l-123 -131q-8 -10 -18 -13z" />
    <glyph glyph-name="uni0156" unicode="&#x156;" horiz-adv-x="685" 
d="M667 59v-59h-135q-19 0 -30 7t-20 20l-152 232q-8 12 -19 18t-30 6h-51v-184l30 -5q5 -1 8.5 -2t6.5 -1l6 -1q25 -6 25 -31v-59h-286v59q0 25 25 31l6 1l15 3l30 5v525l-30 5q-5 1 -8.5 2t-6.5 1l-6 1q-25 6 -25 31v59h289q74 0 127 -15q51 -15 86 -43q35 -29 50 -66
q16 -38 16 -84q0 -34 -11 -69q-9 -29 -31 -59q-18 -25 -50 -46q-31 -20 -68 -32q26 -15 44 -42l114 -168l31 -5q5 -1 9.5 -2t7.5 -1l8 -1q25 -6 25 -31zM420 415q17 16 27 40q9 23 9 50q0 55 -36 85q-35 29 -111 29h-79v-240h77q34 0 66 10q28 9 47 26zM284 -316q-9 7 -9 18
q0 8 10 18q20 20 35 43.5t19 44.5q-17 0 -28 5q-21 10 -31.5 28.5t-10.5 40.5q0 30 20 48.5t52 18.5q36 0 55.5 -24.5t19.5 -59.5q0 -51 -31.5 -108t-78.5 -93z" />
    <glyph glyph-name="uni0157" unicode="&#x157;" horiz-adv-x="436" 
d="M422 505l-16 -93q-1 -9 -6 -12q-6 -4 -14 -4q-7 0 -20 3q-18 4 -35 4q-39 0 -66 -21q-25 -19 -46 -63v-220l50 -9q25 -6 25 -31v-59h-274v59q0 25 25 31l50 9v315l-50 9q-25 6 -25 31v59h148q19 0 26 -7t10 -24l8 -62q27 49 64 75q38 27 83 27q39 0 63 -17zM159 -316
q-9 7 -9 18q0 8 10 18q20 20 35 43.5t19 44.5q-17 0 -28 5q-21 10 -31.5 28.5t-10.5 40.5q0 30 20 48.5t52 18.5q36 0 55.5 -24.5t19.5 -59.5q0 -51 -31.5 -108t-78.5 -93z" />
    <glyph glyph-name="Rcaron" unicode="&#x158;" horiz-adv-x="685" 
d="M667 59v-59h-135q-19 0 -30 7t-20 20l-152 232q-8 12 -19 18t-30 6h-51v-184l30 -5q5 -1 8.5 -2t6.5 -1l6 -1q25 -6 25 -31v-59h-286v59q0 25 25 31l6 1l15 3l30 5v525l-30 5q-5 1 -8.5 2t-6.5 1l-6 1q-25 6 -25 31v59h289q74 0 127 -15q51 -15 86 -43q35 -29 50 -66
q16 -38 16 -84q0 -34 -11 -69q-9 -29 -31 -59q-18 -25 -50 -46q-31 -20 -68 -32q26 -15 44 -42l114 -168l31 -5q5 -1 9.5 -2t7.5 -1l8 -1q25 -6 25 -31zM420 415q17 16 27 40q9 23 9 50q0 55 -36 85q-35 29 -111 29h-79v-240h77q34 0 66 10q28 9 47 26zM170 933h86
q8 0 14 -3l11 -6l53 -48l10 -11l6 6l6 5l52 48q6 4 11 6q7 3 14 3h82l-114 -139h-116z" />
    <glyph glyph-name="rcaron" unicode="&#x159;" horiz-adv-x="436" 
d="M422 505l-16 -93q-1 -9 -6 -12q-6 -4 -14 -4q-7 0 -20 3q-18 4 -35 4q-39 0 -66 -21q-25 -19 -46 -63v-220l50 -9q25 -6 25 -31v-59h-274v59q0 25 25 31l50 9v315l-50 9q-25 6 -25 31v59h148q19 0 26 -7t10 -24l8 -62q27 49 64 75q38 27 83 27q39 0 63 -17zM45 723h86
q8 0 14 -3l11 -6l53 -48l10 -11l6 6l6 5l52 48q6 4 11 6q7 3 14 3h82l-114 -139h-116z" />
    <glyph glyph-name="Sacute" unicode="&#x15a;" horiz-adv-x="505" 
d="M315 781q-2 -1 -10 -4q-6 -2 -10 -2l-12 -1h-97l98 102l11 10q7 5 11 6q6 3 12 3l17 1h138l-148 -108zM491 226q0 -46 -17 -91q-17 -44 -49 -75q-32 -32 -79 -50q-46 -18 -106 -18h-15q-95 0 -207 38v186h57q19 0 23 -18q3 -13 9 -83q42 -13 137 -13q57 0 89 27
q31 27 31 78q0 28 -14 47q-13 18 -38 30q-25 13 -53 21l-22 6l-39 12q-30 10 -61 24q-28 13 -54 37q-24 22 -37 56q-15 37 -15 83q0 41 16 77q15 38 46 67q29 27 74 46q44 18 101 18q105 0 207 -41v-185h-57q-18 0 -23 19q-3 14 -9 81q-36 16 -117 16q-27 0 -48 -6
q-23 -8 -35 -19q-15 -13 -22 -29q-7 -15 -7 -37q0 -24 15 -42t37 -29q29 -14 54 -22q10 -3 61 -20q21 -7 61 -25q30 -13 54 -36q26 -24 38 -53q14 -29 14 -77z" />
    <glyph glyph-name="sacute" unicode="&#x15b;" horiz-adv-x="410" 
d="M256 587q-12 -4 -23 -4h-74l71 121q8 14 18 20q12 7 30 7h120l-124 -131q-8 -10 -18 -13zM350 402q-6 -3 -14 -3q-7 0 -19 5l-24 11q-17 7 -31 11q-20 5 -40 5q-37 0 -58 -15t-21 -41q0 -15 11 -28q8 -9 28 -19q23 -11 40 -16q8 -2 46 -14q16 -5 46 -19q22 -10 41 -26
q18 -15 28 -37q11 -24 11 -53q0 -36 -14 -69q-13 -31 -39 -54q-27 -24 -64 -35q-42 -13 -88 -13q-24 0 -52 5q-25 4 -48 13q-27 10 -43 20q-23 14 -35 25l29 47q6 10 12 13q8 5 20 5q9 0 21 -7l24 -14q15 -8 32 -14q21 -7 46 -7q23 0 38 6q18 7 26 14q12 10 15 19q4 11 4 23
q0 19 -10 30q-9 10 -29 20q-19 9 -40 15q-14 4 -26 8l-21 7q-16 5 -46 19q-24 11 -41 27q-18 16 -28 40q-11 25 -11 58q0 32 12 60t37 50t61 34q39 13 83 13q56 0 97 -17q44 -18 72 -46l-28 -45q-5 -9 -10 -11z" />
    <glyph glyph-name="Scedilla" unicode="&#x15e;" horiz-adv-x="505" 
d="M491 226q0 -46 -17 -91q-17 -44 -49 -75q-32 -32 -79 -50q-35 -13 -70 -16l-6 -22q43 -10 62 -29q18 -18 18 -45q0 -36 -36 -54t-85 -18q-23 0 -38.5 2t-34.5 9l11 38q3 11 14 11q6 0 18 -3t22 -3q15 0 24 5t9 16q0 15 -18 21q-20 7 -56 11l19 60q-87 5 -181 37v186h57
q19 0 23 -18q3 -13 9 -83q42 -13 137 -13q57 0 89 27q31 27 31 78q0 28 -14 47q-13 18 -38 30q-25 13 -53 21l-22 6l-39 12q-30 10 -61 24q-28 13 -54 37q-24 22 -37 56q-15 37 -15 83q0 41 16 77q15 38 46 67q29 27 74 46q44 18 101 18q105 0 207 -41v-185h-57
q-18 0 -23 19q-3 14 -9 81q-36 16 -117 16q-27 0 -48 -6q-23 -8 -35 -19q-15 -13 -22 -29q-7 -15 -7 -37q0 -24 15 -42t37 -29q29 -14 54 -22q10 -3 61 -20q21 -7 61 -25q30 -13 54 -36q26 -24 38 -53q14 -29 14 -77z" />
    <glyph glyph-name="scedilla" unicode="&#x15f;" horiz-adv-x="402" 
d="M389 163q0 -36 -14 -69q-14 -31 -39 -54q-27 -24 -64 -35q-23 -8 -48 -11l-6 -22q43 -10 62 -29q18 -18 18 -45q0 -36 -36 -54t-85 -18q-23 0 -38.5 2t-34.5 9l11 38q3 11 14 11q6 0 18 -3t22 -3q15 0 24 5t9 16q0 15 -18 21q-20 7 -56 11l19 61q-66 4 -126 26v145h58
q18 0 23 -19q2 -11 7 -59q27 -8 81 -8q21 0 38 5q17 6 26 14q12 10 15 19q4 11 4 24q0 18 -10 29q-9 10 -29 20q-19 9 -40 15l-47 15q-16 5 -46 19q-24 11 -41 27q-18 16 -28 40q-11 25 -11 58q0 32 12 60t37 50t61 34q39 13 83 13q38 0 67 -5.5t83 -21.5h-1v-145h-57
q-18 0 -23 19q-3 13 -7 56q-23 7 -60 7q-36 0 -57 -15t-21 -41q0 -15 11 -28q8 -9 28 -19q23 -11 40 -16q8 -2 46 -14q19 -6 47 -19q24 -11 40 -26q18 -15 28 -37q11 -24 11 -53z" />
    <glyph glyph-name="Scaron" unicode="&#x160;" horiz-adv-x="505" 
d="M203 882q8 -1 14 -6l51 -34l4 -2l3 -2l4 2l4 2l50 34q6 5 15 6q12 2 16 2h94l-121 -110h-123l-121 110h93q5 0 17 -2zM491 226q0 -46 -17 -91q-17 -44 -49 -75q-32 -32 -79 -50q-46 -18 -106 -18h-15q-95 0 -207 38v186h57q19 0 23 -18q3 -13 9 -83q42 -13 137 -13
q57 0 89 27q31 27 31 78q0 28 -14 47q-13 18 -38 30q-25 13 -53 21l-22 6l-39 12q-30 10 -61 24q-28 13 -54 37q-24 22 -37 56q-15 37 -15 83q0 41 16 77q15 38 46 67q29 27 74 46q44 18 101 18q105 0 207 -41v-185h-57q-18 0 -23 19q-3 14 -9 81q-36 16 -117 16
q-27 0 -48 -6q-23 -8 -35 -19q-15 -13 -22 -29q-7 -15 -7 -37q0 -24 15 -42t37 -29q29 -14 54 -22q10 -3 61 -20q21 -7 61 -25q30 -13 54 -36q26 -24 38 -53q14 -29 14 -77z" />
    <glyph glyph-name="scaron" unicode="&#x161;" horiz-adv-x="407" 
d="M48 723h85q8 0 14 -3l11 -6l53 -48l11 -11l5 6l5 5l53 48q6 4 11 6q7 3 14 3h82l-114 -139h-116zM350 402q-6 -3 -14 -3q-7 0 -19 5l-24 11q-17 7 -31 11q-20 5 -40 5q-37 0 -58 -15t-21 -41q0 -15 11 -28q8 -9 28 -19q23 -11 40 -16q8 -2 46 -14q16 -5 46 -19
q22 -10 41 -26q18 -15 28 -37q11 -24 11 -53q0 -36 -14 -69q-13 -31 -39 -54q-27 -24 -64 -35q-42 -13 -88 -13q-24 0 -52 5q-25 4 -48 13q-27 10 -43 20q-23 14 -35 25l29 47q6 10 12 13q8 5 20 5q9 0 21 -7l24 -14q15 -8 32 -14q21 -7 46 -7q23 0 38 6q18 7 26 14
q12 10 15 19q4 11 4 23q0 19 -10 30q-9 10 -29 20q-19 9 -40 15q-14 4 -26 8l-21 7q-16 5 -46 19q-24 11 -41 27q-18 16 -28 40q-11 25 -11 58q0 32 12 60t37 50t61 34q39 13 83 13q56 0 97 -17q44 -18 72 -46l-28 -45q-5 -9 -10 -11z" />
    <glyph glyph-name="uni0162" unicode="&#x162;" horiz-adv-x="633" 
d="M617 552h-57q-19 0 -24 19q-3 17 -5 41h-147v-513l29 -5q5 -1 8.5 -2t6.5 -1l6 -1q26 -6 26 -31v-59h-118l-8 -28q43 -10 62 -29q18 -18 18 -45q0 -36 -36 -54t-85 -18q-23 0 -38.5 2t-34.5 9l11 38q3 11 14 11q6 0 18 -3t22 -3q15 0 24 5t9 16q0 15 -18 21q-20 7 -56 11
l21 67h-91v59q0 25 25 31l6 1q3 0 6.5 1t8.5 2l29 5v514h-147q-2 -26 -5 -42q-5 -19 -23 -19h-58v171h601v-171z" />
    <glyph glyph-name="uni0163" unicode="&#x163;" horiz-adv-x="374" 
d="M306 -57q18 -18 18 -45q0 -36 -36 -54t-85 -18q-23 0 -38.5 2t-34.5 9l11 38q3 11 14 11q6 0 18 -3t22 -3q15 0 24 5t9 16q0 15 -18 21q-20 7 -56 11l21 67q-31 9 -50 30q-36 38 -36 104v286h-52q-8 0 -17 7q-8 6 -8 19v50l83 13l26 140q1 9 9 15t19 6h64v-162h135v-88
h-135v-278q0 -23 12 -37q12 -13 32 -13q14 0 19 2l13 6l11 6q3 2 8 2q8 0 10 -2l7 -8l37 -60q-26 -21 -62 -34q-20 -7 -50 -11l-6 -21q43 -10 62 -29z" />
    <glyph glyph-name="Tcaron" unicode="&#x164;" horiz-adv-x="633" 
d="M617 552h-57q-19 0 -24 19q-3 17 -5 41h-147v-513l29 -5q5 -1 8.5 -2t6.5 -1l6 -1q26 -6 26 -31v-59h-286v59q0 25 25 31l6 1q3 0 6.5 1t8.5 2l29 5v514h-147q-2 -26 -5 -42q-5 -19 -23 -19h-58v171h601v-171zM144 933h86q8 0 14 -3l11 -6l53 -48l10 -11l6 6l6 5l52 48
q6 4 11 6q7 3 14 3h82l-114 -139h-116z" />
    <glyph glyph-name="tcaron" unicode="&#x165;" horiz-adv-x="406" 
d="M125 30q-36 38 -36 104v286h-52q-8 0 -17 7q-8 6 -8 19v50l83 13l26 140q1 9 9 15t19 6h64v-162h135v-88h-135v-278q0 -23 12 -37q12 -13 32 -13q14 0 19 2l13 6l11 6q3 2 8 2q8 0 10 -2l7 -8l37 -60q-26 -21 -62 -34q-34 -12 -72 -12q-67 0 -103 38zM396 791
q8 -25 8 -56q0 -52 -25 -96q-26 -46 -73 -84l-38 24q-7 5 -8 7q-2 6 -2 9q0 9 7 16l14 17q6 8 13 21q8 15 10 26q4 18 4 30q0 17 -6 36q-8 25 -18 41q-5 7 -5 13q0 17 19 23l74 29q17 -26 26 -56z" />
    <glyph glyph-name="Tbar" unicode="&#x166;" horiz-adv-x="633" 
d="M617 552h-57q-19 0 -24 19q-3 17 -5 41h-147v-205h107v-96h-107v-212l29 -5q5 -1 8.5 -2t6.5 -1l6 -1q26 -6 26 -31v-59h-286v59q0 25 25 31l6 1q3 0 6.5 1t8.5 2l29 5v212h-107v96h107v206h-147q-2 -26 -5 -42q-5 -19 -23 -19h-58v171h601v-171z" />
    <glyph glyph-name="tbar" unicode="&#x167;" horiz-adv-x="374" 
d="M362 38q-26 -21 -62 -34q-34 -12 -72 -12q-67 0 -103 38t-36 104v83h-67v88h67v115h-52q-8 0 -17 7q-8 6 -8 19v50l83 13l26 140q1 9 9 15t19 6h64v-162h135v-88h-135v-115h139v-88h-139v-75q0 -23 12 -37q12 -13 32 -13q14 0 19 2l13 6l11 6q3 2 8 2q8 0 10 -2l7 -8z
" />
    <glyph glyph-name="Umacron" unicode="&#x16a;" horiz-adv-x="781" 
d="M766 664q0 -25 -25 -31l-6 -1q-3 0 -6.5 -1t-8.5 -2l-30 -5v-334q0 -65 -21 -119q-22 -57 -59 -95q-39 -39 -95 -62q-54 -22 -125 -22t-125 22t-94 62q-39 40 -60 95q-20 51 -20 119v334l-30 5q-5 1 -8.5 2t-6.5 1l-6 1q-25 6 -25 31v59h290v-59q0 -25 -25 -31l-7 -1
q-3 0 -7 -1t-10 -2l-31 -5v-333q0 -45 11 -75q10 -32 33 -58q19 -22 51 -36q29 -13 70 -13t70 13q34 15 52 36q19 22 32 57q12 38 12 75v334l-31 5q-6 1 -10 2t-7 1l-7 1q-25 6 -25 31v59h290v-59zM541 817h-300v79h300v-79z" />
    <glyph glyph-name="umacron" unicode="&#x16b;" horiz-adv-x="630" 
d="M611 59v-59h-151q-23 0 -31 23l-9 41q-17 -17 -33 -30q-15 -12 -36 -22q-20 -9 -42 -15q-25 -5 -47 -5q-41 0 -75 14q-29 12 -54 41q-20 23 -33 61q-11 38 -11 79v227l-51 9q-25 6 -25 31v59h199v-326q0 -46 22 -73q21 -25 65 -25q30 0 60 14q27 13 53 39v272
q-28 5 -37 6.5t-13 2.5q-25 6 -25 31v59h199v-414l50 -9q25 -6 25 -31zM465 607h-300v79h300v-79z" />
    <glyph glyph-name="Uring" unicode="&#x16e;" horiz-adv-x="781" 
d="M766 664q0 -25 -25 -31l-6 -1q-3 0 -6.5 -1t-8.5 -2l-30 -5v-334q0 -65 -21 -119q-22 -57 -59 -95q-39 -39 -95 -62q-54 -22 -125 -22t-125 22t-94 62q-39 40 -60 95q-20 51 -20 119v334l-30 5q-5 1 -8.5 2t-6.5 1l-6 1q-25 6 -25 31v59h290v-59q0 -25 -25 -31l-7 -1
q-3 0 -7 -1t-10 -2l-31 -5v-333q0 -45 11 -75q10 -32 33 -58q19 -22 51 -36q29 -13 70 -13t70 13q34 15 52 36q19 22 32 57q12 38 12 75v334l-31 5q-6 1 -10 2t-7 1l-7 1q-25 6 -25 31v59h290v-59zM287 914q8 18 25 33q15 13 35 21q21 8 42 8t43 -8q21 -7 36 -21
q17 -15 25 -33q9 -20 9 -42t-9 -40q-9 -17 -25 -32q-15 -14 -36 -21q-20 -7 -43 -7q-24 0 -42 7q-20 8 -35 21q-16 15 -25 32q-8 16 -8 40q0 25 8 42zM357 841q13 -13 34 -13q19 0 32 13q12 12 12 31q0 22 -12 34t-32 12q-22 0 -34 -12t-12 -34q0 -19 12 -31z" />
    <glyph glyph-name="uring" unicode="&#x16f;" horiz-adv-x="630" 
d="M611 59v-59h-151q-23 0 -31 23l-9 41q-17 -17 -33 -30q-15 -12 -36 -22q-20 -9 -42 -15q-25 -5 -47 -5q-41 0 -75 14q-29 12 -54 41q-20 23 -33 61q-11 38 -11 79v227l-51 9q-25 6 -25 31v59h199v-326q0 -46 22 -73q21 -25 65 -25q30 0 60 14q27 13 53 39v272
q-28 5 -37 6.5t-13 2.5q-25 6 -25 31v59h199v-414l50 -9q25 -6 25 -31zM211 704q8 18 25 33q15 13 35 21q21 8 42 8t43 -8q21 -7 36 -21q17 -15 25 -33q9 -20 9 -42t-9 -40q-9 -17 -25 -32q-15 -14 -36 -21q-20 -7 -43 -7q-24 0 -42 7q-20 8 -35 21q-16 15 -25 32
q-8 16 -8 40q0 25 8 42zM281 631q13 -13 34 -13q19 0 32 13q12 12 12 31q0 22 -12 34t-32 12q-22 0 -34 -12t-12 -34q0 -19 12 -31z" />
    <glyph glyph-name="Uhungarumlaut" unicode="&#x170;" horiz-adv-x="781" 
d="M766 664q0 -25 -25 -31l-6 -1q-3 0 -6.5 -1t-8.5 -2l-30 -5v-334q0 -65 -21 -119q-22 -57 -59 -95q-39 -39 -95 -62q-54 -22 -125 -22t-125 22t-94 62q-39 40 -60 95q-20 51 -20 119v334l-30 5q-5 1 -8.5 2t-6.5 1l-6 1q-25 6 -25 31v59h290v-59q0 -25 -25 -31l-7 -1
q-3 0 -7 -1t-10 -2l-31 -5v-333q0 -45 11 -75q10 -32 33 -58q19 -22 51 -36q29 -13 70 -13t70 13q34 15 52 36q19 22 32 57q12 38 12 75v334l-31 5q-6 1 -10 2t-7 1l-7 1q-25 6 -25 31v59h290v-59zM282 797q-12 -4 -24 -4h-50l63 121q8 15 17 20q12 7 30 7h81l-99 -131
q-7 -9 -18 -13zM430 797q-8 -4 -23 -4h-58l88 121l9 12q7 7 9 8q8 4 13 5q10 2 17 2h89l-126 -131q-8 -8 -18 -13z" />
    <glyph glyph-name="uhungarumlaut" unicode="&#x171;" horiz-adv-x="630" 
d="M611 59v-59h-151q-23 0 -31 23l-9 41q-17 -17 -33 -30q-15 -12 -36 -22q-20 -9 -42 -15q-25 -5 -47 -5q-41 0 -75 14q-29 12 -54 41q-20 23 -33 61q-11 38 -11 79v227l-51 9q-25 6 -25 31v59h199v-326q0 -46 22 -73q21 -25 65 -25q30 0 60 14q27 13 53 39v272
q-28 5 -37 6.5t-13 2.5q-25 6 -25 31v59h199v-414l50 -9q25 -6 25 -31zM206 587q-12 -4 -24 -4h-50l63 121q8 15 17 20q12 7 30 7h81l-99 -131q-7 -9 -18 -13zM354 587q-8 -4 -23 -4h-58l88 121l9 12q7 7 9 8q8 4 13 5q10 2 17 2h89l-126 -131q-8 -8 -18 -13z" />
    <glyph glyph-name="Uogonek" unicode="&#x172;" horiz-adv-x="781" 
d="M766 664q0 -25 -25 -31l-6 -1q-3 0 -6.5 -1t-8.5 -2l-30 -5v-334q0 -65 -21 -119q-22 -57 -59 -95q-39 -39 -95 -62q-36 -15 -86 -20q-44 -29 -44 -62q0 -15 9.5 -23.5t26.5 -8.5q18 0 26.5 3.5t11.5 3.5q7 0 11 -9l19 -45q-38 -25 -94 -25q-46 0 -74 19t-28 54
q0 27 17 50.5t44 41.5q-49 5 -89 21q-54 22 -94 62q-39 40 -60 95q-20 51 -20 119v334l-30 5q-5 1 -8.5 2t-6.5 1l-6 1q-25 6 -25 31v59h290v-59q0 -25 -25 -31l-7 -1q-3 0 -7 -1t-10 -2l-31 -5v-333q0 -45 11 -75q10 -32 33 -58q19 -22 51 -36q29 -13 70 -13t70 13
q34 15 52 36q19 22 32 57q12 38 12 75v334l-31 5q-6 1 -10 2t-7 1l-7 1q-25 6 -25 31v59h290v-59z" />
    <glyph glyph-name="uogonek" unicode="&#x173;" horiz-adv-x="630" 
d="M463 -68q0 -15 9.5 -23.5t26.5 -8.5q18 0 26.5 3.5t11.5 3.5q7 0 11 -9l19 -45q-38 -25 -94 -25q-46 0 -74 19t-28 54q0 31 21.5 56.5t54.5 44.5q-14 6 -18 21l-9 41q-17 -17 -33 -30q-15 -12 -36 -22q-20 -9 -42 -15q-25 -5 -47 -5q-41 0 -75 14q-29 12 -54 41
q-20 23 -33 61q-11 38 -11 79v227l-51 9q-25 6 -25 31v59h199v-326q0 -46 22 -73q21 -25 65 -25q30 0 60 14q27 13 53 39v272q-28 5 -37 6.5t-13 2.5q-25 6 -25 31v59h199v-414l50 -9q25 -6 25 -31v-59h-94q-54 -33 -54 -68z" />
    <glyph glyph-name="Wcircumflex" unicode="&#x174;" horiz-adv-x="1133" 
d="M1118 664q0 -25 -25 -31l-11 -2l-28 -5l-195 -626h-121l-158 494l-6 20l-7 24l-6 -24l-6 -20l-160 -494h-121l-194 626l-29 5l-11 2q-25 6 -25 31v59h270v-59q0 -25 -25 -31q-3 0 -5 -1l-11 -3q-12 -2 -17 -4l103 -365l9 -35l7 -40l9 40q5 21 10 35l142 432q5 13 16 21
q13 10 28 10h40q18 0 29 -8t16 -23l141 -432q13 -38 19 -71q4 23 7 37q3 17 8 34l103 364l-41 9q-25 6 -25 31v59h270v-59zM632 803l-53 47l-5 6l-6 6l-5 -6l-5 -6l-54 -47l-10 -6q-6 -3 -14 -3h-86l114 139h116l115 -139h-83q-15 0 -24 9z" />
    <glyph glyph-name="wcircumflex" unicode="&#x175;" horiz-adv-x="894" 
d="M879 454q0 -25 -25 -31q4 1 -47 -9l-131 -414h-100q-16 0 -23 22l-92 296q-2 5 -4.5 12.5t-4.5 17.5q-1 2 -6 29l-6 -30q-2 -10 -8 -30l-94 -295q-7 -22 -27 -22h-94l-132 414q-27 5 -35 7t-12 2q-25 6 -25 31v59h250v-59q0 -25 -25 -31l-31 -6l54 -201q8 -30 10 -44
l7 -43l12 43q10 35 13 44l85 275q3 10 12 16q10 7 21 7h55q12 0 22 -7q9 -6 12 -16l84 -280l12 -42l10 -41q2 17 8 43l11 45l55 200l-36 7q-25 6 -25 31v59h250v-59zM512 593l-53 47l-5 6l-6 6l-5 -6l-5 -6l-54 -47l-10 -6q-6 -3 -14 -3h-86l114 139h116l115 -139h-83
q-15 0 -24 9z" />
    <glyph glyph-name="Ycircumflex" unicode="&#x176;" horiz-adv-x="726" 
d="M710 664q0 -25 -25 -31l-6 -1q-3 0 -6.5 -1t-8.5 -2l-29 -5l-204 -343v-182l29 -5q5 -1 8.5 -2t6.5 -1l6 -1q25 -6 25 -31v-59h-286v59q0 25 25 31q4 0 7 1l15 3l29 5v182l-204 343l-30 5q-5 1 -8.5 2t-6.5 1l-6 1q-25 6 -25 31v59h270v-59q0 -25 -25 -31l-4 -1l-10 -3
l-14 -3l96 -175q8 -14 20 -40q5 -11 8.5 -21t6.5 -17q5 16 15 38q12 26 20 40l95 175l-15 3q-3 1 -5 2t-4 1q-2 1 -5 1q-25 6 -25 31v59h270v-59zM428 803l-53 47l-5 6l-6 6l-5 -6l-5 -6l-54 -47l-10 -6q-6 -3 -14 -3h-86l114 139h116l115 -139h-83q-15 0 -24 9z" />
    <glyph glyph-name="ycircumflex" unicode="&#x177;" horiz-adv-x="611" 
d="M596 454q0 -25 -25 -31q-4 0 -12 -2t-35 -7l-237 -555q-6 -14 -15 -20q-7 -6 -26 -6h-92l96 205l-165 376q-27 5 -35 7t-12 2q-25 6 -25 31v59h250v-59q0 -25 -25 -31l-24 -4l81 -195q4 -9 6 -16t3 -11q2 -7 7 -28l9 28q6 18 10 27l75 193l-34 6q-25 6 -25 31v59h250v-59
zM371 593l-53 47l-5 6l-6 6l-5 -6l-5 -6l-54 -47l-10 -6q-6 -3 -14 -3h-86l114 139h116l115 -139h-83q-15 0 -24 9z" />
    <glyph glyph-name="Ydieresis" unicode="&#x178;" horiz-adv-x="726" 
d="M318 808q-6 -12 -15 -21t-22 -14t-27 -5q-12 0 -25 5q-10 4 -20 14q-9 9 -15 21q-5 10 -5 26q0 15 5 25q7 14 15 22q10 10 20 15t25 5q17 0 27 -5q14 -7 22 -15t15 -22q5 -10 5 -25q0 -16 -5 -26zM534 808q-7 -14 -14 -21q-9 -9 -22 -14t-26 -5t-26 5q-11 4 -21 14
q-11 11 -15 21q-5 10 -5 26q0 15 5 25q7 14 15 22q7 7 21 14q12 6 26 6t26 -6q16 -8 22 -14t14 -22q5 -10 5 -25q0 -16 -5 -26zM710 664q0 -25 -25 -31l-7 -1q-3 0 -6.5 -1t-8.5 -2l-29 -5l-204 -343v-182l30 -5q5 -1 8.5 -2t5.5 -1l7 -1q25 -6 25 -31v-59h-286v59
q0 25 25 31l6 1l15 3l30 5v182l-205 343l-29 5q-5 1 -8.5 2t-6.5 1l-6 1q-25 6 -25 31v59h270v-59q0 -25 -25 -31l-5 -1l-9 -3l-15 -3l96 -175q8 -14 20 -40l16 -38q7 23 14 38q12 26 20 40l95 175l-14 3q-3 1 -5.5 2t-4.5 1l-4 1q-25 6 -25 31v59h270v-59z" />
    <glyph glyph-name="Zacute" unicode="&#x179;" horiz-adv-x="592" 
d="M344 781q-2 -1 -10 -4q-6 -2 -10 -2l-12 -1h-97l98 102l11 10q7 5 11 6q6 3 13 3l16 1h138l-148 -108zM481 107q4 34 6.5 49.5t2.5 19.5q5 19 23 19h53v-195h-549v53q0 10 3 19q4 12 9 18l372 526h-275q-4 -37 -6.5 -52t-2.5 -19q-5 -19 -23 -19h-53l-1 197h535v-50
q0 -23 -13 -42l-371 -524h290z" />
    <glyph glyph-name="zacute" unicode="&#x17a;" horiz-adv-x="438" 
d="M264 587q-12 -4 -22 -4h-74l71 121q8 15 17 20q12 7 30 7h120l-123 -131q-8 -9 -19 -13zM428 0h-410v52q0 9 4 20q5 14 12 22l246 324h-161q-4 -40 -6 -50q-5 -19 -23 -19h-58v164h389v-51q0 -14 -4 -25q-3 -7 -12 -21l-243 -321h179l6 54q5 19 23 19h58v-168z" />
    <glyph glyph-name="Zdotaccent" unicode="&#x17b;" horiz-adv-x="592" 
d="M379 819q-6 -13 -16 -23q-9 -9 -25 -16q-14 -6 -30 -6q-14 0 -28 6q-13 6 -23 16q-12 12 -17 23q-6 14 -6 29q0 16 6 29t17 24q10 10 23 16q14 6 28 6q16 0 30 -6t24 -16q11 -11 17 -24q7 -16 7 -29t-7 -29zM481 107q4 34 6.5 49.5t2.5 19.5q5 19 23 19h53v-195h-549v53
q0 10 3 19q4 12 9 18l372 526h-275q-4 -37 -6.5 -52t-2.5 -19q-5 -19 -23 -19h-53l-1 197h535v-50q0 -23 -13 -42l-371 -524h290z" />
    <glyph glyph-name="zdotaccent" unicode="&#x17c;" horiz-adv-x="438" 
d="M306 634q-5 -12 -17 -24t-25 -17q-17 -7 -32 -7q-14 0 -30 7q-13 6 -24 17q-12 12 -17 24q-6 15 -6 30q0 16 6 31q5 13 17 25q11 11 25 17q16 7 30 7t31 -7q13 -5 25 -17q13 -13 18 -25q6 -15 6 -31q0 -12 -7 -30zM428 0h-410v52q0 9 4 20q5 14 12 22l246 324h-161
q-4 -40 -6 -50q-5 -19 -23 -19h-58v164h389v-51q0 -14 -4 -25q-3 -7 -12 -21l-243 -321h179l6 54q5 19 23 19h58v-168z" />
    <glyph glyph-name="Zcaron" unicode="&#x17d;" horiz-adv-x="592" 
d="M238 882q8 -1 14 -6l50 -34l4 -2l4 -3l4 3l4 2l50 34q6 5 14 6q12 2 17 2h93l-120 -110h-124l-120 110h93q5 0 17 -2zM481 107q4 34 6.5 49.5t2.5 19.5q5 19 23 19h53v-195h-549v53q0 10 3 19q4 12 9 18l372 526h-275q-4 -37 -6.5 -52t-2.5 -19q-5 -19 -23 -19h-53
l-1 197h535v-50q0 -23 -13 -42l-371 -524h290z" />
    <glyph glyph-name="zcaron" unicode="&#x17e;" horiz-adv-x="437" 
d="M60 723h86q8 0 14 -3l11 -6l53 -48l10 -11l11 11l53 48q6 4 11 6q8 3 14 3h82l-114 -139h-116zM428 0h-410v52q0 9 4 20q5 14 12 22l246 324h-161q-4 -40 -6 -50q-5 -19 -23 -19h-58v164h389v-51q0 -14 -4 -25q-3 -7 -12 -21l-243 -321h179l6 54q5 19 23 19h58v-168z" />
    <glyph glyph-name="florin" unicode="&#x192;" horiz-adv-x="492" 
d="M248 -62q-19 -40 -51 -63q-34 -25 -78 -36q-43 -11 -108 -11v64q0 38 39 38q22 0 38 6q18 7 30 17q11 10 21 31q9 20 12 48l41 338l-61 9q-28 6 -28 31v50h101l8 74q12 99 76 151q63 51 187 51v-68q0 -19 -9 -27q-10 -8 -30 -8q-24 0 -38 -5q-16 -5 -30 -18
q-14 -12 -23 -32t-12 -47l-10 -71h147v-88h-155l-41 -343q-6 -48 -26 -91z" />
    <glyph glyph-name="circumflex" unicode="&#x2c6;" horiz-adv-x="389" 
d="M260 593l-53 47l-5 6l-6 6l-5 -6l-5 -6l-54 -47l-10 -6q-6 -3 -14 -3h-86l114 139h116l115 -139h-83q-15 0 -24 9z" />
    <glyph glyph-name="caron" unicode="&#x2c7;" horiz-adv-x="390" 
d="M22 723h86q8 0 14 -3l11 -6l53 -48l10 -11l6 6l6 5l52 48q6 4 11 6q7 3 14 3h82l-114 -139h-116z" />
    <glyph glyph-name="uni02C9" unicode="&#x2c9;" horiz-adv-x="352" 
d="M326 607h-300v79h300v-79z" />
    <glyph glyph-name="breve" unicode="&#x2d8;" horiz-adv-x="351" 
d="M104 592q-30 13 -46 30q-18 20 -26 46q-7 24 -7 55h87q0 -19 2 -27q3 -11 10 -20q7 -8 20 -13t32 -5t32 5t20 13q7 9 10 20q3 12 3 27h86q0 -31 -7 -55q-8 -26 -26 -46q-16 -17 -46 -30q-28 -12 -72 -12q-43 0 -72 12z" />
    <glyph glyph-name="dotaccent" unicode="&#x2d9;" horiz-adv-x="205" 
d="M176 634q-4 -10 -18 -24q-12 -12 -25 -17q-17 -7 -31 -7t-30 7q-14 6 -25 17q-12 12 -17 24q-6 15 -6 30q0 16 6 31q5 13 17 25q11 11 25 17q16 7 30 7t31 -7q13 -5 25 -17q13 -13 18 -25q6 -15 6 -31q0 -15 -6 -30z" />
    <glyph glyph-name="ring" unicode="&#x2da;" horiz-adv-x="269" 
d="M32 704q8 18 25 33q15 13 35 21q21 8 42 8t43 -8q21 -7 36 -21q17 -15 25 -33q9 -20 9 -42t-9 -40q-9 -17 -25 -32q-15 -14 -36 -21q-20 -7 -43 -7q-24 0 -42 7q-20 8 -35 21q-16 15 -25 32q-8 16 -8 40q0 25 8 42zM102 631q13 -13 34 -13q19 0 32 13q12 12 12 31
q0 22 -12 34t-32 12q-22 0 -34 -12t-12 -34q0 -19 12 -31z" />
    <glyph glyph-name="ogonek" unicode="&#x2db;" horiz-adv-x="247" 
d="M203 -102l19 -45q-38 -25 -94 -25q-46 0 -74 19t-28 54q0 32 23.5 59t58.5 46l64 -6q-54 -33 -54 -68q0 -15 9.5 -23.5t26.5 -8.5q18 0 26.5 3.5t11.5 3.5q7 0 11 -9z" />
    <glyph glyph-name="tilde" unicode="&#x2dc;" horiz-adv-x="368" 
d="M260 688q9 9 9 30h75q0 -27 -8 -51q-7 -23 -21 -39q-12 -15 -32 -25q-18 -9 -42 -9q-18 0 -33 6q-14 5 -29 14l-25 14q-14 7 -22 7q-14 0 -23 -9q-8 -8 -8 -30h-77q0 27 8 51q7 20 22 39q13 16 33 26q16 8 41 8q18 0 33 -6q14 -5 29 -14l26 -14q12 -6 21 -6q15 0 23 8z
" />
    <glyph glyph-name="hungarumlaut" unicode="&#x2dd;" horiz-adv-x="409" 
d="M96 587q-12 -4 -24 -4h-50l63 121q8 15 17 20q12 7 30 7h81l-99 -131q-7 -9 -18 -13zM244 587q-8 -4 -23 -4h-58l88 121l9 12q7 7 9 8q8 4 13 5q10 2 17 2h89l-126 -131q-8 -8 -18 -13z" />
    <glyph glyph-name="gravecomb" unicode="&#x300;" 
d="M-111 724q11 -7 18 -20l71 -121h-71q-10 0 -22 4q-12 6 -18 13l-124 131h116q20 0 30 -7z" />
    <glyph glyph-name="acutecomb" unicode="&#x301;" 
d="M-163 587q-12 -4 -23 -4h-74l71 121q8 15 17 20q12 7 30 7h120l-123 -131q-8 -10 -18 -13z" />
    <glyph glyph-name="uni0302" unicode="&#x302;" 
d="M-129 593l-53 47l-5 6l-6 6l-5 -6l-5 -6l-54 -47l-10 -6q-6 -3 -14 -3h-86l114 139h116l115 -139h-83q-15 0 -24 9z" />
    <glyph glyph-name="tildecomb" unicode="&#x303;" 
d="M-108 688q9 9 9 30h75q0 -27 -8 -51q-7 -23 -21 -39q-12 -15 -32 -25q-18 -9 -42 -9q-18 0 -33 6q-14 5 -29 14l-25 14q-14 7 -22 7q-14 0 -23 -9q-8 -8 -8 -30h-77q0 27 8 51q7 20 22 39q13 16 33 26q16 8 41 8q18 0 33 -6q14 -5 29 -14l26 -14q12 -6 21 -6q15 0 23 8z
" />
    <glyph glyph-name="uni0304" unicode="&#x304;" 
d="M-26 607h-300v79h300v-79z" />
    <glyph glyph-name="uni0306" unicode="&#x306;" 
d="M-247 592q-30 13 -46 30q-18 20 -26 46q-7 24 -7 55h87q0 -19 2 -27q3 -11 10 -20q7 -8 20 -13t32 -5t32 5t20 13q7 9 10 20q3 12 3 27h86q0 -31 -7 -55q-8 -26 -26 -46q-16 -17 -46 -30q-28 -12 -72 -12q-43 0 -72 12z" />
    <glyph glyph-name="uni0307" unicode="&#x307;" 
d="M-29 634q-4 -10 -18 -24q-12 -12 -25 -17q-17 -7 -31 -7t-30 7q-14 6 -25 17q-12 12 -17 24q-6 15 -6 30q0 16 6 31q5 13 17 25q11 11 25 17q16 7 30 7t31 -7q13 -5 25 -17q13 -13 18 -25q6 -15 6 -31q0 -15 -6 -30z" />
    <glyph glyph-name="uni0308" unicode="&#x308;" 
d="M-217 620q-7 -14 -15 -22q-6 -6 -22 -14q-10 -5 -27 -5q-16 0 -26 5q-16 8 -22 14t-14 22q-6 12 -6 26q0 15 6 27q9 18 14 23q6 6 22 14q12 6 26 6q15 0 27 -6q16 -8 22 -14q7 -7 15 -23q6 -12 6 -27q0 -14 -6 -26zM-29 620q-6 -12 -16 -22q-6 -6 -22 -14q-10 -5 -26 -5
q-17 0 -27 5q-16 8 -22 14q-8 8 -15 22q-5 10 -5 26q0 17 5 27q8 16 15 23q6 6 22 14q12 6 27 6q14 0 26 -6q14 -6 22 -14q9 -9 16 -23q5 -10 5 -27q0 -16 -5 -26z" />
    <glyph glyph-name="uni030A" unicode="&#x30a;" 
d="M-237 704q8 18 25 33q15 13 35 21q21 8 42 8t43 -8q21 -7 36 -21q17 -15 25 -33q9 -20 9 -42t-9 -40q-9 -17 -25 -32q-15 -14 -36 -21q-20 -7 -43 -7q-24 0 -42 7q-20 8 -35 21q-16 15 -25 32q-8 16 -8 40q0 25 8 42zM-167 631q13 -13 34 -13q19 0 32 13q12 12 12 31
q0 22 -12 34t-32 12q-22 0 -34 -12t-12 -34q0 -19 12 -31z" />
    <glyph glyph-name="uni030B" unicode="&#x30b;" 
d="M-313 587q-12 -4 -24 -4h-50l63 121q8 15 17 20q12 7 30 7h81l-99 -131q-7 -9 -18 -13zM-165 587q-8 -4 -23 -4h-58l88 121l9 12q7 7 9 8q8 4 13 5q10 2 17 2h89l-126 -131q-8 -8 -18 -13z" />
    <glyph glyph-name="uni030C" unicode="&#x30c;" 
d="M-368 723h86q8 0 14 -3l11 -6l53 -48l10 -11l6 6l6 5l52 48q6 4 11 6q7 3 14 3h82l-114 -139h-116z" />
    <glyph glyph-name="uni0312" unicode="&#x312;" 
d="M-40 813q9 -7 9 -18q0 -8 -10 -18q-20 -20 -35 -43.5t-19 -44.5q17 0 28 -5q21 -10 31.5 -28.5t10.5 -40.5q0 -30 -20 -48.5t-52 -18.5q-36 0 -55.5 24.5t-19.5 59.5q0 51 31.5 108t78.5 93z" />
    <glyph glyph-name="uni0326" unicode="&#x326;" 
d="M-157 -316q-9 7 -9 18q0 8 10 18q20 20 35 43.5t19 44.5q-17 0 -28 5q-21 10 -31.5 28.5t-10.5 40.5q0 30 20 48.5t52 18.5q36 0 55.5 -24.5t19.5 -59.5q0 -51 -31.5 -108t-78.5 -93z" />
    <glyph glyph-name="uni0327" unicode="&#x327;" 
d="M-178 -117q12 -3 22 -3q15 0 24 5t9 16q0 15 -18 21q-20 7 -56 11l23 74h77l-10 -35q43 -10 62 -29q18 -18 18 -45q0 -36 -36 -54t-85 -18q-23 0 -38.5 2t-34.5 9l11 38q3 11 14 11q6 0 18 -3z" />
    <glyph glyph-name="uni0328" unicode="&#x328;" 
d="M-44 -102l19 -45q-38 -25 -94 -25q-46 0 -74 19t-28 54q0 32 23.5 59t58.5 46l64 -6q-54 -33 -54 -68q0 -15 9.5 -23.5t26.5 -8.5q18 0 26.5 3.5t11.5 3.5q7 0 11 -9z" />
    <glyph glyph-name="uni0335" unicode="&#x335;" 
d="M-15 407v-88h-330v88h330z" />
    <glyph glyph-name="uni0337" unicode="&#x337;" 
d="M-128 530q14 19 25.5 25.5t30.5 6.5h62l-416 -564q-27 -36 -74 -36h-46z" />
    <glyph glyph-name="uni0338" unicode="&#x338;" 
d="M-135 723q12 19 25 26t31 7h69l-564 -776q-28 -36 -74 -36h-52z" />
    <glyph glyph-name="pi" unicode="&#x3c0;" horiz-adv-x="637" 
d="M610 436q-8 -11 -28 -11h-54v-425h-124v425h-169v-292q0 -30 -8 -57q-8 -26 -24 -44q-17 -19 -43 -29t-64 -10q-18 0 -38 3q-14 2 -38 14l4 52q1 9 8 14q8 6 26 6q30 0 42 12t12 40v291h-90v44q0 8 3 15q3 8 9 14q8 8 14 11q8 4 20 4h552v-49q0 -15 -10 -28z" />
    <glyph glyph-name="Wgrave" unicode="&#x1e80;" horiz-adv-x="1133" 
d="M1118 664q0 -25 -25 -31l-11 -2l-28 -5l-195 -626h-121l-158 494l-6 20l-7 24l-6 -24l-6 -20l-160 -494h-121l-194 626l-29 5l-11 2q-25 6 -25 31v59h270v-59q0 -25 -25 -31q-3 0 -5 -1l-11 -3q-12 -2 -17 -4l103 -365l9 -35l7 -40l9 40q5 21 10 35l142 432q5 13 16 21
q13 10 28 10h40q18 0 29 -8t16 -23l141 -432q13 -38 19 -71q4 23 7 37q3 17 8 34l103 364l-41 9q-25 6 -25 31v59h270v-59zM512 886l109 -112h-97q-14 0 -23 3t-18 10l-149 109h137q31 0 41 -10z" />
    <glyph glyph-name="wgrave" unicode="&#x1e81;" horiz-adv-x="894" 
d="M879 454q0 -25 -25 -31q4 1 -47 -9l-131 -414h-100q-16 0 -23 22l-92 296q-2 5 -4.5 12.5t-4.5 17.5q-1 2 -6 29l-6 -30q-2 -10 -8 -30l-94 -295q-7 -22 -27 -22h-94l-132 414q-27 5 -35 7t-12 2q-25 6 -25 31v59h250v-59q0 -25 -25 -31l-31 -6l54 -201q8 -30 10 -44
l7 -43l12 43q10 35 13 44l85 275q3 10 12 16q10 7 21 7h55q12 0 22 -7q9 -6 12 -16l84 -280l12 -42l10 -41q2 17 8 43l11 45l55 200l-36 7q-25 6 -25 31v59h250v-59zM475 724q11 -7 18 -20l71 -121h-71q-10 0 -22 4q-12 6 -18 13l-124 131h116q20 0 30 -7z" />
    <glyph glyph-name="Wacute" unicode="&#x1e82;" horiz-adv-x="1133" 
d="M1118 664q0 -25 -25 -31l-11 -2l-28 -5l-195 -626h-121l-158 494l-6 20l-7 24l-6 -24l-6 -20l-160 -494h-121l-194 626l-29 5l-11 2q-25 6 -25 31v59h270v-59q0 -25 -25 -31q-3 0 -5 -1l-11 -3q-12 -2 -17 -4l103 -365l9 -35l7 -40l9 40q5 21 10 35l142 432q5 13 16 21
q13 10 28 10h40q18 0 29 -8t16 -23l141 -432q13 -38 19 -71q4 23 7 37q3 17 8 34l103 364l-41 9q-25 6 -25 31v59h270v-59zM810 896l-149 -109q-9 -7 -18 -10t-23 -3h-97l109 112q10 10 41 10h137z" />
    <glyph glyph-name="wacute" unicode="&#x1e83;" horiz-adv-x="894" 
d="M879 454q0 -25 -25 -31q4 1 -47 -9l-131 -414h-100q-16 0 -23 22l-92 296q-2 5 -4.5 12.5t-4.5 17.5q-1 2 -6 29l-6 -30q-2 -10 -8 -30l-94 -295q-7 -22 -27 -22h-94l-132 414q-27 5 -35 7t-12 2q-25 6 -25 31v59h250v-59q0 -25 -25 -31l-31 -6l54 -201q8 -30 10 -44
l7 -43l12 43q10 35 13 44l85 275q3 10 12 16q10 7 21 7h55q12 0 22 -7q9 -6 12 -16l84 -280l12 -42l10 -41q2 17 8 43l11 45l55 200l-36 7q-25 6 -25 31v59h250v-59zM425 587q-12 -4 -23 -4h-74l71 121q8 15 17 20q12 7 30 7h120l-123 -131q-8 -10 -18 -13z" />
    <glyph glyph-name="Wdieresis" unicode="&#x1e84;" horiz-adv-x="1133" 
d="M1118 664q0 -25 -25 -31l-11 -2l-28 -5l-195 -626h-121l-158 494l-6 20l-7 24l-6 -24l-6 -20l-160 -494h-121l-194 626l-29 5l-11 2q-25 6 -25 31v59h270v-59q0 -25 -25 -31q-3 0 -5 -1l-11 -3q-12 -2 -17 -4l103 -365l9 -35l7 -40l9 40q5 21 10 35l142 432q5 13 16 21
q13 10 28 10h40q18 0 29 -8t16 -23l141 -432q13 -38 19 -71q4 23 7 37q3 17 8 34l103 364l-41 9q-25 6 -25 31v59h270v-59zM536 830q-7 -14 -15 -22q-6 -6 -22 -14q-10 -5 -27 -5q-16 0 -26 5q-16 8 -22 14t-14 22q-6 12 -6 26q0 15 6 27q9 18 14 23q6 6 22 14q12 6 26 6
q15 0 27 -6q16 -8 22 -14q7 -7 15 -23q6 -12 6 -27q0 -14 -6 -26zM724 830q-6 -12 -16 -22q-6 -6 -22 -14q-10 -5 -26 -5q-17 0 -27 5q-16 8 -22 14q-8 8 -15 22q-5 10 -5 26q0 17 5 27q8 16 15 23q6 6 22 14q12 6 27 6q14 0 26 -6q14 -6 22 -14q9 -9 16 -23q5 -10 5 -27
q0 -16 -5 -26z" />
    <glyph glyph-name="wdieresis" unicode="&#x1e85;" horiz-adv-x="894" 
d="M879 454q0 -25 -25 -31q4 1 -47 -9l-131 -414h-100q-16 0 -23 22l-92 296q-2 5 -4.5 12.5t-4.5 17.5q-1 2 -6 29l-6 -30q-2 -10 -8 -30l-94 -295q-7 -22 -27 -22h-94l-132 414q-27 5 -35 7t-12 2q-25 6 -25 31v59h250v-59q0 -25 -25 -31l-31 -6l54 -201q8 -30 10 -44
l7 -43l12 43q10 35 13 44l85 275q3 10 12 16q10 7 21 7h55q12 0 22 -7q9 -6 12 -16l84 -280l12 -42l10 -41q2 17 8 43l11 45l55 200l-36 7q-25 6 -25 31v59h250v-59zM416 620q-7 -14 -15 -22q-6 -6 -22 -14q-10 -5 -27 -5q-16 0 -26 5q-16 8 -22 14t-14 22q-6 12 -6 26
q0 15 6 27q9 18 14 23q6 6 22 14q12 6 26 6q15 0 27 -6q16 -8 22 -14q7 -7 15 -23q6 -12 6 -27q0 -14 -6 -26zM604 620q-6 -12 -16 -22q-6 -6 -22 -14q-10 -5 -26 -5q-17 0 -27 5q-16 8 -22 14q-8 8 -15 22q-5 10 -5 26q0 17 5 27q8 16 15 23q6 6 22 14q12 6 27 6
q14 0 26 -6q14 -6 22 -14q9 -9 16 -23q5 -10 5 -27q0 -16 -5 -26z" />
    <glyph glyph-name="Ygrave" unicode="&#x1ef2;" horiz-adv-x="726" 
d="M710 664q0 -25 -25 -31l-6 -1q-3 0 -6.5 -1t-8.5 -2l-29 -5l-204 -343v-182l29 -5q5 -1 8.5 -2t6.5 -1l6 -1q25 -6 25 -31v-59h-286v59q0 25 25 31q4 0 7 1l15 3l29 5v182l-204 343l-30 5q-5 1 -8.5 2t-6.5 1l-6 1q-25 6 -25 31v59h270v-59q0 -25 -25 -31l-4 -1l-10 -3
l-14 -3l96 -175q8 -14 20 -40q5 -11 8.5 -21t6.5 -17q5 16 15 38q12 26 20 40l95 175l-15 3q-3 1 -5 2t-4 1q-2 1 -5 1q-25 6 -25 31v59h270v-59zM308 886l109 -112h-97q-14 0 -23 3t-18 10l-149 109h137q31 0 41 -10z" />
    <glyph glyph-name="ygrave" unicode="&#x1ef3;" horiz-adv-x="611" 
d="M596 454q0 -25 -25 -31q-4 0 -12 -2t-35 -7l-237 -555q-6 -14 -15 -20q-7 -6 -26 -6h-92l96 205l-165 376q-27 5 -35 7t-12 2q-25 6 -25 31v59h250v-59q0 -25 -25 -31l-24 -4l81 -195q4 -9 6 -16t3 -11q2 -7 7 -28l9 28q6 18 10 27l75 193l-34 6q-25 6 -25 31v59h250v-59
zM334 724q11 -7 18 -20l71 -121h-71q-10 0 -22 4q-12 6 -18 13l-124 131h116q20 0 30 -7z" />
    <glyph glyph-name="endash" unicode="&#x2013;" horiz-adv-x="462" 
d="M434 256h-406v88h406v-88z" />
    <glyph glyph-name="emdash" unicode="&#x2014;" horiz-adv-x="735" 
d="M707 256h-679v88h679v-88z" />
    <glyph glyph-name="quoteleft" unicode="&#x2018;" horiz-adv-x="185" 
d="M21 600q0 52 25 96q27 47 74 84l38 -24q6 -4 7 -7q2 -6 2 -8q0 -3 -2 -9q0 -1 -5 -6l-13 -18q-7 -9 -13 -22q-4 -8 -10 -26q-4 -12 -4 -30q0 -20 5 -36q6 -20 19 -40q4 -7 4 -14q0 -16 -18 -22l-75 -30q-34 55 -34 112z" />
    <glyph glyph-name="quoteright" unicode="&#x2019;" horiz-adv-x="184" 
d="M156 710q8 -25 8 -56q0 -52 -25 -96q-26 -46 -73 -84l-38 24q-7 5 -8 7q-2 6 -2 9q0 9 7 16l14 17q6 8 13 21q8 15 10 26q4 18 4 30q0 17 -6 36q-8 25 -18 41q-5 7 -5 13q0 17 19 23l74 29q17 -26 26 -56z" />
    <glyph glyph-name="quotesinglbase" unicode="&#x201a;" horiz-adv-x="193" 
d="M160 89q8 -25 8 -55q0 -52 -25 -96q-26 -46 -73 -84l-38 23q-6 4 -7 8q-2 6 -2 8q0 9 7 16l13 17q5 6 13 22t10 25q4 18 4 30q0 18 -6 37q-7 23 -18 40q-4 5 -4 14q0 16 18 22l74 30q16 -25 26 -57z" />
    <glyph glyph-name="quotedblleft" unicode="&#x201c;" horiz-adv-x="351" 
d="M21 600q0 52 25 96q27 47 74 84l38 -24q6 -4 7 -7q2 -6 2 -8q0 -3 -2 -9q0 -1 -5 -6l-13 -18q-7 -9 -13 -22q-4 -8 -10 -26q-4 -12 -4 -30q0 -20 5 -36q6 -20 19 -40q4 -7 4 -14q0 -16 -18 -22l-75 -30q-34 55 -34 112zM187 600q0 52 25 96q27 47 74 84l38 -24q6 -4 7 -7
q2 -6 2 -8q0 -3 -2 -9q-1 -3 -4 -6l-14 -18q-7 -9 -13 -22q-4 -8 -10 -26q-4 -12 -4 -30q0 -20 5 -36q6 -20 19 -40q4 -7 4 -14q0 -16 -18 -22l-75 -30q-34 55 -34 112z" />
    <glyph glyph-name="quotedblright" unicode="&#x201d;" horiz-adv-x="350" 
d="M156 710q8 -25 8 -56q0 -52 -25 -96q-26 -46 -73 -84l-38 24q-7 5 -8 7q-2 6 -2 9q0 9 7 16l14 16q5 6 13 22q8 15 10 26q4 18 4 30q0 17 -6 36q-8 25 -18 41q-5 7 -5 13q0 17 19 23l74 29q17 -26 26 -56zM322 710q8 -25 8 -56q0 -52 -25 -96q-26 -46 -73 -84l-39 24
q-6 4 -7 7q-2 6 -2 8q0 9 7 16l14 17q5 6 13 22q8 15 10 26q3 14 3 30q0 20 -5 36q-8 25 -18 41q-5 7 -5 13q0 17 19 23l74 29q17 -26 26 -56z" />
    <glyph glyph-name="quotedblbase" unicode="&#x201e;" horiz-adv-x="359" 
d="M160 90q8 -25 8 -56q0 -52 -25 -96q-26 -46 -73 -84l-38 24q-6 4 -7 7q-2 6 -2 8q0 9 7 16l13 17q6 8 13 21q8 15 10 26q4 18 4 30q0 18 -6 37q-7 23 -18 40q-4 5 -4 14q0 16 18 22l74 30q17 -26 26 -56zM326 89q8 -25 8 -56q0 -51 -25 -95q-26 -46 -73 -84l-38 23
q-6 4 -7 8q-2 6 -2 8q0 10 6 16l14 17q6 7 13 21q8 15 10 26q4 18 4 30q0 18 -6 37q-7 23 -18 40q-4 5 -4 14q0 16 18 22l74 29q17 -26 26 -56z" />
    <glyph glyph-name="dagger" unicode="&#x2020;" horiz-adv-x="532" 
d="M20 476q4 11 11 18q8 8 18 12q9 4 26 4q28 0 68 -8q50 -10 75 -14l-16 244q26 16 64 16q20 0 35 -4t29 -12l-16 -244q25 4 75 14q40 8 69 8q17 0 26 -4q11 -4 18 -12q6 -6 10 -18t4 -20v-40h-202v-178l16 -400q-13 -7 -30 -12q-15 -4 -34 -4q-38 0 -64 16l16 400v178
h-201v40q0 11 3 20z" />
    <glyph glyph-name="daggerdbl" unicode="&#x2021;" horiz-adv-x="535" 
d="M22 476q4 12 10 18q7 8 18 12q9 4 26 4q29 0 69 -8q54 -11 74 -14l-15 244q26 16 64 16q19 0 34 -4q16 -4 30 -12l-16 -244q20 3 74 14q40 8 69 8q17 0 26 -4q10 -4 18 -12q8 -7 11 -18q3 -9 3 -20v-40h-201v-260h201v-42q0 -11 -3 -20q-2 -7 -11 -16q-7 -7 -18 -12
q-12 -5 -26 -5q-29 0 -69 8q-29 6 -74 13l16 -244q-14 -8 -30 -12q-15 -4 -34 -4q-38 0 -64 16l15 244q-50 -8 -75 -13q-40 -8 -68 -8q-14 0 -26 5q-10 5 -18 12q-7 7 -10 16q-4 12 -4 20v42h202v260h-202v40q0 8 4 20z" />
    <glyph glyph-name="bullet" unicode="&#x2022;" horiz-adv-x="480" 
d="M39 381q19 41 47 69q31 31 69 47q40 17 85 17q43 0 85 -17q37 -15 69 -47q28 -28 47 -69q17 -37 17 -85q0 -46 -17 -83q-19 -41 -47 -69q-29 -29 -70 -46q-42 -17 -84 -17q-45 0 -85 17t-69 46q-28 28 -47 69q-17 37 -17 83q0 48 17 85z" />
    <glyph glyph-name="ellipsis" unicode="&#x2026;" horiz-adv-x="737" 
d="M32 98q6 14 16 24t24 16t30 6t30 -6t24 -16t16 -24q6 -13 6 -30q0 -16 -6 -30q-6 -13 -16 -23t-24 -16q-13 -6 -29 -6t-30 6q-16 7 -25 16q-10 10 -16 23q-6 14 -6 30q0 17 6 30zM299 97q6 14 16 24q11 11 25 17t30 6t29 -6q14 -6 24 -16t16 -24q6 -13 6 -30
q0 -16 -6 -30t-16 -24q-8 -8 -24 -15q-13 -6 -29 -6t-30 6q-18 8 -25 15q-10 10 -16 24t-6 30t6 29zM566 98q6 14 16 24t24 16t30 6q17 0 30 -6q14 -6 24 -16t16 -24q6 -13 6 -30q0 -16 -6 -30t-16 -24q-8 -8 -24 -15q-13 -6 -30 -6q-16 0 -30 6q-16 7 -24 15q-10 10 -16 24
t-6 30q0 17 6 30z" />
    <glyph glyph-name="perthousand" unicode="&#x2030;" horiz-adv-x="1147" 
d="M338 474q-12 -29 -37 -56q-22 -24 -53 -36q-30 -12 -64 -12q-36 0 -66 12q-31 12 -53 36q-24 26 -35 56q-12 33 -12 74q0 42 12 76q11 33 35 58q22 24 53 36q30 12 66 12q37 0 67 -12q31 -12 53 -36q24 -25 35 -58q13 -37 13 -76q0 -40 -14 -74zM607 717q9 6 25 6h90
l-538 -705q-5 -6 -15 -13q-7 -5 -22 -5h-92l537 704q5 6 15 13zM250 596q-6 20 -15 32q-8 10 -23 17q-11 5 -28 5t-28 -5q-14 -6 -22 -17q-11 -15 -15 -32q-5 -16 -5 -48t5 -47q6 -18 15 -30q10 -13 22 -17t28 -4t28 4q14 5 23 17q11 14 16 30q5 15 5 47q0 29 -6 48z
M1116 96q-12 -29 -37 -56q-22 -24 -53 -36q-32 -13 -64 -13q-33 0 -66 13q-31 12 -53 36q-24 26 -35 56q-12 33 -12 74q0 42 12 76q11 33 35 58q22 24 53 36q33 13 66 13q35 0 67 -13q33 -15 53 -36q24 -25 35 -58q13 -37 13 -76q0 -40 -14 -74zM746 96q-12 -29 -37 -56
q-22 -24 -53 -36q-33 -13 -64 -13q-33 0 -66 13q-31 12 -53 36q-24 26 -35 56q-13 36 -13 74q0 39 13 76q11 33 35 58q22 24 53 36q30 12 66 12q37 0 67 -12q31 -12 53 -36q24 -25 35 -58q13 -37 13 -76q0 -40 -14 -74zM659 219q-5 16 -16 31q-8 10 -23 17q-13 6 -28 6
q-14 0 -28 -6t-22 -17q-9 -12 -15 -31q-5 -16 -5 -49q0 -31 5 -47q5 -17 15 -30t22 -17q15 -5 28 -5t28 5q14 5 23 17q11 15 16 30q5 16 5 47q0 33 -5 49zM1029 219q-6 19 -15 31q-10 11 -23 17q-14 6 -29 6q-14 0 -28 -6t-22 -17q-9 -12 -15 -31q-5 -16 -5 -49q0 -31 5 -47
q5 -17 15 -30t22 -17q15 -5 28 -5q14 0 29 5q14 5 23 17q9 10 15 30t6 47q0 30 -6 49z" />
    <glyph glyph-name="guilsinglleft" unicode="&#x2039;" horiz-adv-x="228" 
d="M148 475l40 -19q11 -4 15 -12q5 -8 5 -15q0 -9 -7 -21l-69 -118q-8 -14 -16 -21q10 -10 16 -21l69 -118q7 -12 7 -22q0 -17 -19 -26l-41 -19l-128 198v16z" />
    <glyph glyph-name="guilsinglright" unicode="&#x203a;" horiz-adv-x="230" 
d="M27 94q-5 8 -5 15q0 9 7 21l69 118q6 11 16 21q-8 7 -16 21l-69 118q-7 12 -7 21q0 18 20 27l40 19l128 -198v-16l-128 -198l-40 19q-10 5 -15 12z" />
    <glyph glyph-name="fraction" unicode="&#x2044;" horiz-adv-x="565" 
d="M102 8q-16 -8 -34 -8h-53l417 682q12 20 27 30q16 11 38 11h53l-420 -687q-13 -21 -28 -28z" />
    <glyph glyph-name="Euro" unicode="&#x20ac;" horiz-adv-x="587" 
d="M123 574q26 50 61 84q36 35 82 53q47 19 99 19q70 0 119 -27t82 -72l-43 -47q-3 -4 -11 -10q-5 -4 -15 -4q-8 0 -13 4l-12 10l-16 13q-9 7 -20 13q-10 5 -28 10q-15 4 -38 4q-59 0 -99 -40t-57 -120h251v-38q0 -12 -9 -21q-10 -10 -25 -10h-225l-1 -17v-28l1 -12h212v-38
q0 -11 -10 -21q-9 -9 -24 -9h-172q14 -87 53 -129t99 -42q35 0 58 10q22 9 35 21l23 22q10 10 20 10q4 0 10 -2q3 -1 8 -6l54 -50q-34 -53 -89 -82t-125 -29q-58 0 -106 20q-47 20 -81 55t-57 88q-20 46 -30 114h-64v68h58v57h-58v69h67q13 65 36 110z" />
    <glyph glyph-name="trademark" unicode="&#x2122;" horiz-adv-x="695" 
d="M188 653v-231h-85v231h-81v70h248v-70h-82zM480 565l6 -18l6 18q1 3 8 17l67 128q5 9 11 11q8 2 16 2h74v-301h-75v150l5 50l-76 -151q-9 -19 -29 -19h-12q-20 0 -30 19l-75 149l5 -48v-150h-75v301h74q13 0 17 -1q5 -1 10 -12l66 -128z" />
    <glyph glyph-name="uni2126" unicode="&#x2126;" horiz-adv-x="709" 
d="M454 267q32 14 52 36q22 24 34 55q12 32 12 75q0 45 -14 82q-13 36 -39 60q-26 25 -63 37q-36 12 -81 12t-81 -12q-35 -12 -62 -37t-40 -60q-14 -37 -14 -82q0 -41 13 -75q13 -33 33 -55t52 -36q29 -13 64 -19v-248h-254q-21 0 -33 12t-12 30v68h195v70q-49 13 -84 36
q-37 25 -61 59q-23 34 -37 76q-14 44 -14 89q0 59 25 114q24 53 68 92q44 40 105 62q63 23 137 23t137 -23q61 -22 105 -62q44 -39 68 -92q25 -55 25 -114q0 -45 -14 -89q-14 -42 -37 -76q-24 -34 -61 -59q-36 -24 -83 -36v-70h195v-68q0 -17 -13 -30q-12 -12 -33 -12h-253
l-1 248q35 6 64 19z" />
    <glyph glyph-name="partialdiff" unicode="&#x2202;" horiz-adv-x="552" 
d="M178 694q23 13 42 20q23 8 46 12q21 4 54 4q48 0 86 -19q39 -19 67 -55q29 -37 44 -87q15 -51 15 -116q0 -110 -18 -189q-19 -82 -58 -145q-38 -61 -95 -94t-133 -33q-45 0 -84 15t-67 43t-43 67q-16 42 -16 89q0 57 20 109q18 47 55 87q34 37 82 58t103 21q49 0 84 -18
q34 -18 58 -49l1 20v18q0 46 -9 79q-10 36 -24 57q-13 19 -37 33q-21 11 -48 11q-21 0 -36 -4q-10 -3 -31 -12l-25 -10q-16 -6 -19 -6q-9 0 -14 4q-8 6 -14 16l-26 48q16 12 40 26zM294 100q26 12 46 34t37 62q16 35 25 92q-5 20 -13 37q-9 18 -22 31q-14 14 -31 21
q-19 8 -44 8q-39 0 -65 -13q-28 -14 -45 -37q-20 -27 -28 -56t-8 -72q0 -57 25 -88t71 -31q25 0 52 12z" />
    <glyph glyph-name="uni2206" unicode="&#x2206;" horiz-adv-x="751" 
d="M736 0h-721l300 723h121zM400 514q-5 12 -12 32l-12 40l-12 -40l-12 -34l-158 -406h364z" />
    <glyph glyph-name="product" unicode="&#x220f;" horiz-adv-x="670" 
d="M570 620v-788h-128v788h-213v-788h-127v788h-84v103h635v-103h-83z" />
    <glyph glyph-name="summation" unicode="&#x2211;" horiz-adv-x="642" 
d="M622 620h-412l256 -324v-36l-256 -324h412v-104h-604v44q0 6 4 18q3 10 10 18l297 367l-297 364q-7 8 -10 18q-4 12 -4 19v43h604v-103z" />
    <glyph glyph-name="minus" unicode="&#x2212;" horiz-adv-x="499" 
d="M471 290h-443v92h443v-92z" />
    <glyph glyph-name="radical" unicode="&#x221a;" horiz-adv-x="634" 
d="M30 332q-14 12 -14 38v40h176q15 0 24 -6t12 -17l51 -155q5 -14 11 -42q3 -12 7 -43l6 34q3 16 9 35l194 614q3 10 12 16q11 7 22 7h81l-275 -853h-104l-118 321h-61q-21 0 -33 11z" />
    <glyph glyph-name="infinity" unicode="&#x221e;" horiz-adv-x="686" 
d="M449 124q-19 6 -41 20q-18 11 -35 30t-29 36q-14 -20 -30 -36q-22 -22 -35 -30q-21 -13 -42 -20q-24 -8 -50 -8q-34 0 -63 13q-30 13 -52 37q-23 24 -36 57q-14 34 -14 73t14 73q13 31 36 56q22 24 52 37q31 14 63 14q26 0 50 -8q21 -7 42 -20q13 -8 35 -30
q13 -13 29 -36q9 13 30 36q19 21 34 30q21 13 42 20q24 8 50 8q32 0 63 -14q32 -14 53 -37q23 -24 36 -57q13 -32 13 -72q0 -41 -13 -73q-13 -33 -36 -57q-21 -23 -53 -37q-29 -13 -63 -13q-26 0 -50 8zM220 222q11 5 25 17t23 25l21 32l-21 31q-11 15 -23 26q-14 12 -25 17
q-13 6 -28 6q-16 0 -28 -4q-7 -2 -22 -15q-10 -10 -16 -25t-6 -36q0 -22 6 -37q7 -17 16 -25q13 -11 22 -14q12 -4 28 -4q15 0 28 6zM522 220q13 4 24 14q8 7 15 25q6 15 6 37q0 21 -6 36q-7 17 -16 25q-14 12 -23 15q-12 4 -28 4q-15 0 -28 -6q-9 -4 -25 -18
q-12 -10 -22 -25l-21 -31l21 -32q10 -15 22 -25q14 -12 25 -17q13 -6 28 -6q16 0 28 4z" />
    <glyph glyph-name="integral" unicode="&#x222b;" horiz-adv-x="514" 
d="M295 682q46 49 125 49q11 0 39 -4q23 -5 39 -13l-6 -60q0 -1 -3 -10q-1 -4 -5 -8q-3 -3 -11 -7q-6 -3 -18 -3q-26 0 -41 -5q-17 -5 -29 -18q-9 -9 -18 -30q-7 -16 -10 -42l-64 -503q-5 -47 -24 -89q-19 -39 -43 -62q-26 -24 -60 -36t-74 -12q-10 0 -38 4q-17 2 -38 13
l6 52l3 11q1 3 7 7t12 5q5 1 20 1q29 0 48 6q20 6 33 18q12 10 20 32q7 18 10 46l64 523q10 86 56 135z" />
    <glyph glyph-name="approxequal" unicode="&#x2248;" horiz-adv-x="470" 
d="M372 452q12 2 27 8q18 9 21 11q8 6 12 11l15 -79q-19 -25 -50 -37t-63 -12q-24 0 -53 8q-13 4 -28.5 9.5t-23.5 8.5q-42 15 -49 17q-22 7 -46 7q-16 0 -31 -3t-27 -9q-16 -8 -22 -12q-10 -6 -12 -10l-18 74q10 14 22 24q14 11 29 17q14 5 33 9q22 4 34 4q24 0 53 -8
q18 -5 52 -17q42 -15 49 -17q26 -8 46 -8q10 0 30 4zM372 274q12 2 27 8q18 9 21 11q8 6 12 11l15 -79q-19 -25 -50 -37q-29 -11 -63 -11q-29 0 -53 7q-13 4 -28.5 9.5t-23.5 8.5q-42 15 -49 17q-26 8 -46 8q-11 0 -31 -4q-15 -3 -27 -9q-16 -8 -22 -12q-10 -6 -12 -10
l-18 75q10 14 22 24q12 9 29 16q18 7 33 10q16 3 34 3q24 0 53 -8q18 -5 52 -17q42 -15 49 -17q26 -8 46 -8q10 0 30 4z" />
    <glyph glyph-name="notequal" unicode="&#x2260;" horiz-adv-x="489" 
d="M329 580h89l-56 -110h104v-92h-150l-42 -84h192v-92h-238l-58 -118h-88l58 118h-117v92h163l42 84h-205v92h251z" />
    <glyph glyph-name="lessequal" unicode="&#x2264;" horiz-adv-x="442" 
d="M418 525q0 -10 -6 -19t-22 -16l-176 -79q-15 -6 -26 -9q-5 -1 -12.5 -3t-17.5 -4q8 -2 30 -8q20 -6 26 -9l176 -80q16 -7 22 -16t6 -19v-84l-396 191v50l396 189v-84zM418 40h-396v91h396v-91z" />
    <glyph glyph-name="greaterequal" unicode="&#x2265;" horiz-adv-x="440" 
d="M24 179v84q0 10 6 19t22 16l176 80q8 4 26 10q10 3 30 7l-30 7q-10 2 -26 10l-176 78q-16 7 -22 16t-6 19v84l396 -189v-50zM24 132h396v-92h-396v92z" />
    <glyph glyph-name="lozenge" unicode="&#x25ca;" horiz-adv-x="497" 
d="M292 766l190 -406l-190 -406h-86l-191 406l191 406h86zM242 85q3 -7 4 -13t2 -10l8 23l10 25l117 250l-117 250q-9 19 -10 25q-2 7 -4.5 12.5t-3.5 10.5l-7 -23q-3 -11 -9 -25l-116 -250l116 -250z" />
    <glyph glyph-name="uni2669" unicode="&#x2669;" horiz-adv-x="58" 
d="M30 -168h-2v911h2v-911z" />
    <glyph glyph-name="NULL" horiz-adv-x="75" 
 />
    <glyph glyph-name="grave.case" horiz-adv-x="354" 
d="M187 895q7 0 13 -3q8 -4 10 -6t5.5 -4.5t6.5 -5.5l98 -102h-98l-12 1q-7 0 -10 1l-8 4q-2 1 -4.5 2.5t-5.5 3.5l-149 110h137z" />
    <glyph glyph-name="dieresis.case" horiz-adv-x="416" 
d="M162 808q-6 -12 -15 -21t-23 -14q-13 -5 -26 -5q-12 0 -25 5q-11 4 -21 14q-7 7 -14 21q-5 10 -5 26q0 15 5 25q8 16 14 22q9 9 21 15q10 5 25 5q16 0 26 -5q14 -7 22 -15q10 -10 16 -22q5 -10 5 -25q0 -16 -5 -26zM378 808q-7 -14 -14 -21q-9 -9 -22 -14t-26 -5t-26 5
q-11 4 -21 14q-9 9 -15 21q-5 10 -5 26q0 15 5 25q7 14 15 22q9 9 21 15q10 5 26 5t26 -5q14 -7 22 -15q6 -6 14 -22q5 -10 5 -25q0 -16 -5 -26z" />
    <glyph glyph-name="macron.case" horiz-adv-x="337" 
d="M302 782h-266v70h266v-70z" />
    <glyph glyph-name="acute.case" horiz-adv-x="354" 
d="M163 781q-2 -1 -10 -4q-6 -2 -10 -2l-12 -1h-97l98 102l11 10q7 5 11 6q6 3 12 3l18 1h137l-148 -108z" />
    <glyph glyph-name="circumflex.case" horiz-adv-x="433" 
d="M289 776q-9 2 -15 6l-50 34l-4 2l-4 4l-2 -3l-5 -3l-51 -34q-6 -5 -14 -6q-12 -2 -16 -2h-94l121 110h123l121 -110h-93q-5 0 -17 2z" />
    <glyph glyph-name="caron.case" horiz-adv-x="432" 
d="M144 882q8 -1 14 -6l50 -34l4 -2l4 -2l4 2l4 2l50 34q6 5 14 6q12 2 17 2h93l-120 -110h-124l-120 110h93q5 0 17 -2z" />
    <glyph glyph-name="breve.case" horiz-adv-x="376" 
d="M73 793q-40 30 -40 91h79q0 -24 18 -36t58 -12t58 12t18 36h79q0 -29 -10 -50q-10 -22 -31 -38q-19 -15 -48 -24q-28 -9 -66 -9q-75 0 -115 30z" />
    <glyph glyph-name="dotaccent.case" horiz-adv-x="218" 
d="M178 820q-6 -14 -16 -24q-9 -9 -25 -16q-13 -6 -29 -6q-15 0 -28 6q-14 6 -24 16t-16 24t-6 28q0 16 6 29q6 14 16 24q11 11 24 17t28 6q16 0 29 -6q14 -6 25 -17q10 -10 16 -24q6 -13 6 -29q0 -14 -6 -28z" />
    <glyph glyph-name="ring.case" horiz-adv-x="271" 
d="M40 880q9 19 22 30q13 12 33 20q17 7 39 7t40 -7q17 -7 34 -20q13 -11 23 -30q9 -18 9 -38q0 -21 -9 -39t-23 -29q-19 -16 -34 -20q-19 -6 -40 -6t-39 6q-17 6 -33 20q-13 12 -22 29q-8 16 -8 39q0 22 8 38zM102 810q13 -13 34 -13q19 0 32 13q12 12 12 32t-12 32t-32 12
q-22 0 -34 -12t-12 -32t12 -32z" />
    <glyph glyph-name="tilde.case" horiz-adv-x="378" 
d="M269 857q9 8 9 24h67q0 -20 -7 -45q-6 -21 -18 -36q-9 -12 -30 -22q-16 -8 -40 -8q-20 0 -34 5l-32 12l-29 12q-11 5 -23 5q-15 0 -22 -8q-8 -10 -8 -24h-68q0 24 6 45q5 19 19 36q11 13 30 23q16 8 39 8q22 0 36 -5l32 -12l28 -12q11 -5 24 -5t21 7z" />
    <glyph glyph-name="hungarumlaut.case" horiz-adv-x="449" 
d="M115 779q-10 -5 -23 -5h-58l66 88q7 9 21 18q13 8 32 8h81l-101 -96q-8 -8 -18 -13zM269 779q-10 -5 -24 -5h-67l89 88q8 8 24 18q13 8 33 8h92l-126 -96q-7 -6 -21 -13z" />
    <glyph glyph-name="gravecomb.case" 
d="M-437 886l109 -112h-97q-14 0 -23 3t-18 10l-149 109h137q31 0 41 -10z" />
    <glyph glyph-name="acutecomb.case" 
d="M-213 896l-149 -109q-9 -7 -18 -10t-23 -3h-97l109 112q10 10 41 10h137z" />
    <glyph glyph-name="uni030B.case" 
d="M-313 587q-12 -4 -24 -4h-50l63 121q8 15 17 20q12 7 30 7h81l-99 -131q-7 -9 -18 -13zM-165 587q-8 -4 -23 -4h-58l88 121l9 12q7 7 9 8q8 4 13 5q10 2 17 2h89l-126 -131q-8 -8 -18 -13z" />
    <glyph glyph-name="uni030C.case" 
d="M-367 723h86q8 0 14 -3l11 -6l53 -48l10 -11l6 6l6 5l52 48q6 4 11 6q7 3 14 3h82l-114 -139h-116z" />
  </font>
</defs>
</svg>
