<svg width="71" height="70" viewBox="0 0 71 70" fill="none" xmlns="http://www.w3.org/2000/svg">
<g clip-path="url(#clip0_1422_2474)">
<path d="M67.9409 49.1364H66.2159V13.3292C66.2159 11.633 64.8359 10.2531 63.1398 10.2531H7.52723C5.83109 10.2531 4.45105 11.633 4.45105 13.3292V49.1364H2.72607C1.40688 49.1364 0.333496 50.2098 0.333496 51.529V55.3034C0.333496 57.7534 2.32672 59.7467 4.77686 59.7467H51.2592C51.8255 59.7467 52.2846 59.2876 52.2846 58.7214C52.2846 58.1551 51.8255 57.696 51.2592 57.696H4.77686C3.45766 57.696 2.38428 56.6226 2.38428 55.3034V51.529C2.38428 51.3406 2.53754 51.1872 2.72607 51.1872H15.012C15.5785 51.1872 16.0374 50.7281 16.0374 50.1618C16.0374 49.5955 15.5785 49.1364 15.012 49.1364H6.50184V13.3292C6.50184 12.7639 6.96176 12.3038 7.52723 12.3038H63.1398C63.7052 12.3038 64.1652 12.7639 64.1652 13.3292V49.1364H19.481C18.9145 49.1364 18.4556 49.5955 18.4556 50.1618C18.4556 50.7281 18.9145 51.1872 19.481 51.1872H26.261V53.0745C26.261 54.3938 27.3344 55.467 28.6536 55.467H42.0136C43.3328 55.467 44.4062 54.3938 44.4062 53.0745V51.1872H67.9409C68.1295 51.1872 68.2827 51.3406 68.2827 51.529V55.3034C68.2827 56.6226 67.2093 57.696 65.8901 57.696H55.7281C55.1617 57.696 54.7027 58.1551 54.7027 58.7214C54.7027 59.2876 55.1617 59.7467 55.7281 59.7467H65.8901C68.3403 59.7467 70.3335 57.7534 70.3335 55.3034V51.529C70.3335 50.2098 69.2601 49.1364 67.9409 49.1364ZM42.3552 53.0745C42.3552 53.263 42.202 53.4163 42.0134 53.4163H28.6534C28.4649 53.4163 28.3116 53.263 28.3116 53.0745V51.1872H42.3552V53.0745Z" fill="#1B2B7C"/>
<path d="M45.0396 43.6977C45.8312 43.6977 46.4751 43.0537 46.4751 42.2622V15.6169C46.4751 14.8253 45.8312 14.1814 45.0396 14.1814H39.1125C38.3209 14.1814 37.677 14.8253 37.677 15.6169V42.2622C37.677 43.0537 38.3209 43.6977 39.1125 43.6977H45.0396ZM39.7279 16.2322H44.4245V41.647H39.7279V16.2322Z" fill="#FB5472"/>
<path d="M55.5405 28.6375C56.1069 28.6375 56.5658 28.1784 56.5658 27.6121V24.5272C56.5658 23.7356 55.9219 23.0916 55.1303 23.0916H49.2031C48.4115 23.0916 47.7676 23.7356 47.7676 24.5272V42.2622C47.7676 43.0536 48.4115 43.6977 49.2031 43.6977H55.1303C55.9219 43.6977 56.5658 43.0536 56.5658 42.2622V32.081C56.5658 31.5147 56.1069 31.0556 55.5405 31.0556C54.974 31.0556 54.5151 31.5147 54.5151 32.081V41.6469H49.8184V25.1423H54.5151V27.6119C54.5151 28.1784 54.974 28.6375 55.5405 28.6375Z" fill="#FB5472"/>
<path d="M24.8583 23.0915H18.9311C18.1395 23.0915 17.4955 23.7354 17.4955 24.527V32.9917C15.375 34.4631 14.0464 36.9596 14.1734 39.7218C14.355 43.6729 17.5922 46.9102 21.5432 47.0918C21.6656 47.0974 21.7871 47.1003 21.9088 47.1003C23.8309 47.1001 25.6594 46.4003 27.0914 45.1087C27.6042 44.6462 28.0452 44.1246 28.4114 43.5595C28.597 43.6472 28.8034 43.6976 29.0217 43.6976H34.9486C35.7402 43.6976 36.3842 43.0535 36.3842 42.2621V26.8488C36.3842 26.0572 35.7402 25.4133 34.9486 25.4133H29.0217C28.2301 25.4133 27.5862 26.0572 27.5862 26.8488V28.5459C27.1693 28.4149 26.7373 28.3192 26.2937 28.2603V24.5272C26.2938 23.7356 25.6499 23.0915 24.8583 23.0915ZM27.5863 38.3325H26.2938V36.9585H27.5863V38.3325ZM19.5463 25.1423H24.243V38.3324H22.933V33.2545C22.933 32.8015 22.7408 32.3668 22.4057 32.0616C22.0714 31.7576 21.6223 31.6072 21.1731 31.6497C20.6092 31.7029 20.0656 31.8173 19.5465 31.9825V25.1423H19.5463ZM20.8822 33.7579V38.9331L17.2307 42.5846C16.6389 41.7335 16.2723 40.7177 16.2221 39.6278C16.0898 36.7486 18.1042 34.2598 20.8822 33.7579ZM21.6376 45.0432C20.5478 44.993 19.5318 44.6265 18.6808 44.0346L22.3322 40.3831H27.5066C27.0024 43.1326 24.4988 45.1739 21.6376 45.0432ZM29.6371 27.464H34.3335V41.647H29.6371V36.9585H31.5617C31.9575 36.9585 32.3396 36.793 32.6105 36.5044C32.8797 36.2177 33.0198 35.8288 32.9952 35.4372C32.8402 32.9914 31.545 30.8523 29.6373 29.5439V27.464H29.6371ZM30.8679 34.9077H26.2938V30.3338C28.6131 30.7562 30.4454 32.5884 30.8679 34.9077Z" fill="#1B2B7C"/>
</g>
<defs>
<clipPath id="clip0_1422_2474">
<rect width="70" height="70" fill="white" transform="translate(0.333496)"/>
</clipPath>
</defs>
</svg>
