<svg width="70" height="70" viewBox="0 0 70 70" fill="none" xmlns="http://www.w3.org/2000/svg">
<g clip-path="url(#clip0_1422_1839)">
<path d="M67.6074 56.0416H65.8824V20.2344C65.8824 18.5355 64.5051 17.1582 62.8063 17.1582H45.3258C44.8157 16.3443 44.2068 15.5839 43.5009 14.8943C41.1376 12.5859 38.0186 11.3596 34.7073 11.4353C31.5786 11.509 28.6273 12.7809 26.3971 15.0167C25.7428 15.6728 25.174 16.3921 24.6918 17.1581H7.19373C5.49486 17.1581 4.11756 18.5354 4.11756 20.2343V26.4647C4.11756 27.0262 4.55027 27.5158 5.1115 27.5326C5.69215 27.5499 6.16834 27.0844 6.16834 26.5076V20.2344C6.16834 19.6681 6.62744 19.209 7.19373 19.209H23.6579C23.1495 20.5139 22.8663 21.9061 22.8361 23.3357C22.7717 26.3707 23.8321 29.3005 25.8218 31.5849C27.2219 33.1927 28.2732 35.1958 28.8686 37.3884C28.8999 37.5038 28.9149 37.6234 28.9149 37.743V44.8706C28.9149 48.2756 31.7014 51.1209 35.1058 51.0626C38.4125 51.0058 41.0849 48.2984 41.0849 44.9784V37.7344C41.0849 37.6204 41.0994 37.5068 41.128 37.3963C41.6801 35.2677 42.735 33.2793 44.2634 31.4861C44.9452 30.6861 45.5211 29.8013 45.9748 28.8557C46.2007 28.3852 46.0559 27.8026 45.6147 27.5234C45.0851 27.1882 44.3983 27.3971 44.1365 27.9462C43.7575 28.7408 43.275 29.4841 42.7025 30.1558C41.0844 32.0543 39.9324 34.155 39.274 36.4063H30.7207C30.0263 34.0896 28.875 31.9683 27.3682 30.2382C25.7143 28.3392 24.833 25.9034 24.8865 23.3793C24.9218 21.7136 25.3687 20.1077 26.1725 18.6785C26.1738 18.6759 26.1755 18.6735 26.177 18.6709C26.6263 17.8737 27.1853 17.1309 27.8492 16.4653C29.7046 14.6053 32.1575 13.5471 34.7558 13.486C37.5056 13.4181 40.1032 14.4427 42.0681 16.3617C42.7707 17.0479 43.358 17.8183 43.8259 18.6491C43.8434 18.6835 43.8622 18.7168 43.8834 18.7487C44.6884 20.2174 45.1162 21.8732 45.1162 23.599C45.1162 23.7539 45.1127 23.9099 45.1057 24.0631C45.0799 24.6288 45.5175 25.1083 46.0831 25.1343C46.649 25.1585 47.1285 24.7225 47.1543 24.1569C47.1628 23.9728 47.167 23.7851 47.167 23.5992C47.167 22.0712 46.8852 20.5901 46.3522 19.2096H62.8065C63.3728 19.2096 63.8319 19.6687 63.8319 20.2349V56.0421H20.347C19.7855 56.0421 19.2959 56.4748 19.2791 57.0361C19.2618 57.6167 19.7273 58.0929 20.3041 58.0929H25.9275V59.9802C25.9275 61.3016 26.9987 62.3728 28.3201 62.3728H41.6801C43.0015 62.3728 44.0727 61.3016 44.0727 59.9802V58.0929H67.6074C67.7962 58.0929 67.9492 58.2459 67.9492 58.4347V62.2091C67.9492 63.5305 66.878 64.6017 65.5566 64.6017H4.44336C3.12197 64.6017 2.05078 63.5305 2.05078 62.2091V58.4347C2.05078 58.2459 2.20377 58.0929 2.39258 58.0929H15.7922C16.3538 58.0929 16.8433 57.6602 16.8602 57.099C16.8775 56.5183 16.412 56.0421 15.8352 56.0421H6.16834V31.0199C6.16834 30.4584 5.73562 29.9688 5.17439 29.952C4.59375 29.9346 4.11756 30.4001 4.11756 30.9769V56.0421H2.39258C1.07119 56.0421 0 57.1133 0 58.4347V62.2091C0 64.6631 1.98939 66.6525 4.44336 66.6525H65.5566C68.0106 66.6525 70 64.6631 70 62.2091V58.4347C70 57.1128 68.9288 56.0416 67.6074 56.0416ZM30.9657 43.8213V42.1645H39.0343V43.8213H30.9657ZM39.0343 40.1136H30.9657V38.4568H39.0343V40.1136ZM35 49.0126C33.0827 49.0126 31.4746 47.6677 31.0667 45.8719H38.9333C38.5254 47.6677 36.9173 49.0126 35 49.0126ZM42.0217 59.9796C42.0217 60.1682 41.8685 60.3214 41.6799 60.3214H28.3199C28.1314 60.3214 27.9781 60.1682 27.9781 59.9796V58.0924H42.0217V59.9796Z" fill="#1B2B7C"/>
<path d="M35 8.89546C35.5664 8.89546 36.0254 8.4365 36.0254 7.87007V4.37335C36.0254 3.80693 35.5664 3.34796 35 3.34796C34.4336 3.34796 33.9746 3.80693 33.9746 4.37335V7.87007C33.9746 8.4365 34.4336 8.89546 35 8.89546Z" fill="#FB5472"/>
<path d="M23.3476 10.9067C23.5286 11.2627 23.8889 11.4678 24.2625 11.4678C24.4188 11.4678 24.5775 11.4319 24.7264 11.3564C25.2312 11.0998 25.4324 10.4825 25.1759 9.97759L23.5916 6.86027C23.3349 6.35564 22.7179 6.15439 22.2128 6.41074C21.7081 6.66736 21.5068 7.28464 21.7633 7.78955L23.3476 10.9067Z" fill="#FB5472"/>
<path d="M45.2735 11.3563C45.4224 11.4319 45.5809 11.4677 45.7374 11.4677C46.111 11.4677 46.4713 11.2626 46.6523 10.9066L48.2366 7.78927C48.4931 7.28436 48.2918 6.66708 47.787 6.41046C47.2824 6.15425 46.665 6.35522 46.4082 6.85999L44.8239 9.97731C44.5673 10.4825 44.7686 11.0998 45.2735 11.3563Z" fill="#FB5472"/>
<path d="M34.9999 16.4116C30.9145 16.4116 27.5908 19.7352 27.5908 23.8206C27.5908 27.9061 30.9146 31.2297 34.9999 31.2297C39.0852 31.2297 42.409 27.9059 42.409 23.8206C42.409 19.7353 39.0853 16.4116 34.9999 16.4116ZM34.9999 29.179C32.0454 29.179 29.6416 26.7753 29.6416 23.8208C29.6416 20.8663 32.0454 18.4625 34.9999 18.4625C37.9544 18.4625 40.3582 20.8663 40.3582 23.8208C40.3582 26.7753 37.9544 29.179 34.9999 29.179Z" fill="#FB5472"/>
<path d="M37.1449 21.7841L34.3582 24.571L32.8384 23.1185C32.4289 22.7273 31.7801 22.742 31.3886 23.1513C30.9973 23.5606 31.012 24.2098 31.4214 24.6011L33.666 26.746C33.8643 26.9357 34.1193 27.0301 34.3743 27.0301C34.6371 27.0301 34.8996 26.9298 35.0996 26.7299L38.5951 23.2344C38.9955 22.8338 38.9955 22.1847 38.5951 21.7842C38.1945 21.3838 37.5454 21.3838 37.1449 21.7841Z" fill="#FB5472"/>
</g>
<defs>
<clipPath id="clip0_1422_1839">
<rect width="70" height="70" fill="white"/>
</clipPath>
</defs>
</svg>
