<svg width="71" height="70" viewBox="0 0 71 70" fill="none" xmlns="http://www.w3.org/2000/svg">
<g clip-path="url(#clip0_1422_2463)">
<path d="M4.78431 57.5582H3.05933C1.74013 57.5582 0.666748 58.6315 0.666748 59.9507V63.7251C0.666748 66.1753 2.66011 68.1685 5.11011 68.1685H66.2234C68.6735 68.1685 70.6667 66.1753 70.6667 63.7251V59.9507C70.6667 58.6315 69.5934 57.5582 68.2742 57.5582H66.5492V21.751C66.5492 20.0549 65.1692 18.6748 63.473 18.6748H45.9052C45.2357 12.3894 42.1676 6.54376 37.202 2.38942C36.3125 1.64553 35.021 1.64526 34.1317 2.38956C29.166 6.54389 26.0979 12.3894 25.4284 18.6748H7.86048C6.16421 18.6748 4.78431 20.0549 4.78431 21.751V28.0243C4.78431 28.5907 5.24341 29.0497 5.8097 29.0497C6.37599 29.0497 6.83509 28.5907 6.83509 28.0243V21.751C6.83509 21.1855 7.29501 20.7256 7.86048 20.7256H25.2983C25.2731 21.8291 25.3189 22.9413 25.4437 24.0565L26.2698 31.4372L16.9975 43.3904C16.5946 43.9098 16.5239 44.5993 16.8131 45.1896C17.1024 45.78 17.6904 46.1468 18.3479 46.1468H24.354V46.907C21.6097 47.1194 19.0173 48.1795 16.9096 49.9598C15.2 49.1758 13.3199 48.764 11.429 48.764C9.86013 48.764 8.29825 49.0484 6.83509 49.5929V32.493C6.83509 31.9265 6.37599 31.4676 5.8097 31.4676C5.24341 31.4676 4.78431 31.9265 4.78431 32.493V57.5582ZM63.473 20.7256C64.0385 20.7256 64.4984 21.1855 64.4984 21.751V49.5928C63.0352 49.0484 61.4734 48.7639 59.9045 48.7639C58.0136 48.7639 56.1334 49.1757 54.4237 49.9596C52.3161 48.1794 49.7236 47.1194 46.9794 46.9068V46.1467H52.9856C53.6431 46.1467 54.231 45.7799 54.5204 45.1896C54.8096 44.5993 54.739 43.9098 54.336 43.3903L51.1224 39.2477C50.7753 38.8001 50.131 38.719 49.6838 39.066C49.2364 39.4131 49.155 40.0572 49.5021 40.5046L52.2879 44.0959H46.9795V42.5089C46.9795 40.7288 45.8431 39.2094 44.2579 38.6373L44.7365 34.361L46.7926 37.0115C46.9946 37.2721 47.2974 37.4084 47.6035 37.4084C47.8232 37.4084 48.0444 37.3382 48.2313 37.1932C48.6788 36.8462 48.7602 36.202 48.413 35.7547L45.0638 31.4371L45.8899 24.0565C46.0147 22.9413 46.0607 21.8289 46.0354 20.7256H63.473ZM42.8646 40.4448C44.0026 40.4448 44.9286 41.3707 44.9286 42.509V49.0794H40.8005V42.509C40.8005 41.3707 41.7264 40.4448 42.8646 40.4448ZM35.4474 3.96251C35.5745 3.85614 35.7588 3.856 35.886 3.96237C41.7198 8.84309 44.6976 16.2698 43.8517 23.8286L42.2157 38.4457C40.2541 38.7578 38.7496 40.4608 38.7496 42.509V46.5308H32.5836V42.509C32.5836 40.4608 31.0793 38.7578 29.1175 38.4457L27.4817 23.8286C26.6358 16.2695 29.6137 8.84296 35.4474 3.96251ZM35.6667 51.8351C34.796 50.7411 33.7512 49.7856 32.5837 49.0174V48.5814H38.7498V49.0174C37.5823 49.7856 36.5376 50.7411 35.6667 51.8351ZM26.4047 42.5089C26.4047 41.3707 27.3307 40.4447 28.4689 40.4447C29.6071 40.4447 30.533 41.3705 30.533 42.5089V49.0793H26.4047V42.5089ZM19.0457 44.096L26.5971 34.3614L27.0756 38.6374C25.4904 39.2097 24.3541 40.7289 24.3541 42.509V44.096H19.0457ZM68.616 63.7253C68.616 65.0446 67.5426 66.1179 66.2234 66.1179H5.11011C3.79091 66.1179 2.71753 65.0446 2.71753 63.7253V59.9509C2.71753 59.7623 2.87093 59.6091 3.05933 59.6091H16.5019C17.0682 59.6091 17.5273 59.1501 17.5273 58.5837C17.5273 58.0173 17.0682 57.5583 16.5019 57.5583H6.83509V51.81C8.26872 51.1578 9.84427 50.8148 11.429 50.8148C13.2286 50.8148 15.0159 51.2563 16.5976 52.0913C16.7487 52.1712 16.913 52.21 17.0761 52.21C17.3318 52.21 17.5846 52.1146 17.7794 51.9311C19.5935 50.2227 21.8975 49.1893 24.354 48.9636V49.4212C24.354 50.3636 25.1205 51.1302 26.0629 51.1302H30.8748C31.1809 51.1302 31.4677 51.0483 31.7165 50.9068C32.9463 51.7668 34.0026 52.8768 34.7964 54.1511C35.1893 54.7836 36.1439 54.7831 36.5371 54.1513C37.331 52.8769 38.3873 51.7668 39.617 50.9068C39.8657 51.0483 40.1526 51.1302 40.4587 51.1302H45.2704C46.2128 51.1302 46.9794 50.3636 46.9794 49.4212V48.9636C49.436 49.1893 51.74 50.2227 53.5541 51.9312C53.7489 52.1147 54.0016 52.2101 54.2574 52.2101C54.4205 52.2101 54.5849 52.1713 54.7359 52.0915C56.3176 51.2564 58.105 50.8149 59.9047 50.8149C61.5137 50.8149 63.056 51.1498 64.4985 51.8093V57.5584H20.9707C20.4044 57.5584 19.9453 58.0174 19.9453 58.5838C19.9453 59.1503 20.4044 59.6092 20.9707 59.6092H26.5941V61.4965C26.5941 62.8157 27.6675 63.8891 28.9867 63.8891H42.3467C43.6659 63.8891 44.7393 62.8157 44.7393 61.4965V59.6092H68.2742C68.4627 59.6092 68.616 59.7625 68.616 59.951V63.7253ZM28.645 59.609H42.6886V61.4962C42.6886 61.6848 42.5354 61.838 42.3468 61.838H28.9868C28.7984 61.838 28.645 61.6848 28.645 61.4962V59.609Z" fill="#1B2B7C"/>
<path d="M35.6667 23.8253C38.68 23.8253 41.1316 21.3738 41.1316 18.3605C41.1316 15.3472 38.68 12.8957 35.6667 12.8957C32.6534 12.8957 30.2019 15.3474 30.2019 18.3606C30.2019 21.3739 32.6534 23.8253 35.6667 23.8253ZM35.6667 14.9465C37.5492 14.9465 39.0808 16.478 39.0808 18.3606C39.0808 20.2431 37.5493 21.7746 35.6667 21.7746C33.7842 21.7746 32.2527 20.2431 32.2527 18.3606C32.2527 16.478 33.7842 14.9465 35.6667 14.9465Z" fill="#FB5472"/>
</g>
<defs>
<clipPath id="clip0_1422_2463">
<rect width="70" height="70" fill="white" transform="translate(0.666748)"/>
</clipPath>
</defs>
</svg>
