<svg width="70" height="70" viewBox="0 0 70 70" fill="none" xmlns="http://www.w3.org/2000/svg">
<path d="M65.092 34.8824C65.6583 34.8824 66.1174 34.4235 66.1174 33.857V25.7733C66.1174 25.2068 65.6583 24.7479 65.092 24.7479C64.5258 24.7479 64.0667 25.2068 64.0667 25.7733V33.857C64.0667 34.4233 64.5258 34.8824 65.092 34.8824Z" fill="#FB5472"/>
<path fill-rule="evenodd" clip-rule="evenodd" d="M65.5566 1.1517H4.44336C1.99336 1.1517 0 3.14493 0 5.59506V54.0353C0 56.4855 1.99336 58.4787 4.44336 58.4787H10.0818C10.6481 58.4787 11.1072 58.0197 11.1072 57.4533C11.1072 56.8869 10.6481 56.4279 10.0818 56.4279H4.44336C3.12416 56.4279 2.05078 55.3545 2.05078 54.0353V5.59506C2.05078 4.27586 3.12416 3.20248 4.44336 3.20248H65.5566C66.8758 3.20248 67.9492 4.27586 67.9492 5.59506V21.1779C67.1438 20.599 66.1574 20.2566 65.0921 20.2566C64.0268 20.2566 63.0403 20.5988 62.2351 21.1777V7.93063C62.2351 6.61143 61.1617 5.53805 59.8425 5.53805H47.9279C47.3616 5.53805 46.9025 5.99701 46.9025 6.56344C46.9025 7.12987 47.3616 7.58883 47.9279 7.58883H59.8425C60.0309 7.58883 60.1843 7.74209 60.1843 7.93063V51.6996C60.1843 51.8882 60.0309 52.0414 59.8425 52.0414H48.8421V45.3139C48.8421 43.3051 47.2078 41.6708 45.1989 41.6708C44.7933 41.6708 44.3923 41.7382 44.0061 41.8717C43.6637 41.9903 43.3475 42.1568 43.0639 42.362C42.4214 41.3235 41.272 40.6303 39.9636 40.6303C39.5935 40.6303 39.2371 40.6879 38.9003 40.7908C40.9713 38.4573 42.1348 35.4337 42.1348 32.2786C42.1348 25.208 36.3825 19.4559 29.3121 19.4559C23.17 19.4559 17.8738 23.8277 16.7191 29.8509C16.6124 30.4071 16.9768 30.9444 17.5331 31.051C18.0886 31.1564 18.6266 30.793 18.7332 30.237C19.7031 25.1782 24.1522 21.5067 29.3122 21.5067C35.252 21.5067 40.0842 26.339 40.0842 32.2786C40.0842 35.2669 38.8419 38.1151 36.6648 40.15C36.1033 39.7961 35.4397 39.5899 34.7282 39.5899C34.1575 39.5899 33.6172 39.7218 33.136 39.9567V39.4336L33.1358 36.9803V32.3662C33.1358 30.3574 31.5015 28.7232 29.4927 28.7232C27.4839 28.7232 25.8497 30.3574 25.8497 32.3662V37.2558L25.8498 39.6168V42.4807C22.2644 41.2622 19.5255 38.1959 18.759 34.4508C18.6456 33.896 18.1032 33.5387 17.5489 33.6518C16.9941 33.7653 16.6363 34.3071 16.75 34.862C17.7088 39.5477 21.2603 43.3415 25.8498 44.6272V45.6954L24.2715 46.1119C23.2669 46.377 22.5214 47.2128 22.3721 48.2411L21.8204 52.0416H6.77906C6.59066 52.0416 6.43727 51.8883 6.43727 51.6998V7.93063C6.43727 7.74209 6.59066 7.58883 6.77906 7.58883H43.4589C44.0252 7.58883 44.4843 7.12987 44.4843 6.56344C44.4843 5.99701 44.0252 5.53805 43.4589 5.53805H6.77906C5.45986 5.53805 4.38648 6.61143 4.38648 7.93063V51.6996C4.38648 53.0188 5.45986 54.0922 6.77906 54.0922H21.5227L21.1955 56.3461C21.1932 56.362 21.1917 56.3778 21.1902 56.3937C21.1892 56.4051 21.1881 56.4165 21.1868 56.4279H14.5506C13.9843 56.4279 13.5252 56.8869 13.5252 57.4533C13.5252 58.0197 13.9843 58.4787 14.5506 58.4787H21.5376C21.8325 59.0729 22.2887 59.5879 22.8773 59.9517L27.6824 62.9229V66.8038C27.6824 67.9311 28.5996 68.8484 29.727 68.8484H42.7283C43.8558 68.8484 44.7731 67.9311 44.7731 66.8038V63.4019L47.0306 61.8149C48.1234 61.0467 48.79 59.808 48.8376 58.4787H65.5566C68.0066 58.4787 70 56.4855 70 54.0353V5.59506C70 3.14493 68.0066 1.1517 65.5566 1.1517ZM46.7913 58.3268C46.7913 59.0465 46.4398 59.7232 45.8511 60.1371L43.158 62.0305C42.885 62.2225 42.7224 62.5354 42.7224 62.8694L42.7284 66.7976L29.7333 66.8038V62.3514C29.7333 61.9961 29.5494 61.666 29.2471 61.4793L23.956 58.2076C23.4218 57.8773 23.135 57.2623 23.2252 56.6408L24.4016 48.5355C24.4325 48.3227 24.5868 48.1497 24.7948 48.0948L25.8498 47.8163V53.8849C25.8498 54.4514 26.3089 54.9103 26.8752 54.9103C27.4415 54.9103 27.9006 54.4514 27.9006 53.8849V46.485V32.3662C27.9006 31.4882 28.615 30.774 29.4928 30.774C30.3708 30.774 31.0852 31.4884 31.0852 32.3662V43.2329C31.0852 43.7993 31.5443 44.2583 32.1106 44.2583C32.6769 44.2583 33.136 43.7993 33.136 43.2329C33.136 42.3549 33.8503 41.6405 34.7282 41.6405C35.6061 41.6405 36.3206 42.3549 36.3206 43.2329V44.2733C36.3206 44.8398 36.7797 45.2987 37.346 45.2987C37.9122 45.2987 38.3713 44.8398 38.3713 44.2733C38.3713 43.3953 39.0857 42.6811 39.9637 42.6811C40.8417 42.6811 41.5561 43.3955 41.5561 44.2733V45.3138C41.5561 45.8802 42.0152 46.3392 42.5815 46.3392C43.1478 46.3392 43.6069 45.8802 43.6069 45.3138C43.6069 44.6359 44.0372 44.0312 44.6767 43.8096C44.8438 43.7519 45.0244 43.7214 45.1991 43.7214C46.0771 43.7214 46.7914 44.4358 46.7914 45.3138L46.7913 58.3268ZM65.0921 22.3074C66.6675 22.3074 67.9492 23.5892 67.9492 25.1644V34.4657C67.9492 36.041 66.6675 37.3227 65.0921 37.3227C63.5167 37.3227 62.2351 36.041 62.2351 34.4657V25.1644C62.2351 23.5892 63.5167 22.3074 65.0921 22.3074ZM65.5566 56.4278H48.8421V54.0921H59.8425C61.1617 54.0921 62.2351 53.0187 62.2351 51.6995V38.4524C63.0405 39.0313 64.0268 39.3735 65.0921 39.3735C66.1574 39.3735 67.1438 39.0311 67.9492 38.4523V54.0351C67.9492 55.3545 66.8758 56.4278 65.5566 56.4278Z" fill="#1B2B7C"/>
<path d="M37.4249 32.2788C37.4249 27.8055 33.7856 24.1661 29.3123 24.1661C24.839 24.1661 21.1997 27.8055 21.1997 32.2788C21.1997 35.1773 22.7301 37.8129 25.1764 39.2599V36.7128C23.9687 35.5874 23.2504 33.9948 23.2504 32.2786C23.2504 28.9361 25.9697 26.2168 29.3122 26.2168C32.6547 26.2168 35.374 28.9361 35.374 32.2786C35.374 33.83 34.7718 35.3 33.7484 36.4047V39.0697C36.012 37.5852 37.4249 35.0278 37.4249 32.2788Z" fill="#FB5472"/>
</svg>
