<svg width="51" height="51" viewBox="0 0 51 51" fill="none" xmlns="http://www.w3.org/2000/svg">
<g clip-path="url(#clip0_1422_2106)">
<path d="M48.3744 35.5976H47.1422V10.021C47.1422 8.80938 46.1566 7.82373 44.945 7.82373H35.8592C35.4547 7.82373 35.1268 8.15166 35.1268 8.55615C35.1268 8.96064 35.4547 9.28857 35.8592 9.28857H44.945C45.3489 9.28857 45.6774 9.61709 45.6774 10.021V35.5976H13.76C13.3555 35.5976 13.0276 35.9255 13.0276 36.33C13.0276 36.7345 13.3555 37.0624 13.76 37.0624H18.6029V38.4104C18.6029 39.3528 19.3696 40.1194 20.3119 40.1194H29.8547C30.797 40.1194 31.5637 39.3528 31.5637 38.4104V37.0624H48.3744C48.5089 37.0624 48.6185 37.172 48.6185 37.3065V40.0025C48.6185 40.9448 47.8518 41.7115 46.9095 41.7115H39.6509C39.2464 41.7115 38.9185 42.0395 38.9185 42.4439C38.9185 42.8484 39.2464 43.1764 39.6509 43.1764H46.9095C48.6595 43.1764 50.0834 41.7525 50.0834 40.0025V37.3065C50.0834 36.3643 49.3167 35.5976 48.3744 35.5976ZM30.0989 38.4104C30.0989 38.5451 29.9893 38.6546 29.8547 38.6546H20.3119C20.1773 38.6546 20.0677 38.5451 20.0677 38.4104V37.0624H30.0989V38.4104Z" fill="#1B2B7C"/>
<path d="M36.4591 41.7116H3.25732C2.31504 41.7116 1.54834 40.9449 1.54834 40.0026V37.3066C1.54834 37.1721 1.65791 37.0625 1.79248 37.0625H10.5682C10.9727 37.0625 11.3006 36.7346 11.3006 36.3301C11.3006 35.9256 10.9727 35.5977 10.5682 35.5977H4.48945V10.021C4.48945 9.61709 4.81807 9.28857 5.22187 9.28857H32.6673C33.0718 9.28857 33.3997 8.96064 33.3997 8.55615C33.3997 8.15166 33.0718 7.82373 32.6673 7.82373H5.22187C4.01025 7.82373 3.02461 8.80938 3.02461 10.021V35.5976H1.79248C0.850195 35.5976 0.0834961 36.3643 0.0834961 37.3065V40.0025C0.0834961 41.7525 1.50732 43.1764 3.25732 43.1764H36.4591C36.8636 43.1764 37.1915 42.8484 37.1915 42.4439C37.1915 42.0396 36.8636 41.7116 36.4591 41.7116Z" fill="#1B2B7C"/>
<path d="M38.7333 31.4084C39.3925 31.4084 39.9286 30.8722 39.9286 30.2131V13.3767C39.9286 12.7176 39.3924 12.1814 38.7333 12.1814H27.4547C26.4251 12.1814 25.5074 12.6667 24.9164 13.4199C24.3253 12.6667 23.4076 12.1814 22.3781 12.1814H11.0994C10.4403 12.1814 9.90405 12.7176 9.90405 13.3767V21.4343C9.90405 21.8142 10.2119 22.122 10.5918 22.122C10.9716 22.122 11.2795 21.8142 11.2795 21.4343V13.5568H22.3781C23.3985 13.5568 24.2287 14.387 24.2287 15.4074V21.2279C24.2287 21.2279 24.6455 21.1362 24.9164 21.1362C25.1874 21.1362 25.6042 21.2279 25.6042 21.2279V15.4075C25.6041 14.387 26.4343 13.5568 27.4547 13.5568H38.5533V30.0331H25.6041V23.7237C25.6041 23.7237 25.1873 23.632 24.9164 23.632C24.6454 23.632 24.2287 23.7237 24.2287 23.7237V30.0331H11.2795V24.4314C11.2795 24.0516 10.9716 23.7437 10.5918 23.7437C10.2119 23.7437 9.90405 24.0516 9.90405 24.4314V30.2132C9.90405 30.8723 10.4403 31.4085 11.0994 31.4085H38.7333V31.4084Z" fill="#1B2B7C"/>
<path fill-rule="evenodd" clip-rule="evenodd" d="M24.2286 21.8404C23.7877 21.9277 23.3672 22.0972 22.9903 22.3401C22.345 21.4418 21.292 20.855 20.104 20.855C19.5721 20.855 19.0677 20.9732 18.6144 21.1835V16.9247H19.2468C19.6267 16.9247 19.9345 16.6169 19.9345 16.237C19.9345 15.8571 19.6267 15.5493 19.2468 15.5493H18.3851C17.7531 15.5493 17.239 16.0635 17.239 16.6955V22.3101C16.8071 22.8984 16.5513 23.6236 16.5513 24.4077C16.5513 26.3666 18.145 27.9605 20.104 27.9605C22.0629 27.9605 23.6566 26.3666 23.6566 24.4077C23.6566 24.1358 23.6249 23.8714 23.5668 23.6169C23.7657 23.46 23.9898 23.3393 24.2286 23.2596C24.2286 23.2596 24.6454 23.1675 24.9163 23.1673C25.1872 23.1671 25.604 23.2584 25.604 23.2584C25.8427 23.3376 26.0662 23.4582 26.266 23.6166C26.2078 23.8713 26.1761 24.1357 26.1761 24.4078C26.1761 26.3667 27.7698 27.9606 29.7288 27.9606C31.6878 27.9606 33.2815 26.3667 33.2815 24.4078C33.2815 23.6237 33.0257 22.8985 32.5938 22.3102V16.6956C32.5938 16.0635 32.0797 15.5494 31.4476 15.5494H30.586C30.2061 15.5494 29.8982 15.8573 29.8982 16.2371C29.8982 16.617 30.2061 16.9248 30.586 16.9248H31.2184V21.1836C30.765 20.9733 30.2606 20.8551 29.7288 20.8551C28.5411 20.8551 27.4883 21.4416 26.843 22.3394C26.4653 22.0946 26.0464 21.9247 25.6041 21.8384C25.6041 21.8384 25.1873 21.7474 24.9164 21.7477C24.6454 21.7481 24.2286 21.8404 24.2286 21.8404ZM17.9267 24.4077C17.9267 25.6083 18.9034 26.5851 20.104 26.5851C21.3044 26.5851 22.2812 25.6082 22.2812 24.4077C22.2812 23.2071 21.3045 22.2304 20.104 22.2304C18.9034 22.2304 17.9267 23.2071 17.9267 24.4077ZM29.7287 26.5851C30.9293 26.5851 31.906 25.6083 31.906 24.4077C31.906 23.2071 30.9293 22.2304 29.7287 22.2304C28.5282 22.2304 27.5514 23.2071 27.5514 24.4077C27.5514 25.6083 28.5282 26.5851 29.7287 26.5851Z" fill="#FB5472"/>
</g>
<defs>
<clipPath id="clip0_1422_2106">
<rect width="50" height="50" fill="white" transform="translate(0.0834961 0.5)"/>
</clipPath>
</defs>
</svg>
