<svg width="51" height="51" viewBox="0 0 51 51" fill="none" xmlns="http://www.w3.org/2000/svg">
<g clip-path="url(#clip0_1422_2285)">
<path d="M48.4576 35.5976H47.2255V10.021C47.2255 8.80938 46.2398 7.82373 45.0282 7.82373H35.9425C35.538 7.82373 35.2101 8.15166 35.2101 8.55615C35.2101 8.96064 35.538 9.28857 35.9425 9.28857H45.0282C45.4321 9.28857 45.7606 9.61709 45.7606 10.021V35.5976H13.8433C13.4388 35.5976 13.1108 35.9255 13.1108 36.33C13.1108 36.7345 13.4388 37.0624 13.8433 37.0624H18.6861V38.4104C18.6861 39.3528 19.4528 40.1194 20.3951 40.1194H29.938C30.8803 40.1194 31.647 39.3528 31.647 38.4104V37.0624H48.4576C48.5922 37.0624 48.7018 37.172 48.7018 37.3065V40.0025C48.7018 40.9448 47.9351 41.7115 46.9928 41.7115H39.7342C39.3297 41.7115 39.0018 42.0395 39.0018 42.4439C39.0018 42.8484 39.3297 43.1764 39.7342 43.1764H46.9928C48.7428 43.1764 50.1666 41.7525 50.1666 40.0025V37.3065C50.1666 36.3643 49.3999 35.5976 48.4576 35.5976ZM30.1821 38.4104C30.1821 38.5451 30.0726 38.6546 29.938 38.6546H20.3951C20.2605 38.6546 20.151 38.5451 20.151 38.4104V37.0624H30.1821V38.4104Z" fill="#1B2B7C"/>
<path d="M36.5423 41.7116H3.34058C2.39829 41.7116 1.63159 40.9449 1.63159 40.0026V37.3066C1.63159 37.1721 1.74116 37.0625 1.87573 37.0625H10.6514C11.0559 37.0625 11.3838 36.7346 11.3838 36.3301C11.3838 35.9256 11.0559 35.5977 10.6514 35.5977H4.5727V10.021C4.5727 9.61709 4.90132 9.28857 5.30513 9.28857H32.7505C33.155 9.28857 33.483 8.96064 33.483 8.55615C33.483 8.15166 33.155 7.82373 32.7505 7.82373H5.30513C4.09351 7.82373 3.10786 8.80938 3.10786 10.021V35.5976H1.87573C0.933447 35.5976 0.166748 36.3643 0.166748 37.3065V40.0025C0.166748 41.7525 1.59058 43.1764 3.34058 43.1764H36.5423C36.9468 43.1764 37.2748 42.8484 37.2748 42.4439C37.2748 42.0396 36.9468 41.7116 36.5423 41.7116Z" fill="#1B2B7C"/>
<path d="M14.5738 12.2667C13.9247 12.2246 13.2888 12.4643 12.829 12.9242C12.3691 13.384 12.1295 14.02 12.1715 14.6689C12.2135 15.3178 12.5331 15.9176 13.0491 16.3148L13.0543 16.3188C13.0586 16.3222 13.0718 16.3323 13.0718 16.3561C13.0718 16.3798 13.0586 16.3899 13.0551 16.3927L13.0484 16.3978C12.5331 16.7945 12.2135 17.3942 12.1715 18.0432C12.1295 18.6921 12.3691 19.3281 12.829 19.788C13.2888 20.2478 13.9248 20.487 14.5738 20.4454C15.2227 20.4034 15.8224 20.0837 16.2157 19.5729L16.2237 19.5626C16.227 19.5583 16.2371 19.5452 16.2608 19.5452C16.2834 19.5452 16.2936 19.557 16.2937 19.557C16.2937 19.557 16.2937 19.5569 16.2936 19.5568L16.2954 19.5592C16.2977 19.5624 16.3002 19.5655 16.3026 19.5686C16.6993 20.0838 17.299 20.4035 17.948 20.4454C17.9968 20.4486 18.0456 20.4502 18.0941 20.4502C18.6915 20.4502 19.2675 20.2132 19.6928 19.788C20.1526 19.3281 20.3922 18.6921 20.3502 18.0432C20.3082 17.3942 19.9886 16.7945 19.4733 16.3978V16.3979L19.4674 16.3933C19.4631 16.3899 19.45 16.3798 19.45 16.3561C19.45 16.3324 19.4632 16.3222 19.4667 16.3195L19.4734 16.3144C19.9887 15.9176 20.3083 15.3179 20.3503 14.6689C20.3922 14.02 20.1527 13.3841 19.6928 12.9242C19.233 12.4644 18.5968 12.2245 17.9481 12.2668C17.299 12.3088 16.6994 12.6284 16.3026 13.1436C16.3011 13.1455 16.2994 13.1477 16.2981 13.1496C16.2947 13.1539 16.2846 13.167 16.2609 13.167C16.2385 13.167 16.2281 13.1552 16.2281 13.1552C16.2281 13.1552 16.2281 13.1553 16.2282 13.1553L16.2193 13.1436C15.8225 12.6283 15.2228 12.3087 14.5738 12.2667ZM16.2609 14.2822C16.6247 14.2822 16.9601 14.1175 17.1818 13.8299C17.1822 13.8294 17.186 13.8244 17.1864 13.8239C17.3874 13.5628 17.6913 13.4008 18.0202 13.3795C18.3494 13.3582 18.6713 13.4797 18.9043 13.7127C19.1373 13.9456 19.2587 14.2679 19.2374 14.5967C19.2161 14.9256 19.0541 15.2295 18.7936 15.4301L18.7867 15.4354C18.4995 15.6567 18.3348 15.9923 18.3348 16.356C18.3348 16.7195 18.4994 17.055 18.7892 17.2784C18.7904 17.2794 18.7917 17.2804 18.793 17.2814C19.0541 17.4823 19.216 17.7862 19.2374 18.115C19.2586 18.4438 19.1372 18.7661 18.9043 18.9991C18.6712 19.232 18.3483 19.3535 18.0201 19.3322C17.6913 19.3108 17.3874 19.1489 17.1906 18.8934L17.1816 18.8815C16.9602 18.5943 16.6246 18.4295 16.2608 18.4296C15.8971 18.4296 15.5617 18.5944 15.3403 18.8815C15.3389 18.8835 15.3369 18.8859 15.3355 18.8878C15.1345 19.1489 14.8306 19.3108 14.5018 19.3322C14.1731 19.3534 13.8507 19.232 13.6177 18.9991C13.3847 18.7661 13.2633 18.4438 13.2846 18.115C13.3059 17.7862 13.4679 17.4823 13.7289 17.2814C13.729 17.2813 13.7352 17.2765 13.7353 17.2764C14.0225 17.0551 14.1873 16.7195 14.1873 16.3559C14.1873 15.9921 14.0225 15.6567 13.7344 15.4346L13.7289 15.4304C13.4678 15.2294 13.3059 14.9255 13.2846 14.5967C13.2633 14.2679 13.3848 13.9456 13.6176 13.7126C13.8331 13.4971 14.125 13.377 14.4277 13.377C14.4523 13.377 14.4771 13.3779 14.5018 13.3794C14.8306 13.4008 15.1345 13.5627 15.3354 13.8238C15.3355 13.8238 15.3403 13.8299 15.3403 13.8301C15.5617 14.1175 15.8972 14.2822 16.2609 14.2822Z" fill="#FB5472"/>
<path d="M36.5857 26.1991L36.5924 26.194C37.1077 25.7972 37.4273 25.1976 37.4693 24.5486C37.5112 23.8996 37.2717 23.2638 36.8119 22.8039C36.352 22.344 35.7154 22.1043 35.067 22.1464C34.418 22.1884 33.8184 22.508 33.425 23.0189C33.4221 23.0228 33.4191 23.0266 33.4161 23.0305C33.412 23.0357 33.4016 23.0466 33.38 23.0466C33.3575 23.0466 33.3472 23.0348 33.3471 23.0348C33.3471 23.0348 33.3471 23.0348 33.3472 23.0349L33.3383 23.0232C32.9415 22.5079 32.3418 22.1882 31.6927 22.1463C31.0437 22.1044 30.4079 22.3439 29.9482 22.8038C29.4882 23.2636 29.2487 23.8996 29.2906 24.5485C29.3326 25.1974 29.6522 25.7972 30.1631 26.1905L30.1734 26.1984C30.1777 26.2018 30.1909 26.2119 30.1909 26.2356C30.1909 26.2593 30.1777 26.2695 30.1734 26.2728H30.1735L30.1675 26.2773C29.6522 26.6741 29.3326 27.2738 29.2906 27.9228C29.2487 28.5717 29.4882 29.2077 29.9481 29.6675C30.408 30.1274 31.0435 30.3663 31.6928 30.325C32.3418 30.283 32.9415 29.9633 33.3427 29.4422C33.3461 29.4379 33.3562 29.4247 33.38 29.4247C33.4024 29.4247 33.4126 29.4365 33.4128 29.4365C33.4128 29.4365 33.4128 29.4364 33.4127 29.4364L33.4217 29.4481C33.8184 29.9634 34.418 30.2831 35.067 30.325C35.1158 30.3282 35.1645 30.3298 35.2132 30.3298C35.8106 30.3297 36.3865 30.0928 36.8119 29.6676C37.2717 29.2077 37.5112 28.5718 37.4693 27.9229C37.4273 27.2739 37.1077 26.6742 36.5924 26.2775L36.5865 26.2729C36.5821 26.2695 36.5691 26.2594 36.569 26.2357C36.569 26.212 36.5822 26.2019 36.5857 26.1991ZM35.9082 27.1583C35.9095 27.1592 35.9107 27.1602 35.912 27.1612C36.1731 27.3622 36.335 27.6661 36.3563 27.9949C36.3776 28.3237 36.2561 28.6459 36.0233 28.879C35.7902 29.112 35.4672 29.2336 35.1391 29.2121C34.8103 29.1907 34.5064 29.0288 34.3055 28.7677C34.3054 28.7677 34.3006 28.7615 34.3006 28.7614C34.0792 28.4743 33.7438 28.3095 33.3801 28.3095C33.38 28.3095 33.3801 28.3095 33.38 28.3095C33.0163 28.3095 32.6808 28.4742 32.4561 28.7656C32.4554 28.7665 32.4544 28.768 32.4532 28.7696C32.2521 29.0296 31.9488 29.1909 31.6208 29.2121C31.2914 29.2336 30.9697 29.112 30.7367 28.879C30.5038 28.646 30.3823 28.3238 30.4036 27.995C30.4248 27.6677 30.5853 27.3651 30.8485 27.1607C30.8505 27.1592 30.8524 27.1578 30.8543 27.1563C31.1415 26.9349 31.3062 26.5994 31.3062 26.2357C31.3061 25.872 31.1414 25.5365 30.8542 25.3151C30.8541 25.315 30.8479 25.3103 30.8479 25.3102C30.5868 25.1092 30.4248 24.8054 30.4035 24.4766C30.3823 24.1478 30.5038 23.8255 30.7367 23.5925C30.9697 23.3595 31.2924 23.2379 31.6207 23.2593C31.9496 23.2806 32.2534 23.4425 32.4502 23.6981L32.4593 23.71C32.6807 23.9973 33.0162 24.162 33.3798 24.162H33.3799C33.7436 24.162 34.0791 23.9973 34.3005 23.7101C34.3029 23.7069 34.3053 23.7037 34.3078 23.7005L34.3055 23.7037C34.5064 23.4426 34.8103 23.2806 35.1391 23.2593C35.4669 23.2376 35.7902 23.3595 36.0232 23.5925C36.2562 23.8254 36.3776 24.1477 36.3563 24.4765C36.335 24.8053 36.173 25.1092 35.9125 25.3098L35.9056 25.315C35.6184 25.5364 35.4536 25.872 35.4536 26.2357C35.4538 26.5994 35.6185 26.9349 35.9082 27.1583Z" fill="#FB5472"/>
<path d="M24.6156 21.6382C24.8221 21.4097 24.8041 21.0571 24.5756 20.8506C24.3472 20.6443 23.9946 20.662 23.788 20.8907L18.8511 26.3568C18.6132 26.6202 18.4694 26.9363 18.418 27.2636C17.969 27.1505 17.4908 27.1511 17.0202 27.2772C16.0508 27.5369 15.317 28.2707 15.0573 29.24L14.2295 32.3293C14.1426 32.6538 14.2325 32.9895 14.4701 33.227C14.648 33.4049 14.8809 33.5 15.123 33.5C15.2041 33.5 15.2863 33.4893 15.3678 33.4676L18.4571 32.6398C19.4264 32.3801 20.1601 31.6463 20.4199 30.677C20.546 30.2059 20.5466 29.7273 20.4332 29.278C20.7605 29.2266 21.0769 29.0838 21.3403 28.8459L34.6049 16.8655C35.1537 16.3699 35.4662 15.6898 35.485 14.9506C35.5037 14.2115 35.2261 13.5165 34.7032 12.9937C34.1804 12.4709 33.4866 12.1935 32.7462 12.2121C32.007 12.2309 31.327 12.5434 30.8315 13.0922L25.419 19.0848C25.2126 19.3134 25.2306 19.6659 25.459 19.8724C25.6875 20.0788 26.0402 20.0611 26.2467 19.8323L27.6803 18.245L29.452 20.0167L20.5927 28.0182C20.3371 28.2493 19.9456 28.2394 19.7017 27.9958C19.7016 27.9957 19.7015 27.9956 19.7015 27.9956C19.7014 27.9955 19.7013 27.9954 19.7012 27.9953C19.4576 27.7515 19.4477 27.3602 19.6788 27.1044L24.6156 21.6382ZM31.6593 13.8397C31.948 13.52 32.344 13.3379 32.7746 13.327C33.2059 13.3171 33.6101 13.4778 33.9148 13.7823C34.2193 14.0869 34.381 14.4917 34.3701 14.9223C34.3592 15.3529 34.177 15.7491 33.8574 16.0378L32.2802 17.4622L30.2347 15.4168L31.6593 13.8397ZM28.4289 17.4163L29.4862 16.2457L31.4514 18.2108L30.2808 19.2681L28.4289 17.4163ZM19.3426 30.3883C19.1872 30.9682 18.7482 31.4071 18.1684 31.5625L15.3901 32.307L16.1346 29.5287C16.29 28.9489 16.7289 28.5099 17.3088 28.3545C17.8887 28.1991 18.4884 28.3598 18.9128 28.7843C19.3373 29.2087 19.498 29.8084 19.3426 30.3883Z" fill="#1B2B7C"/>
</g>
<defs>
<clipPath id="clip0_1422_2285">
<rect width="50" height="50" fill="white" transform="translate(0.166748 0.5)"/>
</clipPath>
</defs>
</svg>
