<svg width="50" height="51" viewBox="0 0 50 51" fill="none" xmlns="http://www.w3.org/2000/svg">
<g clip-path="url(#clip0_1422_1256)">
<path d="M48.2909 35.5976H47.0587V10.021C47.0587 8.80938 46.0731 7.82373 44.8615 7.82373H35.7757C35.3712 7.82373 35.0433 8.15166 35.0433 8.55615C35.0433 8.96064 35.3712 9.28857 35.7757 9.28857H44.8615C45.2654 9.28857 45.5939 9.61709 45.5939 10.021V35.5976H13.6765C13.272 35.5976 12.9441 35.9255 12.9441 36.33C12.9441 36.7345 13.272 37.0624 13.6765 37.0624H18.5194V38.4104C18.5194 39.3528 19.2861 40.1194 20.2284 40.1194H29.7712C30.7135 40.1194 31.4802 39.3528 31.4802 38.4104V37.0624H48.2909C48.4254 37.0624 48.535 37.172 48.535 37.3065V40.0025C48.535 40.9448 47.7683 41.7115 46.826 41.7115H39.5674C39.1629 41.7115 38.835 42.0395 38.835 42.4439C38.835 42.8484 39.1629 43.1764 39.5674 43.1764H46.826C48.576 43.1764 49.9999 41.7525 49.9999 40.0025V37.3065C49.9999 36.3643 49.2332 35.5976 48.2909 35.5976ZM30.0154 38.4104C30.0154 38.5451 29.9058 38.6546 29.7712 38.6546H20.2284C20.0938 38.6546 19.9842 38.5451 19.9842 38.4104V37.0624H30.0154V38.4104Z" fill="#1B2B7C"/>
<path d="M36.3756 41.7116H3.17383C2.23154 41.7116 1.46484 40.9449 1.46484 40.0026V37.3066C1.46484 37.1721 1.57441 37.0625 1.70898 37.0625H10.4847C10.8892 37.0625 11.2171 36.7346 11.2171 36.3301C11.2171 35.9256 10.8892 35.5977 10.4847 35.5977H4.40596V10.021C4.40596 9.61709 4.73457 9.28857 5.13838 9.28857H32.5838C32.9883 9.28857 33.3162 8.96064 33.3162 8.55615C33.3162 8.15166 32.9883 7.82373 32.5838 7.82373H5.13838C3.92676 7.82373 2.94111 8.80938 2.94111 10.021V35.5976H1.70898C0.766699 35.5976 0 36.3643 0 37.3065V40.0025C0 41.7525 1.42383 43.1764 3.17383 43.1764H36.3756C36.7801 43.1764 37.108 42.8484 37.108 42.4439C37.108 42.0396 36.7801 41.7116 36.3756 41.7116Z" fill="#1B2B7C"/>
<path d="M31.5004 30.4085C32.016 30.4085 32.4355 29.989 32.4355 29.4734V12.1165C32.4355 11.6009 32.016 11.1814 31.5004 11.1814H27.6395C27.1238 11.1814 26.7043 11.6009 26.7043 12.1165V29.4734C26.7043 29.989 27.1238 30.4085 27.6395 30.4085H31.5004ZM28.0403 12.5173H31.0997V29.0726H28.0403V12.5173Z" fill="#FB5472"/>
<path d="M38.3409 20.5982C38.7099 20.5982 39.0088 20.2991 39.0088 19.9303V17.9207C39.0088 17.4051 38.5894 16.9856 38.0737 16.9856H34.2127C33.6971 16.9856 33.2776 17.4051 33.2776 17.9207V29.4734C33.2776 29.989 33.6971 30.4085 34.2127 30.4085H38.0737C38.5894 30.4085 39.0088 29.989 39.0088 29.4734V22.8413C39.0088 22.4725 38.7099 22.1734 38.3409 22.1734C37.9719 22.1734 37.6729 22.4725 37.6729 22.8413V29.0726H34.6135V18.3214H37.6729V19.9302C37.6729 20.2991 37.9719 20.5982 38.3409 20.5982Z" fill="#FB5472"/>
<path d="M18.3543 16.9856H14.4933C13.9776 16.9856 13.5582 17.4051 13.5582 17.9207V23.4347C12.1769 24.3931 11.3114 26.0193 11.3941 27.8187C11.5124 30.3924 13.6211 32.5013 16.1949 32.6195C16.2746 32.6232 16.3538 32.6251 16.433 32.6251C17.6851 32.625 18.8762 32.1691 19.809 31.3277C20.1431 31.0264 20.4303 30.6867 20.6689 30.3186C20.7897 30.3757 20.9242 30.4086 21.0664 30.4086H24.9272C25.4429 30.4086 25.8624 29.989 25.8624 29.4734V19.4331C25.8624 18.9175 25.4429 18.498 24.9272 18.498H21.0664C20.5508 18.498 20.1313 18.9175 20.1313 19.4331V20.5386C19.8598 20.4533 19.5783 20.391 19.2893 20.3526V17.9208C19.2894 17.4052 18.87 16.9856 18.3543 16.9856ZM20.1314 26.9137H19.2894V26.0186H20.1314V26.9137ZM14.8941 18.3215H17.9535V26.9136H17.1002V23.6058C17.1002 23.3108 16.9749 23.0276 16.7567 22.8288C16.5389 22.6307 16.2463 22.5328 15.9538 22.5605C15.5864 22.5951 15.2323 22.6696 14.8942 22.7772V18.3215H14.8941ZM15.7643 23.9338V27.3049L13.3857 29.6835C13.0001 29.1291 12.7614 28.4674 12.7287 27.7574C12.6425 25.8819 13.9547 24.2607 15.7643 23.9338ZM16.2563 31.2851C15.5464 31.2524 14.8846 31.0136 14.3302 30.6281L16.7088 28.2495H20.0795C19.751 30.0405 18.1202 31.3702 16.2563 31.2851ZM21.4673 19.8339H24.5266V29.0728H21.4673V26.0186H22.721C22.9788 26.0186 23.2277 25.9109 23.4041 25.7229C23.5795 25.5361 23.6708 25.2827 23.6548 25.0277C23.5538 23.4345 22.7101 22.0411 21.4674 21.1888V19.8339H21.4673ZM22.269 24.6827H19.2894V21.7033C20.8002 21.9784 21.9938 23.1719 22.269 24.6827Z" fill="#1B2B7C"/>
</g>
<defs>
<clipPath id="clip0_1422_1256">
<rect width="50" height="50" fill="white" transform="translate(0 0.5)"/>
</clipPath>
</defs>
</svg>
