<svg width="50" height="51" viewBox="0 0 50 51" fill="none" xmlns="http://www.w3.org/2000/svg">
<g clip-path="url(#clip0_1422_2417)">
<path d="M26.0475 17.8276L22.5914 26.5171C22.4418 26.893 22.6254 27.3189 23.0012 27.4684C23.0901 27.5037 23.1816 27.5205 23.2717 27.5205C23.5629 27.5205 23.8383 27.3456 23.9526 27.0586L27.4087 18.3689C27.5582 17.993 27.3746 17.5672 26.9989 17.4176C26.6227 17.2684 26.197 17.4517 26.0475 17.8276Z" fill="#1B2B7C"/>
<path d="M30.3162 17.8878C29.9699 18.0966 29.8583 18.5467 30.0672 18.8931L32.1646 22.3719L30.0607 26.0041C29.858 26.3542 29.9773 26.8022 30.3273 27.0049C30.4429 27.0719 30.5692 27.1038 30.6937 27.1038C30.9464 27.1037 31.1923 26.9728 31.3282 26.7383L33.6491 22.7316C33.7829 22.5005 33.7804 22.215 33.6425 21.9863L31.3217 18.1369C31.1128 17.7905 30.6628 17.6789 30.3162 17.8878Z" fill="#1B2B7C"/>
<path d="M19.6839 17.8878C19.3373 17.6789 18.8873 17.7905 18.6785 18.1368L16.3576 21.9864C16.2197 22.2151 16.2173 22.5007 16.3511 22.7317L18.672 26.7384C18.8078 26.9729 19.0536 27.1039 19.3065 27.1039C19.4311 27.1038 19.5573 27.072 19.6729 27.0051C20.0229 26.8023 20.1423 26.3542 19.9395 26.0042L17.8356 22.372L19.9329 18.8932C20.1418 18.5467 20.0304 18.0966 19.6839 17.8878Z" fill="#1B2B7C"/>
<path d="M13.7795 11.3455H8.45361C8.04912 11.3455 7.72119 11.6734 7.72119 12.0779C7.72119 12.4824 8.04912 12.8103 8.45361 12.8103H13.7795C14.184 12.8103 14.5119 12.4824 14.5119 12.0779C14.5119 11.6734 14.184 11.3455 13.7795 11.3455Z" fill="#FB5472"/>
<path d="M13.7795 14.3557H8.45361C8.04912 14.3557 7.72119 14.6836 7.72119 15.0881C7.72119 15.4926 8.04912 15.8206 8.45361 15.8206H13.7795C14.184 15.8206 14.5119 15.4926 14.5119 15.0881C14.5119 14.6836 14.184 14.3557 13.7795 14.3557Z" fill="#FB5472"/>
<path d="M13.7795 17.366H8.45361C8.04912 17.366 7.72119 17.6939 7.72119 18.0984C7.72119 18.5029 8.04912 18.8308 8.45361 18.8308H13.7795C14.184 18.8308 14.5119 18.5029 14.5119 18.0984C14.5119 17.6939 14.184 17.366 13.7795 17.366Z" fill="#FB5472"/>
<path d="M32.5852 29.8252C32.5852 30.2297 32.9131 30.5576 33.3176 30.5576H33.3559V33.4312C33.3559 33.8356 33.6838 34.1636 34.0883 34.1636C34.4928 34.1636 34.8208 33.8356 34.8208 33.4312V29.8252C34.8208 29.4207 34.4928 29.0928 34.0883 29.0928H33.3176C32.9131 29.0928 32.5852 29.4207 32.5852 29.8252Z" fill="#FB5472"/>
<path d="M41.5464 34.1636C41.9509 34.1636 42.2789 33.8356 42.2789 33.4312V29.8252C42.2789 29.4207 41.9509 29.0928 41.5464 29.0928H40.7756C40.3711 29.0928 40.0432 29.4207 40.0432 29.8252C40.0432 30.2297 40.3711 30.5576 40.7756 30.5576H40.814V33.4312C40.814 33.8356 41.1419 34.1636 41.5464 34.1636Z" fill="#FB5472"/>
<path d="M39.2074 32.4619V30.7942C39.2074 29.8154 38.4111 29.019 37.4322 29.019C36.4534 29.019 35.657 29.8153 35.657 30.7942V32.4619C35.657 33.4407 36.4533 34.2371 37.4322 34.2371C38.4111 34.2371 39.2074 33.4408 39.2074 32.4619ZM37.1218 32.4619V30.7942C37.1218 30.6231 37.261 30.4839 37.4322 30.4839C37.6033 30.4839 37.7425 30.623 37.7425 30.7942V32.4619C37.7425 32.633 37.6034 32.7723 37.4322 32.7723C37.2611 32.7723 37.1218 32.6331 37.1218 32.4619Z" fill="#FB5472"/>
<path d="M48.2909 35.5976H47.0587V10.021C47.0587 8.80938 46.0731 7.82373 44.8615 7.82373H35.7757C35.3712 7.82373 35.0433 8.15166 35.0433 8.55615C35.0433 8.96064 35.3712 9.28857 35.7757 9.28857H44.8615C45.2654 9.28857 45.5939 9.61709 45.5939 10.021V35.5976H13.6765C13.272 35.5976 12.9441 35.9255 12.9441 36.33C12.9441 36.7345 13.272 37.0624 13.6765 37.0624H18.5194V38.4104C18.5194 39.3528 19.2861 40.1194 20.2284 40.1194H29.7712C30.7135 40.1194 31.4802 39.3528 31.4802 38.4104V37.0624H48.2909C48.4254 37.0624 48.535 37.172 48.535 37.3065V40.0025C48.535 40.9448 47.7683 41.7115 46.826 41.7115H39.5674C39.1629 41.7115 38.835 42.0395 38.835 42.4439C38.835 42.8484 39.1629 43.1764 39.5674 43.1764H46.826C48.576 43.1764 49.9999 41.7525 49.9999 40.0025V37.3065C49.9999 36.3643 49.2332 35.5976 48.2909 35.5976ZM30.0154 38.4104C30.0154 38.5451 29.9058 38.6546 29.7712 38.6546H20.2284C20.0938 38.6546 19.9842 38.5451 19.9842 38.4104V37.0624H30.0154V38.4104Z" fill="#1B2B7C"/>
<path d="M36.3756 41.7116H3.17383C2.23154 41.7116 1.46484 40.9449 1.46484 40.0026V37.3066C1.46484 37.1721 1.57441 37.0625 1.70898 37.0625H10.4847C10.8892 37.0625 11.2171 36.7346 11.2171 36.3301C11.2171 35.9256 10.8892 35.5977 10.4847 35.5977H4.40596V10.021C4.40596 9.61709 4.73457 9.28857 5.13838 9.28857H32.5838C32.9883 9.28857 33.3162 8.96064 33.3162 8.55615C33.3162 8.15166 32.9883 7.82373 32.5838 7.82373H5.13838C3.92676 7.82373 2.94111 8.80938 2.94111 10.021V35.5976H1.70898C0.766699 35.5976 0 36.3643 0 37.3065V40.0025C0 41.7525 1.42383 43.1764 3.17383 43.1764H36.3756C36.7801 43.1764 37.108 42.8484 37.108 42.4439C37.108 42.0396 36.7801 41.7116 36.3756 41.7116Z" fill="#1B2B7C"/>
</g>
<defs>
<clipPath id="clip0_1422_2417">
<rect width="50" height="50" fill="white" transform="translate(0 0.5)"/>
</clipPath>
</defs>
</svg>
