<svg width="51" height="51" viewBox="0 0 51 51" fill="none" xmlns="http://www.w3.org/2000/svg">
<g clip-path="url(#clip0_1422_2345)">
<path d="M48.3744 35.5976H47.1422V10.021C47.1422 8.80938 46.1566 7.82373 44.945 7.82373H35.8592C35.4547 7.82373 35.1268 8.15166 35.1268 8.55615C35.1268 8.96064 35.4547 9.28857 35.8592 9.28857H44.945C45.3489 9.28857 45.6774 9.61709 45.6774 10.021V35.5976H13.76C13.3555 35.5976 13.0276 35.9255 13.0276 36.33C13.0276 36.7345 13.3555 37.0624 13.76 37.0624H18.6029V38.4104C18.6029 39.3528 19.3696 40.1194 20.3119 40.1194H29.8547C30.797 40.1194 31.5637 39.3528 31.5637 38.4104V37.0624H48.3744C48.5089 37.0624 48.6185 37.172 48.6185 37.3065V40.0025C48.6185 40.9448 47.8518 41.7115 46.9095 41.7115H39.6509C39.2464 41.7115 38.9185 42.0395 38.9185 42.4439C38.9185 42.8484 39.2464 43.1764 39.6509 43.1764H46.9095C48.6595 43.1764 50.0834 41.7525 50.0834 40.0025V37.3065C50.0834 36.3643 49.3167 35.5976 48.3744 35.5976ZM30.0989 38.4104C30.0989 38.5451 29.9893 38.6546 29.8547 38.6546H20.3119C20.1773 38.6546 20.0677 38.5451 20.0677 38.4104V37.0624H30.0989V38.4104Z" fill="#1B2B7C"/>
<path d="M36.4591 41.7116H3.25732C2.31504 41.7116 1.54834 40.9449 1.54834 40.0026V37.3066C1.54834 37.1721 1.65791 37.0625 1.79248 37.0625H10.5682C10.9727 37.0625 11.3006 36.7346 11.3006 36.3301C11.3006 35.9256 10.9727 35.5977 10.5682 35.5977H4.48945V10.021C4.48945 9.61709 4.81807 9.28857 5.22187 9.28857H32.6673C33.0718 9.28857 33.3997 8.96064 33.3997 8.55615C33.3997 8.15166 33.0718 7.82373 32.6673 7.82373H5.22187C4.01025 7.82373 3.02461 8.80938 3.02461 10.021V35.5976H1.79248C0.850195 35.5976 0.0834961 36.3643 0.0834961 37.3065V40.0025C0.0834961 41.7525 1.50732 43.1764 3.25732 43.1764H36.4591C36.8636 43.1764 37.1915 42.8484 37.1915 42.4439C37.1915 42.0396 36.8636 41.7116 36.4591 41.7116Z" fill="#1B2B7C"/>
<path d="M24.1325 30.5841C24.2367 30.6838 24.3708 30.7334 24.5047 30.7334C24.6427 30.7334 24.7806 30.6807 24.8857 30.5756L27.1884 28.273C27.3988 28.0626 27.3988 27.7214 27.1884 27.5111C26.9779 27.3007 26.6368 27.3007 26.4264 27.5111L24.4963 29.4412L23.3986 28.3922C23.1835 28.1866 22.8424 28.1943 22.6368 28.4094C22.4312 28.6245 22.439 28.9656 22.6541 29.1712L24.1325 30.5841Z" fill="#FB5472"/>
<path d="M24.3779 15.8276V17.3049C24.3779 17.6025 24.6192 17.8437 24.9167 17.8437C25.2143 17.8437 25.4555 17.6025 25.4555 17.3049V15.8276C25.4555 15.5301 25.2143 15.2888 24.9167 15.2888C24.6192 15.2888 24.3779 15.5301 24.3779 15.8276Z" fill="#FB5472"/>
<path d="M33.6777 19.2332L32.6331 20.2778C32.4227 20.4883 32.4227 20.8294 32.6332 21.0398C32.7384 21.145 32.8763 21.1976 33.0142 21.1976C33.152 21.1976 33.29 21.145 33.3952 21.0398L34.4397 19.9952C34.6502 19.7847 34.6502 19.4436 34.4397 19.2332C34.2293 19.0228 33.8882 19.0229 33.6777 19.2332Z" fill="#FB5472"/>
<path d="M15.3939 19.2332C15.1835 19.4436 15.1835 19.7847 15.3939 19.9952L16.4384 21.0398C16.5436 21.1451 16.6815 21.1976 16.8194 21.1976C16.9573 21.1976 17.0952 21.1451 17.2004 21.0398C17.4108 20.8294 17.4108 20.4883 17.2004 20.2779L16.1557 19.2333C15.9455 19.0228 15.6043 19.0229 15.3939 19.2332Z" fill="#FB5472"/>
<path d="M37.2153 21.696C37.3637 21.9539 37.6932 22.0427 37.951 21.8944C38.2089 21.7459 38.2977 21.4166 38.1494 21.1587C36.8342 18.873 34.939 16.9554 32.6684 15.6134C30.3291 14.2308 27.6487 13.5 24.9167 13.5C16.7797 13.5 10.0869 19.8605 9.68008 27.9803C9.66283 28.3247 9.78467 28.6525 10.0231 28.9032C10.2598 29.1521 10.5926 29.2948 10.936 29.2948H20.2043C20.4728 31.6578 22.4832 33.5 24.9168 33.5C27.3503 33.5 29.3608 31.6578 29.6292 29.2948H38.8975C39.2409 29.2948 39.5736 29.1521 39.8104 28.9032C40.0488 28.6525 40.1707 28.3248 40.1534 27.9803C40.0711 26.3373 39.7275 24.7315 39.1323 23.2075C39.024 22.9303 38.7116 22.7933 38.4344 22.9017C38.1572 23.01 38.0202 23.3224 38.1285 23.5995C38.6814 25.0153 39.0007 26.5074 39.0772 28.0342C39.0801 28.0942 39.0529 28.136 39.0295 28.1606C39.0094 28.1818 38.9655 28.2173 38.8974 28.2173H29.6291C29.6061 28.0142 29.5702 27.8151 29.5223 27.6206L33.7238 26.0605C34.0028 25.9569 34.1449 25.6469 34.0414 25.3678C33.9377 25.0889 33.6276 24.9467 33.3487 25.0503L29.1458 26.6109C28.3613 25.0704 26.7608 24.0121 24.9167 24.0121C22.4832 24.0121 20.4728 25.8543 20.2042 28.2173H10.936C10.868 28.2173 10.824 28.1817 10.8039 28.1606C10.7806 28.136 10.7533 28.0942 10.7564 28.0343C11.1344 20.4884 17.3544 14.5776 24.9167 14.5776C27.4559 14.5776 29.9469 15.2565 32.1202 16.5411C34.2309 17.7886 35.9928 19.5712 37.2153 21.696ZM24.9167 25.0897C26.9383 25.0897 28.583 26.7344 28.583 28.7561C28.583 30.7777 26.9383 32.4224 24.9167 32.4224C22.8951 32.4224 21.2504 30.7777 21.2504 28.7561C21.2504 26.7344 22.8951 25.0897 24.9167 25.0897Z" fill="#1B2B7C"/>
</g>
<defs>
<clipPath id="clip0_1422_2345">
<rect width="50" height="50" fill="white" transform="translate(0.0834961 0.5)"/>
</clipPath>
</defs>
</svg>
