<svg width="50" height="51" viewBox="0 0 50 51" fill="none" xmlns="http://www.w3.org/2000/svg">
<g clip-path="url(#clip0_1422_2222)">
<path d="M48.2909 35.5976H47.0587V10.021C47.0587 8.80938 46.0731 7.82373 44.8615 7.82373H35.7757C35.3712 7.82373 35.0433 8.15166 35.0433 8.55615C35.0433 8.96064 35.3712 9.28857 35.7757 9.28857H44.8615C45.2654 9.28857 45.5939 9.61709 45.5939 10.021V35.5976H13.6765C13.272 35.5976 12.9441 35.9255 12.9441 36.33C12.9441 36.7345 13.272 37.0624 13.6765 37.0624H18.5194V38.4104C18.5194 39.3528 19.2861 40.1194 20.2284 40.1194H29.7712C30.7135 40.1194 31.4802 39.3528 31.4802 38.4104V37.0624H48.2909C48.4254 37.0624 48.535 37.172 48.535 37.3065V40.0025C48.535 40.9448 47.7683 41.7115 46.826 41.7115H39.5674C39.1629 41.7115 38.835 42.0395 38.835 42.4439C38.835 42.8484 39.1629 43.1764 39.5674 43.1764H46.826C48.576 43.1764 49.9999 41.7525 49.9999 40.0025V37.3065C49.9999 36.3643 49.2332 35.5976 48.2909 35.5976ZM30.0154 38.4104C30.0154 38.5451 29.9058 38.6546 29.7712 38.6546H20.2284C20.0938 38.6546 19.9842 38.5451 19.9842 38.4104V37.0624H30.0154V38.4104Z" fill="#1B2B7C"/>
<path d="M36.3756 41.7116H3.17383C2.23154 41.7116 1.46484 40.9449 1.46484 40.0026V37.3066C1.46484 37.1721 1.57441 37.0625 1.70898 37.0625H10.4847C10.8892 37.0625 11.2171 36.7346 11.2171 36.3301C11.2171 35.9256 10.8892 35.5977 10.4847 35.5977H4.40596V10.021C4.40596 9.61709 4.73457 9.28857 5.13838 9.28857H32.5838C32.9883 9.28857 33.3162 8.96064 33.3162 8.55615C33.3162 8.15166 32.9883 7.82373 32.5838 7.82373H5.13838C3.92676 7.82373 2.94111 8.80938 2.94111 10.021V35.5976H1.70898C0.766699 35.5976 0 36.3643 0 37.3065V40.0025C0 41.7525 1.42383 43.1764 3.17383 43.1764H36.3756C36.7801 43.1764 37.108 42.8484 37.108 42.4439C37.108 42.0396 36.7801 41.7116 36.3756 41.7116Z" fill="#1B2B7C"/>
<path d="M18.5172 30.3066C18.5219 30.3304 18.5284 30.354 18.5365 30.3769C18.6154 30.5988 18.8259 30.7474 19.0612 30.7474H19.065C19.3019 30.7458 19.5122 30.594 19.5884 30.3698C19.59 30.3655 19.5914 30.3611 19.5927 30.3567L19.8845 29.414L20.1749 30.3568C20.177 30.3636 20.1792 30.3703 20.1816 30.3769C20.2605 30.599 20.471 30.7474 20.7063 30.7474H20.7102C20.9471 30.7458 21.1574 30.5939 21.2335 30.3696C21.2405 30.3489 21.2462 30.3278 21.2505 30.3064L21.7453 27.8201C21.7991 27.5494 21.6234 27.2863 21.3527 27.2324C21.0822 27.1786 20.8189 27.3543 20.765 27.625L20.6136 28.3859L20.3625 27.5708C20.2812 27.307 20.0014 27.1591 19.7377 27.2403C19.5637 27.2938 19.4406 27.434 19.4 27.5988L19.1562 28.3864L19.0047 27.6209C18.9512 27.3501 18.6884 27.1742 18.4175 27.2276C18.1468 27.2812 17.9707 27.5441 18.0242 27.8148L18.5172 30.3066Z" fill="#FB5472"/>
<path d="M23.3531 30.3066C23.3578 30.3304 23.3642 30.3538 23.3723 30.3766C23.4511 30.5988 23.6616 30.7474 23.8971 30.7474H23.9008C24.1377 30.7458 24.3481 30.5941 24.4244 30.3698C24.4259 30.3655 24.4273 30.3611 24.4287 30.3567L24.7204 29.414L25.0109 30.3568C25.013 30.3636 25.0152 30.3703 25.0176 30.3769C25.0965 30.599 25.307 30.7474 25.5422 30.7474H25.5462C25.783 30.7458 25.9933 30.5939 26.0695 30.3696C26.0765 30.3489 26.0822 30.3278 26.0864 30.3064L26.5812 27.8201C26.6351 27.5494 26.4593 27.2863 26.1886 27.2324C25.918 27.1786 25.6548 27.3543 25.6009 27.625L25.4495 28.3859L25.1983 27.5708C25.1171 27.307 24.8373 27.1591 24.5736 27.2403C24.3995 27.2938 24.2765 27.434 24.2359 27.5988L23.9921 28.3864L23.8407 27.6209C23.7871 27.3501 23.5242 27.1742 23.2535 27.2276C22.9827 27.2812 22.8066 27.5441 22.8602 27.8148L23.3531 30.3066Z" fill="#FB5472"/>
<path d="M28.1888 30.3066C28.1935 30.3304 28.2 30.354 28.2081 30.377C28.287 30.599 28.4975 30.7474 28.7328 30.7474H28.7367C28.9736 30.7458 29.1839 30.5939 29.26 30.3696C29.2615 30.3653 29.2629 30.361 29.2642 30.3567L29.556 29.414L29.8465 30.3568C29.8485 30.3636 29.8507 30.3704 29.8531 30.377C29.932 30.599 30.1425 30.7475 30.3779 30.7475H30.3817C30.6185 30.7459 30.8288 30.5942 30.9051 30.37C30.9121 30.3492 30.9178 30.328 30.9221 30.3066L31.4169 27.8202C31.4707 27.5496 31.2949 27.2864 31.0243 27.2325C30.7539 27.1788 30.4905 27.3544 30.4366 27.6251L30.2852 28.3861L30.034 27.5708C29.9527 27.307 29.6731 27.1591 29.4093 27.2403C29.2353 27.2938 29.1122 27.434 29.0716 27.5988L28.8278 28.3864L28.6764 27.6209C28.6228 27.3501 28.3598 27.1739 28.0891 27.2277C27.8184 27.2812 27.6423 27.5442 27.6959 27.8149L28.1888 30.3066Z" fill="#FB5472"/>
<path d="M14.3333 28.9827C14.3333 30.9157 15.906 32.4885 17.8391 32.4885H31.6022C33.5353 32.4885 35.108 30.9157 35.108 28.9827C35.108 27.1394 33.6777 25.6249 31.8688 25.488C32.6846 24.1693 33.1135 22.6656 33.1135 21.0896C33.1135 16.4618 29.3484 12.6968 24.7206 12.6968C20.0928 12.6968 16.3278 16.4618 16.3278 21.0896C16.3278 22.6662 16.7566 24.1695 17.5723 25.4881C15.7635 25.6249 14.3333 27.1393 14.3333 28.9827ZM18.771 25.4768C17.9258 24.334 17.4382 23.0022 17.3452 21.5893H20.2827C20.3244 22.9801 20.5395 24.3041 20.9142 25.4768H18.771ZM24.7206 13.6962C25.5632 13.6962 26.4174 14.4382 27.0642 15.7318C27.7169 17.0371 28.0996 18.747 28.1584 20.5898H21.2828C21.3416 18.747 21.7243 17.0372 22.3769 15.7318C23.0238 14.4382 23.878 13.6962 24.7206 13.6962ZM32.0961 21.5893C32.003 23.0018 31.5153 24.3339 30.6703 25.4768H28.5276C28.9021 24.3039 29.1169 22.9788 29.1586 21.5893H32.0961ZM32.0967 20.5898H29.1593C29.0787 17.8797 28.3465 15.5518 27.2456 14.1405C29.9333 15.12 31.8973 17.6171 32.0967 20.5898ZM22.1957 14.1405C21.0948 15.5518 20.3626 17.8797 20.282 20.5898H17.3445C17.544 17.6171 19.508 15.12 22.1957 14.1405ZM17.8391 26.4763H23.1476C23.4235 26.4763 23.6473 26.2526 23.6473 25.9766C23.6473 25.7006 23.4235 25.4768 23.1476 25.4768H21.968C21.5611 24.3295 21.3273 22.9997 21.2826 21.5893H28.1588C28.114 22.9985 27.8798 24.3291 27.473 25.4768H25.4059C25.1299 25.4768 24.9061 25.7006 24.9061 25.9766C24.9061 26.2526 25.1299 26.4763 25.4059 26.4763H31.6022C32.9843 26.4763 34.1086 27.6006 34.1086 28.9827C34.1086 30.3646 32.9842 31.489 31.6022 31.489H17.8392C16.4571 31.489 15.3328 30.3646 15.3328 28.9827C15.3327 27.6006 16.4571 26.4763 17.8391 26.4763Z" fill="#1B2B7C"/>
</g>
<defs>
<clipPath id="clip0_1422_2222">
<rect width="50" height="50" fill="white" transform="translate(0 0.5)"/>
</clipPath>
</defs>
</svg>
