<svg width="70" height="70" viewBox="0 0 70 70" fill="none" xmlns="http://www.w3.org/2000/svg">
<g clip-path="url(#clip0_1422_525)">
<path d="M10.9426 67.3115V3.78806C10.9426 1.69935 12.642 0 14.7307 0H18.4702C19.0365 0 19.4956 0.459084 19.4956 1.02535C19.4956 1.59162 19.0365 2.0507 18.4702 2.0507H14.7307C13.7727 2.0507 12.9933 2.83011 12.9933 3.78806V67.3117C12.9932 67.8145 13.5522 68.1196 13.9752 67.8384L33.97 54.5691C34.5941 54.1546 35.406 54.1546 36.0305 54.5693L46.6645 61.6264C47.1365 61.9396 47.2651 62.5759 46.9519 63.0477C46.6387 63.5195 46.0023 63.6483 45.5306 63.3351L35.0001 56.3467L15.1091 69.5471C13.3143 70.7382 10.9425 69.4369 10.9426 67.3115ZM56.3701 69.9974C55.8464 69.9974 55.3351 69.8417 54.8913 69.5472L49.5178 65.9812C49.046 65.6679 48.9172 65.0317 49.2304 64.5599C49.5435 64.0879 50.18 63.9594 50.6517 64.2725C56.5157 68.1641 56.1152 67.9467 56.3701 67.9467C56.6765 67.9467 57.0071 67.7039 57.0071 67.3117V3.78806C57.0071 2.83011 56.2277 2.0507 55.2697 2.0507H23.2552C22.6889 2.0507 22.2298 1.59162 22.2298 1.02535C22.2298 0.459084 22.6889 0 23.2552 0H55.2696C57.3583 0 59.0576 1.69935 59.0576 3.78806V67.3117C59.0578 68.7925 57.8521 69.9974 56.3701 69.9974Z" fill="#1B2B7C"/>
<path d="M43.0617 43.7178C42.6353 43.7178 42.2067 43.6149 41.8107 43.4067L35.2942 39.9808C35.1101 39.8839 34.8901 39.8839 34.7058 39.9808L28.1895 43.4067C27.2788 43.8854 26.1962 43.8072 25.3639 43.2025C24.5317 42.5978 24.1227 41.5923 24.2966 40.5784L25.5412 33.3222C25.5764 33.1171 25.5084 32.9078 25.3594 32.7625L20.0874 27.6237C19.3507 26.9057 19.0905 25.8517 19.4085 24.8733C19.7265 23.8948 20.5564 23.1952 21.5745 23.0473L28.8601 21.9886C29.0661 21.9587 29.2441 21.8293 29.3362 21.6426L32.5944 15.0407C33.0498 14.1181 33.9717 13.5452 35.0004 13.5452C36.0292 13.5452 36.9511 14.1183 37.4065 15.0407L40.6646 21.6426C40.7568 21.8292 40.9348 21.9585 41.1406 21.9885L48.4264 23.0472C49.4444 23.1951 50.2743 23.8947 50.5922 24.8731C50.9101 25.8515 50.6499 26.9054 49.9133 27.6235L44.6413 32.7623C44.4923 32.9077 44.4244 33.1168 44.4595 33.3222L45.7041 40.5783C45.878 41.5923 45.469 42.5977 44.6368 43.2023C44.1661 43.5441 43.6158 43.7178 43.0617 43.7178ZM35.0002 37.8574C35.429 37.8574 35.8578 37.9601 36.2486 38.1655L42.7652 41.5914C43.079 41.7566 43.3354 41.6129 43.4311 41.5433C43.5267 41.4739 43.7426 41.2745 43.6827 40.925L42.4381 33.6689C42.2888 32.7982 42.5774 31.9105 43.2098 31.294L48.4818 26.1552C48.7358 25.9075 48.6782 25.6195 48.6417 25.5071C48.6052 25.3947 48.4823 25.1278 48.1314 25.0768L40.8456 24.0181C39.9717 23.8911 39.2165 23.3426 38.8255 22.5505L35.5672 15.9485C35.4103 15.6303 35.1184 15.596 35.0003 15.596C34.8822 15.596 34.5903 15.6303 34.4333 15.9485L31.1752 22.5504C30.7842 23.3425 30.029 23.8911 29.155 24.018L21.8694 25.0767C21.5183 25.1277 21.3955 25.3946 21.359 25.5069C21.3225 25.6193 21.2649 25.9075 21.519 26.1551L26.7909 31.2939C27.4234 31.9103 27.7118 32.798 27.5627 33.6686L26.318 40.925C26.2581 41.2745 26.474 41.4739 26.5696 41.5433C26.6653 41.6129 26.9216 41.7567 27.2355 41.5914L33.752 38.1655C34.1426 37.9602 34.5713 37.8574 35.0002 37.8574Z" fill="#FB5472"/>
</g>
<defs>
<clipPath id="clip0_1422_525">
<rect width="70" height="70" fill="white" transform="translate(0.000244141)"/>
</clipPath>
</defs>
</svg>
