<svg width="71" height="70" viewBox="0 0 71 70" fill="none" xmlns="http://www.w3.org/2000/svg">
<path d="M26.7557 49.1293C27.2117 49.5851 27.2117 50.3233 26.7557 50.7791L11.0113 66.5237C10.0937 67.4413 8.87357 67.9466 7.57581 67.9466C6.27805 67.9466 5.05807 67.4413 4.14035 66.5237C3.22277 65.6059 2.71736 64.3858 2.71736 63.0881C2.71736 61.7904 3.22277 60.5704 4.14049 59.6527L9.20386 54.5893C9.60428 54.1887 9.60428 53.5397 9.20386 53.1392C8.80344 52.739 8.15422 52.739 7.75394 53.1392L2.69057 58.2026C1.38542 59.5076 0.666748 61.2427 0.666748 63.0881C0.666748 64.9335 1.38542 66.6685 2.69043 67.9736C3.99544 69.2785 5.7304 69.9972 7.57581 69.9972C9.42136 69.9972 11.1565 69.2785 12.4612 67.9736L28.2057 52.2292C28.8133 51.6215 29.148 50.8136 29.148 49.9541C29.148 49.3662 28.9913 48.8027 28.6978 48.3106L31.9923 45.0161C41.5199 51.6006 54.8069 50.7572 63.4327 42.1309C73.0776 32.4866 73.0781 16.8762 63.4329 7.23093C58.7829 2.58041 52.5427 0.00292969 45.9828 0.00292969C44.4838 0.0030664 42.9775 0.140184 41.5053 0.410318C40.9483 0.512575 40.5796 1.04697 40.682 1.60391C40.7844 2.16086 41.3181 2.52942 41.8756 2.42716C43.2258 2.17931 44.6078 2.05354 45.983 2.05341C51.9686 2.05341 57.6922 4.3896 61.9829 8.68085C70.8259 17.5235 70.8274 31.8371 61.9829 40.6807C53.9034 48.7605 41.3314 49.412 32.5337 42.883C32.5211 42.8728 32.5093 42.8617 32.4962 42.8519C30.7086 41.5216 29.1194 39.9245 27.8119 38.1674C27.8021 38.1542 27.7909 38.1423 27.7804 38.1296C19.0979 26.4301 23.641 9.30191 37.488 3.70183C38.0129 3.48938 38.2662 2.89183 38.0541 2.36674C37.8418 1.84206 37.2446 1.58846 36.719 1.80063C21.8795 7.8036 16.838 25.9239 25.6479 38.6715L22.3532 41.9661C21.8612 41.6728 21.2976 41.5161 20.7099 41.5161C19.8505 41.5161 19.0426 41.8507 18.4349 42.4584L11.1372 49.756C10.7368 50.1566 10.7368 50.8056 11.1372 51.2061C11.5376 51.6063 12.1868 51.6063 12.5871 51.2061L19.8848 43.9083C20.3407 43.4523 21.0788 43.4523 21.5347 43.9083L26.7557 49.1293ZM27.3176 46.7911L23.873 43.3465L26.8942 40.3252C27.8911 41.5373 29.0414 42.7026 30.3388 43.77L27.3176 46.7911Z" fill="#1B2B7C"/>
<path d="M33.2803 37.3836C40.2908 44.3941 51.675 44.3944 58.6858 37.3836C65.6898 30.3794 65.6898 18.9825 58.6858 11.9782C51.6814 4.97408 40.2844 4.97408 33.2803 11.9782C26.2695 18.9888 26.2695 30.3727 33.2803 37.3836ZM45.983 8.77468C50.0581 8.77468 54.1333 10.3259 57.2357 13.4282C63.4404 19.633 63.4404 29.7288 57.2357 35.9334C51.0266 42.1428 40.9397 42.1428 34.7304 35.9334C31.7298 32.933 30.0772 28.9366 30.0772 24.6807C30.0772 15.8239 37.235 8.77468 45.983 8.77468Z" fill="#FB5472"/>
</svg>
