<svg width="56" height="70" viewBox="0 0 56 70" fill="none" xmlns="http://www.w3.org/2000/svg">
<g clip-path="url(#clip0_1422_1900)">
<path d="M12.5772 29.9383L18.969 22.2487C19.331 21.8131 19.2714 21.1667 18.8358 20.8047C18.4005 20.4428 17.7538 20.5024 17.3918 20.9378L11.9129 27.5292L10.7154 25.5839C10.4186 25.1017 9.78708 24.9512 9.3046 25.2483C8.82239 25.5452 8.67214 26.1769 8.96895 26.6589L10.9153 29.8203C11.2833 30.4178 12.1291 30.4775 12.5772 29.9383Z" fill="#FB5472"/>
<path d="M8.9693 40.1938L10.9156 43.3551C11.2834 43.9526 12.1291 44.0123 12.5773 43.473L18.9691 35.7834C19.3311 35.3478 19.2715 34.7014 18.8359 34.3394C18.4006 33.9775 17.7539 34.0369 17.3919 34.4725L11.913 41.0639L10.7155 39.1186C10.4187 38.6364 9.78715 38.4859 9.30467 38.783C8.8226 39.0801 8.67235 39.7117 8.9693 40.1938Z" fill="#FB5472"/>
<path d="M8.9693 53.8203L10.9156 56.9816C11.2834 57.5791 12.1291 57.6388 12.5773 57.0995L18.9691 49.4099C19.3311 48.9743 19.2715 48.3279 18.8359 47.9658C18.4006 47.6039 17.7539 47.6634 17.3919 48.099L11.913 54.6903L10.7155 52.7451C10.4187 52.2629 9.78715 52.1125 9.30467 52.4095C8.8226 52.7066 8.67235 53.3382 8.9693 53.8203Z" fill="#FB5472"/>
<path d="M54.3184 57.8871C53.7521 57.8871 53.293 58.3461 53.293 58.9125V66.3767C53.293 67.2436 52.5876 67.949 51.7207 67.949H4.2793C3.41236 67.949 2.70703 67.2436 2.70703 66.3767V21.4385C2.70703 20.8721 2.24793 20.4131 1.68164 20.4131C1.11535 20.4131 0.65625 20.8721 0.65625 21.4385V66.3767C0.65625 68.3744 2.28156 69.9997 4.2793 69.9997H51.7207C53.7184 69.9997 55.3438 68.3744 55.3438 66.3767V58.9125C55.3438 58.3463 54.8846 57.8871 54.3184 57.8871Z" fill="#1B2B7C"/>
<path d="M51.7207 7.90111H46.7048V3.66406C46.7048 1.64377 45.0611 0 43.0407 0C41.0203 0 39.3766 1.64363 39.3766 3.66406V7.90111H31.6641V3.66406C31.6641 1.64363 30.0203 0 28 0C25.9797 0 24.3359 1.64363 24.3359 3.66406V7.90111H16.6232V3.66406C16.6232 1.64377 14.9796 0 12.9592 0C10.9389 0 9.2951 1.64363 9.2951 3.66406V7.90111H4.2793C2.28156 7.90111 0.65625 9.52643 0.65625 11.5242V16.6536C0.65625 17.22 1.11535 17.679 1.68164 17.679C2.24793 17.679 2.70703 17.22 2.70703 16.6536V11.5242C2.70703 10.6572 3.41236 9.95189 4.2793 9.95189H9.2951V11.5801C9.2951 13.6004 10.9387 15.2441 12.9592 15.2441C14.9796 15.2441 16.6232 13.6005 16.6232 11.5801V9.95189H24.3359V11.5801C24.3359 13.6004 25.9796 15.2441 28 15.2441C30.0204 15.2441 31.6641 13.6005 31.6641 11.5801V9.95189H39.3768V11.5801C39.3768 13.6004 41.0204 15.2441 43.0408 15.2441C45.0611 15.2441 46.7049 13.6005 46.7049 11.5801V9.95189H51.7207C52.5876 9.95189 53.293 10.6572 53.293 11.5242V54.1276C53.293 54.6941 53.7521 55.153 54.3184 55.153C54.8846 55.153 55.3438 54.6941 55.3438 54.1276V11.5242C55.3438 9.52643 53.7184 7.90111 51.7207 7.90111ZM14.5726 11.5801C14.5726 12.4697 13.8489 13.1934 12.9593 13.1934C12.0698 13.1934 11.346 12.4697 11.346 11.5801C11.346 9.39435 11.346 4.3482 11.346 3.66406C11.346 2.77443 12.0697 2.05078 12.9593 2.05078C13.8489 2.05078 14.5726 2.77443 14.5726 3.66406V11.5801ZM29.6133 11.5801C29.6133 12.4697 28.8896 13.1934 28 13.1934C27.1104 13.1934 26.3867 12.4697 26.3867 11.5801C26.3867 9.39435 26.3867 4.3482 26.3867 3.66406C26.3867 2.77443 27.1104 2.05078 28 2.05078C28.8896 2.05078 29.6133 2.77443 29.6133 3.66406V11.5801ZM44.6541 11.5801C44.6541 12.4697 43.9305 13.1934 43.0408 13.1934C42.1512 13.1934 41.4276 12.4697 41.4276 11.5801C41.4276 9.39435 41.4276 4.3482 41.4276 3.66406C41.4276 2.77443 42.1512 2.05078 43.0408 2.05078C43.9303 2.05078 44.6541 2.77443 44.6541 3.66406V11.5801Z" fill="#1B2B7C"/>
<path d="M23.3159 30.7866H44.9175C46.6891 30.7866 48.1304 29.3453 48.1304 27.5737C48.1304 25.8021 46.6891 24.3608 44.9175 24.3608H23.3159C21.5443 24.3608 20.103 25.8021 20.103 27.5737C20.103 29.3453 21.5443 30.7866 23.3159 30.7866ZM23.3159 26.4116H44.9175C45.5583 26.4116 46.0796 26.9329 46.0796 27.5737C46.0796 28.2145 45.5583 28.7358 44.9175 28.7358H23.3159C22.6751 28.7358 22.1538 28.2145 22.1538 27.5737C22.1538 26.9329 22.6751 26.4116 23.3159 26.4116Z" fill="#1B2B7C"/>
<path d="M23.3159 44.3511H44.9175C46.6891 44.3511 48.1304 42.9098 48.1304 41.1382C48.1304 39.3666 46.6891 37.9253 44.9175 37.9253H23.3159C21.5443 37.9253 20.103 39.3666 20.103 41.1382C20.103 42.9098 21.5443 44.3511 23.3159 44.3511ZM23.3159 39.9761H44.9175C45.5583 39.9761 46.0796 40.4974 46.0796 41.1382C46.0796 41.779 45.5583 42.3003 44.9175 42.3003H23.3159C22.6751 42.3003 22.1538 41.779 22.1538 41.1382C22.1538 40.4974 22.6751 39.9761 23.3159 39.9761Z" fill="#1B2B7C"/>
<path d="M23.3159 57.915H44.9175C46.6891 57.915 48.1304 56.4738 48.1304 54.7021C48.1304 52.9305 46.6891 51.4893 44.9175 51.4893H23.3159C21.5443 51.4893 20.103 52.9305 20.103 54.7021C20.103 56.4738 21.5443 57.915 23.3159 57.915ZM23.3159 53.54H44.9175C45.5583 53.54 46.0796 54.0613 46.0796 54.7021C46.0796 55.3429 45.5583 55.8643 44.9175 55.8643H23.3159C22.6751 55.8643 22.1538 55.3429 22.1538 54.7021C22.1538 54.0613 22.6751 53.54 23.3159 53.54Z" fill="#1B2B7C"/>
</g>
<defs>
<clipPath id="clip0_1422_1900">
<rect width="54.6875" height="70" fill="white" transform="translate(0.65625)"/>
</clipPath>
</defs>
</svg>
