<svg width="71" height="70" viewBox="0 0 71 70" fill="none" xmlns="http://www.w3.org/2000/svg">
<g clip-path="url(#clip0_1422_1868)">
<path d="M12.6561 66.624H10.3319C9.76559 66.624 9.30648 66.1649 9.30648 65.5986C9.30648 65.0323 9.76559 64.5732 10.3319 64.5732H12.6561C12.9953 64.5732 13.2713 64.2972 13.2713 63.958V40.9209C13.2713 40.5817 12.9953 40.3057 12.6561 40.3057H2.99951C2.66031 40.3057 2.38428 40.5817 2.38428 40.9209V63.958C2.38428 64.2972 2.66031 64.5732 2.99951 64.5732H5.54672C6.11301 64.5732 6.57211 65.0323 6.57211 65.5986C6.57211 66.1649 6.11301 66.624 5.54672 66.624H2.99951C1.52951 66.624 0.333496 65.428 0.333496 63.958V40.9209C0.333496 39.4509 1.52951 38.2549 2.99951 38.2549H12.6561C14.1261 38.2549 15.3221 39.4509 15.3221 40.9209V63.958C15.3221 65.4281 14.1262 66.624 12.6561 66.624Z" fill="#1B2B7C"/>
<path d="M30.9933 66.624H21.3367C19.8667 66.624 18.6707 65.428 18.6707 63.958V29.2944C18.6707 27.8244 19.8667 26.6284 21.3367 26.6284H30.9933C32.4633 26.6284 33.6593 27.8244 33.6593 29.2944V63.9581C33.6593 65.4281 32.4633 66.624 30.9933 66.624ZM21.3367 28.6792C20.9975 28.6792 20.7214 28.9552 20.7214 29.2944V63.9581C20.7214 64.2973 20.9975 64.5733 21.3367 64.5733H30.9933C31.3325 64.5733 31.6085 64.2973 31.6085 63.9581V29.2944C31.6085 28.9552 31.3325 28.6792 30.9933 28.6792H21.3367Z" fill="#1B2B7C"/>
<path d="M49.3302 66.6243H39.6736C38.2036 66.6243 37.0076 65.4283 37.0076 63.9583V17.6682C37.0076 16.1982 38.2036 15.0022 39.6736 15.0022H49.3302C50.8002 15.0022 51.9962 16.1982 51.9962 17.6682V63.9583C51.9962 65.4285 50.8002 66.6243 49.3302 66.6243ZM39.6736 17.053C39.3344 17.053 39.0583 17.329 39.0583 17.6682V63.9583C39.0583 64.2975 39.3344 64.5735 39.6736 64.5735H49.3302C49.6694 64.5735 49.9454 64.2975 49.9454 63.9583V17.6682C49.9454 17.329 49.6694 17.053 49.3302 17.053H39.6736Z" fill="#FB5472"/>
<path d="M67.6676 66.6243H58.011C56.541 66.6243 55.345 65.4283 55.345 63.9583V6.04175C55.345 4.57175 56.541 3.37573 58.011 3.37573H67.6676C69.1376 3.37573 70.3336 4.57175 70.3336 6.04175V18.2846C70.3336 18.8509 69.8745 19.31 69.3082 19.31C68.7419 19.31 68.2828 18.8509 68.2828 18.2846V6.04175C68.2828 5.70255 68.0068 5.42651 67.6676 5.42651H58.011C57.6718 5.42651 57.3958 5.70255 57.3958 6.04175V63.9583C57.3958 64.2975 57.6718 64.5735 58.011 64.5735H67.6676C68.0068 64.5735 68.2828 64.2975 68.2828 63.9583V23.0698C68.2828 22.5035 68.7419 22.0444 69.3082 22.0444C69.8745 22.0444 70.3336 22.5035 70.3336 23.0698V63.9583C70.3336 65.4284 69.1376 66.6243 67.6676 66.6243Z" fill="#1B2B7C"/>
</g>
<defs>
<clipPath id="clip0_1422_1868">
<rect width="70" height="70" fill="white" transform="translate(0.333496)"/>
</clipPath>
</defs>
</svg>
