<?xml version="1.0" encoding="utf-8"?>
<!-- Generator: Adobe Illustrator 24.1.2, SVG Export Plug-In . SVG Version: 6.00 Build 0)  -->
<svg version="1.1" id="Слой_1" xmlns="http://www.w3.org/2000/svg" xmlns:xlink="http://www.w3.org/1999/xlink" x="0px" y="0px"
	 viewBox="0 0 16 16" style="enable-background:new 0 0 16 16;" xml:space="preserve">

<path class="st0" d="M14.9,10.1c-0.3-0.4-0.8-0.6-1.3-0.7C13,9.3,12.5,9.2,11.9,9c-0.4-0.1-0.8-0.2-1.2-0.1C10.3,9,10,9.2,9.7,9.5
	L9.3,9.9C8.1,9.1,7.1,8.1,6.3,7l0.4-0.4c0.3-0.3,0.5-0.6,0.6-1c0.1-0.4,0.1-0.8-0.1-1.2C7,3.8,6.9,3.2,6.8,2.6
	c-0.1-0.5-0.3-1-0.7-1.3C5.7,1,5.2,0.8,4.7,0.8h-2C2.4,0.8,2.2,0.9,1.9,1C1.6,1.1,1.4,1.3,1.2,1.5C1,1.7,0.9,2,0.8,2.2
	C0.7,2.5,0.6,2.8,0.7,3.1c0.2,2.2,1,4.3,2.2,6.1c1.1,1.7,2.5,3.2,4.2,4.2c1.8,1.2,3.9,1.9,6.1,2.2c0.1,0,0.1,0,0.2,0
	c0.2,0,0.5,0,0.7-0.1c0.3-0.1,0.5-0.2,0.7-0.4c0.2-0.2,0.4-0.4,0.5-0.7c0.1-0.3,0.2-0.5,0.2-0.8v-2C15.4,11,15.3,10.5,14.9,10.1z
	 M13.9,11.5v2c0,0.1,0,0.2,0,0.2c0,0.1-0.1,0.1-0.1,0.2c-0.1,0.1-0.1,0.1-0.2,0.1s-0.2,0-0.2,0c-1.9-0.2-3.8-0.9-5.4-1.9
	c-1.5-1-2.8-2.3-3.8-3.8C3,6.8,2.4,4.9,2.2,3c0-0.1,0-0.2,0-0.2c0-0.1,0.1-0.1,0.1-0.2s0.1-0.1,0.2-0.1c0.1,0,0.2,0,0.2,0h2
	c0,0,0,0,0,0c0.1,0,0.3,0,0.4,0.1c0.1,0.1,0.2,0.2,0.2,0.4c0.1,0.7,0.3,1.4,0.5,2c0,0.1,0,0.2,0,0.3c0,0.1-0.1,0.2-0.2,0.3L4.9,6.3
	C4.6,6.6,4.6,6.9,4.7,7.2c1,1.8,2.5,3.3,4.3,4.3c0.3,0.2,0.7,0.1,0.9-0.1l0.8-0.8c0.1-0.1,0.2-0.1,0.3-0.2c0.1,0,0.2,0,0.3,0
	c0.7,0.2,1.3,0.4,2,0.5c0.1,0,0.3,0.1,0.4,0.2C13.9,11.2,13.9,11.4,13.9,11.5C13.9,11.5,13.9,11.5,13.9,11.5z"/>
</svg>
