<?xml version="1.0" encoding="utf-8"?>
<!-- Generator: Adobe Illustrator 24.1.2, SVG Export Plug-In . SVG Version: 6.00 Build 0)  -->
<svg version="1.1" id="Слой_1" xmlns="http://www.w3.org/2000/svg" xmlns:xlink="http://www.w3.org/1999/xlink" x="0px" y="0px"
	 viewBox="0 0 42 33" style="enable-background:new 0 0 42 33;" xml:space="preserve">

<path class="st0" d="M41.7,8.7l-0.1-0.3l-0.1,0c-0.4-1.7-1.2-3.3-2.5-4.6c-1.2-1.3-2.8-2.2-4.5-2.6c-1.7-0.4-3.5-0.3-5.2,0.2
	c-1.7,0.6-3.2,1.6-4.3,3c-1.1,1.4-1.8,3-2,4.8c-0.2,1.8,0.1,3.5,0.9,5.1c0.8,1.6,2,2.9,3.5,3.9c1.5,0.9,3.2,1.4,5,1.4
	c0.5,0,0.9-0.1,1.4-0.1c-0.1,0.5-0.3,1-0.5,1.4c-0.2,0.6-0.6,1.2-1,1.8c-0.3,0.6-0.9,1-1.3,1.5c-0.4,0.5-1,0.8-1.4,1.3
	c-0.4,0.4-1,0.7-1.5,1c-0.5,0.3-0.9,0.6-1.4,0.7l-1.1,0.5l-1,0.4l1,4l1.2-0.3c0.4-0.1,0.9-0.2,1.4-0.4c0.6-0.1,1.2-0.4,1.8-0.6
	c0.7-0.3,1.4-0.5,2.1-1c0.7-0.5,1.5-0.8,2.3-1.4c0.7-0.6,1.6-1.2,2.2-2c0.7-0.7,1.4-1.5,1.9-2.4c0.6-0.9,1-1.8,1.5-2.7
	c0.4-0.9,0.7-1.9,1-2.8c0.5-1.8,0.7-3.6,0.8-5.1c0.1-1.5,0-2.7-0.1-3.6C41.8,9.4,41.8,9,41.7,8.7z M18.8,8.7l-0.1-0.3l-0.1,0
	c-0.4-1.7-1.2-3.3-2.5-4.6s-2.8-2.2-4.5-2.6C10,0.8,8.2,0.8,6.5,1.4C4.8,2,3.4,3,2.2,4.4s-1.8,3-2,4.8C0,11,0.3,12.7,1.1,14.3
	c0.8,1.6,2,2.9,3.5,3.9c1.5,0.9,3.2,1.4,5,1.4c0.5,0,0.9-0.1,1.4-0.1c-0.1,0.5-0.3,1-0.5,1.4c-0.2,0.6-0.6,1.2-1,1.8
	c-0.3,0.6-0.9,1-1.3,1.5c-0.4,0.5-1,0.8-1.4,1.3c-0.4,0.4-1,0.7-1.5,1c-0.5,0.3-0.9,0.6-1.4,0.7l-1.1,0.5c-0.6,0.3-1,0.4-1,0.4l1,4
	L4,31.8c0.4-0.1,0.9-0.2,1.4-0.4c0.6-0.1,1.2-0.4,1.8-0.6c0.7-0.3,1.4-0.5,2.1-1c0.7-0.5,1.5-0.8,2.3-1.4c0.7-0.6,1.6-1.2,2.2-2
	c0.7-0.7,1.4-1.5,1.9-2.4c0.6-0.9,1-1.8,1.5-2.7c0.4-0.9,0.7-1.9,1-2.8c0.5-1.8,0.7-3.6,0.8-5.1c0.1-1.5,0-2.7-0.1-3.6
	C18.9,9.4,18.9,9,18.8,8.7z"/>
</svg>
