<?xml version="1.0" standalone="no"?>
<svg xmlns:xlink="http://www.w3.org/1999/xlink" id="wave" style="transform:rotate(180deg); transition: 0.3s" viewBox="0 0 1440 490" version="1.1" xmlns="http://www.w3.org/2000/svg"><defs><linearGradient id="sw-gradient-0" x1="0" x2="0" y1="1" y2="0"><stop stop-color="rgba(102, 33, 167, 1)" offset="0%"/><stop stop-color="rgba(120, 33, 202, 0.61)" offset="100%"/></linearGradient></defs><path style="transform:translate(0, 0px); opacity:1" fill="url(#sw-gradient-0)" d="M0,294L26.7,294C53.3,294,107,294,160,310.3C213.3,327,267,359,320,359.3C373.3,359,427,327,480,334.8C533.3,343,587,392,640,383.8C693.3,376,747,310,800,236.8C853.3,163,907,82,960,114.3C1013.3,147,1067,294,1120,367.5C1173.3,441,1227,441,1280,424.7C1333.3,408,1387,376,1440,343C1493.3,310,1547,278,1600,245C1653.3,212,1707,180,1760,171.5C1813.3,163,1867,180,1920,196C1973.3,212,2027,229,2080,253.2C2133.3,278,2187,310,2240,326.7C2293.3,343,2347,343,2400,359.3C2453.3,376,2507,408,2560,408.3C2613.3,408,2667,376,2720,318.5C2773.3,261,2827,180,2880,163.3C2933.3,147,2987,196,3040,236.8C3093.3,278,3147,310,3200,310.3C3253.3,310,3307,278,3360,269.5C3413.3,261,3467,278,3520,253.2C3573.3,229,3627,163,3680,155.2C3733.3,147,3787,196,3813,220.5L3840,245L3840,490L3813.3,490C3786.7,490,3733,490,3680,490C3626.7,490,3573,490,3520,490C3466.7,490,3413,490,3360,490C3306.7,490,3253,490,3200,490C3146.7,490,3093,490,3040,490C2986.7,490,2933,490,2880,490C2826.7,490,2773,490,2720,490C2666.7,490,2613,490,2560,490C2506.7,490,2453,490,2400,490C2346.7,490,2293,490,2240,490C2186.7,490,2133,490,2080,490C2026.7,490,1973,490,1920,490C1866.7,490,1813,490,1760,490C1706.7,490,1653,490,1600,490C1546.7,490,1493,490,1440,490C1386.7,490,1333,490,1280,490C1226.7,490,1173,490,1120,490C1066.7,490,1013,490,960,490C906.7,490,853,490,800,490C746.7,490,693,490,640,490C586.7,490,533,490,480,490C426.7,490,373,490,320,490C266.7,490,213,490,160,490C106.7,490,53,490,27,490L0,490Z"/><defs><linearGradient id="sw-gradient-1" x1="0" x2="0" y1="1" y2="0"><stop stop-color="rgba(102, 33, 167, 1)" offset="0%"/><stop stop-color="rgba(120, 33, 202, 0.32)" offset="100%"/></linearGradient></defs><path style="transform:translate(0, 50px); opacity:0.9" fill="url(#sw-gradient-1)" d="M0,0L26.7,57.2C53.3,114,107,229,160,236.8C213.3,245,267,147,320,106.2C373.3,65,427,82,480,147C533.3,212,587,327,640,343C693.3,359,747,278,800,261.3C853.3,245,907,294,960,326.7C1013.3,359,1067,376,1120,359.3C1173.3,343,1227,294,1280,277.7C1333.3,261,1387,278,1440,269.5C1493.3,261,1547,229,1600,212.3C1653.3,196,1707,196,1760,196C1813.3,196,1867,196,1920,179.7C1973.3,163,2027,131,2080,155.2C2133.3,180,2187,261,2240,310.3C2293.3,359,2347,376,2400,392C2453.3,408,2507,425,2560,408.3C2613.3,392,2667,343,2720,318.5C2773.3,294,2827,294,2880,310.3C2933.3,327,2987,359,3040,383.8C3093.3,408,3147,425,3200,367.5C3253.3,310,3307,180,3360,106.2C3413.3,33,3467,16,3520,57.2C3573.3,98,3627,196,3680,204.2C3733.3,212,3787,131,3813,89.8L3840,49L3840,490L3813.3,490C3786.7,490,3733,490,3680,490C3626.7,490,3573,490,3520,490C3466.7,490,3413,490,3360,490C3306.7,490,3253,490,3200,490C3146.7,490,3093,490,3040,490C2986.7,490,2933,490,2880,490C2826.7,490,2773,490,2720,490C2666.7,490,2613,490,2560,490C2506.7,490,2453,490,2400,490C2346.7,490,2293,490,2240,490C2186.7,490,2133,490,2080,490C2026.7,490,1973,490,1920,490C1866.7,490,1813,490,1760,490C1706.7,490,1653,490,1600,490C1546.7,490,1493,490,1440,490C1386.7,490,1333,490,1280,490C1226.7,490,1173,490,1120,490C1066.7,490,1013,490,960,490C906.7,490,853,490,800,490C746.7,490,693,490,640,490C586.7,490,533,490,480,490C426.7,490,373,490,320,490C266.7,490,213,490,160,490C106.7,490,53,490,27,490L0,490Z"/></svg>