<svg width="411" height="206" viewBox="0 0 411 206" fill="none" xmlns="http://www.w3.org/2000/svg">
<path opacity="0.3" fill-rule="evenodd" clip-rule="evenodd" d="M12.6493 187.689C9.12829 187.689 6.27396 184.835 6.27396 181.314C6.27396 177.793 9.12829 174.938 12.6493 174.938C16.1703 174.938 19.0246 177.793 19.0246 181.314C19.0246 184.835 16.1703 187.689 12.6493 187.689ZM12.6493 193.267C6.04742 193.267 0.695543 187.915 0.695543 181.314C0.695543 174.712 6.04742 169.36 12.6493 169.36C19.2512 169.36 24.603 174.712 24.603 181.314C24.603 187.915 19.2512 193.267 12.6493 193.267Z" fill="#FB5472"/>
<path opacity="0.2" fill-rule="evenodd" clip-rule="evenodd" d="M333.343 24.0887C329.1 24.0887 325.661 20.6491 325.661 16.4061C325.661 12.1632 329.1 8.72356 333.343 8.72356C337.586 8.72356 341.026 12.1632 341.026 16.4061C341.026 20.6491 337.586 24.0887 333.343 24.0887ZM333.343 32.0579C324.699 32.0579 317.692 25.0503 317.692 16.4061C317.692 7.76192 324.699 0.754395 333.343 0.754395C341.988 0.754395 348.995 7.76192 348.995 16.4061C348.995 25.0503 341.988 32.0579 333.343 32.0579Z" fill="#1B2B7C"/>
<circle opacity="0.3" cx="236" cy="245.406" r="135" stroke="#DBDFF3" stroke-width="80"/>
</svg>
