<svg width="1920" height="1000" viewBox="0 0 1920 1000" fill="none" xmlns="http://www.w3.org/2000/svg">
<path d="M0 25.2793C0 25.2793 260 4.46795 376 0.305681C492 -3.85659 1164 35.6847 1492 46.0906C1820 56.4964 1920 25.2793 1920 25.2793V953.466C1920 953.466 1624 1013.82 1360 980.521C1096 947.222 710 924.33 432 980.521C154 1036.71 0 953.466 0 953.466V25.2793Z" fill="url(#paint0_linear_1440_2531)"/>
<mask id="mask0_1440_2531" style="mask-type:alpha" maskUnits="userSpaceOnUse" x="0" y="0" width="1920" height="1000">
<path d="M0 25.2793C0 25.2793 260 4.46795 376 0.305681C492 -3.85659 1164 35.6847 1492 46.0906C1820 56.4964 1920 25.2793 1920 25.2793V953.466C1920 953.466 1624 1013.82 1360 980.521C1096 947.222 710 924.33 432 980.521C154 1036.71 0 953.466 0 953.466V25.2793Z" fill="url(#paint1_linear_1440_2531)"/>
</mask>
<g mask="url(#mask0_1440_2531)">
<g opacity="0.2">
<path opacity="0.4" d="M1110.35 533.359C1112.46 532.513 1113.73 532.09 1124.3 531.244C1123.88 531.667 1123.46 532.09 1123.03 532.513C1122.61 532.936 1122.61 533.359 1122.19 533.359C1120.07 533.782 1117.54 533.782 1115.42 534.205C1115.42 534.205 1109.5 535.052 1108.23 535.898C1109.08 535.052 1109.92 534.205 1110.35 533.359Z" fill="#3D5D82"/>
<path opacity="0.4" d="M1622.42 391.226C1622 390.803 1621.57 390.803 1620.73 390.803C1630.88 394.188 1643.99 398.418 1654.13 402.225C1655.83 402.648 1657.52 403.494 1658.79 403.917C1648.21 400.11 1633.84 394.611 1622.42 391.226Z" fill="#3D5D82"/>
<path opacity="0.4" d="M1294.71 404.763C1301.48 402.648 1301.48 402.648 1310.78 400.533C1309.93 400.956 1309.09 401.379 1307.82 401.802C1305.7 402.225 1303.17 403.071 1301.05 403.494C1298.09 404.34 1294.29 405.609 1291.75 406.455C1293.02 405.609 1293.86 405.186 1294.71 404.763Z" fill="#3D5D82"/>
<path opacity="0.4" d="M1210.56 448.333C1243.97 428.452 1254.96 422.529 1301.05 404.34C1284.14 411.954 1266.38 418.299 1249.89 426.337C1236.78 432.682 1219.86 442.834 1207.18 450.448C1208.02 450.025 1209.29 449.179 1210.56 448.333Z" fill="#3D5D82"/>
<path opacity="0.4" d="M1460.89 370.076C1461.32 370.076 1462.16 370.076 1462.58 370.076C1419.45 373.037 1385.2 375.152 1326.85 395.034C1326.42 395.034 1325.58 395.034 1325.16 395.457C1362.79 383.189 1392.39 373.46 1460.89 370.076Z" fill="#3D5D82"/>
<path opacity="0.4" d="M1379.7 395.034C1379.28 395.457 1378.86 395.88 1378.01 395.88C1356.87 397.572 1335.3 397.995 1314.16 400.11C1316.7 399.264 1319.66 398.418 1379.7 395.034Z" fill="#3D5D82"/>
<path opacity="0.4" d="M1004.21 721.178C1020.28 676.338 1040.15 620.5 1115.42 543.512C1111.62 553.664 1098.93 562.124 1091.32 569.739C1068.91 593.85 1027.47 646.304 1002.52 725.408V724.562C1003.36 723.293 1003.79 722.447 1004.21 721.178Z" fill="#3D5D82"/>
<path opacity="0.4" d="M996.854 739.877C997.277 739.031 996.431 737.628 996.854 736.359C1000.66 742.705 1017.32 751.633 1080.32 760.516C1079.9 761.785 1079.9 762.208 1079.9 763.477C1023.24 756.286 998.546 747.491 996.854 739.877C996.431 740.3 996.854 740.3 996.854 739.877Z" fill="#3D5D82"/>
<path opacity="0.4" d="M989.41 946.642C984.336 883.613 1007.59 837.927 1079.06 771.937C1079.06 772.783 1079.06 773.629 1079.48 774.052C1014.78 837.081 983.49 881.921 990.256 950.449C989.833 949.18 989.833 947.911 989.41 946.642Z" fill="#3D5D82"/>
<path opacity="0.4" d="M997.867 986.404C1000.83 987.673 1006.32 990.634 1119.65 994.864C1120.07 996.133 1120.07 996.556 1120.07 997.825C1089.2 996.979 1000.83 993.595 998.713 989.788C998.29 988.519 997.867 987.673 997.867 986.404Z" fill="#3D5D82"/>
<path opacity="0.4" d="M1119.23 544.358C1119.65 543.935 1120.07 543.512 1120.5 543.089C1100.2 581.16 1069.75 638.689 1087.94 746.98C1087.51 747.403 1086.67 748.249 1086.24 748.672C1079.9 700.449 1070.18 627.691 1119.23 544.358Z" fill="#3D5D82"/>
<path opacity="0.4" d="M1295.98 407.301H1296.4C1252 428.875 1201.68 452.986 1139.94 518.554C1170.39 487.251 1211.83 444.526 1295.98 407.301Z" fill="#3D5D82"/>
<path opacity="0.4" d="M1302.74 404.763C1303.59 404.34 1304.01 404.34 1304.86 403.917C1278.22 418.722 1228.32 445.795 1239.74 508.401C1238.89 509.247 1238.47 509.247 1237.63 510.093C1234.67 484.713 1229.59 441.988 1302.74 404.763Z" fill="#3D5D82"/>
<path opacity="0.4" d="M1230.86 517.284C1230.44 518.13 1230.01 518.553 1229.59 519.399C1175.46 524.898 1157.7 527.437 1131.91 531.667C1133.6 530.398 1136.14 527.014 1230.86 517.284Z" fill="#3D5D82"/>
<path opacity="0.4" d="M1089.62 782.935C1090.05 782.935 1090.89 782.512 1091.32 782.089C1093.85 830.312 1096.81 890.38 1126.41 978.789C1125.99 978.789 1125.14 979.212 1124.3 979.635C1109.5 930.989 1090.89 871.344 1089.62 782.935C1089.2 782.935 1089.62 782.935 1089.62 782.935Z" fill="#3D5D82"/>
<path opacity="0.4" d="M1228.75 529.976C1229.17 529.976 1229.59 530.399 1229.59 530.399C1174.62 597.657 1137.41 651.803 1097.66 746.134C1097.24 746.134 1096.82 745.711 1096.82 745.711C1126.42 673.376 1157.28 615.001 1228.75 529.976Z" fill="#3D5D82"/>
<path opacity="0.4" d="M1238.05 529.553C1238.47 529.13 1239.32 528.707 1240.17 528.707C1235.94 597.234 1247.78 664.493 1323.47 803.241C1322.62 803.664 1321.78 804.51 1320.93 804.933C1261.73 694.527 1229.59 614.155 1238.05 529.553C1237.63 529.553 1238.05 529.553 1238.05 529.553Z" fill="#3D5D82"/>
<path opacity="0.4" d="M1100.62 768.553C1100.62 768.13 1101.04 767.284 1101.47 765.592C1134.45 775.321 1184.34 789.703 1314.16 815.084C1314.16 815.93 1313.74 816.776 1313.74 817.622C1229.59 803.24 1145.87 782.512 1100.62 768.553C1100.62 768.976 1100.62 768.553 1100.62 768.553Z" fill="#3D5D82"/>
<path opacity="0.4" d="M1372.09 401.802C1338.26 423.799 1303.17 446.641 1252 505.017C1251.58 505.017 1251.16 504.594 1250.73 504.594C1279.49 473.291 1315.01 434.797 1372.09 401.802Z" fill="#3D5D82"/>
<path opacity="0.4" d="M1429.6 472.868C1429.6 473.291 1429.6 474.137 1429.6 474.56C1371.67 487.25 1311.63 499.941 1252 515.169C1252.43 514.746 1252.43 513.9 1252.85 513.477C1278.64 507.132 1305.71 499.941 1429.6 472.868Z" fill="#3D5D82"/>
<path opacity="0.4" d="M1315.01 830.312C1315.43 831.159 1315.86 832.005 1316.28 832.428C1236.36 895.034 1196.19 926.337 1141.64 987.674C1141.22 987.251 1140.79 986.405 1140.37 985.559C1164.47 957.217 1197.88 918.3 1315.01 830.312Z" fill="#3D5D82"/>
<path opacity="0.4" d="M1145.02 999.517C1145.02 998.671 1145.02 998.248 1144.6 996.979C1195.76 1002.9 1240.16 1007.55 1350.53 1017.28C1350.53 1018.13 1350.53 1018.98 1350.53 1019.4C1265.53 1013.9 1157.28 1001.63 1145.02 999.517C1145.44 999.94 1145.02 999.94 1145.02 999.517Z" fill="#3D5D82"/>
<path opacity="0.4" d="M1381.82 399.264C1382.24 398.841 1383.09 398.841 1383.51 398.418C1381.39 416.185 1388.16 430.567 1433.41 464.408C1432.98 465.254 1432.56 465.254 1432.14 466.1C1390.27 433.951 1378.86 419.146 1381.82 399.264C1381.39 399.264 1381.82 399.264 1381.82 399.264Z" fill="#3D5D82"/>
<path opacity="0.4" d="M1470.19 369.653C1471.04 369.653 1471.89 369.653 1473.15 369.653C1412.26 370.922 1382.24 378.959 1384.35 392.919C1383.51 393.342 1383.09 393.342 1382.24 393.765C1380.97 379.382 1410.15 371.345 1470.19 369.653C1469.77 369.653 1469.77 369.653 1470.19 369.653Z" fill="#3D5D82"/>
<path opacity="0.4" d="M1478.65 369.653L1479.07 370.076C1476.96 370.922 1475.27 371.768 1465.54 374.306C1441.02 381.074 1416.49 386.997 1391.97 393.765C1393.23 392.919 1393.23 392.919 1409.73 388.689C1411.42 388.266 1419.03 386.151 1449.9 378.113C1474.85 371.768 1476.96 370.922 1479.07 370.076C1478.65 369.653 1478.65 369.653 1478.65 369.653Z" fill="#3D5D82"/>
<path opacity="0.4" d="M1742.51 446.218C1743.36 446.641 1744.2 447.487 1745.05 447.91C1747.58 449.602 1750.54 452.14 1752.24 455.101C1753.08 456.793 1752.66 459.331 1752.66 461.447C1751.81 461.024 1750.97 460.177 1750.12 459.754C1750.54 457.639 1750.54 454.255 1749.28 452.563C1748.01 450.025 1744.62 447.91 1742.51 446.218Z" fill="#3D5D82"/>
<path opacity="0.4" d="M1479.92 369.653C1484.57 373.037 1487.53 375.152 1480.34 396.303C1474.84 412.378 1460.04 439.45 1448.2 461.447C1447.78 461.447 1447.36 461.024 1446.94 461.024C1478.65 400.533 1490.91 378.113 1479.92 369.653Z" fill="#3D5D82"/>
<path opacity="0.4" d="M1436.37 482.597C1436.79 482.597 1437.63 483.02 1438.06 483.02C1391.54 611.615 1368.29 675.913 1337.42 801.548C1337 801.548 1336.15 801.125 1335.73 801.125C1349.68 736.404 1371.67 653.071 1436.37 482.597Z" fill="#3D5D82"/>
<path opacity="0.4" d="M1538.7 598.925C1539.12 599.348 1539.96 599.771 1540.39 600.194C1479.07 672.529 1409.3 736.827 1345.45 806.624C1345.03 806.201 1344.18 805.355 1343.76 804.932C1406.34 734.289 1476.11 669.991 1538.7 598.925Z" fill="#3D5D82"/>
<path opacity="0.4" d="M1332.77 840.041C1333.61 840.041 1334.04 840.041 1335.3 839.618C1342.92 889.534 1348.84 928.874 1365.33 1002.06C1364.48 1002.06 1363.64 1002.06 1363.21 1002.48C1354.76 966.523 1344.18 922.106 1332.77 840.041Z" fill="#3D5D82"/>
<path opacity="0.4" d="M1349.68 822.698C1349.68 821.852 1349.68 820.583 1349.68 819.737C1452.86 825.236 1555.61 830.312 1658.78 835.811C1658.78 836.657 1658.78 837.927 1658.78 839.196C1556.03 833.273 1452.86 828.62 1349.68 822.698C1349.68 823.121 1349.68 822.698 1349.68 822.698Z" fill="#3D5D82"/>
<path opacity="0.4" d="M1660.48 847.233C1660.9 848.079 1661.32 849.348 1661.75 850.194C1571.26 908.147 1476.54 957.639 1384.36 1012.21C1383.93 1011.36 1383.09 1010.52 1382.66 1009.67C1475.27 955.101 1570.41 905.608 1660.48 847.233Z" fill="#3D5D82"/>
<path opacity="0.4" d="M1447.78 480.905C1448.63 480.482 1449.05 480.059 1449.47 479.636C1472.73 507.555 1479.5 515.592 1539.12 575.66C1538.27 576.506 1537.85 576.506 1537.43 577.352C1483.73 523.206 1469.35 507.978 1447.78 480.905Z" fill="#3D5D82"/>
<path opacity="0.4" d="M1502.33 381.497C1502.75 381.497 1502.75 381.92 1503.18 381.92C1503.6 398.418 1498.53 411.954 1450.74 462.716C1450.32 462.293 1449.9 461.87 1449.47 461.447C1483.73 425.068 1504.45 400.956 1502.33 381.497Z" fill="#3D5D82"/>
<path opacity="0.4" d="M1599.16 443.257C1599.59 443.68 1600.01 444.103 1600.43 444.526C1566.6 452.563 1529.82 458.908 1453.7 470.753C1453.7 470.33 1453.7 469.484 1453.7 469.061C1510.36 459.754 1554.76 452.986 1599.16 443.257Z" fill="#3D5D82"/>
<path opacity="0.4" d="M1581.4 388.688C1635.53 412.377 1693.46 443.68 1753.93 542.666C1753.51 542.666 1753.08 542.666 1753.08 542.666C1712.49 480.906 1671.9 426.337 1581.4 388.688Z" fill="#3D5D82"/>
<path opacity="0.4" d="M1753.93 467.792C1754.35 468.215 1783.53 492.749 1765.34 549.856C1764.5 549.01 1764.08 548.587 1763.23 547.741C1770 524.052 1776.34 502.056 1753.93 467.792Z" fill="#3D5D82"/>
<path opacity="0.4" d="M1574.22 386.996C1583.94 389.957 1597.05 402.648 1597.9 403.917C1607.62 417.876 1608.04 419.991 1608.89 436.489C1608.04 436.066 1607.62 435.643 1606.78 435.22C1605.08 410.685 1601.28 403.071 1574.22 386.996Z" fill="#3D5D82"/>
<path opacity="0.4" d="M1507.83 381.92C1534.04 395.457 1554.76 407.301 1595.78 433.951C1595.78 434.374 1595.36 434.374 1595.36 434.797C1557.72 410.262 1538.7 398.418 1507.83 381.92Z" fill="#3D5D82"/>
<path opacity="0.4" d="M1676.97 858.654C1677.81 858.654 1678.24 858.654 1679.93 858.231C1683.73 918.299 1685.85 959.755 1681.2 1027.86C1680.77 1027.86 1679.93 1027.86 1679.08 1027.86C1681.2 967.792 1682.46 931.413 1676.97 858.654Z" fill="#3D5D82"/>
<path opacity="0.4" d="M1479.07 369.653H1478.65C1483.72 370.076 1504.87 371.768 1559.84 381.92C1560.68 382.344 1561.11 382.344 1561.95 382.767C1505.71 372.191 1484.15 370.076 1479.07 369.653Z" fill="#3D5D82"/>
<path opacity="0.4" d="M1480.76 370.076C1480.76 369.653 1480.34 369.653 1480.76 370.076C1485.42 371.345 1491.76 373.883 1496.41 375.575C1491.34 373.883 1485.42 371.345 1480.76 370.076Z" fill="#3D5D82"/>
<path opacity="0.4" d="M1506.14 379.382C1505.71 379.382 1505.71 378.959 1505.29 378.959C1537 381.497 1545.04 381.92 1563.22 383.612C1564.07 384.035 1564.91 384.035 1565.34 384.458C1548.42 382.343 1538.7 381.497 1506.14 379.382Z" fill="#3D5D82"/>
<path opacity="0.4" d="M1619.04 450.448C1619.04 450.025 1619.04 449.602 1619.46 449.602C1674.85 486.828 1698.53 504.594 1748.01 544.781C1748.01 545.204 1747.58 545.627 1747.58 546.05C1697.69 505.44 1673.59 487.674 1619.04 450.448C1619.04 450.871 1619.04 450.448 1619.04 450.448Z" fill="#3D5D82"/>
<path opacity="0.4" d="M1606.78 450.025C1607.2 450.448 1607.62 450.448 1608.04 450.871C1607.62 473.714 1606.78 504.594 1558.99 576.93C1558.15 576.083 1557.72 576.083 1556.88 575.237C1578.44 541.396 1608.04 494.865 1606.78 450.025Z" fill="#3D5D82"/>
<path opacity="0.4" d="M1811.86 812.546C1811.86 813.815 1812.28 814.238 1812.28 815.93C1767.04 824.813 1752.66 827.351 1693.88 837.504C1693.88 835.812 1693.88 835.812 1693.46 834.12C1752.66 823.967 1767.04 821.429 1811.86 812.546Z" fill="#3D5D82"/>
<path opacity="0.4" d="M1557.3 603.155C1558.15 602.732 1558.99 602.732 1559.42 602.309C1597.05 668.722 1632.15 731.328 1670.63 819.737C1670.2 820.16 1669.36 820.16 1668.51 820.583C1631.3 740.634 1617.35 710.6 1557.3 603.155C1556.88 603.155 1557.3 603.155 1557.3 603.155Z" fill="#3D5D82"/>
<path opacity="0.4" d="M1750.97 557.47C1751.39 557.893 1751.81 558.739 1752.24 559.162C1734.9 562.969 1698.54 571.006 1565.76 587.504C1565.76 587.081 1565.34 586.235 1565.34 585.389C1735.32 560.431 1735.32 560.431 1750.97 557.47Z" fill="#3D5D82"/>
<path opacity="0.4" d="M1761.12 568.891C1761.54 569.314 1761.96 569.314 1762.38 569.737C1765.77 632.766 1754.35 697.064 1687.54 823.121C1686.69 822.698 1685.85 821.852 1685 821.429C1725.17 743.172 1764.92 659.416 1761.12 568.891Z" fill="#3D5D82"/>
<path opacity="0.4" d="M1621.15 390.803C1684.58 409.416 1727.29 442.834 1741.24 453.833C1740.82 453.833 1740.82 453.41 1740.4 453.41C1740.4 453.41 1739.97 452.987 1739.55 452.987C1731.94 449.179 1723.48 441.142 1716.72 436.066C1702.34 425.068 1673.58 408.57 1621.15 390.803Z" fill="#3D5D82"/>
<path opacity="0.4" d="M1580.98 387.419C1580.56 387.419 1580.14 386.996 1579.71 386.996C1643.14 406.878 1678.24 421.684 1736.59 453.833C1737.02 454.256 1737.44 454.679 1737.86 455.102C1690.92 429.298 1654.98 410.685 1580.98 387.419C1581.4 387.842 1580.98 387.419 1580.98 387.419Z" fill="#3D5D82"/>
<path opacity="0.4" d="M1773.8 569.314C1773.8 568.891 1774.23 568.468 1774.23 568.045C1814.4 607.386 1841.04 634.036 1880.36 688.605C1880.36 689.028 1879.94 689.451 1879.94 689.874C1848.22 647.995 1828.77 623.037 1773.8 569.314C1773.8 569.737 1773.8 569.314 1773.8 569.314Z" fill="#3D5D82"/>
<path opacity="0.4" d="M1767.46 571.429C1767.88 571.429 1768.3 571.429 1768.73 571.429C1786.91 610.346 1817.36 675.067 1825.39 791.818C1824.97 791.818 1824.54 791.818 1824.12 791.818C1816.09 722.444 1808.48 656.878 1767.46 571.429Z" fill="#3D5D82"/>
<path opacity="0.4" d="M1817.36 826.505C1817.78 826.928 1818.62 827.774 1819.05 828.197C1797.48 875.575 1772.53 928.874 1691.35 1031.67C1690.92 1031.24 1690.08 1030.4 1689.23 1029.97C1753.51 947.487 1785.64 896.302 1817.36 826.505Z" fill="#3D5D82"/>
<path opacity="0.4" d="M1885.86 985.98C1886.28 985.98 1886.7 986.403 1887.13 986.403C1871.06 1029.97 1863.87 1049.86 1838.92 1093.85C1838.5 1093.85 1838.08 1093.43 1837.65 1093.43C1858.37 1053.24 1870.21 1031.24 1885.86 985.98Z" fill="#3D5D82"/>
<path opacity="0.4" d="M1882.05 971.599C1882.05 972.445 1882.05 973.291 1882.05 974.137C1847.38 991.057 1808.9 1007.55 1694.73 1042.66C1694.73 1041.82 1694.73 1040.97 1694.73 1040.55C1813.13 1001.21 1828.35 996.133 1882.05 971.599Z" fill="#3D5D82"/>
<path opacity="0.4" d="M1885.01 713.984C1885.86 715.253 1885.86 715.253 1886.7 716.522C1872.33 747.826 1867.25 759.247 1835.54 801.125C1835.11 799.856 1834.69 799.433 1833.85 798.587C1858.79 764.746 1868.1 752.479 1885.01 713.984Z" fill="#3D5D82"/>
<path opacity="0.4" d="M1833.85 827.775C1834.69 826.929 1834.69 826.506 1835.11 826.083C1854.57 862.039 1874.86 899.264 1889.24 952.141C1888.39 952.987 1888.39 952.987 1887.55 954.256C1876.98 919.146 1865.56 882.767 1833.85 827.775Z" fill="#3D5D82"/>
<path opacity="0.4" d="M1893.89 595.964C1928.57 654.34 1935.76 669.992 1955.63 734.29C1934.91 668.3 1928.14 653.071 1893.89 595.964Z" fill="#3D5D82"/>
<path opacity="0.4" d="M1764.08 470.753C1763.65 470.33 1763.23 469.907 1763.23 469.484C1796.64 492.326 1837.65 520.245 1874.86 568.046C1875.29 568.469 1875.29 568.892 1875.71 569.315C1852.45 542.242 1826.24 511.362 1764.08 470.753C1764.08 471.176 1764.08 471.176 1764.08 470.753Z" fill="#3D5D82"/>
<path opacity="0.4" d="M1762.39 472.868C1763.23 473.291 1852.45 538.011 1887.13 687.334C1886.7 687.334 1886.28 686.911 1886.28 686.911C1870.64 629.805 1849.07 551.548 1762.39 472.868Z" fill="#3D5D82"/>
<path opacity="0.4" d="M1887.97 587.504C1903.19 609.077 1916.73 645.457 1895.16 696.641C1894.31 695.372 1894.32 694.949 1893.47 694.103C1903.19 667.03 1915.46 634.035 1887.97 587.504Z" fill="#3D5D82"/>
<path opacity="0.4" d="M1576.33 379.382C1577.6 379.805 1578.87 379.805 1580.14 380.228L1597.05 384.035C1594.94 383.612 1594.94 383.612 1576.33 379.382Z" fill="#3D5D82"/>
<path opacity="0.4" d="M1506.56 370.499C1507.83 370.499 1508.67 370.499 1509.94 370.499C1544.19 373.037 1561.11 376.844 1568.29 382.766C1567.45 382.343 1566.6 382.343 1565.76 381.92C1564.91 381.497 1563.64 380.651 1562.8 379.805C1561.95 379.382 1557.3 376.844 1547.15 374.729C1532.77 372.191 1516.28 370.922 1506.56 370.499Z" fill="#3D5D82"/>
<path opacity="0.4" d="M1572.52 384.459C1571.68 384.036 1571.26 384.036 1570.41 383.613C1589.02 384.459 1597.05 385.305 1604.24 386.151C1605.08 386.574 1606.35 386.574 1607.2 386.997C1600.43 386.151 1593.67 385.728 1572.52 384.459Z" fill="#3D5D82"/>
<path opacity="0.4" d="M1899.81 975.405C1900.24 974.136 1900.66 973.29 1900.66 972.867C1918.84 989.788 1933.22 1002.9 1939.14 1027.44C1938.72 1028.28 1938.29 1029.13 1937.87 1030.4C1932.8 1013.48 1928.99 1001.63 1899.81 975.405C1899.81 975.828 1899.81 975.405 1899.81 975.405Z" fill="#3D5D82"/>
<path opacity="0.4" d="M1893.47 722.021C1893.89 722.021 1894.31 722.021 1894.74 722.444C1909.54 798.587 1913.34 851.886 1897.27 949.179C1896.85 949.179 1896.43 949.179 1896.01 948.756C1908.69 863.73 1910.81 813.392 1893.47 722.021Z" fill="#3D5D82"/>
<path opacity="0.4" d="M1899.39 709.331C1899.39 708.062 1898.97 707.216 1898.97 706.793C1932.37 722.868 1944.21 730.059 1957.32 746.556C1957.74 747.402 1957.74 748.671 1958.17 749.517C1945.9 735.135 1937.45 727.521 1899.39 709.331C1899.81 709.754 1899.39 709.331 1899.39 709.331Z" fill="#3D5D82"/>
<path opacity="0.4" d="M1961.55 763.9C1961.97 764.746 1981.84 842.58 1902.35 956.793C1902.35 955.947 1901.93 955.101 1901.93 954.678C1928.57 912.8 1969.16 850.194 1961.55 763.9Z" fill="#3D5D82"/>
<path opacity="0.4" d="M1002.94 724.56C1000.83 732.174 996.599 748.672 994.484 756.286C997.444 745.711 999.982 735.135 1002.94 724.56Z" fill="#3D5D82"/>
<path opacity="0.4" d="M1478.23 369.653C1469.77 369.653 1462.58 370.076 1457.93 370.076C1464.7 369.653 1471.46 369.653 1478.23 369.653Z" fill="#3D5D82"/>
<path opacity="0.4" d="M1313.32 399.263C1304.86 402.647 1297.25 405.609 1295.56 406.878C1298.09 406.455 1328.96 394.61 1329.81 393.764C1328.12 394.187 1320.93 396.725 1313.32 399.263Z" fill="#3D5D82"/>
<path d="M1118.36 543.133L1118.36 543.133L1118.36 543.138C1117.66 543.631 1117.09 543.974 1116.63 544.188C1116.62 544.19 1116.62 544.193 1116.61 544.195C1116.72 543.901 1116.9 543.519 1117.17 543.04C1117.58 542.28 1118.17 541.364 1118.92 540.306C1120.41 538.194 1122.49 535.594 1125.01 532.654C1128.35 528.898 1131.67 525.677 1134.46 523.355C1135.86 522.191 1137.1 521.269 1138.12 520.621C1138.3 520.507 1138.47 520.403 1138.63 520.31C1138.51 520.555 1138.37 520.831 1138.2 521.137C1137.08 523.12 1135.1 525.814 1132.71 528.702C1127.93 534.492 1121.79 540.712 1118.36 543.133ZM1139.09 518.991C1139.09 518.985 1139.09 518.982 1139.09 518.982C1139.09 518.982 1139.09 518.985 1139.09 518.991Z" stroke="#3D5D82" stroke-opacity="0.4" stroke-width="3"/>
<path d="M1080.95 763.771L1080.95 763.771L1080.95 763.758C1081.77 759.469 1083.39 755.132 1085.68 751.855C1087.96 748.582 1090.75 746.556 1093.9 746.364C1096.19 746.378 1097.86 747.547 1099.04 749.648C1100.26 751.831 1100.89 754.967 1100.86 758.549C1100.81 765.737 1098.15 773.969 1093.65 778.475C1090.35 781.581 1087.04 782.039 1084.75 780.776C1082.4 779.48 1080.35 775.963 1080.55 769.446L1080.55 769.423V769.399C1080.55 767.692 1080.56 765.72 1080.95 763.771Z" stroke="#3D5D82" stroke-opacity="0.4" stroke-width="3"/>
<path d="M1121.12 996.681C1119.9 990.563 1120.66 986.43 1122.2 983.841C1123.71 981.321 1126.05 980.079 1128.52 979.871C1135.57 980.491 1140.49 986.782 1142.68 994.28C1143.77 997.998 1144.12 1001.85 1143.75 1005.14C1143.37 1008.47 1142.27 1010.98 1140.68 1012.32C1138.13 1014.35 1134.21 1014.49 1130.33 1012.05C1126.47 1009.61 1122.75 1004.62 1121.12 996.681Z" stroke="#3D5D82" stroke-opacity="0.4" stroke-width="3"/>
<path d="M1231.74 519.151C1231.87 518.936 1232 518.729 1232.11 518.531C1234.16 515.679 1236.9 512.642 1239.97 510.276C1243.06 507.895 1246.35 506.293 1249.51 506.094C1251.22 506.103 1251.88 506.676 1252.18 507.251C1252.55 507.985 1252.63 509.253 1252.14 511.077C1251.17 514.666 1248.28 519.311 1244.6 522.992C1240.54 527.051 1236.29 529.064 1233.17 529.437C1231.6 529.624 1230.45 529.387 1229.72 528.952C1229.07 528.562 1228.64 527.946 1228.55 526.959C1228.57 525.619 1229.08 524.087 1229.83 522.538C1230.44 521.279 1231.14 520.13 1231.74 519.151Z" stroke="#3D5D82" stroke-opacity="0.4" stroke-width="3"/>
<path opacity="0.4" d="M1379.28 395.457C1385.2 392.496 1391.97 389.958 1394.93 389.958C1395.35 389.958 1396.62 389.958 1394.93 391.65C1389.43 396.726 1371.67 404.763 1372.09 401.379C1372.09 400.11 1374.63 397.995 1379.28 395.457Z" fill="#3D5D82"/>
<path d="M1314.81 820.224L1314.81 820.224L1314.81 820.216C1315.01 814.809 1316.81 810.419 1319.74 807.341C1322.66 804.276 1326.81 802.406 1331.95 802.202C1336.58 802.207 1340.14 803.609 1342.74 805.78C1345.36 807.966 1347.1 811.004 1347.96 814.395C1349.7 821.239 1347.78 829.213 1342.74 833.864L1342.72 833.884L1342.7 833.905C1338.08 838.525 1330.9 839.718 1324.95 837.426C1319.12 835.176 1314.42 829.532 1314.81 820.224Z" stroke="#3D5D82" stroke-opacity="0.4" stroke-width="3"/>
<path d="M1431.45 471.227L1431.48 471.138L1431.5 471.047C1431.84 469.313 1434.43 462.473 1443.62 461.677C1446.16 461.688 1448.03 462.374 1449.35 463.384C1450.68 464.405 1451.56 465.834 1451.99 467.482C1452.86 470.819 1451.85 474.937 1449.24 477.748C1446.25 480.73 1441.6 481.884 1437.71 481.125C1435.78 480.748 1434.13 479.918 1432.97 478.706C1431.84 477.515 1431.1 475.881 1431.1 473.714C1431.1 473.305 1431.11 472.248 1431.45 471.227Z" stroke="#3D5D82" stroke-opacity="0.4" stroke-width="3"/>
<path opacity="0.4" d="M1478.23 369.653C1479.92 369.653 1480.76 369.653 1480.76 370.076C1480.76 370.076 1480.34 370.076 1479.92 370.076C1479.07 369.653 1478.65 369.653 1478.23 369.653Z" fill="#3D5D82"/>
<path d="M1535.12 586.658C1535.12 583.771 1535.99 580.876 1537.96 578.669C1539.91 576.493 1543.08 574.829 1548.01 574.622C1564.2 575.051 1568.66 592.15 1561.34 599.107C1557.63 602.632 1551.09 603.509 1545.35 601.379C1539.71 599.289 1535.12 594.397 1535.12 586.658Z" stroke="#3D5D82" stroke-opacity="0.4" stroke-width="3"/>
<path d="M1504.33 381.445C1502.68 380.911 1500.59 379.826 1498.37 377.813C1497.94 377.386 1497.57 376.962 1497.32 376.608C1498.04 376.697 1498.97 376.965 1500.02 377.388C1501.3 377.905 1502.66 378.616 1503.85 379.379C1505.06 380.15 1506.04 380.936 1506.6 381.585C1506.7 381.702 1506.79 381.806 1506.85 381.896C1506.28 381.899 1505.42 381.799 1504.33 381.445ZM1497.01 376.044C1497.01 376.044 1497.01 376.051 1497.02 376.064C1497.01 376.05 1497.01 376.043 1497.01 376.044ZM1496.69 376.583C1496.68 376.587 1496.67 376.588 1496.67 376.588C1496.67 376.587 1496.68 376.586 1496.69 376.583Z" stroke="#3D5D82" stroke-opacity="0.4" stroke-width="2"/>
<path d="M1686.58 853.276L1686.55 853.296L1686.53 853.317C1682.13 857.335 1675.69 858.217 1670.29 855.804C1664.96 853.425 1660.49 847.752 1660.29 838.334C1660.29 832.925 1661.89 828.543 1664.57 825.483C1667.23 822.442 1671.04 820.598 1675.72 820.392C1684.56 820.605 1689.69 826.605 1691.42 833.834C1693.18 841.195 1691.29 849.312 1686.58 853.276Z" stroke="#3D5D82" stroke-opacity="0.4" stroke-width="3"/>
<path d="M1599.15 440.323L1599.13 440.282L1599.1 440.242C1598.5 439.449 1597.41 437.674 1597.16 436.183C1597.03 435.459 1597.15 435.063 1597.31 434.85C1597.46 434.655 1597.89 434.284 1599.19 434.184C1603.9 434.409 1609.44 437.789 1613.37 441.773C1615.33 443.756 1616.77 445.769 1617.47 447.424C1618.21 449.182 1617.91 449.907 1617.62 450.174C1617.17 450.559 1616.3 450.873 1614.89 450.826C1613.51 450.781 1611.81 450.389 1609.96 449.598C1606.25 448.018 1602.16 444.929 1599.15 440.323Z" stroke="#3D5D82" stroke-opacity="0.4" stroke-width="3"/>
<path d="M1820.59 827.547C1816.61 824.782 1813.14 818.756 1812.93 809.146C1812.94 804.289 1814.05 800.384 1815.9 797.689C1817.71 795.038 1820.25 793.513 1823.32 793.319C1829.39 793.346 1833.92 799.04 1835.77 806.661C1836.68 810.396 1836.88 814.398 1836.3 817.994C1835.73 821.605 1834.39 824.682 1832.36 826.714C1829.11 829.971 1824.53 830.283 1820.59 827.547Z" stroke="#3D5D82" stroke-opacity="0.4" stroke-width="3"/>
<path d="M1763.03 568.178C1758.87 565.746 1754.31 561.217 1751.05 554.698C1748.97 550.339 1748.65 547.598 1749.08 546.086C1749.28 545.388 1749.63 544.953 1750.08 544.668C1750.56 544.365 1751.27 544.165 1752.24 544.165C1754.52 544.165 1757.27 545.331 1760.12 547.406C1762.93 549.457 1765.67 552.277 1767.89 555.294C1770.12 558.32 1771.77 561.457 1772.49 564.116C1773.24 566.852 1772.89 568.586 1771.94 569.478C1771.3 570.045 1770.23 570.387 1768.64 570.222C1767.06 570.058 1765.12 569.397 1763.03 568.178Z" stroke="#3D5D82" stroke-opacity="0.4" stroke-width="3"/>
<path d="M1565.5 383.564L1565.5 383.564L1565.49 383.561C1562.07 382.42 1559.66 381.595 1557.97 380.988C1558.57 381.123 1559.22 381.275 1559.9 381.441C1562.76 382.139 1566.23 383.089 1569.58 384.092C1572.93 385.095 1576.16 386.148 1578.54 387.054C1579.54 387.436 1580.39 387.788 1581.03 388.096C1580.87 388.07 1580.71 388.04 1580.54 388.006C1579.43 387.792 1577.99 387.438 1576.36 386.99C1573.09 386.095 1569.09 384.83 1565.5 383.564Z" stroke="#3D5D82" stroke-opacity="0.6"/>
<path d="M1883.55 974.56V973.939L1883.39 973.775C1883.39 973.748 1883.39 973.718 1883.39 973.685C1883.38 973.318 1883.41 972.765 1883.49 972.017C1883.64 970.539 1883.95 968.474 1884.37 965.955C1885.19 962.065 1886.61 958.15 1888.59 955.193C1890.55 952.243 1892.91 950.458 1895.6 950.258C1897.44 950.361 1898.82 951.506 1899.78 953.757C1900.76 956.081 1901.16 959.368 1900.96 963.055C1900.75 966.718 1899.96 970.646 1898.69 974.184C1897.41 977.739 1895.69 980.796 1893.68 982.806C1891.39 985.096 1888.91 985.603 1887.18 984.704C1885.41 983.779 1883.55 980.941 1883.55 974.56ZM1883.4 973.984C1883.4 973.981 1883.4 973.977 1883.4 973.972C1883.41 974.005 1883.41 974.012 1883.4 973.984Z" stroke="#3D5D82" stroke-opacity="0.4" stroke-width="3"/>
<path d="M1897.06 720.115L1897.03 720.143L1897.01 720.172C1896.45 720.794 1895.67 721.076 1894.59 720.888C1893.46 720.689 1892.01 719.954 1890.42 718.487C1887.26 715.568 1883.89 710.047 1881.82 701.787C1880.99 698.274 1880.62 694.692 1881.05 692.014C1881.26 690.679 1881.66 689.692 1882.18 689.043C1882.66 688.454 1883.29 688.074 1884.22 687.989C1885.95 688.017 1888.06 689.313 1890.25 691.923C1892.42 694.492 1894.42 698.043 1895.94 701.849C1897.45 705.655 1898.45 709.623 1898.67 712.997C1898.89 716.466 1898.27 718.903 1897.06 720.115Z" stroke="#3D5D82" stroke-opacity="0.4" stroke-width="3"/>
<path d="M1745.98 459.849L1745.97 459.842L1745.96 459.835C1743.46 457.908 1740.91 455.834 1739.08 454.127C1740.01 454.597 1741.04 455.174 1742.15 455.836C1745.26 457.681 1748.89 460.137 1752.3 462.653C1755.71 465.173 1758.85 467.723 1761 469.754C1761.52 470.245 1761.96 470.694 1762.34 471.094C1761.93 470.909 1761.47 470.676 1760.93 470.386C1757.93 468.756 1753.14 465.54 1745.98 459.849ZM1736.77 451.528C1736.77 451.528 1736.78 451.535 1736.78 451.55C1736.78 451.535 1736.77 451.527 1736.77 451.528Z" stroke="#3D5D82" stroke-opacity="0.4" stroke-width="3"/>
<path opacity="0.4" d="M1605.93 386.574C1600.01 384.882 1594.09 383.612 1588.17 381.92C1595.78 383.189 1618.62 389.535 1624.96 392.073C1624.54 392.073 1624.54 392.073 1622.42 391.227C1613.96 388.689 1611.43 388.266 1605.93 386.574Z" fill="#3D5D82"/>
<path opacity="0.4" d="M1882.05 579.044C1878.67 574.391 1875.71 570.161 1872.32 565.508L1877.82 572.699L1893.89 595.965C1890.08 590.465 1886.28 584.543 1882.05 579.044Z" fill="#3D5D82"/>
<path d="M1833.85 514.746C1833 513.9 1832.16 513.054 1831.31 512.208C1830.46 511.362 1829.62 510.516 1829.2 510.093C1795.37 479.213 1731.94 421.26 1615.65 386.573C1695.57 415.761 1758.16 439.45 1833.85 514.746Z" fill="#3D5D82"/>
<path d="M1860.49 543.511C1859.64 542.665 1859.22 541.819 1858.37 540.973C1854.57 537.166 1849.07 531.667 1844.84 527.859C1845.69 528.705 1846.11 529.551 1846.96 529.974C1850.76 534.628 1856.68 539.281 1860.49 543.511Z" fill="#3D5D82"/>
<path d="M1942.1 746.135C1942.52 746.558 1942.94 747.404 1942.94 747.827C1940.41 706.372 1936.6 649.265 1886.28 577.775C1885.44 576.506 1884.17 574.814 1883.32 573.545C1907.42 609.501 1939.98 659.417 1942.1 746.135C1942.1 745.712 1942.1 746.135 1942.1 746.135Z" fill="#3D5D82"/>
<path d="M1616.08 402.225C1616.92 402.648 1617.35 403.071 1618.19 403.071C1620.31 397.995 1620.73 396.303 1617.35 391.65C1614.81 388.265 1608.89 385.304 1604.24 383.189C1603.39 382.766 1602.12 382.766 1601.28 382.343C1608.47 385.727 1612.27 387.419 1615.23 391.65C1618.19 395.88 1617.35 398.841 1616.08 402.225C1616.08 401.802 1616.08 401.802 1616.08 402.225Z" fill="#3D5D82"/>
<path d="M1826.66 511.785C1776.34 465.254 1722.21 421.26 1617.35 386.573C1684.16 410.262 1745.89 436.066 1826.66 511.785Z" fill="#3D5D82"/>
<path d="M1831.31 518.131C1830.89 517.707 1783.95 469.484 1626.65 408.571C1632.99 413.647 1643.99 416.185 1651.6 419.146C1758.58 461.87 1809.32 501.21 1831.31 518.131Z" fill="#3D5D82"/>
<path d="M1837.65 1206.79C1906.15 1132.77 1936.6 1078.62 1963.24 984.712C1964.09 980.905 1964.93 977.521 1965.78 973.714C1952.25 1025.32 1929.41 1111.62 1837.65 1206.79Z" fill="#3D5D82"/>
<path d="M1906.15 919.569C1906.58 919.992 1906.58 920.415 1907 920.838C1922.65 881.075 1937.45 843.003 1942.1 779.551C1941.67 778.705 1941.25 778.705 1940.83 777.859C1937.02 817.622 1932.79 855.271 1906.15 919.569C1906.15 919.146 1906.15 919.146 1906.15 919.569Z" fill="#3D5D82"/>
<path d="M1909.54 931.413C1909.54 932.682 1909.54 933.951 1909.54 934.374C1952.25 914.915 1974.66 900.956 1978.04 878.536C1978.04 877.267 1978.04 876.421 1978.04 875.152C1974.24 891.226 1967.47 905.186 1909.54 931.413C1909.54 930.99 1909.54 930.99 1909.54 931.413Z" fill="#3D5D82"/>
<path d="M1820.32 615C1820.74 615.423 1821.16 616.269 1821.58 617.115C1846.11 587.927 1857.1 565.508 1844 532.089C1843.15 531.243 1842.73 530.82 1841.88 529.974C1851.61 557.47 1850.76 577.352 1820.32 615C1819.89 614.577 1819.89 615 1820.32 615Z" fill="#3D5D82"/>
<path d="M1939.98 743.595C1940.41 743.595 1940.41 744.018 1940.83 744.441C1931.53 693.68 1918.42 624.306 1852.03 538.858L1851.18 538.011C1881.21 579.467 1922.65 635.727 1939.98 743.595C1939.56 743.595 1939.56 743.595 1939.98 743.595Z" fill="#3D5D82"/>
<path d="M1934.91 751.633C1934.91 747.403 1905.31 698.757 1827.5 632.766C1827.5 633.189 1827.5 634.035 1827.5 634.458C1867.68 670.415 1902.35 702.141 1934.91 751.633Z" fill="#3D5D82"/>
<path d="M1833.85 1208.91C1834.69 1208.06 1921.38 1128.96 1902.77 952.986C1902.35 953.409 1901.93 953.832 1901.93 953.832C1907.42 1037.59 1906.58 1114.15 1833.85 1208.91Z" fill="#3D5D82"/>
<path d="M1481.61 365.423C1484.15 365.846 1488.38 365.423 1488.38 365.423C1487.95 365.423 1487.53 365.423 1487.53 365.423H1484.15C1484.57 365.423 1484.99 365.423 1485.42 365.423C1484.15 365.846 1482.88 365.423 1481.61 365.423Z" fill="#3D5D82"/>
<path d="M1595.78 381.074C1583.94 377.69 1526.01 369.23 1482.88 365.846C1583.94 378.959 1583.94 378.959 1595.78 381.074Z" fill="#3D5D82"/>
<path d="M1588.59 378.536C1589.44 378.536 1589.86 378.959 1590.71 378.959C1563.22 372.614 1551.8 369.653 1510.79 366.269L1506.56 365.846C1541.66 369.23 1553.5 370.076 1588.59 378.536Z" fill="#3D5D82"/>
<path d="M1898.12 917.453C1898.54 917.453 1898.97 917.03 1899.39 917.03C1896.43 861.616 1892.2 768.976 1824.12 639.112C1823.7 639.112 1823.27 639.535 1822.85 639.535C1858.37 711.87 1893.47 793.088 1898.12 917.453Z" fill="#3D5D82"/>
<path d="M1802.98 1093.43C1802.98 1093.43 1803.4 1093.85 1803.4 1094.27C1830.46 1059.59 1858.37 1024.05 1892.2 954.678C1891.78 953.832 1891.35 953.832 1890.93 952.986C1868.94 996.98 1852.45 1029.13 1802.98 1093.43Z" fill="#3D5D82"/>
<path d="M1788.6 1095.54C1789.02 1095.12 1789.45 1094.69 1789.87 1094.27C1784.37 1061.28 1770 973.29 1655.4 810.008C1654.56 810.431 1653.71 811.277 1652.87 812.123C1711.64 897.994 1773.38 998.671 1788.6 1095.54Z" fill="#3D5D82"/>
<path d="M1890.09 930.989C1890.09 930.143 1890.51 929.297 1890.93 928.451C1838.92 886.15 1772.11 849.348 1660.9 800.702C1660.9 801.548 1660.48 802.394 1660.48 803.24C1756.89 848.502 1826.66 881.074 1890.09 930.989Z" fill="#3D5D82"/>
<path d="M1539.96 590.042C1540.81 590.042 1541.65 590.042 1542.5 590.042C1535.31 552.394 1513.32 436.912 1490.07 381.497C1489.22 381.497 1489.22 381.497 1489.22 381.497C1495.14 397.149 1513.32 444.949 1539.96 590.042Z" fill="#3D5D82"/>
<path d="M1605.08 400.956C1601.28 397.995 1522.63 371.768 1484.57 365.846C1507.41 370.922 1535.74 376.844 1605.08 400.956Z" fill="#3D5D82"/>
<path d="M1608.47 403.071C1606.78 401.802 1606.35 401.802 1590.28 398.418C1557.73 391.227 1524.74 384.882 1492.18 377.69C1492.18 377.69 1492.18 378.113 1492.61 378.536C1531.09 386.997 1569.99 394.611 1608.47 403.071Z" fill="#3D5D82"/>
<path d="M1804.67 606.54C1805.09 606.54 1805.52 606.54 1805.52 606.117C1762.81 531.244 1716.29 469.484 1628.76 411.954C1687.54 453.409 1740.82 496.134 1804.67 606.54Z" fill="#3D5D82"/>
<path d="M1553.92 593.849C1554.34 594.272 1555.19 594.695 1555.61 595.118C1612.7 530.82 1657.18 462.253 1618.7 408.531C1618.28 408.108 1617.43 407.685 1616.59 407.685C1641.11 445.756 1642.3 494.018 1553.92 593.849Z" fill="#3D5D82"/>
<path d="M1657.09 782.936C1657.52 783.783 1657.94 784.206 1658.36 785.052C1725.17 733.867 1776.34 688.604 1810.17 633.612C1809.32 632.766 1808.9 632.343 1808.05 631.074C1783.95 667.876 1754.35 707.217 1657.09 782.936C1656.67 782.513 1656.67 782.936 1657.09 782.936Z" fill="#3D5D82"/>
<path d="M1803.82 623.46C1803.4 622.614 1802.98 621.345 1802.56 620.499C1769.19 623.46 1734.8 629.857 1675.69 626.396C1644.85 624.589 1600.08 619.626 1559.97 609.284C1559.97 610.13 1559.97 611.399 1559.97 612.245C1590.03 619.985 1632.01 626.574 1675.69 629.117C1717.93 631.576 1762.37 626.396 1803.82 623.46Z" fill="#3D5D82"/>
<path d="M1530.24 595.119C1530.66 594.696 1531.08 594.273 1531.51 593.85C1440.59 507.132 1421.99 489.366 1400 450.448C1399.58 450.871 1399.15 451.294 1398.73 451.294C1423.68 495.711 1456.24 527.86 1530.24 595.119Z" fill="#3D5D82"/>
<path d="M1526.86 604.847C1526.86 604.001 1526.86 603.155 1526.86 602.309C1417.34 584.543 1367.44 576.506 1290.06 560.431C1289.64 561.277 1289.21 562.123 1288.79 562.969C1368.29 579.044 1414.8 586.658 1526.86 604.847Z" fill="#3D5D82"/>
<path d="M1566.18 976.676C1567.03 977.099 1567.87 977.099 1568.3 977.522C1595.78 919.569 1611.85 883.613 1637.64 813.815C1636.38 813.392 1635.95 813.392 1634.68 812.546C1613.96 868.384 1602.12 899.264 1566.18 976.676Z" fill="#3D5D82"/>
<path d="M1632.99 777.437C1633.42 777.014 1634.26 776.591 1635.11 776.591C1615.66 735.136 1605.93 714.408 1553.92 620.922C1553.5 621.345 1552.65 621.345 1552.23 621.768C1618.19 747.403 1618.19 747.403 1632.99 777.437Z" fill="#3D5D82"/>
<path d="M1268.49 789.28C1268.92 789.703 1268.92 790.126 1269.34 790.549C1356.02 731.751 1444.82 675.49 1531.51 616.692C1531.08 615.846 1530.24 615 1529.82 614.154C1442.28 672.529 1352.64 727.098 1268.49 789.28Z" fill="#3D5D82"/>
<path d="M1271.03 799.856C1271.03 800.279 1271.03 801.125 1271.03 801.971C1314.16 802.394 1314.16 802.394 1624.53 797.318C1624.53 796.472 1624.53 795.203 1624.53 793.934C1506.56 795.626 1389 797.318 1271.03 799.856Z" fill="#3D5D82"/>
<path d="M1463 365.846C1462.16 365.846 1461.31 365.846 1460.47 365.846C1467.23 365.846 1474.42 365.846 1481.19 365.423C1480.76 365.423 1480.76 365.423 1480.34 365.423C1474.84 365.846 1468.92 365.846 1463 365.846Z" fill="#3D5D82"/>
<path d="M1317.22 516.903C1317.64 517.326 1318.06 517.749 1318.06 517.749C1354.85 480.523 1343.76 492.327 1386.05 452.986C1385.62 452.563 1385.2 452.563 1384.78 452.14C1353.49 481.328 1354.01 478.408 1317.22 516.903Z" fill="#3D5D82"/>
<path d="M1541.66 986.404C1542.08 985.558 1542.92 984.289 1543.35 983.443C1339.96 861.193 1339.96 861.193 1268.92 810.431C1268.49 811.277 1267.65 812.546 1267.22 813.392C1335.3 861.193 1335.3 861.193 1541.66 986.404Z" fill="#3D5D82"/>
<path d="M1191.96 1046.89C1191.96 1047.32 1192.38 1048.16 1192.38 1048.59C1421.57 1014.75 1421.57 1014.75 1539.54 998.671C1539.54 997.825 1539.54 996.556 1539.12 995.71C1380.55 1016.86 1284.56 1029.55 1191.96 1046.89Z" fill="#3D5D82"/>
<path d="M1488.38 373.46C1488.38 373.46 1488.8 373.46 1488.8 373.883C1488.8 372.614 1488.38 370.499 1488.38 369.23C1487.53 368.384 1485.84 367.115 1484.99 366.269H1484.57C1485.84 367.115 1487.11 368.384 1487.95 369.23C1487.95 370.499 1487.95 372.191 1488.38 373.46Z" fill="#3D5D82"/>
<path d="M1388.58 384.882C1388.16 385.305 1387.74 385.305 1387.31 385.728C1478.65 367.961 1478.65 367.961 1482.46 366.269V365.846C1482.46 365.846 1482.03 365.846 1481.61 365.846V366.269C1479.92 366.692 1479.92 366.692 1388.58 384.882Z" fill="#3D5D82"/>
<path d="M1405.92 436.067C1405.92 436.49 1406.34 436.913 1406.34 436.913C1458.78 403.071 1475.31 392.791 1487.57 380.947C1487.15 380.947 1487.15 380.524 1486.73 380.524C1475.31 391.099 1465.97 397.149 1405.92 436.067Z" fill="#3D5D82"/>
<path d="M1389.01 438.604C1389.43 438.181 1389.85 437.758 1390.7 437.335C1378.43 422.53 1367.46 406.213 1379.72 388.447C1379.72 388.447 1370.84 394.429 1374.65 413.041C1375.92 418.54 1379.7 427.606 1389.01 438.604Z" fill="#3D5D82"/>
<path d="M1386.89 386.151C1386.47 386.151 1385.62 386.574 1385.2 386.574C1410.15 384.459 1482.46 377.691 1483.3 377.691C1483.3 377.268 1483.3 377.268 1483.3 376.845C1451.17 379.806 1419.03 382.767 1386.89 386.151C1386.89 385.728 1386.89 385.728 1386.89 386.151Z" fill="#3D5D82"/>
<path d="M1052.42 882.766C1052.42 883.612 1052.84 884.458 1052.84 885.304C1107.39 856.539 1143.75 840.465 1237.62 808.739C1237.2 807.47 1237.2 807.047 1237.2 805.355C1145.87 836.658 1104.43 854.001 1052.42 882.766Z" fill="#3D5D82"/>
<path d="M1180.54 1033.36C1180.96 1033.36 1181.39 1033.78 1181.81 1033.78C1197.03 955.947 1206.76 917.03 1247.35 820.16C1246.5 819.737 1245.66 819.314 1244.81 818.891C1202.95 918.299 1191.53 963.561 1180.54 1033.36C1180.12 1033.36 1180.12 1033.36 1180.54 1033.36Z" fill="#3D5D82"/>
<path d="M1246.55 784.962C1246.98 784.962 1247.82 784.539 1248.67 784.539C1249.51 693.591 1256.23 651.802 1274.41 573.545C1273.57 573.545 1272.72 573.968 1272.3 573.968C1257.08 640.804 1245.71 687.669 1246.55 784.962Z" fill="#3D5D82"/>
<path d="M1239.32 792.243C1240.16 790.974 1240.16 790.551 1241.01 789.281C1189.42 747.403 1147.56 711.024 1115.84 659.416C1115 660.685 1115 660.685 1114.15 661.954C1137.83 698.333 1160.67 728.79 1239.32 792.243Z" fill="#3D5D82"/>
<path d="M1165.74 1039.28C1165.74 1038.86 1166.16 1038.01 1166.59 1037.59C1120.5 991.057 1087.09 957.639 1052.42 902.224C1051.99 903.07 1051.99 903.07 1051.57 904.339C1073.56 939.027 1096.82 974.56 1165.74 1039.28Z" fill="#3D5D82"/>
<path d="M1386.05 383.19C1386.89 383.19 1387.31 382.767 1388.16 382.767C1397.89 379.383 1410.57 373.883 1420.72 371.345C1429.6 369.23 1441.44 367.961 1450.74 366.692C1413.53 369.653 1392.81 379.806 1386.05 383.19Z" fill="#3D5D82"/>
<path d="M1278.22 545.204C1278.64 545.204 1279.49 544.781 1279.91 544.781C1290.06 496.134 1303.45 434.017 1371.1 390.87C1370.68 390.447 1299.36 419.569 1278.22 545.204Z" fill="#3D5D82"/>
<path d="M1276.1 414.915C1275.68 415.338 1274.83 415.761 1274.41 415.761C1299.36 407.724 1319.23 401.802 1371.67 389.111C1372.09 388.688 1372.94 388.265 1373.36 388.265C1321.77 400.533 1302.32 406.455 1276.1 414.915C1276.53 414.915 1276.53 414.915 1276.1 414.915Z" fill="#3D5D82"/>
<path d="M1120.75 646.086C1120.75 646.509 1120.75 647.355 1120.33 648.201C1154.58 627.474 1191.11 602.732 1263 567.199C1263 566.353 1263 565.93 1263 564.661C1223.25 584.543 1172.76 612.668 1120.75 646.086C1120.75 645.663 1120.75 645.663 1120.75 646.086Z" fill="#3D5D82"/>
<path d="M1268.92 551.972C1269.76 551.126 1270.18 550.703 1271.03 549.857C1230.86 501.21 1216.9 464.831 1262.57 422.529C1262.15 422.529 1230.01 441.565 1232.13 481.328C1233.4 509.247 1255.81 535.897 1268.92 551.972Z" fill="#3D5D82"/>
<path d="M1057.91 594.696C1065.95 583.274 1076.94 568.046 1085.4 557.047C1085.82 556.624 1085.82 556.201 1086.24 555.778C1078.63 565.931 1068.06 579.044 1061.29 589.62C1060.45 591.312 1059.18 593.004 1057.91 594.696Z" fill="#3D5D82"/>
<path d="M1095.12 544.78C1095.97 544.357 1096.39 543.511 1097.24 542.665C1097.24 542.665 1097.24 542.665 1097.24 542.242C1096.39 543.088 1095.97 543.934 1095.12 544.78Z" fill="#3D5D82"/>
<path d="M997.445 728.79C1006.32 709.332 1022.01 687.847 1099.82 654.851C1100.24 653.582 1100.24 653.159 1100.66 651.89C1044 676.002 1008.86 697.487 998.291 725.406C998.291 726.252 997.868 727.521 997.445 728.79Z" fill="#3D5D82"/>
<path d="M1044.38 869.652C1044.8 869.652 1045.23 870.075 1045.23 870.075C1053.26 811.7 1063.03 755.99 1104.04 668.427C1103.62 668.427 1103.2 668.004 1102.77 668.004C1080.79 717.073 1054.11 774.052 1044.38 869.652Z" fill="#3D5D82"/>
<path d="M1102.73 647.188C1103.58 645.919 1103.58 645.496 1104.42 644.65C1086.66 615.885 1074.4 588.35 1093.85 549.433C1086.66 557.893 1066.37 591.351 1102.73 647.188Z" fill="#3D5D82"/>
<path d="M1112.63 636.446C1113.05 636.023 1113.9 635.6 1114.74 635.6C1127.01 584.416 1145.87 497.403 1254.54 425.914C1253.27 426.337 1145.19 481.624 1112.63 636.446Z" fill="#3D5D82"/>
<path d="M1170.81 1192.83C1127.68 1131.5 1068.91 1047.74 1046.92 909.416C1046.49 909.416 1046.07 909.839 1045.65 909.839C1055.37 963.138 1076.09 1074.39 1170.81 1192.83Z" fill="#3D5D82"/>
<path d="M983.067 797.741C982.644 817.623 982.644 842.157 1034.23 884.459C1034.23 883.19 1034.23 882.767 1034.66 881.075C1004.63 854.848 980.107 830.313 983.49 793.934C983.49 795.203 983.067 796.472 983.067 797.741Z" fill="#3D5D82"/>
<path d="M994.061 989.789C991.101 968.638 987.719 944.526 1035.5 898.84C1035.08 897.571 1035.08 897.148 1034.66 895.456C1012.67 917.876 984.759 945.372 993.216 985.981C993.639 987.25 994.061 988.52 994.061 989.789Z" fill="#3D5D82"/>
<path d="M1465.54 365.423C1462.16 365.423 1460.47 365.423 1460.04 365.846C1466.39 365.423 1466.39 365.423 1468.92 365.423C1467.66 365.423 1466.81 365.423 1465.54 365.423Z" fill="#3D5D82"/>
<path d="M1370.82 376.844C1330.23 386.997 1309.09 393.342 1273.99 413.223C1287.52 407.301 1299.78 399.264 1313.74 394.188C1336.99 385.727 1343.76 383.612 1375.05 376.421C1373.36 376.421 1372.09 376.844 1370.82 376.844Z" fill="#3D5D82"/>
<path d="M1283.29 410.686C1282.87 410.686 1282.87 411.109 1282.45 411.109C1324.73 393.765 1372.51 374.306 1445.67 366.692C1446.09 366.692 1446.51 366.692 1446.94 366.692C1406.34 371.768 1359.83 377.268 1283.29 410.686Z" fill="#3D5D82"/>
<path d="M1269.34 411.108C1267.65 411.954 1265.53 413.223 1264.69 414.916C1264.26 415.762 1264.69 417.031 1265.11 417.877C1265.95 417.454 1266.8 417.031 1268.07 416.608C1267.65 415.762 1267.65 413.646 1268.07 412.8C1268.91 411.531 1271.03 410.685 1272.72 409.839C1271.45 410.262 1270.61 410.685 1269.34 411.108Z" fill="#3D5D82"/>
<path d="M1115.84 521.515L1103.58 535.475C1106.12 532.514 1106.12 532.514 1118.8 518.554C1117.96 519.4 1117.11 520.246 1115.84 521.515Z" fill="#3D5D82"/>
<path d="M1108.66 530.822C1108.66 531.245 1108.23 531.245 1108.23 531.668C1140.37 500.788 1176.74 465.255 1251.16 426.337C1251.58 425.914 1251.58 425.914 1252 425.491C1212.68 447.065 1163.63 474.138 1108.66 530.822C1109.08 530.822 1108.66 530.822 1108.66 530.822Z" fill="#3D5D82"/>
<path d="M1838.07 525.321C1846.11 534.205 1851.61 539.281 1852.87 538.858C1853.72 536.32 1830.89 511.785 1827.08 510.939C1826.23 512.208 1830.04 516.861 1838.07 525.321Z" fill="#3D5D82"/>
<path d="M1598.32 381.498C1617.35 386.574 1617.35 386.574 1617.35 386.574C1616.08 384.882 1585.63 377.268 1580.56 376.845C1580.98 376.845 1580.98 376.845 1585.63 378.114C1588.17 378.96 1593.24 380.229 1598.32 381.498Z" fill="#3D5D82"/>
<path d="M1900.93 953.136C1899.43 954.448 1898.03 954.989 1896.86 955.023C1895.72 955.056 1894.6 954.611 1893.59 953.576C1891.49 951.431 1889.9 946.774 1890.32 939.541C1890.73 933.135 1892.17 927.764 1894.25 923.994C1896.32 920.247 1898.87 918.32 1901.49 918.111C1903.55 918.304 1905.17 919.697 1906.33 922.269C1907.5 924.903 1908.06 928.547 1907.99 932.547C1907.91 936.526 1907.21 940.738 1905.97 944.447C1904.72 948.176 1902.98 951.26 1900.93 953.136Z" stroke="#3D5D82" stroke-width="3"/>
<path d="M1804.78 622.451L1804.78 622.451L1804.78 622.439C1802.73 617.721 1802.21 613.826 1802.75 611.237C1803.02 609.962 1803.53 609.075 1804.16 608.511C1804.77 607.969 1805.6 607.627 1806.73 607.617C1809.38 607.813 1812.03 609.082 1814.53 611.135C1817.04 613.198 1819.31 615.99 1821.14 619.05C1822.98 622.108 1824.34 625.379 1825.07 628.363C1825.8 631.38 1825.84 633.924 1825.25 635.644C1824.66 637.228 1823.64 638.091 1822.4 638.423C1821.09 638.772 1819.32 638.583 1817.26 637.599C1813.14 635.633 1808.28 630.684 1804.78 622.451Z" stroke="#3D5D82" stroke-width="3"/>
<path d="M1628.69 411.593L1628.7 411.623L1628.7 411.652C1628.7 411.66 1628.71 411.666 1628.71 411.671C1628.66 411.698 1628.54 411.748 1628.28 411.766C1627.69 411.806 1626.67 411.656 1625.21 411.211C1622.3 410.329 1617.8 408.341 1611.69 404.758C1611.1 404.393 1610.53 404.042 1609.98 403.702C1608.93 403.053 1607.95 402.446 1607.05 401.859C1605.68 400.964 1604.55 400.141 1603.75 399.333L1603.73 399.32L1603.72 399.307C1602.99 398.68 1602.54 398.228 1602.28 397.908C1602.21 397.808 1602.15 397.727 1602.11 397.662C1602.23 397.65 1602.37 397.649 1602.53 397.649C1604.14 397.753 1606.55 398.466 1609.32 399.563C1612.08 400.659 1615.14 402.117 1618.01 403.669C1620.88 405.222 1623.54 406.862 1625.5 408.317C1626.48 409.046 1627.28 409.719 1627.84 410.304C1628.12 410.596 1628.33 410.858 1628.47 411.085C1628.62 411.316 1628.68 411.484 1628.69 411.593ZM1601.94 397.698C1601.94 397.698 1601.94 397.697 1601.95 397.694C1601.94 397.697 1601.94 397.699 1601.94 397.698Z" stroke="#3D5D82"/>
<path d="M1658.4 789.698C1660.41 796.614 1658.94 804.391 1655.14 808.574C1650.95 813.149 1643.99 814.554 1637.88 812.401C1631.86 810.281 1626.64 804.684 1626.03 795.128C1625.84 789.734 1627.34 785.267 1630.06 782.118C1632.76 778.988 1636.77 777.033 1641.87 776.823C1651.24 777.236 1656.44 782.935 1658.4 789.698Z" stroke="#3D5D82" stroke-width="3"/>
<path d="M1480.76 365.423C1481.61 365.423 1482.46 365.846 1483.72 365.846C1484.99 366.269 1486.26 366.269 1486.26 366.269C1485.84 365.846 1482.46 365 1478.23 365C1478.65 365.423 1479.5 365.423 1480.76 365.423Z" fill="#3D5D82"/>
<path d="M1570.27 1007.69C1565.19 1011.98 1557.72 1013.27 1551.59 1011.21C1545.6 1009.19 1540.85 1003.97 1541.04 994.918C1541.24 990.972 1542.62 986.776 1545.53 983.483C1548.41 980.22 1552.87 977.738 1559.46 977.329H1559.46H1559.46H1559.47H1559.47H1559.47H1559.47H1559.48H1559.48H1559.48H1559.49H1559.49H1559.49H1559.49H1559.5H1559.5H1559.5H1559.5H1559.51H1559.51H1559.51H1559.52H1559.52H1559.52H1559.52H1559.53H1559.53H1559.53H1559.54H1559.54H1559.54H1559.54H1559.55H1559.55H1559.55H1559.56H1559.56H1559.56H1559.56H1559.57H1559.57H1559.57H1559.58H1559.58H1559.58H1559.59H1559.59H1559.59H1559.59H1559.6H1559.6H1559.6H1559.61H1559.61H1559.61H1559.62H1559.62H1559.62H1559.63H1559.63H1559.63H1559.63H1559.64H1559.64H1559.64H1559.65H1559.65H1559.65H1559.66H1559.66H1559.66H1559.67H1559.67H1559.67H1559.68H1559.68H1559.68H1559.69H1559.69H1559.69H1559.7H1559.7H1559.7H1559.7H1559.71H1559.71H1559.71H1559.72H1559.72H1559.72H1559.73H1559.73H1559.73H1559.74H1559.74H1559.74H1559.75H1559.75H1559.75H1559.76H1559.76H1559.76H1559.77H1559.77H1559.77H1559.78H1559.78H1559.78H1559.79H1559.79H1559.79H1559.8H1559.8H1559.81H1559.81H1559.81H1559.82H1559.82H1559.82H1559.83H1559.83H1559.83H1559.84H1559.84H1559.84H1559.85H1559.85H1559.85H1559.86H1559.86H1559.86H1559.87H1559.87H1559.87H1559.88H1559.88H1559.88H1559.89H1559.89H1559.9H1559.9H1559.9H1559.91H1559.91H1559.91H1559.92H1559.92H1559.92H1559.93H1559.93H1559.93H1559.94H1559.94H1559.95H1559.95H1559.95H1559.96H1559.96H1559.96H1559.97H1559.97H1559.97H1559.98H1559.98H1559.98H1559.99H1559.99H1560H1560H1560H1560.01H1560.01H1560.01H1560.02H1560.02H1560.02H1560.03H1560.03H1560.04H1560.04H1560.04H1560.05H1560.05H1560.05H1560.06H1560.06H1560.06H1560.07H1560.07H1560.08H1560.08H1560.08H1560.09H1560.09H1560.09H1560.1H1560.1H1560.11H1560.11H1560.11H1560.12H1560.12H1560.12H1560.13H1560.13H1560.13H1560.14H1560.14H1560.15H1560.15H1560.15H1560.16H1560.16H1560.16H1560.17H1560.17H1560.18H1560.18H1560.18H1560.19H1560.19H1560.19H1560.2H1560.2H1560.21H1560.21H1560.21H1560.22H1560.22H1560.22H1560.23H1560.23H1560.23H1560.24H1560.24H1560.25H1560.25H1560.25H1560.26H1560.26H1560.26H1560.27H1560.27H1560.28H1560.28H1560.28H1560.29H1560.29H1560.29H1560.3H1560.3H1560.31H1560.31H1560.31H1560.32H1560.32H1560.32H1560.33H1560.33H1560.34H1560.34H1560.34H1560.35H1560.35H1560.35H1560.36H1560.36H1560.36H1560.37H1560.37H1560.38H1560.38H1560.38H1560.39H1560.39H1560.39H1560.4H1560.4H1560.41H1560.41H1560.41H1560.42H1560.42H1560.42H1560.43H1560.43H1560.43H1560.44H1560.44H1560.45H1560.45H1560.45H1560.46H1560.46H1560.46H1560.47H1560.47H1560.48H1560.48H1560.48H1560.49H1560.49H1560.49H1560.5H1560.5H1560.5H1560.51H1560.51H1560.52H1560.52H1560.52H1560.53H1560.53H1560.53H1560.54H1560.54H1560.54H1560.55H1560.55H1560.55H1560.56H1560.56H1560.57H1560.57H1560.57H1560.58H1560.58H1560.58H1560.59H1560.59H1560.59H1560.6H1560.6H1560.6H1560.61H1560.61H1560.62H1560.62H1560.62H1560.63H1560.63H1560.63H1560.64H1560.64H1560.64H1560.65H1560.65H1560.65H1560.66H1560.66H1560.66H1560.67H1560.67H1560.68H1560.68H1560.68H1560.69H1560.69H1560.69H1560.7H1560.7H1560.7H1560.71H1560.71H1560.71H1560.72H1560.72H1560.72H1560.73H1560.73H1560.73H1560.74H1560.74H1560.74H1560.75H1560.75H1560.75H1560.76H1560.76H1560.76H1560.77H1560.77H1560.77H1560.78H1560.78H1560.78H1560.79H1560.79H1560.79H1560.8H1560.8H1560.8H1560.81H1560.81H1560.81H1560.82H1560.82H1560.82H1560.83H1560.83H1560.83H1560.84H1560.84H1560.84H1560.85H1560.85H1560.85H1560.86H1560.86H1560.86H1560.86H1560.87H1560.87H1560.87H1560.88H1560.88H1560.88H1560.89H1560.89H1560.89H1560.9H1560.9H1560.9H1560.91H1560.91H1560.91H1560.91H1560.92H1560.92H1560.92H1560.93H1560.93H1560.93H1560.94H1560.94H1560.94H1560.94H1560.95H1560.95H1560.95H1560.96H1560.96H1560.96H1560.97H1560.97H1560.97H1560.97H1560.98H1560.98H1560.98H1560.99H1560.99H1560.99H1560.99H1561H1561H1561H1561.01H1561.01H1561.01H1561.01H1561.02H1561.02H1561.02H1561.03H1561.03H1561.03H1561.03H1561.04H1561.04H1561.04H1561.04H1561.05H1561.05H1561.05H1561.05C1569.59 977.93 1574.25 983.295 1575.66 989.636C1577.09 996.101 1575.09 1003.44 1570.27 1007.69Z" stroke="#3D5D82" stroke-width="3"/>
<path d="M1557 616.572L1556.99 616.58L1556.99 616.588C1553.64 620.678 1547.11 622.329 1541.01 620.84C1535.01 619.376 1529.73 614.943 1528.77 607.2C1528.17 602.451 1529.28 598.574 1531.63 595.897C1533.97 593.23 1537.74 591.55 1542.89 591.542C1551.15 591.948 1556.14 596.43 1558.35 601.676C1560.61 607.043 1559.94 613.078 1557 616.572Z" stroke="#3D5D82" stroke-width="3"/>
<path d="M1489.22 380.997C1486.49 380.997 1484.19 379.053 1483.8 376.792C1483.8 376.716 1483.78 376.622 1483.77 376.541C1483.77 376.526 1483.77 376.511 1483.77 376.498C1483.75 376.367 1483.73 376.211 1483.72 376.036C1483.7 375.683 1483.7 375.277 1483.79 374.897C1483.88 374.52 1484.04 374.195 1484.33 373.96C1484.62 373.726 1485.08 373.537 1485.84 373.537C1486.76 373.537 1487.62 373.908 1488.38 374.365C1488.76 374.59 1489.1 374.829 1489.41 375.047L1489.42 375.052L1489.43 375.064C1489.7 375.254 1489.97 375.443 1490.21 375.569C1491.58 376.767 1492.18 378.183 1492.06 379.215C1491.99 379.72 1491.76 380.147 1491.33 380.458C1490.89 380.775 1490.21 380.997 1489.22 380.997Z" stroke="#3D5D82"/>
<path d="M1400.37 434.949L1400.4 434.951H1400.42C1401.66 434.951 1402.36 434.955 1403.43 435.304C1404.64 435.885 1405.29 436.903 1405.48 438.26C1405.68 439.677 1405.35 441.455 1404.53 443.33C1402.88 447.08 1399.38 450.872 1395.03 452.462C1391.78 453.472 1388.52 453.399 1386.6 452.281C1385.68 451.744 1385.07 450.978 1384.85 449.933C1384.63 448.856 1384.79 447.361 1385.69 445.364C1388.15 440.025 1393.36 434.56 1400.37 434.949Z" stroke="#3D5D82" stroke-width="2"/>
<path d="M1238.7 802.459L1238.7 802.449L1238.7 802.439C1238.9 795.802 1241.2 791.112 1244.33 788.084C1247.46 785.047 1251.5 783.597 1255.35 783.589C1259.96 783.792 1263.25 785.399 1265.52 787.728C1267.81 790.085 1269.16 793.293 1269.65 796.838C1270.65 804.011 1268.1 812.047 1263.68 816.092L1263.67 816.094C1259.02 820.366 1252.55 821.395 1247.41 819.203C1242.36 817.053 1238.3 811.663 1238.7 802.459Z" stroke="#3D5D82" stroke-width="3"/>
<path d="M1265.66 560.127L1265.66 560.127L1265.66 560.119C1268.9 551.625 1276.46 545.475 1284.06 545.855L1284.1 545.857H1284.14C1284.99 545.857 1286.02 545.866 1287.03 546.196C1288.79 546.844 1289.86 548.206 1290.32 550.146C1290.8 552.147 1290.61 554.728 1289.74 557.495C1287.99 563.048 1283.69 568.792 1278.03 571.33L1278.03 571.33L1278.02 571.333C1273.65 573.322 1269.4 573.169 1266.93 571.421C1264.65 569.81 1263.26 566.343 1265.66 560.127Z" stroke="#3D5D82" stroke-width="3"/>
<path d="M1367.96 392.165C1367.97 392.165 1367.97 392.166 1367.97 392.168C1367.97 392.166 1367.96 392.165 1367.96 392.165ZM1368.51 392.211C1368.68 392.058 1368.91 391.882 1369.19 391.681C1370.56 390.718 1373.05 389.367 1376.63 387.679C1379.99 386.209 1383.56 384.845 1386.65 383.85C1388.8 383.156 1390.68 382.657 1392.08 382.414C1391.53 382.779 1390.84 383.191 1390.04 383.637C1387.84 384.858 1384.86 386.288 1381.78 387.631C1378.7 388.973 1375.54 390.22 1372.97 391.077C1371.68 391.506 1370.56 391.832 1369.68 392.025C1369.24 392.121 1368.87 392.181 1368.58 392.206C1368.56 392.208 1368.53 392.21 1368.51 392.211Z" stroke="#3D5D82" stroke-width="1.5"/>
<path d="M1117.71 635.8L1117.81 635.847L1117.91 635.881C1119.3 636.346 1120.27 637.736 1120.52 640.362C1120.76 642.962 1120.22 646.362 1119.02 649.95C1117.82 653.518 1116 657.161 1113.78 660.228C1111.55 663.306 1108.98 665.704 1106.34 666.934C1104.64 667.689 1103.27 667.826 1102.25 667.591C1101.29 667.368 1100.5 666.773 1099.94 665.705C1098.77 663.435 1098.68 658.989 1101.18 652.328C1103.02 647.424 1105.66 643.269 1108.52 640.312C1111.39 637.342 1114.32 635.728 1116.75 635.535C1116.91 635.536 1116.99 635.54 1117.08 635.559C1117.19 635.58 1117.38 635.634 1117.71 635.8Z" stroke="#3D5D82" stroke-width="3"/>
<path d="M1460.47 365.846C1451.59 366.269 1445.25 367.115 1443.98 367.115C1455.39 366.692 1466.39 365.423 1477.81 365.423C1472.31 365.423 1466.39 365.423 1460.47 365.846Z" fill="#3D5D82"/>
<path d="M1051.14 897.975C1050.55 901.842 1049.42 904.949 1047.89 906.75C1046.84 907.972 1045.72 908.484 1044.66 908.511C1043.59 908.538 1042.35 908.075 1041.09 906.855C1038.52 904.381 1036.15 899.017 1035.73 890.313C1035.52 885.331 1035.95 880.354 1037.19 876.63C1038.44 872.882 1040.31 870.92 1042.71 870.732C1044.67 870.84 1046.48 872.235 1048.02 874.969C1049.57 877.711 1050.65 881.512 1051.19 885.656C1051.73 889.786 1051.72 894.153 1051.14 897.975Z" stroke="#3D5D82" stroke-width="3"/>
<path d="M1263.42 418.723C1257.92 421.684 1251.16 425.491 1250.73 426.76C1252.43 427.606 1282.45 411.954 1283.72 409.839C1283.72 409.839 1283.72 409.839 1283.29 409.839C1281.18 409.839 1272.3 414.07 1263.42 418.723Z" fill="#3D5D82"/>
<path d="M1095.97 543.935C1092.16 548.588 1084.98 557.471 1084.98 558.74C1086.67 558.74 1109.5 531.245 1109.5 529.552C1108.23 529.976 1101.47 537.167 1095.97 543.935Z" fill="#3D5D82"/>
<path d="M1005.48 738.943C1005.05 739.366 1005.05 739.789 1004.63 740.212C1014.78 683.105 1021.97 656.032 1058.33 594.695C1059.6 593.003 1060.45 591.311 1061.72 589.619C1026.2 648.418 1016.47 673.376 1005.48 738.943C1005.48 738.52 1005.48 738.943 1005.48 738.943Z" fill="#3D5D82"/>
<path d="M1095.12 544.781C1095.97 543.935 1096.39 543.089 1097.24 542.243C1099.78 541.397 1103.16 540.128 1147.14 538.436C1146.71 539.282 1145.87 540.128 1145.44 540.974C1120.5 541.82 1097.66 543.089 1095.12 544.781Z" fill="#3D5D82"/>
<path d="M1001.55 751.672C1001.12 752.518 1001.12 753.364 1000.7 754.633C996.471 742.366 995.33 738.519 997.445 728.367C997.868 727.098 997.868 726.252 998.29 724.983C997.022 737.25 997.317 741.097 1001.55 751.672Z" fill="#3D5D82"/>
<path d="M983.066 797.741C983.066 796.472 983.489 795.203 983.489 794.357C988.141 777.013 989.282 776.757 999.007 762.798C999.007 763.644 999.007 764.913 998.584 765.759C996.893 769.989 991.946 773.629 989.832 777.436C986.449 782.512 984.335 791.396 983.066 797.741Z" fill="#3D5D82"/>
<path d="M998.29 999.518C998.713 1000.36 998.713 1001.21 999.136 1002.06C997.867 998.249 995.753 993.172 994.484 989.365C994.061 988.096 994.061 987.25 993.638 985.981L998.29 999.518C997.867 999.518 998.29 999.518 998.29 999.518Z" fill="#3D5D82"/>
<path d="M1370.82 376.844C1372.09 376.421 1373.36 376.421 1375.05 375.998C1406.76 370.076 1421.14 367.538 1460.47 365.423C1418.18 367.538 1386.04 373.883 1370.82 376.844Z" fill="#3D5D82"/>
<path d="M1269.34 411.108C1270.18 410.685 1271.45 410.262 1272.3 409.839C1278.22 407.724 1285.83 404.763 1316.28 399.687C1315.43 400.11 1314.58 400.533 1313.74 400.956C1310.78 401.802 1306.97 402.225 1304.01 402.648C1301.48 403.071 1279.06 406.878 1269.34 411.108Z" fill="#3D5D82"/>
<path d="M1115.84 521.515C1116.69 520.668 1117.96 519.399 1118.8 518.553C1142.91 495.711 1193.23 447.487 1307.4 404.34C1299.78 408.993 1287.95 412.378 1279.49 415.762C1257.08 425.068 1221.98 442.411 1203.37 454.256C1157.71 482.174 1135.72 500.364 1115.84 521.515Z" fill="#3D5D82"/>
<path d="M1331.92 393.765C1331.5 393.765 1331.07 394.188 1330.65 394.188C1367.44 378.959 1391.12 370.499 1454.97 365.846C1455.39 365.846 1456.24 365.846 1456.66 365.846C1413.53 369.653 1382.66 372.191 1331.92 393.765Z" fill="#3D5D82"/>
<path d="M1323.04 400.11C1325.58 398.841 1327.27 398.418 1408.03 395.034C1407.61 395.457 1407.61 395.88 1407.19 395.88C1378.86 397.572 1350.95 398.418 1323.04 400.11Z" fill="#3D5D82"/>
<path d="M997.868 989.365C988.142 939.873 978.456 877.1 1000.44 773.039C989.873 833.953 977.993 892.918 997.868 989.365Z" fill="#3D5D82"/>
<path d="M1008.27 744.52C1008.27 744.097 1032.54 659.416 1140.79 550.702C1140.79 551.125 1140.79 551.548 1140.79 551.548C1089.2 606.116 1045.06 659.071 1008.27 744.52Z" fill="#3D5D82"/>
<path d="M1152.21 779.128C1152.21 779.974 1151.79 780.82 1151.79 781.666C1128.11 779.551 1045.9 773.963 1005.73 762.119C1006.16 761.273 1006.16 760.004 1006.58 759.158C1032.37 765.926 1065.52 768.976 1152.21 779.128Z" fill="#3D5D82"/>
<path d="M1002.09 999.517C1001.67 998.671 977.569 920.414 1152.21 790.127C1152.21 790.973 1152.63 791.819 1152.63 792.242C1090.05 842.58 1003.79 911.108 1002.09 999.517Z" fill="#3D5D82"/>
<path d="M1161.09 764.746C1160.67 765.169 1159.82 765.592 1158.97 766.438C1143.33 715.676 1120.07 638.688 1147.98 552.394C1148.4 551.971 1149.25 551.548 1150.09 551.125C1133.18 612.461 1129.37 667.453 1161.09 764.746C1161.51 764.323 1161.09 764.746 1161.09 764.746Z" fill="#3D5D82"/>
<path d="M1164.89 524.9C1164.47 524.9 1164.47 524.9 1164.05 524.9C1192.8 490.212 1228.32 447.065 1304.44 406.878H1305.28C1265.11 429.721 1219.87 455.102 1164.89 524.9Z" fill="#3D5D82"/>
<path d="M1300.21 515.593C1299.78 516.016 1299.36 516.439 1298.51 516.862C1284.56 491.904 1258.77 445.372 1311.62 404.763C1312.47 404.34 1313.31 403.917 1314.16 403.917C1294.29 420.414 1261.3 447.91 1300.21 515.593C1300.21 515.17 1300.21 515.17 1300.21 515.593Z" fill="#3D5D82"/>
<path d="M1161.51 539.281C1161.93 538.858 1162.36 538.012 1162.78 537.589C1181.81 535.051 1199.57 532.513 1293.02 524.899C1292.59 526.168 1292.59 526.168 1292.17 527.014C1220.71 532.936 1197.45 535.051 1161.51 539.281Z" fill="#3D5D82"/>
<path d="M1215.64 1001.63C1215.21 1001.63 1214.79 1002.06 1214.37 1002.06C1202.53 969.061 1173.99 900.238 1162.99 800.83C1163.84 800.83 1164.69 800.407 1165.53 799.984C1171.87 846.092 1183.5 910.262 1215.64 1001.63Z" fill="#3D5D82"/>
<path d="M1174.19 763.9C1173.35 763.477 1172.5 763.054 1172.08 763.054C1204.64 683.105 1229.13 625.074 1292.13 534.126C1292.55 534.126 1292.98 534.549 1292.98 534.549C1241.81 612.383 1215.21 662.377 1174.19 763.9Z" fill="#3D5D82"/>
<path d="M1445.67 823.967C1445.24 824.39 1444.82 824.39 1444.4 824.813C1327.27 649.264 1311.62 568.045 1305.7 537.589C1306.55 537.166 1307.39 536.743 1308.24 536.32C1323.46 608.232 1345.87 663.646 1445.67 823.967C1446.09 823.967 1445.67 823.967 1445.67 823.967Z" fill="#3D5D82"/>
<path d="M1314.58 511.786C1314.16 511.786 1313.74 511.363 1313.31 511.363C1332.34 483.444 1359.96 438.565 1404.35 399.648H1404.78C1381.94 422.067 1356.02 449.18 1314.58 511.786Z" fill="#3D5D82"/>
<path d="M1315.52 527.81C1315.52 526.964 1315.94 526.118 1315.94 525.695C1379.79 511.313 1447.36 493.173 1511.21 478.79C1511.21 479.213 1511.63 480.059 1512.05 480.905C1447.36 494.865 1379.79 513.005 1315.52 527.81Z" fill="#3D5D82"/>
<path d="M1233.82 1010.52C1233.4 1010.09 1232.97 1009.25 1232.55 1008.4C1256.65 985.981 1301.9 944.526 1437.63 851.886C1438.06 852.732 1438.48 853.578 1438.9 854.001C1277.8 970.752 1277.8 970.752 1233.82 1010.52Z" fill="#3D5D82"/>
<path d="M1512.06 469.907C1512.06 470.331 1511.64 470.754 1511.64 471.177C1449.9 436.066 1430.19 418.261 1416.24 397.533C1416.66 397.11 1417.08 396.687 1417.93 396.687C1432.73 418.261 1451.59 434.374 1512.06 469.907Z" fill="#3D5D82"/>
<path d="M1412.43 392.496C1412.01 392.919 1411.58 392.919 1411.16 393.342C1404.4 388.266 1385.2 374.729 1433.41 367.961C1444.4 366.269 1456.24 365.846 1463.43 365.846C1464.27 365.846 1465.54 365.846 1466.39 365.846C1413.11 367.961 1393.23 375.998 1408.03 389.958C1408.88 390.804 1410.91 392.496 1412.43 392.496Z" fill="#3D5D82"/>
<path d="M1421.57 392.919C1421.57 392.496 1421.99 392.073 1421.99 392.073C1426.64 390.381 1432.56 388.689 1437.21 386.997C1476.11 374.729 1486.69 370.922 1487.95 366.692C1486.69 365.846 1484.57 365.423 1482.88 365C1487.11 365.423 1487.11 365.423 1488.8 367.115C1486.26 371.768 1479.92 375.152 1421.57 392.919Z" fill="#3D5D82"/>
<path d="M1780.99 467.792C1780.57 467.369 1779.3 466.523 1778.45 465.677C1779.3 466.523 1780.15 466.946 1780.99 467.792Z" fill="#3D5D82"/>
<path d="M1526.86 466.1C1526.01 465.677 1525.59 465.677 1524.74 465.254C1529.82 433.105 1539.12 373.46 1487.95 365.846C1513.75 368.807 1541.23 388.266 1526.86 466.1Z" fill="#3D5D82"/>
<path d="M1461.74 822.698C1460.89 822.275 1459.62 822.275 1458.35 821.852C1501.91 628.113 1516.28 562.969 1521.78 488.942C1522.2 488.942 1523.05 489.365 1523.47 489.365C1518.4 565.93 1507.4 615.423 1461.74 822.698Z" fill="#3D5D82"/>
<path d="M1471.04 827.774C1470.61 827.351 1469.77 826.505 1469.35 826.082C1608.46 671.26 1608.46 671.26 1647.37 612.039C1647.79 612.462 1648.64 612.885 1649.06 613.308C1612.27 672.106 1575.9 716.099 1471.04 827.774Z" fill="#3D5D82"/>
<path d="M1487.11 1026.17C1486.26 1026.17 1485.42 1026.59 1484.57 1026.59C1470.62 947.91 1458.35 870.922 1456.66 862.461C1458.35 862.461 1458.78 862.461 1460.04 862.038C1469.35 916.607 1478.65 971.599 1487.11 1026.17C1487.53 1026.17 1487.53 1026.17 1487.11 1026.17Z" fill="#3D5D82"/>
<path d="M1770.42 859.923C1770.42 860.346 1770.42 861.192 1770.42 861.615C1672.32 858.654 1574.22 850.194 1476.11 844.695C1476.11 842.58 1476.11 842.58 1476.11 841.311C1613.54 848.925 1682.47 853.155 1770.42 859.923C1770.42 859.5 1770.42 859.923 1770.42 859.923Z" fill="#3D5D82"/>
<path d="M1506.56 1036.74C1506.13 1035.9 1505.71 1035.05 1505.29 1034.2C1624.53 969.06 1698.11 925.913 1771.69 871.345C1772.11 872.191 1772.53 873.46 1772.95 874.306C1705.72 922.952 1651.6 957.639 1506.56 1036.74Z" fill="#3D5D82"/>
<path d="M1643.14 587.504C1642.72 587.927 1642.29 588.351 1641.87 589.197C1605.51 554.932 1569.14 521.514 1532.78 487.25C1533.62 486.827 1533.62 486.404 1534.04 485.981C1570.41 519.822 1607.2 553.24 1643.14 587.504Z" fill="#3D5D82"/>
<path d="M1530.24 468.215C1529.39 467.792 1529.39 467.369 1528.55 466.946C1546.73 432.259 1558.6 403.069 1534.92 379.381C1539.57 381.073 1550.53 394.611 1549.69 411.954C1548.42 430.99 1542.5 445.372 1530.24 468.215Z" fill="#3D5D82"/>
<path d="M1535.74 476.252C1535.74 475.829 1535.31 474.983 1535.31 474.56C1639.76 454.256 1639.76 454.256 1663.44 447.487C1663.86 447.91 1664.28 448.333 1664.71 448.756C1653.71 452.563 1627.92 460.601 1535.74 476.252Z" fill="#3D5D82"/>
<path d="M1822.43 554.086C1822.01 554.086 1821.58 554.086 1821.16 554.086C1767.46 480.059 1716.72 429.297 1613.96 389.111C1695.15 421.26 1755.62 458.908 1822.43 554.086Z" fill="#3D5D82"/>
<path d="M1832.58 561.278C1831.73 560.432 1830.89 560.009 1830.47 559.163C1828.35 554.933 1829.2 547.742 1828.77 542.666C1827.51 528.706 1819.47 505.44 1788.18 474.983C1800.87 484.289 1830.04 512.208 1832.58 561.278Z" fill="#3D5D82"/>
<path d="M1668.51 440.719C1667.67 440.296 1666.82 439.873 1666.4 439.45C1663.02 436.489 1661.75 430.567 1659.63 426.76C1649.48 407.724 1620.31 393.765 1605.93 386.996C1616.92 390.38 1637.22 403.071 1640.18 405.609C1658.36 420.838 1658.79 421.684 1668.51 440.719Z" fill="#3D5D82"/>
<path d="M1656.25 438.181V438.604C1610.58 412.377 1585.63 398.841 1540.81 380.651L1540.39 380.228C1582.67 397.572 1608.89 410.685 1656.25 438.181Z" fill="#3D5D82"/>
<path d="M1775.07 1053.66C1774.65 1053.66 1773.8 1053.66 1772.96 1053.66C1781.41 1001.21 1787.33 963.562 1785.22 882.766C1786.49 882.766 1786.49 882.766 1787.76 882.343C1788.6 936.489 1789.02 978.79 1775.07 1053.66Z" fill="#3D5D82"/>
<path d="M1589.01 381.074C1589.86 381.074 1590.28 381.497 1591.13 381.497C1573.37 377.69 1525.59 368.384 1484.99 365.423C1484.57 365.423 1484.15 365.423 1483.72 365.423C1525.16 368.384 1572.95 378.113 1589.01 381.074C1588.59 381.074 1588.59 381.074 1589.01 381.074Z" fill="#3D5D82"/>
<path d="M1520.51 373.46C1511.21 370.922 1498.52 367.961 1489.22 366.269H1488.8C1498.1 367.538 1510.79 370.499 1520.51 373.46C1520.09 373.46 1520.09 373.46 1520.51 373.46Z" fill="#3D5D82"/>
<path d="M1592.82 382.344C1593.67 382.767 1593.67 382.767 1595.36 383.19C1584.36 381.921 1570.41 380.652 1535.73 377.691C1535.31 377.268 1534.47 377.268 1534.04 376.845C1548.42 378.114 1572.52 380.229 1592.82 382.344C1592.4 382.344 1592.82 382.344 1592.82 382.344Z" fill="#3D5D82"/>
<path d="M1818.62 556.625C1818.62 557.048 1818.62 557.048 1818.62 557.471C1786.06 529.975 1744.46 496.006 1681.87 456.665C1681.87 456.242 1681.87 455.819 1681.87 455.396C1712.74 475.278 1765.34 507.555 1818.62 556.625Z" fill="#3D5D82"/>
<path d="M1662.59 588.774C1661.74 587.928 1661.32 587.928 1660.05 587.082C1673.16 551.972 1691.34 504.171 1672.32 454.678C1672.74 455.101 1701.49 494.019 1662.59 588.774Z" fill="#3D5D82"/>
<path d="M1650.96 778.449C1650.11 777.603 1649.69 777.603 1648.42 776.757C1661.53 741.646 1676.56 665.438 1657.53 615.945C1660.48 617.608 1661.66 615.945 1661.66 615.945C1670.19 648.888 1677.65 713.445 1650.96 778.449Z" fill="#3D5D82"/>
<path d="M1800.44 861.193C1800.44 859.501 1800.44 859.078 1800.02 857.809C1849.49 847.656 1861.33 845.118 1896.43 836.235C1896.43 837.927 1896.43 838.35 1896.85 839.619C1861.76 848.503 1850.34 851.464 1800.44 861.193Z" fill="#3D5D82"/>
<path d="M1780.14 843.003C1779.72 843.003 1779.3 843.426 1778.88 843.426C1748.85 768.976 1728.98 719.906 1664.28 616.269C1665.13 615.846 1665.55 615.423 1666.4 615.423C1706.15 679.297 1744.63 744.864 1780.14 843.003C1780.57 843.003 1780.14 843.003 1780.14 843.003Z" fill="#3D5D82"/>
<path d="M1670.2 600.195C1670.2 599.772 1669.78 598.926 1669.36 598.08C1799.6 576.083 1799.6 576.083 1824.12 569.738C1824.55 570.584 1825.39 571.43 1825.81 572.276C1798.33 579.044 1763.65 587.081 1670.2 600.195Z" fill="#3D5D82"/>
<path d="M1794.94 845.964C1794.52 845.541 1793.68 844.695 1792.83 844.272C1835.12 746.556 1855.41 672.106 1834.27 581.582C1834.69 582.005 1877.82 658.993 1794.94 845.964Z" fill="#3D5D82"/>
<path d="M1758.15 451.294L1770.42 459.755C1764.92 455.947 1759.42 451.717 1753.5 447.91C1754.77 449.179 1756.46 450.448 1758.15 451.294Z" fill="#3D5D82"/>
<path d="M1769.57 460.178C1770 460.601 1770.42 461.024 1770.84 461.447C1720.1 429.298 1687.12 411.531 1612.27 387.842C1611.85 387.842 1611 387.419 1610.58 386.996C1679.93 408.993 1714.18 424.645 1769.57 460.178C1769.15 460.178 1769.57 460.178 1769.57 460.178Z" fill="#3D5D82"/>
<path d="M1936.6 708.063C1936.6 708.486 1936.6 709.332 1936.6 709.755C1913.34 668.3 1897.7 640.804 1843.99 582.428C1843.99 582.005 1843.99 581.159 1843.99 580.736C1881.63 622.614 1904.89 649.264 1936.6 708.063Z" fill="#3D5D82"/>
<path d="M1906.58 815.084C1906.16 815.084 1905.73 815.084 1905.31 815.084C1899.39 755.44 1892.2 680.99 1839.77 584.543C1840.19 584.543 1840.61 584.543 1841.04 584.543C1865.56 631.92 1898.97 696.218 1906.58 815.084Z" fill="#3D5D82"/>
<path d="M1782.68 1057.89C1782.26 1057.47 1781.83 1056.62 1781.41 1056.2C1829.62 994.441 1868.94 939.872 1900.66 851.04C1901.08 851.463 1901.5 852.309 1901.93 853.155C1883.32 902.224 1862.18 958.062 1782.68 1057.89Z" fill="#3D5D82"/>
<path d="M1783.95 1068.47C1784.37 1067.2 1784.37 1066.78 1784.37 1065.51C1851.19 1042.24 1892.63 1025.32 1933.64 998.671C1933.64 999.517 1933.22 1000.36 1933.22 1001.21C1907 1018.98 1879.09 1035.05 1783.95 1068.47Z" fill="#3D5D82"/>
<path d="M1914.19 824.391C1913.77 823.122 1913.77 822.699 1912.92 821.853C1931.1 785.474 1936.6 773.206 1942.52 734.289C1942.94 734.289 1949.29 756.286 1914.19 824.391Z" fill="#3D5D82"/>
<path d="M1941.25 979.213C1940.83 979.636 1940.41 980.059 1940.41 980.482C1937.45 944.103 1934.91 909.416 1912.92 852.309C1913.34 851.463 1913.77 851.463 1914.19 850.194C1927.3 889.111 1939.98 925.49 1941.25 979.213C1941.25 978.79 1941.25 978.79 1941.25 979.213Z" fill="#3D5D82"/>
<path d="M1802.98 485.558L1794.1 478.367C1793.68 477.944 1793.25 477.521 1792.41 477.098L1799.17 482.597C1800.86 483.866 1801.71 484.712 1802.98 485.558Z" fill="#3D5D82"/>
<path d="M1939.98 706.371C1931.1 699.602 1931.52 681.413 1928.14 670.415C1918.42 639.958 1886.7 560.009 1795.79 480.482C1850.34 529.975 1906.15 588.35 1939.98 706.371Z" fill="#3D5D82"/>
<path d="M1560.68 372.191C1571.25 374.306 1587.32 377.267 1597.05 382.343C1591.97 381.074 1587.75 378.536 1582.67 377.267C1577.6 375.998 1569.99 373.883 1557.3 371.768C1558.15 371.768 1559.41 372.191 1560.68 372.191Z" fill="#3D5D82"/>
<path d="M1620.73 386.151C1616.5 385.305 1612.7 384.882 1601.7 384.035C1600.86 383.612 1599.59 383.612 1598.74 383.189C1609.31 384.035 1613.12 384.458 1617.35 385.305C1618.62 385.305 1619.46 385.728 1620.73 386.151Z" fill="#3D5D82"/>
<path d="M1004.63 1007.98C1006.32 1013.05 1009.71 1025.74 1008.02 1026.59C1005.06 1025.74 994.485 990.634 997.022 988.942C998.291 988.942 1001.25 996.133 1004.63 1007.98Z" fill="#3D5D82"/>
<path d="M998.749 774.278L998.741 774.259L998.731 774.24C998.357 773.54 998.113 772.447 998.009 771.016C997.907 769.598 997.947 767.896 998.107 766.011C998.428 762.243 999.229 757.789 1000.31 753.499C1001.39 749.208 1002.74 745.102 1004.15 742.026C1004.86 740.487 1005.58 739.224 1006.28 738.329C1006.91 737.509 1007.47 737.072 1007.93 736.934C1008.06 737.027 1008.24 737.19 1008.42 737.495C1008.67 737.939 1008.95 738.699 1009.1 740.005C1009.41 742.623 1009.21 747.319 1007.53 755.76C1005.63 764.408 1003.53 769.735 1001.78 772.517C1000.89 773.929 1000.14 774.597 999.634 774.787C999.403 774.873 999.253 774.85 999.147 774.794C999.027 774.731 998.88 774.584 998.749 774.278Z" stroke="#3D5D82"/>
<path d="M1471.46 365.423C1463.85 365.423 1458.78 365.846 1452.01 366.269C1452.01 366.269 1462.58 365.423 1478.65 365.423C1476.11 365.423 1473.58 365.423 1471.46 365.423Z" fill="#3D5D82"/>
<path d="M1323.46 399.687C1311.2 405.186 1304.86 407.724 1304.01 406.878C1304.01 404.34 1331.07 393.342 1336.15 392.919C1336.15 392.919 1336.15 392.919 1336.57 392.919C1335.73 393.765 1334.46 394.611 1323.46 399.687Z" fill="#3D5D82"/>
<path d="M1160.71 538.682L1160.71 538.686C1155.27 546.015 1150.31 550.113 1146.74 551.869C1144.95 552.756 1143.62 552.989 1142.81 552.867C1142.42 552.809 1142.19 552.678 1142.06 552.544C1141.93 552.414 1141.82 552.211 1141.79 551.873L1141.79 551.861L1141.78 551.848C1141.7 551.21 1141.82 550.32 1142.19 549.193C1142.55 548.08 1143.13 546.809 1143.89 545.438C1145.4 542.696 1147.61 539.634 1150.11 536.767C1152.61 533.899 1155.38 531.259 1158.03 529.345C1160.72 527.4 1163.11 526.323 1164.89 526.323H1164.94L1164.98 526.318C1165.44 526.277 1165.7 526.345 1165.84 526.414C1165.95 526.472 1166.04 526.561 1166.11 526.738C1166.28 527.172 1166.27 528.018 1165.89 529.323C1165.15 531.858 1163.21 535.344 1160.71 538.682Z" stroke="#3D5D82" stroke-width="2"/>
<path d="M1179.45 781.889L1179.45 781.903L1179.45 781.918C1178.36 791.4 1173.51 797.019 1168.25 799.212C1162.96 801.422 1157.19 800.232 1153.78 795.959L1153.77 795.943L1153.76 795.927C1150.11 791.614 1149.44 783.777 1151.91 776.715C1154.35 769.742 1159.63 764.125 1167.23 763.71C1170.99 763.92 1174.4 765.368 1176.69 768.178C1178.99 770.999 1180.33 775.411 1179.45 781.889Z" stroke="#3D5D82" stroke-width="3"/>
<path d="M1315.37 525.895L1315.36 525.915L1315.35 525.936C1312.16 532.523 1306.91 536.131 1302.24 537.24C1297.43 538.38 1293.81 536.864 1292.73 534.093C1292.25 532.818 1292.26 530.905 1292.9 528.592C1293.54 526.309 1294.75 523.798 1296.45 521.442C1299.86 516.728 1305.06 512.86 1311.21 512.442C1314.53 512.649 1316.4 514.082 1317.14 516.107C1317.94 518.289 1317.6 521.628 1315.37 525.895Z" stroke="#3D5D82" stroke-width="3"/>
<path d="M1404 398.56L1404 398.553L1404 398.545C1404.22 397.788 1405.02 396.85 1406.31 395.859C1407.58 394.884 1409.25 393.917 1411.09 393.079C1414.78 391.404 1419.05 390.297 1422.07 390.612C1422.78 390.841 1423.03 391.132 1423.11 391.363C1423.2 391.615 1423.14 391.993 1422.83 392.529C1422.2 393.597 1420.75 394.885 1419.04 396.078C1414.94 398.938 1410.85 400.092 1407.93 400.195C1406.46 400.247 1405.33 400.031 1404.65 399.678C1404.32 399.504 1404.12 399.313 1404.03 399.139C1403.94 398.979 1403.92 398.795 1404 398.56Z" stroke="#3D5D82"/>
<path d="M1475.31 842.492C1475.1 852.318 1469.35 858.136 1462.38 860.327C1455.3 862.553 1447.09 860.993 1442.18 856.073C1437.02 850.915 1435.39 842.806 1437.65 835.875C1439.87 829.061 1445.87 823.356 1456.16 822.931C1460.81 823.145 1465.6 824.769 1469.21 827.934C1472.79 831.079 1475.3 835.821 1475.31 842.492Z" stroke="#3D5D82" stroke-width="3"/>
<path d="M1516.5 485.213L1516.49 485.205L1516.48 485.197C1512.74 482.246 1511.2 477.742 1511.83 473.874C1512.44 470.079 1515.15 466.852 1520.15 466.254H1520.15H1520.15H1520.15H1520.16H1520.16H1520.16H1520.16H1520.17H1520.17H1520.17H1520.17H1520.18H1520.18H1520.18H1520.18H1520.19H1520.19H1520.19H1520.19H1520.2H1520.2H1520.2H1520.2H1520.2H1520.21H1520.21H1520.21H1520.21H1520.22H1520.22H1520.22H1520.22H1520.23H1520.23H1520.23H1520.23H1520.24H1520.24H1520.24H1520.24H1520.25H1520.25H1520.25H1520.25H1520.26H1520.26H1520.26H1520.26H1520.27H1520.27H1520.27H1520.27H1520.28H1520.28H1520.28H1520.28H1520.29H1520.29H1520.29H1520.29H1520.3H1520.3H1520.3H1520.3H1520.31H1520.31H1520.31H1520.31H1520.32H1520.32H1520.32H1520.32H1520.33H1520.33H1520.33H1520.33H1520.34H1520.34H1520.34H1520.34H1520.35H1520.35H1520.35H1520.35H1520.36H1520.36H1520.36H1520.36H1520.37H1520.37H1520.37H1520.37H1520.38H1520.38H1520.38H1520.38H1520.39H1520.39H1520.39H1520.39H1520.4H1520.4H1520.4H1520.4H1520.41H1520.41H1520.41H1520.41H1520.42H1520.42H1520.42H1520.42H1520.43H1520.43H1520.43H1520.43H1520.44H1520.44H1520.44H1520.44H1520.45H1520.45H1520.45H1520.45H1520.46H1520.46H1520.46H1520.46H1520.47H1520.47H1520.47H1520.47H1520.48H1520.48H1520.48H1520.48H1520.48H1520.49H1520.49H1520.49H1520.49H1520.5H1520.5H1520.5H1520.5H1520.51H1520.51H1520.51H1520.51H1520.52H1520.52H1520.52H1520.52H1520.53H1520.53H1520.53H1520.53H1520.54H1520.54H1520.54H1520.54H1520.55H1520.55H1520.55H1520.55H1520.56H1520.56H1520.56H1520.56H1520.57H1520.57H1520.57H1520.57H1520.58H1520.58H1520.58H1520.58H1520.59H1520.59H1520.59H1520.59H1520.6H1520.6H1520.6H1520.6H1520.61H1520.61H1520.61H1520.61H1520.62H1520.62H1520.62H1520.62H1520.63H1520.63H1520.63H1520.63H1520.64H1520.64H1520.64H1520.64H1520.65H1520.65H1520.65H1520.65H1520.66H1520.66H1520.66H1520.66H1520.67H1520.67H1520.67H1520.67H1520.68H1520.68H1520.68H1520.68H1520.69H1520.69H1520.69H1520.69H1520.7H1520.7H1520.7H1520.7H1520.71H1520.71H1520.71H1520.71H1520.72H1520.72H1520.72H1520.72H1520.73H1520.73H1520.73H1520.73H1520.74H1520.74H1520.74H1520.74H1520.75H1520.75H1520.75H1520.75H1520.75H1520.76H1520.76H1520.76H1520.76H1520.77H1520.77H1520.77H1520.77H1520.78H1520.78H1520.78H1520.78H1520.79H1520.79H1520.79H1520.79H1520.8H1520.8H1520.8H1520.8H1520.81H1520.81H1520.81H1520.81H1520.82H1520.82H1520.82H1520.82H1520.83H1520.83H1520.83H1520.83H1520.84H1520.84H1520.84H1520.84H1520.85H1520.85H1520.85H1520.85H1520.86H1520.86H1520.86H1520.86H1520.87H1520.87H1520.87H1520.87H1520.88H1520.88H1520.88H1520.88H1520.89H1520.89H1520.89H1520.89H1520.9H1520.9H1520.9H1520.9H1520.91H1520.91H1520.91H1520.91H1520.92H1520.92H1520.92H1520.92H1520.93H1520.93H1520.93H1520.93H1520.94H1520.94H1520.94H1520.94H1520.95H1520.95H1520.95H1520.95H1520.96H1520.96H1520.96H1520.96H1520.97H1520.97H1520.97H1520.97H1520.98H1520.98H1520.98H1520.98H1520.99H1520.99H1520.99H1520.99H1521H1521H1521H1521H1521.01H1521.01H1521.01H1521.01H1521.02H1521.02H1521.02H1521.02H1521.03H1521.03H1521.03H1521.03H1521.03H1521.04H1521.04H1521.04H1521.04H1521.05H1521.05H1521.05H1521.05H1521.06H1521.06H1521.06H1521.06H1521.07H1521.07H1521.07H1521.07H1521.08H1521.08H1521.08H1521.08H1521.09H1521.09H1521.09H1521.09H1521.1H1521.1H1521.1H1521.1H1521.11H1521.11H1521.11H1521.11H1521.12H1521.12H1521.12H1521.12H1521.13H1521.13H1521.13H1521.13H1521.14H1521.14H1521.14H1521.14H1521.15H1521.15H1521.15H1521.15H1521.16H1521.16H1521.16H1521.16H1521.17H1521.17H1521.17H1521.17H1521.18H1521.18H1521.18H1521.18H1521.19H1521.19H1521.19H1521.19H1521.2H1521.2H1521.2H1521.2H1521.21H1521.21H1521.21H1521.21H1521.22H1521.22H1521.22H1521.22H1521.23H1521.23H1521.23H1521.23H1521.24H1521.24H1521.24H1521.24H1521.25H1521.25H1521.25H1521.25H1521.26H1521.26H1521.26H1521.26H1521.27H1521.27H1521.27H1521.27H1521.28H1521.28H1521.28H1521.28H1521.29H1521.29H1521.29H1521.29H1521.3H1521.3H1521.3H1521.3H1521.31H1521.31H1521.31H1521.31H1521.31H1521.32H1521.32H1521.32H1521.32H1521.33H1521.33H1521.33H1521.33H1521.34H1521.34H1521.34H1521.34H1521.35H1521.35H1521.35H1521.35H1521.36C1528.43 466.254 1533.97 471.343 1535.17 478.52C1535.56 481.265 1535.01 483.351 1533.95 484.875C1532.88 486.411 1531.22 487.474 1529.23 488.033C1525.21 489.16 1520.05 488.174 1516.5 485.213Z" stroke="#3D5D82" stroke-width="2"/>
<path d="M1481.19 365.423C1485.84 365.423 1488.8 365.846 1488.8 366.269C1488.8 366.269 1488.8 366.269 1487.53 366.269C1485.84 366.269 1484.57 365.846 1482.88 365.846C1480.76 365.846 1479.07 365.846 1477.8 365.846C1479.07 365.423 1480.34 365.423 1481.19 365.423Z" fill="#3D5D82"/>
<path d="M1648.57 586.424L1648.63 586.409L1648.69 586.389C1649.68 586.057 1650.71 586.043 1651.56 586.043C1659.66 586.447 1667.17 593.065 1669.16 602.202C1669.85 605.453 1669.58 608.065 1668.73 610.053C1667.9 612.033 1666.46 613.49 1664.62 614.395C1660.93 616.221 1655.47 615.854 1650.3 612.476C1645.23 609.157 1642.06 603.145 1641.62 597.642C1641.4 594.906 1641.86 592.399 1642.99 590.449C1644.1 588.534 1645.9 587.069 1648.57 586.424Z" stroke="#3D5D82" stroke-width="3"/>
<path d="M1523.69 374.219C1524.43 374.389 1525.27 374.607 1526.17 374.868C1528.52 375.547 1531.24 376.487 1533.74 377.531C1536.39 378.756 1538.11 379.665 1539.08 380.309C1538.91 380.291 1538.72 380.265 1538.5 380.229C1537.3 380.029 1535.35 379.521 1532.22 378.268L1532.2 378.26L1532.11 378.217C1532.02 378.18 1531.9 378.126 1531.75 378.056C1531.44 377.916 1530.99 377.715 1530.46 377.471C1529.39 376.983 1527.97 376.324 1526.55 375.64C1525.55 375.16 1524.56 374.67 1523.69 374.219Z" stroke="#3D5D82" stroke-width="1.5"/>
<path d="M1777.75 846.249L1777.75 846.244L1777.76 846.239C1781.13 843.236 1784.06 843.233 1785.19 843.234C1789.5 843.431 1793.09 845.671 1795.54 849.383C1798.02 853.127 1799.35 858.387 1798.95 864.469C1798.13 875.068 1792.56 881.244 1785.68 881.266C1778.09 880.876 1773.76 874.506 1772.54 866.569C1771.93 862.64 1772.13 858.48 1773.06 854.819C1773.99 851.137 1775.62 848.097 1777.75 846.249Z" stroke="#3D5D82" stroke-width="3"/>
<path d="M1677.54 448.631C1679.09 450.183 1680.23 451.533 1681.02 452.674C1681.82 453.832 1682.21 454.718 1682.33 455.344C1682.45 455.946 1682.3 456.179 1682.18 456.288C1682.02 456.447 1681.61 456.64 1680.77 456.64C1679.04 456.64 1676.48 455.697 1673.56 454.069C1670.69 452.466 1667.61 450.284 1664.87 447.99C1662.13 445.691 1659.78 443.317 1658.33 441.344C1657.6 440.349 1657.15 439.518 1656.96 438.892C1656.77 438.254 1656.91 438.083 1656.95 438.042C1656.95 438.044 1656.95 438.043 1656.96 438.042C1656.97 438.033 1657.05 437.986 1657.26 437.951C1657.48 437.914 1657.72 437.912 1657.94 437.912C1660.62 437.912 1664.13 439.278 1667.74 441.373C1671.31 443.443 1674.84 446.141 1677.54 448.631Z" stroke="#3D5D82" stroke-width="2"/>
<path d="M1914.8 837.504C1914.8 845.157 1912.93 850.087 1910.68 852.433C1909.57 853.581 1908.43 854.07 1907.36 854.088C1906.29 854.106 1905.06 853.656 1903.8 852.486C1901.87 850.641 1900.3 847.51 1899.26 843.664C1898.24 839.847 1897.77 835.49 1897.93 831.373C1898.08 827.238 1898.85 823.463 1900.19 820.752C1901.53 818.055 1903.27 816.673 1905.34 816.584C1907.64 816.598 1909.98 818.382 1911.84 822.192C1913.67 825.953 1914.8 831.319 1914.8 837.504Z" stroke="#3D5D82" stroke-width="3"/>
<path d="M1840.03 583.578L1840.01 583.573L1839.99 583.568C1837.95 583.104 1835.34 581.317 1832.59 578.65C1829.89 576.018 1827.17 572.652 1824.9 569.237C1822.63 565.815 1820.85 562.397 1819.97 559.668C1819.52 558.297 1819.33 557.17 1819.38 556.336C1819.43 555.512 1819.69 555.126 1819.99 554.937L1820.09 554.876L1820.18 554.793C1820.26 554.712 1820.31 554.696 1820.35 554.686C1820.41 554.669 1820.5 554.664 1820.7 554.663C1822.88 554.863 1825.94 556.568 1829.26 559.586C1832.57 562.579 1835.99 566.729 1838.91 571.518C1841.85 576.565 1842.87 580.037 1842.73 581.988C1842.67 582.925 1842.35 583.346 1842.04 583.538C1841.69 583.751 1841.06 583.859 1840.03 583.578Z" stroke="#3D5D82" stroke-width="2"/>
<path d="M1600.01 383.189C1607.2 385.305 1613.54 387.42 1614.81 388.689C1612.27 388.689 1581.4 378.959 1580.56 378.113C1581.83 378.536 1590.71 380.651 1600.01 383.189Z" fill="#3D5D82"/>
<path d="M1783.95 470.33C1789.02 474.137 1796.63 480.483 1796.63 480.906C1795.37 480.483 1766.61 458.486 1766.19 457.64C1767.88 458.063 1775.49 463.562 1783.95 470.33Z" fill="#3D5D82"/>
<path d="M1438.65 832.336C1378.82 787.318 1319.86 741.094 1264.08 691.083C1218.93 650.607 1182.94 598.501 1156.55 544.226L1155.44 546.027C1181.99 600.636 1216.26 653.762 1261.68 694.486C1317.54 744.563 1377.62 788.904 1437.47 834.044L1438.65 832.336Z" fill="#3D5D82"/>
<path d="M1261.94 784.817C1300.73 720.777 1339.37 659.633 1383.54 599.117C1419.28 550.139 1465.36 517.001 1516.71 485.303L1514.81 484.372C1463.14 516.266 1415.87 547.797 1379.91 597.075C1335.69 657.671 1299.03 719.737 1260.12 783.816L1261.94 784.817Z" fill="#3D5D82"/>
<path d="M1626.67 786.28C1557.23 758.281 1490.67 729.964 1423.85 696.094C1369.76 668.682 1323.19 613.444 1283.65 567.849L1283.04 569.877C1322.82 615.754 1368 672.421 1422.41 700.001C1489.33 733.915 1556.48 760.124 1625.97 788.235L1626.67 786.28Z" fill="#3D5D82"/>
</g>
</g>
<defs>
<linearGradient id="paint0_linear_1440_2531" x1="1920" y1="953.466" x2="-20.9134" y2="71.2909" gradientUnits="userSpaceOnUse">
<stop stop-color="#DBDFF3"/>
<stop offset="1" stop-color="#F1F9FF" stop-opacity="0.1"/>
</linearGradient>
<linearGradient id="paint1_linear_1440_2531" x1="1920" y1="953.466" x2="-20.9134" y2="71.2909" gradientUnits="userSpaceOnUse">
<stop stop-color="#DBDFF3"/>
<stop offset="1" stop-color="#F1F9FF" stop-opacity="0.1"/>
</linearGradient>
</defs>
</svg>
