<svg width="164" height="124" viewBox="0 0 164 124" fill="none" xmlns="http://www.w3.org/2000/svg">
<path opacity="0.3" fill-rule="evenodd" clip-rule="evenodd" d="M151.726 64.3752C148.205 64.3752 145.351 61.5209 145.351 57.9999C145.351 54.4789 148.205 51.6246 151.726 51.6246C155.247 51.6246 158.102 54.4789 158.102 57.9999C158.102 61.5209 155.247 64.3752 151.726 64.3752ZM151.726 69.9536C145.125 69.9536 139.773 64.6018 139.773 57.9999C139.773 51.398 145.125 46.0461 151.726 46.0461C158.328 46.0461 163.68 51.398 163.68 57.9999C163.68 64.6018 158.328 69.9536 151.726 69.9536Z" fill="#1B2B7C"/>
<path opacity="0.2" fill-rule="evenodd" clip-rule="evenodd" d="M16.421 23.6825C12.178 23.6825 8.73844 20.2429 8.73844 15.9999C8.73844 11.7569 12.178 8.31731 16.421 8.31731C20.664 8.31731 24.1036 11.7569 24.1036 15.9999C24.1036 20.2429 20.664 23.6825 16.421 23.6825ZM16.421 31.6516C7.7768 31.6516 0.769281 24.6441 0.769281 15.9999C0.769281 7.35567 7.7768 0.348145 16.421 0.348145C25.0652 0.348145 32.0728 7.35567 32.0728 15.9999C32.0728 24.6441 25.0652 31.6516 16.421 31.6516Z" fill="#1B2B7C"/>
<path opacity="0.3" fill-rule="evenodd" clip-rule="evenodd" d="M89.0557 119.852C86.8551 119.852 85.0712 118.068 85.0712 115.867C85.0712 113.666 86.8551 111.882 89.0557 111.882C91.2564 111.882 93.0403 113.666 93.0403 115.867C93.0403 118.068 91.2564 119.852 89.0557 119.852ZM89.0557 123.836C84.6545 123.836 81.0866 120.268 81.0866 115.867C81.0866 111.466 84.6545 107.898 89.0557 107.898C93.457 107.898 97.0249 111.466 97.0249 115.867C97.0249 120.268 93.457 123.836 89.0557 123.836Z" fill="#FB5472"/>
</svg>
