<svg width="1920" height="330" viewBox="0 0 1920 330" fill="none" xmlns="http://www.w3.org/2000/svg">
<path d="M0.0769469 0H1920.08V330C1920.08 330 1708.08 306.9 1462.08 314.967C1216.08 323.033 406.077 336.233 198.077 323.033C-9.92307 309.833 0.0769469 330 0.0769469 330V0Z" fill="url(#paint0_linear_1402_2528)"/>
<mask id="mask0_1402_2528" style="mask-type:alpha" maskUnits="userSpaceOnUse" x="0" y="0" width="1921" height="330">
<path d="M0.0769469 0H1920.08V330C1920.08 330 1708.08 306.9 1462.08 314.967C1216.08 323.033 406.077 336.233 198.077 323.033C-9.92307 309.833 0.0769469 330 0.0769469 330V0Z" fill="url(#paint1_linear_1402_2528)"/>
</mask>
<g mask="url(#mask0_1402_2528)">
<g opacity="0.2">
<path opacity="0.4" d="M1657.16 328.094C1657.49 329.41 1657.82 330.398 1658.14 331.714L1660.78 341.918C1660.45 339.614 1660.45 339.614 1657.16 328.094Z" fill="#3D5D82"/>
<path opacity="0.4" d="M1002.12 181.959C1003.77 181.3 1004.75 180.971 1012.98 180.313C1012.65 180.642 1012.32 180.971 1011.99 181.3C1011.66 181.63 1011.66 181.959 1011.34 181.959C1009.69 182.288 1007.72 182.288 1006.07 182.617C1006.07 182.617 1001.46 183.275 1000.48 183.933C1001.14 183.275 1001.79 182.617 1002.12 181.959Z" fill="#3D5D82"/>
<path opacity="0.4" d="M1400.54 71.3686C1400.21 71.0394 1399.88 71.0394 1399.22 71.0394C1407.12 73.6725 1417.32 76.9639 1425.21 79.9261C1426.53 80.2553 1427.85 80.9136 1428.83 81.2427C1420.61 78.2805 1409.42 74.0017 1400.54 71.3686Z" fill="#3D5D82"/>
<path opacity="0.4" d="M1145.57 81.901C1150.83 80.2553 1150.83 80.2553 1158.07 78.6096C1157.41 78.9388 1156.75 79.2679 1155.76 79.597C1154.12 79.9262 1152.15 80.5844 1150.5 80.9136C1148.2 81.5719 1145.24 82.5593 1143.26 83.2175C1144.25 82.5593 1144.91 82.2301 1145.57 81.901Z" fill="#3D5D82"/>
<path opacity="0.4" d="M1080.09 115.802C1106.08 100.332 1114.64 95.7244 1150.5 81.5715C1137.34 87.496 1123.52 92.4331 1110.69 98.6867C1100.49 103.624 1087.33 111.523 1077.46 117.448C1078.12 117.118 1079.11 116.46 1080.09 115.802Z" fill="#3D5D82"/>
<path opacity="0.4" d="M1274.86 54.9116C1275.19 54.9116 1275.85 54.9116 1276.18 54.9116C1242.62 57.2156 1215.97 58.8613 1170.57 74.3307C1170.24 74.3307 1169.58 74.3307 1169.25 74.6599C1198.53 65.1149 1221.56 57.5447 1274.86 54.9116Z" fill="#3D5D82"/>
<path opacity="0.4" d="M1211.69 74.3307C1211.36 74.6598 1211.04 74.989 1210.38 74.989C1193.93 76.3055 1177.15 76.6346 1160.7 78.2803C1162.67 77.6221 1164.98 76.9638 1211.69 74.3307Z" fill="#3D5D82"/>
<path opacity="0.4" d="M919.544 328.096C932.046 293.207 947.509 249.761 1006.07 189.858C1003.11 197.757 993.24 204.34 987.318 210.265C969.881 229.025 937.639 269.838 918.228 331.387V330.729C918.886 329.741 919.215 329.083 919.544 328.096Z" fill="#3D5D82"/>
<path opacity="0.4" d="M1009.03 190.516C1009.36 190.187 1009.69 189.858 1010.02 189.529C994.227 219.151 970.539 263.913 984.686 348.172C984.357 348.501 983.699 349.159 983.37 349.488C978.435 311.967 970.868 255.356 1009.03 190.516Z" fill="#3D5D82"/>
<path opacity="0.4" d="M1146.55 83.8757H1146.88C1112.34 100.662 1073.19 119.423 1025.15 170.439C1048.84 146.083 1081.08 112.84 1146.55 83.8757Z" fill="#3D5D82"/>
<path opacity="0.4" d="M1151.82 81.9007C1152.47 81.5716 1152.8 81.5716 1153.46 81.2424C1132.73 92.7622 1093.91 113.827 1102.8 162.539C1102.14 163.198 1101.81 163.198 1101.15 163.856C1098.85 144.108 1094.9 110.865 1151.82 81.9007Z" fill="#3D5D82"/>
<path opacity="0.4" d="M1095.89 169.451C1095.56 170.109 1095.23 170.438 1094.9 171.096C1052.79 175.375 1038.97 177.35 1018.9 180.641C1020.22 179.654 1022.19 177.021 1095.89 169.451Z" fill="#3D5D82"/>
<path opacity="0.4" d="M1094.24 179.326C1094.57 179.326 1094.9 179.655 1094.9 179.655C1052.13 231.987 1023.18 274.117 992.254 347.514C991.925 347.514 991.596 347.185 991.596 347.185C1014.63 290.903 1038.64 245.482 1094.24 179.326Z" fill="#3D5D82"/>
<path opacity="0.4" d="M1101.48 178.997C1101.81 178.667 1102.47 178.338 1103.13 178.338C1099.84 231.658 1109.05 283.991 1167.94 391.947C1167.28 392.276 1166.62 392.934 1165.97 393.263C1119.91 307.359 1094.9 244.824 1101.48 178.997C1101.48 178.997 1101.15 178.997 1101.48 178.997Z" fill="#3D5D82"/>
<path opacity="0.4" d="M1205.77 79.5968C1179.45 96.7119 1152.15 114.485 1112.34 159.906C1112.01 159.906 1111.68 159.577 1111.35 159.577C1133.72 135.221 1161.36 105.27 1205.77 79.5968Z" fill="#3D5D82"/>
<path opacity="0.4" d="M1250.52 134.891C1250.52 135.221 1250.52 135.879 1250.52 136.208C1205.44 146.082 1158.73 155.956 1112.34 167.805C1112.67 167.476 1112.67 166.818 1112.99 166.489C1133.06 161.552 1154.12 155.956 1250.52 134.891Z" fill="#3D5D82"/>
<path opacity="0.4" d="M1213.34 77.6223C1213.67 77.2931 1214.33 77.2931 1214.65 76.964C1213.01 90.7878 1218.27 101.978 1253.48 128.309C1253.15 128.968 1252.82 128.968 1252.49 129.626C1219.92 104.612 1211.04 93.0917 1213.34 77.6223C1213.34 77.6223 1213.01 77.6223 1213.34 77.6223Z" fill="#3D5D82"/>
<path opacity="0.4" d="M1282.1 54.5826C1282.76 54.5826 1283.42 54.5826 1284.4 54.5826C1237.03 55.5701 1213.67 61.8237 1215.31 72.6852C1214.65 73.0143 1214.33 73.0143 1213.67 73.3435C1212.68 62.1528 1235.38 55.8992 1282.1 54.5826C1281.77 54.5826 1281.77 54.5826 1282.1 54.5826Z" fill="#3D5D82"/>
<path opacity="0.4" d="M1288.68 54.5826L1289.01 54.9118C1287.36 55.5701 1286.05 56.2283 1278.48 58.2032C1259.4 63.4694 1240.32 68.0773 1221.23 73.3435C1222.22 72.6852 1222.22 72.6852 1235.05 69.3938C1236.37 69.0647 1242.29 67.419 1266.31 61.1654C1285.72 56.2283 1287.36 55.5701 1289.01 54.9118C1288.68 54.5826 1288.68 54.5826 1288.68 54.5826Z" fill="#3D5D82"/>
<path opacity="0.4" d="M1493.97 114.156C1494.63 114.485 1495.29 115.143 1495.95 115.472C1497.92 116.789 1500.23 118.764 1501.54 121.068C1502.2 122.384 1501.87 124.359 1501.87 126.005C1501.21 125.676 1500.55 125.017 1499.9 124.688C1500.23 123.043 1500.23 120.409 1499.24 119.093C1498.25 117.118 1495.62 115.472 1493.97 114.156Z" fill="#3D5D82"/>
<path opacity="0.4" d="M1289.67 54.5826C1293.28 57.2157 1295.59 58.8614 1289.99 75.3183C1285.72 87.8255 1274.2 108.89 1264.99 126.005C1264.66 126.005 1264.33 125.676 1264 125.676C1288.68 78.6097 1298.22 61.1654 1289.67 54.5826Z" fill="#3D5D82"/>
<path opacity="0.4" d="M1255.78 142.462C1256.11 142.462 1256.77 142.791 1257.1 142.791C1220.91 242.848 1202.81 292.876 1178.79 390.629C1178.47 390.629 1177.81 390.3 1177.48 390.3C1188.34 339.943 1205.44 275.103 1255.78 142.462Z" fill="#3D5D82"/>
<path opacity="0.4" d="M1335.4 232.974C1335.73 233.303 1336.38 233.632 1336.71 233.961C1289.01 290.243 1234.72 340.272 1185.04 394.579C1184.72 394.25 1184.06 393.592 1183.73 393.262C1232.42 338.297 1286.7 288.268 1335.4 232.974Z" fill="#3D5D82"/>
<path opacity="0.4" d="M1264.66 141.145C1265.32 140.816 1265.65 140.487 1265.98 140.158C1284.07 161.881 1289.34 168.134 1335.73 214.872C1335.07 215.53 1334.74 215.53 1334.41 216.188C1292.63 174.059 1281.44 162.21 1264.66 141.145Z" fill="#3D5D82"/>
<path opacity="0.4" d="M1307.1 63.7985C1307.43 63.7985 1307.43 64.1276 1307.76 64.1276C1308.09 76.964 1304.14 87.4964 1266.97 126.993C1266.64 126.664 1266.31 126.335 1265.98 126.005C1292.63 97.6996 1308.75 78.9388 1307.1 63.7985Z" fill="#3D5D82"/>
<path opacity="0.4" d="M1382.44 111.852C1382.77 112.181 1383.1 112.51 1383.43 112.84C1357.11 119.093 1328.49 124.03 1269.27 133.246C1269.27 132.917 1269.27 132.259 1269.27 131.93C1313.35 124.689 1347.9 119.422 1382.44 111.852Z" fill="#3D5D82"/>
<path opacity="0.4" d="M1368.63 69.3937C1410.74 87.8254 1455.81 112.182 1502.86 189.2C1502.53 189.2 1502.2 189.2 1502.2 189.2C1470.62 141.146 1439.03 98.6869 1368.63 69.3937Z" fill="#3D5D82"/>
<path opacity="0.4" d="M1502.86 130.942C1503.19 131.271 1525.89 150.361 1511.74 194.794C1511.08 194.136 1510.75 193.807 1510.1 193.149C1515.36 174.717 1520.29 157.602 1502.86 130.942Z" fill="#3D5D82"/>
<path opacity="0.4" d="M1363.03 68.077C1370.6 70.381 1380.8 80.2551 1381.46 81.2425C1389.02 92.1041 1389.35 93.7497 1390.01 106.586C1389.35 106.257 1389.02 105.928 1388.37 105.599C1387.05 86.5087 1384.09 80.5842 1363.03 68.077Z" fill="#3D5D82"/>
<path opacity="0.4" d="M1311.38 64.1274C1331.78 74.6598 1347.9 83.8757 1379.81 104.611C1379.81 104.94 1379.48 104.94 1379.48 105.27C1350.2 86.1796 1335.4 76.9638 1311.38 64.1274Z" fill="#3D5D82"/>
<path opacity="0.4" d="M1289.01 54.5826H1288.68C1292.63 54.9118 1309.08 56.2283 1351.85 64.1276C1352.5 64.4568 1352.83 64.4568 1353.49 64.7859C1309.73 56.5575 1292.95 54.9118 1289.01 54.5826Z" fill="#3D5D82"/>
<path opacity="0.4" d="M1290.32 54.9118C1290.32 54.5826 1290 54.5826 1290.32 54.9118C1293.94 55.8992 1298.88 57.874 1302.5 59.1906C1298.55 57.874 1293.94 55.8992 1290.32 54.9118Z" fill="#3D5D82"/>
<path opacity="0.4" d="M1310.06 62.1526C1309.74 62.1526 1309.74 61.8235 1309.41 61.8235C1334.08 63.7983 1340.33 64.1275 1354.48 65.444C1355.14 65.7731 1355.8 65.7731 1356.12 66.1023C1342.96 64.4566 1335.4 63.7983 1310.06 62.1526Z" fill="#3D5D82"/>
<path opacity="0.4" d="M1397.91 117.447C1397.91 117.118 1397.91 116.789 1398.23 116.789C1441.33 145.753 1459.76 159.577 1498.25 190.845C1498.25 191.174 1497.92 191.503 1497.92 191.833C1459.1 160.235 1440.35 146.412 1397.91 117.447C1397.91 117.447 1397.91 117.777 1397.91 117.447Z" fill="#3D5D82"/>
<path opacity="0.4" d="M1388.37 117.118C1388.7 117.447 1389.02 117.447 1389.35 117.777C1389.02 135.55 1388.37 159.577 1351.19 215.86C1350.53 215.201 1350.2 215.201 1349.54 214.543C1366.32 188.212 1389.35 152.007 1388.37 117.118Z" fill="#3D5D82"/>
<path opacity="0.4" d="M1349.87 236.265C1350.53 235.936 1351.19 235.936 1351.52 235.607C1380.8 287.281 1408.11 335.993 1438.04 404.782C1437.72 405.111 1437.06 405.111 1436.4 405.44C1407.45 343.234 1396.59 319.865 1349.87 236.265C1349.87 236.265 1349.54 236.265 1349.87 236.265Z" fill="#3D5D82"/>
<path opacity="0.4" d="M1500.56 200.719C1500.88 201.048 1501.21 201.706 1501.54 202.035C1488.05 204.997 1459.76 211.251 1356.45 224.087C1356.45 223.758 1356.12 223.1 1356.12 222.442C1488.38 203.023 1488.38 203.023 1500.56 200.719Z" fill="#3D5D82"/>
<path opacity="0.4" d="M1508.45 209.605C1508.78 209.934 1509.11 209.934 1509.44 210.263C1512.07 259.304 1503.19 309.333 1451.2 407.415C1450.55 407.086 1449.89 406.428 1449.23 406.099C1480.48 345.209 1511.41 280.04 1508.45 209.605Z" fill="#3D5D82"/>
<path opacity="0.4" d="M1399.55 71.0394C1448.9 85.5215 1482.13 111.523 1492.99 120.081C1492.66 120.081 1492.66 119.752 1492.33 119.752C1492.33 119.752 1492 119.423 1491.67 119.423C1485.75 116.46 1479.17 110.207 1473.9 106.257C1462.72 97.6996 1440.35 84.8632 1399.55 71.0394Z" fill="#3D5D82"/>
<path opacity="0.4" d="M1368.3 68.4062C1367.97 68.4062 1367.64 68.077 1367.31 68.077C1416.66 83.5465 1443.97 95.0663 1489.37 120.081C1489.7 120.41 1490.03 120.739 1490.36 121.068C1453.84 100.991 1425.87 86.5087 1368.3 68.4062C1368.3 68.4062 1368.63 68.7353 1368.3 68.4062Z" fill="#3D5D82"/>
<path opacity="0.4" d="M1518.32 209.934C1518.32 209.605 1518.65 209.276 1518.65 208.947C1549.9 239.557 1570.63 260.292 1601.23 302.751C1601.23 303.08 1600.9 303.409 1600.9 303.738C1576.22 271.154 1561.09 251.735 1518.32 209.934C1518.32 209.934 1518.32 210.263 1518.32 209.934Z" fill="#3D5D82"/>
<path opacity="0.4" d="M1513.38 211.58C1513.71 211.58 1514.04 211.58 1514.37 211.58C1528.52 241.86 1552.21 292.218 1558.46 383.059C1558.13 383.059 1557.8 383.059 1557.47 383.059C1551.22 329.081 1545.3 278.065 1513.38 211.58Z" fill="#3D5D82"/>
<path opacity="0.4" d="M1604.85 322.498C1605.5 323.486 1605.5 323.486 1606.16 324.473C1594.98 348.829 1591.03 357.716 1566.35 390.301C1566.02 389.313 1565.69 388.984 1565.04 388.326C1584.45 361.995 1591.69 352.45 1604.85 322.498Z" fill="#3D5D82"/>
<path opacity="0.4" d="M1611.76 230.67C1638.73 276.091 1644.33 288.269 1659.79 338.298C1643.67 286.952 1638.41 275.103 1611.76 230.67Z" fill="#3D5D82"/>
<path opacity="0.4" d="M1510.75 133.246C1510.42 132.917 1510.09 132.588 1510.09 132.258C1536.09 150.032 1568 171.755 1596.95 208.947C1597.28 209.277 1597.28 209.606 1597.61 209.935C1579.51 188.87 1559.12 164.843 1510.75 133.246C1510.75 133.575 1510.75 133.575 1510.75 133.246Z" fill="#3D5D82"/>
<path opacity="0.4" d="M1509.44 134.892C1510.1 135.221 1579.51 185.578 1606.49 301.763C1606.16 301.763 1605.83 301.434 1605.83 301.434C1593.66 257.001 1576.88 196.111 1509.44 134.892Z" fill="#3D5D82"/>
<path opacity="0.4" d="M1607.15 224.087C1618.99 240.873 1629.52 269.179 1612.74 309.005C1612.08 308.017 1612.08 307.688 1611.43 307.03C1618.99 285.965 1628.54 260.292 1607.15 224.087Z" fill="#3D5D82"/>
<path opacity="0.4" d="M1364.68 62.1528C1365.67 62.482 1366.65 62.482 1367.64 62.8111L1380.8 65.7733C1379.15 65.4442 1379.15 65.4442 1364.68 62.1528Z" fill="#3D5D82"/>
<path opacity="0.4" d="M1310.39 55.2407C1311.38 55.2407 1312.04 55.2407 1313.02 55.2407C1339.67 57.2155 1352.83 60.1778 1358.43 64.7857C1357.77 64.4566 1357.11 64.4566 1356.45 64.1274C1355.79 63.7983 1354.81 63.14 1354.15 62.4817C1353.49 62.1526 1349.87 60.1778 1341.98 58.5321C1330.79 56.5573 1317.96 55.5699 1310.39 55.2407Z" fill="#3D5D82"/>
<path opacity="0.4" d="M1361.72 66.1025C1361.06 65.7734 1360.73 65.7734 1360.07 65.4442C1374.55 66.1025 1380.8 66.7608 1386.39 67.419C1387.05 67.7482 1388.04 67.7482 1388.69 68.0773C1383.43 67.419 1378.17 67.0899 1361.72 66.1025Z" fill="#3D5D82"/>
<path opacity="0.4" d="M1611.43 328.752C1611.76 328.752 1612.08 328.752 1612.41 329.081C1623.93 388.326 1626.89 429.797 1614.39 505.498C1614.06 505.498 1613.73 505.498 1613.4 505.168C1623.27 439.012 1624.92 399.845 1611.43 328.752Z" fill="#3D5D82"/>
<path opacity="0.4" d="M1616.03 318.878C1616.03 317.891 1615.7 317.232 1615.7 316.903C1641.69 329.41 1650.91 335.006 1661.11 347.842C1661.43 348.5 1661.43 349.488 1661.76 350.146C1652.22 338.955 1645.64 333.031 1616.03 318.878C1616.03 318.878 1616.36 319.207 1616.03 318.878Z" fill="#3D5D82"/>
<path opacity="0.4" d="M1288.35 54.5826C1281.77 54.5826 1276.18 54.9118 1272.56 54.9118C1277.82 54.5826 1283.09 54.5826 1288.35 54.5826Z" fill="#3D5D82"/>
<path opacity="0.4" d="M1160.04 77.6219C1153.46 80.255 1147.54 82.559 1146.22 83.5464C1148.2 83.2173 1172.21 74.0014 1172.87 73.3431C1171.56 73.6723 1165.96 75.6471 1160.04 77.6219Z" fill="#3D5D82"/>
<path d="M1008.17 189.291L1008.17 189.291L1008.16 189.296C1008.02 189.394 1007.89 189.484 1007.77 189.567C1008.08 189.006 1008.51 188.333 1009.06 187.556C1010.22 185.925 1011.83 183.911 1013.78 181.628C1016.37 178.717 1018.94 176.224 1021.1 174.43C1021.87 173.789 1022.57 173.245 1023.2 172.807C1022.31 174.262 1020.92 176.127 1019.27 178.123C1015.55 182.622 1010.8 187.434 1008.17 189.291ZM1024.15 170.775C1024.15 170.767 1024.15 170.762 1024.15 170.762C1024.15 170.762 1024.15 170.766 1024.15 170.775ZM1007.19 190.965C1007.19 190.972 1007.19 190.976 1007.19 190.976C1007.19 190.977 1007.19 190.973 1007.19 190.965Z" stroke="#3D5D82" stroke-opacity="0.4" stroke-width="3"/>
<path d="M1096.85 171.082C1096.95 170.917 1097.05 170.758 1097.14 170.604C1098.72 168.409 1100.82 166.076 1103.18 164.262C1105.55 162.433 1108.05 161.229 1110.41 161.077C1111.65 161.086 1112.02 161.494 1112.18 161.797C1112.41 162.258 1112.5 163.144 1112.12 164.534C1111.39 167.255 1109.18 170.821 1106.34 173.657C1103.22 176.777 1099.98 178.297 1097.64 178.576C1096.47 178.716 1095.65 178.532 1095.17 178.244C1094.77 178 1094.49 177.623 1094.43 176.966C1094.44 176 1094.81 174.867 1095.39 173.683C1095.85 172.72 1096.39 171.843 1096.85 171.082Z" stroke="#3D5D82" stroke-opacity="0.4" stroke-width="3"/>
<path opacity="0.4" d="M1211.37 74.6599C1215.97 72.3559 1221.24 70.3811 1223.54 70.3811C1223.87 70.3811 1224.85 70.3811 1223.54 71.6977C1219.26 75.6473 1205.44 81.9009 1205.77 79.2678C1205.77 78.2804 1207.75 76.6347 1211.37 74.6599Z" fill="#3D5D82"/>
<path d="M1252.27 133.72L1252.3 133.632L1252.32 133.54C1252.57 132.276 1254.5 127.126 1261.44 126.518C1263.35 126.529 1264.72 127.044 1265.68 127.777C1266.65 128.521 1267.3 129.565 1267.61 130.785C1268.26 133.266 1267.51 136.351 1265.56 138.457C1263.32 140.688 1259.82 141.561 1256.89 140.99C1255.44 140.707 1254.22 140.088 1253.38 139.204C1252.56 138.342 1252.02 137.154 1252.02 135.55C1252.02 135.235 1252.02 134.459 1252.27 133.72Z" stroke="#3D5D82" stroke-opacity="0.4" stroke-width="3"/>
<path opacity="0.4" d="M1288.35 54.5826C1289.67 54.5826 1290.32 54.5826 1290.32 54.9118C1290.32 54.9118 1290 54.9118 1289.67 54.9118C1289.01 54.5826 1288.68 54.5826 1288.35 54.5826Z" fill="#3D5D82"/>
<path d="M1332.95 223.429C1332.95 221.246 1333.6 219.079 1335.08 217.435C1336.52 215.822 1338.89 214.558 1342.65 214.397C1354.99 214.732 1358.23 227.7 1352.79 232.874C1350.02 235.507 1345.07 236.196 1340.69 234.571C1336.41 232.985 1332.95 229.29 1332.95 223.429Z" stroke="#3D5D82" stroke-opacity="0.4" stroke-width="3"/>
<path d="M1308.73 63.5465C1307.47 63.1412 1305.88 62.3151 1304.17 60.7708C1304.03 60.6233 1303.88 60.4715 1303.75 60.3219C1304.18 60.4245 1304.68 60.5868 1305.22 60.8068C1306.2 61.2037 1307.25 61.7506 1308.17 62.3373C1309 62.8705 1309.69 63.4062 1310.12 63.8585C1309.75 63.8176 1309.28 63.7259 1308.73 63.5465ZM1302.74 60.196C1302.74 60.1956 1302.74 60.1943 1302.76 60.193C1302.75 60.1957 1302.74 60.1964 1302.74 60.196Z" stroke="#3D5D82" stroke-opacity="0.4" stroke-width="2"/>
<path d="M1382.71 109.387L1382.69 109.346L1382.66 109.307C1382.2 108.701 1381.39 107.372 1381.21 106.292C1381.12 105.773 1381.22 105.574 1381.27 105.511C1381.3 105.465 1381.53 105.202 1382.47 105.126C1386.01 105.304 1390.24 107.863 1393.26 110.931C1394.77 112.457 1395.86 113.988 1396.38 115.224C1396.93 116.539 1396.65 116.921 1396.58 116.986C1396.32 117.208 1395.74 117.443 1394.69 117.409C1393.67 117.375 1392.38 117.083 1390.97 116.479C1388.15 115.275 1385.01 112.914 1382.71 109.387Z" stroke="#3D5D82" stroke-opacity="0.4" stroke-width="3"/>
<path d="M1510.11 208.762C1506.93 206.905 1503.43 203.433 1500.92 198.415C1499.31 195.042 1499.11 193.006 1499.41 191.951C1499.54 191.482 1499.77 191.214 1500.04 191.039C1500.35 190.846 1500.83 190.699 1501.54 190.699C1503.22 190.699 1505.29 191.56 1507.48 193.157C1509.63 194.73 1511.74 196.898 1513.45 199.222C1515.17 201.556 1516.43 203.96 1516.98 205.977C1517.55 208.067 1517.24 209.252 1516.65 209.816C1516.25 210.173 1515.52 210.431 1514.34 210.309C1513.17 210.188 1511.71 209.694 1510.11 208.762Z" stroke="#3D5D82" stroke-opacity="0.4" stroke-width="3"/>
<path d="M1356.29 65.3017L1356.29 65.3016L1356.28 65.2989C1354.77 64.7943 1353.51 64.3691 1352.46 64.0094C1354.57 64.5348 1357.02 65.2116 1359.4 65.9231C1362 66.7031 1364.51 67.522 1366.36 68.2256C1366.73 68.3665 1367.07 68.5019 1367.38 68.6306C1366.62 68.4651 1365.72 68.2379 1364.73 67.9652C1362.19 67.2694 1359.08 66.2857 1356.29 65.3017Z" stroke="#3D5D82" stroke-opacity="0.6"/>
<path d="M1613.99 327.034L1613.96 327.061L1613.93 327.091C1613.58 327.478 1613.1 327.672 1612.36 327.542C1611.56 327.402 1610.49 326.872 1609.28 325.758C1606.88 323.543 1604.28 319.312 1602.69 312.929C1602.05 310.214 1601.77 307.478 1602.09 305.457C1602.25 304.45 1602.55 303.745 1602.9 303.301C1603.22 302.917 1603.62 302.666 1604.25 302.605C1605.44 302.633 1606.99 303.545 1608.67 305.547C1610.33 307.512 1611.87 310.241 1613.04 313.18C1614.21 316.117 1614.97 319.17 1615.14 321.752C1615.31 324.429 1614.82 326.197 1613.99 327.034Z" stroke="#3D5D82" stroke-opacity="0.4" stroke-width="3"/>
<path d="M1496.88 124.501L1496.87 124.494L1496.86 124.487C1495.89 123.736 1494.9 122.958 1493.99 122.203C1496.29 123.596 1498.91 125.382 1501.39 127.212C1503.7 128.921 1505.86 130.646 1507.47 132.099C1505.13 130.716 1501.71 128.336 1496.88 124.501Z" stroke="#3D5D82" stroke-opacity="0.4" stroke-width="3"/>
<path opacity="0.4" d="M1387.71 67.748C1383.1 66.4314 1378.5 65.444 1373.89 64.1274C1379.81 65.1149 1397.58 70.0519 1402.51 72.0267C1402.18 72.0267 1402.18 72.0267 1400.54 71.3685C1393.96 69.3936 1391.99 69.0645 1387.71 67.748Z" fill="#3D5D82"/>
<path opacity="0.4" d="M1602.54 217.505C1599.91 213.884 1597.61 210.593 1594.98 206.972L1599.25 212.568L1611.76 230.67C1608.79 226.391 1605.83 221.783 1602.54 217.505Z" fill="#3D5D82"/>
<path d="M1565.04 167.476C1564.38 166.818 1563.72 166.159 1563.06 165.501C1562.41 164.843 1561.75 164.185 1561.42 163.855C1535.1 139.829 1485.75 94.7371 1395.27 67.748C1457.46 90.4584 1506.15 108.89 1565.04 167.476Z" fill="#3D5D82"/>
<path d="M1585.77 189.857C1585.11 189.199 1584.78 188.541 1584.12 187.882C1581.16 184.92 1576.88 180.641 1573.59 177.679C1574.25 178.337 1574.58 178.996 1575.24 179.325C1578.2 182.945 1582.8 186.566 1585.77 189.857Z" fill="#3D5D82"/>
<path d="M1649.26 347.514C1649.59 347.843 1649.92 348.501 1649.92 348.83C1647.95 316.575 1644.98 272.141 1605.83 216.517C1605.18 215.53 1604.19 214.213 1603.53 213.226C1622.28 241.202 1647.62 280.041 1649.26 347.514C1649.26 347.514 1649.26 347.185 1649.26 347.514Z" fill="#3D5D82"/>
<path d="M1395.6 79.926C1396.26 80.2551 1396.59 80.5843 1397.25 80.5843C1398.89 76.6346 1399.22 75.3181 1396.59 71.6976C1394.62 69.0645 1390.01 66.7605 1386.39 65.1148C1385.73 64.7857 1384.75 64.7857 1384.09 64.4565C1389.68 67.0896 1392.64 68.4062 1394.95 71.6976C1397.25 74.9889 1396.59 77.2929 1395.6 79.926C1395.6 79.5969 1395.6 79.5969 1395.6 79.926Z" fill="#3D5D82"/>
<path d="M1559.45 165.172C1520.29 128.967 1478.18 94.7371 1396.59 67.748C1448.57 86.1796 1496.61 106.257 1559.45 165.172Z" fill="#3D5D82"/>
<path d="M1563.06 170.109C1562.73 169.78 1526.22 132.258 1403.83 84.863C1408.76 88.8127 1417.32 90.7875 1423.24 93.0914C1506.48 126.334 1545.96 156.944 1563.06 170.109Z" fill="#3D5D82"/>
<path d="M1554.51 245.481C1554.84 245.81 1555.17 246.469 1555.5 247.127C1574.58 224.417 1583.13 206.972 1572.94 180.97C1572.28 180.312 1571.95 179.983 1571.29 179.325C1578.86 200.719 1578.2 216.188 1554.51 245.481C1554.18 245.481 1554.18 245.152 1554.51 245.481Z" fill="#3D5D82"/>
<path d="M1647.62 345.538C1647.95 345.538 1647.95 345.867 1648.27 346.196C1641.04 306.7 1630.84 252.722 1579.18 186.237L1578.53 185.578C1601.89 217.834 1634.13 261.609 1647.62 345.538C1647.29 345.538 1647.29 345.538 1647.62 345.538Z" fill="#3D5D82"/>
<path d="M1643.67 351.792C1643.67 348.501 1620.64 310.65 1560.1 259.305C1560.1 259.634 1560.1 260.292 1560.1 260.621C1591.36 288.598 1618.34 313.283 1643.67 351.792Z" fill="#3D5D82"/>
<path d="M1290.98 51.2911C1292.96 51.6203 1296.25 51.2911 1296.25 51.2911C1295.92 51.2911 1295.59 51.2911 1295.59 51.2911H1292.96C1293.29 51.2911 1293.61 51.2911 1293.94 51.2911C1292.96 51.6203 1291.97 51.2911 1290.98 51.2911Z" fill="#3D5D82"/>
<path d="M1379.81 63.4692C1370.6 60.8361 1325.53 54.2533 1291.97 51.6202C1370.6 61.8235 1370.6 61.8235 1379.81 63.4692Z" fill="#3D5D82"/>
<path d="M1374.22 61.4944C1374.88 61.4944 1375.21 61.8235 1375.86 61.8235C1354.48 56.8864 1345.6 54.5825 1313.68 51.9494L1310.39 51.6202C1337.7 54.2533 1346.91 54.9116 1374.22 61.4944Z" fill="#3D5D82"/>
<path d="M1615.05 480.812C1615.37 480.812 1615.7 480.483 1616.03 480.483C1613.73 437.367 1610.44 365.286 1557.47 264.242C1557.14 264.242 1556.81 264.571 1556.48 264.571C1584.12 320.853 1611.43 384.047 1615.05 480.812Z" fill="#3D5D82"/>
<path d="M1336.38 226.062C1337.04 226.062 1337.7 226.062 1338.36 226.062C1332.76 196.769 1315.66 106.915 1297.56 63.7985C1296.9 63.7985 1296.9 63.7985 1296.9 63.7985C1301.51 75.9765 1315.66 113.169 1336.38 226.062Z" fill="#3D5D82"/>
<path d="M1387.05 78.9386C1384.09 76.6347 1322.9 56.2282 1293.29 51.6202C1311.05 55.5699 1333.09 60.1778 1387.05 78.9386Z" fill="#3D5D82"/>
<path d="M1389.68 80.5843C1388.37 79.5969 1388.04 79.5969 1375.54 76.9638C1350.2 71.3685 1324.54 66.4314 1299.21 60.8361C1299.21 60.8361 1299.21 61.1652 1299.54 61.4943C1329.48 68.0771 1359.74 74.0016 1389.68 80.5843Z" fill="#3D5D82"/>
<path d="M1542.34 238.898C1542.67 238.898 1542.99 238.898 1542.99 238.569C1509.77 180.312 1473.58 132.258 1405.47 87.4961C1451.2 119.751 1492.66 152.994 1542.34 238.898Z" fill="#3D5D82"/>
<path d="M1347.24 229.024C1347.57 229.353 1348.23 229.682 1348.56 230.011C1392.97 179.983 1427.59 126.632 1397.65 84.8323C1397.32 84.5032 1396.66 84.1741 1396 84.1741C1415.08 113.796 1416 151.348 1347.24 229.024Z" fill="#3D5D82"/>
<path d="M1427.52 376.148C1427.85 376.807 1428.18 377.136 1428.5 377.794C1480.49 337.968 1520.3 302.751 1546.62 259.963C1545.96 259.305 1545.63 258.975 1544.97 257.988C1526.22 286.623 1503.19 317.233 1427.52 376.148C1427.19 376.148 1427.19 375.819 1427.52 376.148Z" fill="#3D5D82"/>
<path d="M1541.68 252.063C1541.35 251.405 1541.02 250.418 1540.69 249.76C1514.73 252.063 1487.97 257.041 1441.99 254.347C1417.99 252.942 1383.16 249.08 1351.95 241.033C1351.95 241.692 1351.95 242.679 1351.95 243.337C1375.34 249.359 1408 254.486 1441.99 256.465C1474.85 258.378 1509.43 254.347 1541.68 252.063Z" fill="#3D5D82"/>
<path d="M1328.82 230.012C1329.15 229.683 1329.48 229.354 1329.8 229.025C1259.07 161.552 1244.59 147.728 1227.49 117.447C1227.16 117.776 1226.83 118.106 1226.5 118.106C1245.91 152.665 1271.24 177.679 1328.82 230.012Z" fill="#3D5D82"/>
<path d="M1326.18 237.582C1326.18 236.923 1326.18 236.265 1326.18 235.607C1240.97 221.783 1202.15 215.529 1141.95 203.022C1141.62 203.681 1141.29 204.339 1140.96 204.997C1202.81 217.504 1239 223.429 1326.18 237.582Z" fill="#3D5D82"/>
<path d="M1408.76 371.87C1409.09 371.54 1409.75 371.211 1410.41 371.211C1395.28 338.956 1387.71 322.828 1347.24 250.089C1346.91 250.418 1346.25 250.418 1345.93 250.747C1397.25 348.501 1397.25 348.501 1408.76 371.87Z" fill="#3D5D82"/>
<path d="M1125.17 381.084C1125.5 381.414 1125.5 381.743 1125.82 382.072C1193.27 336.322 1262.36 292.547 1329.8 246.797C1329.47 246.139 1328.82 245.481 1328.49 244.823C1260.39 290.243 1190.64 332.702 1125.17 381.084Z" fill="#3D5D82"/>
<path d="M1276.51 51.6203C1275.85 51.6203 1275.19 51.6203 1274.53 51.6203C1279.8 51.6203 1285.39 51.6203 1290.65 51.2911C1290.32 51.2911 1290.32 51.2911 1289.99 51.2911C1285.72 51.6203 1281.11 51.6203 1276.51 51.6203Z" fill="#3D5D82"/>
<path d="M1163.08 169.154C1163.41 169.483 1163.73 169.812 1163.73 169.812C1192.36 140.848 1183.73 150.032 1216.63 119.422C1216.3 119.093 1215.97 119.093 1215.64 118.764C1191.3 141.474 1191.7 139.202 1163.08 169.154Z" fill="#3D5D82"/>
<path d="M1296.25 57.5449C1296.25 57.5449 1296.58 57.5449 1296.58 57.8741C1296.58 56.8866 1296.25 55.241 1296.25 54.2535C1295.59 53.5953 1294.27 52.6079 1293.61 51.9496H1293.29C1294.27 52.6079 1295.26 53.5953 1295.92 54.2535C1295.92 55.241 1295.92 56.5575 1296.25 57.5449Z" fill="#3D5D82"/>
<path d="M1218.6 66.4314C1218.27 66.7606 1217.94 66.7606 1217.62 67.0897C1288.68 53.2659 1288.68 53.2659 1291.64 51.9494V51.6202C1291.64 51.6202 1291.31 51.6202 1290.98 51.6202V51.9494C1289.67 52.2785 1289.67 52.2785 1218.6 66.4314Z" fill="#3D5D82"/>
<path d="M1232.09 106.257C1232.09 106.586 1232.42 106.915 1232.42 106.915C1273.22 80.5844 1286.08 72.5855 1295.62 63.3697C1295.29 63.3697 1295.29 63.0405 1294.96 63.0405C1286.08 71.269 1278.81 75.9764 1232.09 106.257Z" fill="#3D5D82"/>
<path d="M1218.93 108.232C1219.26 107.903 1219.59 107.574 1220.25 107.245C1210.71 95.7247 1202.17 83.0291 1211.71 69.2053C1211.71 69.2053 1204.8 73.8598 1207.76 88.3418C1208.75 92.6206 1211.69 99.6744 1218.93 108.232Z" fill="#3D5D82"/>
<path d="M1217.29 67.4191C1216.96 67.4191 1216.3 67.7483 1215.97 67.7483C1235.38 66.1026 1291.64 60.8364 1292.3 60.8364C1292.3 60.5072 1292.3 60.5072 1292.3 60.1781C1267.29 62.4821 1242.29 64.786 1217.29 67.4191C1217.29 67.09 1217.29 67.09 1217.29 67.4191Z" fill="#3D5D82"/>
<path d="M1108.1 377.724C1108.43 377.724 1109.08 377.395 1109.74 377.395C1110.4 306.631 1115.63 274.116 1129.77 213.226C1129.12 213.226 1128.46 213.555 1128.13 213.555C1116.29 265.558 1107.44 302.023 1108.1 377.724Z" fill="#3D5D82"/>
<path d="M1102.47 383.389C1103.12 382.402 1103.12 382.073 1103.78 381.085C1063.64 348.5 1031.07 320.195 1006.4 280.04C1005.74 281.027 1005.74 281.027 1005.08 282.015C1023.51 310.321 1041.27 334.018 1102.47 383.389Z" fill="#3D5D82"/>
<path d="M1216.63 65.115C1217.29 65.115 1217.62 64.7859 1218.27 64.7859C1225.84 62.1528 1235.71 57.874 1243.61 55.8992C1250.52 54.2535 1259.73 53.2661 1266.97 52.2787C1238.01 54.5826 1221.89 62.4819 1216.63 65.115Z" fill="#3D5D82"/>
<path d="M1132.73 191.175C1133.06 191.175 1133.72 190.845 1134.05 190.845C1141.95 152.995 1152.36 104.663 1205 71.091C1204.67 70.7619 1149.18 93.4207 1132.73 191.175Z" fill="#3D5D82"/>
<path d="M1131.09 89.8002C1130.76 90.1294 1130.1 90.4585 1129.77 90.4585C1149.18 84.2049 1164.65 79.597 1205.44 69.7228C1205.77 69.3937 1206.43 69.0646 1206.76 69.0646C1166.62 78.6096 1151.49 83.2175 1131.09 89.8002C1131.42 89.8002 1131.42 89.8002 1131.09 89.8002Z" fill="#3D5D82"/>
<path d="M1010.22 269.669C1010.22 269.998 1010.22 270.656 1009.89 271.314C1036.54 255.187 1064.96 235.936 1120.89 208.289C1120.89 207.63 1120.89 207.301 1120.89 206.314C1089.97 221.783 1050.68 243.667 1010.22 269.669C1010.22 269.34 1010.22 269.34 1010.22 269.669Z" fill="#3D5D82"/>
<path d="M1125.5 196.44C1126.15 195.782 1126.48 195.453 1127.14 194.795C1095.89 156.944 1085.03 128.638 1120.56 95.7244C1120.23 95.7244 1095.23 110.536 1096.87 141.474C1097.86 163.198 1115.3 183.933 1125.5 196.44Z" fill="#3D5D82"/>
<path d="M961.326 229.683C967.577 220.796 976.132 208.947 982.712 200.389C983.041 200.06 983.041 199.731 983.37 199.402C977.448 207.301 969.222 217.504 963.958 225.733C963.3 227.049 962.313 228.366 961.326 229.683Z" fill="#3D5D82"/>
<path d="M990.277 190.844C990.935 190.515 991.264 189.857 991.922 189.199C991.922 189.199 991.922 189.199 991.922 188.87C991.264 189.528 990.935 190.186 990.277 190.844Z" fill="#3D5D82"/>
<path d="M914.28 334.019C921.189 318.878 933.393 302.161 993.929 276.489C994.258 275.501 994.258 275.172 994.587 274.185C950.501 292.945 923.163 309.662 914.938 331.385C914.938 332.044 914.609 333.031 914.28 334.019Z" fill="#3D5D82"/>
<path d="M950.798 443.62C951.127 443.62 951.456 443.949 951.456 443.949C957.707 398.529 965.305 355.182 997.218 287.052C996.889 287.052 996.56 286.722 996.231 286.722C979.123 324.902 958.365 369.236 950.798 443.62Z" fill="#3D5D82"/>
<path d="M996.199 270.526C996.858 269.539 996.858 269.21 997.516 268.551C983.697 246.17 974.156 224.745 989.29 194.465C983.697 201.048 967.904 227.08 996.199 270.526Z" fill="#3D5D82"/>
<path d="M1003.9 262.168C1004.23 261.839 1004.89 261.509 1005.54 261.509C1015.08 221.684 1029.76 153.982 1114.31 98.358C1113.32 98.6872 1029.23 141.704 1003.9 262.168Z" fill="#3D5D82"/>
<path d="M1278.48 51.2911C1275.85 51.2911 1274.53 51.2911 1274.2 51.6203C1279.14 51.2911 1279.14 51.2911 1281.11 51.2911C1280.12 51.2911 1279.47 51.2911 1278.48 51.2911Z" fill="#3D5D82"/>
<path d="M1204.78 60.1778C1173.2 68.0771 1156.75 73.0141 1129.44 88.4836C1139.97 83.8757 1149.51 77.6221 1160.37 73.6724C1178.46 67.0897 1183.73 65.444 1208.07 59.8486C1206.76 59.8486 1205.77 60.1778 1204.78 60.1778Z" fill="#3D5D82"/>
<path d="M1136.68 86.509C1136.35 86.509 1136.35 86.8381 1136.02 86.8381C1168.92 73.3435 1206.1 58.2032 1263.02 52.2787C1263.35 52.2787 1263.68 52.2787 1264 52.2787C1232.42 56.2283 1196.23 60.5071 1136.68 86.509Z" fill="#3D5D82"/>
<path d="M1125.82 86.8378C1124.51 87.496 1122.86 88.4834 1122.21 89.8C1121.88 90.4583 1122.21 91.4457 1122.53 92.1039C1123.19 91.7748 1123.85 91.4457 1124.84 91.1165C1124.51 90.4583 1124.51 88.8126 1124.84 88.1543C1125.5 87.1669 1127.14 86.5086 1128.46 85.8503C1127.47 86.1795 1126.81 86.5086 1125.82 86.8378Z" fill="#3D5D82"/>
<path d="M1006.4 172.743L996.858 183.605C998.832 181.301 998.832 181.301 1008.7 170.439C1008.04 171.097 1007.39 171.756 1006.4 172.743Z" fill="#3D5D82"/>
<path d="M1000.81 179.984C1000.81 180.313 1000.48 180.313 1000.48 180.642C1025.48 156.615 1053.78 128.968 1111.68 98.6872C1112.01 98.3581 1112.01 98.3581 1112.34 98.0289C1081.74 114.815 1043.58 135.88 1000.81 179.984C1000.81 179.984 1001.14 179.984 1000.81 179.984Z" fill="#3D5D82"/>
<path d="M1568.33 175.704C1574.58 182.616 1578.86 186.566 1579.84 186.237C1580.5 184.262 1562.73 165.172 1559.77 164.514C1559.12 165.501 1562.08 169.122 1568.33 175.704Z" fill="#3D5D82"/>
<path d="M1381.79 63.7986C1396.59 67.7483 1396.59 67.7483 1396.59 67.7483C1395.6 66.4317 1371.92 60.5072 1367.97 60.1781C1368.3 60.1781 1368.3 60.1781 1371.92 61.1655C1373.89 61.8238 1377.84 62.8112 1381.79 63.7986Z" fill="#3D5D82"/>
<path d="M1542.73 251.148L1542.73 251.148L1542.73 251.137C1541.14 247.498 1540.77 244.542 1541.17 242.622C1541.37 241.681 1541.74 241.061 1542.16 240.68C1542.57 240.321 1543.13 240.079 1543.93 240.069C1545.89 240.219 1547.89 241.165 1549.79 242.731C1551.71 244.307 1553.46 246.448 1554.87 248.803C1556.28 251.157 1557.33 253.671 1557.89 255.957C1558.45 258.276 1558.47 260.181 1558.03 261.431C1557.61 262.568 1556.9 263.156 1556.05 263.384C1555.13 263.629 1553.84 263.507 1552.28 262.764C1549.16 261.28 1545.43 257.503 1542.73 251.148Z" stroke="#3D5D82" stroke-width="3"/>
<path d="M1405.15 86.8791C1405.25 87.0334 1405.29 87.1412 1405.31 87.2069C1405.26 87.2189 1405.19 87.2322 1405.09 87.239C1404.65 87.2687 1403.88 87.157 1402.74 86.812C1400.49 86.1287 1397 84.5872 1392.25 81.8022C1391.79 81.5172 1391.35 81.2439 1390.92 80.9797C1390.1 80.4757 1389.34 80.0046 1388.64 79.5487C1387.58 78.8531 1386.71 78.2178 1386.09 77.5977L1386.08 77.5841L1386.06 77.5716C1385.49 77.0853 1385.15 76.7391 1384.96 76.4981C1384.95 76.4909 1384.95 76.4839 1384.94 76.4771C1384.98 76.4765 1385.02 76.4764 1385.06 76.4763C1386.29 76.5569 1388.16 77.1054 1390.31 77.9582C1392.45 78.8085 1394.83 79.9413 1397.05 81.1473C1399.28 82.3541 1401.35 83.6274 1402.87 84.7556C1403.63 85.3206 1404.25 85.8401 1404.67 86.2888C1404.89 86.513 1405.05 86.7106 1405.15 86.8791ZM1384.79 76.2312C1384.79 76.2312 1384.79 76.2318 1384.79 76.2331L1384.79 76.2312ZM1384.65 76.504C1384.64 76.5063 1384.64 76.5073 1384.64 76.5071C1384.64 76.507 1384.64 76.5059 1384.65 76.504Z" stroke="#3D5D82"/>
<path d="M1290.32 51.2913C1290.98 51.2913 1291.64 51.6204 1292.63 51.6204C1293.61 51.9496 1294.6 51.9496 1294.6 51.9496C1294.27 51.6204 1291.64 50.9622 1288.35 50.9622C1288.68 51.2913 1289.34 51.2913 1290.32 51.2913Z" fill="#3D5D82"/>
<path d="M1349.38 246.49L1349.38 246.498L1349.37 246.506C1346.87 249.563 1341.93 250.838 1337.27 249.701C1332.72 248.589 1328.73 245.236 1328 239.37C1327.55 235.748 1328.39 232.833 1330.15 230.837C1331.9 228.85 1334.72 227.57 1338.65 227.562C1344.94 227.873 1348.71 231.276 1350.38 235.243C1352.11 239.331 1351.57 243.888 1349.38 246.49Z" stroke="#3D5D82" stroke-width="3"/>
<path d="M1296.9 63.2985C1294.83 63.2985 1293.1 61.8225 1292.8 60.1244C1292.79 60.0607 1292.78 59.9859 1292.78 59.9266C1292.77 59.9153 1292.77 59.9045 1292.77 59.8945C1292.76 59.7932 1292.74 59.6741 1292.74 59.5412C1292.72 59.2718 1292.72 58.9682 1292.78 58.6879C1292.85 58.4114 1292.97 58.1826 1293.17 58.0195C1293.37 57.8579 1293.7 57.7157 1294.27 57.7157C1294.96 57.7157 1295.61 57.9929 1296.19 58.3438C1296.48 58.5172 1296.75 58.7011 1296.99 58.8711L1296.99 58.8745L1297.01 58.8871C1297.21 59.0289 1297.42 59.1763 1297.61 59.2774C1298.66 60.1938 1299.09 61.2577 1299 62.0085C1298.95 62.3728 1298.79 62.677 1298.48 62.8996C1298.16 63.1289 1297.66 63.2985 1296.9 63.2985Z" stroke="#3D5D82"/>
<path d="M1227.76 105.609L1227.79 105.611H1227.82C1228.77 105.611 1229.29 105.615 1230.07 105.87C1230.93 106.286 1231.39 107.007 1231.53 107.994C1231.68 109.044 1231.44 110.384 1230.81 111.82C1229.55 114.689 1226.86 117.59 1223.55 118.804C1221.05 119.579 1218.59 119.506 1217.17 118.681C1216.5 118.292 1216.07 117.745 1215.92 117C1215.75 116.224 1215.87 115.111 1216.55 113.583C1218.45 109.464 1222.44 105.314 1227.76 105.609Z" stroke="#3D5D82" stroke-width="2"/>
<path d="M1123.27 202.905L1123.27 202.905L1123.28 202.898C1125.76 196.375 1131.54 191.727 1137.26 192.013L1137.3 192.015H1137.34C1138 192.015 1138.76 192.024 1139.48 192.261C1140.72 192.72 1141.49 193.678 1141.83 195.097C1142.18 196.578 1142.05 198.521 1141.38 200.638C1140.04 204.888 1136.75 209.27 1132.45 211.199L1132.45 211.199L1132.44 211.202C1129.1 212.721 1125.93 212.569 1124.14 211.301C1122.54 210.172 1121.43 207.667 1123.27 202.905Z" stroke="#3D5D82" stroke-width="3"/>
<path d="M1202.62 71.9453C1202.62 71.9451 1202.63 71.9464 1202.63 71.9496C1202.63 71.947 1202.62 71.9454 1202.62 71.9453ZM1203.57 71.8852C1203.59 71.8764 1203.6 71.8675 1203.61 71.8585C1204.66 71.1176 1206.58 70.0724 1209.37 68.7602C1211.98 67.6186 1214.75 66.5598 1217.15 65.7877C1218.4 65.3844 1219.52 65.0682 1220.46 64.8561C1220.21 65.0034 1219.94 65.1578 1219.65 65.3181C1217.95 66.2642 1215.64 67.3748 1213.24 68.4183C1210.85 69.4615 1208.4 70.4297 1206.4 71.0943C1205.4 71.4271 1204.54 71.6789 1203.86 71.8271C1203.76 71.849 1203.66 71.8683 1203.57 71.8852Z" stroke="#3D5D82" stroke-width="1.5"/>
<path d="M1007.7 261.962L1007.8 262.01L1007.9 262.044C1008.8 262.344 1009.52 263.259 1009.7 265.246C1009.89 267.206 1009.48 269.803 1008.56 272.569C1007.63 275.316 1006.23 278.12 1004.52 280.476C1002.81 282.844 1000.85 284.662 998.87 285.586C997.589 286.154 996.597 286.238 995.902 286.077C995.251 285.926 994.714 285.532 994.325 284.781C993.476 283.143 993.368 279.801 995.302 274.642C996.718 270.865 998.753 267.672 1000.94 265.407C1003.14 263.13 1005.34 261.938 1007.11 261.792C1007.23 261.793 1007.26 261.796 1007.3 261.804C1007.35 261.813 1007.46 261.843 1007.7 261.962Z" stroke="#3D5D82" stroke-width="3"/>
<path d="M1274.53 51.6203C1267.62 51.9494 1262.69 52.6077 1261.7 52.6077C1270.58 52.2785 1279.14 51.2911 1288.02 51.2911C1283.75 51.2911 1279.14 51.2911 1274.53 51.6203Z" fill="#3D5D82"/>
<path d="M1121.22 92.7622C1116.94 95.0662 1111.68 98.0284 1111.35 99.0158C1112.67 99.6741 1136.03 87.496 1137.01 85.8503C1137.01 85.8503 1137.01 85.8503 1136.68 85.8503C1135.04 85.8503 1128.13 89.1417 1121.22 92.7622Z" fill="#3D5D82"/>
<path d="M990.937 190.187C987.976 193.808 982.382 200.72 982.382 201.707C983.698 201.707 1001.47 180.313 1001.47 178.997C1000.48 179.326 995.214 184.921 990.937 190.187Z" fill="#3D5D82"/>
<path d="M920.53 341.918C920.201 342.247 920.201 342.576 919.872 342.906C927.768 298.472 933.361 277.407 961.655 229.682C962.642 228.366 963.3 227.049 964.287 225.733C936.651 271.483 929.084 290.902 920.53 341.918C920.53 341.918 920.53 341.589 920.53 341.918Z" fill="#3D5D82"/>
<path d="M990.278 190.845C990.937 190.187 991.266 189.529 991.924 188.871C993.898 188.212 996.53 187.225 1030.75 185.908C1030.42 186.567 1029.76 187.225 1029.43 187.883C1010.02 188.542 992.253 189.529 990.278 190.845Z" fill="#3D5D82"/>
<path d="M1204.78 60.178C1205.77 59.8488 1206.76 59.8488 1208.07 59.5197C1232.75 54.9118 1243.93 52.9369 1274.53 51.2913C1241.63 52.9369 1216.63 57.874 1204.78 60.178Z" fill="#3D5D82"/>
<path d="M1125.83 86.8378C1126.48 86.5086 1127.47 86.1795 1128.13 85.8503C1132.73 84.2047 1138.66 81.9007 1162.34 77.951C1161.69 78.2802 1161.03 78.6093 1160.37 78.9385C1158.07 79.5967 1155.11 79.9259 1152.8 80.255C1150.83 80.5841 1133.39 83.5464 1125.83 86.8378Z" fill="#3D5D82"/>
<path d="M1006.4 172.742C1007.06 172.084 1008.04 171.097 1008.7 170.438C1027.46 152.665 1066.61 115.144 1155.44 81.572C1149.51 85.1925 1140.3 87.8256 1133.72 90.4587C1116.28 97.6996 1088.98 111.194 1074.5 120.41C1038.97 142.133 1021.86 156.286 1006.4 172.742Z" fill="#3D5D82"/>
<path d="M1174.52 73.3433C1174.19 73.3433 1173.86 73.6724 1173.53 73.6724C1202.15 61.8235 1220.58 55.2408 1270.26 51.6202C1270.58 51.6202 1271.24 51.6202 1271.57 51.6202C1238.01 54.5825 1214 56.5573 1174.52 73.3433Z" fill="#3D5D82"/>
<path d="M1167.61 78.2803C1169.58 77.2929 1170.9 76.9638 1233.74 74.3307C1233.41 74.6598 1233.41 74.989 1233.08 74.989C1211.04 76.3055 1189.32 76.9638 1167.61 78.2803Z" fill="#3D5D82"/>
<path d="M922.703 346.257C922.703 345.928 941.586 280.04 1025.81 195.453C1025.81 195.782 1025.81 196.111 1025.81 196.111C985.672 238.569 951.326 279.772 922.703 346.257Z" fill="#3D5D82"/>
<path d="M1041.6 361.995C1041.27 362.324 1040.62 362.653 1039.96 363.311C1027.78 323.815 1009.69 263.913 1031.4 196.769C1031.73 196.44 1032.39 196.111 1033.05 195.782C1019.89 243.506 1016.93 286.294 1041.6 361.995C1041.6 361.995 1041.93 361.666 1041.6 361.995Z" fill="#3D5D82"/>
<path d="M1044.56 175.376C1044.23 175.376 1044.23 175.376 1043.9 175.376C1066.28 148.387 1093.91 114.815 1153.13 83.5469H1153.79C1122.54 101.32 1087.33 121.069 1044.56 175.376Z" fill="#3D5D82"/>
<path d="M1149.84 168.135C1149.51 168.464 1149.18 168.793 1148.53 169.122C1137.67 149.703 1117.6 113.498 1158.72 81.9008C1159.38 81.5717 1160.04 81.2426 1160.7 81.2426C1145.24 94.0789 1119.57 115.473 1149.84 168.135C1149.84 167.806 1149.84 167.806 1149.84 168.135Z" fill="#3D5D82"/>
<path d="M1041.93 186.566C1042.26 186.237 1042.59 185.579 1042.92 185.249C1057.72 183.275 1071.54 181.3 1144.25 175.375C1143.92 176.363 1143.92 176.363 1143.59 177.021C1087.99 181.629 1069.89 183.275 1041.93 186.566Z" fill="#3D5D82"/>
<path d="M1051.8 361.336C1051.14 361.007 1050.48 360.678 1050.15 360.678C1075.49 298.472 1094.54 253.319 1143.56 182.555C1143.89 182.555 1144.22 182.884 1144.22 182.884C1104.41 243.445 1083.71 282.344 1051.8 361.336Z" fill="#3D5D82"/>
<path d="M1263.02 408.074C1262.69 408.403 1262.36 408.403 1262.03 408.732C1170.9 272.141 1158.72 208.947 1154.12 185.249C1154.78 184.92 1155.43 184.591 1156.09 184.262C1167.94 240.215 1185.37 283.331 1263.02 408.074C1263.02 408.074 1263.35 408.074 1263.02 408.074Z" fill="#3D5D82"/>
<path d="M1161.03 165.172C1160.7 165.172 1160.37 164.843 1160.04 164.843C1174.84 143.12 1196.33 108.201 1230.87 77.9205H1231.2C1213.44 95.3648 1193.27 116.46 1161.03 165.172Z" fill="#3D5D82"/>
<path d="M1161.75 177.641C1161.75 176.982 1162.08 176.324 1162.08 175.995C1211.76 164.804 1264.33 150.69 1314.01 139.5C1314.01 139.829 1314.34 140.487 1314.67 141.145C1264.33 152.007 1211.76 166.121 1161.75 177.641Z" fill="#3D5D82"/>
<path d="M1314.67 132.588C1314.67 132.917 1314.34 133.246 1314.34 133.576C1266.31 106.257 1250.98 92.4028 1240.12 76.2751C1240.45 75.946 1240.78 75.6168 1241.43 75.6168C1252.95 92.4028 1267.62 104.941 1314.67 132.588Z" fill="#3D5D82"/>
<path d="M1237.16 72.3559C1236.83 72.685 1236.5 72.685 1236.17 73.0142C1230.91 69.0645 1215.97 58.5321 1253.48 53.2659C1262.03 51.9494 1271.24 51.6202 1276.84 51.6202C1277.49 51.6202 1278.48 51.6202 1279.14 51.6202C1237.68 53.2659 1222.22 59.5195 1233.74 70.3811C1234.39 71.0393 1235.98 72.3559 1237.16 72.3559Z" fill="#3D5D82"/>
<path d="M1244.26 72.6852C1244.26 72.3561 1244.59 72.0269 1244.59 72.0269C1248.21 70.7104 1252.82 69.3938 1256.44 68.0773C1286.71 58.5323 1294.93 55.5701 1295.92 52.2787C1294.93 51.6204 1293.29 51.2913 1291.97 50.9622C1295.26 51.2913 1295.26 51.2913 1296.58 52.6078C1294.6 56.2284 1289.67 58.8615 1244.26 72.6852Z" fill="#3D5D82"/>
<path d="M1523.91 130.942C1523.59 130.613 1522.6 129.955 1521.94 129.296C1522.6 129.955 1523.26 130.284 1523.91 130.942Z" fill="#3D5D82"/>
<path d="M1326.19 129.626C1325.53 129.297 1325.2 129.297 1324.54 128.968C1328.49 103.953 1335.73 57.5447 1295.92 51.6202C1315.99 53.9242 1337.37 69.0645 1326.19 129.626Z" fill="#3D5D82"/>
<path d="M1275.52 407.086C1274.86 406.757 1273.87 406.757 1272.89 406.428C1306.77 255.684 1317.96 204.997 1322.24 147.399C1322.57 147.399 1323.22 147.728 1323.55 147.728C1319.61 207.301 1311.05 245.81 1275.52 407.086Z" fill="#3D5D82"/>
<path d="M1282.76 411.036C1282.43 410.707 1281.77 410.048 1281.44 409.719C1389.68 289.256 1389.68 289.256 1419.95 243.177C1420.28 243.506 1420.93 243.835 1421.26 244.164C1392.64 289.914 1364.35 324.144 1282.76 411.036Z" fill="#3D5D82"/>
<path d="M1416.66 224.088C1416.33 224.417 1416 224.746 1415.67 225.404C1387.38 198.744 1359.08 172.742 1330.79 146.082C1331.45 145.753 1331.45 145.424 1331.78 145.095C1360.07 171.426 1388.69 197.428 1416.66 224.088Z" fill="#3D5D82"/>
<path d="M1328.82 131.272C1328.16 130.942 1328.16 130.613 1327.5 130.284C1341.65 103.295 1350.88 80.5832 1332.46 62.1515C1336.08 63.468 1344.61 74.0017 1343.95 87.4963C1342.96 102.307 1338.36 113.498 1328.82 131.272Z" fill="#3D5D82"/>
<path d="M1333.09 137.525C1333.09 137.196 1332.76 136.537 1332.76 136.208C1414.03 120.41 1414.03 120.41 1432.45 115.143C1432.78 115.473 1433.11 115.802 1433.44 116.131C1424.88 119.093 1404.82 125.347 1333.09 137.525Z" fill="#3D5D82"/>
<path d="M1556.15 198.085C1555.82 198.085 1555.5 198.085 1555.17 198.085C1513.38 140.487 1473.9 100.991 1393.96 69.7228C1457.13 94.737 1504.17 124.03 1556.15 198.085Z" fill="#3D5D82"/>
<path d="M1564.05 203.681C1563.39 203.023 1562.74 202.694 1562.41 202.035C1560.76 198.744 1561.42 193.149 1561.09 189.199C1560.1 178.338 1553.85 160.235 1529.51 136.537C1539.38 143.778 1562.08 165.501 1564.05 203.681Z" fill="#3D5D82"/>
<path d="M1436.4 109.878C1435.74 109.548 1435.08 109.219 1434.76 108.89C1432.12 106.586 1431.14 101.978 1429.49 99.0161C1421.6 84.2049 1398.89 73.3433 1387.71 68.0771C1396.26 70.7102 1412.05 80.5844 1414.36 82.5592C1428.5 94.4081 1428.83 95.0664 1436.4 109.878Z" fill="#3D5D82"/>
<path d="M1426.86 107.903V108.232C1391.33 87.8255 1371.92 77.2931 1337.04 63.1402L1336.71 62.811C1369.61 76.3057 1390.01 86.5089 1426.86 107.903Z" fill="#3D5D82"/>
<path d="M1374.55 63.4693C1375.21 63.4693 1375.53 63.7985 1376.19 63.7985C1362.37 60.8362 1325.2 53.5952 1293.61 51.2913C1293.28 51.2913 1292.96 51.2913 1292.63 51.2913C1324.87 53.5952 1362.05 61.1654 1374.55 63.4693C1374.22 63.4693 1374.22 63.4693 1374.55 63.4693Z" fill="#3D5D82"/>
<path d="M1321.25 57.545C1314.01 55.5702 1304.14 53.2663 1296.9 51.9497H1296.57C1303.81 52.9371 1313.68 55.2411 1321.25 57.545C1320.92 57.545 1320.92 57.545 1321.25 57.545Z" fill="#3D5D82"/>
<path d="M1377.51 64.4569C1378.17 64.786 1378.17 64.786 1379.48 65.1152C1370.93 64.1277 1360.07 63.1403 1333.09 60.8364C1332.76 60.5072 1332.11 60.5072 1331.78 60.1781C1342.96 61.1655 1361.72 62.8112 1377.51 64.4569C1377.51 64.4569 1377.18 64.4569 1377.51 64.4569Z" fill="#3D5D82"/>
<path d="M1553.19 200.061C1553.19 200.39 1553.19 200.39 1553.19 200.719C1527.86 179.325 1495.49 152.894 1446.8 122.285C1446.8 121.956 1446.8 121.626 1446.8 121.297C1470.81 136.767 1511.74 161.881 1553.19 200.061Z" fill="#3D5D82"/>
<path d="M1431.79 225.075C1431.13 224.417 1430.81 224.417 1429.82 223.759C1440.02 196.44 1454.17 159.248 1439.36 120.739C1439.69 121.068 1462.06 151.348 1431.79 225.075Z" fill="#3D5D82"/>
<path d="M1422.74 372.656C1422.09 371.998 1421.76 371.998 1420.77 371.34C1430.97 344.021 1442.66 284.726 1427.86 246.217C1430.15 247.51 1431.07 246.217 1431.07 246.217C1437.7 271.848 1443.51 322.079 1422.74 372.656Z" fill="#3D5D82"/>
<path d="M1523.26 422.884C1522.93 422.884 1522.6 423.214 1522.27 423.214C1498.91 365.286 1483.45 327.106 1433.11 246.468C1433.77 246.139 1434.1 245.81 1434.75 245.81C1465.68 295.509 1495.62 346.525 1523.26 422.884C1523.26 422.884 1523.58 422.884 1523.26 422.884Z" fill="#3D5D82"/>
<path d="M1437.72 233.961C1437.72 233.632 1437.39 232.974 1437.06 232.316C1538.39 215.201 1538.39 215.201 1557.47 210.264C1557.8 210.922 1558.46 211.58 1558.79 212.238C1537.4 217.505 1510.42 223.758 1437.72 233.961Z" fill="#3D5D82"/>
<path d="M1534.77 425.188C1534.44 424.859 1533.78 424.201 1533.13 423.872C1566.03 347.842 1581.82 289.914 1565.37 219.479C1565.7 219.808 1599.25 279.711 1534.77 425.188Z" fill="#3D5D82"/>
<path d="M1506.15 118.106L1515.69 124.688C1511.41 121.726 1507.13 118.435 1502.53 115.473C1503.51 116.46 1504.83 117.447 1506.15 118.106Z" fill="#3D5D82"/>
<path d="M1515.03 125.018C1515.36 125.347 1515.69 125.676 1516.02 126.005C1476.54 100.991 1450.88 87.1671 1392.64 68.7354C1392.31 68.7354 1391.66 68.4063 1391.33 68.0771C1445.28 85.1923 1471.93 97.3704 1515.03 125.018C1515.03 125.018 1514.7 125.018 1515.03 125.018Z" fill="#3D5D82"/>
<path d="M1644.98 317.891C1644.98 318.22 1644.98 318.879 1644.98 319.208C1626.89 286.952 1614.72 265.558 1572.93 220.137C1572.93 219.808 1572.93 219.15 1572.93 218.821C1602.21 251.406 1620.31 272.141 1644.98 317.891Z" fill="#3D5D82"/>
<path d="M1621.63 401.162C1621.3 401.162 1620.97 401.162 1620.64 401.162C1616.03 354.754 1610.44 296.826 1569.64 221.783C1569.97 221.783 1570.3 221.783 1570.63 221.783C1589.71 258.646 1615.7 308.675 1621.63 401.162Z" fill="#3D5D82"/>
<path d="M1541.02 144.766L1534.11 139.17C1533.78 138.841 1533.45 138.512 1532.8 138.183L1538.06 142.462C1539.38 143.449 1540.03 144.107 1541.02 144.766Z" fill="#3D5D82"/>
<path d="M1647.62 316.574C1640.71 311.308 1641.04 297.155 1638.4 288.598C1630.84 264.9 1606.16 202.693 1535.43 140.816C1577.87 179.325 1621.3 224.745 1647.62 316.574Z" fill="#3D5D82"/>
<path d="M1645.31 286.293C1651.24 305.713 1651.57 306.7 1651.89 323.815C1651.57 323.157 1651.24 322.499 1650.91 321.84C1650.25 317.561 1650.58 311.637 1650.25 307.358C1649.92 300.117 1646.3 290.572 1644 283.66C1644.66 284.648 1644.99 285.306 1645.31 286.293Z" fill="#3D5D82"/>
<path d="M1352.5 56.5574C1360.73 58.2031 1373.23 60.5071 1380.8 64.4567C1376.85 63.4693 1373.56 61.4945 1369.61 60.5071C1365.66 59.5196 1359.74 57.874 1349.87 56.2283C1350.53 56.2283 1351.52 56.5574 1352.5 56.5574Z" fill="#3D5D82"/>
<path d="M1399.22 67.419C1395.93 66.7607 1392.97 66.4315 1384.42 65.7733C1383.76 65.4441 1382.77 65.4441 1382.12 65.115C1390.34 65.7733 1393.3 66.1024 1396.59 66.7607C1397.58 66.7607 1398.24 67.0898 1399.22 67.419Z" fill="#3D5D82"/>
<path d="M1283.09 51.2913C1277.16 51.2913 1273.22 51.6204 1267.95 51.9495C1267.95 51.9495 1276.18 51.2913 1288.68 51.2913C1286.71 51.2913 1284.73 51.2913 1283.09 51.2913Z" fill="#3D5D82"/>
<path d="M1167.94 77.9511C1158.39 82.2299 1153.46 84.2047 1152.8 83.5465C1152.8 81.5716 1173.86 73.0141 1177.81 72.6849C1177.81 72.6849 1177.81 72.6849 1178.13 72.6849C1177.48 73.3432 1176.49 74.0015 1167.94 77.9511Z" fill="#3D5D82"/>
<path d="M1041.13 185.967L1041.13 185.97C1036.91 191.657 1033.07 194.816 1030.34 196.161C1028.96 196.843 1027.98 197.002 1027.41 196.918C1027.15 196.878 1027.02 196.793 1026.96 196.729C1026.9 196.669 1026.83 196.562 1026.8 196.341L1026.8 196.329L1026.8 196.317C1026.75 195.866 1026.83 195.209 1027.11 194.346C1027.38 193.498 1027.83 192.522 1028.41 191.464C1029.58 189.347 1031.29 186.977 1033.23 184.756C1035.16 182.534 1037.31 180.492 1039.35 179.015C1041.43 177.507 1043.25 176.705 1044.56 176.705H1044.61L1044.65 176.701C1044.99 176.671 1045.14 176.723 1045.2 176.752C1045.23 176.77 1045.27 176.795 1045.3 176.887C1045.41 177.153 1045.42 177.749 1045.13 178.756C1044.56 180.692 1043.07 183.38 1041.13 185.967Z" stroke="#3D5D82" stroke-width="2"/>
<path d="M1161.34 175.996L1161.33 176.017L1161.32 176.038C1158.88 181.075 1154.88 183.815 1151.35 184.654C1147.68 185.524 1145.09 184.337 1144.33 182.411C1144 181.511 1143.99 180.102 1144.48 178.338C1144.96 176.604 1145.89 174.686 1147.19 172.881C1149.8 169.27 1153.76 166.341 1158.4 166.017C1160.88 166.177 1162.19 167.233 1162.7 168.649C1163.28 170.221 1163.06 172.715 1161.34 175.996Z" stroke="#3D5D82" stroke-width="3"/>
<path d="M1230.7 77.1092L1230.7 77.1018L1230.71 77.0943C1230.87 76.5407 1231.46 75.8292 1232.46 75.0604C1233.44 74.3088 1234.73 73.5603 1236.16 72.911C1239.02 71.6131 1242.31 70.7611 1244.64 70.9997C1245.16 71.1719 1245.32 71.3786 1245.36 71.5101C1245.41 71.6605 1245.39 71.9187 1245.15 72.3252C1244.67 73.134 1243.56 74.1252 1242.23 75.0523C1239.06 77.2665 1235.9 78.1564 1233.65 78.2355C1232.52 78.2754 1231.66 78.1079 1231.16 77.8459C1230.91 77.7164 1230.78 77.5816 1230.72 77.4717C1230.67 77.3759 1230.65 77.2646 1230.7 77.1092Z" stroke="#3D5D82"/>
<path d="M1318.27 144.327L1318.26 144.318L1318.25 144.31C1315.41 142.064 1314.23 138.639 1314.71 135.71C1315.17 132.854 1317.2 130.424 1320.98 129.967H1320.98H1320.98H1320.98H1320.99H1320.99H1320.99H1320.99H1320.99H1321H1321H1321H1321H1321H1321H1321.01H1321.01H1321.01H1321.01H1321.01H1321.02H1321.02H1321.02H1321.02H1321.02H1321.03H1321.03H1321.03H1321.03H1321.03H1321.04H1321.04H1321.04H1321.04H1321.04H1321.05H1321.05H1321.05H1321.05H1321.05H1321.05H1321.06H1321.06H1321.06H1321.06H1321.06H1321.07H1321.07H1321.07H1321.07H1321.07H1321.08H1321.08H1321.08H1321.08H1321.08H1321.09H1321.09H1321.09H1321.09H1321.09H1321.1H1321.1H1321.1H1321.1H1321.1H1321.1H1321.11H1321.11H1321.11H1321.11H1321.11H1321.12H1321.12H1321.12H1321.12H1321.12H1321.13H1321.13H1321.13H1321.13H1321.13H1321.14H1321.14H1321.14H1321.14H1321.14H1321.15H1321.15H1321.15H1321.15H1321.15H1321.16H1321.16H1321.16H1321.16H1321.16H1321.16H1321.17H1321.17H1321.17H1321.17H1321.17H1321.18H1321.18H1321.18H1321.18H1321.18H1321.19H1321.19H1321.19H1321.19H1321.19H1321.2H1321.2H1321.2H1321.2H1321.2H1321.21H1321.21H1321.21H1321.21H1321.21H1321.21H1321.22H1321.22H1321.22H1321.22H1321.22H1321.23H1321.23H1321.23H1321.23H1321.23H1321.24H1321.24H1321.24H1321.24H1321.24H1321.25H1321.25H1321.25H1321.25H1321.25H1321.26H1321.26H1321.26H1321.26H1321.26H1321.26H1321.27H1321.27H1321.27H1321.27H1321.27H1321.28H1321.28H1321.28H1321.28H1321.28H1321.29H1321.29H1321.29H1321.29H1321.29H1321.3H1321.3H1321.3H1321.3H1321.3H1321.31H1321.31H1321.31H1321.31H1321.31H1321.32H1321.32H1321.32H1321.32H1321.32H1321.32H1321.33H1321.33H1321.33H1321.33H1321.33H1321.34H1321.34H1321.34H1321.34H1321.34H1321.35H1321.35H1321.35H1321.35H1321.35H1321.36H1321.36H1321.36H1321.36H1321.36H1321.37H1321.37H1321.37H1321.37H1321.37H1321.37H1321.38H1321.38H1321.38H1321.38H1321.38H1321.39H1321.39H1321.39H1321.39H1321.39H1321.4H1321.4H1321.4H1321.4H1321.4H1321.41H1321.41H1321.41H1321.41H1321.41H1321.42H1321.42H1321.42H1321.42H1321.42H1321.42H1321.43H1321.43H1321.43H1321.43H1321.43H1321.44H1321.44H1321.44H1321.44H1321.44H1321.45H1321.45H1321.45H1321.45H1321.45H1321.46H1321.46H1321.46H1321.46H1321.46H1321.47H1321.47H1321.47H1321.47H1321.47H1321.48H1321.48H1321.48H1321.48H1321.48H1321.48H1321.49H1321.49H1321.49H1321.49H1321.49H1321.5H1321.5H1321.5H1321.5H1321.5H1321.51H1321.51H1321.51H1321.51H1321.51H1321.52H1321.52H1321.52H1321.52H1321.52H1321.53H1321.53H1321.53H1321.53H1321.53H1321.53H1321.54H1321.54H1321.54H1321.54H1321.54H1321.55H1321.55H1321.55H1321.55H1321.55H1321.56H1321.56H1321.56H1321.56H1321.56H1321.57H1321.57H1321.57H1321.57H1321.57H1321.58H1321.58H1321.58H1321.58H1321.58H1321.58H1321.59H1321.59H1321.59H1321.59H1321.59H1321.6H1321.6H1321.6H1321.6H1321.6H1321.61H1321.61H1321.61H1321.61H1321.61H1321.62H1321.62H1321.62H1321.62H1321.62H1321.63H1321.63H1321.63H1321.63H1321.63H1321.64H1321.64H1321.64H1321.64H1321.64H1321.64H1321.65H1321.65H1321.65H1321.65H1321.65H1321.66H1321.66H1321.66H1321.66H1321.66H1321.67H1321.67H1321.67H1321.67H1321.67H1321.68H1321.68H1321.68H1321.68H1321.68H1321.69H1321.69H1321.69H1321.69H1321.69H1321.69H1321.7H1321.7H1321.7H1321.7H1321.7H1321.71H1321.71H1321.71H1321.71H1321.71H1321.72H1321.72H1321.72H1321.72H1321.72H1321.73H1321.73H1321.73H1321.73H1321.73H1321.74H1321.74H1321.74H1321.74H1321.74H1321.74H1321.75H1321.75H1321.75H1321.75H1321.75H1321.76H1321.76H1321.76H1321.76H1321.76H1321.77H1321.77H1321.77H1321.77H1321.77H1321.78H1321.78H1321.78H1321.78H1321.78H1321.79H1321.79H1321.79H1321.79H1321.79H1321.8H1321.8H1321.8H1321.8H1321.8H1321.8H1321.81H1321.81H1321.81H1321.81H1321.81H1321.82H1321.82H1321.82H1321.82H1321.82H1321.83H1321.83H1321.83H1321.83H1321.83H1321.84H1321.84H1321.84H1321.84H1321.84H1321.85H1321.85H1321.85H1321.85H1321.85H1321.85H1321.86H1321.86H1321.86H1321.86H1321.86H1321.87H1321.87H1321.87H1321.87H1321.87H1321.88H1321.88H1321.88H1321.88H1321.88H1321.89H1321.89H1321.89H1321.89H1321.89H1321.9H1321.9H1321.9H1321.9H1321.9H1321.9H1321.91C1327.29 129.967 1331.51 133.836 1332.43 139.323C1332.73 141.411 1332.31 142.974 1331.52 144.107C1330.72 145.252 1329.48 146.053 1327.97 146.477C1324.91 147.335 1320.98 146.583 1318.27 144.327Z" stroke="#3D5D82" stroke-width="2"/>
<path d="M1290.65 51.2913C1294.27 51.2913 1296.57 51.6204 1296.57 51.9495C1296.57 51.9495 1296.57 51.9495 1295.59 51.9495C1294.27 51.9495 1293.28 51.6204 1291.97 51.6204C1290.32 51.6204 1289.01 51.6204 1288.02 51.6204C1289.01 51.2913 1289.99 51.2913 1290.65 51.2913Z" fill="#3D5D82"/>
<path d="M1420.96 223.571L1421.02 223.556L1421.08 223.535C1421.8 223.297 1422.54 223.284 1423.2 223.283C1429.34 223.593 1435.06 228.615 1436.58 235.593C1437.1 238.07 1436.89 240.03 1436.27 241.502C1435.65 242.966 1434.58 244.041 1433.23 244.712C1430.48 246.069 1426.36 245.819 1422.42 243.238C1418.56 240.718 1416.15 236.138 1415.81 231.949C1415.64 229.87 1416 227.99 1416.83 226.546C1417.65 225.135 1418.97 224.051 1420.96 223.571Z" stroke="#3D5D82" stroke-width="3"/>
<path d="M1325.16 58.6739C1325.31 58.7144 1325.45 58.7566 1325.61 58.8003C1327.43 59.3264 1329.53 60.0556 1331.48 60.8649C1332.99 61.5648 1334.11 62.1296 1334.89 62.5756C1333.95 62.3841 1332.54 61.9784 1330.42 61.1327L1330.41 61.1274L1330.34 61.0945C1330.27 61.0657 1330.18 61.0232 1330.06 60.9688C1329.82 60.86 1329.47 60.7038 1329.06 60.5142C1328.23 60.1348 1327.12 59.6228 1326.02 59.0909C1325.73 58.9522 1325.44 58.8126 1325.16 58.6739Z" stroke="#3D5D82" stroke-width="1.5"/>
<path d="M1443.27 116.194C1444.47 117.394 1445.35 118.432 1445.95 119.305C1446.56 120.194 1446.85 120.854 1446.93 121.299C1447.01 121.711 1446.91 121.81 1446.89 121.83L1446.88 121.831C1446.82 121.897 1446.57 122.043 1445.94 122.043C1444.65 122.043 1442.71 121.335 1440.44 120.071C1438.22 118.832 1435.83 117.142 1433.71 115.365C1431.58 113.582 1429.77 111.747 1428.66 110.232C1428.09 109.466 1427.76 108.844 1427.62 108.392C1427.56 108.171 1427.55 108.04 1427.56 107.978C1427.56 107.975 1427.56 107.972 1427.56 107.969C1427.59 107.961 1427.63 107.951 1427.68 107.943C1427.83 107.917 1428 107.915 1428.17 107.915C1430.2 107.915 1432.89 108.952 1435.69 110.578C1438.45 112.179 1441.18 114.267 1443.27 116.194ZM1427.52 107.984C1427.52 107.984 1427.52 107.984 1427.52 107.984L1427.52 107.984Z" stroke="#3D5D82" stroke-width="2"/>
<path d="M1569.89 220.813L1569.91 220.819C1570.68 221.029 1571.1 220.933 1571.3 220.812C1571.46 220.712 1571.68 220.464 1571.73 219.78C1571.83 218.333 1571.07 215.683 1568.79 211.763C1566.53 208.053 1563.87 204.842 1561.32 202.529C1558.75 200.193 1556.42 198.909 1554.8 198.756C1554.73 198.756 1554.69 198.757 1554.65 198.759C1554.61 198.762 1554.59 198.766 1554.59 198.767L1569.89 220.813ZM1569.89 220.813L1569.87 220.808C1568.34 220.461 1566.35 219.109 1564.22 217.039C1562.12 215.004 1560.02 212.398 1558.26 209.751C1556.5 207.098 1555.12 204.457 1554.45 202.361C1554.11 201.306 1553.97 200.459 1554 199.848C1554.04 199.249 1554.22 199.032 1554.38 198.937L1554.48 198.875L1554.56 198.792C1554.57 198.777 1554.58 198.77 1554.59 198.768L1569.89 220.813Z" stroke="#3D5D82" stroke-width="2"/>
<path d="M1383.1 65.1148C1388.69 66.7605 1393.63 68.4062 1394.62 69.3936C1392.64 69.3936 1368.63 61.8234 1367.97 61.1652C1368.95 61.4943 1375.86 63.14 1383.1 65.1148Z" fill="#3D5D82"/>
<path d="M1654.49 344.473L1654.47 344.461L1654.45 344.451C1653.93 344.138 1653.33 343.496 1652.69 342.546C1652.06 341.606 1651.41 340.408 1650.78 339.034C1649.51 336.287 1648.32 332.879 1647.4 329.525C1646.48 326.168 1645.84 322.892 1645.67 320.408C1645.59 319.161 1645.63 318.148 1645.79 317.434C1645.95 316.744 1646.18 316.49 1646.37 316.416H1646.37H1646.37H1646.37H1646.38H1646.38H1646.38H1646.38H1646.38H1646.38H1646.38H1646.38H1646.38H1646.38H1646.38H1646.38H1646.38H1646.39H1646.39H1646.39H1646.39H1646.39H1646.39H1646.39H1646.39H1646.39H1646.39H1646.39H1646.39H1646.4H1646.4H1646.4H1646.4H1646.4H1646.4H1646.4H1646.4H1646.4H1646.4H1646.4H1646.4H1646.41H1646.41H1646.41H1646.41H1646.41H1646.41H1646.41H1646.41H1646.41H1646.41H1646.42H1646.42H1646.42H1646.42H1646.42H1646.42H1646.42H1646.42H1646.42H1646.42H1646.43H1646.43H1646.43H1646.43H1646.43H1646.43H1646.43H1646.43H1646.43H1646.43H1646.44H1646.44H1646.44H1646.44H1646.44H1646.44H1646.44H1646.44H1646.44H1646.45H1646.45H1646.45H1646.45H1646.45H1646.45H1646.45H1646.45H1646.45H1646.46H1646.46H1646.46H1646.46H1646.46H1646.46H1646.46H1646.46H1646.47H1646.47H1646.47H1646.47H1646.47H1646.47H1646.47H1646.47H1646.48H1646.48H1646.48H1646.48H1646.48H1646.48H1646.48H1646.48H1646.49H1646.49H1646.49H1646.49H1646.49H1646.49H1646.49H1646.5H1646.5H1646.5H1646.5H1646.5H1646.5H1646.5H1646.5H1646.51H1646.51H1646.51H1646.51H1646.51H1646.51H1646.51H1646.52H1646.52H1646.52H1646.52H1646.52H1646.52H1646.53H1646.53H1646.53H1646.53H1646.53H1646.53H1646.53H1646.54H1646.54H1646.54H1646.54H1646.54H1646.54H1646.55H1646.55H1646.55H1646.55H1646.55H1646.55H1646.55H1646.56H1646.56H1646.56H1646.56H1646.56H1646.56H1646.57H1646.57H1646.57H1646.57H1646.57H1646.58H1646.58H1646.58H1646.58H1646.58H1646.58H1646.59H1646.59H1646.59H1646.59H1646.59H1646.59H1646.6H1646.6H1646.6H1646.6H1646.6H1646.61H1646.61H1646.61H1646.61H1646.61H1646.61H1646.62H1646.62H1646.62H1646.62H1646.62H1646.63H1646.63C1646.74 316.416 1646.91 316.461 1647.13 316.614C1647.35 316.766 1647.61 317.007 1647.89 317.345C1648.45 318.023 1649.07 319.034 1649.72 320.336C1651.02 322.934 1652.4 326.606 1653.72 330.87C1655.19 335.947 1655.75 339.838 1655.67 342.23C1655.63 343.452 1655.42 344.178 1655.18 344.498C1655.08 344.636 1655 344.66 1654.94 344.664C1654.87 344.669 1654.72 344.642 1654.49 344.473Z" stroke="#3D5D82"/>
<path d="M1526.22 132.917C1530.16 135.879 1536.09 140.816 1536.09 141.145C1535.1 140.816 1512.73 123.701 1512.4 123.043C1513.71 123.372 1519.64 127.651 1526.22 132.917Z" fill="#3D5D82"/>
<path d="M1257.56 414.585C1211.01 379.558 1165.13 343.592 1121.73 304.679C1086.61 273.186 1058.6 232.644 1038.07 190.414L1037.2 191.815C1057.86 234.305 1084.53 275.641 1119.87 307.327C1163.33 346.291 1210.07 380.791 1256.64 415.914L1257.56 414.585Z" fill="#3D5D82"/>
<path d="M1120.07 377.611C1150.25 327.783 1180.31 280.209 1214.68 233.122C1242.49 195.014 1278.34 169.23 1318.29 144.567L1316.81 143.843C1276.61 168.658 1239.84 193.192 1211.85 231.534C1177.45 278.682 1148.93 326.975 1118.65 376.832L1120.07 377.611Z" fill="#3D5D82"/>
<path d="M1403.84 378.75C1349.82 356.964 1298.03 334.931 1246.04 308.578C1203.96 287.249 1167.72 244.271 1136.96 208.794L1136.49 210.372C1167.44 246.068 1202.59 290.159 1244.93 311.618C1296.99 338.006 1349.23 358.398 1403.3 380.271L1403.84 378.75Z" fill="#3D5D82"/>
</g>
</g>
<defs>
<linearGradient id="paint0_linear_1402_2528" x1="1920.08" y1="330" x2="1031.09" y2="-806.484" gradientUnits="userSpaceOnUse">
<stop stop-color="#DBDFF3"/>
<stop offset="1" stop-color="#F1F9FF" stop-opacity="0.1"/>
</linearGradient>
<linearGradient id="paint1_linear_1402_2528" x1="1920.08" y1="330" x2="1031.09" y2="-806.484" gradientUnits="userSpaceOnUse">
<stop stop-color="#DBDFF3"/>
<stop offset="1" stop-color="#F1F9FF" stop-opacity="0"/>
</linearGradient>
</defs>
</svg>
