<svg width="244" height="239" viewBox="0 0 244 239" fill="none" xmlns="http://www.w3.org/2000/svg">
<path opacity="0.65" d="M163.726 53.3733C166.234 57.6043 165.517 63.5669 165.393 68.2821C165.411 68.7722 165.254 69.8572 165.1 71.0403C166.293 68.7415 167.482 66.3447 168.675 64.0459C169.453 62.4975 170.181 60.9019 170.959 59.3536C170.281 58.2485 169.746 55.6663 168.322 52.9188C166.637 49.7388 164.79 48.8707 166.067 44.8514C167.305 41.0788 170.931 38.2046 173.439 42.4356C175.581 46.0414 174.47 50.5947 173.149 54.7627C175.574 49.9183 178.203 45.2631 181.637 41.1687C182.935 26.8436 198.375 14.1362 211.411 10.9344C212.674 10.596 213.992 10.4029 215.237 10.8994C217.781 12.0376 217.818 15.7658 216.534 18.2641C214.795 21.7596 211.501 24.2789 208.083 26.1154C204.614 27.9046 200.881 29.1632 197.308 30.7597C194.315 32.1398 191.729 33.8982 189.244 35.7513C189.197 35.802 189.15 35.8528 189.102 35.9035C185.164 39.6229 182.132 43.9977 179.507 48.7509C181.927 46.4584 185.918 44.2094 187.506 43.3199C191.933 40.9084 197.035 39.504 202.022 40.3609C202.959 40.4755 203.953 40.8335 204.424 41.6513C205.001 42.6617 204.459 43.9565 203.757 44.9133C201.376 48.284 197.635 50.6715 193.641 51.4976C188.427 52.5133 183 51.7208 177.779 52.5405C177.728 52.4932 177.725 52.3952 177.772 52.3445C176.354 55.1909 174.986 58.0847 173.67 61.0258C177.36 58.5909 182.154 56.8047 184.492 56.3307C186.344 55.9718 188.351 55.8529 190.097 56.6263C191.842 57.3998 193.231 59.167 193.055 61.087C192.949 62.2193 192.298 63.2235 191.492 63.9876C188.93 66.4322 185.064 66.714 181.488 66.8876C177.959 67.0104 174.339 67.3327 170.756 67.3102C170.622 67.6584 170.389 68.0101 170.254 68.3583C167.883 73.348 165.363 78.2939 162.843 83.2397C165.121 81.0994 167.551 79.101 170.137 77.3425C175.357 73.7748 181.35 71.2107 187.518 70.7997C189.965 70.6164 192.622 70.8183 194.774 71.9702C195.674 72.4296 196.537 73.2337 196.474 74.2173C196.445 74.7582 196.219 75.3059 195.939 75.7082C194.129 78.5683 190.751 80.158 187.494 81.0075C182.244 82.368 176.842 82.2616 171.512 82.7907C168.481 83.0925 164.962 83.5094 162.017 84.8388C159.355 89.9368 156.592 94.9402 153.73 99.947C157.796 95.6834 163.942 91.9362 168.417 89.4741C172.797 87.1134 178.233 85.4519 182.544 87.9518C183.146 88.3234 183.752 88.793 184.165 89.3675C185.412 91.2869 184.281 93.9271 182.566 95.3608C180.379 97.3017 177.463 98.0902 174.577 98.3379C171.691 98.5856 168.79 98.4412 165.853 98.6416C160.665 99.0185 156.216 100.842 151.785 103.155C149.52 107.013 147.154 110.775 144.736 114.491C147.032 112.841 149.68 111.424 151.031 110.788C155.513 108.522 160.473 107.269 165.472 107.095C167.138 107.037 169.109 107.263 170.092 108.652C170.922 109.899 170.637 111.528 170.099 112.921C168.655 116.406 165.465 119.118 161.718 119.985C159.332 120.509 156.871 120.301 154.41 120.092C151.898 119.836 149.339 119.63 146.827 119.374C144.906 119.196 142.997 119.311 141.199 119.816C138.451 123.886 135.554 127.913 132.603 131.794C134.227 130.56 135.952 129.42 137.783 128.473C141.825 126.271 146.488 124.931 151.069 125.41C152.644 125.551 154.332 126.081 155.26 127.325C156.602 129.143 155.768 131.871 154.053 133.305C152.288 134.691 149.895 135.02 147.633 134.902C145.521 134.828 143.495 134.457 141.459 133.792C140.069 133.35 138.625 132.762 137.147 132.617C135.278 132.486 133.535 133.136 131.792 133.785C131.454 133.944 131.065 134.056 130.728 134.215C128.383 137.241 125.992 140.317 123.401 143.303C127.218 141.649 131.814 141.194 135.713 141.795C138.13 142.152 140.924 143.429 141.158 145.825C141.234 146.559 141.066 147.35 140.699 148.049C139.364 150.5 135.948 151.012 133.273 150.32C130.598 149.628 128.185 148.043 125.55 147.105C124.012 146.618 122.011 146.933 120.479 146.643C116.377 151.252 112.02 155.623 107.301 159.468C105.917 160.547 104.332 158.786 105.462 157.471C108.525 153.979 111.636 150.435 114.75 146.99C113.024 145.382 108.14 137.896 107.314 136.747C105.972 134.929 105.241 132.354 106.549 130.542C107.811 128.78 110.501 128.54 112.402 129.553C114.304 130.566 115.456 132.587 116.17 134.673C116.554 135.788 117.435 141.155 117.018 144.556C120.176 140.961 123.283 137.32 126.288 133.584C125.897 132.273 125.456 130.914 124.723 129.664C123.527 127.792 121.801 126.183 120.651 124.26C119.502 122.338 119.062 119.654 120.472 117.936C122.213 115.864 125.715 116.38 127.554 118.377C129.393 120.374 129.79 123.206 129.74 125.907C129.721 126.742 129.717 127.969 129.665 129.246C129.897 128.895 130.133 128.641 130.366 128.29C131.678 126.576 132.892 124.865 134.154 123.103C132.493 120.609 131.851 116.412 130.67 113.607C129.543 110.947 128.166 108.149 128.357 105.296C128.498 102.396 130.94 99.3664 133.851 99.8048C136.464 100.155 137.943 103.048 138.478 105.63C139.02 108.409 139.019 113.807 137.846 118.019C140.409 114.249 142.874 110.483 145.288 106.669C143.981 101.759 137.923 97.0622 137.714 91.279C137.629 88.9265 138.819 85.2047 141.861 85.1969C144.217 85.2131 145.764 88.6433 146.663 90.4277C148.196 93.4659 148.788 97.6164 148.392 101.605C149.319 100.101 150.246 98.5961 151.17 96.9937C152.326 95.0396 153.53 93.0348 154.635 91.0334C154.077 89.1881 152.835 86.0417 151.218 83.399C149.13 79.9386 146.164 76.6068 148.313 72.2627C150.328 68.2668 156.325 64.4758 158.254 70.3463C159.355 73.6449 159.365 79.3369 158.318 84.3296C160.435 80.4283 162.504 76.5777 164.569 72.6292C163.098 69.9324 162.61 67.2995 159.64 63.8697C157.232 61.0583 152.569 58.3253 154.137 54.1978C155.681 49.3841 161.268 49.1896 163.726 53.3733Z" fill="url(#paint0_linear_1416_2528)"/>
<path d="M75.2429 73.8659C76.4639 71.3434 78.5539 66.5892 87.5402 65.974C87.5402 65.974 87.7376 76.2761 79.2343 82.989C76.7361 84.9612 73.6195 86.3382 73.6195 86.3382C73.6195 86.3382 73.2301 78.6895 75.2429 73.8659Z" fill="#1B2B7C"/>
<path d="M78.5952 75.0535C80.3467 71.9499 84.3144 69.6615 84.3144 69.6615C84.3144 69.6615 81.1593 72.2743 79.1575 75.5723C77.1558 78.8703 76.165 81.3436 76.165 81.3436C76.165 81.3436 76.8437 78.157 78.5952 75.0535Z" fill="white"/>
<path d="M123.714 136.996C117.278 148.92 106.22 171.152 60.5108 183.995C60.5108 183.995 60.4611 141.222 104.281 103.482C117.155 92.3945 133.115 83.0838 133.115 83.0838C133.115 83.0838 134.386 114.562 123.714 136.996Z" fill="#FB5472"/>
<path d="M107.197 135.795C98.0116 150.751 77.6426 164.839 77.6426 164.839C77.6426 164.839 93.9134 150.326 104.388 134.272C114.863 118.218 120.126 106.762 120.126 106.762C120.126 106.762 116.383 120.839 107.197 135.795Z" fill="white"/>
<path d="M118.885 196.359C135.167 192.619 165.215 186.767 195.465 136.651C195.465 136.651 144.648 122.567 85.4283 162.272C68.0298 173.938 51.7313 189.854 51.7313 189.854C51.7313 189.854 88.7246 201.686 118.885 196.359Z" fill="#1B2B7C"/>
<path d="M122.964 176.256C143.751 170.243 167.173 150.654 167.173 150.654C167.173 150.654 144.59 165.233 122.075 172.418C99.5604 179.603 84.2199 182.101 84.2199 182.101C84.2199 182.101 102.176 182.268 122.964 176.256Z" fill="white"/>
<path opacity="0.65" d="M9.18699 131.887C11.1015 134.623 14.4606 139.818 25.1733 138.889C25.1733 138.889 23.4676 126.763 12.1772 120.447C8.86015 118.591 4.92588 117.548 4.92588 117.548C4.92588 117.548 5.90583 126.596 9.18699 131.887Z" fill="url(#paint1_linear_1416_2528)"/>
<path d="M13.4284 129.179C15.5587 132.405 20.145 135.359 20.145 135.359C20.145 135.359 16.4579 132.282 14.0358 128.823C11.6137 125.364 10.3723 122.88 10.3723 122.88C10.3723 122.88 11.2981 125.952 13.4284 129.179Z" fill="white"/>
<defs>
<linearGradient id="paint0_linear_1416_2528" x1="181.219" y1="104.568" x2="141.099" y2="67.1981" gradientUnits="userSpaceOnUse">
<stop stop-color="#87DFFF"/>
<stop offset="1" stop-color="#3CA5FF"/>
</linearGradient>
<linearGradient id="paint1_linear_1416_2528" x1="12.728" y1="137.061" x2="17.0096" y2="120.682" gradientUnits="userSpaceOnUse">
<stop stop-color="#87DFFF"/>
<stop offset="1" stop-color="#3CA5FF"/>
</linearGradient>
</defs>
</svg>
