<svg width="204" height="180" viewBox="0 0 204 180" fill="none" xmlns="http://www.w3.org/2000/svg">
<path d="M68.5265 27.2323C67.4066 31.819 69.7011 37.0939 71.1399 41.4276C71.2998 41.9091 71.7522 42.8833 72.1382 43.8519C70.4211 42.0358 68.6376 40.2142 66.9205 38.3982C65.7555 37.1635 64.6568 35.9344 63.4918 34.6997C63.7911 33.5212 63.539 30.959 64.116 28.0653C64.7984 24.7123 66.2473 23.3629 63.9235 20.0248C61.7156 16.897 57.5779 15.2787 56.4579 19.8655C55.532 23.733 57.8056 27.6687 60.1182 31.1396C56.5624 27.3636 52.7854 23.8365 48.5548 20.9399C43.354 8.13206 25.6764 0.761999 12.7945 1.48493C11.5842 1.58383 10.2357 1.73798 9.30114 2.52874C7.28269 4.29833 8.32993 7.7298 10.1741 9.62338C12.7526 12.3142 16.4374 13.7607 20.1172 14.4711C23.797 15.1816 27.5989 15.2336 31.2955 15.7448C34.4008 16.1395 37.3289 17.0543 40.1132 18.0907C40.1739 18.1627 40.1739 18.1627 40.2402 18.1683C44.8526 20.4951 48.9227 23.7125 52.6279 27.3005C49.7444 25.8545 45.4846 24.8947 43.7773 24.5506C39.0533 23.5518 33.9636 23.7259 29.646 25.8372C28.8113 26.2352 27.9654 26.7659 27.8209 27.6899C27.5935 28.8076 28.4437 29.8152 29.3881 30.4964C32.525 32.8998 36.6299 34.1141 40.5372 33.7069C45.5884 33.1952 50.3869 30.9237 55.383 30.2736C55.3886 30.2072 55.3941 30.1408 55.3997 30.0744C57.5476 32.3279 59.5628 34.5702 61.5725 36.8789C57.5339 35.6702 52.6215 35.3242 50.3279 35.5996C48.5097 35.7811 46.6691 36.2283 45.2313 37.4448C43.7992 38.595 43.0239 40.6697 43.752 42.3357C44.138 43.3043 45.0105 44.0463 45.9717 44.5283C48.9822 46.0518 52.6577 45.2239 55.9354 44.3626C59.213 43.5013 62.6121 42.7839 65.901 41.7897C66.1439 42.0776 66.3868 42.3655 66.6353 42.587C70.2462 46.5014 73.9234 50.4214 77.6118 54.2085C74.9217 52.8457 72.1429 51.7429 69.2811 50.8337C63.4913 49.0097 57.3414 48.2923 51.4882 49.6059C49.1723 50.1468 46.8285 51.0198 45.1527 52.6844C44.4946 53.3647 43.8804 54.3161 44.2057 55.2127C44.3656 55.6943 44.73 56.1261 45.1718 56.4307C47.6623 58.5792 51.16 59.0738 54.4426 58.9484C59.6042 58.7135 64.5458 57.1227 69.6361 56.1462C72.5543 55.589 75.8759 54.9988 78.915 55.3879C82.7911 59.3246 86.7392 63.2005 90.7647 66.9491C85.8542 64.196 79.1248 62.4268 74.4008 61.428C69.7431 60.4348 64.2612 60.5091 60.9649 63.9767C60.5224 64.4745 60.0743 65.0387 59.8803 65.7579C59.3039 67.8493 61.065 69.9365 62.9929 70.8341C65.5008 71.981 68.4463 71.8942 71.1601 71.3867C73.8794 70.8128 76.4995 69.8293 79.2188 69.2554C84.0495 68.1902 88.6247 68.5747 93.4262 69.4463C96.5904 72.3201 99.8264 75.1331 103.068 77.8797C100.471 76.9928 97.7088 76.4931 96.2611 76.2377C91.5204 75.4381 86.5634 75.6234 81.9205 76.8381C80.3508 77.2411 78.6149 78.0314 78.0888 79.5252C77.64 80.8917 78.3848 82.3586 79.2958 83.4382C81.5979 86.2395 85.3378 87.8243 88.9631 87.594C91.3174 87.3907 93.5285 86.5066 95.7397 85.6225C98.0227 84.6776 100.234 83.7935 102.517 82.8486C104.247 82.1247 106.016 81.7383 107.823 81.6896C111.512 84.6744 115.278 87.5319 119.05 90.3231C117.172 89.6303 115.283 89.0703 113.377 88.7095C109.045 87.8105 104.43 87.8908 100.345 89.6205C98.9577 90.2394 97.5478 91.124 97.0272 92.5514C96.3238 94.5652 97.7973 96.8957 99.8027 97.6661C101.808 98.4364 104.107 98.0947 106.108 97.3266C108.032 96.6859 109.845 95.7683 111.476 94.6349C112.682 93.8 113.76 92.8876 115.136 92.4014C116.789 91.8048 118.651 91.8944 120.381 91.9729C120.713 92.0007 121.11 92.0342 121.508 92.0676C124.535 94.1943 127.628 96.3265 130.726 98.3924C126.759 97.9253 122.409 98.8302 119.004 100.416C116.914 101.444 114.685 103.33 115.093 105.638C115.23 106.385 115.644 107.022 116.135 107.531C118.052 109.364 121.29 108.967 123.612 107.557C125.934 106.148 127.649 104.018 129.85 102.465C131.127 101.569 133.083 101.332 134.344 100.636C139.425 103.737 144.596 106.579 150.02 108.774C151.634 109.444 152.547 107.314 151.155 106.395C147.35 104.002 143.538 101.676 139.727 99.3494C140.889 97.441 143.261 89.0811 143.699 87.8473C144.402 85.8335 144.355 83.2216 142.665 81.8759C141.036 80.6022 138.454 81.1209 137.061 82.6086C135.601 84.0908 135.085 86.2541 134.978 88.3181C134.95 89.4525 135.647 94.6601 136.999 97.649C133.127 95.2507 129.194 92.7804 125.406 90.1884C125.451 88.8549 125.43 87.5157 125.746 86.138C126.322 84.0466 127.484 82.1382 127.994 80.0413C128.505 77.9443 128.186 75.3765 126.419 74.1581C124.27 72.707 121.141 74.1827 120.012 76.4951C118.883 78.8075 119.317 81.5856 120.111 84.0596C120.381 84.8179 120.684 85.9801 121.125 87.0871C120.811 86.86 120.496 86.633 120.181 86.4059C118.546 85.1986 116.917 83.9249 115.282 82.7177C116.113 79.979 115.514 75.9834 115.898 73.0065C116.199 70.2232 116.709 67.3239 115.728 64.7004C114.746 62.0769 111.714 60.0166 109.144 61.2048C106.849 62.2825 106.261 65.3091 106.58 67.8769C106.887 70.5775 108.408 75.5199 110.649 79.0517C107.275 76.294 103.9 73.5362 100.67 70.6569C100.48 65.7595 104.79 59.7691 103.369 54.4338C102.818 52.2477 100.604 49.1863 97.8628 50.0258C95.6684 50.7107 95.2344 54.2852 94.8793 56.1277C94.3462 59.2926 94.9398 63.3547 96.4456 66.8915C95.1368 65.7785 93.8998 64.6046 92.6629 63.4308C91.0505 61.9579 89.4437 60.4186 87.8313 58.9457C87.8549 57.0754 88.0564 53.8826 88.8379 50.9391C89.7583 47.1381 91.6182 43.2822 88.3605 39.9325C85.412 36.8762 78.8265 34.9854 78.6614 40.9228C78.5814 44.2596 80.1465 49.4732 82.4529 53.8129C79.4326 50.8175 76.4122 47.822 73.4582 44.8321C74.0352 41.9383 73.7775 39.4425 75.5215 35.3763C76.9333 32.0846 80.4565 28.3017 77.8674 24.9412C74.8366 21.2762 69.6465 22.6455 68.5265 27.2323Z" fill="#FFDA32"/>
<path d="M130.285 93.5826C135.975 103.274 145.801 121.371 184.069 130.654C184.069 130.654 182.836 95.2017 145.393 65.2273C134.393 56.421 120.888 49.1796 120.888 49.1796C120.888 49.1796 120.772 75.307 130.285 93.5826Z" fill="#1B2B7C"/>
<path d="M144.001 92.0933C152.06 104.216 169.361 115.285 169.361 115.285C169.361 115.285 155.444 103.741 146.284 90.7476C137.124 77.7538 132.421 68.4158 132.421 68.4158C132.421 68.4158 135.943 79.9709 144.001 92.0933Z" fill="white"/>
<path d="M137.998 144.999C124.392 142.385 99.3141 138.429 72.7496 97.7936C72.7496 97.7936 114.447 84.6064 164.713 115.751C179.48 124.902 193.463 137.608 193.463 137.608C193.463 137.608 163.154 148.517 137.998 144.999Z" fill="#FB5472"/>
<path d="M134.082 128.457C116.674 124.093 96.6782 108.555 96.6782 108.555C96.6782 108.555 115.83 119.965 134.704 125.25C153.579 130.534 166.368 132.148 166.368 132.148C166.368 132.148 151.49 132.821 134.082 128.457Z" fill="white"/>
</svg>
