<svg width="530" height="143" viewBox="0 0 530 143" fill="none" xmlns="http://www.w3.org/2000/svg">
<path d="M511.588 22.8849C512.809 20.3625 514.899 15.6082 523.885 14.993C523.885 14.993 524.083 25.2952 515.579 32.008C513.081 33.9802 509.964 35.3572 509.964 35.3572C509.964 35.3572 509.575 27.7085 511.588 22.8849Z" fill="#1B2B7C"/>
<path d="M514.904 24.0725C516.655 20.969 520.623 18.6805 520.623 18.6805C520.623 18.6805 517.468 21.2933 515.466 24.5914C513.464 27.8894 512.474 30.3626 512.474 30.3626C512.474 30.3626 513.152 27.176 514.904 24.0725Z" fill="white"/>
<path d="M20.4621 134.512C18.5476 137.248 15.1884 142.443 4.47575 141.514C4.47575 141.514 6.18142 129.388 17.4718 123.072C20.7889 121.216 24.7232 120.173 24.7232 120.173C24.7232 120.173 23.7432 129.221 20.4621 134.512Z" fill="#FFDA32"/>
<path d="M16.2938 131.804C14.1635 135.03 9.57727 137.984 9.57727 137.984C9.57727 137.984 13.2643 134.907 15.6864 131.448C18.1086 127.989 19.3499 125.505 19.3499 125.505C19.3499 125.505 18.4242 128.577 16.2938 131.804Z" fill="white"/>
<path d="M79.0911 14.5116C81.0056 17.2476 84.3647 22.4431 95.0774 21.5142C95.0774 21.5142 93.3717 9.38759 82.0813 3.07175C78.7643 1.2162 74.83 0.172749 74.83 0.172749C74.83 0.172749 75.8099 9.22058 79.0911 14.5116Z" fill="#FB5472"/>
<path d="M83.2814 11.8035C85.4117 15.0299 89.9979 17.9843 89.9979 17.9843C89.9979 17.9843 86.3109 14.9067 83.8888 11.448C81.4666 7.98927 80.2253 5.50524 80.2253 5.50524C80.2253 5.50524 81.151 8.57716 83.2814 11.8035Z" fill="white"/>
</svg>
