<svg width="537" height="135" viewBox="0 0 537 135" fill="none" xmlns="http://www.w3.org/2000/svg">
<path d="M446.732 122.364C445.511 119.842 443.421 115.088 434.434 114.472C434.434 114.472 434.237 124.775 442.74 131.487C445.239 133.459 448.355 134.836 448.355 134.836C448.355 134.836 448.745 127.188 446.732 122.364Z" fill="#1B2B7C"/>
<path d="M443.446 123.552C441.694 120.448 437.727 118.16 437.727 118.16C437.727 118.16 440.882 120.773 442.883 124.071C444.885 127.369 445.876 129.842 445.876 129.842C445.876 129.842 445.197 126.655 443.446 123.552Z" fill="white"/>
<path d="M98.9127 14.5119C96.9982 17.2479 93.6391 22.4433 82.9264 21.5143C82.9264 21.5143 84.6319 9.38779 95.9224 3.07209C99.2394 1.21657 103.174 0.17316 103.174 0.17316C103.174 0.17316 102.194 9.22094 98.9127 14.5119Z" fill="#FB5472"/>
<path d="M94.7351 11.8037C92.6047 15.03 88.0186 17.9844 88.0186 17.9844C88.0186 17.9844 91.7056 14.9069 94.1277 11.4482C96.5498 7.98946 97.7912 5.50543 97.7912 5.50543C97.7912 5.50543 96.8654 8.57735 94.7351 11.8037Z" fill="white"/>
<path d="M9.37149 77.9478C11.286 80.6837 14.6451 85.8791 25.3578 84.9501C25.3578 84.9501 23.6522 72.8236 12.3618 66.5079C9.04477 64.6524 5.11049 63.609 5.11049 63.609C5.11049 63.609 6.09037 72.6568 9.37149 77.9478Z" fill="#FFDA32"/>
<path d="M13.5491 75.2395C15.6794 78.4658 20.2656 81.4202 20.2656 81.4202C20.2656 81.4202 16.5786 78.3427 14.1565 74.884C11.7344 71.4253 10.493 68.9413 10.493 68.9413C10.493 68.9413 11.4188 72.0132 13.5491 75.2395Z" fill="white"/>
<path opacity="0.3" fill-rule="evenodd" clip-rule="evenodd" d="M385.684 70.8092C389.205 70.8092 392.06 73.6635 392.06 77.1845C392.06 80.7055 389.205 83.5599 385.684 83.5599C382.163 83.5599 379.309 80.7055 379.309 77.1845C379.309 73.6635 382.163 70.8092 385.684 70.8092ZM385.684 65.2308C392.286 65.2308 397.638 70.5827 397.638 77.1845C397.638 83.7864 392.286 89.1383 385.684 89.1383C379.082 89.1383 373.73 83.7864 373.73 77.1845C373.73 70.5827 379.082 65.2308 385.684 65.2308Z" fill="#1B2B7C"/>
<path opacity="0.2" fill-rule="evenodd" clip-rule="evenodd" d="M520.99 111.502C525.233 111.502 528.672 114.942 528.672 119.185C528.672 123.428 525.233 126.867 520.99 126.867C516.747 126.867 513.307 123.428 513.307 119.185C513.307 114.942 516.747 111.502 520.99 111.502ZM520.99 103.533C529.634 103.533 536.641 110.54 536.641 119.185C536.641 127.829 529.634 134.836 520.99 134.836C512.345 134.836 505.338 127.829 505.338 119.185C505.338 110.54 512.345 103.533 520.99 103.533Z" fill="#1B2B7C"/>
<path opacity="0.3" fill-rule="evenodd" clip-rule="evenodd" d="M448.355 15.3328C450.556 15.3328 452.339 17.1168 452.339 19.3174C452.339 21.5181 450.556 23.302 448.355 23.302C446.154 23.302 444.37 21.5181 444.37 19.3174C444.37 17.1168 446.154 15.3328 448.355 15.3328ZM448.355 11.3483C452.756 11.3483 456.324 14.9162 456.324 19.3174C456.324 23.7187 452.756 27.2866 448.355 27.2866C443.954 27.2866 440.386 23.7187 440.386 19.3174C440.386 14.9162 443.954 11.3483 448.355 11.3483Z" fill="#FB5472"/>
</svg>
