<svg width="411" height="296" viewBox="0 0 411 296" fill="none" xmlns="http://www.w3.org/2000/svg">
<circle opacity="0.3" cx="406" cy="148" r="135" stroke="#DBDFF3" stroke-width="80"/>
<path opacity="0.3" fill-rule="evenodd" clip-rule="evenodd" d="M12.6493 213.689C9.12829 213.689 6.27396 210.835 6.27396 207.314C6.27396 203.793 9.12829 200.938 12.6493 200.938C16.1703 200.938 19.0246 203.793 19.0246 207.314C19.0246 210.835 16.1703 213.689 12.6493 213.689ZM12.6493 219.267C6.04742 219.267 0.695543 213.915 0.695543 207.314C0.695543 200.712 6.04742 195.36 12.6493 195.36C19.2512 195.36 24.603 200.712 24.603 207.314C24.603 213.915 19.2512 219.267 12.6493 219.267Z" fill="#FB5472"/>
<path opacity="0.2" fill-rule="evenodd" clip-rule="evenodd" d="M333.343 50.0887C329.1 50.0887 325.661 46.6491 325.661 42.4061C325.661 38.1632 329.1 34.7236 333.343 34.7236C337.586 34.7236 341.026 38.1632 341.026 42.4061C341.026 46.6491 337.586 50.0887 333.343 50.0887ZM333.343 58.0579C324.699 58.0579 317.692 51.0503 317.692 42.4061C317.692 33.7619 324.699 26.7544 333.343 26.7544C341.988 26.7544 348.995 33.7619 348.995 42.4061C348.995 51.0503 341.988 58.0579 333.343 58.0579Z" fill="#1B2B7C"/>
<path opacity="0.3" fill-rule="evenodd" clip-rule="evenodd" d="M357.978 267.852C355.777 267.852 353.994 266.068 353.994 263.867C353.994 261.666 355.777 259.883 357.978 259.883C360.179 259.883 361.963 261.666 361.963 263.867C361.963 266.068 360.179 267.852 357.978 267.852ZM357.978 271.836C353.577 271.836 350.009 268.268 350.009 263.867C350.009 259.466 353.577 255.898 357.978 255.898C362.379 255.898 365.947 259.466 365.947 263.867C365.947 268.268 362.379 271.836 357.978 271.836Z" fill="#1B2B7C"/>
</svg>
