<svg width="776" height="791" viewBox="0 0 776 791" fill="none" xmlns="http://www.w3.org/2000/svg">
<path opacity="0.65" d="M85.9001 123.12C89.1266 122.463 92.7396 124.226 95.694 125.34C96.0078 125.437 96.6594 125.774 97.3738 126.131C96.1821 124.872 94.9277 123.593 93.7361 122.334C92.928 121.502 92.0788 120.691 91.2707 119.859C90.423 120.045 88.6727 119.816 86.6224 120.113C84.2413 120.481 83.2867 121.458 81.0258 119.767C78.9121 118.156 77.891 115.232 81.1175 114.575C83.8682 114.012 86.5033 115.715 88.8487 117.466C86.3182 114.868 83.952 112.183 82.1173 109.112C73.344 105.145 68.7003 92.59 69.5391 83.6434C69.6027 82.77 69.7701 81.8941 70.3575 81.216C71.636 79.8574 74.0016 80.6532 75.2994 82.0137C77.1279 83.8808 77.9971 86.5178 78.4076 89.0824C78.7771 91.6688 78.753 94.3059 78.9775 96.9165C79.1928 99.112 79.7366 101.134 80.3626 103.112C80.3843 103.153 80.406 103.194 80.4277 103.235C81.9144 106.543 84.0149 109.421 86.4439 112.125C85.5258 110.091 84.9804 107.073 84.7667 105.874C84.2144 102.544 84.447 99.0097 86.0844 96.0441C86.3626 95.4771 86.8074 94.9269 87.428 94.8085C88.1936 94.666 88.8932 95.2932 89.3441 95.947C90.9526 98.1929 91.6405 101.083 91.2855 103.79C90.7824 107.311 89.0892 110.568 88.4606 114.05C88.4196 114.072 88.3568 114.052 88.3351 114.011C89.8235 115.533 91.353 117.034 92.9235 118.513C92.1945 115.644 92.118 112.22 92.3319 110.638C92.5117 109.388 92.8775 108.092 93.7501 107.158C94.6226 106.224 96.0452 105.734 97.2206 106.267C97.9133 106.583 98.4053 107.215 98.7113 107.893C99.6945 110.05 99.0233 112.557 98.3475 114.856C97.6501 117.115 97.0587 119.474 96.2574 121.735C96.448 121.897 96.6193 122.121 96.8099 122.283C99.4442 124.879 102.018 127.559 104.592 130.239C103.739 128.328 103.009 126.352 102.465 124.33C101.356 120.246 101.051 115.893 102.146 111.902C102.568 110.315 103.279 108.679 104.48 107.571C104.968 107.103 105.666 106.734 106.275 106.989C106.61 107.127 106.907 107.39 107.1 107.655C108.511 109.428 108.774 111.913 108.596 114.159C108.303 117.779 107.049 121.171 106.212 124.658C105.737 126.641 105.228 128.957 105.422 131.112C108.061 133.915 110.618 136.762 113.155 139.671C111.352 136.163 110.333 131.454 109.759 128.083C109.228 124.795 109.372 120.992 111.899 118.815C112.267 118.516 112.697 118.236 113.151 118.101C114.638 117.734 116.059 119.029 116.589 120.429C117.336 122.238 117.194 124.255 116.717 126.135C116.239 128.014 115.511 129.817 114.993 131.718C114.091 135.082 114.267 138.295 114.756 141.606C116.698 143.885 118.558 146.208 120.376 148.553C119.837 146.739 119.522 144.753 119.417 143.759C118.969 140.427 119.266 137.016 120.254 133.816C120.584 132.75 121.159 131.553 122.254 131.237C123.224 130.985 124.192 131.523 124.955 132.17C126.841 133.849 127.855 136.462 127.58 139.021C127.388 140.645 126.715 142.156 126.043 143.666C125.329 145.199 124.637 146.772 123.923 148.304C123.389 149.479 123.042 150.712 122.966 151.959C124.936 154.591 126.846 157.308 128.652 160.027C128.228 158.729 127.887 157.387 127.69 156.022C127.186 152.982 127.363 149.739 128.672 146.947C129.107 145.982 129.813 145.031 130.803 144.717C132.248 144.268 133.789 145.395 134.319 146.794C134.808 148.215 134.49 149.8 133.919 151.205C133.409 152.524 132.729 153.724 131.861 154.865C131.276 155.647 130.587 156.431 130.171 157.334C129.677 158.487 129.705 159.732 129.733 160.977C129.759 161.225 129.745 161.496 129.771 161.744C131.169 163.891 132.59 166.079 133.908 168.374C133.701 165.597 134.423 162.59 135.659 160.257C136.416 158.807 137.837 157.32 139.404 157.699C139.884 157.812 140.348 158.092 140.71 158.478C141.966 159.86 141.539 162.133 140.514 163.672C139.489 165.212 137.957 166.39 136.785 167.85C136.139 168.716 135.899 170.05 135.379 170.955C137.392 174.562 139.199 178.277 140.594 182.106C140.972 183.218 139.51 183.833 138.927 182.83C137.391 180.125 135.834 177.38 134.34 174.654C132.943 175.393 127.137 176.836 126.229 177.107C124.785 177.556 122.996 177.452 122.137 176.227C121.301 175.042 121.739 173.288 122.798 172.309C123.856 171.329 125.387 171.044 126.863 171.051C127.652 171.053 131.24 171.675 133.298 172.685C131.719 169.899 130.099 167.134 128.397 164.413C127.482 164.372 126.526 164.353 125.574 164.541C124.128 164.887 122.731 165.625 121.263 165.93C119.795 166.234 118.001 165.923 117.225 164.654C116.297 163.098 117.392 160.996 119.059 160.272C120.726 159.548 122.604 159.919 124.301 160.544C124.825 160.739 125.599 161.012 126.396 161.325C126.225 161.101 126.116 160.896 125.945 160.671C125.149 159.465 124.334 158.322 123.497 157.137C121.556 157.639 118.76 157.124 116.727 157.254C114.797 157.382 112.726 157.639 110.964 156.891C109.161 156.165 107.782 153.955 108.698 152.211C109.494 150.635 111.648 150.335 113.399 150.564C115.274 150.832 118.687 152.018 121.093 153.685C119.273 151.236 117.432 148.851 115.551 146.486C112.159 146.234 107.858 149.033 104.156 147.895C102.649 147.432 100.557 145.862 101.221 143.936C101.748 142.45 104.257 142.225 105.583 142.049C107.841 141.747 110.596 142.284 113.031 143.411C112.283 142.494 111.535 141.577 110.725 140.641C109.743 139.481 108.74 138.28 107.717 137.141C106.428 137.088 104.165 137.183 102.139 137.625C99.4923 138.185 96.7339 139.329 94.459 137.016C92.3748 134.864 91.2949 130.239 95.431 130.308C97.7586 130.337 101.36 131.581 104.287 133.339C102.285 131.144 100.305 128.99 98.2617 126.816C96.2332 127.154 94.4611 126.885 91.6399 128.009C89.3331 128.915 86.5808 131.263 84.3153 129.364C81.6104 127.331 82.7147 123.755 85.9001 123.12Z" fill="url(#paint0_linear_68_5844)"/>
<path d="M129.989 166.791C136.115 173.48 147.745 185.356 145.824 217.082C145.824 217.082 118.766 207.718 104.528 171.718C100.344 161.142 97.9628 149.004 97.9628 149.004C97.9628 149.004 118.147 155.114 129.989 166.791Z" fill="#FB5472"/>
<path d="M125.587 177.014C133.026 186.107 137.46 202.082 137.46 202.082C137.46 202.082 131.857 188.605 124.007 178.455C116.156 168.305 110.068 162.461 110.068 162.461C110.068 162.461 118.147 167.92 125.587 177.014Z" fill="white"/>
<path d="M167.824 184.942C169.036 173.825 171.936 153.538 146.891 123.4C146.891 123.4 126.822 152.441 138.92 198.612C142.475 212.176 148.959 225.979 148.959 225.979C148.959 225.979 164.568 205.185 167.824 184.942Z" fill="#1B2B7C"/>
<path d="M155.993 177.99C156.757 163.525 149.515 144.411 149.515 144.411C149.515 144.411 153.773 161.894 153.371 177.709C152.969 193.524 151.179 203.773 151.179 203.773C151.179 203.773 155.229 192.455 155.993 177.99Z" fill="white"/>
<path d="M694.636 586.259C696.704 590.431 695.634 596.003 695.185 600.484C695.135 600.981 694.91 602.017 694.748 603.032C696.008 600.914 697.331 598.776 698.592 596.657C699.446 595.218 700.238 593.798 701.093 592.358C700.55 591.289 700.24 588.768 699.06 586.108C697.679 583.029 695.994 582.043 697.509 578.329C698.959 574.843 702.591 572.392 704.66 576.564C706.386 580.086 705.047 584.364 703.571 588.204C706.178 583.802 709.051 579.593 712.497 575.892C714.737 562.444 730.158 551.535 742.711 549.45C743.898 549.283 745.229 549.141 746.299 549.7C748.623 550.967 748.356 554.495 746.99 556.716C745.09 559.862 741.856 562.049 738.468 563.527C735.08 565.005 731.432 565.876 727.985 567.166C725.082 568.217 722.462 569.729 720.006 571.328C719.963 571.41 719.963 571.41 719.9 571.43C715.964 574.665 712.742 578.639 709.951 582.892C712.413 580.878 716.306 579.035 717.874 578.335C722.205 576.354 727.141 575.423 731.751 576.522C732.641 576.725 733.569 577.053 733.908 577.911C734.368 578.938 733.767 580.091 733.005 580.95C730.506 583.94 726.817 585.995 722.969 586.447C717.998 587.045 712.889 585.895 707.941 586.348C707.921 586.285 707.902 586.223 707.882 586.16C706.301 588.792 704.846 591.385 703.41 594.041C707.036 592.006 711.689 590.612 713.956 590.382C715.745 590.164 717.612 590.197 719.259 591.057C720.885 591.855 722.079 593.684 721.738 595.445C721.576 596.46 720.896 597.363 720.075 598.034C717.507 600.15 713.791 600.147 710.451 600.025C707.111 599.904 703.685 599.948 700.305 599.701C700.133 600.031 699.962 600.36 699.77 600.627C697.14 605.173 694.448 609.739 691.716 614.18C694.011 612.288 696.447 610.627 699.004 609.134C704.183 606.129 709.946 604.111 715.863 604.111C718.208 604.132 720.652 604.466 722.624 605.706C723.405 606.218 724.201 607.001 724.081 607.934C724.032 608.432 723.774 608.927 723.415 609.315C721.482 611.92 718.222 613.151 715.036 613.739C710.018 614.628 704.919 614.164 699.81 614.323C696.881 614.417 693.557 614.566 690.716 615.597C687.836 620.222 684.873 624.804 681.809 629.28C685.94 625.571 692.034 622.416 696.365 620.434C700.633 618.473 705.924 617.361 709.845 619.986C710.378 620.37 710.931 620.816 711.273 621.466C712.28 623.355 711.035 625.743 709.374 627.023C707.208 628.668 704.354 629.221 701.633 629.318C698.892 629.353 696.159 628.972 693.418 629.007C688.539 629.025 684.219 630.383 679.786 632.258C677.362 635.707 674.855 639.112 672.328 642.455C674.635 641.041 677.186 639.964 678.524 639.406C682.914 637.613 687.724 636.721 692.455 636.887C694.052 636.936 695.894 637.322 696.722 638.646C697.449 639.864 697.049 641.437 696.406 642.672C694.795 645.865 691.538 648.197 687.999 648.758C685.69 649.071 683.371 648.698 681.052 648.324C678.651 647.908 676.332 647.534 673.931 647.118C672.11 646.795 670.324 646.805 668.575 647.148C665.669 650.817 662.661 654.38 659.633 657.88C661.292 656.808 662.989 655.861 664.746 655.103C668.72 653.302 673.178 652.383 677.483 653.166C678.952 653.462 680.5 654.009 681.309 655.27C682.421 657.056 681.506 659.617 679.742 660.791C677.978 661.965 675.692 662.133 673.601 661.826C671.611 661.625 669.668 661.133 667.853 660.394C666.513 659.851 665.278 659.206 663.849 659.035C662.13 658.818 660.357 659.306 658.709 659.755C658.396 659.854 658.021 659.972 657.645 660.09C655.191 662.79 652.675 665.509 650.139 668.166C653.856 666.86 658.238 666.792 661.857 667.583C664.09 668.121 666.642 669.455 666.749 671.764C666.778 672.512 666.517 673.214 666.154 673.811C664.705 675.988 661.503 676.306 658.964 675.45C656.425 674.595 654.315 672.916 651.862 671.896C650.439 671.31 648.505 671.504 647.142 671.106C642.921 675.188 638.559 679.039 633.812 682.322C632.405 683.315 631.066 681.463 632.207 680.278C635.353 677.154 638.518 674.092 641.683 671.031C640.153 669.445 636.066 661.912 635.378 660.819C634.267 659.033 633.749 656.509 635.084 654.85C636.377 653.272 638.973 653.214 640.636 654.345C642.361 655.456 643.324 657.426 643.872 659.39C644.145 660.475 644.598 665.637 643.942 668.805C647.151 665.661 650.402 662.435 653.488 659.123C653.157 657.849 652.888 656.556 652.287 655.298C651.28 653.41 649.75 651.825 648.806 649.917C647.863 648.009 647.615 645.469 649.053 643.915C650.807 642.055 654.137 642.799 655.723 644.781C657.309 646.762 657.49 649.53 657.261 652.082C657.164 652.87 657.124 654.054 656.938 655.214C657.192 654.928 657.446 654.641 657.7 654.355C659.012 652.84 660.305 651.263 661.618 649.748C660.227 647.292 659.941 643.317 658.929 640.536C658.039 637.922 656.921 635.242 657.3 632.506C657.678 629.769 660.151 627.132 662.881 627.72C665.322 628.262 666.541 631.048 666.789 633.587C667.077 636.253 666.68 641.337 665.286 645.22C667.937 641.837 670.589 638.455 673.077 634.987C672.202 630.233 666.761 625.399 666.977 619.958C667.035 617.735 668.505 614.311 671.324 614.527C673.584 614.712 674.773 618.059 675.513 619.755C676.709 622.686 677.015 626.723 676.329 630.451C677.348 629.098 678.285 627.701 679.222 626.304C680.456 624.539 681.67 622.711 682.904 620.945C682.477 619.15 681.594 616.121 680.207 613.458C678.5 609.998 675.878 606.689 678.29 602.763C680.468 599.185 686.397 595.944 687.838 601.622C688.635 604.815 688.254 610.171 686.972 614.845C689.232 611.31 691.492 607.775 693.689 604.26C692.509 601.6 692.218 599.143 689.662 595.606C687.593 592.743 683.385 589.864 685.152 586.071C687.277 581.89 692.568 582.087 694.636 586.259Z" fill="#FFDA32"/>
<path d="M653.36 666.482C643.858 672.187 626.104 682.052 617.317 719.881C617.317 719.881 652.268 718.325 681.469 681.111C690.049 670.178 697.061 656.789 697.061 656.789C697.061 656.789 671.292 656.925 653.36 666.482Z" fill="#1B2B7C"/>
<path d="M654.961 679.988C643.083 688.052 632.332 705.221 632.332 705.221C632.332 705.221 643.583 691.384 656.31 682.226C669.036 673.068 678.2 668.341 678.2 668.341C678.2 668.341 666.838 671.925 654.961 679.988Z" fill="white"/>
<path d="M602.728 674.583C605.176 661.139 608.836 636.368 648.656 609.78C648.656 609.78 662.061 650.777 631.828 700.649C622.946 715.301 610.549 729.213 610.549 729.213C610.549 729.213 599.501 699.426 602.728 674.583Z" fill="#FB5472"/>
<path d="M619.004 670.555C623.141 653.346 638.273 633.477 638.273 633.477C638.273 633.477 627.204 652.474 622.173 671.138C617.143 689.803 615.674 702.43 615.674 702.43C615.674 702.43 614.867 687.765 619.004 670.555Z" fill="white"/>
<path d="M616.499 773.686C571.3 793.057 514.327 794.196 476.344 786.6L485.46 734.184L609.663 624.035L616.499 773.686Z" fill="#FFD2D2"/>
<path d="M589.912 782.422C599.028 780.143 607.764 777.104 616.12 773.306L609.283 623.655L583.455 646.824C588.393 692.023 589.912 737.223 589.912 782.422Z" fill="#FFDEDE"/>
<path d="M549.27 789.639C522.303 791.918 496.475 790.398 475.964 786.6L485.08 734.184L561.045 692.024C559.146 717.092 554.968 764.95 549.27 789.639Z" fill="#FCCACA"/>
<path d="M528.38 515.405C488.878 501.352 457.733 510.467 427.347 562.123C396.961 614.159 355.18 658.979 374.931 675.311C395.062 691.264 433.804 737.982 493.056 733.804C581.935 726.967 643.467 557.186 528.38 515.405Z" fill="#FCCACA"/>
<path d="M420.13 695.062C439.501 706.077 464.19 698.86 475.205 679.489L602.066 451.974L501.033 395.76L402.279 644.925C394.682 663.536 402.279 685.186 420.13 695.062Z" fill="#646A89"/>
<path d="M568.262 473.244L606.624 494.515C629.794 507.429 659.42 499.072 672.334 475.903L685.248 453.114C698.162 429.944 689.806 400.318 666.637 387.404L628.274 366.134C605.105 353.22 575.479 361.576 562.565 384.745L549.651 407.535C536.737 430.704 545.093 460.33 568.262 473.244Z" fill="url(#paint1_linear_68_5844)"/>
<path d="M568.262 473.244L606.624 494.515C629.794 507.429 659.42 499.072 672.334 475.903L685.248 453.114C698.162 429.944 689.806 400.318 666.637 387.404L628.274 366.134C605.105 353.22 575.479 361.576 562.565 384.745L549.651 407.535C536.737 430.704 545.093 460.33 568.262 473.244Z" fill="url(#paint2_linear_68_5844)" fill-opacity="0.2"/>
<path d="M465.33 445.897L540.535 487.678C568.262 503.251 603.586 493.375 619.159 465.268L648.785 412.093C664.358 384.366 654.482 349.042 626.375 333.469L551.17 291.689C523.443 276.116 488.119 285.991 472.546 314.098L442.92 367.274C427.347 395.381 437.223 430.704 465.33 445.897Z" fill="url(#paint3_linear_68_5844)"/>
<path d="M465.33 445.897L540.535 487.678C568.262 503.251 603.586 493.375 619.159 465.268L648.785 412.093C664.358 384.366 654.482 349.042 626.375 333.469L551.17 291.689C523.443 276.116 488.119 285.991 472.546 314.098L442.92 367.274C427.347 395.381 437.223 430.704 465.33 445.897Z" fill="url(#paint4_linear_68_5844)" fill-opacity="0.2"/>
<path d="M139.06 420.069C282.634 429.185 362.017 410.953 450.516 459.951C510.528 493.375 614.98 305.742 554.968 272.318C458.872 218.762 433.424 143.937 357.459 28.4702L139.06 420.069Z" fill="url(#paint5_linear_68_5844)"/>
<path d="M139.06 420.069C282.634 429.185 362.017 410.953 450.516 459.951C510.528 493.375 614.98 305.742 554.968 272.318C458.872 218.762 433.424 143.937 357.459 28.4702L139.06 420.069Z" fill="url(#paint6_linear_68_5844)" fill-opacity="0.2"/>
<g filter="url(#filter0_d_68_5844)">
<path d="M185.019 189.136C124.627 297.386 104.116 400.698 139.06 419.689C173.624 439.06 250.729 367.274 311.121 259.024C371.513 150.774 392.023 47.4614 357.08 28.4702C322.516 9.09914 245.411 81.2658 185.019 189.136Z" fill="url(#paint7_linear_68_5844)" fill-opacity="0.991703"/>
</g>
<g filter="url(#filter1_d_68_5844)">
<path d="M178.121 415.367C165.362 422.137 151.851 412.87 152.079 398.428C152.782 354.059 175.254 284.466 215.025 213.065C257.974 135.882 309.338 77.3149 348.013 57.0046C360.793 50.2932 374.294 59.5881 374.067 74.0213C373.371 118.389 350.898 187.993 311.121 259.404C268.219 336.192 216.666 394.913 178.121 415.367Z" fill="url(#paint8_linear_68_5844)" fill-opacity="0.991703"/>
</g>
<path d="M128.805 446.277C175.523 472.105 268.201 394.621 336.189 273.077C404.178 151.533 421.27 31.5088 374.551 5.68078C327.833 -20.1473 235.156 57.3369 167.167 178.881C99.1787 300.804 82.0866 420.449 128.805 446.277ZM185.019 189.136C245.411 80.886 322.136 9.0992 357.08 28.4702C391.644 47.8413 371.133 151.154 311.121 259.024C250.729 367.274 174.004 439.06 139.06 419.689C104.116 400.698 125.007 297.386 185.019 189.136Z" fill="white"/>
<g opacity="0.5">
<path opacity="0.5" d="M179.701 174.703C240.094 66.4526 316.818 -5.33421 351.762 14.0368C359.358 18.2149 364.296 26.571 366.955 38.3456C364.296 34.1675 361.258 30.7491 357.459 28.85C322.895 9.47895 245.791 81.2658 185.399 189.516C138.301 273.837 115.511 355.119 124.247 396.14C104.116 362.716 126.146 270.418 179.701 174.703Z" fill="#6347AD"/>
<path opacity="0.5" d="M123.108 431.844C169.826 457.672 262.503 380.188 330.492 258.644C382.148 165.967 404.558 74.049 391.264 24.292C414.433 68.7315 393.163 170.524 335.809 273.077C267.821 394.621 175.144 472.485 128.425 446.277C117.41 440.2 109.814 428.805 106.016 413.232C110.194 421.588 115.891 427.666 123.108 431.844Z" fill="white"/>
</g>
<path d="M311.121 259.404C297.827 282.953 284.153 304.983 269.72 324.733L208.948 290.929L283.773 156.471L344.545 190.276C335.429 212.305 324.035 235.854 311.121 259.404Z" fill="url(#paint9_linear_68_5844)"/>
<path d="M311.121 259.404C297.827 282.953 284.153 304.983 269.72 324.733L208.948 290.929L283.773 156.471L344.545 190.276C335.429 212.305 324.035 235.854 311.121 259.404Z" fill="url(#paint10_linear_68_5844)" fill-opacity="0.2"/>
<path d="M224.521 211.166C203.631 248.388 196.794 283.712 208.568 290.549C220.343 297.386 246.931 272.317 267.821 235.474C288.711 198.252 295.548 162.928 283.774 156.091C271.619 149.254 245.411 173.943 224.521 211.166Z" fill="#6063C3"/>
<path d="M386.326 633.531C367.715 628.593 348.344 663.537 372.273 677.97C399.24 694.302 423.929 698.86 431.146 700C450.137 702.659 458.493 677.21 439.502 662.397C420.51 647.584 402.279 637.709 386.326 633.531Z" fill="#FFDEDE"/>
<path d="M431.145 699.62C423.928 698.48 399.24 693.922 372.272 677.59C362.397 671.513 359.738 662.017 361.637 653.281C362.777 654.421 364.296 655.56 366.195 656.7C393.162 673.032 417.851 677.59 425.068 678.73C434.943 680.249 441.78 674.172 443.679 665.815C456.973 681.008 448.617 702.279 431.145 699.62Z" fill="#FFD2D2"/>
<path d="M397.72 588.331C375.691 582.634 352.521 623.655 381.008 640.747C412.913 659.738 442.16 665.436 450.516 666.575C472.926 669.994 482.801 639.608 460.391 622.136C438.362 605.044 416.712 593.269 397.72 588.331Z" fill="#FFDEDE"/>
<path d="M450.896 666.575C442.16 665.436 413.294 659.738 381.388 640.747C368.854 633.151 366.196 620.996 369.234 610.361C370.753 616.059 374.931 621.376 381.388 625.174C413.294 644.166 442.54 649.863 450.896 651.002C461.532 652.522 469.128 646.445 472.167 638.088C476.724 653.661 467.229 669.234 450.896 666.575Z" fill="#FFD2D2"/>
<path d="M430.006 536.295C406.457 523.761 369.234 564.402 396.961 591.37C427.727 621.756 459.632 635.809 468.748 639.228C493.057 649.103 512.428 617.578 491.917 591.75C471.407 565.922 450.137 546.931 430.006 536.295Z" fill="#FFDEDE"/>
<path d="M469.128 639.228C459.632 635.43 428.106 621.376 397.341 590.99C387.085 580.735 385.566 568.961 389.364 558.325C390.884 562.504 393.542 566.302 397.341 570.1C428.106 600.486 460.012 614.539 469.128 617.958C482.801 623.275 494.956 616.059 499.134 603.904C506.35 626.694 489.638 647.584 469.128 639.228Z" fill="#FFD2D2"/>
<path d="M468.368 495.654C446.338 484.259 412.154 521.482 437.602 546.93C466.469 575.037 490.777 589.851 499.133 594.029C523.062 606.183 544.333 578.836 525.341 554.907C506.35 530.978 486.979 505.53 468.368 495.654Z" fill="#FFDEDE"/>
<path d="M499.134 594.029C490.778 589.851 466.469 575.038 437.602 546.931C425.068 534.776 426.967 519.963 434.184 508.948C434.184 515.785 436.843 522.622 443.3 528.699C472.166 556.806 496.475 571.619 504.831 575.797C515.846 581.495 526.101 578.456 532.558 571.619C534.457 589.471 517.745 603.525 499.134 594.029Z" fill="#FFD2D2"/>
<path d="M493.816 470.206C471.406 470.206 453.554 514.646 524.961 548.83C523.442 567.821 537.116 580.355 523.822 596.308C503.311 620.996 492.676 635.05 497.234 661.258C501.792 688.605 535.217 706.077 567.502 688.985C600.926 671.513 647.645 587.952 562.944 512.746C554.968 505.91 517.365 486.918 514.326 483.5C503.311 472.105 500.273 470.206 493.816 470.206Z" fill="#FFDEDE"/>
<path d="M567.502 688.985C534.837 706.077 501.412 688.605 497.234 661.258C493.056 634.67 503.691 620.996 523.822 596.308C537.116 579.975 523.822 567.821 524.961 548.83C453.554 514.646 471.406 470.206 493.816 470.206C494.196 470.206 494.955 470.206 495.335 470.206C485.84 485.019 490.777 515.025 542.433 539.714C540.914 558.705 554.588 571.239 541.294 587.192C520.783 611.881 510.148 625.934 514.706 652.142C518.504 677.21 528.76 688.605 567.502 688.985Z" fill="#FFD2D2"/>
<path d="M26.259 456.583C29.433 460.325 35.056 467.469 50.6033 464.649C50.6033 464.649 46.455 447.139 29.0749 439.437C23.9688 437.175 18.0702 436.184 18.0702 436.184C18.0702 436.184 20.7372 449.289 26.259 456.583Z" fill="#FB5472"/>
<path d="M32.0019 452.051C35.5586 456.481 42.6714 460.178 42.6714 460.178C42.6714 460.178 36.8574 456.178 32.8421 451.448C28.8269 446.718 26.672 443.252 26.672 443.252C26.672 443.252 28.4452 447.621 32.0019 452.051Z" fill="white"/>
<path d="M658.329 282.445C654.504 279.17 647.642 272.844 632.401 278.296C632.401 278.296 639.487 295.403 658.319 300.34C663.851 301.79 669.974 301.816 669.974 301.816C669.974 301.816 665.113 288.94 658.329 282.445Z" fill="#1B2B7C"/>
<path d="M653.772 286.765C648.655 282.914 640.475 282 640.475 282C640.475 282 647.55 284.033 653.219 288.024C658.888 292.015 662.299 295.375 662.299 295.375C662.299 295.375 658.889 290.615 653.772 286.765Z" fill="white"/>
<path d="M680.312 247.013C680.17 250.349 679.68 256.517 688.753 262.288C688.753 262.288 694.767 251.621 689.638 239.745C688.131 236.255 685.641 233.036 685.641 233.036C685.641 233.036 680.921 240.817 680.312 247.013Z" fill="#FFDA32"/>
<path d="M685.275 247.401C685.006 251.257 686.854 256.391 686.854 256.391C686.854 256.391 685.795 251.706 685.973 247.487C686.152 243.269 686.675 240.541 686.675 240.541C686.675 240.541 685.544 243.544 685.275 247.401Z" fill="white"/>
<g opacity="0.65">
<path d="M195.55 584.057C193.766 590.397 190.032 602.018 204.881 617.108C204.881 617.108 221.287 599.293 216.792 574.23C215.471 566.866 212.135 559.586 212.135 559.586C212.135 559.586 199.527 572.434 195.55 584.057Z" fill="url(#paint11_linear_68_5844)"/>
<path d="M203.181 587.09C201.425 595.279 204.838 605.49 204.838 605.49C204.838 605.49 203.36 595.975 204.979 587.053C206.599 578.131 208.711 572.236 208.711 572.236C208.711 572.236 204.938 578.9 203.181 587.09Z" fill="white"/>
</g>
<path opacity="0.3" fill-rule="evenodd" clip-rule="evenodd" d="M569.02 135.664C567.26 132.615 563.361 131.57 560.311 133.331C557.262 135.091 556.217 138.99 557.978 142.04C559.738 145.089 563.638 146.134 566.687 144.373C569.736 142.613 570.781 138.714 569.02 135.664ZM573.851 132.875C570.55 127.158 563.24 125.199 557.522 128.5C551.805 131.801 549.846 139.112 553.147 144.829C556.448 150.546 563.759 152.505 569.476 149.204C575.193 145.903 577.152 138.593 573.851 132.875Z" fill="#1B2B7C"/>
<path opacity="0.2" fill-rule="evenodd" clip-rule="evenodd" d="M466.127 38.8327C464.005 35.1582 459.307 33.8992 455.632 36.0207C451.958 38.1422 450.699 42.8408 452.82 46.5153C454.941 50.1898 459.64 51.4488 463.315 49.3273C466.989 47.2058 468.248 42.5072 466.127 38.8327ZM473.028 34.8481C468.706 27.362 459.134 24.7971 451.647 29.1192C444.161 33.4413 441.596 43.0138 445.919 50.4999C450.241 57.986 459.813 60.5509 467.299 56.2288C474.785 51.9067 477.35 42.3343 473.028 34.8481Z" fill="#1B2B7C"/>
<path opacity="0.3" fill-rule="evenodd" clip-rule="evenodd" d="M585.729 53.6509C584.628 51.7451 582.191 51.0922 580.285 52.1925C578.38 53.2928 577.727 55.7297 578.827 57.6355C579.927 59.5413 582.364 60.1943 584.27 59.094C586.176 57.9937 586.829 55.5567 585.729 53.6509ZM589.179 51.6586C586.979 47.847 582.105 46.5411 578.293 48.7417C574.482 50.9423 573.176 55.8162 575.376 59.6278C577.577 63.4394 582.451 64.7453 586.262 62.5447C590.074 60.3441 591.38 55.4702 589.179 51.6586Z" fill="#FB5472"/>
<path opacity="0.3" fill-rule="evenodd" clip-rule="evenodd" d="M20.3242 601.726C23.4061 600.023 24.5241 596.144 22.8214 593.062C21.1186 589.981 17.2399 588.863 14.158 590.565C11.0761 592.268 9.95812 596.147 11.6609 599.229C13.3636 602.311 17.2423 603.429 20.3242 601.726ZM23.022 606.608C28.8005 603.416 30.8968 596.143 27.7041 590.365C24.5114 584.586 17.2388 582.49 11.4603 585.683C5.68175 588.875 3.58548 596.148 6.77815 601.926C9.97082 607.705 17.2434 609.801 23.022 606.608Z" fill="#1B2B7C"/>
<path opacity="0.2" fill-rule="evenodd" clip-rule="evenodd" d="M119.077 500.674C122.79 498.622 124.138 493.948 122.086 490.234C120.034 486.52 115.36 485.173 111.646 487.225C107.932 489.277 106.585 493.951 108.637 497.665C110.689 501.379 115.363 502.726 119.077 500.674ZM122.93 507.649C130.497 503.469 133.241 493.946 129.061 486.38C124.881 478.814 115.358 476.069 107.792 480.25C100.226 484.43 97.4811 493.952 101.661 501.519C105.842 509.085 115.364 511.83 122.93 507.649Z" fill="#1B2B7C"/>
<path opacity="0.3" fill-rule="evenodd" clip-rule="evenodd" d="M102.008 619.975C103.935 618.911 104.633 616.487 103.569 614.561C102.505 612.635 100.081 611.936 98.1545 613C96.2283 614.064 95.5295 616.488 96.5937 618.415C97.658 620.341 100.082 621.04 102.008 619.975ZM103.935 623.463C107.788 621.335 109.185 616.486 107.057 612.634C104.928 608.781 100.08 607.384 96.2275 609.512C92.3752 611.641 90.9776 616.489 93.1061 620.342C95.2345 624.194 100.083 625.591 103.935 623.463Z" fill="#FB5472"/>
<defs>
<filter id="filter0_d_68_5844" x="97.0232" y="15.3262" width="302.094" height="447.52" filterUnits="userSpaceOnUse" color-interpolation-filters="sRGB">
<feFlood flood-opacity="0" result="BackgroundImageFix"/>
<feColorMatrix in="SourceAlpha" type="matrix" values="0 0 0 0 0 0 0 0 0 0 0 0 0 0 0 0 0 0 127 0" result="hardAlpha"/>
<feOffset dy="15"/>
<feGaussianBlur stdDeviation="12.5"/>
<feColorMatrix type="matrix" values="0 0 0 0 0.9 0 0 0 0 0.19875 0 0 0 0 0.36705 0 0 0 0.25 0"/>
<feBlend mode="normal" in2="BackgroundImageFix" result="effect1_dropShadow_68_5844"/>
<feBlend mode="normal" in="SourceGraphic" in2="effect1_dropShadow_68_5844" result="shape"/>
</filter>
<filter id="filter1_d_68_5844" x="127.076" y="44.7815" width="271.994" height="412.844" filterUnits="userSpaceOnUse" color-interpolation-filters="sRGB">
<feFlood flood-opacity="0" result="BackgroundImageFix"/>
<feColorMatrix in="SourceAlpha" type="matrix" values="0 0 0 0 0 0 0 0 0 0 0 0 0 0 0 0 0 0 127 0" result="hardAlpha"/>
<feOffset dy="15"/>
<feGaussianBlur stdDeviation="12.5"/>
<feColorMatrix type="matrix" values="0 0 0 0 0.9 0 0 0 0 0.19875 0 0 0 0 0.36705 0 0 0 0.25 0"/>
<feBlend mode="normal" in2="BackgroundImageFix" result="effect1_dropShadow_68_5844"/>
<feBlend mode="normal" in="SourceGraphic" in2="effect1_dropShadow_68_5844" result="shape"/>
</filter>
<linearGradient id="paint0_linear_68_5844" x1="122.115" y1="123.303" x2="89.6711" y2="140.464" gradientUnits="userSpaceOnUse">
<stop stop-color="#87DFFF"/>
<stop offset="1" stop-color="#3CA5FF"/>
</linearGradient>
<linearGradient id="paint1_linear_68_5844" x1="686" y1="403" x2="617.804" y2="495.262" gradientUnits="userSpaceOnUse">
<stop offset="0.109375" stop-color="#646A89"/>
<stop offset="0.203125" stop-color="#717691"/>
<stop offset="0.322917" stop-color="#646A89"/>
<stop offset="1" stop-color="#646A89"/>
</linearGradient>
<linearGradient id="paint2_linear_68_5844" x1="664" y1="369" x2="617.88" y2="496.656" gradientUnits="userSpaceOnUse">
<stop offset="0.0499763" stop-color="#646A89"/>
<stop offset="0.708333" stop-color="#646A89"/>
<stop offset="0.864583" stop-color="#CBD1F0"/>
<stop offset="1" stop-color="#646A89"/>
</linearGradient>
<linearGradient id="paint3_linear_68_5844" x1="611" y1="324" x2="512" y2="483" gradientUnits="userSpaceOnUse">
<stop offset="0.109375" stop-color="#646A89"/>
<stop offset="0.203125" stop-color="#7D829B"/>
<stop offset="0.322917" stop-color="#646A89"/>
<stop offset="1" stop-color="#646A89"/>
</linearGradient>
<linearGradient id="paint4_linear_68_5844" x1="620" y1="329" x2="545.852" y2="481" gradientUnits="userSpaceOnUse">
<stop stop-color="#646A89"/>
<stop offset="0.708333" stop-color="#646A89"/>
<stop offset="0.864583" stop-color="#CBD1F0"/>
<stop offset="1" stop-color="#646A89"/>
</linearGradient>
<linearGradient id="paint5_linear_68_5844" x1="454" y1="165" x2="380" y2="463.921" gradientUnits="userSpaceOnUse">
<stop stop-color="#1B2B7C"/>
<stop offset="0.677083" stop-color="#1B2B7C"/>
<stop offset="0.838542" stop-color="#3D4B92"/>
<stop offset="1" stop-color="#1B2B7C"/>
</linearGradient>
<linearGradient id="paint6_linear_68_5844" x1="498" y1="178" x2="299" y2="409" gradientUnits="userSpaceOnUse">
<stop offset="0.0677083" stop-color="#1B2B7C"/>
<stop offset="0.203125" stop-color="#BAC5FF"/>
<stop offset="0.34375" stop-color="#1B2B7C"/>
<stop offset="1" stop-color="#1B2B7C"/>
</linearGradient>
<linearGradient id="paint7_linear_68_5844" x1="374.117" y1="25.3262" x2="94.5399" y2="45.6994" gradientUnits="userSpaceOnUse">
<stop stop-color="#FF9AA0"/>
<stop offset="1" stop-color="#F94973"/>
</linearGradient>
<linearGradient id="paint8_linear_68_5844" x1="374.084" y1="49.3606" x2="127.698" y2="66.1792" gradientUnits="userSpaceOnUse">
<stop stop-color="#FF9AA0"/>
<stop offset="1" stop-color="#F94973"/>
<stop offset="1" stop-color="#F94973"/>
</linearGradient>
<linearGradient id="paint9_linear_68_5844" x1="325" y1="178" x2="246" y2="312" gradientUnits="userSpaceOnUse">
<stop stop-color="#1B2B7C"/>
<stop offset="0.723958" stop-color="#1B2B7C"/>
<stop offset="0.859375" stop-color="#5764AB"/>
<stop offset="1" stop-color="#1B2B7C"/>
</linearGradient>
<linearGradient id="paint10_linear_68_5844" x1="325" y1="180" x2="253" y2="318" gradientUnits="userSpaceOnUse">
<stop stop-color="#1B2B7C"/>
<stop offset="0.1875" stop-color="#CBD3FF"/>
<stop offset="0.307292" stop-color="#1B2B7C"/>
<stop offset="1" stop-color="#1B2B7C"/>
</linearGradient>
<linearGradient id="paint11_linear_68_5844" x1="192.076" y1="595.927" x2="222.49" y2="581.857" gradientUnits="userSpaceOnUse">
<stop stop-color="#87DFFF"/>
<stop offset="1" stop-color="#3CA5FF"/>
</linearGradient>
</defs>
</svg>
