<svg width="88" height="56" viewBox="0 0 88 56" fill="none" xmlns="http://www.w3.org/2000/svg">
<path d="M74.697 22.6746C73.7285 27.485 72.2615 36.457 57.2896 41.5078C57.2896 41.5078 52.4527 24.1754 63.9408 9.0292C67.3159 4.57934 71.9998 0.859952 71.9998 0.859952C71.9998 0.859952 76.0028 13.6198 74.697 22.6746Z" fill="#FB5472"/>
<path d="M67.4787 21.485C66.508 27.0827 62.0703 33.7588 62.0703 33.7588C62.0703 33.7588 65.2247 27.4458 66.4517 21.3636C67.6786 15.2814 67.8889 11.2062 67.8889 11.2062C67.8889 11.2062 68.4494 15.8874 67.4787 21.485Z" fill="white"/>
<g opacity="0.65">
<path d="M15.1765 36.3284C17.6692 38.853 22.4567 43.3593 19.3862 54.3416C19.3862 54.3416 7.011 50.2159 2.6018 37.2286C1.30641 33.4131 0.982938 29.1116 0.982938 29.1116C0.982938 29.1116 10.2736 31.8849 15.1765 36.3284Z" fill="url(#paint0_linear_1479_2528)"/>
<path d="M12.3683 39.7462C15.3297 43.1498 16.3804 48.8525 16.3804 48.8525C16.3804 48.8525 14.5987 43.982 11.5112 40.1975C8.42373 36.413 5.89231 34.1838 5.89231 34.1838C5.89231 34.1838 9.40695 36.3426 12.3683 39.7462Z" fill="white"/>
</g>
<defs>
<linearGradient id="paint0_linear_1479_2528" x1="19.9062" y1="41.02" x2="1.90195" y2="42.309" gradientUnits="userSpaceOnUse">
<stop stop-color="#87DFFF"/>
<stop offset="1" stop-color="#3CA5FF"/>
</linearGradient>
</defs>
</svg>
