<svg width="70" height="69" viewBox="0 0 70 69" fill="none" xmlns="http://www.w3.org/2000/svg">
<path d="M26.4956 49.4596C22.6703 46.1842 15.8085 39.8588 0.567641 45.3107C0.567641 45.3107 7.65361 62.4177 26.4855 67.3545C32.0182 68.8049 38.1411 68.8303 38.1411 68.8303C38.1411 68.8303 33.2802 55.9548 26.4956 49.4596Z" fill="#1B2B7C"/>
<path d="M21.9388 53.7794C16.8219 49.9287 8.64185 49.0146 8.64185 49.0146C8.64185 49.0146 15.7171 51.0475 21.3861 55.0384C27.055 59.0294 30.4659 62.3894 30.4659 62.3894C30.4659 62.3894 27.0558 57.6301 21.9388 53.7794Z" fill="white"/>
<path d="M48.4785 14.0276C48.3364 17.3638 47.8472 23.5313 56.9197 29.3031C56.9197 29.3031 62.9339 18.6359 57.8049 6.75922C56.2981 3.26994 53.8075 0.0505573 53.8075 0.0505573C53.8075 0.0505573 49.0877 7.83171 48.4785 14.0276Z" fill="#FFDA32"/>
<path d="M53.4418 14.4152C53.1732 18.2721 55.0203 23.4053 55.0203 23.4053C55.0203 23.4053 53.9621 18.7207 54.1402 14.5019C54.3183 10.2832 54.8419 7.55608 54.8419 7.55608C54.8419 7.55608 53.7104 10.5583 53.4418 14.4152Z" fill="white"/>
</svg>
