<svg width="215" height="86" viewBox="0 0 215 86" fill="none" xmlns="http://www.w3.org/2000/svg">
<path opacity="0.8" fill-rule="evenodd" clip-rule="evenodd" d="M194.384 42.5213C194.384 54.7305 184.487 64.628 172.277 64.628C167.919 64.628 163.855 63.3666 160.43 61.1888L144.709 70.2654C151.78 77.2916 161.522 81.6331 172.277 81.6331C193.878 81.6331 211.389 64.1222 211.389 42.5213C211.389 20.9205 193.878 3.40955 172.277 3.40955C161.522 3.40955 151.78 7.7511 144.709 14.7773L160.43 23.8539C163.855 21.6761 167.919 20.4147 172.277 20.4147C184.487 20.4147 194.384 30.3122 194.384 42.5213Z" fill="#1B2B7C"/>
<path fill-rule="evenodd" clip-rule="evenodd" d="M202.887 42.5214C202.887 59.4264 189.182 73.1306 172.277 73.1306C164.699 73.1306 157.764 70.3765 152.418 65.8146L141.666 72.0222C149.399 80.0441 160.255 85.0342 172.277 85.0342C195.757 85.0342 214.79 66.0006 214.79 42.5214C214.79 19.0422 195.757 0.00854492 172.277 0.00854492C160.255 0.00854492 149.399 4.99862 141.666 13.0205L152.418 19.2281C157.764 14.6662 164.699 11.9121 172.277 11.9121C189.182 11.9121 202.887 25.6164 202.887 42.5214Z" fill="#FB5472"/>
<path d="M31.0582 29.8764C31.0582 30.5566 30.7181 30.9783 30.0379 31.1416L29.793 31.1824C29.7114 31.1824 29.6161 31.196 29.5073 31.2232C29.4257 31.2504 29.3168 31.2776 29.1808 31.3048L27.9972 31.5089V56.9758H25.1404C24.7595 56.9758 24.4058 56.9077 24.0793 56.7717C23.8072 56.6629 23.5215 56.418 23.2222 56.0371L7.79515 36.4064C7.84957 37.0049 7.87678 37.4267 7.87678 37.6715L7.91759 38.8551V52.9354L10.5704 53.3027C11.2506 53.4659 11.5907 53.8876 11.5907 54.5678V56.9758H0V54.5678C0 53.8876 0.340103 53.4659 1.02031 53.3027L1.26518 53.2619L1.87737 53.1394L3.10174 52.9354V31.5089L1.87737 31.3048C1.74133 31.2776 1.61889 31.2504 1.51006 31.2232C1.42843 31.196 1.34681 31.1824 1.26518 31.1824L1.02031 31.1416C0.340103 30.9783 0 30.5566 0 29.8764V27.4685H5.9586L6.57078 27.5093C6.76124 27.5093 6.91088 27.5501 7.01972 27.6317C7.12855 27.6589 7.25099 27.7405 7.38703 27.8766L7.79515 28.3663L23.3038 48.0787L23.1814 46.6911C23.1542 46.3918 23.1406 45.9564 23.1406 45.3851V31.5089L20.4878 31.1416C19.8076 30.9783 19.4675 30.5566 19.4675 29.8764V27.4685H31.0582V29.8764Z" fill="#1B2B7C"/>
<path d="M55.5822 53.3027C56.2624 53.4659 56.6025 53.8876 56.6025 54.5678V56.9758H50.4399C49.8141 56.9758 49.3924 56.6629 49.1747 56.0371L48.8074 54.3638C48.3448 54.8263 47.8959 55.2344 47.4606 55.5882C47.0525 55.9147 46.5627 56.2139 45.9913 56.486C45.4472 56.7309 44.8758 56.935 44.2772 57.0982C43.597 57.2342 42.9576 57.3023 42.359 57.3023C41.2435 57.3023 40.2232 57.1118 39.2981 56.7309C38.5091 56.4044 37.7745 55.8466 37.0942 55.0576C36.5501 54.4318 36.1011 53.602 35.7474 52.568C35.4482 51.5341 35.2985 50.4594 35.2985 49.3439V40.0795L33.2171 39.7122C32.5369 39.5489 32.1968 39.1272 32.1968 38.447V36.0391H40.3184V49.3439C40.3184 50.5954 40.6177 51.5885 41.2163 52.3232C41.7877 53.0034 42.6719 53.3435 43.8691 53.3435C44.6853 53.3435 45.5016 53.153 46.3178 52.7721C47.0525 52.4184 47.7735 51.8878 48.4809 51.1804V40.0795C47.7191 39.9434 47.2157 39.8618 46.9708 39.8346C46.726 39.7802 46.5491 39.7394 46.4403 39.7122C45.7601 39.5489 45.42 39.1272 45.42 38.447V36.0391H53.5416V52.9354L55.5822 53.3027Z" fill="#1B2B7C"/>
<path d="M92.7166 53.3027C93.3969 53.4659 93.737 53.8876 93.737 54.5678V56.9758H85.6153V43.671C85.6153 42.3105 85.3296 41.3038 84.7582 40.6508C84.1869 39.9706 83.3298 39.6305 82.1871 39.6305C81.7245 39.6305 81.2348 39.7258 80.7178 39.9162C80.2825 40.0795 79.9016 40.3243 79.5751 40.6508C79.303 40.9229 79.0445 41.3447 78.7997 41.916C78.6092 42.3786 78.514 42.9635 78.514 43.671V52.9354L79.6975 53.1394L80.3097 53.2619L80.5546 53.3027C81.2348 53.4659 81.5749 53.8876 81.5749 54.5678V56.9758H73.4532V43.671C73.4532 42.2833 73.1675 41.263 72.5962 40.61C72.0248 39.957 71.195 39.6305 70.1066 39.6305C69.372 39.6305 68.6918 39.8074 68.066 40.1611C67.4946 40.4876 66.9097 40.9909 66.3111 41.6711V52.9354L67.4946 53.1394L68.1068 53.2619L68.3517 53.3027C69.0319 53.4659 69.372 53.8876 69.372 54.5678V56.9758H58.1894V54.5678C58.1894 53.8876 58.5295 53.4659 59.2097 53.3027L59.4546 53.2619C59.5362 53.2619 59.6179 53.2482 59.6995 53.221C59.8083 53.1938 59.9308 53.1666 60.0668 53.1394L61.2504 52.9354V40.0795L60.0668 39.8754C59.9308 39.8482 59.8083 39.821 59.6995 39.7938C59.6179 39.7666 59.5362 39.753 59.4546 39.753L59.2097 39.7122C58.5023 39.5489 58.1486 39.1272 58.1486 38.447V36.0391H64.3521C64.9779 36.0391 65.3996 36.3519 65.6173 36.9777L65.9438 38.5286C66.4335 37.9844 66.8144 37.6035 67.0865 37.3859C67.4674 37.0866 67.9028 36.8009 68.3925 36.5288C68.8278 36.2839 69.3176 36.0799 69.8618 35.9166C70.2971 35.7806 70.8685 35.7126 71.5759 35.7126C72.9363 35.7126 74.0246 36.0663 74.8409 36.7737C75.7115 37.5355 76.3509 38.4878 76.759 39.6305C77.0855 38.9231 77.4937 38.3245 77.9834 37.8348C78.4187 37.3995 78.9493 37.0049 79.5751 36.6512C80.0376 36.3792 80.6634 36.1479 81.4524 35.9574C82.1054 35.7942 82.772 35.7126 83.4523 35.7126C84.6222 35.7126 85.6425 35.8894 86.5132 36.2431C87.4655 36.624 88.2273 37.141 88.7987 37.794C89.3972 38.4742 89.8598 39.304 90.1863 40.2835C90.5128 41.263 90.676 42.3922 90.676 43.671V52.9354L91.8596 53.1394C91.9956 53.1666 92.1045 53.1938 92.1861 53.221C92.2949 53.2482 92.3901 53.2619 92.4718 53.2619L92.7166 53.3027Z" fill="#1B2B7C"/>
<path d="M105.212 35.7126C106.545 35.7126 107.756 35.9166 108.844 36.3247C109.878 36.7057 110.83 37.3314 111.701 38.2021C112.49 38.9911 113.116 39.9842 113.578 41.1814C114.041 42.4058 114.272 43.739 114.272 45.181C114.272 45.5075 114.245 45.834 114.19 46.1605C114.136 46.4598 114.081 46.6503 114.027 46.7319C113.973 46.8679 113.85 46.9768 113.66 47.0584C113.551 47.1128 113.36 47.14 113.088 47.14H100.151C100.314 49.2895 100.899 50.8675 101.906 51.8742C102.912 52.8809 104.246 53.3843 105.905 53.3843C106.749 53.3843 107.443 53.2891 107.987 53.0986C108.585 52.9081 109.102 52.6905 109.538 52.4456C109.728 52.3368 109.919 52.2415 110.109 52.1599C110.327 52.0511 110.531 51.9423 110.721 51.8334C111.021 51.643 111.333 51.5477 111.66 51.5477C111.878 51.5477 112.068 51.5885 112.231 51.6702C112.367 51.7246 112.49 51.8334 112.599 51.9967L114.068 53.8332C113.442 54.5406 112.816 55.0984 112.19 55.5065C111.456 55.9691 110.735 56.3228 110.027 56.5676C109.347 56.7853 108.572 56.9622 107.701 57.0982C107.021 57.207 106.259 57.2615 105.416 57.2615C103.919 57.2615 102.572 57.0302 101.375 56.5676C100.178 56.1051 99.0897 55.3841 98.1102 54.4046C97.1852 53.4795 96.4506 52.3096 95.9064 50.8947C95.3894 49.5343 95.131 47.9154 95.131 46.0381C95.131 44.6777 95.3622 43.3445 95.8248 42.0385C96.2601 40.8141 96.9267 39.7122 97.8246 38.7327C98.668 37.8076 99.7155 37.073 100.967 36.5288C102.219 35.9846 103.634 35.7126 105.212 35.7126ZM105.293 39.304C103.851 39.304 102.708 39.7258 101.865 40.5692C101.049 41.3855 100.518 42.5554 100.273 44.0791H109.742C109.742 43.5077 109.647 42.8955 109.456 42.2425C109.293 41.7256 109.021 41.2222 108.64 40.7325C108.286 40.2971 107.824 39.957 107.252 39.7122C106.626 39.4401 105.973 39.304 105.293 39.304Z" fill="#1B2B7C"/>
<path d="M141.087 53.3027C141.767 53.4659 142.107 53.8876 142.107 54.5678V56.9758H136.597C136.08 56.9758 135.672 56.8805 135.373 56.6901C135.074 56.4996 134.801 56.2275 134.557 55.8738L128.353 46.4054C128.135 46.0789 127.877 45.834 127.578 45.6708C127.278 45.5075 126.87 45.4259 126.353 45.4259H124.272V52.9354L125.496 53.1394C125.632 53.1666 125.741 53.1938 125.823 53.221C125.932 53.2482 126.027 53.2619 126.108 53.2619L126.353 53.3027C127.034 53.4659 127.374 53.8876 127.374 54.5678V56.9758H115.701V54.5678C115.701 53.8876 116.041 53.4659 116.722 53.3027L116.966 53.2619L117.579 53.1394L118.803 52.9354V31.5089L117.579 31.3048C117.443 31.2776 117.32 31.2504 117.211 31.2232C117.13 31.196 117.048 31.1824 116.966 31.1824L116.722 31.1416C116.041 30.9783 115.701 30.5566 115.701 29.8764V27.4685H127.496C129.509 27.4685 131.237 27.6725 132.679 28.0807C134.067 28.4888 135.237 29.0738 136.189 29.8356C137.141 30.6246 137.822 31.5225 138.23 32.5292C138.665 33.5631 138.883 34.7058 138.883 35.9574C138.883 36.8825 138.733 37.8212 138.434 38.7735C138.189 39.5625 137.767 40.3652 137.169 41.1814C136.679 41.8616 135.999 42.4874 135.128 43.0588C134.285 43.6029 133.359 44.0383 132.353 44.3648C133.06 44.7729 133.659 45.3443 134.148 46.0789L138.801 52.9354L140.066 53.1394C140.202 53.1666 140.325 53.1938 140.434 53.221C140.57 53.2482 140.678 53.2619 140.76 53.2619L141.087 53.3027ZM130.108 41.0998C130.87 40.8549 131.509 40.5012 132.026 40.0387C132.489 39.6033 132.856 39.0592 133.128 38.4062C133.373 37.7804 133.495 37.1002 133.495 36.3656C133.495 34.8691 133.006 33.7128 132.026 32.8965C131.074 32.1075 129.564 31.7129 127.496 31.7129H124.272V41.5079H127.414C128.34 41.5079 129.237 41.3719 130.108 41.0998Z" fill="#1B2B7C"/>
<path d="M154.047 31.1824C153.966 31.1824 153.87 31.196 153.762 31.2232C153.68 31.2504 153.571 31.2776 153.435 31.3048L152.252 31.5089V52.9354L153.435 53.1394C153.571 53.1666 153.68 53.1938 153.762 53.221C153.87 53.2482 153.966 53.2619 154.047 53.2619L154.292 53.3027C154.972 53.4659 155.313 53.8876 155.313 54.5678V56.9758H143.64V54.5678C143.64 53.8876 143.98 53.4659 144.661 53.3027L144.905 53.2619L145.518 53.1394L146.742 52.9354V31.5089L145.518 31.3048C145.382 31.2776 145.259 31.2504 145.15 31.2232C145.069 31.196 144.987 31.1824 144.905 31.1824L144.661 31.1416C143.98 30.9783 143.64 30.5566 143.64 29.8764V27.4685H155.313V29.8764C155.313 30.5566 154.972 30.9783 154.292 31.1416L154.047 31.1824Z" fill="#1B2B7C"/>
<path d="M186.623 42.2017C186.623 45.113 185.983 47.7114 184.704 49.9969C183.453 52.2824 181.684 54.0781 179.399 55.3841C177.141 56.6629 174.569 57.3023 171.685 57.3023C168.801 57.3023 166.216 56.6629 163.931 55.3841C161.673 54.1053 159.904 52.3232 158.625 50.0377C157.347 47.7522 156.707 45.1402 156.707 42.2017C156.707 39.2632 157.347 36.6512 158.625 34.3657C159.904 32.0803 161.673 30.3117 163.931 29.0601C166.216 27.7814 168.801 27.142 171.685 27.142C174.597 27.142 177.181 27.795 179.44 29.101C181.725 30.407 183.494 32.2027 184.745 34.4882C185.997 36.7737 186.623 39.3448 186.623 42.2017ZM180.99 42.2017C180.99 39.0728 180.174 36.5696 178.542 34.6922C176.936 32.7877 174.651 31.8354 171.685 31.8354C168.665 31.8354 166.339 32.7877 164.706 34.6922C163.101 36.5968 162.298 39.1 162.298 42.2017C162.298 45.3579 163.115 47.8882 164.747 49.7928C166.38 51.6702 168.692 52.6089 171.685 52.6089C174.678 52.6089 176.977 51.6566 178.583 49.752C180.188 47.8474 180.99 45.3307 180.99 42.2017Z" fill="#1B2B7C"/>
</svg>
