<svg width="1920" height="1208" viewBox="0 0 1920 1208" fill="none" xmlns="http://www.w3.org/2000/svg">
<g filter="url(#filter0_d_68_5840)">
<path d="M573.126 742.794C576.961 782.65 547.761 818.07 507.904 821.905C468.047 825.74 432.628 796.54 428.793 756.683C424.957 716.826 454.158 681.407 494.015 677.572C533.871 673.736 569.291 702.937 573.126 742.794Z" fill="url(#paint0_linear_68_5840)"/>
</g>
<g filter="url(#filter1_d_68_5840)">
<path d="M167.826 714.875C171.661 754.732 142.46 790.151 102.604 793.986C62.7472 797.822 27.3279 768.621 23.4925 728.764C19.6571 688.908 48.858 653.488 88.7145 649.653C128.571 645.818 163.99 675.018 167.826 714.875Z" fill="url(#paint1_linear_68_5840)"/>
</g>
<g filter="url(#filter2_d_68_5840)">
<path fill-rule="evenodd" clip-rule="evenodd" d="M400.803 1028.65C383.233 1036.51 364.107 1041.69 343.889 1043.64C243.835 1053.26 154.92 979.959 145.292 879.905C135.664 779.852 208.968 690.937 309.022 681.309C401.353 672.424 484.199 734.164 504.004 822.376C575.035 818.219 637.2 870.99 644.074 942.416C651.11 1015.53 597.541 1080.51 524.425 1087.54C473.81 1092.41 427.096 1068.24 400.803 1028.65Z" fill="white"/>
</g>
<g filter="url(#filter3_d_68_5840)">
<path d="M267.036 770.484C270.58 807.317 243.595 840.049 206.762 843.594C169.929 847.138 137.196 820.152 133.652 783.319C130.107 746.487 157.093 713.754 193.926 710.21C230.759 706.665 263.491 733.651 267.036 770.484Z" fill="url(#paint2_linear_68_5840)"/>
</g>
<g filter="url(#filter4_d_68_5840)">
<path d="M1079.9 757.821C1083.44 794.653 1056.45 827.386 1019.62 830.93C982.789 834.475 950.056 807.489 946.512 770.656C942.967 733.823 969.953 701.091 1006.79 697.546C1043.62 694.002 1076.35 720.988 1079.9 757.821Z" fill="url(#paint3_linear_68_5840)"/>
</g>
<g filter="url(#filter5_d_68_5840)">
<path d="M1443.53 825.299C1449.19 884.122 1406.1 936.396 1347.27 942.056C1288.45 947.717 1236.18 904.62 1230.52 845.798C1224.85 786.975 1267.95 734.701 1326.77 729.04C1385.6 723.38 1437.87 766.476 1443.53 825.299Z" fill="url(#paint4_linear_68_5840)"/>
</g>
<g filter="url(#filter6_d_68_5840)">
<path d="M1309.82 766.838C1313.65 806.695 1284.45 842.114 1244.59 845.95C1204.74 849.785 1169.32 820.584 1165.48 780.728C1161.65 740.871 1190.85 705.452 1230.71 701.616C1270.56 697.781 1305.98 726.982 1309.82 766.838Z" fill="url(#paint5_linear_68_5840)"/>
</g>
<g filter="url(#filter7_d_68_5840)">
<path d="M1491.31 700.649C1494.86 737.482 1467.87 770.214 1431.04 773.759C1394.2 777.303 1361.47 750.318 1357.93 713.485C1354.38 676.652 1381.37 643.919 1418.2 640.375C1455.03 636.83 1487.77 663.816 1491.31 700.649Z" fill="url(#paint6_linear_68_5840)"/>
</g>
<g filter="url(#filter8_d_68_5840)">
<path d="M1676.58 809.403C1684.3 889.665 1625.5 960.993 1545.24 968.716C1464.97 976.44 1393.65 917.635 1385.92 837.373C1378.2 757.11 1437 685.783 1517.27 678.059C1597.53 670.335 1668.86 729.14 1676.58 809.403Z" fill="white"/>
</g>
<g filter="url(#filter9_d_68_5840)">
<path d="M751.974 845.728C759.01 918.844 705.441 983.82 632.325 990.856C559.209 997.892 494.233 944.323 487.197 871.207C480.161 798.091 533.73 733.115 606.846 726.079C679.962 719.043 744.938 772.611 751.974 845.728Z" fill="white"/>
</g>
<g filter="url(#filter10_d_68_5840)">
<path d="M807.38 790.659C811.216 830.516 782.015 865.935 742.158 869.771C702.302 873.606 666.882 844.405 663.047 804.549C659.212 764.692 688.412 729.273 728.269 725.437C768.125 721.602 803.545 750.803 807.38 790.659Z" fill="url(#paint7_linear_68_5840)"/>
</g>
<g filter="url(#filter11_d_68_5840)">
<path d="M1029.66 833.48C1035.32 892.303 992.226 944.577 933.403 950.237C874.581 955.898 822.307 912.802 816.646 853.979C810.985 795.156 854.082 742.882 912.905 737.222C971.727 731.561 1024 774.657 1029.66 833.48Z" fill="url(#paint8_linear_68_5840)"/>
</g>
<g filter="url(#filter12_d_68_5840)">
<path fill-rule="evenodd" clip-rule="evenodd" d="M1344.6 884.172C1354.95 991.647 1276.2 1087.16 1168.73 1097.5C1080.48 1105.99 1000.3 1054.42 968.711 976.203C949.741 1026.78 903.319 1064.83 845.926 1070.35C765.663 1078.07 694.336 1019.27 686.612 939.005C678.889 858.743 737.693 787.415 817.956 779.692C871.29 774.559 920.679 798.803 950.082 839.198C955.829 834.033 962.495 829.834 969.844 826.886C996.903 762.911 1057.28 715.418 1131.28 708.298C1238.75 697.955 1334.26 776.697 1344.6 884.172Z" fill="white"/>
</g>
<g filter="url(#filter13_d_68_5840)">
<path d="M695.976 739.596C698.159 762.273 681.544 782.425 658.867 784.607C636.19 786.79 616.038 770.175 613.856 747.498C611.674 724.821 628.288 704.669 650.965 702.487C673.642 700.304 693.794 716.919 695.976 739.596Z" fill="url(#paint9_linear_68_5840)"/>
</g>
<g filter="url(#filter14_d_68_5840)">
<path d="M1938.96 299.676C1941.14 322.353 1924.53 342.505 1901.85 344.687C1879.17 346.87 1859.02 330.255 1856.84 307.578C1854.66 284.901 1871.27 264.749 1893.95 262.567C1916.63 260.385 1936.78 276.999 1938.96 299.676Z" fill="url(#paint10_linear_68_5840)"/>
</g>
<g filter="url(#filter15_d_68_5840)">
<path d="M1590.81 581.068C1593 603.745 1576.38 623.897 1553.71 626.08C1531.03 628.262 1510.88 611.648 1508.69 588.971C1506.51 566.294 1523.13 546.141 1545.8 543.959C1568.48 541.777 1588.63 558.391 1590.81 581.068Z" fill="url(#paint11_linear_68_5840)"/>
</g>
<g filter="url(#filter16_d_68_5840)">
<path d="M350.082 677.358C352.265 700.035 335.65 720.187 312.973 722.369C290.296 724.552 270.144 707.937 267.962 685.26C265.78 662.583 282.394 642.431 305.071 640.249C327.748 638.066 347.9 654.681 350.082 677.358Z" fill="url(#paint12_linear_68_5840)"/>
</g>
<g filter="url(#filter17_d_68_5840)">
<path d="M2016.21 590.865C2023.17 663.157 1970.2 727.4 1897.91 734.357C1825.62 741.314 1761.37 688.349 1754.42 616.058C1747.46 543.766 1800.43 479.523 1872.72 472.566C1945.01 465.61 2009.25 518.574 2016.21 590.865Z" fill="url(#paint13_linear_68_5840)"/>
</g>
<g filter="url(#filter18_d_68_5840)">
<path d="M1642.06 659.52C1645.61 696.353 1618.62 729.085 1581.79 732.629C1544.96 736.174 1512.23 709.188 1508.68 672.355C1505.14 635.522 1532.12 602.79 1568.95 599.245C1605.79 595.701 1638.52 622.687 1642.06 659.52Z" fill="url(#paint14_linear_68_5840)"/>
</g>
<g filter="url(#filter19_d_68_5840)">
<path d="M1809.64 631.339C1815.35 690.711 1771.85 743.474 1712.48 749.187C1653.11 754.901 1600.34 711.401 1594.63 652.029C1588.92 592.656 1632.41 539.894 1691.79 534.18C1751.16 528.467 1803.92 571.966 1809.64 631.339Z" fill="white"/>
</g>
<g filter="url(#filter20_d_68_5840)">
<path d="M1888.86 640.291C1892.4 677.124 1865.42 709.857 1828.58 713.401C1791.75 716.946 1759.02 689.96 1755.47 653.127C1751.93 616.294 1778.91 583.562 1815.75 580.017C1852.58 576.473 1885.31 603.458 1888.86 640.291Z" fill="url(#paint15_linear_68_5840)"/>
</g>
<g filter="url(#filter21_d_68_5840)">
<path d="M2042.83 429.071C2048.55 488.444 2005.05 541.206 1945.68 546.92C1886.3 552.633 1833.54 509.134 1827.83 449.761C1822.11 390.389 1865.61 337.626 1924.98 331.913C1984.36 326.199 2037.12 369.699 2042.83 429.071Z" fill="url(#paint16_linear_68_5840)"/>
</g>
<g filter="url(#filter22_d_68_5840)">
<path fill-rule="evenodd" clip-rule="evenodd" d="M1852.76 963.258C1933.91 955.448 1993.37 883.329 1985.56 802.175C1977.75 721.021 1905.63 661.563 1824.48 669.373C1794.98 672.211 1768.35 683.546 1746.77 700.722C1726.59 693.622 1704.57 690.694 1681.87 692.879C1598.31 700.92 1537.09 775.178 1545.13 858.74C1553.17 942.301 1627.43 1003.52 1710.99 995.481C1744.23 992.282 1773.93 978.605 1797.15 958.033C1814.68 963.169 1833.46 965.115 1852.76 963.258Z" fill="white"/>
</g>
<g filter="url(#filter23_d_68_5840)">
<path fill-rule="evenodd" clip-rule="evenodd" d="M69.1701 660.438C69.7098 666.047 69.0997 671.501 67.5325 676.567C91.4241 684.937 109.523 706.557 112.107 733.411C112.447 736.941 112.506 740.434 112.303 743.868C115.825 743.244 119.398 742.755 123.019 742.407C196.96 735.291 262.669 789.464 269.784 863.405C276.9 937.346 222.727 1003.05 148.786 1010.17C74.8455 1017.29 9.13653 963.112 2.0212 889.172C-1.01114 857.66 7.08765 827.644 23.1039 803.021C-0.69142 794.602 -18.6994 773.027 -21.2765 746.246C-23.266 725.572 -15.6372 706.19 -2.04746 692.537C-8.04199 686.123 -12.0447 677.754 -12.9506 668.34C-15.1328 645.663 1.48152 625.511 24.1585 623.329C46.8355 621.147 66.9879 637.761 69.1701 660.438Z" fill="white"/>
</g>
<g clip-path="url(#clip0_68_5840)">
<path d="M1288.98 551.703L1320.7 618.282C1321.67 620.325 1324.47 620.595 1325.82 618.776L1350.7 585.167C1354.31 580.565 1356.76 575.161 1357.84 569.413L1367.59 505.843C1369.83 492.201 1359.78 482.087 1342.17 480.063L1288.98 551.703Z" fill="url(#paint17_linear_68_5840)"/>
<path d="M1162.83 458.314L1089.89 447.411C1087.66 447.077 1086.58 444.478 1087.93 442.659L1112.81 409.05C1116.15 404.253 1120.61 400.332 1125.79 397.621L1183.74 369.736C1196.14 363.615 1208.75 370.273 1215.82 386.524L1162.83 458.314Z" fill="url(#paint18_linear_68_5840)"/>
<path d="M1161.41 654.132C1138.03 685.71 1063.49 758.617 1047.14 746.509C1030.78 734.4 1078.65 641.909 1102.11 610.23C1122.68 582.438 1141.09 585.564 1157.37 597.616C1173.64 609.668 1181.98 626.34 1161.41 654.132Z" fill="url(#paint19_linear_68_5840)" style="mix-blend-mode:screen"/>
<path d="M1160.09 652.567C1137.28 683.382 1064.13 755.945 1048.74 744.552C1033.35 733.158 1081.4 642.018 1104.22 611.203C1124.3 584.071 1141.7 586.805 1157.09 598.199C1172.48 609.593 1180.17 625.435 1160.09 652.567Z" fill="url(#paint20_linear_68_5840)" style="mix-blend-mode:screen"/>
<path d="M1158.8 651.02C1136.55 681.073 1064.67 753.357 1050.07 742.546C1035.47 731.735 1083.65 641.909 1105.89 611.856C1125.49 585.385 1142.07 587.789 1156.7 598.619C1171.33 609.449 1178.39 624.549 1158.8 651.02Z" fill="url(#paint21_linear_68_5840)" style="mix-blend-mode:screen"/>
<path d="M1157.5 649.473C1135.8 678.79 1065.22 750.812 1051.48 740.64C1037.74 730.469 1086 641.919 1107.7 612.603C1126.81 586.792 1142.57 588.823 1156.33 599.013C1170.1 609.204 1176.61 623.663 1157.5 649.473Z" fill="url(#paint22_linear_68_5840)" style="mix-blend-mode:screen"/>
<path d="M1156.23 647.901C1135.07 676.481 1065.79 748.242 1052.91 738.71C1040.03 729.177 1088.44 641.96 1109.6 613.381C1128.22 588.231 1143.14 589.912 1156.01 599.445C1168.89 608.977 1174.85 622.751 1156.23 647.901Z" fill="url(#paint23_linear_68_5840)" style="mix-blend-mode:screen"/>
<path d="M1155.01 646.411C1134.33 674.355 1066.43 745.729 1054.44 736.854C1042.45 727.98 1091 642.007 1111.56 614.241C1129.69 589.751 1143.86 590.957 1155.87 599.85C1167.88 608.743 1173.14 621.921 1155.01 646.411Z" fill="url(#paint24_linear_68_5840)" style="mix-blend-mode:screen"/>
<path d="M1153.62 644.789C1133.57 671.869 1066.89 743.083 1055.77 734.848C1044.64 726.613 1093.27 642.031 1113.31 614.95C1130.96 591.121 1144.22 592.055 1155.37 600.309C1166.52 608.563 1171.26 620.96 1153.62 644.789Z" fill="url(#paint25_linear_68_5840)" style="mix-blend-mode:screen"/>
<path d="M1152.33 643.242C1132.84 669.561 1067.41 740.52 1057.18 732.943C1046.94 725.366 1095.69 642.054 1115.17 615.735C1132.32 592.567 1144.79 593.145 1155.05 600.741C1165.31 608.337 1169.48 620.074 1152.33 643.242Z" fill="url(#paint26_linear_68_5840)" style="mix-blend-mode:screen"/>
<path d="M1151.01 641.676C1132.07 667.258 1067.95 737.931 1058.61 731.012C1049.26 724.093 1098.04 642.222 1117.05 616.538C1133.72 594.03 1145.36 594.234 1154.73 601.172C1164.1 608.11 1167.67 619.168 1151.01 641.676Z" fill="url(#paint27_linear_68_5840)" style="mix-blend-mode:screen"/>
<path d="M1149.72 640.13C1131.34 664.949 1068.52 735.361 1060.04 729.082C1051.56 722.802 1100.54 642.143 1118.91 617.323C1135.08 595.476 1145.89 595.331 1154.39 601.63C1162.9 607.928 1165.89 618.282 1149.72 640.13Z" fill="url(#paint28_linear_68_5840)" style="mix-blend-mode:screen"/>
<path d="M1148.42 638.583C1130.61 662.64 1069.09 732.791 1061.47 727.151C1053.85 721.51 1103.06 642.24 1120.87 618.183C1136.55 596.996 1146.53 596.477 1154.18 602.137C1161.82 607.796 1164.11 617.396 1148.42 638.583Z" fill="url(#paint29_linear_68_5840)" style="mix-blend-mode:screen"/>
<path d="M1147.01 637.144C1129.75 660.465 1069.54 730.374 1062.78 725.373C1056.03 720.371 1105.38 642.232 1122.56 619.038C1137.75 598.512 1146.82 597.677 1153.6 602.697C1160.39 607.717 1162.3 616.491 1147.01 637.144Z" fill="url(#paint30_linear_68_5840)" style="mix-blend-mode:screen"/>
<path d="M1190.94 607.763L1137.96 568.542L1132.32 576.163L1132.17 576.366C1125.85 584.902 1132.6 600.637 1147.28 611.504C1161.96 622.372 1178.95 624.217 1185.27 615.681L1185.42 615.478L1190.94 607.763Z" fill="#646A89"/>
<path d="M1277.01 568.606L1150.16 474.691L1122.25 512.39C1122.12 512.568 1122 512.721 1121.87 512.898C1106.83 533.222 1122.9 570.882 1158 596.866C1193.1 622.85 1233.75 627.307 1248.86 606.908C1248.99 606.73 1249.1 606.577 1249.23 606.4L1277.01 568.606Z" fill="#1B2B7C"/>
<g style="mix-blend-mode:multiply" opacity="0.5">
<path d="M1276.04 569.927L1149.18 476.012L1126.93 506.065C1126.82 506.217 1126.72 506.344 1126.63 506.471C1114.57 522.755 1133.21 556.96 1168.31 582.944C1203.4 608.929 1241.56 616.764 1253.61 600.48C1253.71 600.353 1253.8 600.226 1253.91 600.074L1276.04 569.927Z" fill="#C7BCD6"/>
</g>
<path d="M1405.12 470.345C1451.76 421.567 1479.01 357.451 1481.76 290.023C1481.85 287.177 1481.9 284.345 1481.92 281.526L1482.55 185.533C1482.64 171.981 1469.51 162.266 1456.57 166.315L1365.02 194.981C1362.31 195.807 1359.62 196.684 1356.94 197.611C1293.23 219.898 1239.83 264.651 1206.74 323.484L1129.22 459.426C1129.05 459.654 1128.88 459.883 1128.71 460.112C1108.64 487.218 1130.09 537.113 1176.64 571.577C1223.2 606.041 1277.15 611.968 1297.22 584.862C1297.39 584.633 1297.56 584.405 1297.73 584.176L1405.12 470.345Z" fill="url(#paint31_linear_68_5840)"/>
<path d="M1481.87 281.488L1482.63 171.836C1482.68 165.058 1476.11 160.198 1469.65 162.223L1365.02 194.981C1363.85 195.318 1363.06 196.458 1363.14 197.672C1364.46 218.102 1380.27 243.204 1405.82 262.117C1431.35 281.018 1459.98 288.837 1479.86 284.121C1481.05 283.839 1481.89 282.709 1481.87 281.488Z" fill="url(#paint32_linear_68_5840)"/>
<path opacity="0.3" d="M1481.87 281.488L1482.63 171.836C1482.68 165.058 1476.11 160.198 1469.65 162.223L1365.02 194.981C1363.85 195.318 1363.06 196.458 1363.14 197.672C1364.46 218.102 1380.27 243.204 1405.82 262.117C1431.35 281.018 1459.98 288.837 1479.86 284.121C1481.05 283.839 1481.89 282.709 1481.87 281.488Z" fill="#1B2B7C"/>
<path style="mix-blend-mode:multiply" opacity="0.5" d="M1405.12 470.345C1451.76 421.567 1479.01 357.451 1481.76 290.023C1481.85 287.177 1481.9 284.345 1481.92 281.526L1482.64 171.83C1482.68 165.054 1476.12 160.196 1469.65 162.221L1365.02 194.981C1362.31 195.807 1359.62 196.684 1356.94 197.611C1293.23 219.898 1239.83 264.651 1206.74 323.484L1129.22 459.426C1129.05 459.654 1128.88 459.883 1128.71 460.112C1108.64 487.218 1130.09 537.113 1176.64 571.577C1223.2 606.041 1277.15 611.968 1297.22 584.862C1297.39 584.633 1297.56 584.405 1297.73 584.176L1405.12 470.345Z" fill="url(#paint33_radial_68_5840)"/>
<path style="mix-blend-mode:color-dodge" opacity="0.7" d="M1396.97 356.756C1430.08 277.045 1452.72 173.861 1463.8 176.205C1483.2 180.38 1487.93 300.761 1454.85 380.491C1425.7 450.663 1299.86 585.913 1281.7 578.368C1263.54 570.822 1367.79 426.98 1396.97 356.756Z" fill="url(#paint34_radial_68_5840)"/>
<path d="M1268.72 420.492C1260.09 432.153 1249.96 437.438 1240.48 436.595L1230.95 435.871C1221.35 434.662 1231.99 429.164 1226.25 415.674C1214.32 388.284 1219 346.756 1236.66 322.902C1245.39 311.115 1234.57 302.947 1244.16 303.954L1255.09 305.44C1264.58 306.802 1273.36 314.325 1279.21 327.777C1290.98 355.212 1286.3 396.739 1268.72 420.492Z" fill="#1B2B7C"/>
<path d="M1227.79 433.638C1248.6 435.948 1268.72 408.608 1272.73 372.574C1276.74 336.539 1263.12 305.455 1242.3 303.145C1221.49 300.836 1201.37 328.175 1197.37 364.21C1193.36 400.245 1206.98 431.329 1227.79 433.638Z" fill="#8492D7"/>
<path d="M1230.64 423.199C1247.62 425.043 1263.99 402.68 1267.19 373.249C1270.4 343.818 1259.22 318.465 1242.24 316.621C1225.25 314.777 1208.88 337.14 1205.68 366.57C1202.48 396.001 1213.65 421.354 1230.64 423.199Z" fill="#FFDA32"/>
<path d="M1254.73 395.783C1243.94 410.365 1229.31 408.619 1222.04 391.876C1214.78 375.134 1217.75 349.881 1228.54 335.299C1239.34 320.717 1253.84 322.369 1261.11 339.112C1268.37 355.855 1265.51 381.227 1254.73 395.783Z" fill="url(#paint35_linear_68_5840)"/>
<path d="M1218.37 406.817C1208.71 384.603 1212.57 350.925 1226.92 331.542C1233.52 322.625 1241.13 318.462 1248.46 318.383C1239.1 313.772 1228.02 317.369 1218.97 329.589C1204.64 348.946 1200.83 382.662 1210.44 404.839C1215.67 416.847 1223.71 423.035 1232.26 423.158C1225.85 419.527 1220.92 413.737 1218.37 406.817Z" fill="#1B2B7C"/>
<path d="M1270.22 326.589C1264.53 313.452 1253.89 306.162 1247.49 304.925C1256.86 309.21 1264.2 316.97 1267.96 326.565C1279.85 353.936 1275.2 395.482 1257.54 419.337C1248.36 431.734 1236.19 436.331 1226.17 434.574C1235.88 437.395 1249.3 433.492 1259.78 419.342C1277.44 395.487 1282.12 353.959 1270.22 326.589Z" fill="url(#paint36_radial_68_5840)" style="mix-blend-mode:color-dodge"/>

<path d="M1125.29 510.355L1017.9 562.523L1012.87 550.576L1039.52 514.579C1043.69 509.119 1048.69 504.34 1054.33 500.414L1129.63 447.027C1145.99 435.545 1166.99 429.382 1183.87 431.335L1188.72 442.79L1125.29 510.355Z" fill="url(#paint38_linear_68_5840)"/>
<path d="M1130.32 522.301L1017.95 562.56L1044.6 526.563C1048.78 521.098 1053.78 516.324 1059.44 512.417L1134.68 458.904C1150.91 447.328 1172.02 441.284 1188.89 443.193L1130.32 522.301Z" fill="url(#paint39_linear_68_5840)"/>
<path d="M1044.63 528.074C1048.8 522.609 1053.8 517.835 1059.46 513.927L1134.71 460.503C1150.18 449.495 1170.16 443.483 1186.63 444.592L1188.21 442.458C1171.36 440.523 1150.2 446.644 1134 458.169L1058.75 511.593C1053.1 515.507 1048.1 520.287 1043.94 525.758L1017.29 561.756L1020.57 560.565L1044.63 528.074Z" fill="url(#paint40_radial_68_5840)"/>
<path d="M1250.19 602.822L1231.62 720.74L1244.51 722.068L1271.16 686.071C1275.17 680.484 1278.28 674.31 1280.39 667.769L1309.52 580.201C1315.72 561.198 1315.49 539.316 1308.72 523.765L1296.32 522.453L1250.19 602.822Z" fill="url(#paint41_linear_68_5840)"/>
<path d="M1237.27 601.476L1231.57 720.703L1258.22 684.705C1262.22 679.119 1265.33 672.937 1267.41 666.385L1296.63 578.804C1302.84 559.801 1302.58 537.944 1295.83 522.368L1237.27 601.476Z" fill="url(#paint42_linear_68_5840)"/>
<path d="M1268.68 667.281L1297.83 579.687C1304.03 560.685 1303.75 538.809 1297 523.232L1296.63 523.74C1301.92 540.911 1301.69 559.312 1295.97 576.349L1266.82 663.898C1264.73 670.448 1261.62 676.63 1257.62 682.218L1233.06 715.396L1232.77 721.631L1259.43 685.608C1263.44 680.012 1266.56 673.83 1268.68 667.281Z" fill="url(#paint43_radial_68_5840)"/>
</g>
<path d="M1553.66 336.266C1552.69 341.077 1551.22 350.049 1536.25 355.099C1536.25 355.099 1531.42 337.767 1542.9 322.621C1546.28 318.171 1550.96 314.452 1550.96 314.452C1550.96 314.452 1554.97 327.211 1553.66 336.266Z" fill="#FB5472"/>
<path d="M1546.44 335.077C1545.47 340.674 1541.03 347.35 1541.03 347.35C1541.03 347.35 1544.19 341.037 1545.42 334.955C1546.64 328.873 1546.85 324.798 1546.85 324.798C1546.85 324.798 1547.41 329.479 1546.44 335.077Z" fill="white"/>
<path d="M982.997 464.445C986.822 461.17 993.684 454.844 1008.92 460.296C1008.92 460.296 1001.84 477.403 983.007 482.34C977.474 483.79 971.351 483.816 971.351 483.816C971.351 483.816 976.212 470.94 982.997 464.445Z" fill="#1B2B7C"/>
<path d="M987.553 468.765C992.67 464.914 1000.85 464 1000.85 464C1000.85 464 993.775 466.033 988.106 470.024C982.437 474.015 979.026 477.375 979.026 477.375C979.026 477.375 982.436 472.615 987.553 468.765Z" fill="white"/>
<path d="M961.014 429.013C961.156 432.349 961.645 438.517 952.572 444.288C952.572 444.288 946.558 433.621 951.687 421.745C953.194 418.255 955.685 415.036 955.685 415.036C955.685 415.036 960.404 422.817 961.014 429.013Z" fill="#FFDA32"/>
<path d="M956.05 429.401C956.319 433.257 954.472 438.391 954.472 438.391C954.472 438.391 955.53 433.706 955.352 429.487C955.174 425.269 954.65 422.541 954.65 422.541C954.65 422.541 955.782 425.544 956.05 429.401Z" fill="white"/>
<g opacity="0.65">
<path d="M1467.13 530.771C1471.76 535.458 1480.64 543.824 1474.94 564.213C1474.94 564.213 1451.97 556.553 1443.78 532.442C1441.38 525.358 1440.78 517.372 1440.78 517.372C1440.78 517.372 1458.03 522.521 1467.13 530.771Z" fill="url(#paint44_linear_68_5840)"/>
<path d="M1461.92 537.116C1467.41 543.435 1469.36 554.022 1469.36 554.022C1469.36 554.022 1466.06 544.98 1460.32 537.954C1454.59 530.928 1449.89 526.789 1449.89 526.789C1449.89 526.789 1456.42 530.797 1461.92 537.116Z" fill="white"/>
</g>
<path opacity="0.3" fill-rule="evenodd" clip-rule="evenodd" d="M1072.31 317.664C1074.07 314.615 1077.96 313.57 1081.01 315.331C1084.06 317.091 1085.11 320.99 1083.35 324.04C1081.59 327.089 1077.69 328.134 1074.64 326.373C1071.59 324.613 1070.54 320.714 1072.31 317.664ZM1067.47 314.875C1070.77 309.158 1078.09 307.199 1083.8 310.5C1089.52 313.801 1091.48 321.111 1088.18 326.829C1084.88 332.546 1077.57 334.505 1071.85 331.204C1066.13 327.903 1064.17 320.592 1067.47 314.875Z" fill="#1B2B7C"/>
<path opacity="0.2" fill-rule="evenodd" clip-rule="evenodd" d="M1175.2 220.833C1177.32 217.158 1182.02 215.899 1185.69 218.021C1189.37 220.142 1190.63 224.841 1188.51 228.515C1186.38 232.19 1181.69 233.449 1178.01 231.327C1174.34 229.206 1173.08 224.507 1175.2 220.833ZM1168.3 216.848C1172.62 209.362 1182.19 206.797 1189.68 211.119C1197.16 215.441 1199.73 225.014 1195.41 232.5C1191.08 239.986 1181.51 242.551 1174.03 238.229C1166.54 233.907 1163.98 224.334 1168.3 216.848Z" fill="#1B2B7C"/>
<path opacity="0.3" fill-rule="evenodd" clip-rule="evenodd" d="M1055.6 235.651C1056.7 233.745 1059.13 233.092 1061.04 234.192C1062.95 235.293 1063.6 237.73 1062.5 239.635C1061.4 241.541 1058.96 242.194 1057.06 241.094C1055.15 239.994 1054.5 237.557 1055.6 235.651ZM1052.15 233.659C1054.35 229.847 1059.22 228.541 1063.03 230.742C1066.84 232.942 1068.15 237.816 1065.95 241.628C1063.75 245.439 1058.87 246.745 1055.06 244.545C1051.25 242.344 1049.95 237.47 1052.15 233.659Z" fill="#FB5472"/>
<path opacity="0.3" fill-rule="evenodd" clip-rule="evenodd" d="M1629.05 460.438C1625.53 460.438 1622.67 457.584 1622.67 454.063C1622.67 450.542 1625.53 447.687 1629.05 447.687C1632.57 447.687 1635.42 450.542 1635.42 454.063C1635.42 457.584 1632.57 460.438 1629.05 460.438ZM1629.05 466.016C1622.44 466.016 1617.09 460.664 1617.09 454.063C1617.09 447.461 1622.44 442.109 1629.05 442.109C1635.65 442.109 1641 447.461 1641 454.063C1641 460.664 1635.65 466.016 1629.05 466.016Z" fill="#1B2B7C"/>
<path opacity="0.2" fill-rule="evenodd" clip-rule="evenodd" d="M1493.74 419.745C1489.5 419.745 1486.06 416.306 1486.06 412.063C1486.06 407.82 1489.5 404.38 1493.74 404.38C1497.98 404.38 1501.42 407.82 1501.42 412.063C1501.42 416.306 1497.98 419.745 1493.74 419.745ZM1493.74 427.714C1485.1 427.714 1478.09 420.707 1478.09 412.063C1478.09 403.418 1485.1 396.411 1493.74 396.411C1502.39 396.411 1509.39 403.418 1509.39 412.063C1509.39 420.707 1502.39 427.714 1493.74 427.714Z" fill="#1B2B7C"/>
<path opacity="0.3" fill-rule="evenodd" clip-rule="evenodd" d="M1566.37 515.914C1564.17 515.914 1562.39 514.13 1562.39 511.93C1562.39 509.729 1564.17 507.945 1566.37 507.945C1568.58 507.945 1570.36 509.729 1570.36 511.93C1570.36 514.13 1568.58 515.914 1566.37 515.914ZM1566.37 519.899C1561.97 519.899 1558.41 516.331 1558.41 511.93C1558.41 507.528 1561.97 503.96 1566.37 503.96C1570.78 503.96 1574.34 507.528 1574.34 511.93C1574.34 516.331 1570.78 519.899 1566.37 519.899Z" fill="#FB5472"/>
<defs>
<filter id="filter0_d_68_5840" x="398.454" y="643.233" width="205.01" height="205.01" filterUnits="userSpaceOnUse" color-interpolation-filters="sRGB">
<feFlood flood-opacity="0" result="BackgroundImageFix"/>
<feColorMatrix in="SourceAlpha" type="matrix" values="0 0 0 0 0 0 0 0 0 0 0 0 0 0 0 0 0 0 127 0" result="hardAlpha"/>
<feOffset dy="-4"/>
<feGaussianBlur stdDeviation="15"/>
<feColorMatrix type="matrix" values="0 0 0 0 0.23934 0 0 0 0 0.363077 0 0 0 0 0.508333 0 0 0 0.05 0"/>
<feBlend mode="normal" in2="BackgroundImageFix" result="effect1_dropShadow_68_5840"/>
<feBlend mode="normal" in="SourceGraphic" in2="effect1_dropShadow_68_5840" result="shape"/>
</filter>
<filter id="filter1_d_68_5840" x="-6.84595" y="615.315" width="205.01" height="205.01" filterUnits="userSpaceOnUse" color-interpolation-filters="sRGB">
<feFlood flood-opacity="0" result="BackgroundImageFix"/>
<feColorMatrix in="SourceAlpha" type="matrix" values="0 0 0 0 0 0 0 0 0 0 0 0 0 0 0 0 0 0 127 0" result="hardAlpha"/>
<feOffset dy="-4"/>
<feGaussianBlur stdDeviation="15"/>
<feColorMatrix type="matrix" values="0 0 0 0 0.23934 0 0 0 0 0.363077 0 0 0 0 0.508333 0 0 0 0.05 0"/>
<feBlend mode="normal" in2="BackgroundImageFix" result="effect1_dropShadow_68_5840"/>
<feBlend mode="normal" in="SourceGraphic" in2="effect1_dropShadow_68_5840" result="shape"/>
</filter>
<filter id="filter2_d_68_5840" x="114.443" y="646.459" width="560.252" height="467.706" filterUnits="userSpaceOnUse" color-interpolation-filters="sRGB">
<feFlood flood-opacity="0" result="BackgroundImageFix"/>
<feColorMatrix in="SourceAlpha" type="matrix" values="0 0 0 0 0 0 0 0 0 0 0 0 0 0 0 0 0 0 127 0" result="hardAlpha"/>
<feOffset dy="-4"/>
<feGaussianBlur stdDeviation="15"/>
<feColorMatrix type="matrix" values="0 0 0 0 0.23934 0 0 0 0 0.363077 0 0 0 0 0.508333 0 0 0 0.05 0"/>
<feBlend mode="normal" in2="BackgroundImageFix" result="effect1_dropShadow_68_5840"/>
<feBlend mode="normal" in="SourceGraphic" in2="effect1_dropShadow_68_5840" result="shape"/>
</filter>
<filter id="filter3_d_68_5840" x="103.339" y="675.897" width="194.01" height="194.009" filterUnits="userSpaceOnUse" color-interpolation-filters="sRGB">
<feFlood flood-opacity="0" result="BackgroundImageFix"/>
<feColorMatrix in="SourceAlpha" type="matrix" values="0 0 0 0 0 0 0 0 0 0 0 0 0 0 0 0 0 0 127 0" result="hardAlpha"/>
<feOffset dy="-4"/>
<feGaussianBlur stdDeviation="15"/>
<feColorMatrix type="matrix" values="0 0 0 0 0.23934 0 0 0 0 0.363077 0 0 0 0 0.508333 0 0 0 0.05 0"/>
<feBlend mode="normal" in2="BackgroundImageFix" result="effect1_dropShadow_68_5840"/>
<feBlend mode="normal" in="SourceGraphic" in2="effect1_dropShadow_68_5840" result="shape"/>
</filter>
<filter id="filter4_d_68_5840" x="916.199" y="663.234" width="194.01" height="194.009" filterUnits="userSpaceOnUse" color-interpolation-filters="sRGB">
<feFlood flood-opacity="0" result="BackgroundImageFix"/>
<feColorMatrix in="SourceAlpha" type="matrix" values="0 0 0 0 0 0 0 0 0 0 0 0 0 0 0 0 0 0 127 0" result="hardAlpha"/>
<feOffset dy="-4"/>
<feGaussianBlur stdDeviation="15"/>
<feColorMatrix type="matrix" values="0 0 0 0 0.23934 0 0 0 0 0.363077 0 0 0 0 0.508333 0 0 0 0.05 0"/>
<feBlend mode="normal" in2="BackgroundImageFix" result="effect1_dropShadow_68_5840"/>
<feBlend mode="normal" in="SourceGraphic" in2="effect1_dropShadow_68_5840" result="shape"/>
</filter>
<filter id="filter5_d_68_5840" x="1200.02" y="694.541" width="274.015" height="274.015" filterUnits="userSpaceOnUse" color-interpolation-filters="sRGB">
<feFlood flood-opacity="0" result="BackgroundImageFix"/>
<feColorMatrix in="SourceAlpha" type="matrix" values="0 0 0 0 0 0 0 0 0 0 0 0 0 0 0 0 0 0 127 0" result="hardAlpha"/>
<feOffset dy="-4"/>
<feGaussianBlur stdDeviation="15"/>
<feColorMatrix type="matrix" values="0 0 0 0 0.23934 0 0 0 0 0.363077 0 0 0 0 0.508333 0 0 0 0.05 0"/>
<feBlend mode="normal" in2="BackgroundImageFix" result="effect1_dropShadow_68_5840"/>
<feBlend mode="normal" in="SourceGraphic" in2="effect1_dropShadow_68_5840" result="shape"/>
</filter>
<filter id="filter6_d_68_5840" x="1135.15" y="667.278" width="205.01" height="205.01" filterUnits="userSpaceOnUse" color-interpolation-filters="sRGB">
<feFlood flood-opacity="0" result="BackgroundImageFix"/>
<feColorMatrix in="SourceAlpha" type="matrix" values="0 0 0 0 0 0 0 0 0 0 0 0 0 0 0 0 0 0 127 0" result="hardAlpha"/>
<feOffset dy="-4"/>
<feGaussianBlur stdDeviation="15"/>
<feColorMatrix type="matrix" values="0 0 0 0 0.23934 0 0 0 0 0.363077 0 0 0 0 0.508333 0 0 0 0.05 0"/>
<feBlend mode="normal" in2="BackgroundImageFix" result="effect1_dropShadow_68_5840"/>
<feBlend mode="normal" in="SourceGraphic" in2="effect1_dropShadow_68_5840" result="shape"/>
</filter>
<filter id="filter7_d_68_5840" x="1327.61" y="606.062" width="194.01" height="194.009" filterUnits="userSpaceOnUse" color-interpolation-filters="sRGB">
<feFlood flood-opacity="0" result="BackgroundImageFix"/>
<feColorMatrix in="SourceAlpha" type="matrix" values="0 0 0 0 0 0 0 0 0 0 0 0 0 0 0 0 0 0 127 0" result="hardAlpha"/>
<feOffset dy="-4"/>
<feGaussianBlur stdDeviation="15"/>
<feColorMatrix type="matrix" values="0 0 0 0 0.23934 0 0 0 0 0.363077 0 0 0 0 0.508333 0 0 0 0.05 0"/>
<feBlend mode="normal" in2="BackgroundImageFix" result="effect1_dropShadow_68_5840"/>
<feBlend mode="normal" in="SourceGraphic" in2="effect1_dropShadow_68_5840" result="shape"/>
</filter>
<filter id="filter8_d_68_5840" x="1355.24" y="643.377" width="352.021" height="352.021" filterUnits="userSpaceOnUse" color-interpolation-filters="sRGB">
<feFlood flood-opacity="0" result="BackgroundImageFix"/>
<feColorMatrix in="SourceAlpha" type="matrix" values="0 0 0 0 0 0 0 0 0 0 0 0 0 0 0 0 0 0 127 0" result="hardAlpha"/>
<feOffset dy="-4"/>
<feGaussianBlur stdDeviation="15"/>
<feColorMatrix type="matrix" values="0 0 0 0 0.23934 0 0 0 0 0.363077 0 0 0 0 0.508333 0 0 0 0.05 0"/>
<feBlend mode="normal" in2="BackgroundImageFix" result="effect1_dropShadow_68_5840"/>
<feBlend mode="normal" in="SourceGraphic" in2="effect1_dropShadow_68_5840" result="shape"/>
</filter>
<filter id="filter9_d_68_5840" x="456.576" y="691.458" width="326.019" height="326.019" filterUnits="userSpaceOnUse" color-interpolation-filters="sRGB">
<feFlood flood-opacity="0" result="BackgroundImageFix"/>
<feColorMatrix in="SourceAlpha" type="matrix" values="0 0 0 0 0 0 0 0 0 0 0 0 0 0 0 0 0 0 127 0" result="hardAlpha"/>
<feOffset dy="-4"/>
<feGaussianBlur stdDeviation="15"/>
<feColorMatrix type="matrix" values="0 0 0 0 0.23934 0 0 0 0 0.363077 0 0 0 0 0.508333 0 0 0 0.05 0"/>
<feBlend mode="normal" in2="BackgroundImageFix" result="effect1_dropShadow_68_5840"/>
<feBlend mode="normal" in="SourceGraphic" in2="effect1_dropShadow_68_5840" result="shape"/>
</filter>
<filter id="filter10_d_68_5840" x="632.708" y="691.099" width="205.01" height="205.01" filterUnits="userSpaceOnUse" color-interpolation-filters="sRGB">
<feFlood flood-opacity="0" result="BackgroundImageFix"/>
<feColorMatrix in="SourceAlpha" type="matrix" values="0 0 0 0 0 0 0 0 0 0 0 0 0 0 0 0 0 0 127 0" result="hardAlpha"/>
<feOffset dy="-4"/>
<feGaussianBlur stdDeviation="15"/>
<feColorMatrix type="matrix" values="0 0 0 0 0.23934 0 0 0 0 0.363077 0 0 0 0 0.508333 0 0 0 0.05 0"/>
<feBlend mode="normal" in2="BackgroundImageFix" result="effect1_dropShadow_68_5840"/>
<feBlend mode="normal" in="SourceGraphic" in2="effect1_dropShadow_68_5840" result="shape"/>
</filter>
<filter id="filter11_d_68_5840" x="786.146" y="702.722" width="274.015" height="274.015" filterUnits="userSpaceOnUse" color-interpolation-filters="sRGB">
<feFlood flood-opacity="0" result="BackgroundImageFix"/>
<feColorMatrix in="SourceAlpha" type="matrix" values="0 0 0 0 0 0 0 0 0 0 0 0 0 0 0 0 0 0 127 0" result="hardAlpha"/>
<feOffset dy="-4"/>
<feGaussianBlur stdDeviation="15"/>
<feColorMatrix type="matrix" values="0 0 0 0 0.23934 0 0 0 0 0.363077 0 0 0 0 0.508333 0 0 0 0.05 0"/>
<feBlend mode="normal" in2="BackgroundImageFix" result="effect1_dropShadow_68_5840"/>
<feBlend mode="normal" in="SourceGraphic" in2="effect1_dropShadow_68_5840" result="shape"/>
</filter>
<filter id="filter12_d_68_5840" x="655.931" y="673.385" width="719.586" height="451.027" filterUnits="userSpaceOnUse" color-interpolation-filters="sRGB">
<feFlood flood-opacity="0" result="BackgroundImageFix"/>
<feColorMatrix in="SourceAlpha" type="matrix" values="0 0 0 0 0 0 0 0 0 0 0 0 0 0 0 0 0 0 127 0" result="hardAlpha"/>
<feOffset dy="-4"/>
<feGaussianBlur stdDeviation="15"/>
<feColorMatrix type="matrix" values="0 0 0 0 0.23934 0 0 0 0 0.363077 0 0 0 0 0.508333 0 0 0 0.05 0"/>
<feBlend mode="normal" in2="BackgroundImageFix" result="effect1_dropShadow_68_5840"/>
<feBlend mode="normal" in="SourceGraphic" in2="effect1_dropShadow_68_5840" result="shape"/>
</filter>
<filter id="filter13_d_68_5840" x="583.663" y="668.294" width="142.506" height="142.506" filterUnits="userSpaceOnUse" color-interpolation-filters="sRGB">
<feFlood flood-opacity="0" result="BackgroundImageFix"/>
<feColorMatrix in="SourceAlpha" type="matrix" values="0 0 0 0 0 0 0 0 0 0 0 0 0 0 0 0 0 0 127 0" result="hardAlpha"/>
<feOffset dy="-4"/>
<feGaussianBlur stdDeviation="15"/>
<feColorMatrix type="matrix" values="0 0 0 0 0.23934 0 0 0 0 0.363077 0 0 0 0 0.508333 0 0 0 0.05 0"/>
<feBlend mode="normal" in2="BackgroundImageFix" result="effect1_dropShadow_68_5840"/>
<feBlend mode="normal" in="SourceGraphic" in2="effect1_dropShadow_68_5840" result="shape"/>
</filter>
<filter id="filter14_d_68_5840" x="1826.65" y="228.374" width="142.506" height="142.506" filterUnits="userSpaceOnUse" color-interpolation-filters="sRGB">
<feFlood flood-opacity="0" result="BackgroundImageFix"/>
<feColorMatrix in="SourceAlpha" type="matrix" values="0 0 0 0 0 0 0 0 0 0 0 0 0 0 0 0 0 0 127 0" result="hardAlpha"/>
<feOffset dy="-4"/>
<feGaussianBlur stdDeviation="15"/>
<feColorMatrix type="matrix" values="0 0 0 0 0.23934 0 0 0 0 0.363077 0 0 0 0 0.508333 0 0 0 0.05 0"/>
<feBlend mode="normal" in2="BackgroundImageFix" result="effect1_dropShadow_68_5840"/>
<feBlend mode="normal" in="SourceGraphic" in2="effect1_dropShadow_68_5840" result="shape"/>
</filter>
<filter id="filter15_d_68_5840" x="1478.5" y="509.766" width="142.506" height="142.506" filterUnits="userSpaceOnUse" color-interpolation-filters="sRGB">
<feFlood flood-opacity="0" result="BackgroundImageFix"/>
<feColorMatrix in="SourceAlpha" type="matrix" values="0 0 0 0 0 0 0 0 0 0 0 0 0 0 0 0 0 0 127 0" result="hardAlpha"/>
<feOffset dy="-4"/>
<feGaussianBlur stdDeviation="15"/>
<feColorMatrix type="matrix" values="0 0 0 0 0.23934 0 0 0 0 0.363077 0 0 0 0 0.508333 0 0 0 0.05 0"/>
<feBlend mode="normal" in2="BackgroundImageFix" result="effect1_dropShadow_68_5840"/>
<feBlend mode="normal" in="SourceGraphic" in2="effect1_dropShadow_68_5840" result="shape"/>
</filter>
<filter id="filter16_d_68_5840" x="237.769" y="606.056" width="142.506" height="142.506" filterUnits="userSpaceOnUse" color-interpolation-filters="sRGB">
<feFlood flood-opacity="0" result="BackgroundImageFix"/>
<feColorMatrix in="SourceAlpha" type="matrix" values="0 0 0 0 0 0 0 0 0 0 0 0 0 0 0 0 0 0 127 0" result="hardAlpha"/>
<feOffset dy="-4"/>
<feGaussianBlur stdDeviation="15"/>
<feColorMatrix type="matrix" values="0 0 0 0 0.23934 0 0 0 0 0.363077 0 0 0 0 0.508333 0 0 0 0.05 0"/>
<feBlend mode="normal" in2="BackgroundImageFix" result="effect1_dropShadow_68_5840"/>
<feBlend mode="normal" in="SourceGraphic" in2="effect1_dropShadow_68_5840" result="shape"/>
</filter>
<filter id="filter17_d_68_5840" x="1723.8" y="437.952" width="323.019" height="323.018" filterUnits="userSpaceOnUse" color-interpolation-filters="sRGB">
<feFlood flood-opacity="0" result="BackgroundImageFix"/>
<feColorMatrix in="SourceAlpha" type="matrix" values="0 0 0 0 0 0 0 0 0 0 0 0 0 0 0 0 0 0 127 0" result="hardAlpha"/>
<feOffset dy="-4"/>
<feGaussianBlur stdDeviation="15"/>
<feColorMatrix type="matrix" values="0 0 0 0 0.23934 0 0 0 0 0.363077 0 0 0 0 0.508333 0 0 0 0.05 0"/>
<feBlend mode="normal" in2="BackgroundImageFix" result="effect1_dropShadow_68_5840"/>
<feBlend mode="normal" in="SourceGraphic" in2="effect1_dropShadow_68_5840" result="shape"/>
</filter>
<filter id="filter18_d_68_5840" x="1478.37" y="564.933" width="194.01" height="194.009" filterUnits="userSpaceOnUse" color-interpolation-filters="sRGB">
<feFlood flood-opacity="0" result="BackgroundImageFix"/>
<feColorMatrix in="SourceAlpha" type="matrix" values="0 0 0 0 0 0 0 0 0 0 0 0 0 0 0 0 0 0 127 0" result="hardAlpha"/>
<feOffset dy="-4"/>
<feGaussianBlur stdDeviation="15"/>
<feColorMatrix type="matrix" values="0 0 0 0 0.23934 0 0 0 0 0.363077 0 0 0 0 0.508333 0 0 0 0.05 0"/>
<feBlend mode="normal" in2="BackgroundImageFix" result="effect1_dropShadow_68_5840"/>
<feBlend mode="normal" in="SourceGraphic" in2="effect1_dropShadow_68_5840" result="shape"/>
</filter>
<filter id="filter19_d_68_5840" x="1564.12" y="499.676" width="276.015" height="276.015" filterUnits="userSpaceOnUse" color-interpolation-filters="sRGB">
<feFlood flood-opacity="0" result="BackgroundImageFix"/>
<feColorMatrix in="SourceAlpha" type="matrix" values="0 0 0 0 0 0 0 0 0 0 0 0 0 0 0 0 0 0 127 0" result="hardAlpha"/>
<feOffset dy="-4"/>
<feGaussianBlur stdDeviation="15"/>
<feColorMatrix type="matrix" values="0 0 0 0 0.23934 0 0 0 0 0.363077 0 0 0 0 0.508333 0 0 0 0.05 0"/>
<feBlend mode="normal" in2="BackgroundImageFix" result="effect1_dropShadow_68_5840"/>
<feBlend mode="normal" in="SourceGraphic" in2="effect1_dropShadow_68_5840" result="shape"/>
</filter>
<filter id="filter20_d_68_5840" x="1725.16" y="545.704" width="194.01" height="194.009" filterUnits="userSpaceOnUse" color-interpolation-filters="sRGB">
<feFlood flood-opacity="0" result="BackgroundImageFix"/>
<feColorMatrix in="SourceAlpha" type="matrix" values="0 0 0 0 0 0 0 0 0 0 0 0 0 0 0 0 0 0 127 0" result="hardAlpha"/>
<feOffset dy="-4"/>
<feGaussianBlur stdDeviation="15"/>
<feColorMatrix type="matrix" values="0 0 0 0 0.23934 0 0 0 0 0.363077 0 0 0 0 0.508333 0 0 0 0.05 0"/>
<feBlend mode="normal" in2="BackgroundImageFix" result="effect1_dropShadow_68_5840"/>
<feBlend mode="normal" in="SourceGraphic" in2="effect1_dropShadow_68_5840" result="shape"/>
</filter>
<filter id="filter21_d_68_5840" x="1797.32" y="297.409" width="276.015" height="276.015" filterUnits="userSpaceOnUse" color-interpolation-filters="sRGB">
<feFlood flood-opacity="0" result="BackgroundImageFix"/>
<feColorMatrix in="SourceAlpha" type="matrix" values="0 0 0 0 0 0 0 0 0 0 0 0 0 0 0 0 0 0 127 0" result="hardAlpha"/>
<feOffset dy="-4"/>
<feGaussianBlur stdDeviation="15"/>
<feColorMatrix type="matrix" values="0 0 0 0 0.23934 0 0 0 0 0.363077 0 0 0 0 0.508333 0 0 0 0.05 0"/>
<feBlend mode="normal" in2="BackgroundImageFix" result="effect1_dropShadow_68_5840"/>
<feBlend mode="normal" in="SourceGraphic" in2="effect1_dropShadow_68_5840" result="shape"/>
</filter>
<filter id="filter22_d_68_5840" x="1514.42" y="634.684" width="501.833" height="387.507" filterUnits="userSpaceOnUse" color-interpolation-filters="sRGB">
<feFlood flood-opacity="0" result="BackgroundImageFix"/>
<feColorMatrix in="SourceAlpha" type="matrix" values="0 0 0 0 0 0 0 0 0 0 0 0 0 0 0 0 0 0 127 0" result="hardAlpha"/>
<feOffset dy="-4"/>
<feGaussianBlur stdDeviation="15"/>
<feColorMatrix type="matrix" values="0 0 0 0 0.23934 0 0 0 0 0.363077 0 0 0 0 0.508333 0 0 0 0.05 0"/>
<feBlend mode="normal" in2="BackgroundImageFix" result="effect1_dropShadow_68_5840"/>
<feBlend mode="normal" in="SourceGraphic" in2="effect1_dropShadow_68_5840" result="shape"/>
</filter>
<filter id="filter23_d_68_5840" x="-51.5894" y="589.136" width="352.001" height="447.661" filterUnits="userSpaceOnUse" color-interpolation-filters="sRGB">
<feFlood flood-opacity="0" result="BackgroundImageFix"/>
<feColorMatrix in="SourceAlpha" type="matrix" values="0 0 0 0 0 0 0 0 0 0 0 0 0 0 0 0 0 0 127 0" result="hardAlpha"/>
<feOffset dy="-4"/>
<feGaussianBlur stdDeviation="15"/>
<feColorMatrix type="matrix" values="0 0 0 0 0.23934 0 0 0 0 0.363077 0 0 0 0 0.508333 0 0 0 0.05 0"/>
<feBlend mode="normal" in2="BackgroundImageFix" result="effect1_dropShadow_68_5840"/>
<feBlend mode="normal" in="SourceGraphic" in2="effect1_dropShadow_68_5840" result="shape"/>
</filter>
<linearGradient id="paint0_linear_68_5840" x1="580.071" y1="814.96" x2="421.848" y2="684.516" gradientUnits="userSpaceOnUse">
<stop offset="0.15625" stop-color="#E2F4FE"/>
<stop offset="0.848958" stop-color="white"/>
</linearGradient>
<linearGradient id="paint1_linear_68_5840" x1="174.77" y1="787.042" x2="16.5479" y2="656.598" gradientUnits="userSpaceOnUse">
<stop offset="0.15625" stop-color="#E2F4FE"/>
<stop offset="0.848958" stop-color="white"/>
</linearGradient>
<linearGradient id="paint2_linear_68_5840" x1="273.454" y1="837.176" x2="127.234" y2="716.628" gradientUnits="userSpaceOnUse">
<stop offset="0.15625" stop-color="#E2F4FE"/>
<stop offset="0.848958" stop-color="white"/>
</linearGradient>
<linearGradient id="paint3_linear_68_5840" x1="1086.31" y1="824.512" x2="940.094" y2="703.964" gradientUnits="userSpaceOnUse">
<stop offset="0.15625" stop-color="#E2F4FE"/>
<stop offset="0.848958" stop-color="white"/>
</linearGradient>
<linearGradient id="paint4_linear_68_5840" x1="1453.78" y1="931.807" x2="1220.27" y2="739.29" gradientUnits="userSpaceOnUse">
<stop offset="0.15625" stop-color="#E2F4FE"/>
<stop offset="0.848958" stop-color="white"/>
</linearGradient>
<linearGradient id="paint5_linear_68_5840" x1="1316.76" y1="839.005" x2="1158.54" y2="708.561" gradientUnits="userSpaceOnUse">
<stop offset="0.15625" stop-color="#E2F4FE"/>
<stop offset="0.848958" stop-color="white"/>
</linearGradient>
<linearGradient id="paint6_linear_68_5840" x1="1497.73" y1="767.341" x2="1351.51" y2="646.793" gradientUnits="userSpaceOnUse">
<stop offset="0.15625" stop-color="#E2F4FE"/>
<stop offset="0.848958" stop-color="white"/>
</linearGradient>
<linearGradient id="paint7_linear_68_5840" x1="814.325" y1="862.826" x2="656.102" y2="732.382" gradientUnits="userSpaceOnUse">
<stop offset="0.15625" stop-color="#E2F4FE"/>
<stop offset="0.848958" stop-color="white"/>
</linearGradient>
<linearGradient id="paint8_linear_68_5840" x1="1039.91" y1="939.988" x2="806.397" y2="747.471" gradientUnits="userSpaceOnUse">
<stop offset="0.15625" stop-color="#E2F4FE"/>
<stop offset="0.848958" stop-color="white"/>
</linearGradient>
<linearGradient id="paint9_linear_68_5840" x1="699.928" y1="780.656" x2="609.905" y2="706.438" gradientUnits="userSpaceOnUse">
<stop offset="0.15625" stop-color="#E2F4FE"/>
<stop offset="0.848958" stop-color="white"/>
</linearGradient>
<linearGradient id="paint10_linear_68_5840" x1="1942.91" y1="340.736" x2="1852.89" y2="266.518" gradientUnits="userSpaceOnUse">
<stop offset="0.15625" stop-color="#E2F4FE"/>
<stop offset="0.848958" stop-color="white"/>
</linearGradient>
<linearGradient id="paint11_linear_68_5840" x1="1594.77" y1="622.128" x2="1504.74" y2="547.91" gradientUnits="userSpaceOnUse">
<stop offset="0.15625" stop-color="#E2F4FE"/>
<stop offset="0.848958" stop-color="white"/>
</linearGradient>
<linearGradient id="paint12_linear_68_5840" x1="354.034" y1="718.418" x2="264.01" y2="644.2" gradientUnits="userSpaceOnUse">
<stop offset="0.15625" stop-color="#E2F4FE"/>
<stop offset="0.848958" stop-color="white"/>
</linearGradient>
<linearGradient id="paint13_linear_68_5840" x1="2028.8" y1="721.761" x2="1741.82" y2="485.162" gradientUnits="userSpaceOnUse">
<stop offset="0.15625" stop-color="#E2F4FE"/>
<stop offset="0.848958" stop-color="white"/>
</linearGradient>
<linearGradient id="paint14_linear_68_5840" x1="1648.48" y1="726.212" x2="1502.26" y2="605.663" gradientUnits="userSpaceOnUse">
<stop offset="0.15625" stop-color="#E2F4FE"/>
<stop offset="0.848958" stop-color="white"/>
</linearGradient>
<linearGradient id="paint15_linear_68_5840" x1="1895.28" y1="706.983" x2="1749.06" y2="586.435" gradientUnits="userSpaceOnUse">
<stop offset="0.15625" stop-color="#E2F4FE"/>
<stop offset="0.848958" stop-color="white"/>
</linearGradient>
<linearGradient id="paint16_linear_68_5840" x1="2053.18" y1="536.575" x2="1817.48" y2="342.258" gradientUnits="userSpaceOnUse">
<stop offset="0.15625" stop-color="#E2F4FE"/>
<stop offset="0.848958" stop-color="white"/>
</linearGradient>
<linearGradient id="paint17_linear_68_5840" x1="1343" y1="568" x2="1371.71" y2="595.528" gradientUnits="userSpaceOnUse">
<stop stop-color="#1B2B7C"/>
<stop offset="0.854068" stop-color="#858FC2"/>
<stop offset="1" stop-color="#1B2B7C"/>
</linearGradient>
<linearGradient id="paint18_linear_68_5840" x1="1101" y1="355" x2="1179.16" y2="413.377" gradientUnits="userSpaceOnUse">
<stop stop-color="#1B2B7C"/>
<stop offset="0.411458" stop-color="#858FC2"/>
<stop offset="0.671875" stop-color="#1B2B7C"/>
</linearGradient>
<linearGradient id="paint19_linear_68_5840" x1="1143.23" y1="616.746" x2="1066.97" y2="719.759" gradientUnits="userSpaceOnUse">
<stop stop-color="#FFC6B5"/>
<stop offset="1" stop-color="white" stop-opacity="0"/>
</linearGradient>
<linearGradient id="paint20_linear_68_5840" x1="1143.21" y1="617.011" x2="1068.25" y2="718.267" gradientUnits="userSpaceOnUse">
<stop stop-color="#FFE4A7"/>
<stop offset="1" stop-color="white" stop-opacity="0"/>
</linearGradient>
<linearGradient id="paint21_linear_68_5840" x1="1143.01" y1="617.095" x2="1069.27" y2="716.698" gradientUnits="userSpaceOnUse">
<stop stop-color="#F4B016"/>
<stop offset="1" stop-color="white" stop-opacity="0"/>
</linearGradient>
<linearGradient id="paint22_linear_68_5840" x1="1142.88" y1="617.207" x2="1070.34" y2="715.193" gradientUnits="userSpaceOnUse">
<stop stop-color="#FFC6B5"/>
<stop offset="1" stop-color="white" stop-opacity="0"/>
</linearGradient>
<linearGradient id="paint23_linear_68_5840" x1="1142.8" y1="617.343" x2="1071.47" y2="713.695" gradientUnits="userSpaceOnUse">
<stop stop-color="#FFE4A7"/>
<stop offset="1" stop-color="white" stop-opacity="0"/>
</linearGradient>
<linearGradient id="paint24_linear_68_5840" x1="1142.86" y1="617.448" x2="1072.68" y2="712.235" gradientUnits="userSpaceOnUse">
<stop stop-color="#F4B016"/>
<stop offset="1" stop-color="white" stop-opacity="0"/>
</linearGradient>
<linearGradient id="paint25_linear_68_5840" x1="1142.59" y1="617.588" x2="1073.68" y2="710.671" gradientUnits="userSpaceOnUse">
<stop stop-color="#FFE4A7"/>
<stop offset="1" stop-color="white" stop-opacity="0"/>
</linearGradient>
<linearGradient id="paint26_linear_68_5840" x1="1142.49" y1="617.719" x2="1074.78" y2="709.185" gradientUnits="userSpaceOnUse">
<stop stop-color="#FFC6B5"/>
<stop offset="1" stop-color="white" stop-opacity="0"/>
</linearGradient>
<linearGradient id="paint27_linear_68_5840" x1="1142.4" y1="617.846" x2="1075.89" y2="707.677" gradientUnits="userSpaceOnUse">
<stop stop-color="#FFE4A7"/>
<stop offset="1" stop-color="white" stop-opacity="0"/>
</linearGradient>
<linearGradient id="paint28_linear_68_5840" x1="1142.28" y1="617.996" x2="1077" y2="706.175" gradientUnits="userSpaceOnUse">
<stop stop-color="#F4B016"/>
<stop offset="1" stop-color="white" stop-opacity="0"/>
</linearGradient>
<linearGradient id="paint29_linear_68_5840" x1="1142.24" y1="618.161" x2="1078.17" y2="704.705" gradientUnits="userSpaceOnUse">
<stop stop-color="#FFC6B5"/>
<stop offset="1" stop-color="white" stop-opacity="0"/>
</linearGradient>
<linearGradient id="paint30_linear_68_5840" x1="1141.94" y1="618.447" x2="1079.11" y2="703.322" gradientUnits="userSpaceOnUse">
<stop stop-color="#FFE4A7"/>
<stop offset="1" stop-color="white" stop-opacity="0"/>
</linearGradient>
<linearGradient id="paint31_linear_68_5840" x1="1207.96" y1="318.201" x2="1419.55" y2="514.735" gradientUnits="userSpaceOnUse">
<stop stop-color="#F08F7A"/>
<stop offset="0.302083" stop-color="white"/>
<stop offset="1" stop-color="#FB5472"/>
</linearGradient>
<linearGradient id="paint32_linear_68_5840" x1="1395" y1="171" x2="1485.5" y2="259" gradientUnits="userSpaceOnUse">
<stop stop-color="#1B2B7C"/>
<stop offset="0.411458" stop-color="#858FC2"/>
<stop offset="0.671875" stop-color="#1B2B7C"/>
</linearGradient>
<radialGradient id="paint33_radial_68_5840" cx="0" cy="0" r="1" gradientUnits="userSpaceOnUse" gradientTransform="translate(1329.72 364.803) rotate(36.5134) scale(175.217 280.427)">
<stop offset="0.53" stop-color="white"/>
<stop offset="0.6" stop-color="#FFDEDE"/>
<stop offset="0.68" stop-color="#FFDEDE"/>
<stop offset="0.76" stop-color="#FF9AA0"/>
<stop offset="0.85" stop-color="#FF6570"/>
<stop offset="0.95" stop-color="#FB5472"/>
<stop offset="1" stop-color="#FB5472"/>
</radialGradient>
<radialGradient id="paint34_radial_68_5840" cx="0" cy="0" r="1" gradientUnits="userSpaceOnUse" gradientTransform="translate(1316.51 712.931) rotate(-158.746) scale(47.7821 209.373)">
<stop stop-color="#972A74"/>
<stop offset="0.02" stop-color="#8C276C"/>
<stop offset="0.11" stop-color="#671D4F"/>
<stop offset="0.21" stop-color="#471437"/>
<stop offset="0.32" stop-color="#2D0D23"/>
<stop offset="0.43" stop-color="#190713"/>
<stop offset="0.57" stop-color="#0B0308"/>
<stop offset="0.73" stop-color="#020102"/>
<stop offset="1"/>
</radialGradient>
<linearGradient id="paint35_linear_68_5840" x1="1263.51" y1="335.995" x2="1219.76" y2="395.088" gradientUnits="userSpaceOnUse">
<stop stop-color="white"/>
<stop offset="0.442708" stop-color="white" stop-opacity="0.9375"/>
<stop offset="1" stop-color="white" stop-opacity="0"/>
</linearGradient>
<radialGradient id="paint36_radial_68_5840" cx="0" cy="0" r="1" gradientUnits="userSpaceOnUse" gradientTransform="translate(-2904.96 12276) rotate(36.5134) scale(1239.49 1888.94)">
<stop stop-color="#EEEEEE"/>
<stop offset="1" stop-opacity="0"/>
</radialGradient>

<linearGradient id="paint38_linear_68_5840" x1="1131.73" y1="519.764" x2="1069.68" y2="473.831" gradientUnits="userSpaceOnUse">
<stop stop-color="#FFA979"/>
<stop offset="1" stop-color="#FFC09E"/>
</linearGradient>
<linearGradient id="paint39_linear_68_5840" x1="1066" y1="451.5" x2="1136.04" y2="508.736" gradientUnits="userSpaceOnUse">
<stop stop-color="#1B2B7C"/>
<stop offset="0.411458" stop-color="#858FC2"/>
<stop offset="0.671875" stop-color="#1B2B7C"/>
</linearGradient>
<radialGradient id="paint40_radial_68_5840" cx="0" cy="0" r="1" gradientUnits="userSpaceOnUse" gradientTransform="translate(1102.75 502.107) rotate(137.184) scale(108.723 36.5321)">
<stop stop-color="#FFDA32"/>
<stop offset="1" stop-color="#FAFF00" stop-opacity="0"/>
</radialGradient>
<linearGradient id="paint41_linear_68_5840" x1="1301.33" y1="645.323" x2="1239.34" y2="599.427" gradientUnits="userSpaceOnUse">
<stop stop-color="#FFA979"/>
<stop offset="1" stop-color="#FFC09E"/>
</linearGradient>
<linearGradient id="paint42_linear_68_5840" x1="1242.94" y1="602.131" x2="1330.97" y2="654.21" gradientUnits="userSpaceOnUse">
<stop stop-color="#1B2B7C"/>
<stop offset="0.411458" stop-color="#858FC2"/>
<stop offset="0.671875" stop-color="#1B2B7C"/>
</linearGradient>
<radialGradient id="paint43_radial_68_5840" cx="0" cy="0" r="1" gradientUnits="userSpaceOnUse" gradientTransform="translate(1264.88 622.431) rotate(137.184) scale(108.775 36.5495)">
<stop stop-color="#FFDA32"/>
<stop offset="1" stop-color="#FAFF00" stop-opacity="0"/>
</radialGradient>
<linearGradient id="paint44_linear_68_5840" x1="1475.91" y1="539.481" x2="1442.48" y2="541.874" gradientUnits="userSpaceOnUse">
<stop stop-color="#87DFFF"/>
<stop offset="1" stop-color="#3CA5FF"/>
</linearGradient>
<clipPath id="clip0_68_5840">
<rect width="744.867" height="765.398" fill="white" transform="translate(1186.43 -74.8823) rotate(36.5134)"/>
</clipPath>
</defs>
</svg>
