<svg width="1920" height="900" viewBox="0 0 1920 900" fill="none" xmlns="http://www.w3.org/2000/svg">
<path d="M4.25726e-05 0H1920V900C1920 900 1708 837 1462 859C1216 881 406 917 198 881C-9.99997 845 4.25726e-05 900 4.25726e-05 900V0Z" fill="url(#paint0_linear_1429_2528)"/>
<mask id="mask0_1429_2528" style="mask-type:alpha" maskUnits="userSpaceOnUse" x="-1" y="0" width="1921" height="900">
<path d="M4.25726e-05 0H1920V900C1920 900 1708 837 1462 859C1216 881 406 917 198 881C-9.99997 845 4.25726e-05 900 4.25726e-05 900V0Z" fill="#C4C4C4"/>
</mask>
<g mask="url(#mask0_1429_2528)">
<g opacity="0.2">
<path opacity="0.4" d="M992.161 368.751C995.104 367.573 996.869 366.985 1011.58 365.807C1011 366.396 1010.41 366.985 1009.82 367.573C1009.23 368.162 1009.23 368.751 1008.64 368.751C1005.7 369.34 1002.17 369.34 999.224 369.929C999.224 369.929 990.984 371.106 989.218 372.284C990.395 371.106 991.572 369.929 992.161 368.751Z" fill="#3D5D82"/>
<path opacity="0.4" d="M1704.92 170.916C1704.33 170.327 1703.74 170.327 1702.56 170.327C1716.69 175.038 1734.93 180.925 1749.06 186.225C1751.41 186.813 1753.77 187.991 1755.53 188.58C1740.82 183.281 1720.81 175.626 1704.92 170.916Z" fill="#3D5D82"/>
<path opacity="0.4" d="M1248.78 189.758C1258.19 186.814 1258.19 186.814 1271.14 183.87C1269.96 184.458 1268.79 185.047 1267.02 185.636C1264.08 186.225 1260.55 187.402 1257.6 187.991C1253.48 189.169 1248.19 190.935 1244.66 192.113C1246.42 190.935 1247.6 190.346 1248.78 189.758Z" fill="#3D5D82"/>
<path opacity="0.4" d="M1131.65 250.403C1178.15 222.73 1193.45 214.486 1257.6 189.168C1234.06 199.767 1209.34 208.598 1186.39 219.786C1168.14 228.618 1144.6 242.749 1126.94 253.347C1128.12 252.758 1129.88 251.581 1131.65 250.403Z" fill="#3D5D82"/>
<path opacity="0.4" d="M1480.09 141.476C1480.67 141.476 1481.85 141.476 1482.44 141.476C1422.4 145.598 1374.73 148.542 1293.51 176.215C1292.92 176.215 1291.74 176.215 1291.15 176.804C1343.54 159.729 1384.74 146.187 1480.09 141.476Z" fill="#3D5D82"/>
<path opacity="0.4" d="M1367.08 176.215C1366.49 176.804 1365.9 177.393 1364.72 177.393C1335.3 179.748 1305.28 180.337 1275.85 183.281C1279.38 182.103 1283.5 180.925 1367.08 176.215Z" fill="#3D5D82"/>
<path opacity="0.4" d="M844.429 630.176C866.795 567.764 894.458 490.043 999.224 382.882C993.926 397.013 976.269 408.789 965.675 419.388C934.481 452.949 876.8 525.959 842.074 636.064V634.886C843.252 633.12 843.84 631.942 844.429 630.176Z" fill="#3D5D82"/>
<path opacity="0.4" d="M834.19 656.203C834.778 655.025 833.601 653.073 834.19 651.307C839.487 660.139 862.675 672.566 950.372 684.93C949.784 686.697 949.784 687.285 949.784 689.052C870.915 679.042 836.544 666.801 834.19 656.203C834.19 656.792 833.601 656.792 834.19 656.203Z" fill="#3D5D82"/>
<path opacity="0.4" d="M823.828 943.999C816.766 856.269 849.137 792.679 948.606 700.827C948.606 702.005 948.606 703.182 949.195 703.771C859.143 791.502 815.588 853.914 825.006 949.299C824.417 947.532 824.417 945.766 823.828 943.999Z" fill="#3D5D82"/>
<path opacity="0.4" d="M1004.52 384.06C1005.11 383.471 1005.7 382.882 1006.29 382.294C978.035 435.285 935.658 515.36 960.967 666.09C960.378 666.679 959.201 667.857 958.612 668.446C949.784 601.323 936.247 500.052 1004.52 384.06Z" fill="#3D5D82"/>
<path opacity="0.4" d="M1250.54 193.29H1251.13C1189.33 223.319 1119.29 256.88 1033.36 348.143C1075.74 304.572 1133.42 245.104 1250.54 193.29Z" fill="#3D5D82"/>
<path opacity="0.4" d="M1259.96 189.757C1261.14 189.168 1261.73 189.168 1262.9 188.58C1225.82 209.187 1156.37 246.87 1172.26 334.012C1171.09 335.189 1170.5 335.189 1169.32 336.367C1165.2 301.039 1158.14 241.571 1259.96 189.757Z" fill="#3D5D82"/>
<path opacity="0.4" d="M1159.9 346.376C1159.31 347.553 1158.72 348.142 1158.14 349.32C1082.8 356.974 1058.08 360.507 1022.17 366.395C1024.53 364.628 1028.06 359.918 1159.9 346.376Z" fill="#3D5D82"/>
<path opacity="0.4" d="M963.318 716.136C963.906 716.136 965.083 715.547 965.672 714.958C969.203 782.08 973.323 865.689 1014.52 988.746C1013.93 988.746 1012.76 989.334 1011.58 989.923C990.98 922.212 965.083 839.193 963.318 716.136C963.318 716.136 962.729 716.136 963.318 716.136Z" fill="#3D5D82"/>
<path opacity="0.4" d="M1156.96 364.041C1157.55 364.041 1158.14 364.63 1158.14 364.63C1081.62 458.247 1029.83 533.613 974.505 664.913C973.916 664.913 973.328 664.324 973.328 664.324C1014.53 563.641 1057.49 482.388 1156.96 364.041Z" fill="#3D5D82"/>
<path opacity="0.4" d="M1169.91 363.452C1170.5 362.863 1171.68 362.274 1172.85 362.274C1166.97 457.658 1183.45 551.276 1288.8 744.399C1287.63 744.988 1286.45 746.166 1285.27 746.754C1202.87 593.08 1158.14 481.21 1169.91 363.452C1169.91 363.452 1169.32 363.452 1169.91 363.452Z" fill="#3D5D82"/>
<path opacity="0.4" d="M978.621 696.117C978.621 695.528 979.21 694.35 979.798 691.995C1025.71 705.538 1095.16 725.556 1275.85 760.884C1275.85 762.061 1275.26 763.239 1275.26 764.417C1158.13 744.398 1041.6 715.547 978.621 696.117C978.621 696.117 978.621 696.706 978.621 696.117Z" fill="#3D5D82"/>
<path opacity="0.4" d="M1356.48 185.636C1309.4 216.253 1260.55 248.048 1189.33 329.302C1188.74 329.302 1188.15 328.713 1187.56 328.713C1227.59 285.142 1277.03 231.562 1356.48 185.636Z" fill="#3D5D82"/>
<path opacity="0.4" d="M1436.53 284.553C1436.53 285.141 1436.53 286.319 1436.53 286.908C1355.9 304.572 1272.32 322.235 1189.33 343.432C1189.92 342.843 1189.92 341.666 1190.51 341.077C1226.41 332.245 1264.08 322.235 1436.53 284.553Z" fill="#3D5D82"/>
<path opacity="0.4" d="M1277.03 782.08C1277.62 783.258 1278.21 784.436 1278.8 785.024C1167.56 872.166 1111.64 915.737 1035.72 1001.11C1035.13 1000.52 1034.54 999.346 1033.95 998.168C1067.5 958.719 1114 904.55 1277.03 782.08Z" fill="#3D5D82"/>
<path opacity="0.4" d="M1370.02 182.103C1370.61 181.514 1371.79 181.514 1372.37 180.926C1369.43 205.655 1378.85 225.674 1441.83 272.778C1441.24 273.955 1440.65 273.955 1440.06 275.133C1381.79 230.384 1365.9 209.777 1370.02 182.103C1370.02 182.103 1369.43 182.103 1370.02 182.103Z" fill="#3D5D82"/>
<path opacity="0.4" d="M1493.03 140.888C1494.21 140.888 1495.39 140.888 1497.15 140.888C1412.4 142.654 1370.61 153.841 1373.55 173.271C1372.38 173.86 1371.79 173.86 1370.61 174.449C1368.84 154.43 1409.46 143.243 1493.03 140.888C1492.44 140.888 1492.44 140.888 1493.03 140.888Z" fill="#3D5D82"/>
<path opacity="0.4" d="M1504.8 140.888L1505.39 141.476C1502.45 142.654 1500.1 143.832 1486.56 147.364C1452.42 156.785 1418.28 165.028 1384.15 174.449C1385.91 173.271 1385.91 173.271 1408.87 167.383C1411.22 166.795 1421.82 163.851 1464.78 152.664C1499.51 143.832 1502.45 142.654 1505.39 141.476C1504.8 140.888 1504.8 140.888 1504.8 140.888Z" fill="#3D5D82"/>
<path opacity="0.4" d="M1872.07 247.459C1873.25 248.047 1874.42 249.225 1875.6 249.814C1879.13 252.169 1883.25 255.702 1885.61 259.823C1886.78 262.178 1886.2 265.711 1886.2 268.655C1885.02 268.066 1883.84 266.889 1882.66 266.3C1883.25 263.356 1883.25 258.646 1881.49 256.291C1879.72 252.758 1875.01 249.814 1872.07 247.459Z" fill="#3D5D82"/>
<path opacity="0.4" d="M1506.57 140.888C1513.04 145.598 1517.16 148.542 1507.16 177.982C1499.5 200.356 1478.9 238.039 1462.42 268.656C1461.84 268.656 1461.25 268.067 1460.66 268.067C1504.8 183.87 1521.87 152.664 1506.57 140.888Z" fill="#3D5D82"/>
<path opacity="0.4" d="M1445.95 298.094C1446.54 298.094 1447.71 298.683 1448.3 298.683C1383.56 477.675 1351.19 567.172 1308.22 742.042C1307.63 742.042 1306.46 741.454 1305.87 741.454C1325.29 651.369 1355.9 535.377 1445.95 298.094Z" fill="#3D5D82"/>
<path opacity="0.4" d="M1588.38 460.012C1588.97 460.601 1590.14 461.189 1590.73 461.778C1505.39 562.461 1408.28 651.957 1319.4 749.108C1318.81 748.519 1317.64 747.341 1317.05 746.753C1404.16 648.425 1501.27 558.929 1588.38 460.012Z" fill="#3D5D82"/>
<path opacity="0.4" d="M1301.75 795.622C1302.92 795.622 1303.51 795.622 1305.28 795.034C1315.87 864.511 1324.11 919.269 1347.07 1021.13C1345.89 1021.13 1344.71 1021.13 1344.12 1021.72C1332.35 971.672 1317.64 909.848 1301.75 795.622Z" fill="#3D5D82"/>
<path opacity="0.4" d="M1325.29 771.482C1325.29 770.305 1325.29 768.538 1325.29 767.361C1468.9 775.015 1611.92 782.08 1755.53 789.735C1755.53 790.912 1755.53 792.679 1755.53 794.445C1612.51 786.202 1468.9 779.725 1325.29 771.482C1325.29 771.482 1325.29 772.071 1325.29 771.482Z" fill="#3D5D82"/>
<path opacity="0.4" d="M1757.89 805.632C1758.48 806.81 1759.07 808.576 1759.65 809.754C1633.7 890.418 1501.86 959.306 1373.55 1035.26C1372.96 1034.08 1371.79 1032.91 1371.2 1031.73C1500.1 955.774 1632.52 886.885 1757.89 805.632Z" fill="#3D5D82"/>
<path opacity="0.4" d="M1461.84 295.74C1463.01 295.151 1463.6 294.562 1464.19 293.973C1496.56 332.834 1505.98 344.021 1588.97 427.63C1587.79 428.807 1587.2 428.807 1586.62 429.985C1511.87 354.619 1491.85 333.422 1461.84 295.74Z" fill="#3D5D82"/>
<path opacity="0.4" d="M1537.76 157.374C1538.35 157.374 1538.35 157.963 1538.94 157.963C1539.53 180.926 1532.47 199.767 1465.96 270.423C1465.37 269.834 1464.78 269.245 1464.19 268.656C1511.87 218.02 1540.71 184.459 1537.76 157.374Z" fill="#3D5D82"/>
<path opacity="0.4" d="M1672.55 243.337C1673.13 243.926 1673.72 244.515 1674.31 245.104C1627.23 256.291 1576.02 265.123 1470.08 281.609C1470.08 281.02 1470.08 279.843 1470.08 279.254C1548.95 266.3 1610.75 256.88 1672.55 243.337Z" fill="#3D5D82"/>
<path opacity="0.4" d="M1647.83 167.383C1723.16 200.356 1803.8 243.927 1887.96 381.704C1887.38 381.704 1886.79 381.704 1886.79 381.704C1830.28 295.74 1773.78 219.786 1647.83 167.383Z" fill="#3D5D82"/>
<path opacity="0.4" d="M1887.96 277.487C1888.55 278.076 1929.16 312.226 1903.85 391.713C1902.68 390.535 1902.09 389.947 1900.91 388.769C1910.33 355.796 1919.16 325.179 1887.96 277.487Z" fill="#3D5D82"/>
<path opacity="0.4" d="M1637.82 165.028C1651.36 169.149 1669.6 186.813 1670.78 188.58C1684.32 208.01 1684.91 210.954 1686.08 233.917C1684.91 233.328 1684.32 232.739 1683.14 232.151C1680.79 198 1675.49 187.402 1637.82 165.028Z" fill="#3D5D82"/>
<path opacity="0.4" d="M1545.41 157.963C1581.9 176.804 1610.74 193.29 1667.84 230.384C1667.84 230.973 1667.25 230.973 1667.25 231.562C1614.87 197.412 1588.38 180.926 1545.41 157.963Z" fill="#3D5D82"/>
<path opacity="0.4" d="M1780.84 821.529C1782.02 821.529 1782.61 821.529 1784.96 820.941C1790.26 904.549 1793.2 962.251 1786.73 1057.05C1786.14 1057.05 1784.96 1057.05 1783.78 1057.05C1786.73 973.438 1788.49 922.802 1780.84 821.529Z" fill="#3D5D82"/>
<path opacity="0.4" d="M1505.39 140.888H1504.8C1511.86 141.476 1541.29 143.832 1617.81 157.963C1618.98 158.552 1619.57 158.552 1620.75 159.14C1542.47 144.42 1512.45 141.476 1505.39 140.888Z" fill="#3D5D82"/>
<path opacity="0.4" d="M1507.75 141.477C1507.75 140.888 1507.16 140.888 1507.75 141.477C1514.22 143.243 1523.05 146.776 1529.52 149.131C1522.46 146.776 1514.22 143.243 1507.75 141.477Z" fill="#3D5D82"/>
<path opacity="0.4" d="M1543.06 154.43C1542.47 154.43 1542.47 153.841 1541.88 153.841C1586.03 157.374 1597.21 157.962 1622.52 160.318C1623.69 160.906 1624.87 160.906 1625.46 161.495C1601.92 158.551 1588.38 157.374 1543.06 154.43Z" fill="#3D5D82"/>
<path opacity="0.4" d="M1700.21 253.347C1700.21 252.758 1700.21 252.169 1700.8 252.169C1777.9 303.983 1810.86 328.712 1879.72 384.648C1879.72 385.237 1879.13 385.825 1879.13 386.414C1809.68 329.89 1776.13 305.161 1700.21 253.347C1700.21 253.347 1700.21 253.936 1700.21 253.347Z" fill="#3D5D82"/>
<path opacity="0.4" d="M1683.14 252.758C1683.73 253.347 1684.32 253.347 1684.91 253.935C1684.32 285.73 1683.14 328.712 1616.63 429.396C1615.45 428.219 1614.87 428.219 1613.69 427.041C1643.71 379.937 1684.91 315.17 1683.14 252.758Z" fill="#3D5D82"/>
<path opacity="0.4" d="M1968.6 757.351C1968.6 759.117 1969.19 759.706 1969.19 762.061C1906.21 774.426 1886.2 777.959 1804.39 792.09C1804.39 789.735 1804.39 789.735 1803.8 787.379C1886.2 773.248 1906.21 769.716 1968.6 757.351Z" fill="#3D5D82"/>
<path opacity="0.4" d="M1614.28 465.9C1615.45 465.311 1616.63 465.311 1617.22 464.722C1669.6 557.162 1718.45 644.303 1772.01 767.36C1771.42 767.949 1770.25 767.949 1769.07 768.538C1717.28 657.257 1697.85 615.453 1614.28 465.9C1614.28 465.9 1613.69 465.9 1614.28 465.9Z" fill="#3D5D82"/>
<path opacity="0.4" d="M1883.84 402.311C1884.43 402.899 1885.02 404.077 1885.61 404.666C1861.48 409.965 1810.86 421.152 1626.05 444.115C1626.05 443.526 1625.46 442.348 1625.46 441.171C1862.07 406.432 1862.07 406.432 1883.84 402.311Z" fill="#3D5D82"/>
<path opacity="0.4" d="M1897.97 418.208C1898.55 418.797 1899.14 418.797 1899.73 419.385C1904.44 507.115 1888.55 596.611 1795.56 772.071C1794.38 771.482 1793.2 770.304 1792.02 769.716C1847.94 660.789 1903.26 544.209 1897.97 418.208Z" fill="#3D5D82"/>
<path opacity="0.4" d="M1703.15 170.327C1791.43 196.234 1850.88 242.749 1870.3 258.058C1869.71 258.058 1869.71 257.469 1869.13 257.469C1869.13 257.469 1868.54 256.88 1867.95 256.88C1857.35 251.581 1845.58 240.394 1836.17 233.328C1816.15 218.02 1776.13 195.057 1703.15 170.327Z" fill="#3D5D82"/>
<path opacity="0.4" d="M1647.24 165.617C1646.65 165.617 1646.06 165.028 1645.47 165.028C1733.76 192.701 1782.61 213.309 1863.83 258.057C1864.42 258.646 1865.01 259.235 1865.6 259.824C1800.27 223.907 1750.24 198 1647.24 165.617C1647.24 165.617 1647.83 166.206 1647.24 165.617Z" fill="#3D5D82"/>
<path opacity="0.4" d="M1915.62 418.797C1915.62 418.208 1916.21 417.619 1916.21 417.03C1972.13 471.788 2009.21 508.882 2063.95 584.837C2063.95 585.426 2063.36 586.014 2063.36 586.603C2019.21 528.313 1992.14 493.574 1915.62 418.797C1915.62 418.797 1915.62 419.386 1915.62 418.797Z" fill="#3D5D82"/>
<path opacity="0.4" d="M1906.8 421.74C1907.38 421.74 1907.97 421.74 1908.56 421.74C1933.87 475.909 1976.25 565.994 1987.43 728.5C1986.84 728.5 1986.25 728.5 1985.66 728.5C1974.48 631.939 1963.89 540.676 1906.8 421.74Z" fill="#3D5D82"/>
<path opacity="0.4" d="M1976.25 776.781C1976.84 777.37 1978.01 778.548 1978.6 779.136C1948.59 845.081 1913.86 919.268 1800.85 1062.34C1800.27 1061.76 1799.09 1060.58 1797.91 1059.99C1887.37 945.175 1932.11 873.932 1976.25 776.781Z" fill="#3D5D82"/>
<path opacity="0.4" d="M1902.09 281.608C1901.5 281.02 1900.91 280.431 1900.91 279.842C1947.41 311.637 2004.5 350.497 2056.29 417.031C2056.88 417.62 2056.88 418.209 2057.47 418.798C2025.1 381.115 1988.61 338.133 1902.09 281.608C1902.09 282.197 1902.09 282.197 1902.09 281.608Z" fill="#3D5D82"/>
<path opacity="0.4" d="M1899.73 284.553C1900.91 285.141 2025.1 375.226 2073.36 583.069C2072.77 583.069 2072.19 582.48 2072.19 582.48C2050.41 502.994 2020.39 394.068 1899.73 284.553Z" fill="#3D5D82"/>
<path opacity="0.4" d="M1640.76 154.43C1642.53 155.019 1644.29 155.019 1646.06 155.608L1669.6 160.907C1666.66 160.318 1666.66 160.318 1640.76 154.43Z" fill="#3D5D82"/>
<path opacity="0.4" d="M1543.65 142.065C1545.41 142.065 1546.59 142.065 1548.35 142.065C1596.03 145.598 1619.57 150.897 1629.58 159.14C1628.4 158.551 1627.22 158.551 1626.05 157.962C1624.87 157.374 1623.1 156.196 1621.93 155.019C1620.75 154.43 1614.28 150.897 1600.15 147.953C1580.14 144.42 1557.18 142.654 1543.65 142.065Z" fill="#3D5D82"/>
<path opacity="0.4" d="M1635.47 161.496C1634.29 160.907 1633.7 160.907 1632.52 160.318C1658.42 161.496 1669.6 162.673 1679.61 163.851C1680.79 164.439 1682.55 164.439 1683.73 165.028C1674.31 163.851 1664.89 163.262 1635.47 161.496Z" fill="#3D5D82"/>
<path opacity="0.4" d="M842.663 634.883C839.72 645.481 833.834 668.444 830.891 679.043C835.011 664.323 838.543 649.603 842.663 634.883Z" fill="#3D5D82"/>
<path opacity="0.4" d="M1504.21 140.888C1492.44 140.888 1482.44 141.476 1475.96 141.476C1485.38 140.888 1494.8 140.888 1504.21 140.888Z" fill="#3D5D82"/>
<path opacity="0.4" d="M1274.67 182.103C1262.9 186.813 1252.31 190.935 1249.95 192.701C1253.48 192.112 1296.45 175.626 1297.63 174.448C1295.27 175.037 1285.27 178.57 1274.67 182.103Z" fill="#3D5D82"/>
<path d="M1003.66 382.834L1003.65 382.839C1002.67 383.54 1001.83 384.038 1001.15 384.356C1000.65 384.587 1000.29 384.697 1000.05 384.742C1000.06 384.643 1000.07 384.516 1000.11 384.354C1000.21 383.846 1000.52 383.05 1001.14 381.942C1001.73 380.857 1002.57 379.564 1003.61 378.081C1005.71 375.119 1008.61 371.482 1012.13 367.382C1016.79 362.134 1021.44 357.629 1025.35 354.374C1027.3 352.744 1029.05 351.444 1030.5 350.524C1031.38 349.97 1032.1 349.588 1032.65 349.347C1032.48 349.97 1032.09 350.864 1031.44 352.026C1029.86 354.834 1027.08 358.616 1023.75 362.643C1017.07 370.713 1008.49 379.419 1003.66 382.834Z" stroke="#3D5D82" stroke-opacity="0.4" stroke-width="3"/>
<path d="M950.663 689.345L950.663 689.345L950.666 689.332C951.814 683.303 954.103 677.184 957.339 672.539C960.573 667.897 964.605 664.919 969.245 664.644C972.698 664.659 975.212 666.438 976.935 669.516C978.702 672.675 979.584 677.153 979.549 682.196C979.477 692.307 975.733 703.936 969.336 710.349C964.618 714.782 959.734 715.571 956.244 713.645C952.693 711.685 949.816 706.511 950.103 697.341L950.104 697.318V697.295C950.104 694.924 950.108 692.123 950.663 689.345Z" stroke="#3D5D82" stroke-opacity="0.4" stroke-width="3"/>
<path d="M1160.63 348.658C1160.81 348.354 1160.99 348.064 1161.16 347.788C1164.03 343.776 1167.89 339.495 1172.22 336.156C1176.58 332.8 1181.28 330.494 1185.84 330.212C1188.39 330.222 1189.55 331.086 1190.1 332.141C1190.72 333.356 1190.79 335.298 1190.09 337.889C1188.71 343.012 1184.61 349.563 1179.44 354.736C1173.73 360.453 1167.69 363.336 1163.18 363.875C1160.92 364.145 1159.17 363.815 1158.02 363.121C1156.93 362.472 1156.23 361.432 1156.11 359.864C1156.12 357.862 1156.88 355.625 1157.94 353.432C1158.8 351.651 1159.8 350.021 1160.63 348.658Z" stroke="#3D5D82" stroke-opacity="0.4" stroke-width="3"/>
<path opacity="0.4" d="M1366.49 176.804C1374.73 172.683 1384.15 169.15 1388.27 169.15C1388.86 169.15 1390.62 169.15 1388.27 171.505C1380.62 178.571 1355.9 189.758 1356.48 185.047C1356.48 183.281 1360.02 180.337 1366.49 176.804Z" fill="#3D5D82"/>
<path d="M1276.17 768.013L1276.17 768.013L1276.17 768.005C1276.45 760.36 1278.99 754.105 1283.19 749.701C1287.37 745.31 1293.31 742.652 1300.6 742.365C1307.18 742.371 1312.27 744.363 1316.01 747.482C1319.76 750.616 1322.25 754.959 1323.47 759.781C1325.93 769.484 1323.22 780.816 1316.03 787.455L1316.01 787.476L1315.99 787.497C1309.38 794.106 1299.13 795.796 1290.66 792.53C1282.3 789.307 1275.61 781.217 1276.17 768.013Z" stroke="#3D5D82" stroke-opacity="0.4" stroke-width="3"/>
<path d="M1438.54 282.083L1438.57 281.994L1438.59 281.903C1439.1 279.34 1442.85 269.516 1456.02 268.389C1459.68 268.4 1462.42 269.386 1464.38 270.886C1466.35 272.397 1467.64 274.504 1468.26 276.908C1469.52 281.758 1468.06 287.7 1464.29 291.754C1459.97 296.062 1453.29 297.713 1447.71 296.623C1444.93 296.081 1442.51 294.877 1440.8 293.085C1439.11 291.313 1438.03 288.892 1438.03 285.73C1438.03 285.155 1438.04 283.601 1438.54 282.083Z" stroke="#3D5D82" stroke-opacity="0.4" stroke-width="3"/>
<path opacity="0.4" d="M1504.21 140.888C1506.57 140.888 1507.75 140.888 1507.75 141.476C1507.75 141.476 1507.16 141.476 1506.57 141.476C1505.39 140.888 1504.8 140.888 1504.21 140.888Z" fill="#3D5D82"/>
<path d="M1582.82 442.937C1582.82 438.807 1584.06 434.627 1586.92 431.426C1589.76 428.255 1594.34 425.887 1601.34 425.596C1624.32 426.191 1630.94 450.584 1620.31 460.691C1614.94 465.791 1605.58 467 1597.44 463.978C1589.4 460.997 1582.82 453.992 1582.82 442.937Z" stroke="#3D5D82" stroke-opacity="0.4" stroke-width="3"/>
<path d="M1540.42 157.674C1538.07 156.911 1535.11 155.371 1531.98 152.529C1531.11 151.661 1530.36 150.757 1530.07 150.131C1530.08 150.131 1530.1 150.131 1530.11 150.131C1531.24 150.131 1532.86 150.551 1534.69 151.291C1536.5 152.02 1538.41 153.022 1540.09 154.095C1541.79 155.177 1543.19 156.294 1544.01 157.238C1544.41 157.701 1544.61 158.052 1544.68 158.281C1543.89 158.385 1542.41 158.315 1540.42 157.674ZM1529.98 149.854C1529.98 149.854 1529.98 149.855 1529.98 149.857L1529.98 149.854ZM1529.79 150.161C1529.78 150.166 1529.78 150.167 1529.78 150.167C1529.78 150.167 1529.78 150.165 1529.79 150.161Z" stroke="#3D5D82" stroke-opacity="0.4" stroke-width="2"/>
<path d="M1794.59 814.493L1794.57 814.513L1794.55 814.534C1788.24 820.293 1779.03 821.548 1771.3 818.099C1763.65 814.683 1757.32 806.566 1757.03 793.251C1757.04 785.604 1759.3 779.358 1763.14 774.972C1766.96 770.604 1772.43 767.973 1779.09 767.683C1791.75 767.98 1799.07 776.591 1801.53 786.846C1804.02 797.232 1801.38 808.788 1794.59 814.493Z" stroke="#3D5D82" stroke-opacity="0.4" stroke-width="3"/>
<path d="M1672.04 239.574L1672.01 239.533L1671.98 239.494C1671.14 238.369 1669.55 235.806 1669.17 233.59C1668.98 232.503 1669.13 231.76 1669.49 231.28C1669.84 230.821 1670.65 230.261 1672.57 230.12C1679.36 230.427 1687.22 235.258 1692.74 240.858C1695.5 243.65 1697.55 246.512 1698.56 248.908C1699.62 251.412 1699.32 252.766 1698.63 253.403C1697.85 254.078 1696.45 254.528 1694.42 254.461C1692.41 254.394 1689.97 253.826 1687.34 252.703C1682.08 250.46 1676.28 246.087 1672.04 239.574Z" stroke="#3D5D82" stroke-opacity="0.4" stroke-width="3"/>
<path d="M1900.34 417.722C1894.43 414.275 1888.01 407.881 1883.42 398.709C1880.52 392.609 1880 388.625 1880.65 386.305C1880.96 385.203 1881.54 384.473 1882.3 383.993C1883.08 383.496 1884.18 383.203 1885.61 383.203C1888.97 383.203 1892.92 384.908 1896.93 387.828C1900.89 390.723 1904.74 394.693 1907.87 398.932C1911 403.181 1913.34 407.613 1914.37 411.407C1915.42 415.278 1915 417.986 1913.43 419.458C1912.38 420.397 1910.7 420.884 1908.38 420.645C1906.08 420.405 1903.3 419.449 1900.34 417.722Z" stroke="#3D5D82" stroke-opacity="0.4" stroke-width="3"/>
<path d="M1625.63 160.435L1625.63 160.435L1625.62 160.432C1619.44 158.372 1615.62 157.049 1613.28 156.17C1613.05 156.087 1612.85 156.007 1612.65 155.932C1612.67 155.936 1612.69 155.94 1612.72 155.945C1614.16 156.221 1615.94 156.619 1617.94 157.105C1621.93 158.078 1626.76 159.401 1631.42 160.797C1636.09 162.194 1640.58 163.662 1643.91 164.925C1645.57 165.558 1646.93 166.134 1647.86 166.62C1648.06 166.722 1648.23 166.819 1648.39 166.91C1647.9 166.86 1647.29 166.764 1646.58 166.626C1645.03 166.326 1643.02 165.833 1640.75 165.208C1636.2 163.961 1630.62 162.198 1625.63 160.435Z" stroke="#3D5D82" stroke-opacity="0.6"/>
<path d="M1876.53 266.892L1876.53 266.885L1876.52 266.878C1872.7 263.941 1868.78 260.746 1866.2 258.233C1865.57 257.623 1865.05 257.078 1864.64 256.606C1865.07 256.774 1865.55 256.979 1866.09 257.225C1867.73 257.982 1869.7 259.049 1871.87 260.34C1876.22 262.921 1881.29 266.351 1886.04 269.862C1890.8 273.376 1895.2 276.942 1898.21 279.791C1899.72 281.226 1900.83 282.424 1901.46 283.31C1901.48 283.349 1901.51 283.386 1901.53 283.422C1900.67 283.194 1899.34 282.651 1897.43 281.615C1893.2 279.322 1886.52 274.821 1876.53 266.892Z" stroke="#3D5D82" stroke-opacity="0.4" stroke-width="3"/>
<path opacity="0.4" d="M1681.96 164.439C1673.72 162.084 1665.48 160.318 1657.24 157.963C1667.84 159.729 1699.62 168.561 1708.45 172.094C1707.86 172.094 1707.86 172.094 1704.92 170.916C1693.15 167.383 1689.61 166.795 1681.96 164.439Z" fill="#3D5D82"/>
<path d="M1999.2 342.843C1998.02 341.665 1996.85 340.488 1995.67 339.31C1994.49 338.132 1993.32 336.955 1992.73 336.366C1945.64 293.384 1857.36 212.72 1695.5 164.439C1806.74 205.066 1893.85 238.038 1999.2 342.843Z" fill="#3D5D82"/>
<path d="M1696.09 186.225C1697.27 186.813 1697.85 187.402 1699.03 187.402C1701.97 180.337 1702.56 177.982 1697.86 171.505C1694.32 166.794 1686.08 162.673 1679.61 159.729C1678.43 159.14 1676.67 159.14 1675.49 158.551C1685.49 163.262 1690.79 165.617 1694.91 171.505C1699.03 177.393 1697.85 181.514 1696.09 186.225C1696.09 185.636 1696.09 185.636 1696.09 186.225Z" fill="#3D5D82"/>
<path d="M1989.2 338.721C1919.16 273.954 1843.82 212.72 1697.86 164.439C1790.85 197.411 1876.78 233.328 1989.2 338.721Z" fill="#3D5D82"/>
<path d="M1995.67 347.553C1995.08 346.964 1929.75 279.842 1710.8 195.057C1719.63 202.122 1734.93 205.655 1745.53 209.776C1894.43 269.244 1965.06 324.002 1995.67 347.553Z" fill="#3D5D82"/>
<path d="M1508.92 135C1512.45 135.588 1518.34 135 1518.34 135C1517.75 135 1517.16 135 1517.16 135H1512.45C1513.04 135 1513.63 135 1514.22 135C1512.45 135.588 1510.69 135 1508.92 135Z" fill="#3D5D82"/>
<path d="M1667.84 156.785C1651.36 152.075 1570.72 140.299 1510.69 135.588C1651.36 153.841 1651.36 153.841 1667.84 156.785Z" fill="#3D5D82"/>
<path d="M1657.83 153.252C1659.01 153.252 1659.6 153.841 1660.77 153.841C1622.52 145.009 1606.63 140.888 1549.53 136.177L1543.65 135.588C1592.5 140.299 1608.98 141.476 1657.83 153.252Z" fill="#3D5D82"/>
<path d="M1936.22 1151.25C1936.81 1150.66 1937.4 1150.07 1937.99 1149.49C1930.34 1103.56 1910.33 981.091 1750.83 753.818C1749.65 754.407 1748.47 755.585 1747.29 756.762C1829.1 876.287 1915.04 1016.42 1936.22 1151.25Z" fill="#3D5D82"/>
<path d="M2077.48 922.212C2077.48 921.035 2078.07 919.857 2078.66 918.68C2006.26 859.801 1913.27 808.576 1758.48 740.865C1758.48 742.043 1757.89 743.22 1757.89 744.398C1892.08 807.398 1989.19 852.735 2077.48 922.212Z" fill="#3D5D82"/>
<path d="M1590.14 447.648C1591.32 447.648 1592.5 447.648 1593.68 447.648C1583.67 395.245 1553.06 234.506 1520.69 157.374C1519.52 157.374 1519.52 157.374 1519.52 157.374C1527.76 179.159 1553.06 245.693 1590.14 447.648Z" fill="#3D5D82"/>
<path d="M1680.79 184.458C1675.49 180.337 1566.02 143.832 1513.04 135.588C1544.83 142.654 1584.26 150.897 1680.79 184.458Z" fill="#3D5D82"/>
<path d="M1685.5 187.402C1683.14 185.636 1682.55 185.636 1660.19 180.926C1614.87 170.916 1568.96 162.084 1523.64 152.075C1523.64 152.075 1523.64 152.664 1524.23 153.252C1577.79 165.028 1631.94 175.626 1685.5 187.402Z" fill="#3D5D82"/>
<path d="M1958.59 470.61C1959.18 470.61 1959.77 470.61 1959.77 470.021C1900.32 365.805 1835.58 279.842 1713.75 199.767C1795.56 257.468 1869.72 316.936 1958.59 470.61Z" fill="#3D5D82"/>
<path d="M1609.57 452.946C1610.16 453.535 1611.34 454.124 1611.92 454.713C1691.38 365.217 1753.3 269.778 1699.74 195.002C1699.15 194.413 1697.98 193.824 1696.8 193.824C1730.94 246.815 1732.58 313.992 1609.57 452.946Z" fill="#3D5D82"/>
<path d="M1753.18 716.137C1753.77 717.315 1754.36 717.904 1754.95 719.081C1847.94 647.837 1919.16 584.836 1966.24 508.293C1965.07 507.115 1964.48 506.527 1963.3 504.76C1929.75 555.985 1888.55 610.743 1753.18 716.137C1752.59 716.137 1752.59 715.549 1753.18 716.137Z" fill="#3D5D82"/>
<path d="M1957.41 494.162C1956.82 492.984 1956.24 491.218 1955.65 490.04C1909.21 494.162 1861.33 503.066 1779.07 498.248C1736.14 495.733 1673.82 488.825 1617.99 474.43C1617.99 475.608 1617.99 477.374 1617.99 478.552C1659.83 489.324 1718.26 498.496 1779.07 502.036C1837.86 505.459 1899.71 498.248 1957.41 494.162Z" fill="#3D5D82"/>
<path d="M1576.61 454.714C1577.2 454.125 1577.79 453.537 1578.37 452.948C1451.83 332.245 1425.93 307.516 1395.33 253.346C1394.74 253.935 1394.15 254.524 1393.56 254.524C1428.29 316.347 1473.61 361.096 1576.61 454.714Z" fill="#3D5D82"/>
<path d="M1571.9 468.255C1571.9 467.077 1571.9 465.9 1571.9 464.722C1419.46 439.993 1350.01 428.806 1242.3 406.432C1241.71 407.609 1241.12 408.787 1240.54 409.965C1351.19 432.339 1415.93 442.937 1571.9 468.255Z" fill="#3D5D82"/>
<path d="M1626.64 985.804C1627.82 986.392 1628.99 986.392 1629.58 986.981C1667.84 906.316 1690.2 856.269 1726.11 759.118C1724.34 758.529 1723.75 758.529 1721.99 757.351C1693.15 835.072 1676.67 878.054 1626.64 985.804Z" fill="#3D5D82"/>
<path d="M1719.63 708.483C1720.22 707.894 1721.4 707.305 1722.57 707.305C1695.5 649.604 1681.96 620.753 1609.57 490.629C1608.98 491.218 1607.8 491.218 1607.21 491.807C1699.03 666.679 1699.03 666.679 1719.63 708.483Z" fill="#3D5D82"/>
<path d="M1212.28 724.968C1212.87 725.556 1212.87 726.145 1213.46 726.734C1334.12 644.892 1457.72 566.583 1578.37 484.741C1577.79 483.564 1576.61 482.386 1576.02 481.209C1454.19 562.462 1329.41 638.416 1212.28 724.968Z" fill="#3D5D82"/>
<path d="M1215.81 739.687C1215.81 740.276 1215.81 741.454 1215.81 742.631C1275.85 743.22 1275.85 743.22 1707.86 736.155C1707.86 734.977 1707.86 733.211 1707.86 731.444C1543.65 733.8 1380.02 736.155 1215.81 739.687Z" fill="#3D5D82"/>
<path d="M1483.02 135.588C1481.85 135.588 1480.67 135.588 1479.49 135.588C1488.91 135.588 1498.92 135.588 1508.33 135C1507.74 135 1507.74 135 1507.16 135C1499.5 135.588 1491.26 135.588 1483.02 135.588Z" fill="#3D5D82"/>
<path d="M1280.1 345.845C1280.69 346.434 1281.28 347.022 1281.28 347.022C1332.49 295.208 1317.05 311.637 1375.91 256.879C1375.32 256.29 1374.73 256.29 1374.14 255.702C1330.59 296.329 1331.31 292.264 1280.1 345.845Z" fill="#3D5D82"/>
<path d="M1592.5 999.344C1593.09 998.167 1594.27 996.4 1594.85 995.223C1311.75 825.062 1311.75 825.062 1212.87 754.407C1212.28 755.585 1211.11 757.351 1210.52 758.529C1305.28 825.062 1305.28 825.062 1592.5 999.344Z" fill="#3D5D82"/>
<path d="M1518.34 146.187C1518.34 146.187 1518.93 146.187 1518.93 146.776C1518.93 145.01 1518.34 142.066 1518.34 140.299C1517.16 139.122 1514.81 137.355 1513.63 136.178H1513.04C1514.81 137.355 1516.57 139.122 1517.75 140.299C1517.75 142.066 1517.75 144.421 1518.34 146.187Z" fill="#3D5D82"/>
<path d="M1379.44 162.084C1378.85 162.673 1378.26 162.673 1377.67 163.262C1504.8 138.532 1504.8 138.532 1510.1 136.177V135.588C1510.1 135.588 1509.51 135.588 1508.92 135.588V136.177C1506.57 136.766 1506.57 136.766 1379.44 162.084Z" fill="#3D5D82"/>
<path d="M1403.57 233.328C1403.57 233.917 1404.16 234.506 1404.16 234.506C1477.14 187.402 1500.15 173.093 1517.22 156.607C1516.63 156.607 1516.63 156.018 1516.04 156.018C1500.15 170.738 1487.15 179.159 1403.57 233.328Z" fill="#3D5D82"/>
<path d="M1380.03 236.861C1380.62 236.272 1381.2 235.684 1382.38 235.095C1365.31 214.487 1350.03 191.776 1367.1 167.046C1367.1 167.046 1354.75 175.373 1360.04 201.28C1361.81 208.934 1367.08 221.552 1380.03 236.861Z" fill="#3D5D82"/>
<path d="M1377.08 163.851C1376.49 163.851 1375.32 164.44 1374.73 164.44C1409.45 161.496 1510.1 152.075 1511.28 152.075C1511.28 151.486 1511.28 151.486 1511.28 150.897C1466.55 155.019 1421.81 159.141 1377.08 163.851C1377.08 163.262 1377.08 163.262 1377.08 163.851Z" fill="#3D5D82"/>
<path d="M911.526 855.09C911.526 856.268 912.114 857.445 912.114 858.623C988.04 818.585 1038.66 796.211 1169.32 752.052C1168.73 750.286 1168.73 749.697 1168.73 747.342C1041.6 790.912 983.92 815.052 911.526 855.09Z" fill="#3D5D82"/>
<path d="M1089.86 1064.7C1090.45 1064.7 1091.04 1065.29 1091.63 1065.29C1112.82 956.951 1126.35 902.782 1182.86 767.949C1181.68 767.361 1180.5 766.772 1179.32 766.183C1121.06 904.549 1105.16 967.549 1089.86 1064.7C1089.27 1064.7 1089.27 1064.7 1089.86 1064.7Z" fill="#3D5D82"/>
<path d="M1181.75 718.956C1182.33 718.956 1183.51 718.368 1184.69 718.368C1185.87 591.778 1195.22 533.611 1220.53 424.685C1219.35 424.685 1218.17 425.274 1217.58 425.274C1196.39 518.302 1180.57 583.535 1181.75 718.956Z" fill="#3D5D82"/>
<path d="M1171.67 729.09C1172.85 727.324 1172.85 726.735 1174.03 724.969C1102.22 666.678 1043.95 616.042 999.81 544.209C998.632 545.975 998.632 545.975 997.455 547.742C1030.42 598.378 1062.2 640.771 1171.67 729.09Z" fill="#3D5D82"/>
<path d="M1069.26 1072.94C1069.26 1072.36 1069.85 1071.18 1070.44 1070.59C1006.29 1005.82 959.789 959.307 911.526 882.175C910.938 883.352 910.938 883.352 910.349 885.119C940.955 933.4 973.327 982.858 1069.26 1072.94Z" fill="#3D5D82"/>
<path d="M1375.91 159.729C1377.08 159.729 1377.67 159.14 1378.85 159.14C1392.39 154.43 1410.04 146.776 1424.17 143.243C1436.53 140.299 1453.01 138.533 1465.96 136.766C1414.16 140.888 1385.32 155.019 1375.91 159.729Z" fill="#3D5D82"/>
<path d="M1225.82 385.237C1226.41 385.237 1227.59 384.649 1228.17 384.649C1242.3 316.937 1260.94 230.477 1355.11 170.42C1354.52 169.831 1255.25 210.365 1225.82 385.237Z" fill="#3D5D82"/>
<path d="M1222.88 203.889C1222.29 204.477 1221.11 205.066 1220.52 205.066C1255.25 193.879 1282.91 185.636 1355.89 167.972C1356.48 167.383 1357.66 166.794 1358.25 166.794C1286.44 183.87 1259.37 192.113 1222.88 203.889C1223.47 203.889 1223.47 203.889 1222.88 203.889Z" fill="#3D5D82"/>
<path d="M1006.64 525.656C1006.64 526.244 1006.64 527.422 1006.05 528.6C1053.73 499.749 1104.58 465.311 1204.63 415.853C1204.63 414.675 1204.63 414.086 1204.63 412.32C1149.31 439.993 1079.03 479.141 1006.64 525.656C1006.64 525.067 1006.64 525.067 1006.64 525.656Z" fill="#3D5D82"/>
<path d="M1212.87 394.658C1214.05 393.48 1214.64 392.891 1215.82 391.714C1159.9 324.002 1140.48 273.366 1204.04 214.486C1203.46 214.486 1158.72 240.982 1161.67 296.329C1163.43 335.189 1194.63 372.283 1212.87 394.658Z" fill="#3D5D82"/>
<path d="M919.177 454.124C930.359 438.227 945.662 417.03 957.434 401.722C958.022 401.133 958.022 400.544 958.611 399.955C948.017 414.086 933.302 432.339 923.885 447.059C922.708 449.414 920.942 451.769 919.177 454.124Z" fill="#3D5D82"/>
<path d="M970.969 384.647C972.146 384.058 972.734 382.881 973.912 381.703C973.912 381.703 973.912 381.703 973.912 381.114C972.734 382.292 972.146 383.469 970.969 384.647Z" fill="#3D5D82"/>
<path d="M835.012 640.771C847.372 613.687 869.205 583.782 977.502 537.856C978.091 536.089 978.091 535.501 978.68 533.734C899.811 567.296 850.903 597.201 836.189 636.061C836.189 637.239 835.601 639.005 835.012 640.771Z" fill="#3D5D82"/>
<path d="M900.343 836.838C900.931 836.838 901.52 837.427 901.52 837.427C912.703 756.174 926.295 678.632 983.387 556.752C982.798 556.752 982.21 556.163 981.621 556.163C951.015 624.463 913.88 703.771 900.343 836.838Z" fill="#3D5D82"/>
<path d="M981.563 527.19C982.74 525.423 982.74 524.834 983.917 523.657C959.197 483.619 942.129 445.293 969.203 391.123C959.197 402.899 930.946 449.469 981.563 527.19Z" fill="#3D5D82"/>
<path d="M995.337 512.237C995.925 511.648 997.103 511.06 998.28 511.06C1015.35 439.816 1041.6 318.703 1192.86 219.198C1191.1 219.786 1040.66 296.74 995.337 512.237Z" fill="#3D5D82"/>
<path d="M1076.32 1286.67C1016.29 1201.3 934.479 1084.72 903.873 892.184C903.285 892.184 902.696 892.773 902.108 892.773C915.645 966.961 944.485 1121.81 1076.32 1286.67Z" fill="#3D5D82"/>
<path d="M815 736.744C814.411 764.417 814.411 798.567 886.217 857.446C886.217 855.68 886.217 855.091 886.806 852.736C845.017 816.231 810.88 782.081 815.588 731.444C815.588 733.211 815 734.977 815 736.744Z" fill="#3D5D82"/>
<path d="M830.302 1004.06C826.182 974.616 821.474 941.054 887.983 877.464C887.394 875.698 887.394 875.109 886.806 872.754C856.2 903.96 817.354 942.232 829.125 998.756C829.714 1000.52 830.302 1002.29 830.302 1004.06Z" fill="#3D5D82"/>
<path d="M1486.56 135C1481.85 135 1479.49 135 1478.9 135.588C1487.73 135 1487.73 135 1491.26 135C1489.5 135 1488.32 135 1486.56 135Z" fill="#3D5D82"/>
<path d="M1354.72 150.897C1298.21 165.028 1268.79 173.86 1219.93 201.533C1238.77 193.29 1255.84 182.103 1275.26 175.038C1307.63 163.262 1317.05 160.318 1360.6 150.308C1358.25 150.308 1356.48 150.897 1354.72 150.897Z" fill="#3D5D82"/>
<path d="M1232.88 198.001C1232.29 198.001 1232.29 198.59 1231.71 198.59C1290.56 174.449 1357.07 147.365 1458.89 136.766C1459.48 136.766 1460.07 136.766 1460.66 136.766C1404.16 143.832 1339.41 151.486 1232.88 198.001Z" fill="#3D5D82"/>
<path d="M1213.46 198.589C1211.11 199.767 1208.16 201.533 1206.99 203.888C1206.4 205.066 1206.99 206.832 1207.57 208.01C1208.75 207.421 1209.93 206.832 1211.69 206.243C1211.11 205.066 1211.11 202.122 1211.69 200.944C1212.87 199.178 1215.81 198 1218.17 196.823C1216.4 197.411 1215.23 198 1213.46 198.589Z" fill="#3D5D82"/>
<path d="M999.811 352.265L982.742 371.695C986.274 367.574 986.274 367.574 1003.93 348.144C1002.75 349.321 1001.58 350.499 999.811 352.265Z" fill="#3D5D82"/>
<path d="M989.807 365.219C989.807 365.808 989.218 365.808 989.218 366.396C1033.95 323.414 1084.57 273.956 1188.16 219.786C1188.74 219.198 1188.74 219.198 1189.33 218.609C1134.6 248.637 1066.32 286.32 989.807 365.219C989.807 365.219 990.395 365.219 989.807 365.219Z" fill="#3D5D82"/>
<path d="M1671.37 157.374C1697.85 164.44 1697.85 164.44 1697.85 164.44C1696.09 162.084 1653.71 151.486 1646.65 150.897C1647.24 150.897 1647.24 150.897 1653.71 152.664C1657.24 153.841 1664.31 155.608 1671.37 157.374Z" fill="#3D5D82"/>
<path d="M1713.84 199.24L1713.84 199.27L1713.85 199.299C1713.89 199.444 1713.85 199.476 1713.82 199.506C1713.74 199.574 1713.53 199.671 1713.09 199.7C1712.23 199.758 1710.79 199.541 1708.74 198.92C1704.68 197.685 1698.39 194.91 1689.88 189.918C1689.06 189.411 1688.27 188.922 1687.5 188.449C1686.04 187.545 1684.67 186.698 1683.42 185.88C1681.51 184.632 1679.93 183.478 1678.79 182.338L1678.77 182.325L1678.76 182.312C1677.74 181.436 1677.1 180.798 1676.74 180.338C1676.55 180.108 1676.45 179.938 1676.4 179.818C1676.38 179.781 1676.37 179.752 1676.36 179.73C1676.39 179.723 1676.42 179.713 1676.47 179.704C1676.67 179.662 1676.94 179.659 1677.24 179.659C1679.51 179.804 1682.9 180.807 1686.76 182.338C1690.61 183.866 1694.87 185.899 1698.87 188.063C1702.87 190.227 1706.58 192.514 1709.32 194.547C1710.69 195.565 1711.81 196.509 1712.6 197.335C1712.99 197.747 1713.29 198.121 1713.5 198.451C1713.72 198.786 1713.82 199.048 1713.84 199.24ZM1676.31 179.755C1676.31 179.755 1676.31 179.752 1676.32 179.748C1676.32 179.753 1676.31 179.755 1676.31 179.755Z" stroke="#3D5D82"/>
<path d="M1750.89 752.219C1744.88 758.783 1734.94 760.768 1726.23 757.703C1717.63 754.671 1710.21 746.671 1709.36 733.136C1709.08 725.503 1711.2 719.131 1715.1 714.614C1718.98 710.117 1724.73 707.332 1731.99 707.039C1745.33 707.619 1752.78 715.762 1755.56 725.385C1758.4 735.161 1756.35 746.212 1750.89 752.219Z" stroke="#3D5D82" stroke-width="3"/>
<path d="M1507.75 135C1508.92 135 1510.1 135.589 1511.87 135.589C1513.63 136.177 1515.4 136.177 1515.4 136.177C1514.81 135.589 1510.1 134.411 1504.21 134.411C1504.8 135 1505.98 135 1507.75 135Z" fill="#3D5D82"/>
<path d="M1614.31 484.953L1614.3 484.961L1614.29 484.969C1609.46 490.882 1600.11 493.196 1591.46 491.086C1582.91 489 1575.36 482.661 1573.98 471.602C1573.13 464.864 1574.69 459.287 1578.1 455.409C1581.5 451.539 1586.93 449.155 1594.23 449.147C1605.97 449.719 1613.11 456.107 1616.28 463.612C1619.5 471.238 1618.57 479.884 1614.31 484.953Z" stroke="#3D5D82" stroke-width="3"/>
<path d="M1519.52 156.874C1515.63 156.874 1512.34 154.102 1511.78 150.848C1511.77 150.751 1511.75 150.622 1511.74 150.501C1511.74 150.48 1511.73 150.459 1511.73 150.439C1511.71 150.256 1511.68 150.034 1511.67 149.786C1511.63 149.285 1511.63 148.698 1511.76 148.141C1511.89 147.589 1512.14 147.092 1512.59 146.731C1513.03 146.37 1513.72 146.098 1514.81 146.098C1516.15 146.098 1517.38 146.635 1518.45 147.278C1518.98 147.595 1519.46 147.931 1519.89 148.234L1519.9 148.243L1519.92 148.253C1520.31 148.528 1520.68 148.791 1521 148.96C1522.96 150.656 1523.85 152.693 1523.66 154.221C1523.56 154.975 1523.21 155.62 1522.56 156.086C1521.91 156.558 1520.92 156.874 1519.52 156.874Z" stroke="#3D5D82"/>
<path d="M1395.86 231.382L1395.89 231.384H1395.92C1397.65 231.384 1398.69 231.388 1400.26 231.903C1402.08 232.774 1403.06 234.32 1403.34 236.327C1403.63 238.395 1403.16 240.944 1401.99 243.597C1399.66 248.901 1394.71 254.268 1388.54 256.521C1383.96 257.946 1379.3 257.872 1376.48 256.236C1375.12 255.441 1374.19 254.285 1373.86 252.709C1373.52 251.101 1373.78 248.934 1375.05 246.107C1378.51 238.613 1385.87 230.827 1395.86 231.382Z" stroke="#3D5D82" stroke-width="2"/>
<path d="M1170.23 743.285L1170.23 743.275L1170.23 743.266C1170.51 733.893 1173.77 727.214 1178.24 722.88C1182.71 718.538 1188.5 716.466 1194.01 716.458C1200.56 716.744 1205.29 719.035 1208.56 722.398C1211.86 725.788 1213.78 730.379 1214.48 735.406C1215.9 745.542 1212.31 756.935 1205.98 762.72L1205.97 762.722C1199.33 768.819 1190.09 770.303 1182.71 767.158C1175.42 764.054 1169.66 756.302 1170.23 743.285Z" stroke="#3D5D82" stroke-width="3"/>
<path d="M1207.8 405.796L1207.8 405.796L1207.8 405.788C1212.36 393.813 1223.07 385.01 1233.98 385.556L1234.02 385.558H1234.06C1235.24 385.558 1236.77 385.567 1238.27 386.063C1240.95 387.042 1242.56 389.119 1243.24 391.979C1243.94 394.9 1243.65 398.604 1242.41 402.522C1239.94 410.375 1233.86 418.522 1225.79 422.138L1225.79 422.142C1219.59 424.959 1213.44 424.807 1209.76 422.209C1206.28 419.748 1204.4 414.582 1207.8 405.796Z" stroke="#3D5D82" stroke-width="3"/>
<path d="M1385.45 158.188C1385.39 158.24 1385.32 158.294 1385.24 158.349C1384.39 158.986 1383.14 159.756 1381.6 160.61C1378.53 162.315 1374.38 164.31 1370.09 166.181C1365.8 168.052 1361.39 169.791 1357.8 170.987C1356 171.585 1354.43 172.043 1353.19 172.314C1352.57 172.45 1352.04 172.536 1351.62 172.572C1351.21 172.607 1350.95 172.588 1350.82 172.556C1350.9 172.461 1351.01 172.34 1351.16 172.193C1351.43 171.941 1351.8 171.646 1352.28 171.309C1354.21 169.951 1357.69 168.062 1362.68 165.711C1367.36 163.661 1372.34 161.758 1376.65 160.369C1380.3 159.192 1383.41 158.408 1385.45 158.188Z" stroke="#3D5D82" stroke-width="1.5"/>
<path d="M1002.67 510.812L1002.77 510.86L1002.87 510.893C1005.13 511.648 1006.55 513.877 1006.9 517.633C1007.25 521.362 1006.48 526.182 1004.79 531.22C1003.11 536.239 1000.54 541.364 997.412 545.684C994.272 550.016 990.632 553.44 986.832 555.208C984.382 556.295 982.336 556.525 980.765 556.161C979.239 555.808 978.003 554.861 977.16 553.234C975.403 549.844 975.36 543.451 978.851 534.137C981.435 527.244 985.157 521.39 989.194 517.21C993.244 513.016 997.459 510.657 1001.04 510.382C1001.3 510.382 1001.46 510.387 1001.65 510.426C1001.86 510.468 1002.17 510.563 1002.67 510.812Z" stroke="#3D5D82" stroke-width="3"/>
<path d="M1479.49 135.588C1467.13 136.177 1458.31 137.355 1456.54 137.355C1472.43 136.766 1487.73 135 1503.63 135C1495.97 135 1487.73 135 1479.49 135.588Z" fill="#3D5D82"/>
<path d="M910.329 876.347C909.508 881.772 907.91 886.226 905.677 888.856C904.132 890.658 902.413 891.47 900.747 891.513C899.069 891.555 897.196 890.823 895.352 889.044C891.627 885.45 888.297 877.807 887.716 865.622C887.426 858.65 888.016 851.642 889.775 846.364C891.543 841.058 894.282 838.022 898.007 837.751C901.044 837.901 903.729 840.05 905.925 843.949C908.125 847.855 909.649 853.225 910.407 859.038C911.163 864.836 911.143 870.969 910.329 876.347Z" stroke="#3D5D82" stroke-width="3"/>
<path d="M1205.22 209.187C1197.57 213.309 1188.15 218.608 1187.57 220.374C1189.92 221.552 1231.71 199.767 1233.47 196.823C1233.47 196.823 1233.47 196.823 1232.89 196.823C1229.94 196.823 1217.58 202.711 1205.22 209.187Z" fill="#3D5D82"/>
<path d="M972.149 383.471C966.851 389.948 956.846 402.313 956.846 404.079C959.2 404.079 990.983 365.807 990.983 363.452C989.217 364.041 979.8 374.051 972.149 383.471Z" fill="#3D5D82"/>
<path d="M846.193 654.903C845.604 655.492 845.604 656.081 845.015 656.669C859.141 577.182 869.147 539.499 919.764 454.124C921.53 451.769 922.707 449.414 924.473 447.059C875.033 528.901 861.495 563.64 846.193 654.903C846.193 654.903 846.193 654.314 846.193 654.903Z" fill="#3D5D82"/>
<path d="M970.972 384.649C972.15 383.471 972.738 382.294 973.915 381.116C977.447 379.938 982.155 378.172 1043.37 375.817C1042.78 376.994 1041.6 378.172 1041.01 379.35C1006.29 380.527 974.504 382.294 970.972 384.649Z" fill="#3D5D82"/>
<path d="M840.72 672.62C840.131 673.798 840.131 674.975 839.543 676.742C833.657 659.667 832.069 654.313 835.012 640.182C835.601 638.415 835.601 637.238 836.189 635.471C834.423 652.547 834.834 657.9 840.72 672.62Z" fill="#3D5D82"/>
<path d="M814.999 736.744C814.999 734.977 815.587 733.211 815.587 732.033C822.062 707.893 823.65 707.537 837.187 688.106C837.187 689.284 837.187 691.05 836.598 692.228C834.244 698.116 827.359 703.182 824.416 708.481C819.707 715.547 816.765 727.912 814.999 736.744Z" fill="#3D5D82"/>
<path d="M1354.72 150.897C1356.48 150.308 1358.25 150.308 1360.6 149.72C1404.75 141.476 1424.76 137.944 1479.49 135C1420.64 137.944 1375.9 146.776 1354.72 150.897Z" fill="#3D5D82"/>
<path d="M1213.46 198.589C1214.64 198 1216.4 197.412 1217.58 196.823C1225.82 193.879 1236.42 189.757 1278.79 182.692C1277.62 183.28 1276.44 183.869 1275.26 184.458C1271.14 185.636 1265.84 186.224 1261.72 186.813C1258.19 187.402 1227 192.701 1213.46 198.589Z" fill="#3D5D82"/>
<path d="M999.812 352.264C1000.99 351.087 1002.75 349.32 1003.93 348.143C1037.48 316.348 1107.52 249.226 1266.43 189.169C1255.84 195.646 1239.36 200.356 1227.59 205.067C1196.39 218.02 1147.54 242.16 1121.65 258.646C1058.08 297.507 1027.47 322.825 999.812 352.264Z" fill="#3D5D82"/>
<path d="M1300.57 174.449C1299.98 174.449 1299.39 175.038 1298.8 175.038C1350.01 153.841 1382.97 142.065 1471.84 135.588C1472.43 135.588 1473.61 135.588 1474.2 135.588C1414.16 140.888 1371.2 144.42 1300.57 174.449Z" fill="#3D5D82"/>
<path d="M1288.21 183.281C1291.74 181.514 1294.09 180.925 1406.51 176.215C1405.92 176.804 1405.92 177.393 1405.33 177.393C1365.9 179.748 1327.05 180.925 1288.21 183.281Z" fill="#3D5D82"/>
<path d="M835.601 1003.47C822.064 934.577 808.582 847.204 839.188 702.361C824.473 787.147 807.938 869.221 835.601 1003.47Z" fill="#3D5D82"/>
<path d="M850.08 662.665C850.08 662.076 883.861 544.209 1034.54 392.89C1034.54 393.479 1034.54 394.068 1034.54 394.068C962.73 470.022 901.285 543.73 850.08 662.665Z" fill="#3D5D82"/>
<path d="M1050.43 710.837C1050.43 712.014 1049.84 713.192 1049.84 714.37C1016.88 711.426 902.462 703.648 846.548 687.162C847.136 685.984 847.136 684.218 847.725 683.04C883.628 692.461 929.77 696.706 1050.43 710.837Z" fill="#3D5D82"/>
<path d="M841.483 1017.6C840.895 1016.42 807.346 907.493 1050.43 726.145C1050.43 727.323 1051.01 728.5 1051.01 729.089C963.906 799.155 843.838 894.539 841.483 1017.6Z" fill="#3D5D82"/>
<path d="M1062.79 690.818C1062.2 691.407 1061.02 691.995 1059.84 693.173C1038.07 622.518 1005.7 515.358 1044.54 395.245C1045.13 394.656 1046.31 394.068 1047.48 393.479C1023.94 478.853 1018.64 555.396 1062.79 690.818C1062.79 690.818 1063.38 690.229 1062.79 690.818Z" fill="#3D5D82"/>
<path d="M1068.09 356.976C1067.5 356.976 1067.5 356.976 1066.91 356.976C1106.93 308.694 1156.37 248.637 1262.31 192.702H1263.49C1207.58 224.497 1144.6 259.824 1068.09 356.976Z" fill="#3D5D82"/>
<path d="M1256.43 344.021C1255.84 344.61 1255.25 345.199 1254.07 345.788C1234.65 311.049 1198.75 246.281 1272.32 189.757C1273.49 189.168 1274.67 188.579 1275.85 188.579C1248.19 211.542 1202.28 249.814 1256.43 344.021C1256.43 343.433 1256.43 343.433 1256.43 344.021Z" fill="#3D5D82"/>
<path d="M1063.37 376.993C1063.96 376.404 1064.55 375.227 1065.14 374.638C1091.63 371.105 1116.35 367.572 1246.42 356.974C1245.83 358.74 1245.83 358.74 1245.24 359.918C1145.77 368.161 1113.4 371.105 1063.37 376.993Z" fill="#3D5D82"/>
<path d="M1138.71 1020.54C1138.12 1020.54 1137.53 1021.13 1136.95 1021.13C1120.47 975.204 1080.74 879.409 1065.44 741.043C1066.62 741.043 1067.79 740.454 1068.97 739.866C1077.8 804.044 1093.98 893.362 1138.71 1020.54Z" fill="#3D5D82"/>
<path d="M1081.03 689.64C1079.85 689.052 1078.68 688.463 1078.09 688.463C1123.41 577.181 1157.49 496.408 1245.19 369.818C1245.77 369.818 1246.36 370.407 1246.36 370.407C1175.15 478.744 1138.12 548.331 1081.03 689.64Z" fill="#3D5D82"/>
<path d="M1458.89 773.248C1458.31 773.837 1457.72 773.837 1457.13 774.426C1294.09 530.078 1272.32 417.03 1264.08 374.637C1265.25 374.049 1266.43 373.46 1267.61 372.871C1288.8 472.965 1319.99 550.097 1458.89 773.248C1458.89 773.248 1459.48 773.248 1458.89 773.248Z" fill="#3D5D82"/>
<path d="M1276.44 338.722C1275.85 338.722 1275.26 338.133 1274.67 338.133C1301.16 299.273 1339.59 236.806 1401.39 182.637H1401.98C1370.2 213.843 1334.12 251.581 1276.44 338.722Z" fill="#3D5D82"/>
<path d="M1277.74 361.026C1277.74 359.849 1278.32 358.671 1278.32 358.082C1367.2 338.064 1461.25 312.815 1550.12 292.796C1550.12 293.385 1550.71 294.562 1551.3 295.74C1461.25 315.17 1367.2 340.419 1277.74 361.026Z" fill="#3D5D82"/>
<path d="M1164.02 1032.9C1163.43 1032.32 1162.84 1031.14 1162.26 1029.96C1195.8 998.755 1258.78 941.054 1447.71 812.108C1448.3 813.286 1448.89 814.464 1449.48 815.052C1225.23 977.559 1225.23 977.559 1164.02 1032.9Z" fill="#3D5D82"/>
<path d="M1551.3 280.432C1551.3 281.021 1550.71 281.609 1550.71 282.198C1464.78 233.328 1437.35 208.544 1417.93 179.693C1418.52 179.105 1419.11 178.516 1420.28 178.516C1440.88 208.544 1467.14 230.973 1551.3 280.432Z" fill="#3D5D82"/>
<path d="M1412.63 172.682C1412.04 173.271 1411.45 173.271 1410.86 173.86C1401.45 166.795 1374.73 147.953 1441.83 138.532C1457.13 136.177 1473.61 135.588 1483.61 135.588C1484.79 135.588 1486.56 135.588 1487.73 135.588C1413.57 138.532 1385.91 149.719 1406.51 169.15C1407.69 170.327 1410.52 172.682 1412.63 172.682Z" fill="#3D5D82"/>
<path d="M1425.35 173.271C1425.35 172.683 1425.93 172.094 1425.93 172.094C1432.41 169.739 1440.65 167.384 1447.12 165.028C1501.27 147.953 1515.99 142.654 1517.75 136.766C1515.99 135.589 1513.04 135 1510.69 134.411C1516.57 135 1516.57 135 1518.93 137.355C1515.4 143.832 1506.57 148.542 1425.35 173.271Z" fill="#3D5D82"/>
<path d="M1571.9 275.133C1570.72 274.544 1570.13 274.544 1568.96 273.955C1576.02 229.207 1588.97 146.187 1517.75 135.588C1553.65 139.71 1591.91 166.795 1571.9 275.133Z" fill="#3D5D82"/>
<path d="M1481.26 771.482C1480.08 770.893 1478.32 770.893 1476.55 770.305C1537.17 500.639 1557.19 409.965 1564.84 306.927C1565.43 306.927 1566.6 307.516 1567.19 307.516C1560.13 414.087 1544.83 482.975 1481.26 771.482Z" fill="#3D5D82"/>
<path d="M1494.21 778.548C1493.62 777.959 1492.44 776.781 1491.85 776.192C1685.49 560.695 1685.49 560.695 1739.64 478.265C1740.23 478.853 1741.41 479.442 1741.99 480.031C1690.79 561.873 1640.17 623.107 1494.21 778.548Z" fill="#3D5D82"/>
<path d="M1516.57 1054.69C1515.4 1054.69 1514.22 1055.28 1513.04 1055.28C1493.62 945.765 1476.55 838.604 1474.2 826.828C1476.55 826.828 1477.14 826.828 1478.91 826.24C1491.85 902.194 1504.8 978.737 1516.57 1054.69C1517.16 1054.69 1517.16 1054.69 1516.57 1054.69Z" fill="#3D5D82"/>
<path d="M1910.92 823.296C1910.92 823.884 1910.92 825.062 1910.92 825.651C1774.37 821.529 1637.82 809.753 1501.27 802.099C1501.27 799.155 1501.27 799.155 1501.27 797.389C1692.56 807.987 1788.49 813.875 1910.92 823.296C1910.92 823.296 1910.92 822.707 1910.92 823.296Z" fill="#3D5D82"/>
<path d="M1543.65 1069.41C1543.06 1068.23 1542.47 1067.05 1541.88 1065.88C1707.86 975.203 1810.27 915.147 1912.68 839.193C1913.27 840.37 1913.86 842.137 1914.45 843.314C1820.86 911.025 1745.53 959.306 1543.65 1069.41Z" fill="#3D5D82"/>
<path d="M1733.76 444.116C1733.17 444.704 1732.58 445.293 1731.99 446.471C1681.37 398.778 1630.76 352.264 1580.14 304.571C1581.32 303.983 1581.32 303.394 1581.9 302.805C1632.52 349.909 1683.73 396.423 1733.76 444.116Z" fill="#3D5D82"/>
<path d="M1576.61 278.077C1575.43 277.488 1575.43 276.899 1574.25 276.31C1599.56 228.029 1616.08 187.4 1583.12 154.428C1589.59 156.783 1604.86 175.626 1603.68 199.767C1601.92 226.263 1593.68 246.282 1576.61 278.077Z" fill="#3D5D82"/>
<path d="M1584.26 289.263C1584.26 288.674 1583.67 287.497 1583.67 286.908C1729.05 258.646 1729.05 258.646 1762.01 249.225C1762.6 249.814 1763.19 250.403 1763.77 250.992C1748.47 256.291 1712.57 267.478 1584.26 289.263Z" fill="#3D5D82"/>
<path d="M1983.31 397.6C1982.72 397.6 1982.13 397.6 1981.54 397.6C1906.79 294.562 1836.17 223.907 1693.14 167.972C1806.15 212.72 1890.31 265.122 1983.31 397.6Z" fill="#3D5D82"/>
<path d="M1769.07 239.805C1767.9 239.216 1766.72 238.627 1766.13 238.038C1761.42 233.917 1759.66 225.674 1756.71 220.375C1742.59 193.879 1701.98 174.449 1681.96 165.028C1697.27 169.738 1725.52 187.402 1729.64 190.935C1754.95 212.131 1755.54 213.309 1769.07 239.805Z" fill="#3D5D82"/>
<path d="M1752 236.272V236.861C1688.44 200.356 1653.71 181.514 1591.32 156.196L1590.73 155.607C1649.59 179.748 1686.08 198.001 1752 236.272Z" fill="#3D5D82"/>
<path d="M1917.39 1092.96C1916.8 1092.96 1915.62 1092.96 1914.45 1092.96C1926.22 1019.95 1934.46 967.55 1931.51 855.09C1933.28 855.09 1933.28 855.09 1935.05 854.502C1936.22 929.867 1936.81 988.747 1917.39 1092.96Z" fill="#3D5D82"/>
<path d="M1658.42 156.785C1659.6 156.785 1660.18 157.374 1661.36 157.374C1636.64 152.075 1570.13 139.121 1513.63 135C1513.04 135 1512.45 135 1511.86 135C1569.54 139.121 1636.05 152.664 1658.42 156.785C1657.83 156.785 1657.83 156.785 1658.42 156.785Z" fill="#3D5D82"/>
<path d="M1563.07 146.187C1550.12 142.654 1532.46 138.533 1519.52 136.178H1518.93C1531.88 137.944 1549.53 142.066 1563.07 146.187C1562.48 146.187 1562.48 146.187 1563.07 146.187Z" fill="#3D5D82"/>
<path d="M1663.72 158.552C1664.89 159.141 1664.89 159.141 1667.25 159.729C1651.94 157.963 1632.52 156.197 1584.26 152.075C1583.67 151.486 1582.49 151.486 1581.9 150.897C1601.92 152.664 1635.46 155.608 1663.72 158.552C1663.72 158.552 1663.13 158.552 1663.72 158.552Z" fill="#3D5D82"/>
<path d="M1978.01 401.134C1978.01 401.723 1978.01 401.723 1978.01 402.311C1932.69 364.04 1874.78 316.758 1787.67 262C1787.67 261.411 1787.67 260.823 1787.67 260.234C1830.64 287.907 1903.85 332.834 1978.01 401.134Z" fill="#3D5D82"/>
<path d="M1760.83 445.882C1759.65 444.705 1759.06 444.705 1757.3 443.527C1775.54 394.657 1800.85 328.123 1774.37 259.234C1774.95 259.823 1814.98 313.992 1760.83 445.882Z" fill="#3D5D82"/>
<path d="M1744.64 709.891C1743.46 708.713 1742.88 708.713 1741.11 707.535C1759.36 658.666 1780.27 552.591 1753.79 483.702C1757.89 486.016 1759.53 483.702 1759.53 483.702C1771.4 529.555 1781.79 619.412 1744.64 709.891Z" fill="#3D5D82"/>
<path d="M1924.45 799.744C1923.86 799.744 1923.28 800.333 1922.69 800.333C1880.9 696.706 1853.24 628.406 1763.19 484.152C1764.36 483.563 1764.95 482.975 1766.13 482.975C1821.45 571.882 1875.01 663.145 1924.45 799.744C1924.45 799.744 1925.04 799.744 1924.45 799.744Z" fill="#3D5D82"/>
<path d="M1771.42 461.779C1771.42 461.19 1770.84 460.012 1770.25 458.835C1951.53 428.218 1951.53 428.218 1985.67 419.386C1986.25 420.563 1987.43 421.741 1988.02 422.918C1949.76 432.339 1901.5 443.526 1771.42 461.779Z" fill="#3D5D82"/>
<path d="M1893.85 254.524L1910.91 266.3C1903.26 261.001 1895.61 255.113 1887.37 249.814C1889.14 251.58 1891.49 253.347 1893.85 254.524Z" fill="#3D5D82"/>
<path d="M1909.74 266.889C1910.33 267.478 1910.92 268.067 1911.51 268.656C1840.88 223.907 1794.97 199.178 1690.79 166.206C1690.2 166.206 1689.03 165.617 1688.44 165.028C1784.96 195.645 1832.64 217.431 1909.74 266.889C1909.74 266.889 1909.15 266.889 1909.74 266.889Z" fill="#3D5D82"/>
<path d="M1618.98 144.42C1633.7 147.364 1656.07 151.486 1669.6 158.551C1662.54 156.785 1656.65 153.252 1649.59 151.486C1642.53 149.72 1631.93 146.776 1614.28 143.832C1615.45 143.832 1617.22 144.42 1618.98 144.42Z" fill="#3D5D82"/>
<path d="M1702.56 163.851C1696.68 162.673 1691.38 162.084 1676.08 160.907C1674.9 160.318 1673.14 160.318 1671.96 159.729C1686.67 160.907 1691.97 161.496 1697.86 162.673C1699.62 162.673 1700.8 163.262 1702.56 163.851Z" fill="#3D5D82"/>
<path d="M836.647 704.164L836.638 704.144L836.628 704.125C836.089 703.114 835.746 701.56 835.602 699.56C835.458 697.572 835.514 695.192 835.738 692.563C836.186 687.305 837.302 681.095 838.806 675.116C840.309 669.136 842.195 663.409 844.173 659.113C845.163 656.963 846.168 655.191 847.148 653.928C848.076 652.732 848.92 652.074 849.642 651.895C849.859 652.029 850.153 652.277 850.451 652.789C850.829 653.438 851.219 654.524 851.435 656.359C851.867 660.033 851.585 666.594 849.235 678.351C846.591 690.398 843.664 697.838 841.208 701.739C839.968 703.71 838.902 704.689 838.128 704.978C837.764 705.113 837.497 705.086 837.29 704.978C837.07 704.863 836.84 704.615 836.647 704.164Z" stroke="#3D5D82"/>
<path d="M1494.8 135C1484.2 135 1477.14 135.588 1467.72 136.177C1467.72 136.177 1482.44 135 1504.8 135C1501.27 135 1497.74 135 1494.8 135Z" fill="#3D5D82"/>
<path d="M1288.8 182.692C1271.73 190.346 1262.9 193.879 1261.72 192.701C1261.72 189.169 1299.39 173.86 1306.45 173.271C1306.45 173.271 1306.45 173.271 1307.04 173.271C1305.87 174.449 1304.1 175.626 1288.8 182.692Z" fill="#3D5D82"/>
<path d="M1062.58 376.394L1062.57 376.398C1054.98 386.629 1048.03 392.384 1043 394.865C1040.46 396.115 1038.53 396.477 1037.29 396.291C1036.68 396.201 1036.28 395.989 1036.03 395.73C1035.77 395.475 1035.59 395.104 1035.53 394.559L1035.53 394.546L1035.53 394.534C1035.41 393.564 1035.59 392.262 1036.11 390.668C1036.62 389.089 1037.44 387.295 1038.5 385.372C1040.63 381.527 1043.71 377.242 1047.21 373.236C1050.7 369.229 1054.59 365.531 1058.3 362.845C1062.05 360.129 1065.47 358.564 1068.09 358.564H1068.13L1068.18 358.56C1068.86 358.497 1069.3 358.594 1069.58 358.734C1069.83 358.863 1070.02 359.066 1070.14 359.391C1070.43 360.123 1070.39 361.41 1069.85 363.244C1068.79 366.835 1066.07 371.73 1062.58 376.394Z" stroke="#3D5D82" stroke-width="2"/>
<path d="M1088.94 714.758L1088.93 714.772L1088.93 714.787C1087.39 728.165 1080.53 736.187 1072.99 739.334C1065.41 742.497 1057.09 740.81 1052.16 734.63L1052.15 734.614L1052.13 734.598C1046.87 728.379 1045.98 717.226 1049.46 707.284C1052.91 697.43 1060.43 689.369 1071.34 688.787C1076.71 689.08 1081.65 691.151 1084.97 695.224C1088.29 699.309 1090.17 705.628 1088.94 714.758Z" stroke="#3D5D82" stroke-width="3"/>
<path d="M1278.05 358.633L1278.04 358.654L1278.03 358.675C1273.51 367.997 1266.08 373.138 1259.39 374.724C1252.58 376.341 1247.13 374.244 1245.47 369.981C1244.75 368.043 1244.78 365.239 1245.7 361.957C1246.6 358.705 1248.32 355.148 1250.73 351.818C1255.54 345.156 1262.94 339.63 1271.73 339.046C1276.55 339.337 1279.41 341.434 1280.55 344.535C1281.74 347.794 1281.2 352.626 1278.05 358.633Z" stroke="#3D5D82" stroke-width="3"/>
<path d="M1400.71 181.062L1400.71 181.055L1400.71 181.047C1401.04 179.93 1402.19 178.592 1403.99 177.208C1405.77 175.84 1408.11 174.487 1410.69 173.316C1415.84 170.976 1421.83 169.416 1426.09 169.868C1427.12 170.196 1427.55 170.634 1427.68 171.044C1427.83 171.474 1427.72 172.064 1427.27 172.828C1426.37 174.353 1424.32 176.166 1421.94 177.829C1416.21 181.83 1410.48 183.45 1406.37 183.595C1404.31 183.667 1402.7 183.366 1401.72 182.854C1401.23 182.599 1400.92 182.309 1400.77 182.022C1400.62 181.748 1400.58 181.436 1400.71 181.062Z" stroke="#3D5D82"/>
<path d="M1500.74 799.04C1500.45 812.996 1492.25 821.301 1482.33 824.418C1472.3 827.572 1460.64 825.379 1453.62 818.352C1446.27 811.002 1443.97 799.48 1447.18 789.64C1450.35 779.918 1458.91 771.812 1473.5 771.217C1480.09 771.516 1486.9 773.814 1492.05 778.328C1497.17 782.822 1500.73 789.586 1500.74 799.04Z" stroke="#3D5D82" stroke-width="3"/>
<path d="M1557.24 302.037L1557.22 302.028L1557.21 302.02C1551.9 297.827 1549.69 291.416 1550.59 285.89C1551.48 280.438 1555.39 275.801 1562.54 274.954H1562.54H1562.54H1562.55H1562.55H1562.55H1562.56H1562.56H1562.56H1562.57H1562.57H1562.57H1562.58H1562.58H1562.58H1562.59H1562.59H1562.59H1562.6H1562.6H1562.6H1562.61H1562.61H1562.61H1562.62H1562.62H1562.63H1562.63H1562.63H1562.64H1562.64H1562.64H1562.65H1562.65H1562.65H1562.66H1562.66H1562.66H1562.67H1562.67H1562.67H1562.68H1562.68H1562.68H1562.69H1562.69H1562.69H1562.7H1562.7H1562.7H1562.71H1562.71H1562.71H1562.72H1562.72H1562.73H1562.73H1562.73H1562.74H1562.74H1562.74H1562.75H1562.75H1562.75H1562.76H1562.76H1562.76H1562.77H1562.77H1562.77H1562.78H1562.78H1562.78H1562.79H1562.79H1562.79H1562.8H1562.8H1562.8H1562.81H1562.81H1562.82H1562.82H1562.82H1562.83H1562.83H1562.83H1562.84H1562.84H1562.84H1562.85H1562.85H1562.85H1562.86H1562.86H1562.86H1562.87H1562.87H1562.87H1562.88H1562.88H1562.88H1562.89H1562.89H1562.89H1562.9H1562.9H1562.9H1562.91H1562.91H1562.92H1562.92H1562.92H1562.93H1562.93H1562.93H1562.94H1562.94H1562.94H1562.95H1562.95H1562.95H1562.96H1562.96H1562.96H1562.97H1562.97H1562.97H1562.98H1562.98H1562.98H1562.99H1562.99H1562.99H1563H1563H1563H1563.01H1563.01H1563.02H1563.02H1563.02H1563.03H1563.03H1563.03H1563.04H1563.04H1563.04H1563.05H1563.05H1563.05H1563.06H1563.06H1563.06H1563.07H1563.07H1563.07H1563.08H1563.08H1563.08H1563.09H1563.09H1563.09H1563.1H1563.1H1563.1H1563.11H1563.11H1563.12H1563.12H1563.12H1563.13H1563.13H1563.13H1563.14H1563.14H1563.14H1563.15H1563.15H1563.15H1563.16H1563.16H1563.16H1563.17H1563.17H1563.17H1563.18H1563.18H1563.18H1563.19H1563.19H1563.19H1563.2H1563.2H1563.2H1563.21H1563.21H1563.22H1563.22H1563.22H1563.23H1563.23H1563.23H1563.24H1563.24H1563.24H1563.25H1563.25H1563.25H1563.26H1563.26H1563.26H1563.27H1563.27H1563.27H1563.28H1563.28H1563.28H1563.29H1563.29H1563.29H1563.3H1563.3H1563.3H1563.31H1563.31H1563.32H1563.32H1563.32H1563.33H1563.33H1563.33H1563.34H1563.34H1563.34H1563.35H1563.35H1563.35H1563.36H1563.36H1563.36H1563.37H1563.37H1563.37H1563.38H1563.38H1563.38H1563.39H1563.39H1563.39H1563.4H1563.4H1563.4H1563.41H1563.41H1563.42H1563.42H1563.42H1563.43H1563.43H1563.43H1563.44H1563.44H1563.44H1563.45H1563.45H1563.45H1563.46H1563.46H1563.46H1563.47H1563.47H1563.47H1563.48H1563.48H1563.48H1563.49H1563.49H1563.49H1563.5H1563.5H1563.5H1563.51H1563.51H1563.52H1563.52H1563.52H1563.53H1563.53H1563.53H1563.54H1563.54H1563.54H1563.55H1563.55H1563.55H1563.56H1563.56H1563.56H1563.57H1563.57H1563.57H1563.58H1563.58H1563.58H1563.59H1563.59H1563.59H1563.6H1563.6H1563.6H1563.61H1563.61H1563.62H1563.62H1563.62H1563.63H1563.63H1563.63H1563.64H1563.64H1563.64H1563.65H1563.65H1563.65H1563.66H1563.66H1563.66H1563.67H1563.67H1563.67H1563.68H1563.68H1563.68H1563.69H1563.69H1563.69H1563.7H1563.7H1563.7H1563.71H1563.71H1563.72H1563.72H1563.72H1563.73H1563.73H1563.73H1563.74H1563.74H1563.74H1563.75H1563.75H1563.75H1563.76H1563.76H1563.76H1563.77H1563.77H1563.77H1563.78H1563.78H1563.78H1563.79H1563.79H1563.79H1563.8H1563.8H1563.8H1563.81H1563.81H1563.82H1563.82H1563.82H1563.83H1563.83H1563.83H1563.84H1563.84H1563.84H1563.85H1563.85H1563.85H1563.86H1563.86H1563.86H1563.87H1563.87H1563.87H1563.88H1563.88H1563.88H1563.89H1563.89H1563.89H1563.9H1563.9H1563.9H1563.91H1563.91H1563.92H1563.92H1563.92H1563.93H1563.93H1563.93H1563.94H1563.94H1563.94H1563.95H1563.95H1563.95H1563.96H1563.96H1563.96H1563.97H1563.97H1563.97H1563.98H1563.98H1563.98H1563.99H1563.99H1563.99H1564H1564H1564H1564.01H1564.01H1564.02H1564.02H1564.02H1564.03H1564.03H1564.03H1564.04H1564.04H1564.04H1564.05H1564.05H1564.05H1564.06H1564.06H1564.06H1564.07H1564.07H1564.07H1564.08H1564.08H1564.08H1564.09H1564.09H1564.09H1564.1H1564.1H1564.1H1564.11H1564.11H1564.12H1564.12H1564.12H1564.13H1564.13H1564.13H1564.14H1564.14H1564.14H1564.15H1564.15H1564.15H1564.16H1564.16H1564.16H1564.17H1564.17H1564.17H1564.18H1564.18H1564.18H1564.19H1564.19H1564.19H1564.2H1564.2H1564.2H1564.21H1564.21H1564.22H1564.22H1564.22H1564.23H1564.23H1564.23H1564.24H1564.24H1564.24H1564.25C1574.3 274.954 1582.16 282.199 1583.86 292.36C1584.41 296.265 1583.64 299.273 1582.09 301.488C1580.54 303.717 1578.15 305.24 1575.31 306.037C1569.59 307.642 1562.28 306.241 1557.24 302.037Z" stroke="#3D5D82" stroke-width="2"/>
<path d="M1508.33 135C1514.81 135 1518.93 135.588 1518.93 136.177C1518.93 136.177 1518.93 136.177 1517.16 136.177C1514.81 136.177 1513.04 135.588 1510.69 135.588C1507.75 135.588 1505.39 135.588 1503.63 135.588C1505.39 135 1507.16 135 1508.33 135Z" fill="#3D5D82"/>
<path d="M1741.17 442.04L1741.23 442.025L1741.29 442.005C1742.78 441.508 1744.31 441.494 1745.49 441.493C1757.07 442.063 1767.73 451.499 1770.55 464.449C1771.52 469.068 1771.15 472.83 1769.92 475.73C1768.7 478.622 1766.59 480.752 1763.92 482.072C1758.54 484.727 1750.72 484.152 1743.4 479.365C1736.18 474.637 1731.69 466.097 1731.06 458.273C1730.74 454.376 1731.4 450.76 1733.04 447.92C1734.66 445.114 1737.3 442.975 1741.17 442.04Z" stroke="#3D5D82" stroke-width="3"/>
<path d="M1565.62 146.559C1567.04 146.803 1568.91 147.252 1571.03 147.864C1574.31 148.812 1578.1 150.126 1581.6 151.584C1585.42 153.346 1587.87 154.647 1589.21 155.564C1589.5 155.763 1589.72 155.932 1589.88 156.072C1589.48 156.072 1588.9 156.038 1588.06 155.898C1586.37 155.616 1583.63 154.9 1579.25 153.15L1579.22 153.136L1579.09 153.077C1578.97 153.025 1578.8 152.949 1578.59 152.851C1578.15 152.656 1577.53 152.376 1576.79 152.037C1575.3 151.357 1573.32 150.439 1571.34 149.486C1569.36 148.53 1567.39 147.544 1565.92 146.727C1565.81 146.67 1565.71 146.614 1565.62 146.559ZM1590.29 156.505C1590.29 156.505 1590.28 156.504 1590.28 156.503L1590.29 156.505Z" stroke="#3D5D82" stroke-width="1.5"/>
<path d="M1920.73 803.82L1920.73 803.814L1920.74 803.809C1925.61 799.48 1929.86 799.477 1931.48 799.477C1937.7 799.758 1942.86 802.992 1946.38 808.3C1949.91 813.639 1951.78 821.096 1951.21 829.665C1950.06 844.575 1942.17 853.569 1932.14 853.59C1921.15 853.034 1915 843.806 1913.28 832.636C1912.43 827.09 1912.71 821.221 1914.03 816.046C1915.34 810.852 1917.65 806.495 1920.73 803.82Z" stroke="#3D5D82" stroke-width="3"/>
<path d="M1781.91 250.535C1784.08 252.709 1785.69 254.608 1786.8 256.223C1787.93 257.854 1788.5 259.139 1788.69 260.087C1788.87 261.01 1788.66 261.486 1788.37 261.759C1788.03 262.081 1787.35 262.356 1786.14 262.356C1783.62 262.356 1779.98 260.999 1775.91 258.729C1771.88 256.484 1767.58 253.431 1763.75 250.225C1759.92 247.014 1756.62 243.687 1754.58 240.906C1753.56 239.507 1752.89 238.309 1752.61 237.374C1752.33 236.428 1752.5 236.008 1752.71 235.801C1752.78 235.729 1752.97 235.627 1753.34 235.565C1753.69 235.507 1754.05 235.505 1754.35 235.505C1758.2 235.505 1763.16 237.452 1768.2 240.375C1773.2 243.274 1778.14 247.05 1781.91 250.535Z" stroke="#3D5D82" stroke-width="2"/>
<path d="M1673.72 159.729C1683.73 162.673 1692.56 165.617 1694.32 167.383C1690.79 167.383 1647.83 153.841 1646.65 152.663C1648.41 153.252 1660.77 156.196 1673.72 159.729Z" fill="#3D5D82"/>
<path d="M1929.75 281.02C1936.81 286.319 1947.41 295.151 1947.41 295.74C1945.64 295.151 1905.62 264.534 1905.03 263.356C1907.38 263.945 1917.98 271.599 1929.75 281.02Z" fill="#3D5D82"/>
<path d="M1449.12 784.897C1365.85 722.237 1283.78 657.897 1206.14 588.286C1143.3 531.948 1093.2 459.422 1056.47 383.877L1054.92 386.383C1091.88 462.394 1139.58 536.34 1202.81 593.023C1280.55 662.726 1364.17 724.443 1447.48 787.274L1449.12 784.897Z" fill="#3D5D82"/>
<path d="M1203.16 718.754C1257.15 629.618 1310.94 544.511 1372.41 460.278C1422.16 392.106 1486.3 345.982 1557.78 301.86L1555.13 300.566C1483.21 344.958 1417.42 388.847 1367.37 457.436C1305.81 541.78 1254.79 628.17 1200.63 717.361L1203.16 718.754Z" fill="#3D5D82"/>
<path d="M1710.83 720.792C1614.18 681.819 1521.54 642.404 1428.52 595.261C1353.24 557.106 1288.42 480.221 1233.39 416.756L1232.54 419.58C1287.9 483.436 1350.79 562.31 1426.53 600.699C1519.66 647.904 1613.13 684.385 1709.86 723.513L1710.83 720.792Z" fill="#3D5D82"/>
</g>
</g>
<defs>
<linearGradient id="paint0_linear_1429_2528" x1="1920" y1="900" x2="0.000128123" y2="4.13857e-05" gradientUnits="userSpaceOnUse">
<stop stop-color="#DBDFF3"/>
<stop offset="1" stop-color="#F1F9FF" stop-opacity="0"/>
</linearGradient>
</defs>
</svg>
