<svg width="483" height="381" viewBox="0 0 483 381" fill="none" xmlns="http://www.w3.org/2000/svg">
<path d="M177.874 335.583C177.874 338.786 178.98 341.455 181.162 343.56C183.376 345.161 185.557 346.229 188.878 346.229L431.759 346.669C434.526 346.669 437.294 345.601 439.508 344.031C441.722 341.895 442.829 339.257 442.829 336.054L443.122 174.858H178.167L177.874 335.583Z" fill="url(#paint0_linear_45_570)"/>
<path d="M178.176 173.841L215.718 200.907L303.448 263.877C307.847 267.191 313.941 267.191 318.374 263.909L405.777 201.264L443.385 174.328L405.875 147.262L324.207 88.7109L318.145 84.292C313.746 80.9778 307.652 80.9778 303.22 84.2595L297.126 88.646L257.856 116.654L238.498 130.399L215.816 146.872L178.176 173.841Z" fill="url(#paint1_linear_45_570)"/>
<mask id="mask0_45_570" style="mask-type:alpha" maskUnits="userSpaceOnUse" x="178" y="81" width="266" height="186">
<path d="M178.176 173.841L215.718 200.907L303.448 263.877C307.847 267.191 313.941 267.191 318.373 263.909L405.777 201.264L443.385 174.328L427.336 119.562L383.506 88.646L318.145 84.292C313.746 80.9778 307.652 80.9778 303.22 84.2595L297.126 88.646L242.452 84.2595L215.718 101.233L178.176 125.14V173.841Z" fill="url(#paint2_linear_45_570)"/>
</mask>
<g mask="url(#mask0_45_570)">
<g filter="url(#filter0_d_45_570)">
<path d="M393.069 215.932C416.175 215.932 434.907 197.196 434.907 174.084C434.907 150.973 416.175 132.237 393.069 132.237C369.962 132.237 351.231 150.973 351.231 174.084C351.231 197.196 369.962 215.932 393.069 215.932Z" fill="url(#paint3_linear_45_570)" fill-opacity="0.991703"/>
</g>
<path d="M385.057 200.024L370.4 174.632C366.75 168.307 368.912 160.237 375.236 156.585C381.56 152.933 389.628 155.095 393.279 161.42L394.728 163.931L397.704 162.212C404.028 158.56 412.096 160.722 415.747 167.047C419.398 173.372 417.235 181.441 410.911 185.093L385.057 200.024Z" fill="white"/>
<path d="M227.845 209.841C253.667 209.841 274.6 188.903 274.6 163.074C274.6 137.246 253.667 116.308 227.845 116.308C202.022 116.308 181.089 137.246 181.089 163.074C181.089 188.903 202.022 209.841 227.845 209.841Z" fill="url(#paint4_linear_45_570)"/>
<g clip-path="url(#clip0_45_570)">
<path d="M225.948 181.175L221.024 184.017C220.153 184.52 219.119 184.656 218.148 184.396C217.176 184.136 216.349 183.501 215.846 182.63L209.213 171.141C208.71 170.27 208.574 169.236 208.834 168.265C209.094 167.294 209.73 166.466 210.6 165.963L215.524 163.12M225.118 153.205L221.327 146.64C220.573 145.334 219.332 144.381 217.875 143.991C216.419 143.6 214.867 143.805 213.561 144.559L215.524 163.12L225.948 181.175L244.461 170.486C245.258 170.038 245.866 169.317 246.173 168.456C246.48 167.595 246.466 166.652 246.133 165.8L239.869 149.721C239.669 149.209 239.36 148.747 238.964 148.367C238.567 147.987 238.093 147.697 237.573 147.518C237.054 147.339 236.501 147.276 235.955 147.331C235.408 147.387 234.88 147.561 234.407 147.841L225.118 153.205Z" stroke="white" stroke-width="2" stroke-linecap="round" stroke-linejoin="round"/>
</g>
<path d="M368.951 179.034C389.124 164.563 393.726 136.494 379.228 116.34C364.73 96.1857 336.623 91.5783 316.45 106.049C296.276 120.52 291.675 148.589 306.173 168.743C320.67 188.897 348.777 193.505 368.951 179.034Z" fill="#FAF9F9"/>
<path opacity="0.65" d="M338.523 168.131C352.668 170.449 366.012 160.878 368.327 146.752C370.643 132.626 361.053 119.294 346.908 116.976C332.763 114.657 319.419 124.229 317.104 138.355C314.788 152.481 324.378 165.812 338.523 168.131Z" fill="url(#paint5_linear_45_570)"/>
<path d="M307.563 185.798C307.125 185.726 306.716 185.472 306.441 185.09C305.891 184.325 306.071 183.231 306.836 182.682L314.659 177.07C315.425 176.521 316.521 176.701 317.071 177.465C317.621 178.23 317.441 179.324 316.676 179.873L308.853 185.485C308.464 185.796 308.002 185.87 307.563 185.798Z" fill="#FF666A"/>
<path d="M362.184 194.752C361.746 194.68 361.337 194.426 361.062 194.044L355.41 186.186C354.86 185.421 355.039 184.326 355.805 183.778C356.57 183.229 357.666 183.408 358.216 184.173L363.869 192.031C364.419 192.795 364.239 193.89 363.474 194.439C363.085 194.75 362.623 194.824 362.184 194.752Z" fill="#FF666A"/>
<path d="M378.559 117.293C378.12 117.221 377.712 116.967 377.437 116.585C376.887 115.82 377.066 114.726 377.831 114.177L383.784 109.907C384.549 109.358 385.645 109.538 386.195 110.302C386.745 111.067 386.566 112.162 385.8 112.71L379.848 116.98C379.459 117.291 378.997 117.365 378.559 117.293Z" fill="#FCC072"/>
<path d="M316.776 107.166C316.338 107.094 315.929 106.84 315.654 106.458L311.377 100.511C310.827 99.7463 311.006 98.6517 311.771 98.1027C312.537 97.5538 313.633 97.7334 314.183 98.498L318.46 104.445C319.01 105.209 318.831 106.304 318.066 106.853C317.677 107.164 317.215 107.238 316.776 107.166Z" fill="#FCC072"/>
<path d="M334.892 190.278C308.55 185.96 290.614 161.027 294.926 134.72C299.239 108.413 324.196 90.5103 350.539 94.8285C376.881 99.1467 394.817 124.08 390.504 150.387C386.192 176.694 361.235 194.597 334.892 190.278ZM349.42 101.652C326.841 97.9502 305.455 113.291 301.758 135.84C298.062 158.389 313.431 179.754 336.01 183.455C358.59 187.157 379.976 171.816 383.672 149.267C387.369 126.718 371.999 105.353 349.42 101.652Z" fill="#FFD844"/>
<path d="M349.175 103.148C348.225 102.992 347.332 103.632 347.176 104.581L346.895 106.296C346.74 107.245 347.381 108.137 348.331 108.292C349.281 108.448 350.174 107.808 350.33 106.859L350.611 105.144C350.73 104.189 350.088 103.297 349.175 103.148Z" fill="#FB7668"/>
<path d="M337.159 176.45C336.209 176.294 335.316 176.935 335.16 177.883L334.879 179.598C334.724 180.547 335.365 181.439 336.315 181.595C337.265 181.75 338.158 181.11 338.314 180.161L338.595 178.446C338.714 177.492 338.072 176.6 337.159 176.45Z" fill="#FB7668"/>
<path d="M380.549 146.807L378.831 146.526C377.882 146.37 376.989 147.01 376.833 147.959C376.678 148.908 377.319 149.8 378.269 149.955L379.986 150.237C380.936 150.393 381.829 149.752 381.985 148.804C382.14 147.855 381.499 146.963 380.549 146.807Z" fill="#FB7668"/>
<path d="M307.184 134.781L305.467 134.5C304.517 134.344 303.624 134.985 303.469 135.933C303.313 136.882 303.955 137.774 304.905 137.929L306.622 138.211C307.572 138.367 308.465 137.726 308.62 136.778C308.739 135.823 308.098 134.931 307.184 134.781Z" fill="#FB7668"/>
<path d="M372.61 118.792L371.207 119.798C370.442 120.347 370.262 121.442 370.812 122.206C371.087 122.588 371.496 122.843 371.934 122.915C372.373 122.986 372.841 122.876 373.224 122.601L374.627 121.595C375.392 121.046 375.571 119.951 375.021 119.187C374.471 118.422 373.375 118.243 372.61 118.792Z" fill="#FB7668"/>
<path d="M312.236 162.099L310.833 163.105C310.067 163.654 309.888 164.749 310.438 165.513C310.713 165.896 311.122 166.15 311.56 166.222C311.998 166.294 312.467 166.183 312.849 165.909L314.252 164.902C315.018 164.353 315.197 163.259 314.647 162.494C314.097 161.729 313.001 161.55 312.236 162.099Z" fill="#FB7668"/>
<path d="M365.323 170.801C364.773 170.036 363.677 169.856 362.911 170.405C362.146 170.954 361.967 172.049 362.517 172.814L363.525 174.215C363.8 174.598 364.208 174.852 364.647 174.924C365.085 174.996 365.554 174.885 365.936 174.611C366.701 174.062 366.881 172.967 366.331 172.202L365.323 170.801Z" fill="#FB7668"/>
<path d="M321.935 110.485C321.385 109.72 320.289 109.541 319.523 110.09C318.758 110.638 318.579 111.733 319.129 112.498L320.137 113.899C320.412 114.282 320.82 114.536 321.259 114.608C321.697 114.68 322.166 114.569 322.548 114.295C323.314 113.746 323.493 112.651 322.943 111.887L321.935 110.485Z" fill="#FB7668"/>
<path d="M322.219 139.194C322.063 140.142 322.705 141.034 323.655 141.19L335.858 143.19C336.146 146.235 338.418 148.855 341.597 149.377C345.36 149.993 348.932 147.432 349.548 143.673C350.068 140.499 348.306 137.513 345.509 136.267L348.344 118.973C348.5 118.024 347.858 117.132 346.908 116.976C345.958 116.82 345.065 117.461 344.91 118.41L342.075 135.704C339.598 135.935 337.393 137.485 336.377 139.791L324.174 137.791C323.261 137.641 322.374 138.245 322.219 139.194ZM339.281 141.991C339.592 140.093 341.372 138.849 343.235 139.154C345.135 139.466 346.382 141.244 346.077 143.105C345.766 145.002 343.986 146.246 342.123 145.941C340.253 145.672 338.97 143.888 339.281 141.991Z" fill="#FB7668"/>
<path d="M394.484 103.681C398.456 109.203 397.194 116.901 391.673 120.83L377.275 100.86C382.839 96.901 390.512 98.1587 394.484 103.681Z" fill="#FFD844"/>
<path d="M306.03 89.181C300.503 93.1457 299.241 100.845 303.219 106.33L323.202 91.9959C319.267 86.48 311.558 85.2163 306.03 89.181Z" fill="#FFD844"/>
<path d="M335.561 253.822C356.532 258.947 377.692 246.095 382.822 225.117C387.953 204.138 375.111 182.977 354.139 177.852C333.168 172.727 312.008 185.579 306.878 206.558C301.748 227.536 314.589 248.697 335.561 253.822Z" fill="url(#paint6_linear_45_570)"/>
<path d="M337.746 230.665C341.067 230.665 344.022 229.996 346.592 228.842C347.104 228.613 348.33 229.684 348.33 229.684C348.33 229.684 349.124 227.487 349.617 227.152C355.665 223.039 358.869 215.968 358.869 209.543C358.869 209.222 358.862 208.902 358.848 208.583C360.297 207.535 361.557 206.228 362.551 204.739C361.221 205.331 358.837 205.703 357.336 205.883C358.869 204.963 360.997 203.535 361.552 201.802C360.118 202.652 358.529 203.27 356.838 203.604C355.483 202.161 352.396 201.38 350.26 201.38C346.161 201.38 343.995 204.583 343.995 208.681C343.995 209.264 344.06 209.83 344.187 210.374C338.017 210.063 332.546 207.109 328.885 202.617C326.367 209.543 331.666 211.067 335.465 213.602C334.247 213.565 328.821 212.156 327.821 211.6C327.82 211.631 327.82 211.661 327.82 211.695C327.82 215.29 334.178 219.798 338.038 218.748C337.414 218.918 332.496 219.233 331.819 219.233C331.341 219.233 328.198 219.478 327.746 219.391C328.691 222.341 334.178 225.181 337.358 224.255C334.817 226.247 331.617 227.433 328.138 227.433C327.54 227.433 326.948 227.399 326.367 227.33C329.653 229.436 333.554 230.665 337.746 230.665Z" fill="white"/>
<path d="M335.208 156.728L309.645 252.13C307.777 259.102 300.591 263.226 293.583 261.348L235.736 245.848C228.727 243.97 224.566 236.806 226.435 229.833L251.997 134.432C253.866 127.459 261.052 123.335 268.06 125.213L325.907 140.713C332.915 142.591 337.077 149.755 335.208 156.728Z" fill="#E0DAEF"/>
<g filter="url(#filter1_d_45_570)">
<path d="M333.458 163.258L307.896 258.659C306.027 265.632 298.842 269.756 291.833 267.878L233.986 252.378C226.978 250.5 222.817 243.336 224.685 236.363L250.248 140.962C252.116 133.989 259.302 129.865 266.31 131.743L324.157 147.243C331.166 149.121 335.327 156.285 333.458 163.258Z" fill="url(#paint7_linear_45_570)" fill-opacity="0.991703"/>
</g>
<path d="M291.8 221.726L257.091 212.426C254.31 211.681 253.361 208.105 255.57 206.087L280.249 183.401C282.289 181.575 285.515 182.439 286.368 185.04L296.286 216.997C297.191 219.849 294.692 222.501 291.8 221.726Z" fill="white"/>
</g>
<path d="M181.174 343.515C183.39 345.172 185.574 346.277 188.898 346.277L432.011 346.732C434.781 346.732 437.551 345.627 439.767 344.003L323.67 244.205C316.195 237.78 305.153 237.759 297.653 244.156L181.174 343.515Z" fill="url(#paint8_linear_45_570)"/>
<path opacity="0.31" d="M149.146 112.67C149.146 114.132 147.94 115.334 146.473 115.334C145.007 115.334 143.801 114.132 143.801 112.67C143.801 111.208 145.007 110.005 146.473 110.005C147.94 110.005 149.146 111.208 149.146 112.67Z" fill="white"/>
<path opacity="0.31" d="M143.801 104.189C149.96 104.189 154.979 109.193 154.979 115.334H158.629C158.629 107.178 151.981 100.55 143.801 100.55V104.189Z" fill="#C5D5FF"/>
<path opacity="0.31" d="M143.801 94.7015C155.207 94.7015 164.495 103.962 164.495 115.334H168.666C168.666 101.655 157.521 90.5425 143.801 90.5425V94.7015Z" fill="#C5D5FF"/>
<path opacity="0.31" d="M143.801 85.3438C160.389 85.3438 173.881 98.7956 173.881 115.334H178.378C178.378 96.3262 162.866 80.8599 143.801 80.8599V85.3438Z" fill="#C5D5FF"/>
<path opacity="0.31" d="M104.091 235.008C103.263 235.008 102.591 234.337 102.591 233.508V228.645C102.591 227.817 103.263 227.145 104.091 227.145H106.176C106.502 225.943 106.991 224.806 107.61 223.733L106.134 222.261C105.546 221.675 105.546 220.723 106.134 220.137L109.582 216.699C110.167 216.115 111.115 216.115 111.7 216.699L113.183 218.177C114.258 217.56 115.399 217.072 116.605 216.747V214.673C116.605 213.845 117.276 213.173 118.105 213.173H122.991C123.82 213.173 124.491 213.845 124.491 214.673V216.747C125.697 217.072 126.838 217.56 127.913 218.177L129.396 216.699C129.981 216.115 130.929 216.115 131.514 216.699L134.962 220.137C135.55 220.723 135.55 221.675 134.962 222.261L133.486 223.733C134.105 224.806 134.594 225.943 134.92 227.145H137.004C137.833 227.145 138.504 227.817 138.504 228.645V233.508C138.504 234.337 137.833 235.008 137.004 235.008H134.92C134.594 236.21 134.105 237.348 133.486 238.42L134.962 239.892C135.55 240.478 135.55 241.43 134.962 242.017L131.514 245.455C130.929 246.038 129.981 246.038 129.396 245.455L127.913 243.976C126.838 244.593 125.697 245.081 124.491 245.406V247.48C124.491 248.308 123.82 248.98 122.991 248.98H118.105C117.276 248.98 116.605 248.308 116.605 247.48V245.406C115.399 245.081 114.258 244.593 113.183 243.976L111.7 245.455C111.115 246.038 110.167 246.038 109.582 245.455L106.134 242.017C105.546 241.43 105.546 240.478 106.134 239.892L107.61 238.42C106.991 237.348 106.502 236.21 106.176 235.008H104.091ZM120.581 238.062C124.459 238.062 127.62 234.911 127.62 231.044C127.62 227.178 124.459 224.026 120.581 224.026C116.702 224.026 113.541 227.178 113.541 231.044C113.574 234.943 116.702 238.062 120.581 238.062Z" fill="#C5D5FF"/>
<path opacity="0.31" d="M400.701 117.405C399.873 117.405 399.201 116.734 399.201 115.905V114.726C398.306 114.466 397.447 114.131 396.626 113.647L395.782 114.489C395.197 115.073 394.25 115.073 393.664 114.489L391.609 112.44C391.022 111.854 391.022 110.902 391.609 110.316L392.447 109.48C391.999 108.699 391.626 107.806 391.365 106.913H390.178C389.35 106.913 388.678 106.241 388.678 105.413V102.535C388.678 101.706 389.35 101.035 390.178 101.035H391.365C391.626 100.142 391.962 99.2859 392.447 98.4673L391.609 97.632C391.022 97.0459 391.022 96.0938 391.609 95.5076L393.664 93.4588C394.25 92.8751 395.197 92.8751 395.782 93.4588L396.626 94.3003C397.41 93.8538 398.306 93.4817 399.201 93.2213V92.0425C399.201 91.2141 399.873 90.5425 400.701 90.5425H403.597C404.425 90.5425 405.097 91.2141 405.097 92.0425V93.2213C405.992 93.4817 406.851 93.8166 407.672 94.3003L408.516 93.4588C409.101 92.8751 410.048 92.8751 410.634 93.4588L412.689 95.5076C413.276 96.0938 413.276 97.0459 412.689 97.632L411.851 98.4673C412.299 99.2486 412.672 100.142 412.933 101.035H414.12C414.948 101.035 415.62 101.706 415.62 102.535V105.413C415.62 106.241 414.948 106.913 414.12 106.913H412.933C412.672 107.806 412.336 108.662 411.851 109.48L412.689 110.316C413.276 110.902 413.276 111.854 412.689 112.44L410.634 114.489C410.048 115.073 409.101 115.073 408.516 114.489L407.672 113.647C406.888 114.094 405.992 114.466 405.097 114.726V115.905C405.097 116.734 404.425 117.405 403.597 117.405H400.701ZM407.41 103.974C407.41 101.072 405.06 98.7278 402.149 98.7278C399.238 98.7278 396.888 101.072 396.888 103.974C396.888 106.876 399.238 109.22 402.149 109.22C405.06 109.22 407.41 106.876 407.41 103.974Z" fill="#C5D5FF"/>
<path opacity="0.31" d="M464.791 7.71533L458.043 28.7274H419.932L426.68 7.71533H464.791Z" fill="#C5D5FF"/>
<path opacity="0.31" d="M426.68 6.44655H425.795L425.518 7.32893L419.932 24.5907V3.57877H450.022L451.682 0.821289H458.043V6.44655H426.68Z" fill="#C5D5FF"/>
<path opacity="0.31" d="M198.414 56.1784L222.106 68.168L242.604 35.7407L198.414 56.1784Z" fill="#C5D5FF"/>
<path opacity="0.1" d="M242.604 35.7402L207.538 60.7918V74.0161L213.567 63.8461L242.604 35.7402Z" fill="#04659B"/>
<path opacity="0.1" d="M242.604 35.7402L207.538 60.7918V74.0161L213.567 63.8461L242.604 35.7402Z" fill="#C5D5FF"/>
<path opacity="0.3" fill-rule="evenodd" clip-rule="evenodd" d="M307.653 2.93485C307.623 2.49575 307.242 2.16419 306.803 2.19428C306.515 2.214 306.233 2.2425 305.956 2.27967C305.52 2.33819 305.213 2.73925 305.272 3.17547C305.33 3.61169 305.732 3.91787 306.168 3.85935C306.41 3.82688 306.658 3.80181 306.912 3.78438C307.351 3.75429 307.683 3.37394 307.653 2.93485ZM312.221 3.53948C312.099 3.96255 312.344 4.40387 312.767 4.5252C313.002 4.59256 313.24 4.66455 313.48 4.74125C313.9 4.87496 314.348 4.64343 314.482 4.22411C314.615 3.80479 314.384 3.35647 313.964 3.22275C313.709 3.14141 313.457 3.06488 313.207 2.99313C312.783 2.8718 312.342 3.11641 312.221 3.53948ZM301.124 5.1612C300.804 4.85884 300.3 4.873 299.997 5.19282C299.802 5.39923 299.617 5.61484 299.441 5.83924C299.169 6.18558 299.23 6.68651 299.576 6.95809C299.922 7.22967 300.423 7.16906 300.695 6.82272C300.841 6.63649 300.995 6.45811 301.156 6.28777C301.458 5.96795 301.444 5.46357 301.124 5.1612ZM318.755 6.07262C318.549 6.46143 318.697 6.94382 319.086 7.15006C319.303 7.26552 319.522 7.38415 319.743 7.50599C320.129 7.71864 320.613 7.57864 320.826 7.19329C321.039 6.80794 320.899 6.32318 320.513 6.11053C320.285 5.9845 320.058 5.86169 319.832 5.74205C319.444 5.53581 318.961 5.68381 318.755 6.07262ZM324.762 9.68153C324.509 10.0412 324.595 10.5384 324.954 10.792C325.171 10.9447 325.389 11.1001 325.607 11.2582C325.964 11.516 326.462 11.4358 326.72 11.0791C326.978 10.7224 326.898 10.2242 326.541 9.9664C326.317 9.80468 326.094 9.6457 325.873 9.48943C325.513 9.23581 325.016 9.32182 324.762 9.68153ZM298.022 11.3019C297.584 11.2603 297.195 11.5818 297.153 12.0199C297.127 12.2932 297.108 12.5705 297.096 12.8515C297.076 13.2912 297.417 13.6633 297.857 13.6826C298.297 13.7019 298.669 13.3611 298.688 12.9214C298.699 12.6667 298.716 12.4164 298.74 12.1706C298.781 11.7325 298.46 11.3435 298.022 11.3019ZM330.362 13.9412C330.078 14.2773 330.12 14.7801 330.456 15.0642C330.645 15.2238 330.835 15.3853 331.025 15.5487C331.359 15.8354 331.862 15.7971 332.149 15.4631C332.436 15.1292 332.397 14.6261 332.063 14.3394C331.87 14.1733 331.677 14.0091 331.485 13.8468C331.149 13.5627 330.646 13.605 330.362 13.9412ZM298.418 18.2897C297.992 18.3994 297.735 18.8339 297.845 19.2601C297.909 19.5114 297.978 19.7643 298.051 20.0187C298.173 20.4417 298.614 20.6863 299.037 20.565C299.46 20.4436 299.705 20.0023 299.583 19.5792C299.514 19.3386 299.449 19.0998 299.388 18.8628C299.279 18.4366 298.844 18.18 298.418 18.2897ZM335.575 18.5877C335.27 18.9047 335.279 19.4092 335.597 19.7145C335.778 19.8894 335.961 20.066 336.143 20.2442C336.459 20.5514 336.963 20.545 337.27 20.2298C337.578 19.9146 337.571 19.4101 337.256 19.1029C337.071 18.9224 336.886 18.7435 336.702 18.5663C336.385 18.261 335.88 18.2706 335.575 18.5877ZM340.522 23.5518C340.201 23.8528 340.184 24.3572 340.485 24.6783C340.659 24.8635 340.833 25.0502 341.008 25.2382C341.307 25.5608 341.811 25.5797 342.134 25.2803C342.456 24.9809 342.475 24.4767 342.176 24.1541C342 23.9641 341.824 23.7755 341.648 23.5883C341.347 23.2672 340.843 23.2509 340.522 23.5518ZM300.752 24.8855C300.358 25.082 300.198 25.5605 300.395 25.9543C300.511 26.1873 300.63 26.421 300.753 26.6553C300.956 27.0454 301.438 27.1964 301.828 26.9926C302.218 26.7888 302.369 26.3073 302.165 25.9172C302.047 25.6917 301.933 25.467 301.821 25.2431C301.624 24.8492 301.146 24.6891 300.752 24.8855ZM345.236 28.7552C344.903 29.0424 344.865 29.5456 345.153 29.8791C345.318 30.0709 345.483 30.264 345.649 30.4583C345.935 30.793 346.438 30.8326 346.773 30.5467C347.108 30.2609 347.147 29.7579 346.861 29.4232C346.694 29.2272 346.527 29.0325 346.36 28.8389C346.073 28.5054 345.57 28.4679 345.236 28.7552ZM304.274 30.9665C303.915 31.2205 303.829 31.7178 304.083 32.0773C304.232 32.2868 304.382 32.4966 304.535 32.7066C304.794 33.0623 305.293 33.1406 305.648 32.8815C306.004 32.6223 306.082 32.1238 305.823 31.7681C305.675 31.5643 305.529 31.3607 305.385 31.1574C305.131 30.798 304.634 30.7125 304.274 30.9665ZM349.755 34.1551C349.412 34.4303 349.357 34.9318 349.632 35.2753C349.789 35.4711 349.946 35.6681 350.103 35.866C350.377 36.2104 350.879 36.2675 351.223 35.9935C351.568 35.7194 351.625 35.2181 351.351 34.8737C351.192 34.6743 351.034 34.4759 350.875 34.2786C350.6 33.9352 350.099 33.8798 349.755 34.1551ZM308.585 36.4774C308.259 36.7729 308.234 37.2769 308.53 37.603C308.709 37.8008 308.89 37.9985 309.074 38.1962C309.373 38.5187 309.877 38.5374 310.2 38.2379C310.523 37.9384 310.541 37.4342 310.242 37.1117C310.063 36.9188 309.886 36.7259 309.711 36.533C309.416 36.2068 308.912 36.1819 308.585 36.4774ZM354.094 39.7056C353.742 39.9703 353.671 40.4699 353.936 40.8216C354.017 40.9291 354.098 41.0369 354.179 41.145C354.262 41.2557 354.344 41.3664 354.425 41.4772C354.685 41.8325 355.183 41.9099 355.539 41.6501C355.894 41.3903 355.971 40.8917 355.712 40.5364C355.627 40.4204 355.541 40.3045 355.454 40.1887C355.373 40.0799 355.291 39.9714 355.21 39.8632C354.945 39.5115 354.445 39.441 354.094 39.7056ZM313.508 41.4866C313.214 41.8137 313.24 42.3176 313.567 42.6121C313.759 42.7844 313.952 42.9566 314.147 43.1285C314.477 43.4196 314.981 43.388 315.272 43.0579C315.563 42.7278 315.531 42.2243 315.201 41.9331C315.01 41.7648 314.821 41.5962 314.634 41.4275C314.307 41.133 313.803 41.1595 313.508 41.4866ZM318.87 45.9849C318.606 46.3366 318.676 46.8363 319.028 47.1008C319.238 47.2588 319.45 47.4164 319.663 47.5737C320.017 47.8351 320.516 47.7598 320.777 47.4057C321.039 47.0516 320.963 46.5526 320.609 46.2913C320.4 46.1369 320.192 45.9822 319.986 45.8272C319.635 45.5626 319.135 45.6332 318.87 45.9849ZM357.972 45.788C357.57 45.9675 357.39 46.4388 357.569 46.8406C357.67 47.0659 357.767 47.2914 357.86 47.5171C358.028 47.9239 358.494 48.1176 358.901 47.9496C359.308 47.7816 359.501 47.3157 359.333 46.9089C359.234 46.6691 359.131 46.4297 359.025 46.1907C358.845 45.7888 358.374 45.6086 357.972 45.788ZM324.614 50.0335C324.378 50.4048 324.487 50.8973 324.859 51.1336C325.083 51.2766 325.309 51.4192 325.537 51.5613C325.91 51.7945 326.402 51.681 326.635 51.3077C326.868 50.9345 326.755 50.4428 326.382 50.2096C326.158 50.0698 325.935 49.9296 325.714 49.789C325.343 49.5527 324.851 49.6622 324.614 50.0335ZM360.147 52.5182C359.711 52.5778 359.406 52.9796 359.466 53.4157C359.5 53.6664 359.53 53.9174 359.556 54.1687C359.602 54.6064 359.993 54.9246 360.431 54.8793C360.869 54.8339 361.187 54.4423 361.142 54.0045C361.114 53.736 361.082 53.4678 361.045 53.1999C360.985 52.7638 360.584 52.4586 360.147 52.5182ZM330.653 53.6449C330.443 54.0319 330.587 54.5156 330.974 54.7252C331.092 54.7892 331.21 54.853 331.329 54.9168C331.449 54.981 331.568 55.045 331.688 55.1087C332.077 55.3151 332.559 55.1674 332.766 54.7788C332.972 54.3901 332.825 53.9076 332.436 53.7011C332.318 53.6386 332.201 53.5757 332.083 53.5126C331.966 53.4498 331.849 53.3869 331.733 53.3239C331.346 53.1142 330.863 53.258 330.653 53.6449ZM337.102 56.8925C336.923 57.2944 337.103 57.7656 337.505 57.9449C337.751 58.0548 337.998 58.1635 338.245 58.2711C338.648 58.447 339.118 58.2625 339.294 57.8591C339.47 57.4556 339.285 56.986 338.882 56.8101C338.639 56.7043 338.397 56.5973 338.154 56.4893C337.752 56.31 337.281 56.4905 337.102 56.8925ZM343.766 59.6372C343.617 60.0512 343.831 60.508 344.245 60.6575C344.498 60.7489 344.751 60.8393 345.005 60.9286C345.42 61.0749 345.875 60.857 346.021 60.4419C346.168 60.0268 345.95 59.5717 345.535 59.4254C345.285 59.3375 345.036 59.2485 344.786 59.1584C344.373 59.0089 343.916 59.2233 343.766 59.6372ZM360.313 59.5652C359.877 59.5007 359.472 59.8013 359.408 60.2367C359.37 60.4918 359.328 60.7471 359.283 61.0028C359.205 61.4361 359.494 61.8499 359.927 61.9271C360.361 62.0043 360.775 61.7156 360.852 61.2823C360.9 61.0115 360.944 60.7408 360.984 60.4703C361.049 60.0349 360.748 59.6297 360.313 59.5652ZM350.616 61.9072C350.495 62.3302 350.739 62.7716 351.162 62.8931C351.421 62.9674 351.68 63.0408 351.939 63.1131C352.363 63.2316 352.802 62.9841 352.921 62.5602C353.039 62.1364 352.792 61.6967 352.368 61.5782C352.113 61.5068 351.857 61.4345 351.602 61.3612C351.179 61.2397 350.738 61.4842 350.616 61.9072ZM357.589 63.7301C357.493 64.1597 357.764 64.5856 358.193 64.6816C358.457 64.7404 358.72 64.7984 358.984 64.8555C359.414 64.9488 359.838 64.6757 359.931 64.2456C360.025 63.8154 359.752 63.3911 359.321 63.2979C359.061 63.2415 358.801 63.1842 358.541 63.1261C358.111 63.0301 357.685 63.3006 357.589 63.7301ZM364.666 65.1549C364.593 65.5889 364.885 66.0001 365.319 66.0735C365.584 66.1182 365.849 66.1621 366.113 66.2053C366.547 66.2763 366.957 65.9818 367.028 65.5474C367.099 65.1131 366.804 64.7034 366.37 64.6324C366.108 64.5896 365.847 64.5461 365.585 64.5019C365.151 64.4286 364.74 64.721 364.666 65.1549ZM371.797 66.2287C371.743 66.6654 372.053 67.0634 372.49 67.1174C372.758 67.1506 373.025 67.183 373.292 67.2149C373.729 67.2671 374.126 66.955 374.178 66.518C374.23 66.081 373.918 65.6844 373.481 65.6323C373.216 65.6007 372.951 65.5685 372.686 65.5357C372.249 65.4816 371.851 65.7919 371.797 66.2287ZM378.968 67.0103C378.93 67.4487 379.254 67.8354 379.693 67.8739C379.959 67.8973 380.224 67.9201 380.49 67.9425C380.928 67.9796 381.314 67.6541 381.351 67.2155C381.388 66.7769 381.062 66.3914 380.624 66.3544C380.36 66.3321 380.096 66.3094 379.832 66.2862C379.394 66.2477 379.007 66.5719 378.968 67.0103ZM358.623 66.42C358.214 66.2579 357.751 66.4581 357.589 66.8673C357.494 67.1077 357.395 67.3483 357.294 67.5891C357.123 67.9946 357.313 68.462 357.718 68.6331C358.124 68.8042 358.591 68.6141 358.762 68.2086C358.868 67.9572 358.971 67.7058 359.071 67.4544C359.233 67.0453 359.033 66.5821 358.623 66.42ZM386.167 67.5627C386.14 68.002 386.474 68.3801 386.913 68.4071C387.18 68.4236 387.447 68.4397 387.713 68.4554C388.152 68.4815 388.529 68.1464 388.555 67.7071C388.581 67.2677 388.246 66.8904 387.807 66.8644C387.67 66.8563 387.533 66.8481 387.395 66.8398C387.267 66.832 387.139 66.8242 387.011 66.8163C386.572 66.7892 386.194 67.1234 386.167 67.5627ZM393.369 67.9561C393.349 68.3957 393.689 68.7686 394.129 68.789C394.397 68.8014 394.665 68.8137 394.932 68.8258C395.372 68.8458 395.745 68.5055 395.765 68.0658C395.785 67.6262 395.444 67.2536 395.005 67.2336C394.85 67.2266 394.696 67.2196 394.541 67.2125C394.428 67.2073 394.315 67.2021 394.202 67.1969C393.763 67.1765 393.39 67.5164 393.369 67.9561ZM400.573 68.2755C400.553 68.7152 400.893 69.0875 401.333 69.1072C401.603 69.1192 401.872 69.1313 402.14 69.1435C402.58 69.1635 402.952 68.8233 402.972 68.3836C402.992 67.944 402.652 67.5713 402.212 67.5513C401.944 67.5391 401.675 67.527 401.404 67.5149C400.965 67.4953 400.592 67.8358 400.573 68.2755ZM407.777 68.6318C407.749 69.0711 408.084 69.4493 408.523 69.4765C408.793 69.4932 409.062 69.5103 409.329 69.5278C409.768 69.5565 410.148 69.2238 410.176 68.7846C410.205 68.3455 409.872 67.9661 409.433 67.9374C409.164 67.9197 408.893 67.9025 408.621 67.8857C408.182 67.8585 407.804 68.1925 407.777 68.6318ZM414.976 69.1876C414.928 69.6251 415.244 70.0186 415.682 70.0665C415.949 70.0957 416.214 70.1258 416.477 70.1568C416.914 70.2082 417.31 69.8956 417.361 69.4585C417.413 69.0213 417.1 68.6253 416.663 68.5739C416.396 68.5424 416.126 68.5118 415.855 68.4822C415.418 68.4342 415.024 68.75 414.976 69.1876ZM422.119 70.2139C422.026 70.6442 422.3 71.068 422.73 71.1605C422.985 71.2152 423.237 71.2716 423.486 71.3295C423.915 71.4292 424.343 71.1625 424.443 70.7338C424.543 70.3051 424.276 69.8768 423.847 69.7771C423.589 69.7171 423.328 69.6588 423.065 69.6022C422.635 69.5097 422.211 69.7836 422.119 70.2139ZM429.034 72.2291C428.849 72.6287 429.024 73.1022 429.424 73.2866C429.659 73.3951 429.889 73.5065 430.115 73.621C430.508 73.8199 430.987 73.6628 431.186 73.2702C431.385 72.8776 431.228 72.3981 430.835 72.1992C430.592 72.0757 430.344 71.9558 430.091 71.8395C429.692 71.655 429.218 71.8295 429.034 72.2291ZM355.549 72.8222C355.173 72.5933 354.682 72.7124 354.454 73.0884C354.321 73.3059 354.186 73.5236 354.049 73.7414C353.814 74.1137 353.926 74.6058 354.298 74.8405C354.67 75.0752 355.162 74.9636 355.397 74.5913C355.539 74.3666 355.678 74.142 355.815 73.9173C356.044 73.5414 355.925 73.0511 355.549 72.8222ZM435.006 76.1774C434.669 76.4601 434.624 76.9628 434.907 77.3001C435.068 77.4923 435.224 77.6894 435.373 77.8916C435.635 78.2454 436.134 78.3201 436.488 78.0583C436.842 77.7966 436.916 77.2976 436.655 76.9437C436.486 76.7154 436.31 76.493 436.129 76.2762C435.846 75.9389 435.343 75.8947 435.006 76.1774ZM351.498 78.7624C351.153 78.4887 350.652 78.5463 350.378 78.891C350.223 79.0858 350.067 79.2805 349.909 79.4754C349.631 79.8171 349.683 80.3189 350.025 80.5964C350.367 80.8738 350.869 80.8217 351.146 80.48C351.308 80.2807 351.468 80.0814 351.626 79.882C351.9 79.5373 351.842 79.036 351.498 78.7624ZM438.364 82.4738C437.933 82.5606 437.653 82.9807 437.74 83.4122C437.766 83.541 437.791 83.6711 437.814 83.8026C437.837 83.9339 437.86 84.0654 437.882 84.1973C437.956 84.6313 438.367 84.9238 438.801 84.8505C439.235 84.7773 439.527 84.3661 439.454 83.9322C439.431 83.7956 439.407 83.6594 439.383 83.5234C439.358 83.3803 439.331 83.2385 439.303 83.0979C439.216 82.6664 438.796 82.387 438.364 82.4738ZM346.901 84.1306C346.583 83.8269 346.078 83.839 345.775 84.1576C345.588 84.3529 345.401 84.5481 345.211 84.7434C344.905 85.0593 344.912 85.5638 345.228 85.8703C345.544 86.1768 346.048 86.1692 346.355 85.8534C346.548 85.6547 346.739 85.456 346.928 85.2572C347.232 84.9386 347.22 84.4342 346.901 84.1306ZM341.876 89.1115C341.58 88.7864 341.076 88.7634 340.75 89.0601C340.559 89.235 340.366 89.4099 340.172 89.5847C339.845 89.8792 339.818 90.3831 340.113 90.7102C340.407 91.0373 340.911 91.0637 341.238 90.7692C341.435 90.592 341.631 90.4147 341.825 90.2374C342.15 89.9407 342.173 89.4366 341.876 89.1115ZM439.305 89.8111C438.865 89.83 438.524 90.2017 438.543 90.6415C438.554 90.911 438.564 91.1814 438.572 91.4526C438.585 91.8925 438.952 92.2386 439.392 92.2255C439.832 92.2125 440.178 91.8452 440.165 91.4053C440.157 91.1272 440.147 90.8498 440.135 90.5731C440.116 90.1334 439.744 89.7922 439.305 89.8111ZM336.408 93.8755C336.13 93.5341 335.628 93.4827 335.287 93.7605C335.092 93.9188 334.897 94.077 334.701 94.2352C334.358 94.5112 334.304 95.0129 334.58 95.3557C334.856 95.6985 335.357 95.7526 335.7 95.4766C335.899 95.3166 336.096 95.1566 336.293 94.9966C336.634 94.7188 336.686 94.2168 336.408 93.8755ZM439.298 97.2156C438.859 97.1882 438.481 97.5221 438.453 97.9614C438.436 98.2332 438.418 98.5055 438.398 98.7783C438.366 99.2173 438.697 99.5989 439.136 99.6306C439.575 99.6623 439.956 99.3322 439.988 98.8932C440.008 98.6152 440.027 98.3377 440.044 98.0605C440.071 97.6212 439.737 97.2429 439.298 97.2156ZM330.912 98.1883C330.649 97.8349 330.15 97.7612 329.797 98.0235C329.657 98.1276 329.516 98.2317 329.375 98.3357C329.303 98.389 329.23 98.4424 329.158 98.4957C328.803 98.7565 328.727 99.2553 328.988 99.6099C329.249 99.9644 329.748 100.04 330.102 99.7797C330.318 99.621 330.533 99.4621 330.747 99.3032C331.1 99.0408 331.174 98.5417 330.912 98.1883ZM325.064 102.392C324.815 102.028 324.319 101.935 323.956 102.184C323.746 102.328 323.535 102.472 323.323 102.616C322.959 102.863 322.864 103.359 323.111 103.723C323.358 104.087 323.854 104.181 324.218 103.934C324.352 103.843 324.486 103.752 324.62 103.661C324.699 103.607 324.777 103.553 324.856 103.499C325.219 103.251 325.312 102.755 325.064 102.392ZM438.593 104.591C438.158 104.529 437.754 104.831 437.692 105.267C437.653 105.536 437.613 105.805 437.573 106.074C437.507 106.509 437.807 106.915 438.242 106.981C438.677 107.047 439.083 106.747 439.149 106.312C439.19 106.039 439.23 105.766 439.269 105.493C439.332 105.057 439.029 104.653 438.593 104.591ZM319.198 106.297C318.961 105.926 318.468 105.817 318.097 106.054C317.874 106.197 317.65 106.34 317.425 106.482C317.053 106.718 316.942 107.21 317.178 107.582C317.414 107.954 317.906 108.064 318.278 107.829C318.504 107.685 318.73 107.541 318.955 107.398C319.326 107.161 319.435 106.668 319.198 106.297ZM313.097 110.095C312.87 109.717 312.381 109.595 312.003 109.821C311.783 109.953 311.563 110.084 311.342 110.216C310.963 110.441 310.839 110.93 311.064 111.308C311.289 111.686 311.778 111.811 312.157 111.586C312.379 111.453 312.601 111.321 312.822 111.188C313.2 110.962 313.323 110.473 313.097 110.095ZM437.355 111.893C436.924 111.803 436.502 112.08 436.413 112.511C436.357 112.777 436.301 113.044 436.244 113.311C436.152 113.741 436.426 114.165 436.856 114.257C437.286 114.349 437.71 114.075 437.802 113.645C437.86 113.375 437.917 113.105 437.973 112.835C438.063 112.404 437.786 111.982 437.355 111.893ZM307.009 113.661C306.792 113.278 306.306 113.143 305.923 113.36C305.693 113.49 305.462 113.62 305.23 113.75C304.847 113.966 304.711 114.452 304.927 114.836C305.142 115.219 305.628 115.355 306.012 115.14C306.244 115.009 306.476 114.878 306.708 114.747C307.091 114.53 307.226 114.044 307.009 113.661ZM71.2415 116.231C71.2388 116.671 71.5933 117.03 72.0334 117.032C72.2941 117.034 72.555 117.036 72.8159 117.039C73.256 117.044 73.6169 116.692 73.6219 116.252C73.627 115.812 73.2743 115.451 72.8342 115.446C72.5705 115.443 72.3069 115.44 72.0433 115.439C71.6032 115.436 71.2442 115.79 71.2415 116.231ZM66.5319 116.301C66.5161 115.861 66.1467 115.517 65.7068 115.533C65.4432 115.543 65.1798 115.553 64.9167 115.564C64.4769 115.582 64.1351 115.953 64.1533 116.393C64.1714 116.832 64.5426 117.174 64.9823 117.156C65.2427 117.145 65.5033 117.135 65.7642 117.126C66.204 117.11 66.5477 116.741 66.5319 116.301ZM78.3288 116.406C78.3048 116.846 78.6417 117.222 79.0812 117.245C79.3416 117.26 79.6021 117.275 79.8626 117.29C80.3019 117.317 80.6794 116.982 80.7058 116.542C80.7321 116.103 80.3973 115.726 79.958 115.699C79.6946 115.683 79.4313 115.668 79.1679 115.654C78.7285 115.63 78.3528 115.967 78.3288 116.406ZM59.4521 116.686C59.4153 116.248 59.03 115.922 58.5914 115.958C58.3284 115.981 58.0658 116.003 57.8035 116.027C57.3651 116.066 57.0414 116.453 57.0805 116.891C57.1196 117.33 57.5066 117.653 57.945 117.614C58.2045 117.591 58.4643 117.569 58.7244 117.547C59.163 117.51 59.4888 117.125 59.4521 116.686ZM85.3981 116.928C85.3522 117.366 85.6698 117.758 86.1075 117.804C86.3672 117.831 86.6267 117.859 86.8862 117.888C87.3236 117.936 87.7175 117.621 87.7659 117.183C87.8143 116.746 87.499 116.352 87.0615 116.304C86.7991 116.275 86.5365 116.246 86.2738 116.219C85.8361 116.173 85.4441 116.49 85.3981 116.928ZM52.3988 117.411C52.3407 116.974 51.9398 116.668 51.5036 116.726C51.2419 116.761 50.9807 116.796 50.72 116.833C50.284 116.893 49.9798 117.296 50.0403 117.732C50.1009 118.168 50.5034 118.472 50.9394 118.411C51.0731 118.393 51.2069 118.374 51.3409 118.356C51.4652 118.339 51.5897 118.323 51.7142 118.306C52.1505 118.248 52.4569 117.847 52.3988 117.411ZM300.71 117.151C300.502 116.764 300.019 116.618 299.631 116.826C299.405 116.947 299.178 117.069 298.951 117.19C298.562 117.397 298.416 117.88 298.623 118.268C298.83 118.657 299.313 118.804 299.701 118.596C299.929 118.474 300.157 118.352 300.385 118.23C300.773 118.022 300.918 117.539 300.71 117.151ZM92.4304 117.81C92.3614 118.245 92.6578 118.653 93.0925 118.722C93.3506 118.763 93.6085 118.805 93.8662 118.847C94.3004 118.919 94.7106 118.625 94.7822 118.19C94.8539 117.756 94.5599 117.346 94.1257 117.274C93.8647 117.231 93.6036 117.189 93.3423 117.148C92.9077 117.079 92.4994 117.375 92.4304 117.81ZM45.3905 118.486C45.3098 118.054 44.8937 117.768 44.461 117.849C44.2016 117.897 43.9427 117.946 43.6846 117.996C43.2524 118.079 42.9696 118.497 43.0529 118.929C43.1361 119.362 43.554 119.644 43.9861 119.561C44.2411 119.512 44.4968 119.464 44.7532 119.416C45.1859 119.335 45.4712 118.919 45.3905 118.486ZM99.4031 119.072C99.3096 119.502 99.5824 119.926 100.012 120.02C100.268 120.076 100.523 120.132 100.778 120.189C101.208 120.286 101.634 120.016 101.731 119.586C101.827 119.157 101.557 118.73 101.128 118.634C100.869 118.576 100.61 118.519 100.351 118.462C99.9212 118.369 99.4967 118.642 99.4031 119.072ZM435.696 119.112C435.271 119.001 434.835 119.256 434.723 119.681C434.654 119.946 434.584 120.21 434.514 120.473C434.4 120.898 434.653 121.335 435.078 121.449C435.503 121.563 435.94 121.31 436.054 120.885C436.125 120.619 436.195 120.352 436.265 120.085C436.377 119.659 436.122 119.224 435.696 119.112ZM38.4506 119.935C38.3456 119.508 37.9139 119.246 37.4865 119.351C37.3311 119.39 37.1761 119.428 37.0214 119.467C36.9213 119.492 36.8214 119.517 36.7216 119.542C36.2949 119.65 36.0365 120.084 36.1444 120.51C36.2524 120.937 36.6858 121.195 37.1125 121.087C37.3631 121.024 37.6147 120.961 37.8671 120.899C38.2945 120.794 38.5557 120.362 38.4506 119.935ZM294.481 120.431C294.28 120.039 293.8 119.884 293.408 120.084C293.174 120.204 292.939 120.324 292.704 120.444C292.311 120.643 292.155 121.123 292.355 121.515C292.554 121.908 293.034 122.064 293.426 121.864C293.662 121.744 293.898 121.624 294.134 121.504C294.526 121.303 294.681 120.823 294.481 120.431ZM106.289 120.74C106.169 121.163 106.415 121.604 106.839 121.724C107.091 121.795 107.342 121.868 107.593 121.941C108.016 122.064 108.458 121.821 108.581 121.398C108.704 120.976 108.461 120.533 108.039 120.41C107.784 120.336 107.529 120.263 107.273 120.19C106.85 120.07 106.409 120.317 106.289 120.74ZM31.6131 121.793C31.4806 121.374 31.0329 121.141 30.6132 121.273C30.3632 121.352 30.1143 121.432 29.8666 121.512C29.4479 121.648 29.2186 122.098 29.3544 122.516C29.4902 122.935 29.9397 123.164 30.3584 123.028C30.6021 122.949 30.8471 122.871 31.0932 122.793C31.5129 122.661 31.7456 122.213 31.6131 121.793ZM113.053 122.846C112.905 123.261 113.12 123.717 113.535 123.865C113.781 123.954 114.027 124.043 114.273 124.133C114.686 124.285 115.144 124.074 115.296 123.66C115.447 123.247 115.236 122.789 114.823 122.637C114.573 122.546 114.323 122.455 114.072 122.365C113.658 122.217 113.202 122.432 113.053 122.846ZM288.04 123.664C287.847 123.269 287.37 123.104 286.974 123.297C286.736 123.414 286.498 123.53 286.259 123.646C285.863 123.838 285.698 124.315 285.89 124.71C286.082 125.106 286.559 125.272 286.955 125.079C287.054 125.031 287.153 124.983 287.252 124.935C287.392 124.867 287.533 124.798 287.673 124.73C288.069 124.537 288.233 124.06 288.04 123.664ZM24.933 124.116C24.7682 123.708 24.3039 123.511 23.8957 123.675C23.6551 123.772 23.4159 123.87 23.1781 123.969C22.7716 124.137 22.5788 124.604 22.7473 125.01C22.916 125.417 23.3822 125.61 23.7888 125.441C24.0218 125.344 24.2563 125.248 24.4922 125.153C24.9004 124.989 25.0977 124.524 24.933 124.116ZM119.651 125.428C119.471 125.83 119.652 126.301 120.054 126.48C120.293 126.587 120.531 126.695 120.769 126.804C121.169 126.987 121.642 126.811 121.825 126.411C122.008 126.011 121.832 125.538 121.432 125.355C121.19 125.244 120.947 125.134 120.704 125.025C120.302 124.846 119.831 125.026 119.651 125.428ZM433.695 126.246C433.275 126.116 432.829 126.352 432.699 126.773C432.619 127.033 432.538 127.293 432.457 127.552C432.325 127.973 432.559 128.42 432.979 128.551C433.399 128.682 433.846 128.449 433.978 128.028C434.06 127.767 434.141 127.505 434.222 127.242C434.352 126.821 434.116 126.375 433.695 126.246ZM281.689 126.711C281.503 126.312 281.029 126.14 280.63 126.326C280.393 126.437 280.155 126.548 279.917 126.659C279.518 126.845 279.345 127.319 279.53 127.718C279.716 128.117 280.19 128.29 280.589 128.104C280.828 127.993 281.066 127.882 281.305 127.77C281.703 127.584 281.876 127.11 281.689 126.711ZM18.4648 127.004C18.2602 126.614 17.7784 126.464 17.3887 126.669C17.1465 126.796 16.9063 126.924 16.6684 127.053C16.2815 127.263 16.1379 127.747 16.3477 128.134C16.5576 128.521 17.0413 128.664 17.4282 128.455C17.6598 128.329 17.8936 128.204 18.1297 128.08C18.5194 127.876 18.6694 127.394 18.4648 127.004ZM126.024 128.524C125.811 128.909 125.95 129.394 126.335 129.607C126.564 129.734 126.792 129.861 127.019 129.99C127.402 130.207 127.888 130.072 128.105 129.689C128.322 129.306 128.188 128.82 127.805 128.603C127.573 128.472 127.34 128.342 127.107 128.213C126.722 128 126.237 128.139 126.024 128.524ZM275.193 129.698C275.013 129.296 274.541 129.116 274.139 129.296C273.896 129.405 273.652 129.514 273.408 129.623C273.007 129.802 272.826 130.274 273.005 130.676C273.185 131.077 273.656 131.258 274.058 131.079C274.303 130.97 274.547 130.86 274.791 130.751C275.193 130.571 275.373 130.099 275.193 129.698ZM12.3405 130.621C12.0834 130.264 11.5854 130.183 11.2281 130.44C11.0114 130.596 10.7977 130.753 10.5868 130.911C10.2345 131.175 10.1629 131.674 10.4268 132.026C10.6906 132.379 11.1901 132.45 11.5424 132.186C11.7449 132.035 11.9505 131.884 12.1591 131.734C12.5164 131.476 12.5976 130.978 12.3405 130.621ZM132.096 132.175C131.847 132.538 131.94 133.034 132.303 133.283C132.518 133.43 132.732 133.578 132.945 133.728C133.306 133.981 133.803 133.893 134.055 133.533C134.308 133.173 134.221 132.676 133.861 132.423C133.643 132.27 133.424 132.118 133.204 131.968C132.841 131.719 132.345 131.812 132.096 132.175ZM268.686 132.568C268.512 132.164 268.043 131.977 267.639 132.151C267.399 132.254 267.159 132.358 266.919 132.461C266.514 132.634 266.327 133.102 266.5 133.507C266.674 133.911 267.142 134.099 267.547 133.925C267.788 133.822 268.028 133.719 268.269 133.615C268.673 133.441 268.86 132.972 268.686 132.568ZM431.41 133.287C430.994 133.141 430.54 133.361 430.395 133.776C430.304 134.036 430.213 134.296 430.122 134.554C429.975 134.969 430.192 135.424 430.607 135.571C431.022 135.717 431.478 135.5 431.624 135.085C431.716 134.825 431.808 134.564 431.899 134.302C432.045 133.886 431.825 133.432 431.41 133.287ZM262.144 135.342C261.975 134.935 261.509 134.742 261.103 134.91C260.858 135.012 260.614 135.113 260.369 135.214C259.962 135.381 259.768 135.847 259.936 136.254C260.103 136.661 260.569 136.855 260.976 136.687C261.106 136.634 261.236 136.58 261.366 136.526C261.481 136.479 261.597 136.431 261.712 136.383C262.119 136.215 262.312 135.749 262.144 135.342ZM6.94467 135.152C6.61719 134.858 6.11331 134.885 5.81931 135.213C5.63226 135.421 5.44998 135.631 5.27249 135.842C4.98917 136.178 5.0325 136.681 5.36932 136.964C5.70615 137.248 6.20886 137.204 6.49219 136.868C6.65839 136.67 6.82944 136.473 7.00522 136.277C7.29926 135.95 7.27216 135.446 6.94467 135.152ZM137.774 136.41C137.489 136.745 137.528 137.248 137.863 137.533C138.06 137.702 138.257 137.872 138.452 138.043C138.783 138.333 139.287 138.299 139.577 137.968C139.867 137.637 139.833 137.134 139.502 136.844C139.302 136.668 139.101 136.494 138.898 136.321C138.563 136.036 138.06 136.075 137.774 136.41ZM255.51 138.048C255.347 137.639 254.883 137.439 254.475 137.602C254.233 137.699 253.991 137.795 253.748 137.891C253.339 138.053 253.139 138.517 253.302 138.926C253.464 139.335 253.927 139.535 254.336 139.373C254.457 139.325 254.578 139.277 254.698 139.229C254.82 139.18 254.942 139.132 255.065 139.083C255.473 138.92 255.673 138.457 255.51 138.048ZM248.923 140.634C248.766 140.224 248.305 140.018 247.894 140.176C247.648 140.27 247.402 140.365 247.156 140.459C246.745 140.616 246.539 141.076 246.697 141.487C246.854 141.899 247.314 142.104 247.726 141.947C247.972 141.853 248.219 141.759 248.465 141.664C248.876 141.506 249.081 141.045 248.923 140.634ZM428.872 140.256C428.462 140.097 428 140.301 427.842 140.712C427.743 140.968 427.644 141.222 427.545 141.475C427.385 141.885 427.587 142.347 427.997 142.507C428.407 142.667 428.869 142.465 429.03 142.055C429.129 141.8 429.229 141.544 429.328 141.287C429.487 140.876 429.283 140.415 428.872 140.256ZM2.91672 140.949C2.50671 140.789 2.04456 140.991 1.88437 141.401C1.78354 141.659 1.68958 141.919 1.6026 142.18C1.4635 142.598 1.68924 143.049 2.10681 143.188C2.52432 143.327 2.97562 143.101 3.11472 142.684C3.19299 142.449 3.27777 142.215 3.3689 141.981C3.52908 141.572 3.32663 141.109 2.91672 140.949ZM142.951 141.243C142.628 141.542 142.609 142.046 142.908 142.369C143.084 142.559 143.259 142.75 143.432 142.942C143.727 143.268 144.231 143.294 144.557 142.999C144.884 142.704 144.91 142.201 144.615 141.874C144.437 141.676 144.258 141.48 144.077 141.285C143.778 140.963 143.274 140.944 142.951 141.243ZM242.241 143.163C242.088 142.75 241.63 142.539 241.217 142.692C240.968 142.784 240.719 142.876 240.47 142.968C240.057 143.12 239.845 143.578 239.997 143.991C240.15 144.404 240.608 144.615 241.021 144.463C241.271 144.371 241.52 144.279 241.77 144.187C242.183 144.034 242.394 143.576 242.241 143.163ZM235.561 145.599C235.413 145.184 234.957 144.968 234.542 145.116C234.295 145.204 234.048 145.292 233.801 145.379C233.386 145.527 233.169 145.982 233.316 146.397C233.464 146.812 233.919 147.029 234.334 146.881C234.442 146.843 234.549 146.805 234.656 146.767C234.797 146.717 234.937 146.667 235.077 146.617C235.492 146.469 235.708 146.013 235.561 145.599ZM147.511 146.657C147.153 146.914 147.072 147.412 147.329 147.77C147.479 147.979 147.628 148.189 147.775 148.401C148.027 148.762 148.524 148.85 148.885 148.598C149.246 148.347 149.334 147.85 149.083 147.489C148.931 147.271 148.777 147.055 148.623 146.839C148.366 146.482 147.868 146.401 147.511 146.657ZM426.119 147.126C425.714 146.955 425.246 147.145 425.075 147.55C424.966 147.808 424.858 148.063 424.751 148.315C424.578 148.719 424.766 149.188 425.171 149.36C425.576 149.533 426.044 149.345 426.217 148.94C426.325 148.686 426.434 148.43 426.543 148.17C426.715 147.765 426.525 147.297 426.119 147.126ZM228.85 147.957C228.707 147.541 228.254 147.319 227.837 147.462C227.588 147.548 227.338 147.633 227.088 147.719C226.672 147.861 226.45 148.314 226.592 148.731C226.735 149.147 227.188 149.369 227.604 149.227C227.855 149.141 228.105 149.055 228.355 148.969C228.772 148.826 228.993 148.373 228.85 147.957ZM1.63019 147.857C1.19339 147.911 0.882965 148.309 0.936829 148.746C0.954132 148.886 0.97345 149.026 0.994751 149.167C1.0159 149.306 1.03802 149.446 1.06119 149.584C1.13361 150.018 1.54428 150.311 1.97839 150.239C2.41251 150.167 2.70572 149.756 2.63327 149.322C2.61145 149.191 2.59058 149.06 2.57059 148.928C2.55936 148.854 2.54874 148.78 2.53879 148.706C2.53177 148.654 2.52505 148.602 2.51868 148.55C2.46478 148.114 2.06702 147.803 1.63019 147.857ZM222.085 150.248C221.947 149.83 221.496 149.603 221.078 149.741C220.829 149.824 220.58 149.906 220.331 149.988C219.913 150.126 219.686 150.576 219.824 150.994C219.961 151.412 220.412 151.64 220.83 151.502C220.988 151.45 221.146 151.397 221.305 151.345L221.579 151.255C221.997 151.116 222.223 150.665 222.085 150.248ZM215.333 152.45C215.199 152.031 214.751 151.799 214.332 151.933C214.081 152.013 213.83 152.092 213.579 152.172C213.16 152.305 212.928 152.753 213.061 153.173C213.194 153.592 213.642 153.824 214.061 153.691C214.313 153.611 214.564 153.531 214.816 153.451C215.235 153.318 215.467 152.869 215.333 152.45ZM151.351 152.602C150.964 152.811 150.819 153.294 151.028 153.681C151.088 153.792 151.147 153.904 151.207 154.015C151.268 154.131 151.329 154.246 151.389 154.362C151.593 154.753 152.074 154.904 152.464 154.7C152.855 154.497 153.006 154.016 152.803 153.625C152.68 153.39 152.556 153.157 152.431 152.924C152.222 152.537 151.738 152.392 151.351 152.602ZM423.151 153.928C422.751 153.744 422.277 153.919 422.094 154.319C421.979 154.569 421.867 154.813 421.757 155.05C421.572 155.45 421.745 155.923 422.145 156.108C422.544 156.294 423.018 156.12 423.203 155.72C423.314 155.481 423.427 155.236 423.542 154.984C423.726 154.584 423.551 154.111 423.151 153.928ZM208.537 154.585C208.408 154.164 207.962 153.927 207.541 154.056C207.289 154.134 207.037 154.211 206.784 154.288C206.363 154.416 206.126 154.862 206.255 155.283C206.384 155.704 206.829 155.941 207.25 155.812C207.503 155.735 207.756 155.658 208.009 155.58C208.429 155.451 208.666 155.005 208.537 154.585ZM3.32684 154.805C2.92401 154.982 2.74115 155.453 2.91852 155.855C3.0264 156.101 3.13803 156.344 3.25336 156.585C3.44327 156.982 3.91913 157.15 4.31616 156.96C4.71317 156.77 4.88107 156.294 4.69113 155.897C4.58301 155.671 4.47839 155.443 4.37726 155.213C4.19998 154.81 3.72968 154.628 3.32684 154.805ZM201.718 156.645C201.593 156.223 201.15 155.981 200.728 156.106C200.475 156.18 200.223 156.254 199.97 156.329C199.548 156.453 199.306 156.895 199.43 157.318C199.554 157.74 199.997 157.982 200.419 157.858C200.672 157.784 200.925 157.709 201.179 157.634C201.601 157.51 201.842 157.067 201.718 156.645ZM194.882 158.629C194.762 158.205 194.322 157.959 193.898 158.079C193.645 158.151 193.392 158.223 193.138 158.294C192.715 158.413 192.468 158.854 192.587 159.277C192.707 159.701 193.147 159.947 193.571 159.828C193.698 159.792 193.825 159.756 193.952 159.721C194.079 159.685 194.206 159.649 194.333 159.613C194.756 159.493 195.002 159.052 194.882 158.629ZM154.399 158.988C153.988 159.146 153.784 159.608 153.942 160.018C154.034 160.257 154.124 160.497 154.213 160.737C154.366 161.15 154.824 161.361 155.237 161.209C155.65 161.056 155.861 160.598 155.708 160.185C155.617 159.937 155.524 159.691 155.429 159.445C155.271 159.035 154.81 158.83 154.399 158.988ZM188.03 160.538C187.914 160.113 187.477 159.862 187.052 159.978C186.797 160.047 186.543 160.116 186.288 160.184C185.863 160.299 185.612 160.737 185.726 161.162C185.841 161.587 186.279 161.838 186.704 161.723C186.959 161.654 187.214 161.585 187.469 161.516C187.894 161.401 188.145 160.963 188.03 160.538ZM419.964 160.624C419.572 160.424 419.092 160.579 418.892 160.971C418.836 161.08 418.793 161.162 418.765 161.217L418.733 161.279L418.725 161.294L418.723 161.297L418.723 161.298C418.519 161.688 418.669 162.17 419.059 162.374C419.449 162.578 419.931 162.427 420.135 162.037L420.136 162.036L420.147 162.015L420.18 161.95C420.21 161.893 420.254 161.808 420.311 161.697C420.511 161.305 420.356 160.825 419.964 160.624ZM6.87347 160.925C6.53503 161.207 6.48883 161.709 6.77026 162.047C6.94574 162.259 7.12479 162.468 7.30728 162.674C7.59845 163.005 8.10202 163.036 8.43213 162.745C8.76221 162.454 8.79376 161.95 8.50259 161.62C8.33023 161.425 8.16125 161.227 7.99573 161.028C7.71429 160.69 7.21185 160.644 6.87347 160.925ZM181.138 162.377C181.027 161.951 180.592 161.695 180.166 161.806C179.911 161.872 179.656 161.938 179.401 162.004C178.975 162.114 178.719 162.549 178.829 162.975C178.939 163.401 179.374 163.658 179.8 163.548C180.055 163.481 180.311 163.415 180.567 163.349C180.993 163.238 181.249 162.803 181.138 162.377ZM174.246 164.135C174.14 163.708 173.708 163.448 173.281 163.554C173.026 163.617 172.771 163.68 172.516 163.743C172.089 163.848 171.828 164.28 171.933 164.707C172.038 165.134 172.47 165.395 172.897 165.29C173.153 165.227 173.409 165.164 173.664 165.101C174.091 164.995 174.352 164.563 174.246 164.135ZM167.329 165.818C167.228 165.39 166.798 165.124 166.37 165.225C166.112 165.286 165.855 165.347 165.597 165.407C165.169 165.508 164.903 165.937 165.004 166.365C165.104 166.794 165.533 167.059 165.961 166.959C166.22 166.898 166.478 166.838 166.736 166.777C167.164 166.676 167.43 166.246 167.329 165.818ZM11.877 165.904C11.6118 166.255 11.6814 166.755 12.0326 167.02C12.2509 167.185 12.4722 167.348 12.6962 167.51C13.0532 167.767 13.5513 167.686 13.8086 167.329C14.066 166.972 13.9853 166.474 13.6282 166.217C13.4137 166.062 13.2021 165.906 12.9933 165.748C12.6421 165.483 12.1423 165.553 11.877 165.904ZM156.628 165.71C156.201 165.817 155.942 166.25 156.05 166.677C156.112 166.924 156.173 167.172 156.232 167.42C156.334 167.848 156.764 168.113 157.192 168.011C157.62 167.909 157.884 167.479 157.782 167.051C157.756 166.939 157.729 166.828 157.702 166.717C157.667 166.574 157.631 166.431 157.595 166.288C157.488 165.861 157.055 165.602 156.628 165.71ZM160.378 167.425C160.282 166.996 159.856 166.725 159.426 166.822C159.266 166.857 159.106 166.893 158.946 166.929L158.656 166.993C158.227 167.089 157.956 167.515 158.051 167.944C158.147 168.374 158.573 168.645 159.002 168.549C159.259 168.492 159.517 168.434 159.774 168.377C160.204 168.281 160.474 167.855 160.378 167.425ZM153.456 168.941C153.365 168.51 152.942 168.235 152.511 168.326C152.256 168.38 152 168.434 151.745 168.488C151.314 168.578 151.039 169 151.129 169.431C151.219 169.862 151.642 170.138 152.073 170.047C152.329 169.994 152.585 169.94 152.841 169.885C153.271 169.794 153.547 169.372 153.456 168.941ZM17.8115 169.759C17.61 170.15 17.7637 170.63 18.155 170.832C18.3925 170.954 18.632 171.075 18.8737 171.195C19.2681 171.39 19.7462 171.229 19.9414 170.834C20.1367 170.44 19.9753 169.962 19.5808 169.766C19.3467 169.651 19.1147 169.533 18.8849 169.415C18.4936 169.214 18.0131 169.367 17.8115 169.759ZM146.447 170.388C146.361 169.956 145.942 169.675 145.51 169.761C145.251 169.813 144.992 169.864 144.733 169.915C144.301 170 144.02 170.419 144.105 170.851C144.19 171.283 144.609 171.564 145.041 171.479C145.301 171.427 145.561 171.376 145.821 171.324C146.252 171.239 146.533 170.819 146.447 170.388ZM139.467 171.738C139.387 171.305 138.971 171.019 138.539 171.099C138.393 171.126 138.247 171.153 138.102 171.18C137.991 171.201 137.879 171.221 137.768 171.242C137.335 171.321 137.048 171.737 137.128 172.169C137.208 172.602 137.623 172.889 138.056 172.809C138.313 172.762 138.571 172.714 138.829 172.666C139.262 172.586 139.548 172.17 139.467 171.738ZM24.3293 172.697C24.1785 173.11 24.3914 173.567 24.8048 173.718C25.0476 173.807 25.2918 173.894 25.5377 173.981C25.9528 174.127 26.4078 173.909 26.554 173.494C26.7 173.078 26.4819 172.623 26.0667 172.477C25.9287 172.429 25.7912 172.38 25.6543 172.331C25.5529 172.294 25.4518 172.258 25.351 172.221C24.9375 172.07 24.4801 172.283 24.3293 172.697ZM132.471 172.997C132.396 172.563 131.984 172.272 131.55 172.347C131.288 172.392 131.026 172.436 130.764 172.481C130.33 172.555 130.038 172.966 130.112 173.4C130.185 173.834 130.597 174.126 131.031 174.052C131.237 174.017 131.443 173.982 131.649 173.947L131.82 173.917C132.254 173.843 132.545 173.431 132.471 172.997ZM158.056 172.659C157.619 172.719 157.314 173.12 157.373 173.556C157.389 173.671 157.405 173.787 157.42 173.902C157.437 174.038 157.455 174.173 157.472 174.309C157.526 174.746 157.924 175.056 158.361 175.002C158.798 174.947 159.108 174.549 159.053 174.112C159.032 173.941 159.01 173.771 158.988 173.601C158.976 173.514 158.965 173.428 158.953 173.341C158.893 172.905 158.492 172.6 158.056 172.659ZM125.417 174.168C125.348 173.733 124.94 173.436 124.506 173.505C124.246 173.545 123.987 173.586 123.728 173.626C123.293 173.694 122.995 174.101 123.063 174.536C123.131 174.971 123.538 175.269 123.973 175.201C124.233 175.161 124.493 175.12 124.753 175.079C125.188 175.011 125.485 174.603 125.417 174.168ZM31.158 174.892C31.0466 175.318 31.3014 175.753 31.7272 175.865C31.8762 175.904 32.0256 175.942 32.1754 175.981C32.2969 176.012 32.4187 176.043 32.5408 176.074C32.9676 176.181 33.4007 175.922 33.5081 175.495C33.6156 175.069 33.3567 174.635 32.9299 174.528C32.7561 174.484 32.5829 174.44 32.4104 174.396C32.317 174.371 32.2238 174.347 32.1307 174.323C31.7049 174.211 31.2694 174.466 31.158 174.892ZM118.448 175.223C118.386 174.787 117.982 174.484 117.547 174.546C117.284 174.583 117.022 174.62 116.76 174.657C116.324 174.718 116.02 175.121 116.081 175.557C116.143 175.992 116.545 176.296 116.981 176.235C117.244 176.198 117.507 176.161 117.771 176.124C118.207 176.062 118.51 175.658 118.448 175.223ZM111.316 176.191C111.261 175.754 110.862 175.444 110.426 175.499C110.163 175.532 109.902 175.565 109.64 175.597C109.203 175.651 108.893 176.049 108.947 176.486C109.001 176.923 109.399 177.233 109.836 177.179C110.098 177.147 110.361 177.114 110.624 177.081C111.061 177.026 111.37 176.627 111.316 176.191ZM37.9927 176.473C37.9116 176.905 38.1965 177.322 38.6291 177.403C38.7487 177.425 38.8685 177.447 38.9886 177.47C39.1316 177.496 39.275 177.522 39.4187 177.548C39.8519 177.626 40.2663 177.338 40.3444 176.905C40.4225 176.472 40.1347 176.058 39.7015 175.979C39.4409 175.932 39.1813 175.885 38.9228 175.836C38.4903 175.755 38.0738 176.04 37.9927 176.473ZM104.288 177.028C104.241 176.59 103.848 176.274 103.41 176.321C103.153 176.349 102.895 176.377 102.638 176.404C102.201 176.451 101.884 176.843 101.93 177.281C101.977 177.719 102.37 178.036 102.807 177.989C102.937 177.975 103.066 177.962 103.195 177.948C103.324 177.934 103.453 177.92 103.582 177.906C104.02 177.858 104.336 177.465 104.288 177.028ZM45.0918 177.633C45.0356 178.069 45.344 178.469 45.7805 178.525C45.9183 178.542 46.0564 178.56 46.1947 178.577C46.3117 178.592 46.4289 178.607 46.5463 178.621C46.9831 178.675 47.3808 178.364 47.4346 177.928C47.4884 177.491 47.1779 177.093 46.741 177.039C46.4878 177.008 46.2354 176.976 45.9839 176.944C45.5474 176.888 45.1479 177.196 45.0918 177.633ZM97.1712 177.749C97.1319 177.31 96.7446 176.987 96.3063 177.026C96.0413 177.05 95.7766 177.073 95.5123 177.096C95.0739 177.135 94.7496 177.521 94.7879 177.96C94.8263 178.398 95.2128 178.723 95.6513 178.684C95.9167 178.661 96.1826 178.637 96.4487 178.614C96.887 178.574 97.2105 178.187 97.1712 177.749ZM90.0833 178.33C90.0528 177.891 89.6722 177.559 89.2331 177.59C88.9742 177.608 88.7157 177.625 88.4575 177.643C88.0184 177.672 87.6862 178.052 87.7157 178.491C87.7451 178.93 88.1249 179.262 88.5641 179.233C88.8235 179.215 89.0833 179.198 89.3434 179.18C89.7825 179.149 90.1137 178.769 90.0833 178.33ZM52.1199 178.404C52.0839 178.843 52.4103 179.228 52.8489 179.264C53.118 179.286 53.3878 179.307 53.6583 179.328C54.0972 179.362 54.4804 179.034 54.5143 178.595C54.5482 178.156 54.22 177.773 53.7811 177.739C53.6053 177.726 53.4297 177.712 53.2545 177.698C53.1627 177.69 53.0709 177.683 52.9793 177.675C52.5406 177.639 52.1559 177.966 52.1199 178.404ZM82.9849 178.761C82.9643 178.322 82.5912 177.982 82.1515 178.003C82.0061 178.01 81.8608 178.016 81.7156 178.023C81.5936 178.028 81.4717 178.034 81.3499 178.039C80.9102 178.059 80.5695 178.431 80.589 178.871C80.6084 179.31 80.9806 179.651 81.4203 179.632C81.6885 179.62 81.9572 179.607 82.2262 179.595C82.6659 179.574 83.0055 179.201 82.9849 178.761ZM59.2386 178.877C59.2197 179.316 59.5608 179.688 60.0005 179.707C60.2597 179.718 60.5195 179.729 60.7799 179.739C61.2197 179.756 61.5902 179.414 61.6074 178.974C61.6246 178.534 61.2821 178.164 60.8423 178.146C60.5839 178.136 60.3261 178.126 60.069 178.115C59.6293 178.096 59.2575 178.437 59.2386 178.877ZM75.8471 179.028C75.8376 178.588 75.4731 178.24 75.0331 178.249C74.7735 178.255 74.5144 178.26 74.2558 178.265C73.8157 178.273 73.4657 178.637 73.474 179.077C73.4823 179.517 73.8458 179.867 74.2858 179.858C74.5461 179.854 74.8067 179.848 75.0678 179.843C75.5078 179.833 75.8567 179.469 75.8471 179.028ZM66.3564 179.088C66.352 179.528 66.7053 179.889 67.1454 179.893C67.2808 179.894 67.4163 179.895 67.552 179.897C67.6868 179.898 67.8218 179.899 67.9568 179.899C68.397 179.902 68.756 179.548 68.7589 179.108C68.7617 178.668 68.4072 178.309 67.9671 178.306C67.6978 178.304 67.4292 178.302 67.1611 178.299C66.721 178.295 66.3607 178.648 66.3564 179.088ZM158.733 179.721C158.294 179.737 157.95 180.106 157.965 180.546C157.97 180.68 157.975 180.814 157.979 180.948L157.99 181.334C158.004 181.774 158.372 182.12 158.811 182.106C159.251 182.093 159.597 181.725 159.583 181.285L159.572 180.9C159.568 180.763 159.563 180.626 159.558 180.489C159.543 180.049 159.173 179.705 158.733 179.721ZM158.974 186.828C158.534 186.844 158.192 187.215 158.208 187.654C158.218 187.916 158.229 188.179 158.239 188.442C158.256 188.882 158.627 189.225 159.066 189.207C159.506 189.19 159.849 188.82 159.831 188.38C159.821 188.117 159.811 187.855 159.801 187.594C159.784 187.154 159.414 186.811 158.974 186.828ZM159.271 193.949C158.831 193.97 158.491 194.343 158.512 194.783C158.525 195.048 158.537 195.314 158.55 195.58C158.571 196.02 158.945 196.359 159.384 196.338C159.824 196.317 160.163 195.943 160.142 195.504C160.134 195.34 160.126 195.176 160.119 195.013L160.104 194.708C160.083 194.268 159.71 193.929 159.271 193.949ZM159.632 201.081C159.192 201.106 158.856 201.482 158.881 201.922C158.896 202.188 158.911 202.455 158.926 202.723C158.951 203.162 159.328 203.498 159.768 203.473C160.207 203.447 160.543 203.071 160.517 202.631C160.502 202.364 160.487 202.098 160.472 201.832C160.447 201.393 160.071 201.057 159.632 201.081ZM160.06 208.201C159.62 208.23 159.288 208.609 159.317 209.049C159.334 209.31 159.352 209.572 159.37 209.834C159.399 210.273 159.779 210.605 160.218 210.576C160.657 210.546 160.989 210.166 160.96 209.727C160.942 209.465 160.925 209.204 160.907 208.943C160.878 208.504 160.499 208.172 160.06 208.201ZM160.559 215.306C160.121 215.339 159.792 215.722 159.826 216.161C159.846 216.424 159.867 216.687 159.887 216.95C159.922 217.389 160.305 217.716 160.744 217.682C161.183 217.648 161.511 217.264 161.476 216.826L161.452 216.518C161.44 216.358 161.427 216.199 161.415 216.039C161.381 215.6 160.998 215.272 160.559 215.306ZM161.138 222.41C160.7 222.449 160.376 222.836 160.415 223.274C160.438 223.537 160.462 223.801 160.485 224.064C160.525 224.502 160.912 224.826 161.351 224.786C161.789 224.747 162.112 224.359 162.073 223.921C162.049 223.658 162.026 223.396 162.002 223.133C161.964 222.695 161.577 222.371 161.138 222.41ZM161.803 229.509C161.365 229.554 161.047 229.945 161.091 230.383C161.118 230.646 161.145 230.909 161.172 231.172C161.217 231.61 161.609 231.928 162.047 231.883C162.484 231.837 162.803 231.446 162.757 231.008C162.745 230.887 162.732 230.765 162.72 230.644C162.706 230.503 162.691 230.362 162.677 230.221C162.632 229.783 162.241 229.465 161.803 229.509ZM162.564 236.599C162.127 236.649 161.814 237.045 161.864 237.482C161.895 237.745 161.926 238.007 161.957 238.27C162.008 238.707 162.405 239.019 162.842 238.968C163.279 238.916 163.591 238.52 163.54 238.083C163.509 237.821 163.478 237.56 163.448 237.298C163.397 236.861 163.001 236.548 162.564 236.599ZM163.431 243.674C162.995 243.732 162.689 244.132 162.747 244.569C162.781 244.83 162.816 245.091 162.852 245.353C162.91 245.789 163.312 246.095 163.748 246.036C164.184 245.977 164.49 245.576 164.431 245.139C164.396 244.879 164.361 244.619 164.326 244.359C164.268 243.922 163.868 243.616 163.431 243.674ZM164.42 250.728C163.985 250.794 163.686 251.201 163.752 251.636C163.792 251.899 163.832 252.162 163.873 252.424C163.94 252.859 164.347 253.158 164.782 253.09C165.217 253.023 165.515 252.616 165.448 252.181C165.408 251.92 165.368 251.658 165.328 251.396C165.262 250.961 164.855 250.662 164.42 250.728ZM165.551 257.772C165.117 257.848 164.827 258.261 164.903 258.694C164.925 258.823 164.948 258.952 164.971 259.08C164.994 259.214 165.018 259.348 165.041 259.481C165.118 259.915 165.532 260.204 165.965 260.127C166.399 260.05 166.688 259.636 166.611 259.203C166.591 259.091 166.571 258.979 166.551 258.868C166.525 258.719 166.499 258.569 166.473 258.42C166.397 257.986 165.984 257.696 165.551 257.772ZM166.847 264.79C166.416 264.877 166.137 265.297 166.224 265.729C166.276 265.989 166.329 266.249 166.382 266.509C166.471 266.94 166.892 267.218 167.323 267.129C167.754 267.041 168.032 266.62 167.944 266.189C167.891 265.931 167.838 265.672 167.786 265.413C167.699 264.982 167.279 264.703 166.847 264.79ZM74.8348 266.239C74.4196 266.385 74.2013 266.84 74.3471 267.255C74.3939 267.388 74.4435 267.52 74.4958 267.651C74.6589 268.06 75.1225 268.259 75.5313 268.096C75.9401 267.933 76.1392 267.469 75.9761 267.061C75.9319 266.95 75.8902 266.839 75.8509 266.727C75.705 266.312 75.2501 266.093 74.8348 266.239ZM78.4759 271.784C78.1991 272.126 78.252 272.628 78.5942 272.905C78.799 273.07 79.0096 273.234 79.2256 273.395C79.5785 273.658 80.0778 273.585 80.3408 273.232C80.6039 272.879 80.5311 272.38 80.1782 272.117C79.9784 271.968 79.7845 271.818 79.5967 271.665C79.2545 271.389 78.7527 271.442 78.4759 271.784ZM168.341 271.762C167.912 271.863 167.647 272.292 167.747 272.72C167.808 272.978 167.869 273.234 167.93 273.489C168.033 273.917 168.463 274.181 168.891 274.079C169.319 273.976 169.582 273.546 169.48 273.118C169.419 272.865 169.359 272.61 169.299 272.355C169.198 271.927 168.769 271.661 168.341 271.762ZM84.5095 275.58C84.3299 275.982 84.51 276.453 84.9118 276.632C85.148 276.738 85.3874 276.842 85.6298 276.946C86.0347 277.118 86.5028 276.93 86.6752 276.525C86.8477 276.12 86.6593 275.652 86.2543 275.479C86.0204 275.38 85.7896 275.279 85.5622 275.177C85.1604 274.998 84.6891 275.178 84.5095 275.58ZM91.1135 278.108C90.9854 278.529 91.2229 278.974 91.644 279.102C91.7975 279.149 91.9517 279.195 92.1067 279.241C92.2087 279.272 92.3111 279.302 92.4138 279.332C92.8362 279.456 93.2789 279.214 93.4027 278.792C93.5266 278.369 93.2846 277.927 92.8623 277.803C92.6086 277.728 92.3571 277.653 92.1078 277.577C91.6867 277.449 91.2415 277.687 91.1135 278.108ZM170.072 278.66C169.648 278.778 169.4 279.218 169.518 279.642C169.561 279.794 169.604 279.947 169.646 280.099C169.675 280.201 169.704 280.303 169.733 280.405C169.853 280.829 170.294 281.074 170.717 280.954C171.141 280.834 171.387 280.393 171.266 279.97C171.221 279.811 171.176 279.652 171.132 279.493C171.106 279.4 171.08 279.307 171.054 279.214C170.936 278.79 170.496 278.542 170.072 278.66ZM98.0137 279.971C97.9169 280.401 98.1866 280.827 98.6159 280.924C98.881 280.984 99.1475 281.043 99.4156 281.102C99.8455 281.196 100.27 280.923 100.364 280.493C100.458 280.063 100.186 279.638 99.7559 279.544C99.4911 279.487 99.2279 279.428 98.9663 279.369C98.5369 279.272 98.1104 279.542 98.0137 279.971ZM105.019 281.402C104.943 281.836 105.233 282.249 105.666 282.325C105.921 282.37 106.176 282.414 106.433 282.458C106.867 282.532 107.279 282.241 107.353 281.807C107.427 281.373 107.136 280.961 106.702 280.887C106.448 280.844 106.194 280.8 105.942 280.755C105.508 280.679 105.095 280.969 105.019 281.402ZM112.038 282.535C111.976 282.971 112.279 283.374 112.715 283.436C112.974 283.473 113.233 283.509 113.493 283.545C113.929 283.606 114.331 283.301 114.392 282.865C114.452 282.429 114.148 282.027 113.712 281.966C113.582 281.948 113.452 281.93 113.322 281.912C113.194 281.894 113.066 281.876 112.939 281.858C112.503 281.796 112.099 282.1 112.038 282.535ZM119.099 283.465C119.048 283.902 119.361 284.298 119.798 284.349C120.058 284.38 120.32 284.41 120.581 284.44C121.019 284.49 121.414 284.177 121.464 283.74C121.515 283.302 121.201 282.907 120.764 282.857C120.597 282.837 120.43 282.818 120.263 282.799C120.17 282.788 120.077 282.777 119.984 282.766C119.546 282.715 119.15 283.027 119.099 283.465ZM126.184 284.244C126.14 284.682 126.46 285.073 126.898 285.116C127.16 285.142 127.422 285.168 127.685 285.194C128.123 285.237 128.512 284.917 128.555 284.479C128.598 284.041 128.278 283.651 127.84 283.608C127.578 283.582 127.317 283.556 127.056 283.53C126.618 283.487 126.227 283.806 126.184 284.244ZM133.281 284.914C133.243 285.352 133.568 285.739 134.006 285.777C134.269 285.8 134.532 285.822 134.795 285.845C135.234 285.882 135.619 285.557 135.657 285.119C135.695 284.68 135.37 284.294 134.931 284.257C134.669 284.234 134.406 284.212 134.144 284.189C133.706 284.151 133.319 284.475 133.281 284.914ZM140.387 285.505C140.353 285.943 140.681 286.327 141.119 286.361C141.383 286.382 141.646 286.402 141.909 286.422C142.348 286.456 142.731 286.128 142.765 285.689C142.799 285.25 142.471 284.867 142.032 284.833C141.769 284.813 141.506 284.793 141.243 284.772C140.805 284.738 140.421 285.066 140.387 285.505ZM147.497 286.042C147.465 286.481 147.795 286.863 148.234 286.895L149.024 286.952C149.463 286.984 149.845 286.654 149.877 286.215C149.908 285.776 149.578 285.394 149.139 285.362L148.349 285.305C147.91 285.273 147.529 285.603 147.497 286.042ZM172.122 285.504C171.704 285.645 171.48 286.097 171.621 286.514C171.706 286.769 171.793 287.022 171.88 287.274C172.023 287.69 172.477 287.911 172.893 287.768C173.309 287.624 173.53 287.171 173.386 286.755C173.301 286.506 173.216 286.257 173.131 286.005C172.991 285.588 172.539 285.364 172.122 285.504ZM154.609 286.551C154.578 286.99 154.909 287.371 155.348 287.401L156.139 287.457C156.578 287.488 156.959 287.157 156.99 286.718C157.021 286.279 156.69 285.898 156.251 285.867L155.46 285.811C155.021 285.781 154.64 286.111 154.609 286.551ZM161.723 287.052C161.691 287.491 162.022 287.872 162.461 287.904L163.251 287.961C163.69 287.992 164.071 287.662 164.103 287.223C164.135 286.784 163.804 286.402 163.365 286.371L162.574 286.314C162.135 286.283 161.754 286.613 161.723 287.052ZM168.835 287.572C168.802 288.011 169.13 288.394 169.569 288.428C169.705 288.438 169.841 288.448 169.976 288.459L170.357 288.488C170.796 288.522 171.179 288.194 171.213 287.755C171.247 287.316 170.919 286.933 170.48 286.899C170.218 286.879 169.955 286.859 169.691 286.838C169.252 286.805 168.869 287.133 168.835 287.572ZM175.943 288.14C175.906 288.579 176.23 288.965 176.669 289.003C176.931 289.026 177.191 289.048 177.452 289.071C177.89 289.11 178.277 288.786 178.315 288.347C178.354 287.909 178.03 287.522 177.591 287.483C177.33 287.461 177.069 287.438 176.806 287.415C176.368 287.377 175.981 287.702 175.943 288.14ZM183.036 288.795C182.99 289.233 183.309 289.625 183.746 289.67C183.899 289.686 184.05 289.702 184.202 289.717C184.307 289.729 184.413 289.74 184.518 289.751C184.955 289.797 185.348 289.48 185.394 289.042C185.44 288.605 185.123 288.212 184.686 288.166C184.428 288.139 184.17 288.112 183.91 288.085C183.473 288.039 183.081 288.358 183.036 288.795ZM190.082 289.593C190.025 290.029 190.332 290.43 190.768 290.487C190.863 290.5 190.958 290.512 191.053 290.525C191.226 290.548 191.399 290.571 191.571 290.595C192.007 290.654 192.409 290.349 192.468 289.913C192.527 289.477 192.222 289.075 191.786 289.016C191.518 288.979 191.248 288.943 190.976 288.907C190.54 288.85 190.14 289.157 190.082 289.593ZM197.185 290.652C197.106 291.085 197.392 291.5 197.825 291.579C197.956 291.603 198.086 291.628 198.216 291.652C198.344 291.676 198.472 291.7 198.599 291.724C199.032 291.807 199.449 291.524 199.532 291.092C199.615 290.659 199.331 290.242 198.899 290.159C198.64 290.109 198.377 290.06 198.113 290.012C197.68 289.932 197.265 290.219 197.185 290.652ZM204.099 292.156C203.975 292.579 204.217 293.022 204.639 293.146C204.907 293.224 205.168 293.304 205.424 293.385C205.844 293.517 206.291 293.284 206.424 292.865C206.557 292.445 206.324 291.997 205.904 291.865C205.638 291.781 205.366 291.698 205.088 291.616C204.666 291.492 204.223 291.734 204.099 292.156ZM174.572 292.192C174.167 292.363 173.976 292.83 174.147 293.236C174.19 293.338 174.233 293.44 174.277 293.541C174.336 293.68 174.395 293.817 174.454 293.955C174.629 294.358 175.098 294.544 175.502 294.369C175.906 294.194 176.092 293.725 175.917 293.321C175.816 293.088 175.716 292.854 175.616 292.617C175.445 292.211 174.978 292.021 174.572 292.192ZM210.748 294.813C210.481 295.163 210.548 295.663 210.899 295.93C211.094 296.079 211.273 296.229 211.435 296.381C211.757 296.681 212.262 296.663 212.562 296.342C212.862 296.02 212.845 295.516 212.523 295.215C212.318 295.025 212.099 294.84 211.865 294.662C211.515 294.395 211.015 294.463 210.748 294.813ZM177.598 298.657C177.213 298.872 177.076 299.357 177.291 299.742C177.422 299.977 177.554 300.209 177.688 300.439C177.908 300.82 178.396 300.95 178.777 300.729C179.158 300.508 179.287 300.02 179.067 299.64C178.938 299.417 178.809 299.192 178.682 298.964C178.467 298.58 177.982 298.442 177.598 298.657ZM213.08 300.791C212.699 300.57 212.212 300.7 211.991 301.08C211.876 301.278 211.746 301.481 211.6 301.69C211.348 302.051 211.436 302.548 211.797 302.8C212.157 303.052 212.654 302.964 212.906 302.603C213.076 302.361 213.231 302.119 213.369 301.88C213.59 301.499 213.461 301.012 213.08 300.791ZM181.451 304.638C181.112 304.919 181.065 305.421 181.347 305.76C181.522 305.972 181.7 306.179 181.878 306.383C182.169 306.713 182.672 306.746 183.003 306.456C183.334 306.165 183.366 305.661 183.076 305.331C182.907 305.139 182.739 304.943 182.573 304.742C182.292 304.403 181.789 304.357 181.451 304.638ZM208.37 306.081C208.101 305.733 207.601 305.668 207.252 305.937C207.192 305.984 207.13 306.031 207.068 306.078C207.015 306.119 206.961 306.16 206.907 306.201C206.796 306.284 206.686 306.366 206.577 306.448C206.223 306.709 206.148 307.208 206.409 307.562C206.671 307.916 207.17 307.991 207.524 307.729C207.601 307.673 207.678 307.615 207.755 307.558C207.792 307.53 207.83 307.501 207.867 307.473C207.989 307.381 208.108 307.29 208.226 307.199C208.574 306.93 208.639 306.43 208.37 306.081ZM186.57 309.558C186.341 309.934 186.461 310.424 186.837 310.652C187.073 310.796 187.312 310.933 187.553 311.064C187.94 311.273 188.424 311.13 188.633 310.743C188.843 310.356 188.699 309.872 188.312 309.662C188.095 309.545 187.879 309.421 187.665 309.29C187.288 309.062 186.798 309.181 186.57 309.558ZM202.327 310.033C202.145 309.632 201.672 309.455 201.271 309.638C201.044 309.742 200.817 309.84 200.593 309.933C200.186 310.102 199.993 310.568 200.162 310.975C200.331 311.381 200.797 311.574 201.204 311.405C201.445 311.305 201.688 311.199 201.932 311.088C202.332 310.906 202.509 310.433 202.327 310.033ZM193.18 312.016C193.164 312.455 193.508 312.825 193.948 312.841C194.221 312.851 194.495 312.853 194.772 312.847C195.212 312.838 195.561 312.474 195.552 312.034C195.543 311.594 195.179 311.245 194.739 311.254C194.493 311.259 194.248 311.257 194.005 311.248C193.565 311.232 193.196 311.576 193.18 312.016Z" fill="#1B2B7C"/>
<path opacity="0.03" fill-rule="evenodd" clip-rule="evenodd" d="M325.129 61.8053C329.095 65.4446 333.858 68.8627 339.53 71.9079C363.616 84.8409 390.096 77.8497 410.532 71.4005C412.346 70.828 414.107 70.262 415.811 69.714C423.885 67.1178 430.698 64.9273 435.992 64.3725C439.169 64.0394 441.438 64.3473 442.987 65.2333C444.428 66.0574 445.573 67.5744 446.094 70.5017C447.388 77.7725 446.037 87.3982 443.109 97.9445C440.197 108.436 435.793 119.607 431.196 129.865C426.601 140.115 421.834 149.411 418.213 156.148C416.403 159.514 414.881 162.239 413.813 164.12C413.279 165.06 412.858 165.789 412.572 166.282C412.463 166.47 412.373 166.624 412.304 166.742C412.283 166.778 412.263 166.812 412.246 166.842L412.163 166.982L412.138 167.025L412.137 167.027C412.136 167.028 412.136 167.028 413.85 168.043C415.564 169.059 415.565 169.058 415.565 169.057L415.567 169.055L415.595 169.006L415.682 168.858C415.759 168.728 415.871 168.535 416.018 168.284C416.31 167.78 416.737 167.04 417.278 166.087C418.359 164.183 419.896 161.432 421.722 158.034C425.374 151.241 430.187 141.856 434.832 131.494C439.472 121.14 443.963 109.768 446.949 99.0102C449.92 88.3067 451.471 77.975 450.017 69.8037C449.349 66.0492 447.695 63.3356 444.966 61.7745C442.344 60.2753 439.072 60.0433 435.576 60.4096C429.83 61.0118 422.506 63.3701 414.434 65.9693C412.763 66.5072 411.06 67.0555 409.333 67.6006C388.8 74.0804 363.867 80.4529 341.415 68.3974C335.799 65.3821 331.148 61.9991 327.331 58.4138C332.63 49.792 335.36 41.5287 334.482 34.0585C333.473 25.4852 331.9 19.009 329.986 14.3326C328.095 9.71048 325.762 6.58222 323.052 5.11824C320.143 3.5467 317.168 4.08286 314.766 5.96493C312.472 7.76279 310.684 10.7635 309.521 14.348C305.946 25.3695 307.681 43.6885 322.237 58.9691C321.521 60.0365 320.76 61.1173 319.955 62.2107C312.209 72.7344 300.635 84.1156 286.383 95.6885C257.889 118.825 218.957 142.512 179.333 161.427C170.692 165.552 162.027 169.446 153.438 173.055C149.918 157.695 141.45 147.061 130.188 140.313C115.867 131.732 97.2773 129.58 79.1982 131.503C61.0998 133.428 43.2441 139.464 30.2308 147.573C23.7254 151.626 18.3427 156.252 14.7638 161.227C11.1772 166.213 9.32843 171.665 10.1728 177.238C11.9201 188.77 18.8256 196.2 29.2723 200.113C39.5711 203.971 53.3052 204.43 69.0658 202.386C92.5393 199.342 121.01 190.674 150.437 178.614C150.852 181.373 151.112 184.286 151.205 187.36C152.011 213.939 161.243 254.446 175.196 284.661C176.902 288.356 178.686 291.913 180.543 295.283C176.419 294.879 172.195 294.486 167.922 294.094C166.337 293.949 164.744 293.803 163.146 293.658C142.817 291.802 121.673 289.872 104.64 286.796C95.4492 285.136 87.5692 283.161 81.7074 280.734C75.7213 278.254 72.3906 275.525 71.4001 272.706C71.0354 271.668 69.8981 271.122 68.86 271.486C67.8219 271.851 67.2761 272.988 67.6408 274.027C69.2402 278.579 74.0531 281.876 80.1826 284.415C86.4364 287.005 94.6441 289.04 103.932 290.717C121.147 293.826 142.463 295.771 162.739 297.622C164.353 297.769 165.96 297.916 167.558 298.062C172.835 298.546 178.005 299.029 182.982 299.53C188.063 308.008 193.637 315.022 199.603 319.654C204.225 323.243 209.184 325.482 214.401 325.753C219.647 326.026 224.917 324.297 230.104 320.38C232.642 318.464 234.478 316.567 235.444 314.637C236.469 312.59 236.504 310.5 235.424 308.598C234.429 306.847 232.621 305.496 230.493 304.404C228.327 303.291 225.596 302.33 222.452 301.477C213.391 299.019 200.201 297.29 185.392 295.769C183.112 291.825 180.914 287.54 178.813 282.991C165.073 253.237 155.976 213.256 155.188 187.239C155.079 183.648 154.752 180.253 154.222 177.047C163.13 173.319 172.11 169.29 181.049 165.023C220.885 146.007 260.101 122.162 288.895 98.7817C303.286 87.0961 315.141 75.4727 323.164 64.5727C323.845 63.6472 324.5 62.7246 325.129 61.8053ZM187.983 300.047C201.474 301.483 213.238 303.106 221.409 305.323C224.417 306.139 226.853 307.014 228.673 307.948C230.531 308.902 231.528 309.808 231.959 310.567C232.304 311.174 232.386 311.845 231.881 312.853C231.317 313.979 230.046 315.431 227.703 317.201C223.128 320.655 218.761 321.99 214.608 321.774C210.427 321.556 206.228 319.754 202.047 316.507C197.158 312.711 192.433 307.048 187.983 300.047ZM149.703 174.608C120.211 186.747 91.7912 195.421 68.5533 198.435C53.0476 200.446 40.075 199.905 30.6702 196.382C21.4133 192.914 15.6185 186.581 14.1125 176.641C13.4678 172.386 14.8245 167.966 17.9984 163.554C21.1799 159.131 26.1127 154.833 32.338 150.954C44.7859 143.198 62.0524 137.334 79.6197 135.465C97.2063 133.594 114.826 135.754 128.14 143.731C138.565 149.977 146.505 159.88 149.703 174.608ZM324.441 55.4935C311.504 41.4039 310.254 25.0032 313.311 15.5775C314.335 12.422 315.777 10.2351 317.224 9.10125C318.563 8.05164 319.84 7.91199 321.158 8.62398C322.675 9.44353 324.545 11.5581 326.298 15.8416C328.029 20.0708 329.541 26.1629 330.524 34.5241C331.234 40.5547 329.13 47.6256 324.441 55.4935ZM412.835 169.757C413.781 170.318 415.004 170.005 415.564 169.059L413.85 168.043L412.137 167.027C411.576 167.974 411.888 169.196 412.835 169.757Z" fill="#1B2B7C"/>
<path d="M88.7233 245.144L79.5659 255.574L22.5027 239.003L88.7233 245.144Z" fill="#FFD844"/>
<path d="M77.0887 277.344L79.5981 255.574L22.5349 239.003L71.1575 264.672L77.0887 277.344Z" fill="#F6AF00"/>
<path d="M55.743 280.236L71.1575 264.672L22.5349 239.003L55.743 280.236Z" fill="#FFD844"/>
<path d="M460.933 279.621C458.314 279.768 455.882 281.842 453.812 283.309C453.582 283.472 453.137 283.87 452.685 284.232C453.372 283.025 454.052 281.782 454.739 280.576C455.206 279.756 455.681 278.973 456.149 278.154C456.824 278.122 458.145 277.573 459.776 277.411C461.669 277.231 462.621 277.783 464.019 276.007C465.323 274.327 465.513 271.865 462.894 272.013C460.688 272.147 458.965 273.993 457.495 275.785C458.926 273.283 460.189 270.704 461.043 267.986C467.008 263.148 468.062 252.558 465.591 245.828C465.342 245.201 465.042 244.509 464.47 244.141C463.203 243.354 461.549 244.467 460.841 245.754C459.828 247.56 459.656 249.753 459.875 251.824C460.093 253.895 460.681 255.924 461.008 257.971C461.302 259.686 461.29 261.39 461.19 263.038C461.161 263.082 461.161 263.082 461.169 263.118C460.68 265.947 459.629 268.631 458.322 271.181C458.623 269.415 458.444 266.995 458.35 266.032C458.116 263.359 457.199 260.682 455.377 258.729C455.031 258.35 454.611 257.986 454.097 258.059C453.466 258.119 453.068 258.735 452.859 259.347C452.09 261.403 452.109 263.782 452.959 265.793C454.049 268.395 456.033 270.577 457.188 273.127C457.224 273.12 457.26 273.112 457.297 273.104C456.447 274.611 455.581 276.045 454.68 277.487C454.668 275.145 454.056 272.478 453.539 271.303C453.148 270.366 452.612 269.46 451.732 268.893C450.889 268.318 449.661 268.242 448.893 268.899C448.441 269.261 448.188 269.845 448.087 270.434C447.765 272.281 448.801 274.1 449.789 275.703C450.778 277.306 451.71 278.996 452.771 280.583C452.657 280.759 452.544 280.935 452.466 281.103C450.97 283.656 449.483 286.245 448.067 288.819C448.356 287.168 448.492 285.513 448.512 283.845C448.543 280.472 447.928 277.087 446.282 274.188C445.62 273.045 444.776 271.941 443.62 271.32C443.152 271.08 442.547 270.908 442.123 271.226C441.893 271.389 441.722 271.652 441.632 271.937C440.893 273.608 441.197 275.547 441.795 277.272C442.756 279.977 444.402 282.346 445.746 284.894C446.514 286.354 447.366 288.024 447.651 289.703C446.187 292.4 444.766 295.127 443.426 297.873C444.094 294.818 443.944 290.954 443.71 288.282C443.484 285.645 442.556 282.743 440.179 281.553C439.843 281.398 439.47 281.252 439.057 281.265C437.852 281.297 437.028 282.572 436.863 283.742C436.66 285.26 437.183 286.812 437.892 288.172C438.638 289.524 439.585 290.758 440.33 292.11C441.679 294.505 442.215 296.999 442.53 299.693C441.515 301.84 440.544 304.015 439.609 306.183C439.66 304.659 439.478 303.11 439.38 302.299C439.037 299.65 438.135 297.045 436.738 294.774C436.269 294.005 435.568 293.211 434.689 293.173C433.89 293.156 433.231 293.789 432.805 294.448C431.689 296.126 431.452 298.37 432.162 300.26C432.651 301.478 433.479 302.51 434.307 303.542C435.179 304.603 436.007 305.635 436.879 306.695C437.544 307.498 438.036 308.375 438.355 309.328C437.366 311.772 436.457 314.237 435.584 316.694C435.648 315.583 435.64 314.488 435.523 313.416C435.299 310.968 434.509 308.529 432.928 306.638C432.374 306 431.676 305.394 430.833 305.349C429.649 305.301 428.649 306.462 428.564 307.652C428.48 308.843 429.034 310.01 429.766 310.949C430.418 311.868 431.199 312.683 432.066 313.366C432.705 313.872 433.365 314.297 433.846 314.95C434.431 315.732 434.685 316.736 434.923 317.668C434.962 317.849 435.009 318.066 435.055 318.282C434.415 320.236 433.783 322.225 433.187 324.206C432.793 322.022 431.607 319.857 430.212 318.303C429.328 317.359 427.964 316.48 426.804 317.07C426.429 317.264 426.158 317.588 425.966 317.931C425.303 319.246 426.038 320.904 427.163 321.91C428.289 322.915 429.698 323.482 430.881 324.4C431.563 324.934 432.006 325.935 432.581 326.493C431.755 329.696 431.082 332.904 430.794 336.143C430.699 337.109 431.979 337.249 432.242 336.361C432.898 333.95 433.517 331.548 434.136 329.146C435.339 329.454 440.166 329.361 440.893 329.393C442.077 329.441 443.457 328.993 443.899 327.877C444.312 326.805 443.618 325.517 442.602 325.017C441.578 324.481 440.344 324.557 439.23 324.835C438.622 325.003 435.968 326.217 434.598 327.42C435.245 324.974 435.921 322.483 436.685 320.05C437.402 319.858 438.11 319.63 438.893 319.574C440.098 319.542 441.301 319.851 442.498 319.782C443.695 319.714 445.008 319.128 445.37 317.992C445.793 316.615 444.502 315.191 443.09 314.965C441.678 314.739 440.272 315.42 439.085 316.243C438.726 316.509 438.157 316.858 437.64 317.272C437.71 317.068 437.78 316.864 437.85 316.66C438.226 315.596 438.639 314.523 439.016 313.459C440.607 313.457 442.633 312.491 444.278 312.213C445.805 311.922 447.429 311.724 448.665 310.778C449.9 309.831 450.504 307.886 449.456 306.712C448.512 305.667 446.808 305.844 445.495 306.43C444.109 307.03 441.728 308.639 440.214 310.402C441.134 308.162 442.053 305.922 443.06 303.739C445.632 302.845 449.514 304.165 452.119 302.546C453.192 301.899 454.461 300.226 453.57 298.905C452.851 297.85 450.881 298.198 449.844 298.308C448.076 298.537 446.013 299.51 444.377 300.884C444.756 300.008 445.18 299.16 445.604 298.313C446.125 297.217 446.683 296.114 447.205 295.018C448.203 294.728 449.932 294.318 451.623 294.256C453.793 294.13 456.143 294.494 457.396 292.22C458.543 290.158 458.481 286.351 455.298 287.225C453.512 287.723 450.995 289.399 449.062 291.328C450.164 289.238 451.267 287.147 452.378 285.093C454.009 284.931 455.294 284.389 457.738 284.658C459.716 284.875 462.297 286.135 463.664 284.215C465.121 282.01 463.553 279.473 460.933 279.621Z" fill="#FFDA32"/>
<path opacity="0.65" d="M157.475 280.331C156.137 282.589 156.519 285.769 156.585 288.285C156.576 288.546 156.659 289.125 156.741 289.756C156.105 288.53 155.471 287.251 154.834 286.025C154.419 285.199 154.031 284.348 153.616 283.522C153.977 282.932 154.263 281.555 155.023 280.089C155.922 278.393 156.907 277.93 156.226 275.785C155.565 273.773 153.631 272.24 152.293 274.497C151.15 276.42 151.743 278.849 152.448 281.073C151.154 278.488 149.751 276.005 147.919 273.821C147.227 266.179 138.99 259.4 132.036 257.692C131.362 257.511 130.658 257.408 129.994 257.673C128.637 258.281 128.618 260.269 129.303 261.602C130.23 263.467 131.988 264.811 133.811 265.79C135.661 266.745 137.653 267.416 139.559 268.268C141.156 269.004 142.536 269.942 143.861 270.931C143.886 270.958 143.912 270.985 143.937 271.012C146.038 272.996 147.655 275.33 149.056 277.866C147.765 276.643 145.635 275.443 144.789 274.968C142.427 273.682 139.705 272.933 137.044 273.39C136.545 273.451 136.014 273.642 135.763 274.078C135.455 274.617 135.744 275.308 136.119 275.818C137.389 277.617 139.385 278.89 141.516 279.331C144.297 279.873 147.192 279.45 149.977 279.887C150.005 279.862 150.006 279.81 149.981 279.783C150.738 281.301 151.467 282.845 152.17 284.414C150.201 283.115 147.644 282.162 146.396 281.909C145.408 281.718 144.337 281.654 143.406 282.067C142.475 282.479 141.734 283.422 141.828 284.446C141.885 285.051 142.232 285.586 142.662 285.994C144.029 287.298 146.091 287.448 147.999 287.541C149.882 287.606 151.813 287.778 153.724 287.766C153.796 287.952 153.92 288.14 153.992 288.325C155.257 290.987 156.601 293.626 157.946 296.264C156.731 295.122 155.434 294.056 154.054 293.118C151.27 291.215 148.073 289.847 144.782 289.628C143.477 289.53 142.059 289.638 140.911 290.252C140.431 290.497 139.971 290.926 140.004 291.451C140.02 291.74 140.14 292.032 140.289 292.246C141.255 293.772 143.057 294.62 144.795 295.073C147.596 295.799 150.478 295.742 153.321 296.025C154.938 296.186 156.815 296.408 158.386 297.117C159.806 299.837 161.281 302.506 162.807 305.177C160.638 302.902 157.359 300.903 154.972 299.59C152.635 298.331 149.735 297.444 147.436 298.778C147.114 298.976 146.791 299.227 146.571 299.533C145.905 300.557 146.509 301.965 147.424 302.73C148.59 303.766 150.146 304.186 151.686 304.318C153.226 304.451 154.773 304.373 156.34 304.48C159.108 304.681 161.481 305.654 163.845 306.888C165.053 308.946 166.316 310.953 167.605 312.935C166.381 312.055 164.968 311.299 164.247 310.96C161.856 309.751 159.21 309.083 156.543 308.99C155.654 308.959 154.603 309.08 154.079 309.821C153.636 310.486 153.788 311.355 154.075 312.098C154.845 313.957 156.547 315.404 158.546 315.866C159.819 316.146 161.132 316.035 162.445 315.923C163.785 315.787 165.15 315.677 166.49 315.541C167.515 315.445 168.533 315.507 169.492 315.776C170.958 317.947 172.504 320.095 174.078 322.166C173.212 321.508 172.291 320.9 171.315 320.394C169.158 319.22 166.671 318.505 164.227 318.76C163.387 318.836 162.486 319.118 161.991 319.782C161.275 320.752 161.72 322.207 162.635 322.972C163.577 323.711 164.853 323.887 166.06 323.824C167.187 323.785 168.267 323.587 169.354 323.232C170.095 322.996 170.866 322.682 171.654 322.605C172.651 322.535 173.581 322.882 174.511 323.228C174.691 323.313 174.898 323.372 175.079 323.457C176.329 325.072 177.605 326.713 178.987 328.305C176.951 327.423 174.499 327.181 172.419 327.501C171.13 327.692 169.639 328.373 169.514 329.651C169.474 330.042 169.563 330.464 169.759 330.838C170.471 332.145 172.294 332.418 173.721 332.049C175.148 331.68 176.435 330.834 177.841 330.334C178.662 330.074 179.729 330.242 180.546 330.087C182.735 332.546 185.059 334.878 187.576 336.929C188.315 337.504 189.16 336.565 188.557 335.864C186.923 334 185.264 332.11 183.602 330.272C184.523 329.414 187.129 325.421 187.57 324.808C188.285 323.839 188.675 322.465 187.977 321.498C187.304 320.558 185.869 320.43 184.855 320.97C183.841 321.511 183.226 322.589 182.845 323.701C182.64 324.296 182.17 327.16 182.393 328.974C180.708 327.056 179.05 325.114 177.447 323.121C177.656 322.421 177.891 321.697 178.282 321.03C178.92 320.031 179.841 319.173 180.454 318.147C181.067 317.121 181.302 315.69 180.55 314.773C179.621 313.668 177.753 313.943 176.772 315.008C175.791 316.074 175.579 317.585 175.605 319.025C175.616 319.471 175.618 320.125 175.646 320.807C175.522 320.619 175.396 320.484 175.272 320.297C174.572 319.382 173.924 318.469 173.251 317.53C174.137 316.199 174.48 313.96 175.11 312.464C175.711 311.045 176.445 309.552 176.343 308.03C176.268 306.483 174.966 304.867 173.412 305.101C172.018 305.288 171.229 306.831 170.944 308.209C170.655 309.691 170.655 312.57 171.281 314.817C169.914 312.806 168.599 310.797 167.311 308.763C168.008 306.143 171.24 303.638 171.352 300.553C171.397 299.298 170.762 297.312 169.139 297.308C167.882 297.317 167.057 299.147 166.577 300.099C165.76 301.719 165.444 303.933 165.655 306.061C165.16 305.259 164.666 304.456 164.173 303.601C163.556 302.559 162.914 301.489 162.325 300.422C162.622 299.437 163.285 297.759 164.147 296.349C165.261 294.503 166.844 292.726 165.697 290.408C164.622 288.277 161.423 286.254 160.394 289.386C159.806 291.146 159.801 294.182 160.36 296.845C159.231 294.764 158.127 292.71 157.025 290.604C157.81 289.165 158.07 287.761 159.655 285.931C160.939 284.431 163.427 282.973 162.59 280.771C161.767 278.203 158.786 278.1 157.475 280.331Z" fill="url(#paint9_linear_45_570)"/>
<path d="M178.821 324.941C182.254 331.302 188.153 343.162 212.538 350.013C212.538 350.013 212.565 327.195 189.188 307.063C182.32 301.148 173.806 296.181 173.806 296.181C173.806 296.181 173.128 312.973 178.821 324.941Z" fill="#FB5472"/>
<path d="M187.668 324.301C192.568 332.279 203.434 339.794 203.434 339.794C203.434 339.794 194.754 332.052 189.166 323.488C183.578 314.924 180.771 308.813 180.771 308.813C180.771 308.813 182.767 316.322 187.668 324.301Z" fill="white"/>
<path d="M182.591 358.17C173.905 356.175 157.875 353.053 141.737 326.318C141.737 326.318 168.847 318.805 200.44 339.986C209.721 346.209 218.416 354.7 218.416 354.7C218.416 354.7 198.681 361.012 182.591 358.17Z" fill="#1B2B7C"/>
<path d="M180.451 347.445C169.362 344.238 156.867 333.788 156.867 333.788C156.867 333.788 168.915 341.565 180.925 345.398C192.936 349.231 201.12 350.564 201.12 350.564C201.12 350.564 191.54 350.653 180.451 347.445Z" fill="white"/>
<path d="M430.194 320.673C429.457 326.874 428.487 338.275 411.076 351.525C411.076 351.525 403.805 333.206 416.186 309.606C419.823 302.673 425.084 295.978 425.084 295.978C425.084 295.978 430.964 309.252 430.194 320.673Z" fill="#1B2B7C"/>
<path d="M422.884 322.97C421.483 330.935 415.143 340.424 415.143 340.424C415.143 340.424 419.655 331.448 421.422 322.793C423.19 314.139 423.503 308.338 423.503 308.338C423.503 308.338 424.285 315.004 422.884 322.97Z" fill="white"/>
<path d="M437.723 348.563C444.066 344.201 455.95 336.6 460.419 309.998C460.419 309.998 436.256 312.576 417.609 339.627C412.13 347.575 407.844 357.158 407.844 357.158C407.844 357.158 425.702 355.958 437.723 348.563Z" fill="#FB5472"/>
<path d="M436.035 339.269C443.923 333.169 450.639 320.806 450.639 320.806C450.639 320.806 443.433 330.88 435.003 337.775C426.574 344.67 420.423 348.341 420.423 348.341C420.423 348.341 428.146 345.369 436.035 339.269Z" fill="white"/>
<path opacity="0.3" fill-rule="evenodd" clip-rule="evenodd" d="M463.994 164.189C467.515 164.189 470.369 161.335 470.369 157.814C470.369 154.293 467.515 151.438 463.994 151.438C460.473 151.438 457.619 154.293 457.619 157.814C457.619 161.335 460.473 164.189 463.994 164.189ZM463.994 169.767C470.596 169.767 475.948 164.415 475.948 157.814C475.948 151.212 470.596 145.86 463.994 145.86C457.392 145.86 452.04 151.212 452.04 157.814C452.04 164.415 457.392 169.767 463.994 169.767Z" fill="#FB5472"/>
<path opacity="0.2" fill-rule="evenodd" clip-rule="evenodd" d="M143.299 60.5887C147.542 60.5887 150.982 57.1491 150.982 52.9061C150.982 48.6632 147.542 45.2236 143.299 45.2236C139.056 45.2236 135.617 48.6632 135.617 52.9061C135.617 57.1491 139.056 60.5887 143.299 60.5887ZM143.299 68.5579C151.944 68.5579 158.951 61.5503 158.951 52.9061C158.951 44.2619 151.944 37.2544 143.299 37.2544C134.655 37.2544 127.648 44.2619 127.648 52.9061C127.648 61.5503 134.655 68.5579 143.299 68.5579Z" fill="#1B2B7C"/>
<path opacity="0.3" fill-rule="evenodd" clip-rule="evenodd" d="M118.665 318.352C120.865 318.352 122.649 316.568 122.649 314.367C122.649 312.166 120.865 310.383 118.665 310.383C116.464 310.383 114.68 312.166 114.68 314.367C114.68 316.568 116.464 318.352 118.665 318.352ZM118.665 322.336C123.066 322.336 126.634 318.768 126.634 314.367C126.634 309.966 123.066 306.398 118.665 306.398C114.263 306.398 110.696 309.966 110.696 314.367C110.696 318.768 114.263 322.336 118.665 322.336Z" fill="#1B2B7C"/>
<defs>
<filter id="filter0_d_45_570" x="326.231" y="122.237" width="133.676" height="133.695" filterUnits="userSpaceOnUse" color-interpolation-filters="sRGB">
<feFlood flood-opacity="0" result="BackgroundImageFix"/>
<feColorMatrix in="SourceAlpha" type="matrix" values="0 0 0 0 0 0 0 0 0 0 0 0 0 0 0 0 0 0 127 0" result="hardAlpha"/>
<feOffset dy="15"/>
<feGaussianBlur stdDeviation="12.5"/>
<feColorMatrix type="matrix" values="0 0 0 0 0.9 0 0 0 0 0.19875 0 0 0 0 0.36705 0 0 0 0.25 0"/>
<feBlend mode="normal" in2="BackgroundImageFix" result="effect1_dropShadow_45_570"/>
<feBlend mode="normal" in="SourceGraphic" in2="effect1_dropShadow_45_570" result="shape"/>
</filter>
<filter id="filter1_d_45_570" x="199.238" y="121.289" width="159.667" height="187.042" filterUnits="userSpaceOnUse" color-interpolation-filters="sRGB">
<feFlood flood-opacity="0" result="BackgroundImageFix"/>
<feColorMatrix in="SourceAlpha" type="matrix" values="0 0 0 0 0 0 0 0 0 0 0 0 0 0 0 0 0 0 127 0" result="hardAlpha"/>
<feOffset dy="15"/>
<feGaussianBlur stdDeviation="12.5"/>
<feColorMatrix type="matrix" values="0 0 0 0 0.9 0 0 0 0 0.19875 0 0 0 0 0.36705 0 0 0 0.25 0"/>
<feBlend mode="normal" in2="BackgroundImageFix" result="effect1_dropShadow_45_570"/>
<feBlend mode="normal" in="SourceGraphic" in2="effect1_dropShadow_45_570" result="shape"/>
</filter>
<linearGradient id="paint0_linear_45_570" x1="177.874" y1="260.764" x2="443.122" y2="260.764" gradientUnits="userSpaceOnUse">
<stop stop-color="#FFA979"/>
<stop offset="1" stop-color="#FFC09E"/>
</linearGradient>
<linearGradient id="paint1_linear_45_570" x1="178.176" y1="174.084" x2="443.385" y2="174.084" gradientUnits="userSpaceOnUse">
<stop stop-color="#F99373"/>
<stop offset="1" stop-color="#FFA979"/>
</linearGradient>
<linearGradient id="paint2_linear_45_570" x1="178.176" y1="174.084" x2="443.385" y2="174.084" gradientUnits="userSpaceOnUse">
<stop stop-color="#F99373"/>
<stop offset="1" stop-color="#FFA979"/>
</linearGradient>
<linearGradient id="paint3_linear_45_570" x1="434.907" y1="132.237" x2="342.831" y2="142.815" gradientUnits="userSpaceOnUse">
<stop stop-color="#FF9AA0"/>
<stop offset="1" stop-color="#F94973"/>
</linearGradient>
<linearGradient id="paint4_linear_45_570" x1="154.466" y1="112.696" x2="326.958" y2="231.139" gradientUnits="userSpaceOnUse">
<stop offset="0.00116186" stop-color="#24C2E4"/>
<stop offset="0.9958" stop-color="#045FF2"/>
</linearGradient>
<linearGradient id="paint5_linear_45_570" x1="317.096" y1="138.363" x2="368.298" y2="146.756" gradientUnits="userSpaceOnUse">
<stop stop-color="#BAEDFF"/>
<stop offset="1" stop-color="#46C7FF"/>
</linearGradient>
<linearGradient id="paint6_linear_45_570" x1="350.335" y1="187.279" x2="332.475" y2="280.064" gradientUnits="userSpaceOnUse">
<stop stop-color="#AE8DEF"/>
<stop offset="0.9985" stop-color="#7546D9"/>
</linearGradient>
<linearGradient id="paint7_linear_45_570" x1="253.628" y1="128.345" x2="240.364" y2="265.052" gradientUnits="userSpaceOnUse">
<stop stop-color="#FF9AA0"/>
<stop offset="1" stop-color="#F94973"/>
</linearGradient>
<linearGradient id="paint8_linear_45_570" x1="181.174" y1="289.887" x2="439.767" y2="289.887" gradientUnits="userSpaceOnUse">
<stop stop-color="#F99373"/>
<stop offset="1" stop-color="#FFA979"/>
</linearGradient>
<linearGradient id="paint9_linear_45_570" x1="148.142" y1="307.642" x2="169.545" y2="287.706" gradientUnits="userSpaceOnUse">
<stop stop-color="#87DFFF"/>
<stop offset="1" stop-color="#3CA5FF"/>
</linearGradient>
<clipPath id="clip0_45_570">
<rect width="45.4844" height="45.4844" fill="white" transform="translate(193.612 151.7) rotate(-30)"/>
</clipPath>
</defs>
</svg>
