<svg width="607" height="551" viewBox="0 0 607 551" fill="none" xmlns="http://www.w3.org/2000/svg">
<circle opacity="0.5" cx="304" cy="275.5" r="235" stroke="#DBDFF3" stroke-width="80"/>
<path opacity="0.31" d="M48.5837 523.146L78.3136 538.191L104.036 497.5L48.5837 523.146Z" fill="#C5D5FF"/>
<path opacity="0.1" d="M104.036 497.5L60.0339 528.936V545.53L67.5993 532.768L104.036 497.5Z" fill="#04659B"/>
<path opacity="0.1" d="M104.036 497.5L60.0339 528.936V545.53L67.5993 532.768L104.036 497.5Z" fill="#C5D5FF"/>
<path opacity="0.31" d="M264.553 127.345C263.724 127.345 263.053 126.673 263.053 125.845V118.978C263.053 118.15 263.724 117.478 264.553 117.478H267.551C267.96 115.969 268.573 114.542 269.35 113.197L267.226 111.079C266.638 110.493 266.638 109.541 267.226 108.954L272.094 104.1C272.68 103.517 273.627 103.517 274.213 104.1L276.343 106.225C277.693 105.45 279.124 104.839 280.637 104.431V101.446C280.637 100.617 281.309 99.9458 282.137 99.9458H289.033C289.862 99.9458 290.533 100.617 290.533 101.446V104.431C292.046 104.839 293.478 105.45 294.827 106.225L296.958 104.1C297.543 103.517 298.491 103.517 299.076 104.1L303.944 108.954C304.532 109.541 304.532 110.493 303.944 111.079L301.82 113.197C302.597 114.542 303.21 115.969 303.619 117.478H306.618C307.446 117.478 308.118 118.15 308.118 118.978V125.845C308.118 126.673 307.446 127.345 306.618 127.345H303.619C303.21 128.854 302.597 130.281 301.82 131.626L303.944 133.744C304.532 134.33 304.532 135.282 303.944 135.869L299.076 140.723C298.491 141.306 297.543 141.306 296.958 140.723L294.827 138.598C293.478 139.373 292.046 139.984 290.533 140.392V143.377C290.533 144.206 289.862 144.877 289.033 144.877H282.137C281.309 144.877 280.637 144.206 280.637 143.377V140.392C279.124 139.984 277.693 139.373 276.343 138.598L274.213 140.723C273.627 141.306 272.68 141.306 272.094 140.723L267.226 135.869C266.638 135.282 266.638 134.33 267.226 133.744L269.35 131.626C268.573 130.281 267.96 128.854 267.551 127.345H264.553ZM285.626 131.178C290.492 131.178 294.459 127.223 294.459 122.371C294.459 117.519 290.492 113.564 285.626 113.564C280.76 113.564 276.793 117.519 276.793 122.371C276.834 127.263 280.76 131.178 285.626 131.178Z" fill="#C5D5FF"/>
<circle opacity="0.3" cx="210.359" cy="353.5" r="11.5" stroke="#FB5472" stroke-width="7"/>
<circle opacity="0.2" cx="409.507" cy="523.167" r="14.6404" stroke="#1B2B7C" stroke-width="10"/>
<circle opacity="0.3" cx="210.359" cy="18.6099" r="7.5" stroke="#1B2B7C" stroke-width="5"/>
<path d="M545.783 381.541C543.185 379.857 539.423 380.14 536.429 380.095C536.097 380.09 535.396 380.16 534.713 380.19C536.208 379.519 537.721 378.808 539.216 378.136C540.232 377.681 541.23 377.266 542.246 376.811C542.911 377.251 544.552 377.648 546.219 378.63C548.148 379.776 548.671 380.964 551.24 380.246C553.653 379.554 555.548 377.341 552.949 375.657C550.755 374.249 547.827 374.808 545.178 375.491C548.284 374.104 551.283 372.526 553.99 370.532C563.043 370.075 571.422 360.719 573.755 352.586C573.955 351.816 574.15 350.947 573.863 350.198C573.202 348.566 570.852 348.474 569.281 349.207C567.058 350.223 565.367 352.193 564.133 354.318C562.899 356.443 562.046 358.787 560.932 360.965C560.017 362.803 558.819 364.419 557.576 365.919C557.518 365.941 557.518 365.941 557.501 365.981C555.064 368.335 552.194 370.161 549.172 371.681C550.69 370.208 552.204 367.777 552.785 366.794C554.423 364.084 555.414 360.895 555.039 357.766C554.972 357.163 554.826 356.524 554.285 356.236C553.642 355.854 552.835 356.163 552.209 356.6C550.044 358.024 548.406 360.304 547.815 362.811C547.042 366.05 547.412 369.511 546.737 372.745C546.777 372.763 546.816 372.781 546.856 372.799C544.997 373.642 543.174 374.406 541.311 375.153C542.931 372.913 544.205 369.945 544.53 368.466C544.81 367.301 544.93 366.064 544.487 364.911C544.084 363.776 542.967 362.848 541.778 362.94C541.095 362.97 540.447 363.35 539.941 363.841C538.348 365.376 538.067 367.831 537.893 370.047C537.719 372.262 537.43 374.522 537.336 376.773C537.105 376.861 536.874 376.95 536.683 377.056C533.48 378.447 530.259 379.878 527.118 381.345C528.543 379.973 529.825 378.49 531.006 376.914C533.385 373.723 535.157 370.069 535.607 366.161C535.771 364.61 535.737 362.971 535.068 361.574C534.789 361.019 534.332 360.434 533.707 360.442C533.374 360.437 533.028 360.569 532.744 360.777C530.876 361.855 529.815 363.915 529.184 365.974C528.215 369.221 528.134 372.625 527.64 375.988C527.355 377.915 527.004 380.099 526.107 381.897C522.832 383.448 519.58 385.056 516.39 386.74C519.155 384.293 521.703 380.508 523.341 377.798C524.961 375.128 526.098 371.718 524.663 368.928C524.45 368.547 524.197 368.147 523.794 367.872C522.623 367.064 520.951 367.704 519.979 368.704C518.727 370.009 518.145 371.852 517.874 373.642C517.642 375.45 517.686 377.284 517.454 379.092C517.071 382.313 515.846 385.064 514.27 387.849C511.807 389.188 509.367 390.585 506.967 391.999C508.076 390.583 508.982 388.98 509.452 388.138C510.971 385.375 511.926 382.266 512.176 379.129C512.265 378.07 512.15 376.824 511.339 376.176C510.59 375.603 509.521 375.748 508.655 376.079C506.424 376.9 504.635 378.874 503.996 381.168C503.613 382.67 503.684 384.23 503.754 385.79C503.846 387.408 503.916 388.968 504.009 390.585C504.084 391.813 503.941 392.992 503.581 394.121C500.937 395.761 498.354 397.477 495.812 399.21C496.646 398.197 497.401 397.148 498.036 396.045C499.527 393.557 500.474 390.682 500.284 387.779C500.2 386.786 499.957 385.722 499.185 385.092C498.09 384.222 496.329 384.631 495.419 385.707C494.51 386.782 494.225 388.28 494.269 389.685C494.25 391.014 494.427 392.335 494.777 393.59C495.034 394.516 495.366 395.381 495.37 396.338C495.383 397.49 494.925 398.624 494.503 399.678C494.414 399.878 494.308 400.117 494.201 400.356C492.231 401.771 490.243 403.226 488.295 404.699C489.441 402.343 489.819 399.454 489.572 397.003C489.387 395.487 488.7 393.7 487.183 393.454C486.691 393.378 486.207 393.497 485.786 393.692C484.237 394.482 483.784 396.573 484.156 398.316C484.527 400.058 485.476 401.579 485.963 403.277C486.242 404.262 485.966 405.524 486.125 406.455C483.108 408.932 480.233 411.52 477.703 414.406C476.939 415.26 478.061 416.286 478.931 415.622C481.234 413.782 483.497 411.924 485.76 410.066C486.691 411.198 491.356 414.471 492.025 415.008C493.12 415.878 494.748 416.412 495.946 415.656C497.086 414.922 497.322 413.212 496.702 412.028C496.099 410.804 494.871 410.018 493.616 409.506C492.919 409.244 489.544 408.552 487.402 408.744C489.723 406.864 492.101 404.962 494.524 403.175C495.34 403.491 496.173 403.767 496.958 404.26C498.129 405.068 499.06 406.2 500.248 406.968C501.437 407.736 503.095 408.093 504.231 407.262C505.593 406.245 505.355 403.989 504.167 402.79C502.979 401.592 501.165 401.261 499.461 401.219C498.934 401.223 498.149 401.159 497.368 401.194C497.576 401.048 497.785 400.902 497.993 400.756C499.094 400.004 500.234 399.27 501.335 398.519C502.851 399.624 505.454 400.116 507.215 400.996C508.873 401.783 510.559 402.725 512.395 402.683C514.231 402.641 516.161 401.208 515.98 399.36C515.808 397.707 514.061 396.689 512.402 396.332C510.664 395.94 507.275 395.815 504.605 396.441C507.041 394.946 509.476 393.452 511.957 392.073C515.03 393.013 517.809 396.974 521.42 397.246C522.892 397.376 525.265 396.666 525.337 394.787C525.387 393.281 523.267 392.241 522.203 391.623C520.358 390.61 517.715 390.101 515.2 390.27C516.172 389.7 517.165 389.187 518.159 388.674C519.419 387.994 520.719 387.331 521.979 386.65C523.132 387.069 525.066 387.883 526.72 389.002C528.875 390.392 530.861 392.376 533.638 391.082C536.167 389.915 538.759 386.246 535.118 384.862C533.069 384.092 529.503 383.936 526.318 384.428C528.825 383.204 531.332 381.98 533.821 380.796C535.488 381.778 537.089 382.157 539.23 384.115C540.964 385.699 542.546 388.697 545.186 387.819C548.109 386.734 548.382 383.224 545.783 381.541Z" fill="#FFDA32"/>
<path d="M494.396 390.998C486.704 399.263 473.122 414.872 433.567 415.638C433.567 415.638 442.5 381.136 485.755 359.895C498.463 353.655 513.287 349.496 513.287 349.496C513.287 349.496 507.708 375.146 494.396 390.998Z" fill="#1B2B7C"/>
<path d="M481.274 386.551C470.73 396.684 451.348 403.771 451.348 403.771C451.348 403.771 467.514 395.482 479.329 384.733C491.144 373.985 497.791 365.851 497.791 365.851C497.791 365.851 491.819 376.417 481.274 386.551Z" fill="white"/>
<path d="M475.628 439.746C489.543 440.146 515.002 441.731 549.911 407.664C549.911 407.664 511.886 385.645 455.799 405.24C439.321 410.996 422.838 420.412 422.838 420.412C422.838 420.412 450.188 437.715 475.628 439.746Z" fill="#FB5472"/>
<path d="M483.08 424.377C501.104 423.889 524.102 413.006 524.102 413.006C524.102 413.006 502.832 420.025 483.169 421.096C463.506 422.166 450.611 420.962 450.611 420.962C450.611 420.962 465.056 424.864 483.08 424.377Z" fill="white"/>
<path d="M557.967 318.448C556.053 321.184 552.694 326.379 541.981 325.45C541.981 325.45 543.687 313.323 554.977 307.008C558.294 305.152 562.228 304.109 562.228 304.109C562.228 304.109 561.248 313.157 557.967 318.448Z" fill="#FB5472"/>
<path d="M553.79 315.739C551.66 318.966 547.073 321.92 547.073 321.92C547.073 321.92 550.761 318.842 553.183 315.384C555.605 311.925 556.846 309.441 556.846 309.441C556.846 309.441 555.92 312.513 553.79 315.739Z" fill="white"/>
<path opacity="0.65" d="M35.9415 389.927C38.7724 388.245 42.7642 388.722 45.9207 388.802C46.2488 388.79 46.9752 388.895 47.7672 388.997C46.2277 388.2 44.6226 387.405 43.0831 386.608C42.0462 386.088 40.9777 385.601 39.9408 385.081C39.2014 385.536 37.4732 385.895 35.6348 386.85C33.507 387.98 32.9269 389.217 30.2356 388.364C27.7096 387.537 25.7836 385.112 28.6145 383.43C31.027 381.994 34.0756 382.736 36.8665 383.618C33.6223 381.997 30.5046 380.24 27.7619 377.943C18.1719 377.082 9.65703 366.753 7.50655 358.028C7.27932 357.182 7.14936 356.3 7.48101 355.467C8.24156 353.763 10.7372 353.737 12.4103 354.595C14.7512 355.756 16.4394 357.961 17.6706 360.248C18.8702 362.569 19.7148 365.067 20.7855 367.458C21.7109 369.461 22.8895 371.191 24.1313 372.854C24.1653 372.885 24.1993 372.917 24.2333 372.948C26.7252 375.583 29.6554 377.61 32.8386 379.365C31.3027 377.746 29.795 375.075 29.1987 374.013C27.582 371.051 26.6391 367.636 27.21 364.297C27.2862 363.67 27.5253 363.004 28.0725 362.688C28.7486 362.302 29.6156 362.664 30.2564 363.133C32.5141 364.725 34.1144 367.228 34.6695 369.902C35.3523 373.391 34.8248 377.025 35.3764 380.519C35.3447 380.553 35.2791 380.556 35.2451 380.524C37.1514 381.472 39.0892 382.386 41.0587 383.266C39.4268 380.797 38.2284 377.589 37.9099 376.024C37.6686 374.784 37.5879 373.44 38.1047 372.271C38.6215 371.102 39.8038 370.172 41.0891 370.288C41.8471 370.359 42.5197 370.794 43.0316 371.334C44.6695 373.047 44.8602 375.635 44.9784 378.029C45.0625 380.391 45.2803 382.814 45.2672 385.213C45.5003 385.303 45.7359 385.458 45.969 385.548C49.3105 387.133 52.6227 388.817 55.9348 390.502C54.5008 388.978 53.1617 387.352 51.9832 385.622C49.5921 382.129 47.8724 378.119 47.5939 373.99C47.4698 372.352 47.6035 370.573 48.3734 369.132C48.6805 368.529 49.2183 367.951 49.8768 367.992C50.2388 368.012 50.6056 368.163 50.875 368.35C52.7906 369.56 53.8566 371.82 54.427 374C55.3406 377.514 55.2724 381.131 55.6295 384.698C55.8332 386.728 56.1142 389.082 57.0057 391.053C60.4198 392.833 63.7706 394.68 67.1238 396.593C64.2674 393.873 61.7557 389.761 60.1051 386.767C58.5224 383.836 57.4073 380.198 59.0783 377.311C59.3267 376.907 59.6408 376.501 60.0251 376.224C61.3093 375.388 63.0773 376.144 64.0379 377.291C65.3384 378.754 65.8678 380.706 66.0352 382.638C66.2026 384.57 66.1075 386.512 66.2433 388.478C66.4984 391.951 67.7214 394.928 69.2725 397.893C71.8559 399.407 74.376 400.989 76.8645 402.606C75.7586 401.07 74.8085 399.298 74.3821 398.394C72.8627 395.395 72.0217 392.075 71.9024 388.729C71.8627 387.613 72.0128 386.294 72.942 385.635C73.7762 385.078 74.867 385.268 75.7997 385.628C78.1335 386.593 79.9506 388.727 80.5327 391.235C80.8853 392.831 80.7469 394.479 80.6085 396.127C80.4385 397.809 80.3024 399.522 80.1324 401.204C80.0139 402.489 80.0923 403.767 80.4308 404.97C83.1572 406.808 85.8542 408.745 88.454 410.719C87.6269 409.632 86.863 408.478 86.2281 407.253C84.752 404.548 83.8524 401.427 84.1702 398.36C84.264 397.306 84.618 396.176 85.4499 395.554C86.6662 394.654 88.4927 395.211 89.4534 396.358C90.3825 397.539 90.6038 399.141 90.5263 400.655C90.4782 402.069 90.2308 403.425 89.7866 404.789C89.4913 405.72 89.0987 406.687 89.0025 407.676C88.9157 408.927 89.3515 410.094 89.7873 411.261C89.8939 411.487 89.9688 411.747 90.0754 411.973C92.1023 413.54 94.1631 415.139 96.163 416.872C95.0537 414.318 94.747 411.241 95.1467 408.631C95.3847 407.013 96.2378 405.142 97.8418 404.984C98.3328 404.933 98.8624 405.045 99.331 405.29C100.972 406.182 101.317 408.469 100.855 410.26C100.393 412.051 99.3338 413.667 98.7069 415.431C98.3822 416.462 98.5942 417.801 98.4008 418.826C101.488 421.57 104.417 424.484 106.993 427.641C107.716 428.567 106.538 429.629 105.657 428.873C103.318 426.825 100.944 424.744 98.636 422.661C97.5603 423.818 92.5523 427.091 91.7837 427.645C90.5674 428.544 88.8438 429.035 87.63 428.16C86.4502 427.317 86.2875 425.516 86.9649 424.243C87.6422 422.969 88.9943 422.197 90.3898 421.718C91.1362 421.46 94.7286 420.868 97.0051 421.145C94.5975 419.033 92.1583 416.955 89.6558 414.945C88.7782 415.207 87.8689 415.504 87.0323 415.994C85.7797 416.796 84.704 417.953 83.4175 418.723C82.1309 419.494 80.3347 419.79 79.1842 418.847C77.7959 417.683 78.1394 415.338 79.4752 414.106C80.811 412.874 82.7068 412.606 84.5147 412.638C85.0736 412.65 85.8949 412.653 86.7502 412.687C86.5147 412.531 86.3449 412.373 86.1094 412.218C84.9612 411.34 83.8153 410.529 82.6355 409.685C80.967 410.798 78.1573 411.231 76.2802 412.023C74.5004 412.778 72.628 413.702 70.7182 413.575C68.7768 413.483 66.7476 411.85 67.0395 409.901C67.2728 408.151 69.2085 407.159 70.9367 406.8C72.7962 406.435 76.4096 406.433 79.2297 407.216C76.7049 405.502 74.1825 403.855 71.6284 402.241C68.3418 403.118 65.2013 407.176 61.3301 407.319C59.7554 407.378 57.2633 406.583 57.2565 404.546C57.266 402.969 59.5614 401.931 60.7554 401.329C62.7883 400.301 65.5663 399.902 68.2365 400.165C67.229 399.545 66.2214 398.926 65.1482 398.308C63.8395 397.535 62.4968 396.731 61.1565 395.992C59.9215 396.366 57.816 397.2 56.0478 398.283C53.7325 399.683 51.5038 401.671 48.5947 400.234C45.9187 398.888 43.3777 394.875 47.3064 393.58C49.5139 392.842 53.3242 392.832 56.6669 393.53C54.0542 392.115 51.4754 390.732 48.8311 389.352C47.0266 390.338 45.2644 390.666 42.9701 392.657C41.0895 394.27 39.2626 397.393 36.4987 396.345C33.2755 395.315 33.1423 391.574 35.9415 389.927Z" fill="url(#paint0_linear_68_5847)"/>
<path d="M91.9407 416.666C99.9263 420.969 114.815 428.359 123.437 458.951C123.437 458.951 94.8042 459.008 69.5169 429.694C62.0876 421.082 55.8463 410.403 55.8463 410.403C55.8463 410.403 76.9175 409.535 91.9407 416.666Z" fill="#FB5472"/>
<path d="M91.1458 427.768C101.163 433.909 110.604 447.537 110.604 447.537C110.604 447.537 100.88 436.653 90.128 429.65C79.3757 422.646 71.7043 419.13 71.7043 419.13C71.7043 419.13 81.129 421.628 91.1458 427.768Z" fill="white"/>
<path d="M133.641 421.364C131.129 410.466 127.195 390.355 93.6305 370.131C93.6305 370.131 84.2298 404.157 110.841 443.78C118.66 455.42 129.323 466.322 129.323 466.322C129.323 466.322 137.224 441.551 133.641 421.364Z" fill="#1B2B7C"/>
<path d="M120.182 418.69C116.145 404.778 103.02 389.11 103.02 389.11C103.02 389.11 112.791 404.219 117.613 419.287C122.435 434.354 124.116 444.622 124.116 444.622C124.116 444.622 124.218 432.602 120.182 418.69Z" fill="white"/>
<g opacity="0.65">
<path d="M105.012 320.601C106.233 318.079 108.323 313.325 117.31 312.71C117.31 312.71 117.507 323.012 109.004 329.725C106.506 331.697 103.389 333.074 103.389 333.074C103.389 333.074 102.999 325.425 105.012 320.601Z" fill="url(#paint1_linear_68_5847)"/>
<path d="M108.298 321.789C110.05 318.686 114.018 316.397 114.018 316.397C114.018 316.397 110.862 319.01 108.861 322.308C106.859 325.606 105.868 328.079 105.868 328.079C105.868 328.079 106.547 324.893 108.298 321.789Z" fill="white"/>
</g>
<g opacity="0.65">
<path d="M459.163 48.6679C460.384 46.1455 462.474 41.3913 471.46 40.7762C471.46 40.7762 471.658 51.0782 463.154 57.7909C460.656 59.7631 457.539 61.14 457.539 61.14C457.539 61.14 457.15 53.4914 459.163 48.6679Z" fill="url(#paint2_linear_68_5847)"/>
<path d="M462.449 49.8558C464.2 46.7523 468.168 44.4639 468.168 44.4639C468.168 44.4639 465.013 47.0767 463.011 50.3747C461.009 53.6727 460.019 56.1459 460.019 56.1459C460.019 56.1459 460.697 52.9593 462.449 49.8558Z" fill="white"/>
</g>
<path d="M54.2089 287.601C52.9879 285.079 50.8979 280.325 41.9115 279.71C41.9115 279.71 41.714 290.012 50.2173 296.725C52.7156 298.697 55.8322 300.074 55.8322 300.074C55.8322 300.074 56.2217 292.425 54.2089 287.601Z" fill="#1B2B7C"/>
<path d="M50.9228 288.789C49.1713 285.686 45.2036 283.397 45.2036 283.397C45.2036 283.397 48.3587 286.01 50.3605 289.308C52.3622 292.606 53.353 295.079 53.353 295.079C53.353 295.079 52.6743 291.893 50.9228 288.789Z" fill="white"/>
<path d="M72.8568 77.7192H214.625C225.844 77.7192 235.024 86.8985 235.024 98.1176V194.5C235.024 205.719 225.844 214.898 214.625 214.898H204.426L226.864 237.336L168.729 214.898H72.8568C61.6378 214.898 52.4585 205.719 52.4585 194.5V98.1176C52.9685 86.3885 62.1477 77.7192 72.8568 77.7192Z" fill="#EDEFF9"/>
<path d="M201.877 202.669H58.5782C48.1452 202.669 39.6997 194.223 39.6997 183.79V85.8784C39.6997 75.4454 48.1452 67 58.5782 67H201.877C212.31 67 220.755 75.4454 220.755 85.8784V183.79C220.755 194.223 212.31 202.669 201.877 202.669Z" fill="white" stroke="#EDEFF9"/>
<path d="M184.028 196.539L213.096 226.116L137.622 196.539" fill="white"/>
<path d="M201.367 112.906H59.0886C56.0288 112.906 53.989 110.356 53.989 107.806C53.989 104.746 56.5388 102.707 59.0886 102.707H201.367C204.427 102.707 206.467 105.256 206.467 107.806C206.977 110.356 204.427 112.906 201.367 112.906ZM206.977 135.344C206.977 132.284 204.427 130.244 201.877 130.244H59.0886C56.0288 130.244 53.989 132.794 53.989 135.344C53.989 138.404 56.5388 140.444 59.0886 140.444H201.367C204.427 140.444 206.977 137.894 206.977 135.344ZM206.977 162.882C206.977 159.822 204.427 157.782 201.877 157.782H59.0886C56.0288 157.782 53.989 160.332 53.989 162.882C53.989 165.941 56.5388 167.981 59.0886 167.981H201.367C204.427 167.981 206.977 165.941 206.977 162.882Z" fill="url(#paint3_linear_68_5847)"/>
<path d="M312.416 92.3955L284.848 78.5183C283.997 78.09 283.602 77.0381 284.059 76.1305L293.197 57.9789C293.625 57.128 294.677 56.7333 295.584 57.1901L323.152 71.0674C324.003 71.4957 324.398 72.5476 323.941 73.4552L314.804 91.6068C314.347 92.5143 313.323 92.8524 312.416 92.3955Z" fill="url(#paint4_linear_68_5847)"/>
<path opacity="0.22" d="M285.477 77.1284L306.257 69.7437C306.428 69.6874 306.655 69.8016 306.768 70.0007L313.046 90.5796L285.477 77.1284Z" fill="#FFCC00"/>
<path d="M285.477 77.1285L304.633 71.6991C305.287 71.5305 305.911 71.8445 306.165 72.47L313.215 91.0915C313.468 91.859 312.699 92.5385 312.019 92.1958L285.359 78.7755C284.621 78.4043 284.738 77.3254 285.477 77.1285Z" fill="url(#paint5_linear_68_5847)"/>
<path d="M301.924 75.9518L294.673 58.1534C294.447 57.6132 295.046 56.99 295.613 57.2756L323.124 71.1243C323.691 71.4098 323.575 72.2047 322.978 72.4019L304.363 77.1796C303.312 77.4323 302.291 76.9184 301.924 75.9518Z" fill="#FFE356"/>
<path opacity="0.22" d="M301.607 77.5696L294.673 58.1533L322.978 72.4018L303.252 78.3977C302.542 78.5378 301.861 78.1951 301.607 77.5696Z" fill="#FB7668"/>
<path d="M81.4333 71.9837C83.3477 74.7197 86.7069 79.9151 97.4196 78.9861C97.4196 78.9861 95.714 66.8596 84.4236 60.5439C81.1065 58.6884 77.1723 57.645 77.1723 57.645C77.1723 57.645 78.1521 66.6927 81.4333 71.9837Z" fill="#FB5472"/>
<path d="M85.6106 69.2753C87.741 72.5017 92.3271 75.4561 92.3271 75.4561C92.3271 75.4561 88.6401 72.3785 86.218 68.9198C83.7959 65.4611 82.5545 62.9771 82.5545 62.9771C82.5545 62.9771 83.4803 66.049 85.6106 69.2753Z" fill="white"/>
<g opacity="0.3">
<path opacity="0.65" d="M549.186 93.4415V72.1816C538.418 72.1816 529.686 80.9186 529.686 91.6941C529.686 102.47 538.418 111.207 549.186 111.207C559.373 111.207 567.668 103.489 568.541 93.4415H549.186Z" fill="#C5D5FF"/>
<path opacity="0.65" d="M575.09 90.0921C575.09 89.9465 575.09 89.9465 575.09 90.0921C575.09 78.4429 565.776 69.1235 554.134 69.1235C553.698 69.1235 553.261 69.1235 552.824 69.1235V90.0921H575.09Z" fill="#C5D5FF"/>
</g>
<path d="M413.401 101.804C348.226 104.675 297.887 147.967 299.782 212.413C300.994 253.628 339.768 309.458 355.232 336.334C370.695 363.21 364.278 367.88 362.893 375.215C379.987 370.6 394.652 376.74 417.496 375.786C436.449 374.77 446.734 371.94 462.194 373.995C459.353 362.935 455.013 357.538 470.241 328.601C485.47 299.665 536.804 248.659 535.437 202.198C533.315 137.838 478.35 99.0171 413.401 101.804Z" fill="url(#paint6_linear_68_5847)"/>
<path d="M377.271 423.382C380.961 437.409 394.689 447.94 411.689 447.905C428.463 447.955 442.87 437.525 446.876 423.402L377.271 423.382Z" fill="#6063C3"/>
<path d="M363.103 366.803L362.864 402.751C362.869 415.881 374.086 426.592 387.731 426.548L436.817 426.149C450.688 426.02 461.884 415.274 461.796 401.922L462.035 365.974L363.103 366.803Z" fill="url(#paint7_linear_68_5847)"/>
<path d="M125.412 483.791L124.449 492.444C146.347 496.531 151.159 496.29 152.122 495.089C155.25 490.521 134.315 480.906 134.315 480.906L125.412 483.791Z" fill="#241D9E"/>
<path d="M161.507 478.743L161.266 483.551C161.266 483.551 182.441 495.81 185.81 490.521C188.698 485.714 170.41 475.858 170.41 475.858L161.507 478.743Z" fill="#241D9E"/>
<path d="M159.582 479.945C159.582 479.945 161.988 455.667 168.726 428.023C170.651 419.851 155.01 363.362 151.641 347.978C148.513 334.516 149.956 322.738 149.956 322.738L174.741 324.901C174.741 324.901 184.126 373.217 185.088 385.236C186.532 402.543 188.457 426.341 188.457 426.341L178.832 479.224L159.582 479.945Z" fill="#C12D10"/>
<path d="M137.684 318.651C137.684 318.651 132.39 323.94 131.187 351.824C130.225 372.977 130.225 403.264 128.781 418.649C126.856 437.639 123.006 441.244 122.765 464.08C122.284 486.676 122.765 486.435 122.765 486.435L142.978 483.551C142.978 483.551 144.181 437.639 147.069 430.908C148.272 428.264 168.966 357.352 168.966 326.824C168.726 316.488 151.16 320.334 137.684 318.651Z" fill="url(#paint8_linear_68_5847)"/>
<path d="M146.106 260.961C146.106 260.961 147.309 286.922 156.453 291.729C165.838 296.537 191.585 291.969 192.067 291.969C198.082 292.21 203.617 291.008 204.579 288.123C205.542 285.72 205.542 285.239 202.414 284.758C199.526 284.277 192.307 287.162 192.307 287.162C192.307 287.162 164.635 286.681 161.025 283.797C157.416 280.912 157.656 259.759 157.656 259.759L146.106 260.961Z" fill="#FFDEDE"/>
<path d="M148.272 254.951C148.753 251.586 149.235 235.961 149.475 235.24C149.475 235.24 151.4 227.788 161.025 228.99C166.801 229.711 171.373 229.952 171.373 238.365C171.373 245.095 166.801 247.74 161.025 247.74C160.544 247.74 160.304 247.74 159.822 247.74C159.582 250.624 157.416 255.432 159.341 257.355C162.71 260.72 165.116 269.614 165.116 269.614C165.116 269.614 167.763 265.768 163.672 266.97C159.341 268.172 155.972 268.172 149.716 266.97C144.903 266.008 142.256 263.605 142.256 263.605C142.256 263.605 147.791 258.076 148.272 254.951Z" fill="#FFDEDE"/>
<path d="M158.379 222.5C158.619 222.5 175.945 224.183 176.426 227.788C177.148 232.355 175.463 235 168.004 235.24C168.004 235.24 157.657 234.038 156.694 233.557C155.732 234.519 155.01 235.721 154.528 237.163C154.288 236.923 154.047 236.923 153.566 236.923C151.16 237.644 152.363 241.009 152.844 242.451C153.325 243.894 153.325 244.855 152.363 245.095C151.882 245.095 151.4 245.095 151.16 245.095C149.475 244.855 148.031 244.374 146.828 243.172L146.588 242.932C145.866 241.249 145.625 239.326 145.625 237.403C145.385 228.99 151.16 222.5 158.379 222.5Z" fill="#241D9E"/>
<path d="M164.394 260.96L161.025 258.797C159.822 260.239 161.025 260.96 156.935 260.96C150.919 260.96 148.272 258.797 147.309 255.432C146.347 255.672 145.625 255.912 144.903 256.153C140.331 258.797 136 295.334 136 295.334L131.187 333.074H178.351C177.388 329.468 176.666 280.912 164.394 260.96Z" fill="url(#paint9_linear_68_5847)"/>
<path d="M149.624 286.892C149.624 286.892 150.827 314.776 160.693 319.824C170.559 325.113 198.953 320.065 199.194 320.065C205.209 321.507 214.594 319.103 216.038 316.94C217.963 313.574 216.519 311.892 213.391 311.411C210.263 310.93 200.397 314.296 200.397 314.296C200.397 314.296 169.596 314.536 165.746 311.411C161.896 308.286 162.137 285.45 162.137 285.45L149.624 286.892Z" fill="#FFDEDE"/>
<path d="M145.037 310.527L164.529 308.123C164.529 308.123 164.047 279.759 160.438 277.355C150.813 270.624 145.759 287.451 145.037 291.297C144.556 295.383 145.037 310.527 145.037 310.527Z" fill="url(#paint10_linear_68_5847)"/>
<path d="M505.902 264.784C507.816 267.52 511.175 272.715 521.888 271.786C521.888 271.786 520.183 259.66 508.892 253.344C505.575 251.489 501.641 250.445 501.641 250.445C501.641 250.445 502.621 259.493 505.902 264.784Z" fill="#FFDA32"/>
<path d="M510.079 262.076C512.209 265.302 516.796 268.256 516.796 268.256C516.796 268.256 513.109 265.179 510.687 261.72C508.264 258.261 507.023 255.777 507.023 255.777C507.023 255.777 507.949 258.849 510.079 262.076Z" fill="white"/>
<path d="M437.62 97.1364L410.429 93.5308L383.478 101.944L378.184 120.693L415.482 113.001L438.101 117.809L437.62 97.1364Z" fill="url(#paint11_linear_68_5847)"/>
<path d="M412.113 35.3594C410.188 33.4364 410.91 29.1095 411.391 25.9846C418.129 26.9461 419.091 24.0616 420.535 18.0522C422.942 9.39855 418.851 7.95626 413.316 7.4755C407.782 6.75437 402.729 9.39855 402.247 14.4465C402.007 15.8888 402.488 29.8307 401.525 32.7152C400.563 35.8401 397.194 36.0805 397.194 36.0805L394.066 36.3209C394.066 36.3209 397.435 40.1669 401.525 42.3303C405.616 44.7341 408.504 45.4553 412.835 44.7341C416.926 44.013 422.22 39.2054 422.22 39.2054C422.22 39.2054 415.001 38.2439 412.113 35.3594Z" fill="#FFE7C5"/>
<path d="M424.866 6.03314C424.385 3.14861 421.738 2.42748 417.166 0.985213C398.638 -1.17819 397.916 4.11013 398.397 12.5234C398.638 14.9271 398.878 18.052 399.6 20.2154C399.6 20.4558 402.247 24.3019 402.488 22.3788C402.728 19.2539 401.766 15.4079 404.172 14.6867C404.653 14.6867 406.578 16.129 406.819 16.3694C407.3 15.4079 406.819 13.0041 407.3 12.0426C408.504 13.0041 411.391 9.39845 415.482 10.1196C421.257 11.3215 421.257 14.9271 421.257 14.9271C424.626 13.2445 425.107 7.71579 424.866 6.03314Z" fill="#241D9E"/>
<path d="M436.417 58.6758C436.417 58.6758 435.935 62.7622 436.898 69.4928C437.62 76.2234 438.823 86.8 439.786 91.1268C440.748 95.4536 442.914 102.665 444.839 105.55C446.764 108.194 459.277 113.001 461.683 114.684C464.089 116.367 464.811 119.491 463.849 119.011C462.886 118.53 454.464 114.924 451.095 113.963C447.967 113.001 438.823 111.799 435.454 106.992C432.085 102.184 426.07 60.3584 426.07 60.3584L436.417 58.6758Z" fill="#FFE7C5"/>
<path d="M417.166 37.2821C417.166 37.2821 432.567 36.3206 436.176 52.6663C437.139 57.2335 437.139 58.6758 437.139 58.6758L425.829 60.3584L430.401 95.694L385.884 103.626L387.088 65.4064C387.088 65.4064 376.5 63.0026 376.5 60.8392C376.019 45.2146 394.788 35.8398 394.788 35.8398C394.788 35.8398 402.969 43.7723 407.541 43.0512C411.873 42.3301 417.166 37.2821 417.166 37.2821Z" fill="url(#paint12_linear_68_5847)"/>
<path d="M421.016 75.2618C420.776 76.7041 421.979 78.3868 423.423 78.3868L432.807 79.8291C434.251 80.0694 435.935 78.8675 435.935 77.4253L439.545 52.6663C439.786 51.224 438.582 49.5414 437.139 49.5414L427.754 48.0991C426.31 47.8588 424.626 49.0607 424.626 50.5029L421.016 75.2618Z" fill="#241D9E"/>
<path d="M376.74 61.8008C376.74 61.8008 378.184 91.3672 382.516 93.2903C393.344 98.0978 419.813 76.4638 419.813 76.4638C419.813 76.4638 426.792 76.2235 428.717 74.3004C430.16 72.8582 431.364 67.8102 430.16 66.1276C429.198 64.6853 424.626 63.7238 422.942 64.4449C420.535 65.6468 415.723 72.6178 415.723 72.6178L388.05 83.1944L386.847 65.4065L376.74 61.8008Z" fill="#FFE7C5"/>
<path d="M442.192 159.394C442.192 159.394 450.373 106.03 449.652 100.261C448.93 94.4922 448.93 88.002 440.267 88.7231C435.214 89.2038 429.92 87.5212 427.514 101.463C425.107 115.405 427.273 158.913 427.273 158.913L442.192 159.394Z" fill="url(#paint13_linear_68_5847)"/>
<path d="M429.92 158.914C429.92 158.914 432.567 170.211 434.973 172.134C436.176 173.096 440.026 172.375 440.508 171.173C441.951 168.529 438.823 159.154 438.823 159.154L429.92 158.914Z" fill="#241D9E"/>
<path d="M392.863 163C392.863 163 392.622 108.915 391.178 103.386C389.494 97.8576 388.531 91.3674 380.109 93.7712C375.297 95.2134 369.762 94.4923 369.522 108.675C369.281 122.857 378.184 165.163 378.184 165.163L392.863 163Z" fill="url(#paint14_linear_68_5847)"/>
<path d="M380.591 164.923C380.591 164.923 384.922 175.5 387.569 176.942C389.013 177.663 392.622 176.221 393.104 175.019C394.066 172.135 389.975 163.481 389.975 163.481L380.591 164.923Z" fill="#241D9E"/>
<path d="M421 365.5C421 365.5 417.5 232.5 426 206.5C434.5 180.5 452 188.5 458.5 195.5C465 202.5 473.5 227.5 462 239.5C450.5 251.5 398 251.5 384.5 239.5C371 227.5 368.5 209 376.5 192C384.5 175 402.5 187 409.5 206.5C416.5 226 404.5 365.5 404.5 365.5" stroke="white" stroke-width="2" stroke-linecap="round" stroke-linejoin="round" stroke-dasharray="2 4"/>
<path opacity="0.2" d="M425 365.5C425 365.5 425 231.5 430 212.5C435 193.5 450 190.5 457 201.5C464 212.5 465.5 236 454 248C442.5 260 393.5 257.5 378 243.5C362.5 229.5 362.5 202 370.5 185C378.5 168 397 177 404 196.5C411 216 397.5 365.5 397.5 365.5" stroke="white" stroke-width="2" stroke-linecap="round" stroke-linejoin="round"/>
<path d="M305.271 261.517C304.79 258.152 305.512 243.008 305.271 242.287C305.271 242.287 302.384 233.874 293.962 235.076C288.908 235.797 284.818 236.037 284.818 244.691C284.818 251.421 288.908 254.065 293.962 254.065C294.443 254.065 294.684 254.065 295.165 254.065C295.405 256.95 295.405 261.758 293.48 263.2C289.63 265.844 282.411 266.565 282.411 266.565C282.411 266.565 287.946 272.094 291.796 273.296C295.646 274.498 299.015 275.94 302.865 274.017C306.715 272.094 312.49 265.363 312.49 265.363C312.49 265.363 305.753 264.882 305.271 261.517Z" fill="#FFDEDE"/>
<path d="M296.368 228.585C296.127 228.585 286.021 230.508 286.021 230.508C282.652 230.508 277.599 227.384 275.914 230.268C273.027 235.076 281.208 241.085 287.946 241.325C287.946 241.325 297.09 240.124 298.052 239.643C298.774 240.604 299.496 241.806 299.978 243.249C300.218 243.008 300.459 243.008 300.94 243.008C302.865 243.729 301.903 247.095 301.662 248.537C301.421 249.979 301.181 250.941 302.143 251.181C302.624 251.181 302.865 251.181 303.346 251.181C304.79 250.941 306.234 250.46 307.196 249.258L307.437 249.018C307.918 247.335 308.4 245.412 308.4 243.249C307.918 235.316 302.624 228.585 296.368 228.585Z" fill="#241D9E"/>
<path d="M273.989 274.257C273.989 274.257 263.402 270.171 254.498 264.402C245.595 258.392 244.392 256.229 244.392 256.229C244.392 256.229 239.098 250.941 237.414 236.758C235.729 222.336 235.729 222.336 235.729 222.336L239.82 221.374C239.82 221.374 242.467 230.989 243.67 234.835C244.873 238.681 248.723 247.816 250.408 249.258C258.348 256.229 257.386 253.825 275.674 265.604L273.989 274.257Z" fill="#FFDEDE"/>
<path d="M237.414 224.499C237.414 224.499 236.692 225.461 235.007 222.576C233.323 219.692 231.639 215.365 231.398 214.403C231.157 213.442 229.232 209.596 230.195 207.913C231.639 205.75 235.248 205.028 236.211 206.23C237.173 207.432 238.858 213.442 238.858 213.442C238.858 213.442 240.061 211.999 241.023 210.317C241.264 209.836 242.708 209.355 242.708 209.355C242.708 209.355 243.911 210.076 243.67 210.798C243.43 211.278 241.505 217.528 241.023 218.97C240.542 220.413 240.301 223.057 240.301 223.057L237.414 224.499Z" fill="#FFDEDE"/>
<path d="M330.538 236.758C331.26 234.595 330.057 224.018 329.335 219.932C328.613 217.047 327.169 207.192 326.447 207.192C326.447 207.192 324.763 205.749 323.56 204.788C322.356 203.826 317.544 199.74 317.063 199.5C316.581 199.019 317.303 198.057 317.303 198.057C317.303 198.057 318.747 197.817 319.228 198.057C320.913 199.019 322.838 199.74 322.838 199.74C322.838 199.74 321.394 193.731 321.635 192.288C321.875 190.846 325.485 189.644 327.65 190.846C329.335 191.807 329.335 196.134 329.816 197.096C330.057 198.057 330.779 202.625 330.779 205.99C330.779 206.471 330.779 206.951 330.779 207.192C331.5 208.634 332.704 211.999 335.832 219.451C341.366 232.672 339.441 239.883 339.441 239.883C339.441 239.883 339.441 242.287 334.629 251.902C329.816 261.277 322.597 269.93 322.597 269.93L316.581 263.2C326.447 243.97 326.928 246.854 330.538 236.758Z" fill="#FFDEDE"/>
<path d="M238.858 479.78C238.858 479.78 248.723 433.387 249.927 425.936C251.13 418.484 276.637 340.601 278.08 333.63C279.524 326.659 280.727 315.602 280.727 315.602H306.715L301.662 364.158L269.177 425.455L255.221 482.665L238.858 479.78Z" fill="#3F47AF"/>
<path d="M308.64 489.155C308.64 489.155 307.197 424.013 306.715 417.042C306.234 410.071 290.353 354.784 290.353 354.784L292.518 323.054L320.431 324.015C320.431 324.015 321.875 346.13 322.597 365.601C323.319 385.071 327.169 404.782 325.725 430.743C324.281 456.704 325.725 489.636 325.725 489.636L308.64 489.155Z" fill="#3F47AF"/>
<path d="M306.715 263.681C306.715 263.681 318.266 263.921 319.709 265.363C322.838 268.248 319.228 291.324 319.228 291.324L320.672 325.698L278.562 326.419L279.524 263.681L289.39 264.883C289.39 264.883 290.593 270.652 298.293 271.373C305.272 272.094 306.715 263.681 306.715 263.681Z" fill="url(#paint15_linear_68_5847)"/>
<path d="M265.327 276.18L275.674 279.305C280.005 280.507 284.337 278.343 285.781 274.017V273.776C286.984 269.69 284.818 265.123 280.487 263.921L270.14 260.796L265.327 276.18Z" fill="url(#paint16_linear_68_5847)"/>
<path d="M331.982 266.806L325.485 276.18C322.838 280.027 317.303 281.228 313.453 278.344L313.212 278.103C309.362 275.459 308.159 270.171 310.806 266.325L317.303 256.95L331.982 266.806Z" fill="url(#paint17_linear_68_5847)"/>
<path d="M253.212 479.405L253.453 487.337C253.453 487.337 230.833 491.423 228.908 488.539C225.78 484.212 244.549 476.52 244.549 476.52L253.212 479.405Z" fill="#241D9E"/>
<path d="M311.926 485.895V493.587C331.176 504.404 333.582 501.76 335.267 500.318C336.711 499.116 321.31 485.414 321.31 485.414L311.926 485.895Z" fill="#241D9E"/>
<defs>
<linearGradient id="paint0_linear_68_5847" x1="70.2017" y1="378.188" x2="45.2073" y2="405.066" gradientUnits="userSpaceOnUse">
<stop stop-color="#87DFFF"/>
<stop offset="1" stop-color="#3CA5FF"/>
</linearGradient>
<linearGradient id="paint1_linear_68_5847" x1="107.255" y1="315.841" x2="112.971" y2="328.904" gradientUnits="userSpaceOnUse">
<stop stop-color="#87DFFF"/>
<stop offset="1" stop-color="#3CA5FF"/>
</linearGradient>
<linearGradient id="paint2_linear_68_5847" x1="461.406" y1="43.9078" x2="467.121" y2="56.97" gradientUnits="userSpaceOnUse">
<stop stop-color="#87DFFF"/>
<stop offset="1" stop-color="#3CA5FF"/>
</linearGradient>
<linearGradient id="paint3_linear_68_5847" x1="53.989" y1="145" x2="206.977" y2="145" gradientUnits="userSpaceOnUse">
<stop stop-color="#C5D5FF"/>
<stop offset="1" stop-color="#E2F4FE"/>
</linearGradient>
<linearGradient id="paint4_linear_68_5847" x1="319.372" y1="82.531" x2="288.628" y2="67.0547" gradientUnits="userSpaceOnUse">
<stop stop-color="#F99373"/>
<stop offset="1" stop-color="#FFA979"/>
</linearGradient>
<linearGradient id="paint5_linear_68_5847" x1="316.219" y1="85.7343" x2="287.992" y2="71.5249" gradientUnits="userSpaceOnUse">
<stop stop-color="#FFA979"/>
<stop offset="1" stop-color="#FFC09E"/>
</linearGradient>
<linearGradient id="paint6_linear_68_5847" x1="316.179" y1="280.317" x2="540.886" y2="196.411" gradientUnits="userSpaceOnUse">
<stop stop-color="#FF9AA0" stop-opacity="0.03"/>
<stop offset="0.916667" stop-color="#FB5472"/>
</linearGradient>
<linearGradient id="paint7_linear_68_5847" x1="401.846" y1="363.729" x2="440.505" y2="456.277" gradientUnits="userSpaceOnUse">
<stop stop-color="#AE8DEF"/>
<stop offset="0.9985" stop-color="#7546D9"/>
</linearGradient>
<linearGradient id="paint8_linear_68_5847" x1="122.554" y1="402.624" x2="168.751" y2="402.624" gradientUnits="userSpaceOnUse">
<stop stop-color="#FF6570"/>
<stop offset="1" stop-color="#EC374F"/>
</linearGradient>
<linearGradient id="paint9_linear_68_5847" x1="131.183" y1="294.272" x2="178.318" y2="294.272" gradientUnits="userSpaceOnUse">
<stop stop-color="#A97EFF"/>
<stop offset="0.9985" stop-color="#835ED0"/>
</linearGradient>
<linearGradient id="paint10_linear_68_5847" x1="144.846" y1="293.143" x2="164.621" y2="293.143" gradientUnits="userSpaceOnUse">
<stop stop-color="#A97EFF"/>
<stop offset="0.9985" stop-color="#835ED0"/>
</linearGradient>
<linearGradient id="paint11_linear_68_5847" x1="378.184" y1="93.5308" x2="431.747" y2="130.02" gradientUnits="userSpaceOnUse">
<stop stop-color="#38369A"/>
<stop offset="1" stop-color="#6A49B0"/>
</linearGradient>
<linearGradient id="paint12_linear_68_5847" x1="376.152" y1="69.7685" x2="437.165" y2="69.7685" gradientUnits="userSpaceOnUse">
<stop stop-color="#FF6570"/>
<stop offset="1" stop-color="#EC374F"/>
</linearGradient>
<linearGradient id="paint13_linear_68_5847" x1="426.378" y1="88.668" x2="456.585" y2="91.7438" gradientUnits="userSpaceOnUse">
<stop stop-color="#38369A"/>
<stop offset="1" stop-color="#6A49B0"/>
</linearGradient>
<linearGradient id="paint14_linear_68_5847" x1="369.517" y1="93.2563" x2="399.769" y2="96.2897" gradientUnits="userSpaceOnUse">
<stop stop-color="#38369A"/>
<stop offset="1" stop-color="#6A49B0"/>
</linearGradient>
<linearGradient id="paint15_linear_68_5847" x1="278.369" y1="295.148" x2="320.957" y2="295.148" gradientUnits="userSpaceOnUse">
<stop offset="0.1321" stop-color="#00A373"/>
<stop offset="1" stop-color="#1ABBC0"/>
</linearGradient>
<linearGradient id="paint16_linear_68_5847" x1="265.436" y1="270.221" x2="286.107" y2="270.221" gradientUnits="userSpaceOnUse">
<stop offset="0.1321" stop-color="#00A373"/>
<stop offset="1" stop-color="#1ABBC0"/>
</linearGradient>
<linearGradient id="paint17_linear_68_5847" x1="309.503" y1="268.461" x2="332.085" y2="268.461" gradientUnits="userSpaceOnUse">
<stop offset="0.1321" stop-color="#00A373"/>
<stop offset="1" stop-color="#1ABBC0"/>
</linearGradient>
</defs>
</svg>
