<svg width="550" height="551" viewBox="0 0 550 551" fill="none" xmlns="http://www.w3.org/2000/svg">
<circle opacity="0.5" cx="275" cy="275.123" r="235" stroke="#DBDFF3" stroke-width="80"/>
<rect x="359" y="87.623" width="82" height="414" rx="10" fill="url(#paint0_linear_68_5841)"/>
<rect x="252.676" y="176.123" width="82" height="325.5" rx="10" fill="url(#paint1_linear_68_5841)"/>
<rect x="146.352" y="263.623" width="82" height="238" rx="10" fill="url(#paint2_linear_68_5841)"/>
<rect x="40.0273" y="348.857" width="82" height="152.766" rx="10" fill="url(#paint3_linear_68_5841)"/>
<path d="M487.159 321.849C483.873 322.034 480.821 324.637 478.223 326.477C477.935 326.681 477.377 327.181 476.809 327.635C477.671 326.121 478.524 324.561 479.386 323.047C479.973 322.019 480.569 321.036 481.156 320.009C482.003 319.969 483.66 319.28 485.707 319.076C488.082 318.85 489.277 319.542 491.031 317.314C492.668 315.206 492.906 312.117 489.62 312.302C486.852 312.471 484.689 314.787 482.844 317.035C484.64 313.896 486.225 310.66 487.297 307.25C494.782 301.178 496.104 287.89 493.004 279.445C492.692 278.658 492.315 277.789 491.598 277.327C490.007 276.34 487.932 277.736 487.043 279.351C485.773 281.618 485.557 284.369 485.831 286.968C486.105 289.567 486.843 292.113 487.254 294.682C487.622 296.834 487.607 298.973 487.481 301.04C487.446 301.095 487.446 301.095 487.455 301.141C486.841 304.69 485.522 308.058 483.883 311.259C484.261 309.042 484.035 306.006 483.918 304.797C483.624 301.443 482.473 298.084 480.187 295.633C479.752 295.158 479.226 294.701 478.581 294.793C477.789 294.868 477.29 295.64 477.028 296.408C476.062 298.989 476.087 301.974 477.152 304.497C478.52 307.762 481.011 310.501 482.46 313.701C482.505 313.691 482.55 313.681 482.596 313.671C481.53 315.562 480.444 317.362 479.312 319.171C479.298 316.232 478.53 312.885 477.88 311.412C477.39 310.236 476.717 309.099 475.614 308.387C474.555 307.666 473.014 307.57 472.051 308.395C471.483 308.849 471.166 309.582 471.04 310.321C470.636 312.638 471.935 314.922 473.175 316.933C474.416 318.944 475.585 321.065 476.917 323.056C476.774 323.277 476.632 323.497 476.534 323.708C474.658 326.912 472.791 330.161 471.015 333.391C471.377 331.32 471.547 329.242 471.572 327.149C471.612 322.917 470.84 318.669 468.775 315.032C467.943 313.597 466.885 312.212 465.434 311.432C464.846 311.132 464.087 310.915 463.555 311.314C463.266 311.519 463.052 311.85 462.939 312.206C462.012 314.304 462.393 316.737 463.144 318.901C464.35 322.296 466.415 325.269 468.101 328.465C469.066 330.298 470.135 332.394 470.493 334.5C468.655 337.885 466.873 341.306 465.191 344.753C466.029 340.918 465.841 336.07 465.547 332.717C465.263 329.408 464.099 325.767 461.116 324.273C460.694 324.079 460.227 323.895 459.708 323.912C458.196 323.953 457.162 325.551 456.955 327.02C456.7 328.926 457.356 330.872 458.246 332.579C459.182 334.276 460.37 335.824 461.306 337.521C462.998 340.526 463.672 343.656 464.066 347.036C462.793 349.73 461.574 352.46 460.401 355.18C460.465 353.268 460.237 351.324 460.113 350.307C459.683 346.982 458.552 343.714 456.798 340.864C456.21 339.899 455.33 338.902 454.227 338.854C453.224 338.833 452.397 339.628 451.862 340.455C450.462 342.56 450.165 345.376 451.056 347.747C451.67 349.276 452.709 350.571 453.748 351.866C454.842 353.197 455.881 354.492 456.975 355.823C457.81 356.83 458.427 357.931 458.827 359.126C457.586 362.193 456.446 365.286 455.351 368.369C455.431 366.975 455.42 365.601 455.274 364.257C454.993 361.185 454.001 358.124 452.018 355.751C451.323 354.951 450.446 354.19 449.388 354.133C447.902 354.073 446.648 355.53 446.541 357.024C446.435 358.518 447.13 359.982 448.049 361.16C448.868 362.313 449.848 363.336 450.936 364.194C451.737 364.828 452.565 365.362 453.169 366.181C453.903 367.162 454.222 368.422 454.521 369.592C454.57 369.819 454.628 370.091 454.687 370.363C453.884 372.814 453.09 375.31 452.342 377.796C451.847 375.055 450.36 372.338 448.61 370.389C447.499 369.204 445.789 368.101 444.332 368.842C443.862 369.085 443.521 369.491 443.282 369.922C442.449 371.573 443.371 373.652 444.784 374.914C446.196 376.177 447.965 376.887 449.448 378.039C450.305 378.709 450.861 379.966 451.581 380.665C450.545 384.685 449.701 388.711 449.34 392.775C449.221 393.987 450.827 394.163 451.157 393.048C451.979 390.024 452.756 387.009 453.533 383.994C455.042 384.381 461.1 384.264 462.012 384.305C463.498 384.365 465.23 383.803 465.784 382.402C466.302 381.057 465.432 379.441 464.156 378.813C462.871 378.141 461.323 378.236 459.925 378.585C459.163 378.796 455.832 380.32 454.113 381.829C454.925 378.759 455.774 375.634 456.732 372.58C457.631 372.339 458.52 372.053 459.503 371.984C461.015 371.943 462.524 372.331 464.026 372.245C465.528 372.159 467.176 371.424 467.629 369.998C468.16 368.27 466.54 366.483 464.769 366.2C462.997 365.917 461.232 366.771 459.744 367.803C459.293 368.138 458.579 368.576 457.931 369.095C458.018 368.839 458.106 368.583 458.193 368.327C458.666 366.991 459.184 365.646 459.657 364.31C461.653 364.308 464.196 363.096 466.259 362.747C468.176 362.382 470.214 362.133 471.764 360.945C473.314 359.758 474.072 357.316 472.757 355.843C471.572 354.532 469.434 354.755 467.786 355.489C466.048 356.243 463.06 358.262 461.16 360.475C462.314 357.664 463.467 354.853 464.731 352.113C467.959 350.991 472.83 352.648 476.099 350.616C477.445 349.804 479.037 347.706 477.92 346.048C477.017 344.723 474.545 345.16 473.244 345.298C471.025 345.586 468.437 346.807 466.384 348.53C466.86 347.431 467.391 346.367 467.923 345.304C468.578 343.929 469.278 342.545 469.932 341.17C471.184 340.805 473.355 340.291 475.477 340.214C478.199 340.055 481.148 340.512 482.72 337.659C484.16 335.071 484.082 330.294 480.089 331.391C477.847 332.016 474.688 334.119 472.262 336.539C473.646 333.916 475.03 331.293 476.424 328.715C478.471 328.512 480.083 327.833 483.15 328.169C485.632 328.442 488.871 330.023 490.586 327.613C492.414 324.847 490.446 321.664 487.159 321.849Z" fill="#FFDA32"/>
<path opacity="0.65" d="M56.3683 252.741C54.6891 255.573 55.1689 259.565 55.2519 262.721C55.24 263.049 55.3451 263.775 55.4479 264.567C54.6494 263.028 53.8534 261.424 53.0549 259.885C52.5339 258.849 52.0469 257.781 51.5259 256.744C51.9797 256.004 52.3379 254.276 53.2913 252.437C54.4195 250.308 55.656 249.727 54.8006 247.036C53.9721 244.511 51.5451 242.587 49.8658 245.419C48.4317 247.833 49.1756 250.881 50.0602 253.671C48.4364 250.428 46.6766 247.312 44.3776 244.571C43.5088 234.982 33.1728 226.475 24.4463 224.332C23.6004 224.105 22.7181 223.976 21.8848 224.309C20.1819 225.07 20.1573 227.566 21.0167 229.239C22.1804 231.578 24.3861 233.265 26.6741 234.494C28.996 235.692 31.495 236.534 33.8873 237.603C35.8907 238.527 37.622 239.704 39.2854 240.945C39.317 240.979 39.3487 241.013 39.3803 241.046C42.0169 243.536 44.0463 246.465 45.8037 249.647C44.1838 248.112 41.5117 246.606 40.4491 246.011C37.4852 244.397 34.0699 243.457 30.7312 244.03C30.1043 244.107 29.4386 244.347 29.1232 244.894C28.7374 245.57 29.1002 246.437 29.5698 247.078C31.1636 249.334 33.6682 250.932 36.342 251.485C39.8324 252.165 43.4651 251.635 46.9603 252.183C46.9943 252.152 46.9967 252.086 46.9651 252.052C47.9145 253.958 48.83 255.895 49.7115 257.864C47.2409 256.234 44.0319 255.038 42.4666 254.721C41.227 254.48 39.883 254.401 38.7145 254.918C37.546 255.436 36.6162 256.619 36.734 257.904C36.8051 258.662 37.2408 259.335 37.7807 259.846C39.4955 261.483 42.0839 261.671 44.4777 261.787C46.84 261.87 49.2632 262.085 51.6618 262.07C51.7519 262.303 51.9077 262.539 51.9978 262.772C53.5853 266.112 55.2724 269.423 56.9594 272.734C55.4344 271.301 53.8074 269.963 52.076 268.786C48.5817 266.398 44.5702 264.681 40.441 264.406C38.8029 264.284 37.0241 264.419 35.5836 265.19C34.9812 265.497 34.4033 266.036 34.4451 266.694C34.4649 267.056 34.6159 267.423 34.8033 267.692C36.0153 269.607 38.2763 270.671 40.4567 271.239C43.9717 272.15 47.5878 272.079 51.1557 272.433C53.1852 272.635 55.5403 272.914 57.5121 273.804C59.294 277.217 61.1439 280.566 63.0595 283.918C60.3375 281.064 56.2233 278.555 53.2278 276.907C50.2956 275.327 46.6565 274.215 43.7708 275.888C43.3676 276.137 42.9621 276.451 42.6854 276.836C41.8505 278.121 42.6078 279.888 43.7557 280.848C45.2199 282.147 47.1718 282.675 49.104 282.84C51.0362 283.006 52.9779 282.91 54.9441 283.044C58.4171 283.296 61.3953 284.517 64.3615 286.065C65.8778 288.647 67.4622 291.166 69.0805 293.653C67.5436 292.549 65.7711 291.6 64.8667 291.174C61.8664 289.658 58.546 288.819 55.1994 288.703C54.0839 288.664 52.7644 288.815 52.1066 289.745C51.5508 290.58 51.7413 291.67 52.1018 292.603C53.0687 294.936 55.204 296.751 57.7126 297.331C59.3095 297.682 60.9571 297.542 62.6047 297.403C64.2863 297.231 65.9995 297.094 67.6811 296.922C68.9666 296.803 70.2449 296.88 71.4482 297.218C73.2879 299.943 75.2272 302.638 77.2028 305.236C76.1158 304.41 74.9607 303.647 73.7353 303.013C71.0292 301.539 67.908 300.642 64.8413 300.963C63.7866 301.057 62.6569 301.412 62.0355 302.245C61.1373 303.462 61.6955 305.288 62.8434 306.247C64.0253 307.176 65.627 307.396 67.141 307.317C68.5554 307.268 69.9112 307.019 71.2742 306.574C72.2047 306.278 73.1716 305.884 74.1606 305.787C75.4121 305.7 76.579 306.134 77.7459 306.569C77.972 306.676 78.2321 306.75 78.4582 306.857C80.0275 308.882 81.6285 310.942 83.363 312.94C80.8078 311.833 77.7309 311.529 75.1212 311.931C73.5028 312.17 71.6322 313.025 71.4757 314.629C71.4251 315.12 71.5374 315.649 71.7832 316.118C72.6766 317.758 74.9637 318.101 76.7544 317.638C78.5451 317.174 80.1603 316.114 81.9241 315.485C82.9542 315.16 84.2935 315.371 85.3189 315.176C88.0653 318.261 90.9818 321.188 94.1409 323.762C95.0675 324.484 96.1285 323.305 95.3719 322.425C93.3211 320.087 91.2388 317.715 89.154 315.409C90.3099 314.332 93.579 309.321 94.1324 308.552C95.0305 307.335 95.5199 305.611 94.644 304.398C93.7996 303.219 91.9987 303.058 90.7258 303.736C89.453 304.414 88.6813 305.767 88.2038 307.163C87.9469 307.91 87.357 311.503 87.6361 313.779C85.5221 311.373 83.4421 308.935 81.4301 306.435C81.6918 305.557 81.9875 304.647 82.4777 303.81C83.2785 302.557 84.4344 301.48 85.2036 300.193C85.9729 298.906 86.2678 297.11 85.3238 295.96C84.1585 294.573 81.8136 294.918 80.5827 296.255C79.3517 297.592 79.0861 299.488 79.1193 301.295C79.1319 301.854 79.135 302.676 79.1698 303.531C79.0141 303.296 78.856 303.126 78.7002 302.89C77.8219 301.743 77.0092 300.598 76.1648 299.419C77.2764 297.749 77.7065 294.939 78.4972 293.061C79.2514 291.281 80.1732 289.408 80.0452 287.498C79.9511 285.557 78.3162 283.529 76.3674 283.822C74.6179 284.057 73.628 285.994 73.2699 287.722C72.907 289.582 72.9077 293.195 73.6927 296.015C71.9772 293.491 70.3273 290.97 68.7113 288.418C69.5858 285.13 73.6415 281.987 73.7815 278.115C73.8384 276.54 73.0415 274.049 71.005 274.044C69.4278 274.055 68.3921 276.351 67.7904 277.545C66.7642 279.579 66.3681 282.358 66.6329 285.027C66.0123 284.02 65.3917 283.013 64.7735 281.941C63.9995 280.633 63.1939 279.291 62.4539 277.951C62.8271 276.716 63.6588 274.609 64.7412 272.84C66.139 270.524 68.1249 268.294 66.6861 265.386C65.3374 262.711 61.3228 260.173 60.0309 264.103C59.2941 266.311 59.2877 270.121 59.9882 273.463C58.5715 270.852 57.1864 268.274 55.8037 265.631C56.7888 263.826 57.1153 262.063 59.1036 259.767C60.7157 257.885 63.8369 256.056 62.787 253.293C61.7538 250.07 58.0135 249.94 56.3683 252.741Z" fill="url(#paint4_linear_68_5841)"/>
<path d="M83.1539 308.718C87.4626 316.7 94.8648 331.583 125.464 340.18C125.464 340.18 125.498 311.547 96.1634 286.284C87.5452 278.862 76.8608 272.629 76.8608 272.629C76.8608 272.629 76.01 293.701 83.1539 308.718Z" fill="#FB5472"/>
<path d="M94.2555 307.915C100.404 317.926 114.04 327.357 114.04 327.357C114.04 327.357 103.148 317.642 96.1358 306.895C89.1239 296.149 85.6011 288.48 85.6011 288.48C85.6011 288.48 88.1067 297.903 94.2555 307.915Z" fill="white"/>
<path d="M87.885 350.415C76.9856 347.912 56.8706 343.994 36.6199 310.447C36.6199 310.447 70.6382 301.018 110.282 327.597C121.929 335.406 132.84 346.061 132.84 346.061C132.84 346.061 108.075 353.981 87.885 350.415Z" fill="#1B2B7C"/>
<path d="M85.2001 336.958C71.285 332.933 55.606 319.82 55.606 319.82C55.606 319.82 70.7235 329.579 85.7949 334.389C100.866 339.199 111.135 340.871 111.135 340.871C111.135 340.871 99.1151 340.983 85.2001 336.958Z" fill="white"/>
<path d="M448.586 373.362C447.662 381.143 446.444 395.449 424.597 412.077C424.597 412.077 415.473 389.088 431.009 359.475C435.573 350.775 442.175 342.374 442.175 342.374C442.175 342.374 449.553 359.03 448.586 373.362Z" fill="#1B2B7C"/>
<path d="M439.414 376.244C437.656 386.239 429.699 398.146 429.699 398.146C429.699 398.146 435.362 386.882 437.58 376.022C439.797 365.162 440.191 357.883 440.191 357.883C440.191 357.883 441.172 366.248 439.414 376.244Z" fill="white"/>
<path d="M458.034 408.359C465.994 402.885 480.907 393.348 486.514 359.966C486.514 359.966 456.193 363.201 432.794 397.147C425.919 407.12 420.541 419.145 420.541 419.145C420.541 419.145 442.949 417.639 458.034 408.359Z" fill="#FB5472"/>
<path d="M455.915 396.696C465.814 389.042 474.242 373.528 474.242 373.528C474.242 373.528 465.199 386.17 454.621 394.822C444.043 403.474 436.326 408.08 436.326 408.08C436.326 408.08 446.017 404.351 455.915 396.696Z" fill="white"/>
<g opacity="0.65">
<path d="M465.737 270.885C464.516 268.362 462.426 263.608 453.44 262.993C453.44 262.993 453.242 273.295 461.745 280.008C464.244 281.98 467.36 283.357 467.36 283.357C467.36 283.357 467.75 275.708 465.737 270.885Z" fill="url(#paint5_linear_68_5841)"/>
<path d="M462.451 272.072C460.699 268.969 456.732 266.681 456.732 266.681C456.732 266.681 459.887 269.293 461.889 272.591C463.89 275.889 464.881 278.363 464.881 278.363C464.881 278.363 464.202 275.176 462.451 272.072Z" fill="white"/>
</g>
<path d="M516.54 237.885C517.761 235.362 519.851 230.608 528.838 229.993C528.838 229.993 529.035 240.295 520.532 247.008C518.034 248.98 514.917 250.357 514.917 250.357C514.917 250.357 514.528 242.708 516.54 237.885Z" fill="#1B2B7C"/>
<path d="M519.826 239.072C521.578 235.969 525.546 233.681 525.546 233.681C525.546 233.681 522.391 236.293 520.389 239.591C518.387 242.889 517.396 245.363 517.396 245.363C517.396 245.363 518.075 242.176 519.826 239.072Z" fill="white"/>
<path d="M463.848 443.286C471.085 443.286 476.989 437.382 476.989 430.145C476.989 422.907 471.085 417.003 463.848 417.003H308.821C313.963 425.764 313.963 434.525 308.821 443.476H463.848V443.286Z" fill="#FDFDFD"/>
<path d="M463.848 443.286C471.275 443.286 477.37 437.001 476.989 429.383C476.608 422.336 470.514 416.813 463.467 416.813H306.916C305.773 416.813 304.821 415.861 304.821 414.718C304.821 413.575 305.773 412.623 306.916 412.623H463.848C473.37 412.623 481.179 420.432 481.179 429.954C481.179 439.477 473.37 447.285 463.848 447.285H306.916C305.773 447.285 304.821 446.333 304.821 445.19C304.821 444.048 305.773 443.095 306.916 443.095H463.848V443.286Z" fill="url(#paint6_linear_68_5841)"/>
<path d="M471.466 419.289L458.896 419.479L435.28 419.67L388.239 419.86L341.197 419.67L317.581 419.479H309.963C309.963 419.289 309.773 419.289 309.773 419.098H317.581L341.197 418.908L388.239 418.718L435.28 418.908L458.896 419.098L471.085 419.289C471.275 419.098 471.466 419.289 471.466 419.289ZM474.513 422.336L458.896 421.955L435.28 421.765L388.239 421.574L341.197 421.765L317.581 421.955H311.106C311.106 422.146 311.106 422.146 311.296 422.336H317.581L341.197 422.527L388.239 422.717L435.28 422.527L458.896 422.336H474.513ZM476.227 425.383L459.086 425.002L435.47 424.812L388.429 424.622L341.388 424.812L317.772 425.002H312.249C312.249 425.193 312.249 425.193 312.249 425.383H317.772L341.388 425.574L388.429 425.764L435.47 425.574L459.086 425.383H476.227ZM310.154 441H317.962L341.578 441.191L388.619 441.381L435.661 441.191L459.277 441L471.466 440.81C471.656 440.81 471.656 440.619 471.847 440.619L459.277 440.429L435.661 440.239L388.619 440.048L341.578 440.239L317.962 440.429H310.344C310.154 440.81 310.154 441 310.154 441ZM474.513 437.953C474.513 437.763 474.513 437.763 474.513 437.953L459.086 437.572L435.47 437.382L388.429 437.191L341.388 437.382L317.772 437.572H311.487C311.487 437.763 311.487 437.763 311.296 437.953H317.772L341.388 438.144L388.429 438.334L435.47 438.144L459.086 437.953H474.513ZM476.227 434.715L459.086 434.335L435.47 434.144L388.429 433.954L341.388 434.144L317.772 434.335H312.249C312.249 434.525 312.249 434.525 312.249 434.715H317.772L341.388 434.906L388.429 435.096L435.47 434.906L459.086 434.715H476.227ZM476.989 431.668C476.989 431.668 476.989 431.478 476.989 431.668L459.086 431.287L435.47 431.097L388.429 430.906L341.388 431.097L317.772 431.287H312.629C312.629 431.478 312.629 431.478 312.629 431.668H317.772L341.388 431.859L388.429 432.049L435.47 431.859L459.086 431.668H476.989ZM476.989 428.621C476.989 428.431 476.989 428.431 476.989 428.621L459.086 428.24L435.47 428.05L388.429 427.859L341.388 428.05L317.772 428.24H312.629C312.629 428.431 312.629 428.431 312.629 428.621H317.772L341.388 428.811L388.429 429.002L435.47 428.811L459.086 428.621H476.989Z" fill="#E1E3EF"/>
<path d="M325.771 442.143L332.437 438.334L339.102 442.143V425.002H325.771V442.143Z" fill="#FF6570"/>
<path d="M322.152 477.757C314.915 477.757 309.011 471.853 309.011 464.616C309.011 457.379 314.915 451.475 322.152 451.475H476.989C471.847 460.236 471.847 468.997 476.989 477.948H322.152V477.757Z" fill="#FDFDFD"/>
<path d="M322.152 477.757C314.725 477.757 308.63 471.472 309.011 463.854C309.392 456.808 315.486 451.285 322.533 451.285H479.084C480.227 451.285 481.179 450.332 481.179 449.19C481.179 448.047 480.227 447.095 479.084 447.095H322.152C312.63 447.095 304.821 454.903 304.821 464.426C304.821 473.948 312.63 481.757 322.152 481.757H479.084C480.227 481.757 481.179 480.805 481.179 479.662C481.179 478.519 480.227 477.567 479.084 477.567H322.152V477.757Z" fill="url(#paint7_linear_68_5841)"/>
<path d="M314.725 453.57L326.913 453.38L350.529 453.189L397.571 452.999L444.612 453.189L468.228 453.38H476.037C476.037 453.57 475.846 453.57 475.846 453.761H468.228L444.612 453.951L397.571 454.141L350.529 453.951L326.913 453.761L314.344 453.57C314.534 453.76 314.725 453.76 314.725 453.57ZM326.913 457.189L350.529 457.379L397.571 457.57L444.612 457.379L468.228 457.189H474.513C474.513 456.998 474.513 456.998 474.704 456.808H468.228L444.612 456.617L397.571 456.427L350.529 456.617L326.913 456.808L311.487 456.998C311.487 456.998 311.487 457.189 311.296 457.189H326.913ZM326.913 460.236L350.529 460.426L397.571 460.617L444.612 460.426L468.228 460.236H473.751C473.751 460.045 473.751 460.045 473.751 459.855H468.228L444.612 459.664L397.571 459.474L350.529 459.664L326.913 459.855L309.773 460.045C309.773 460.045 309.773 460.045 309.773 460.236H326.913ZM475.656 475.282H468.038L444.422 475.091L397.38 474.901L350.339 475.091L326.723 475.282L314.153 475.472C314.344 475.472 314.344 475.662 314.534 475.662L326.723 475.853L350.339 476.043L397.38 476.234L444.422 476.043L468.038 475.853H475.846C475.846 475.472 475.846 475.472 475.656 475.282ZM326.913 472.615L350.529 472.806L397.571 472.996L444.612 472.806L468.228 472.615H474.704C474.704 472.425 474.704 472.425 474.513 472.234H468.228L444.612 472.044L397.571 471.853L350.529 472.044L326.913 472.234L311.296 472.425C311.296 472.425 311.296 472.615 311.487 472.615H326.913ZM326.913 469.568L350.529 469.758L397.571 469.949L444.612 469.758L468.228 469.568H473.751C473.751 469.378 473.751 469.377 473.751 469.187H468.228L444.612 468.997L397.571 468.806L350.529 468.997L326.913 469.187L309.773 469.377C309.773 469.377 309.773 469.378 309.773 469.568H326.913ZM326.913 466.33L350.529 466.521L397.571 466.711L444.612 466.521L468.228 466.33H473.37C473.37 466.14 473.37 466.14 473.37 465.949H468.228L444.612 465.759L397.571 465.568L350.529 465.759L326.913 465.949L309.011 466.14C309.011 466.14 309.011 466.14 309.011 466.33H326.913ZM326.913 463.283L350.529 463.473L397.571 463.664L444.612 463.473L468.228 463.283H473.37C473.37 463.093 473.37 463.093 473.37 462.902H468.228L444.612 462.712L397.571 462.521L350.529 462.712L326.913 462.902L309.011 463.093C309.011 463.093 309.011 463.093 309.011 463.283H326.913Z" fill="#E1E3EF"/>
<path d="M464.61 470.52L457.753 466.711L451.088 470.52V453.57H464.61V470.52Z" fill="#A97EFF"/>
<path d="M463.848 512.419C471.085 512.419 476.989 506.515 476.989 499.278C476.989 492.041 471.085 486.137 463.848 486.137H308.821C313.963 494.898 313.963 503.659 308.821 512.61H463.848V512.419Z" fill="#FDFDFD"/>
<path d="M463.848 512.42C471.275 512.42 477.37 506.135 476.989 498.517C476.608 491.47 470.514 485.947 463.467 485.947H306.916C305.773 485.947 304.821 484.995 304.821 483.852C304.821 482.709 305.773 481.757 306.916 481.757H463.848C473.37 481.757 481.179 489.565 481.179 499.088C481.179 508.61 473.37 516.419 463.848 516.419H306.916C305.773 516.419 304.821 515.467 304.821 514.324C304.821 513.181 305.773 512.229 306.916 512.229H463.848V512.42Z" fill="url(#paint8_linear_68_5841)"/>
<path d="M471.466 488.423L458.896 488.613L435.28 488.804L388.239 488.994L341.197 488.804L317.581 488.613H309.963C309.963 488.423 309.773 488.423 309.773 488.232H317.581L341.197 488.042L388.239 487.851L435.28 488.042L458.896 488.232L471.085 488.423C471.275 488.232 471.466 488.423 471.466 488.423ZM474.513 491.47L458.896 491.089L435.28 490.899L388.239 490.708L341.197 490.899L317.581 491.089H311.106C311.106 491.279 311.106 491.279 311.296 491.47H317.581L341.197 491.66L388.239 491.851L435.28 491.66L458.896 491.47H474.513ZM476.227 494.517L459.086 494.136L435.47 493.946L388.429 493.755L341.388 493.946L317.772 494.136H312.249C312.249 494.327 312.249 494.327 312.249 494.517H317.772L341.388 494.708L388.429 494.898L435.47 494.708L459.086 494.517H476.227ZM310.154 510.134H317.962L341.578 510.325L388.619 510.515L435.661 510.325L459.277 510.134L471.466 509.944C471.656 509.944 471.656 509.753 471.847 509.753L459.277 509.563L435.661 509.372L388.619 509.182L341.578 509.372L317.962 509.563H310.344C310.154 509.944 310.154 510.134 310.154 510.134ZM474.513 507.087C474.513 506.896 474.513 506.896 474.513 507.087L459.086 506.706L435.47 506.516L388.429 506.325L341.388 506.516L317.772 506.706H311.487C311.487 506.896 311.487 506.896 311.296 507.087H317.772L341.388 507.277L388.429 507.468L435.47 507.277L459.086 507.087H474.513ZM476.227 503.849L459.086 503.468L435.47 503.278L388.429 503.087L341.388 503.278L317.772 503.468H312.249C312.249 503.659 312.249 503.659 312.249 503.849H317.772L341.388 504.04L388.429 504.23L435.47 504.04L459.086 503.849H476.227ZM476.989 500.802C476.989 500.802 476.989 500.612 476.989 500.802L459.086 500.421L435.47 500.231L388.429 500.04L341.388 500.231L317.772 500.421H312.629C312.629 500.612 312.629 500.612 312.629 500.802H317.772L341.388 500.992L388.429 501.183L435.47 500.992L459.086 500.802H476.989ZM476.989 497.755C476.989 497.564 476.989 497.564 476.989 497.755L459.086 497.374L435.47 497.183L388.429 496.993L341.388 497.183L317.772 497.374H312.629C312.629 497.564 312.629 497.564 312.629 497.755H317.772L341.388 497.945L388.429 498.136L435.47 497.945L459.086 497.755H476.989Z" fill="#E1E3EF"/>
<path d="M339.293 511.277L345.959 507.468L352.815 511.277V494.136H339.293V511.277Z" fill="#F8B024"/>
<path d="M215.669 89.3151C216.897 99.5515 227.134 142.135 218.945 142.135C208.299 142.544 175.952 138.45 174.723 138.45C166.944 138.04 167.353 90.5435 167.353 86.8584C167.353 59.0155 211.984 58.606 215.669 89.3151Z" fill="#1B2B7C"/>
<path d="M160.802 161.789L159.983 203.553L128.865 239.995L144.833 237.947L173.904 207.238L175.133 155.647L160.802 161.789Z" fill="#FFDEDE"/>
<path d="M182.094 122.072C165.715 124.938 162.44 142.135 158.755 165.474L182.503 167.521L182.094 143.773" fill="#FF87E0"/>
<path d="M126.818 368.154C119.857 377.571 105.116 387.807 105.935 392.311C106.754 396.815 138.692 378.799 138.692 378.799L137.054 367.744L126.818 368.154Z" fill="#646A89"/>
<path d="M182.503 258.01C179.637 267.837 130.912 266.609 131.321 271.113C132.959 289.538 136.644 353.823 138.691 371.839L122.723 372.248C112.896 336.626 98.1555 281.349 104.297 257.601C110.439 234.262 151.385 225.663 183.322 232.215C190.692 233.443 186.188 244.908 182.503 258.01Z" fill="#315074"/>
<path d="M162.44 368.154C155.479 377.571 140.739 387.807 141.558 392.311C142.377 396.815 174.314 378.799 174.314 378.799L172.676 367.744L162.44 368.154Z" fill="#646A89"/>
<path d="M214.031 264.152C205.842 271.932 167.763 271.113 165.306 277.255C171.038 299.775 175.542 355.051 175.133 371.429L159.164 371.839C149.337 336.216 135.416 287.082 138.282 262.924C140.739 242.042 202.157 225.254 214.031 231.805C220.582 235.49 223.858 254.735 214.031 264.152Z" fill="#3D5D82"/>
<path d="M224.267 189.632C220.992 133.536 211.574 116.339 184.141 121.662C161.211 125.757 171.038 150.733 162.44 196.183L152.203 235.49C176.771 234.672 168.172 233.853 191.102 238.357C206.661 243.679 227.134 265.79 225.496 242.451C225.496 242.451 225.086 202.325 224.267 189.632Z" fill="#FF87E0"/>
<path d="M202.157 96.2759C200.929 88.4963 197.653 86.0395 189.464 90.1341C184.141 92.5908 174.723 94.6381 170.629 92.1814C171.038 102.827 175.952 119.205 184.96 119.205C185.369 121.253 185.369 123.3 184.96 125.757C185.369 127.394 192.739 127.394 195.196 125.347C195.196 122.89 193.558 118.796 193.968 116.749C199.291 115.93 201.747 111.016 203.795 103.646C211.165 99.142 205.433 90.5435 202.157 96.2759Z" fill="#FFDEDE"/>
<path d="M205.023 161.789L203.795 203.144L173.085 239.585L189.054 237.538C189.054 237.538 216.078 209.285 218.125 207.238C220.582 205.191 219.354 155.647 219.354 155.647L205.023 161.789Z" fill="#FFDEDE"/>
<path d="M200.11 121.662C216.488 124.528 223.449 141.316 222.63 165.064L198.881 167.521L199.291 143.773" fill="#FF87E0"/>
<path d="M200.11 235.491H115.762C114.534 235.491 113.715 236.31 113.715 237.538C113.715 238.766 114.534 239.585 115.762 239.585H200.11C201.338 239.585 202.157 238.766 202.157 237.538C202.157 236.719 201.338 235.491 200.11 235.491Z" fill="url(#paint9_linear_68_5841)"/>
<path d="M185.779 174.891H120.266C116.581 174.891 113.715 178.167 113.715 181.852V235.491H192.74C192.74 235.491 192.74 197.821 192.74 181.852C192.33 177.758 189.464 174.891 185.779 174.891Z" fill="url(#paint10_linear_68_5841)"/>
<path d="M25.3944 349.512C23.4799 352.248 20.1208 357.443 9.40805 356.514C9.40805 356.514 11.1136 344.388 22.404 338.072C25.7211 336.217 29.6554 335.173 29.6554 335.173C29.6554 335.173 28.6755 344.221 25.3944 349.512Z" fill="#FFDA32"/>
<path d="M21.217 346.804C19.0867 350.03 14.5005 352.984 14.5005 352.984C14.5005 352.984 18.1875 349.907 20.6096 346.448C23.0317 342.989 24.2731 340.505 24.2731 340.505C24.2731 340.505 23.3473 343.577 21.217 346.804Z" fill="white"/>
<path d="M84.0265 229.512C85.941 232.248 89.3001 237.443 100.013 236.514C100.013 236.514 98.3073 224.388 87.0169 218.072C83.6998 216.217 79.7655 215.173 79.7655 215.173C79.7655 215.173 80.7454 224.221 84.0265 229.512Z" fill="#FB5472"/>
<path d="M88.2039 226.804C90.3342 230.03 94.9204 232.984 94.9204 232.984C94.9204 232.984 91.2334 229.907 88.8113 226.448C86.3892 222.989 85.1478 220.505 85.1478 220.505C85.1478 220.505 86.0736 223.577 88.2039 226.804Z" fill="white"/>
<path d="M44.5 487.851C50.29 477.64 58.7295 468.316 67.3333 460.407C73.1892 455.024 79.247 449.743 85.3889 444.685C89.139 441.596 93.1354 439.446 97.1111 436.796C99.4973 435.205 101.137 432.18 103.639 430.879C105.233 430.05 109.484 440.055 110.083 441.046C113.388 446.504 117.682 451.785 122.472 456.018C124.794 458.07 128.201 457.276 130.722 455.935C136.743 452.732 141.34 446.846 145.722 441.796C153.671 432.635 160.946 423.156 168.278 413.518C172.87 407.481 178.172 401.363 184 396.462C185.99 394.789 188.098 393.335 190.222 395.629C190.454 395.88 191.721 399.25 192.667 398.24C196.079 394.597 197.688 388.337 200.194 384.074C206.678 373.044 214.189 362.645 222.639 353.046C224.692 350.713 227.422 346.792 230.222 345.129C232.003 344.072 233.201 348.987 233.361 349.379C234.364 351.834 235.775 358.478 238.75 359.574C240.923 360.374 247.233 344.778 247.944 343.462C255.472 329.55 265.221 316.841 274.5 304.074C278.61 298.418 283.177 293.897 287.694 288.685C290.985 284.888 299.497 307.465 305.667 302.851C308.451 300.769 310.262 296.873 311.917 293.99C314.463 289.555 316.84 284.884 319.944 280.796C323.454 276.175 324.912 285.265 326 287.685C328.218 292.618 332.204 283.327 333.222 281.379C341.051 266.403 348.657 251.31 356.528 236.351C366.192 217.986 375.365 198.755 388.056 182.212C391.207 178.104 392.74 185.515 393.944 188.074C397.017 194.602 399.909 201.21 402.917 207.768C403.071 208.105 405.974 215.761 407.556 215.685C408.133 215.657 408.429 214.879 408.667 214.351C409.61 212.26 412.176 202.709 412.361 202.074C415.392 191.66 418.566 181.252 423.056 171.351C427.589 161.354 433.456 152.292 441 144.351" stroke="white" stroke-width="2" stroke-linecap="round" stroke-linejoin="round" stroke-dasharray="2 4"/>
<path opacity="0.2" d="M44.5 499.851C56.863 478.047 86.9393 425.972 109 414.5C114.378 411.704 108.027 480.007 130.722 467.935C140.313 462.833 181.583 408.109 187.5 414.5C192.746 420.165 220.173 363.096 230.222 357.129C232.109 356.009 249.555 370.465 251.812 371.296C253.5 371.918 276.427 288.085 286.21 276.796C289.5 273 299.497 319.465 305.667 314.851C312.303 309.888 316.563 269.502 321.5 263C325.211 258.112 324.706 309.67 333.222 293.379C350.492 260.34 365.233 196.178 388 166.5C392.067 161.198 402.876 227.91 407.556 227.685C409.864 227.573 432.093 165.727 441 156.351" stroke="white" stroke-width="3" stroke-linecap="round" stroke-linejoin="round"/>
<path opacity="0.31" d="M499.862 76.4095C499.862 78.2443 498.349 79.7528 496.508 79.7528C494.668 79.7528 493.155 78.2443 493.155 76.4095C493.155 74.5747 494.668 73.0662 496.508 73.0662C498.349 73.0662 499.862 74.5747 499.862 76.4095Z" fill="white"/>
<path opacity="0.31" d="M493.155 65.7679C500.884 65.7679 507.182 72.0469 507.182 79.7529H511.762C511.762 69.519 503.419 61.2014 493.155 61.2014V65.7679Z" fill="#C5D5FF"/>
<path opacity="0.31" d="M493.155 53.8622C507.468 53.8622 519.123 65.4824 519.123 79.7527H524.357C524.357 62.5875 510.371 48.6433 493.155 48.6433V53.8622Z" fill="#C5D5FF"/>
<path opacity="0.31" d="M493.155 42.1198C513.97 42.1198 530.9 58.9996 530.9 79.7528H536.543C536.543 55.9009 517.078 36.4932 493.155 36.4932V42.1198Z" fill="#C5D5FF"/>
<path opacity="0.31" d="M261.256 127.264C260.428 127.264 259.756 126.592 259.756 125.764V118.897C259.756 118.069 260.428 117.397 261.256 117.397H264.254C264.663 115.888 265.277 114.461 266.054 113.116L263.929 110.998C263.342 110.412 263.342 109.46 263.929 108.873L268.798 104.02C269.383 103.436 270.331 103.436 270.916 104.02L273.047 106.144C274.396 105.369 275.827 104.758 277.34 104.35V101.365C277.34 100.536 278.012 99.8649 278.84 99.8649H285.737C286.565 99.8649 287.237 100.536 287.237 101.365V104.35C288.75 104.758 290.181 105.369 291.531 106.144L293.661 104.02C294.247 103.436 295.194 103.436 295.779 104.02L300.648 108.873C301.236 109.46 301.236 110.412 300.648 110.998L298.523 113.116C299.3 114.461 299.914 115.888 300.323 117.397H303.321C304.149 117.397 304.821 118.069 304.821 118.897V125.764C304.821 126.592 304.149 127.264 303.321 127.264H300.323C299.914 128.773 299.3 130.2 298.523 131.545L300.648 133.663C301.236 134.249 301.236 135.201 300.648 135.788L295.779 140.642C295.194 141.225 294.247 141.225 293.661 140.642L291.531 138.517C290.181 139.292 288.75 139.904 287.237 140.311V143.296C287.237 144.125 286.565 144.796 285.737 144.796H278.84C278.012 144.796 277.34 144.125 277.34 143.296V140.311C275.827 139.904 274.396 139.292 273.047 138.517L270.916 140.642C270.331 141.225 269.383 141.225 268.798 140.642L263.929 135.788C263.342 135.201 263.342 134.249 263.929 133.663L266.054 131.545C265.277 130.2 264.663 128.773 264.254 127.264H261.256ZM282.329 131.097C287.196 131.097 291.163 127.142 291.163 122.29C291.163 117.438 287.196 113.483 282.329 113.483C277.463 113.483 273.496 117.438 273.496 122.29C273.537 127.182 277.463 131.097 282.329 131.097Z" fill="#C5D5FF"/>
<circle opacity="0.3" cx="501" cy="189" r="11.5" stroke="#FB5472" stroke-width="7"/>
<circle opacity="0.2" cx="77.645" cy="81.7634" r="14.6404" stroke="#1B2B7C" stroke-width="10"/>
<circle opacity="0.3" cx="167" cy="525.166" r="7.5" stroke="#1B2B7C" stroke-width="5"/>
<path opacity="0.31" d="M45.2871 523.065L75.0169 538.11L100.739 497.419L45.2871 523.065Z" fill="#C5D5FF"/>
<path opacity="0.1" d="M100.739 497.419L56.7373 528.855V545.449L64.3027 532.687L100.739 497.419Z" fill="#04659B"/>
<path opacity="0.1" d="M100.739 497.419L56.7373 528.855V545.449L64.3027 532.687L100.739 497.419Z" fill="#C5D5FF"/>
<defs>
<linearGradient id="paint0_linear_68_5841" x1="400" y1="87.623" x2="400" y2="501.623" gradientUnits="userSpaceOnUse">
<stop offset="0.510417" stop-color="#E7768D"/>
<stop offset="1" stop-color="white" stop-opacity="0"/>
</linearGradient>
<linearGradient id="paint1_linear_68_5841" x1="293.676" y1="176.123" x2="293.676" y2="501.623" gradientUnits="userSpaceOnUse">
<stop offset="0.510417" stop-color="#E7768D"/>
<stop offset="1" stop-color="white" stop-opacity="0"/>
</linearGradient>
<linearGradient id="paint2_linear_68_5841" x1="187.352" y1="263.623" x2="187.352" y2="501.623" gradientUnits="userSpaceOnUse">
<stop offset="0.510417" stop-color="#E7768D"/>
<stop offset="1" stop-color="white" stop-opacity="0"/>
</linearGradient>
<linearGradient id="paint3_linear_68_5841" x1="81.0273" y1="348.857" x2="81.0273" y2="501.623" gradientUnits="userSpaceOnUse">
<stop offset="0.510417" stop-color="#E7768D"/>
<stop offset="1" stop-color="white" stop-opacity="0"/>
</linearGradient>
<linearGradient id="paint4_linear_68_5841" x1="44.6574" y1="287.011" x2="71.5145" y2="261.994" gradientUnits="userSpaceOnUse">
<stop stop-color="#87DFFF"/>
<stop offset="1" stop-color="#3CA5FF"/>
</linearGradient>
<linearGradient id="paint5_linear_68_5841" x1="463.494" y1="266.125" x2="457.779" y2="279.187" gradientUnits="userSpaceOnUse">
<stop stop-color="#87DFFF"/>
<stop offset="1" stop-color="#3CA5FF"/>
</linearGradient>
<linearGradient id="paint6_linear_68_5841" x1="304.836" y1="430.029" x2="481.114" y2="430.029" gradientUnits="userSpaceOnUse">
<stop stop-color="#FF6570"/>
<stop offset="1" stop-color="#EC374F"/>
</linearGradient>
<linearGradient id="paint7_linear_68_5841" x1="304.836" y1="464.593" x2="481.114" y2="464.593" gradientUnits="userSpaceOnUse">
<stop stop-color="#A97EFF"/>
<stop offset="0.9985" stop-color="#835ED0"/>
</linearGradient>
<linearGradient id="paint8_linear_68_5841" x1="304.744" y1="499.181" x2="482.301" y2="499.181" gradientUnits="userSpaceOnUse">
<stop offset="0.00693109" stop-color="#FF6325"/>
<stop offset="1" stop-color="#FFB600"/>
</linearGradient>
<linearGradient id="paint9_linear_68_5841" x1="202.157" y1="237.538" x2="113.715" y2="237.538" gradientUnits="userSpaceOnUse">
<stop stop-color="#FE8746"/>
<stop offset="1" stop-color="#FC8848"/>
</linearGradient>
<linearGradient id="paint10_linear_68_5841" x1="192.74" y1="205.191" x2="113.715" y2="205.191" gradientUnits="userSpaceOnUse">
<stop stop-color="#FFA979"/>
<stop offset="1" stop-color="#FFC09E"/>
</linearGradient>
</defs>
</svg>
