<svg width="108" height="130" viewBox="0 0 108 130" fill="none" xmlns="http://www.w3.org/2000/svg">
<path d="M10.0555 14.6054L14.7473 20.0366L14.1962 20.5123L10.4428 16.1673L11.4655 21.6642L11.1938 21.8987L5.92281 20.1101L9.6561 24.4318L9.10507 24.9075L4.41333 19.4763L4.88675 19.0676L10.7247 21.0576L9.58211 15.0141L10.0555 14.6054Z" fill="#3D5D82"/>
<path d="M20.6568 15.4037L21.0164 15.9525L16.7705 18.7327L12.8372 12.7295L16.9544 10.0336L17.3141 10.5824L13.8315 12.8627L15.2307 14.9982L18.3358 12.965L18.6898 13.5053L15.5847 15.5384L17.0456 17.7682L20.6568 15.4037Z" fill="#3D5D82"/>
<path d="M19.9143 8.39893L22.5386 7.11375C23.22 6.78006 23.8893 6.62355 24.5464 6.64422C25.2005 6.65876 25.7922 6.8409 26.3213 7.19064C26.8475 7.53424 27.2639 8.01907 27.5707 8.64514C27.8775 9.27121 28.007 9.90041 27.9591 10.5327C27.9082 11.1589 27.6895 11.7379 27.3031 12.2696C26.9136 12.7952 26.3782 13.2249 25.6968 13.5586L23.0725 14.8437L19.9143 8.39893ZM25.3712 12.9874C25.936 12.7108 26.376 12.3583 26.6913 11.9299C27.0036 11.4954 27.1801 11.0246 27.2209 10.5175C27.2586 10.0043 27.1512 9.48991 26.8985 8.97433C26.6459 8.45874 26.3067 8.06165 25.8809 7.78306C25.4521 7.49834 24.9718 7.34921 24.4399 7.33567C23.9051 7.316 23.3553 7.44445 22.7905 7.72103L20.8845 8.65447L23.4652 13.9208L25.3712 12.9874Z" fill="#3D5D82"/>
<path d="M28.542 4.55859L29.2535 4.29524L31.7462 11.0255L31.0346 11.2889L28.542 4.55859Z" fill="#3D5D82"/>
<path d="M38.0399 9.18053C37.3529 9.363 36.6915 9.376 36.0558 9.21951C35.4268 9.06127 34.8826 8.75671 34.4233 8.30585C33.9688 7.84663 33.6529 7.28341 33.4756 6.61621C33.2983 5.94901 33.2938 5.30663 33.462 4.68908C33.6352 4.06317 33.9588 3.52459 34.433 3.07333C34.9072 2.62207 35.4878 2.3052 36.1748 2.12272C36.6901 1.98586 37.1886 1.94541 37.6702 2.00136C38.1519 2.05732 38.5886 2.21009 38.9802 2.45967L38.6383 3.04909C37.9508 2.64467 37.1942 2.55213 36.3685 2.77145C35.8201 2.91708 35.3547 3.17506 34.9722 3.5454C34.5897 3.91574 34.3276 4.35312 34.1858 4.85755C34.0506 5.36021 34.055 5.88239 34.199 6.42408C34.3429 6.96577 34.5984 7.42128 34.9653 7.79059C35.3388 8.15816 35.7835 8.4078 36.2995 8.53951C36.8154 8.67123 37.3475 8.66427 37.8959 8.51864C38.7283 8.29756 39.3383 7.83851 39.7259 7.14149L40.3154 7.48351C40.0993 7.89452 39.7936 8.24798 39.3984 8.5439C39.0081 8.83146 38.5552 9.04367 38.0399 9.18053Z" fill="#3D5D82"/>
<path d="M41.5667 1.07202L42.3151 0.947892L43.4901 8.02807L42.7416 8.1522L41.5667 1.07202Z" fill="#3D5D82"/>
<path d="M52.4285 -0.000229338L52.8881 7.16209L52.2639 7.20211L47.2867 1.68561L47.6595 7.49732L46.9024 7.54586L46.4429 0.383545L47.067 0.343527L52.0545 5.85937L51.6816 0.0476604L52.4285 -0.000229338Z" fill="#3D5D82"/>
<path d="M60.7029 6.92534L60.6628 7.5803L55.5972 7.27025L56.0359 0.106689L60.9481 0.407339L60.9079 1.06229L56.7531 0.807994L56.597 3.35618L60.3016 3.58291L60.2621 4.22764L56.5575 4.0009L56.3946 6.66165L60.7029 6.92534Z" fill="#3D5D82"/>
<path d="M74.6517 3.21317L72.8618 10.1634L72.137 9.97687L72.9629 6.76983L68.6138 5.65057L67.7879 8.85761L67.0532 8.66851L68.843 1.71826L69.5778 1.90736L68.78 5.00519L73.1291 6.12445L73.9268 3.02663L74.6517 3.21317Z" fill="#3D5D82"/>
<path d="M80.355 12.3676L80.1129 12.9775L75.3953 11.1063L78.043 4.43555L82.6176 6.25005L82.3755 6.85995L78.5062 5.32518L77.5644 7.69807L81.0144 9.06651L80.7761 9.66688L77.3261 8.29844L76.3427 10.7762L80.355 12.3676Z" fill="#3D5D82"/>
<path d="M86.5208 16.3796L86.1816 13.5697C86.0097 13.4995 85.8366 13.4172 85.6625 13.3225L83.9689 12.402L82.8814 14.4016L82.2148 14.0393L85.6438 7.73438L88.004 9.01716C88.8087 9.45455 89.3348 9.98943 89.5822 10.6218C89.8296 11.2542 89.7704 11.9066 89.4047 12.5791C89.1369 13.0715 88.7838 13.4203 88.3454 13.6255C87.9163 13.8279 87.4297 13.8785 86.8857 13.7773L87.2504 16.7762L86.5208 16.3796ZM85.953 12.7453C86.5776 13.0847 87.1302 13.2061 87.6107 13.1094C88.0912 13.0127 88.467 12.7152 88.7381 12.2168C89.0157 11.7064 89.0628 11.2264 88.8794 10.7766C88.6994 10.3209 88.297 9.92328 87.6724 9.58382L85.9969 8.67314L84.2775 11.8346L85.953 12.7453Z" fill="#3D5D82"/>
<path d="M95.006 17.716C95.3298 18.0739 95.505 18.4515 95.5315 18.8488C95.5676 19.2444 95.4463 19.6368 95.1676 20.0257C94.8094 20.5258 94.3466 20.7787 93.7792 20.7844C93.2213 20.7886 92.5811 20.532 91.8585 20.0148L89.1741 18.0931L93.3535 12.2585L95.8712 14.0609C96.5215 14.5264 96.931 15.0171 97.0996 15.5329C97.2738 16.0527 97.1897 16.5515 96.8474 17.0294C96.6165 17.3516 96.3389 17.569 96.0145 17.6814C95.6997 17.7923 95.3635 17.8038 95.006 17.716ZM93.6062 13.2086L92.0897 15.3257L93.9488 16.6566C94.4212 16.9948 94.849 17.1665 95.232 17.1717C95.619 17.1713 95.9359 16.9989 96.1827 16.6544C96.4295 16.3099 96.4887 15.9572 96.3604 15.5964C96.2361 15.23 95.9378 14.8777 95.4654 14.5395L93.6062 13.2086ZM92.2144 19.5004C92.7369 19.8744 93.1952 20.068 93.5893 20.0811C93.9835 20.0943 94.3159 19.9119 94.5865 19.5341C95.108 18.8062 94.8407 18.0642 93.7847 17.3083L91.7255 15.8341L90.1552 18.0263L92.2144 19.5004Z" fill="#3D5D82"/>
<path d="M96.9663 24.3331C96.5714 23.9749 96.2492 23.5672 95.9995 23.11C95.7549 22.6575 95.628 22.2379 95.6189 21.8513L96.232 21.6183C96.2498 21.9851 96.363 22.3739 96.5717 22.7847C96.785 23.1904 97.0613 23.5471 97.4005 23.8548C97.8763 24.2865 98.3114 24.5242 98.7055 24.568C99.1042 24.6067 99.4299 24.4868 99.6826 24.2085C99.8756 23.9959 99.9636 23.7666 99.9469 23.5207C99.9351 23.2794 99.8655 23.0409 99.7379 22.8051C99.6149 22.5644 99.423 22.2519 99.1624 21.8679C98.8543 21.4039 98.6227 21.0184 98.4674 20.7114C98.3168 20.3994 98.2426 20.0692 98.2451 19.7207C98.2526 19.3769 98.4056 19.0404 98.7042 18.7115C98.9477 18.4432 99.2391 18.2646 99.5784 18.1755C99.9223 18.0814 100.301 18.1017 100.714 18.2365C101.127 18.3713 101.551 18.6361 101.987 19.031C102.29 19.3066 102.547 19.6183 102.758 19.9661C102.978 20.3134 103.128 20.6569 103.207 20.9965L102.611 21.2722C102.521 20.9234 102.382 20.5988 102.193 20.2983C102.009 19.9927 101.795 19.7298 101.552 19.5093C101.087 19.0868 100.652 18.8588 100.249 18.8251C99.8551 18.791 99.5296 18.9157 99.2724 19.1991C99.0794 19.4117 98.9865 19.6412 98.9937 19.8876C99.0104 20.1335 99.0829 20.3792 99.2109 20.6245C99.3487 20.8694 99.5453 21.1816 99.8009 21.5611C100.103 22.0109 100.33 22.3918 100.481 22.7038C100.641 23.0153 100.717 23.343 100.71 23.6869C100.707 24.0257 100.559 24.357 100.265 24.681C100.021 24.9492 99.7248 25.1281 99.3759 25.2176C99.0366 25.3067 98.6579 25.2815 98.2397 25.1421C97.8262 24.9977 97.4017 24.7281 96.9663 24.3331Z" fill="#3D5D82"/>
<path d="M21.8615 106.563V118.732H19.5494L13.4824 111.343V118.732H10.7009V106.563H13.0304L19.08 113.951V106.563H21.8615Z" fill="#3D5D82"/>
<path d="M32.7546 116.124H27.1048L26.027 118.732H23.1412L28.565 106.563H31.3465L36.7877 118.732H33.8324L32.7546 116.124ZM31.868 113.986L29.9384 109.327L28.0087 113.986H31.868Z" fill="#3D5D82"/>
<path d="M39.9597 108.857H36.0657V106.563H46.6699V108.857H42.7759V118.732H39.9597V108.857Z" fill="#3D5D82"/>
<path d="M53.3879 118.94C51.6495 118.94 50.2936 118.459 49.3201 117.497C48.3581 116.535 47.8772 115.162 47.8772 113.377V106.563H50.6934V113.273C50.6934 115.452 51.5974 116.541 53.4053 116.541C54.2861 116.541 54.9583 116.28 55.4218 115.759C55.8854 115.226 56.1172 114.397 56.1172 113.273V106.563H58.8986V113.377C58.8986 115.162 58.4119 116.535 57.4384 117.497C56.4765 118.459 55.1263 118.94 53.3879 118.94Z" fill="#3D5D82"/>
<path d="M69.4349 118.732L67.088 115.342H66.9489H64.4978V118.732H61.6816V106.563H66.9489C68.0267 106.563 68.9597 106.742 69.7478 107.102C70.5474 107.461 71.1617 107.971 71.5905 108.631C72.0193 109.292 72.2337 110.074 72.2337 110.978C72.2337 111.882 72.0135 112.665 71.5731 113.325C71.1443 113.974 70.53 114.472 69.7304 114.82L72.4597 118.732H69.4349ZM69.3827 110.978C69.3827 110.295 69.1625 109.773 68.7221 109.414C68.2817 109.043 67.6385 108.857 66.7925 108.857H64.4978V113.099H66.7925C67.6385 113.099 68.2817 112.914 68.7221 112.543C69.1625 112.172 69.3827 111.65 69.3827 110.978Z" fill="#3D5D82"/>
<path d="M82.479 116.124H76.8292L75.7514 118.732H72.8656L78.2894 106.563H81.0709L86.5121 118.732H83.5568L82.479 116.124ZM81.5924 113.986L79.6628 109.327L77.7331 113.986H81.5924Z" fill="#3D5D82"/>
<path d="M87.7746 106.563H90.5908V116.437H96.6926V118.732H87.7746V106.563Z" fill="#3D5D82"/>
<path d="M28.281 130C27.7793 130 27.3612 129.832 27.0268 129.498C26.6924 129.164 26.5251 128.662 26.5251 127.993C26.5251 127.471 26.6244 126.964 26.823 126.472C27.032 125.971 27.3038 125.521 27.6382 125.124C27.9726 124.727 28.3437 124.414 28.7513 124.184C29.1589 123.943 29.5612 123.823 29.9584 123.823C30.3869 123.823 30.6795 123.948 30.8363 124.199C30.9931 124.45 31.0714 124.711 31.0714 124.983C31.0714 125.286 30.9983 125.553 30.852 125.783C30.7161 126.013 30.528 126.128 30.2876 126.128C30.1099 126.128 29.9584 126.049 29.833 125.892C29.9897 125.809 30.1256 125.642 30.2406 125.391C30.3555 125.129 30.413 124.884 30.413 124.654C30.413 124.528 30.3869 124.434 30.3346 124.372C30.2928 124.299 30.204 124.262 30.0681 124.262C29.7859 124.262 29.4933 124.387 29.1902 124.638C28.8976 124.889 28.6206 125.213 28.3593 125.61C28.1085 126.007 27.8995 126.425 27.7323 126.864C27.5755 127.303 27.4971 127.716 27.4971 128.103C27.4971 128.427 27.5755 128.725 27.7323 128.996C27.889 129.268 28.1921 129.404 28.6415 129.404C29.0596 129.404 29.4776 129.289 29.8957 129.059C30.3242 128.829 30.7213 128.5 31.0871 128.071C31.4529 127.643 31.7456 127.141 31.965 126.566L32.1688 126.723C31.9285 127.35 31.5992 127.915 31.1812 128.416C30.7631 128.908 30.3033 129.294 29.8016 129.576C29.3 129.859 28.7931 130 28.281 130Z" fill="#3D5D82"/>
<path d="M32.7527 129.623C32.3033 129.623 31.9845 129.482 31.7964 129.2C31.6083 128.928 31.5142 128.594 31.5142 128.197C31.5142 127.873 31.5665 127.538 31.671 127.194C31.7755 126.849 31.9113 126.525 32.0786 126.222C32.2562 125.918 32.4496 125.673 32.6586 125.485C32.8781 125.297 33.0976 125.203 33.317 125.203C33.4111 125.203 33.5208 125.229 33.6463 125.281C33.5522 125.365 33.4372 125.521 33.3014 125.751C33.176 125.971 33.0558 126.227 32.9408 126.519C32.8258 126.802 32.7265 127.084 32.6429 127.366C32.5698 127.648 32.5332 127.889 32.5332 128.087C32.5332 128.401 32.5855 128.631 32.69 128.777C32.7945 128.913 32.9303 128.981 33.0976 128.981C33.317 128.981 33.5783 128.866 33.8814 128.636C34.1845 128.395 34.4824 128.092 34.775 127.727C34.4824 127.486 34.2524 127.173 34.0852 126.786C33.9284 126.389 33.8501 125.986 33.8501 125.579C33.8501 125.234 33.9075 124.91 34.0225 124.607C34.1479 124.304 34.3256 124.063 34.5555 123.886C34.7854 123.698 35.0624 123.604 35.3864 123.604C35.8149 123.604 36.1023 123.718 36.2486 123.948C36.3949 124.178 36.4681 124.466 36.4681 124.811C36.4681 125.218 36.3688 125.673 36.1702 126.175C35.9717 126.666 35.7208 127.141 35.4177 127.601C35.6059 127.706 35.8044 127.758 36.0135 127.758C36.2538 127.758 36.5465 127.68 36.8914 127.523C37.2363 127.356 37.5028 127.058 37.6909 126.629L37.879 126.786C37.67 127.277 37.3721 127.627 36.9854 127.836C36.6092 128.035 36.2486 128.134 35.9037 128.134C35.6215 128.134 35.3707 128.082 35.1512 127.977C34.7959 128.448 34.404 128.84 33.9755 129.153C33.5574 129.467 33.1498 129.623 32.7527 129.623ZM35.0572 127.319C35.3185 126.932 35.5327 126.53 35.6999 126.112C35.8776 125.683 35.9664 125.281 35.9664 124.905C35.9664 124.602 35.9194 124.382 35.8253 124.246C35.7417 124.1 35.632 124.027 35.4961 124.027C35.2871 124.027 35.0729 124.178 34.8534 124.481C34.6339 124.785 34.5242 125.166 34.5242 125.626C34.5242 125.929 34.566 126.237 34.6496 126.551C34.7436 126.854 34.8795 127.11 35.0572 127.319Z" fill="#3D5D82"/>
<path d="M39.0428 129.921C38.5516 129.921 38.1597 129.812 37.867 129.592C37.5848 129.383 37.3863 129.122 37.2713 128.808C37.1459 128.495 37.0832 128.181 37.0832 127.868C37.0832 127.554 37.125 127.314 37.2086 127.147C37.2922 126.979 37.3915 126.854 37.5064 126.77C37.6319 126.687 37.7468 126.624 37.8513 126.582C37.9663 126.54 38.0447 126.499 38.0865 126.457C38.4 126.112 38.6874 125.751 38.9487 125.375C39.21 124.999 39.4399 124.602 39.6385 124.184V123.995C39.6385 123.609 39.7012 123.337 39.8266 123.18C39.9625 123.013 40.1036 122.929 40.2499 122.929C40.4171 122.929 40.5007 122.997 40.5007 123.133C40.5007 123.185 40.4851 123.269 40.4537 123.384C40.4224 123.499 40.4067 123.645 40.4067 123.823C40.4067 124.168 40.4746 124.544 40.6105 124.952C40.7463 125.349 40.8822 125.772 41.0181 126.222C41.1539 126.661 41.2219 127.12 41.2219 127.601C41.2219 127.873 41.1905 128.129 41.1278 128.369C41.4936 128.307 41.8385 128.145 42.1625 127.883C42.4865 127.612 42.8 127.183 43.1031 126.598L43.2442 126.755C43.0456 127.329 42.7478 127.768 42.3506 128.071C41.9535 128.364 41.5197 128.547 41.0494 128.62C40.8822 129.07 40.6157 129.399 40.2499 129.608C39.8946 129.817 39.4922 129.921 39.0428 129.921ZM40.1402 128.354C40.1611 128.249 40.1767 128.139 40.1872 128.024C40.1977 127.909 40.2029 127.774 40.2029 127.617C40.2029 127.126 40.1402 126.64 40.0148 126.159C39.8998 125.668 39.8005 125.208 39.7169 124.779C39.4765 125.176 39.2205 125.558 38.9487 125.924C38.6874 126.279 38.4366 126.577 38.1962 126.817C38.353 127.152 38.5934 127.465 38.9174 127.758C39.2518 128.051 39.6594 128.249 40.1402 128.354ZM39.0741 129.373C39.1996 129.373 39.3668 129.331 39.5758 129.247C39.7848 129.164 39.9468 128.949 40.0618 128.604C39.6228 128.521 39.2309 128.348 38.886 128.087C38.5516 127.826 38.3007 127.565 38.1335 127.303C37.9036 127.314 37.7886 127.497 37.7886 127.852C37.7886 128.228 37.8984 128.578 38.1178 128.902C38.3478 129.216 38.6665 129.373 39.0741 129.373Z" fill="#3D5D82"/>
<path d="M50.7021 129.608C50.3363 129.608 50.0698 129.493 49.9026 129.263C49.7354 129.043 49.6518 128.777 49.6518 128.463C49.6518 128.202 49.6883 127.941 49.7615 127.68C49.8451 127.418 49.9235 127.162 49.9967 126.911C50.0803 126.661 50.1221 126.436 50.1221 126.237C50.1221 126.028 50.075 125.882 49.981 125.798C49.8869 125.715 49.7824 125.673 49.6674 125.673C49.4062 125.673 49.1187 125.877 48.8052 126.284C48.5021 126.692 48.105 127.267 47.6138 128.009C47.4465 128.26 47.3055 128.516 47.1905 128.777C47.0755 129.028 46.9658 129.258 46.8613 129.467C46.7777 129.467 46.6732 129.456 46.5477 129.435C46.4223 129.414 46.3074 129.378 46.2028 129.326C46.1088 129.284 46.0618 129.226 46.0618 129.153C46.0618 129.08 46.1088 128.908 46.2028 128.636C46.3074 128.354 46.4223 128.03 46.5477 127.664C46.6836 127.288 46.7986 126.911 46.8926 126.535C46.9971 126.148 47.0494 125.819 47.0494 125.547C47.0494 125.37 47.018 125.229 46.9553 125.124C46.9031 125.009 46.8038 124.952 46.6575 124.952C46.4275 124.952 46.1506 125.093 45.8266 125.375C45.5026 125.647 45.1682 126.007 44.8233 126.457C44.4784 126.906 44.1492 127.403 43.8356 127.946C43.5325 128.479 43.2869 129.012 43.0988 129.545C42.9525 129.545 42.7748 129.509 42.5658 129.435C42.3568 129.362 42.2523 129.289 42.2523 129.216C42.2523 129.153 42.3097 128.97 42.4247 128.667C42.5292 128.354 42.6546 127.983 42.801 127.554C42.9368 127.115 43.057 126.671 43.1615 126.222C43.2765 125.772 43.334 125.375 43.334 125.03C43.3967 124.957 43.496 124.884 43.6318 124.811C43.7677 124.737 43.9088 124.701 44.0551 124.701C44.3373 124.701 44.4784 124.837 44.4784 125.109C44.4784 125.244 44.4366 125.48 44.353 125.814C44.2798 126.138 44.1857 126.499 44.0708 126.896C44.2798 126.561 44.515 126.222 44.7762 125.877C45.048 125.521 45.3302 125.197 45.6228 124.905C45.9154 124.612 46.2081 124.377 46.5007 124.199C46.8038 124.011 47.0964 123.917 47.3786 123.917C47.7026 123.917 47.9221 124.037 48.037 124.278C48.1625 124.508 48.2252 124.785 48.2252 125.109C48.2252 125.37 48.1938 125.647 48.1311 125.939C48.0788 126.222 48.0161 126.488 47.943 126.739C47.8698 126.979 47.8019 127.173 47.7392 127.319C47.9587 126.922 48.199 126.54 48.4603 126.175C48.7321 125.798 49.0247 125.495 49.3382 125.265C49.6518 125.025 49.9862 124.905 50.3415 124.905C50.676 124.905 50.9059 125.004 51.0313 125.203C51.1672 125.401 51.2351 125.636 51.2351 125.908C51.2351 126.18 51.1881 126.478 51.094 126.802C51 127.126 50.9007 127.439 50.7962 127.742C50.7021 128.045 50.6551 128.307 50.6551 128.526C50.6551 128.662 50.6864 128.787 50.7491 128.902C50.8223 129.007 50.9477 129.059 51.1254 129.059C51.418 129.059 51.6898 128.928 51.9406 128.667C52.2019 128.395 52.4423 128.071 52.6617 127.695C52.8812 127.309 53.0693 126.937 53.2261 126.582L53.4142 126.802C53.247 127.241 53.0327 127.68 52.7715 128.118C52.5102 128.547 52.2019 128.902 51.8465 129.185C51.5016 129.467 51.1202 129.608 50.7021 129.608Z" fill="#3D5D82"/>
<path d="M54.6289 129.812C53.9914 129.812 53.5106 129.634 53.1867 129.279C52.8731 128.934 52.7164 128.505 52.7164 127.993C52.7164 127.523 52.8313 127.026 53.0612 126.504C53.3016 125.981 53.6152 125.49 54.0019 125.03C54.399 124.57 54.8327 124.199 55.303 123.917C55.7733 123.624 56.2384 123.478 56.6983 123.478C56.9387 123.478 57.1581 123.541 57.3567 123.666C57.5657 123.792 57.6703 124.048 57.6703 124.434C57.6703 124.832 57.5501 125.208 57.3097 125.563C57.0798 125.908 56.7714 126.216 56.3847 126.488C56.0085 126.76 55.5904 126.985 55.1306 127.162C54.6812 127.329 54.2318 127.434 53.7824 127.476C53.7615 127.58 53.7458 127.68 53.7353 127.774C53.7249 127.868 53.7197 127.956 53.7197 128.04C53.7197 128.364 53.8033 128.667 53.9705 128.949C54.1482 129.221 54.4774 129.357 54.9581 129.357C55.4076 129.357 55.8517 129.232 56.2907 128.981C56.7296 128.719 57.1372 128.38 57.5135 127.962C57.8897 127.544 58.2085 127.084 58.4698 126.582L58.6579 126.723C58.3757 127.35 58.0151 127.894 57.5762 128.354C57.1477 128.813 56.6774 129.169 56.1653 129.42C55.6636 129.681 55.1515 129.812 54.6289 129.812ZM53.8608 127.178C54.1429 127.084 54.4617 126.948 54.8171 126.77C55.1724 126.582 55.5121 126.363 55.8361 126.112C56.1705 125.861 56.4422 125.584 56.6513 125.281C56.8707 124.978 56.9805 124.659 56.9805 124.325C56.9805 124.21 56.9596 124.121 56.9178 124.058C56.876 123.995 56.7871 123.964 56.6513 123.964C56.4004 123.964 56.1339 124.063 55.8517 124.262C55.5695 124.45 55.2978 124.701 55.0365 125.014C54.7753 125.328 54.5401 125.673 54.3311 126.049C54.122 126.425 53.9653 126.802 53.8608 127.178Z" fill="#3D5D82"/>
<path d="M59.4889 129.843C58.5587 129.843 58.0936 129.326 58.0936 128.291C58.0936 127.831 58.1773 127.267 58.3445 126.598C58.5222 125.918 58.7416 125.223 59.0029 124.513C58.8984 124.492 58.7991 124.476 58.7051 124.466C58.611 124.445 58.5222 124.419 58.4385 124.387V124.105C58.5222 124.116 58.6214 124.126 58.7364 124.137C58.8514 124.147 58.982 124.157 59.1283 124.168C59.3478 123.604 59.583 123.06 59.8338 122.538C60.0846 122.004 60.3302 121.534 60.5706 121.127C60.8214 120.709 61.0566 120.379 61.2761 120.139C61.506 119.888 61.6993 119.763 61.8561 119.763C61.9397 119.763 62.0129 119.794 62.0756 119.857C62.1487 119.909 62.1853 119.993 62.1853 120.108C62.1853 120.285 62.0756 120.578 61.8561 120.985C61.6366 121.383 61.3649 121.858 61.0409 122.412C60.7169 122.966 60.4034 123.567 60.1003 124.215H60.6803C61.0252 124.215 61.3858 124.21 61.762 124.199C62.1487 124.189 62.5354 124.163 62.9221 124.121V124.403C61.783 124.528 60.8632 124.591 60.163 124.591H59.9278C59.6875 125.145 59.4837 125.715 59.3164 126.3C59.1492 126.885 59.0656 127.455 59.0656 128.009C59.0656 128.458 59.1335 128.782 59.2694 128.981C59.4053 129.169 59.63 129.263 59.9435 129.263C60.487 129.263 61.02 129.023 61.5426 128.542C62.0651 128.061 62.525 127.408 62.9221 126.582L63.1259 126.739C62.8751 127.324 62.5563 127.852 62.1696 128.322C61.7934 128.793 61.3753 129.164 60.9155 129.435C60.4556 129.707 59.9801 129.843 59.4889 129.843Z" fill="#3D5D82"/>
<path d="M65.6367 122.349C65.4695 122.349 65.3179 122.308 65.1821 122.224C65.0566 122.14 64.9939 122.01 64.9939 121.832C64.9939 121.613 65.1194 121.424 65.3702 121.268C65.6315 121.1 65.8875 121.017 66.1384 121.017C66.2951 121.017 66.4205 121.053 66.5146 121.127C66.6087 121.2 66.6557 121.325 66.6557 121.503C66.6557 121.701 66.546 121.895 66.3265 122.083C66.1175 122.261 65.8875 122.349 65.6367 122.349ZM63.7555 129.529C63.3479 129.529 63.0448 129.399 62.8462 129.137C62.6476 128.887 62.5483 128.578 62.5483 128.213C62.5483 127.972 62.5901 127.669 62.6738 127.303C62.7678 126.937 62.888 126.556 63.0343 126.159C63.1806 125.751 63.3479 125.37 63.536 125.014C63.7346 124.659 63.9436 124.372 64.1631 124.152C64.3825 123.922 64.5968 123.807 64.8058 123.807C64.8999 123.807 64.9783 123.839 65.041 123.901C65.1141 123.954 65.1507 124.037 65.1507 124.152C65.1507 124.278 65.0671 124.481 64.8999 124.764C64.7431 125.046 64.555 125.37 64.3355 125.736C64.116 126.101 63.9227 126.488 63.7555 126.896C63.5987 127.293 63.5203 127.674 63.5203 128.04C63.5203 128.416 63.583 128.667 63.7084 128.793C63.8338 128.918 64.0272 128.981 64.2885 128.981C64.6438 128.981 65.0201 128.803 65.4172 128.448C65.8248 128.092 66.2533 127.471 66.7027 126.582L66.8438 126.739C66.5407 127.638 66.1018 128.328 65.527 128.808C64.9626 129.289 64.3721 129.529 63.7555 129.529Z" fill="#3D5D82"/>
<path d="M68.0856 130C67.5839 130 67.1659 129.832 66.8314 129.498C66.497 129.164 66.3298 128.662 66.3298 127.993C66.3298 127.471 66.4291 126.964 66.6276 126.472C66.8367 125.971 67.1084 125.521 67.4428 125.124C67.7773 124.727 68.1483 124.414 68.5559 124.184C68.9635 123.943 69.3659 123.823 69.763 123.823C70.1915 123.823 70.4842 123.948 70.6409 124.199C70.7977 124.45 70.8761 124.711 70.8761 124.983C70.8761 125.286 70.8029 125.553 70.6566 125.783C70.5207 126.013 70.3326 126.128 70.0922 126.128C69.9146 126.128 69.763 126.049 69.6376 125.892C69.7944 125.809 69.9302 125.642 70.0452 125.391C70.1602 125.129 70.2177 124.884 70.2177 124.654C70.2177 124.528 70.1915 124.434 70.1393 124.372C70.0975 124.299 70.0086 124.262 69.8728 124.262C69.5906 124.262 69.2979 124.387 68.9949 124.638C68.7022 124.889 68.4253 125.213 68.164 125.61C67.9132 126.007 67.7041 126.425 67.5369 126.864C67.3801 127.303 67.3017 127.716 67.3017 128.103C67.3017 128.427 67.3801 128.725 67.5369 128.996C67.6937 129.268 67.9968 129.404 68.4462 129.404C68.8642 129.404 69.2823 129.289 69.7003 129.059C70.1288 128.829 70.526 128.5 70.8918 128.071C71.2576 127.643 71.5502 127.141 71.7697 126.566L71.9735 126.723C71.7331 127.35 71.4039 127.915 70.9858 128.416C70.5678 128.908 70.1079 129.294 69.6063 129.576C69.1046 129.859 68.5977 130 68.0856 130Z" fill="#3D5D82"/>
<path d="M73.1217 129.921C72.6305 129.921 72.2385 129.812 71.9459 129.592C71.6637 129.383 71.4651 129.122 71.3502 128.808C71.2248 128.495 71.1621 128.181 71.1621 127.868C71.1621 127.554 71.2039 127.314 71.2875 127.147C71.3711 126.979 71.4704 126.854 71.5853 126.77C71.7108 126.687 71.8257 126.624 71.9302 126.582C72.0452 126.54 72.1236 126.499 72.1654 126.457C72.4789 126.112 72.7663 125.751 73.0276 125.375C73.2889 124.999 73.5188 124.602 73.7174 124.184V123.995C73.7174 123.609 73.7801 123.337 73.9055 123.18C74.0414 123.013 74.1825 122.929 74.3288 122.929C74.496 122.929 74.5796 122.997 74.5796 123.133C74.5796 123.185 74.564 123.269 74.5326 123.384C74.5012 123.499 74.4856 123.645 74.4856 123.823C74.4856 124.168 74.5535 124.544 74.6894 124.952C74.8252 125.349 74.9611 125.772 75.097 126.222C75.2328 126.661 75.3008 127.12 75.3008 127.601C75.3008 127.873 75.2694 128.129 75.2067 128.369C75.5725 128.307 75.9174 128.145 76.2414 127.883C76.5654 127.612 76.8789 127.183 77.182 126.598L77.3231 126.755C77.1245 127.329 76.8266 127.768 76.4295 128.071C76.0324 128.364 75.5986 128.547 75.1283 128.62C74.9611 129.07 74.6946 129.399 74.3288 129.608C73.9735 129.817 73.5711 129.921 73.1217 129.921ZM74.2191 128.354C74.24 128.249 74.2556 128.139 74.2661 128.024C74.2765 127.909 74.2818 127.774 74.2818 127.617C74.2818 127.126 74.2191 126.64 74.0936 126.159C73.9787 125.668 73.8794 125.208 73.7958 124.779C73.5554 125.176 73.2993 125.558 73.0276 125.924C72.7663 126.279 72.5155 126.577 72.2751 126.817C72.4319 127.152 72.6723 127.465 72.9963 127.758C73.3307 128.051 73.7383 128.249 74.2191 128.354ZM73.153 129.373C73.2784 129.373 73.4457 129.331 73.6547 129.247C73.8637 129.164 74.0257 128.949 74.1407 128.604C73.7017 128.521 73.3098 128.348 72.9649 128.087C72.6305 127.826 72.3796 127.565 72.2124 127.303C71.9825 127.314 71.8675 127.497 71.8675 127.852C71.8675 128.228 71.9773 128.578 72.1967 128.902C72.4267 129.216 72.7454 129.373 73.153 129.373Z" fill="#3D5D82"/>
<path d="M4.13235 79.7259V80.1941H0.510986V75.0729H4.02261V75.5412H1.05236V77.3628H3.70071V77.8237H1.05236V79.7259H4.13235Z" fill="#3D5D82"/>
<path d="M6.81688 80.238C6.43646 80.238 6.07066 80.177 5.7195 80.0551C5.37321 79.9331 5.10496 79.7722 4.91475 79.5722L5.12691 79.1552C5.31225 79.3405 5.55855 79.4917 5.86582 79.6088C6.17308 79.721 6.49011 79.7771 6.81688 79.7771C7.27534 79.7771 7.61919 79.6941 7.84842 79.5283C8.07765 79.3576 8.19227 79.1381 8.19227 78.8699C8.19227 78.665 8.12886 78.5017 8.00206 78.3797C7.88012 78.2578 7.72893 78.1651 7.54847 78.1017C7.36801 78.0334 7.11683 77.9603 6.79493 77.8822C6.40963 77.7847 6.10236 77.692 5.87313 77.6042C5.6439 77.5116 5.44637 77.3726 5.28054 77.1872C5.1196 77.0019 5.03912 76.7507 5.03912 76.4337C5.03912 76.1752 5.1074 75.9411 5.24397 75.7314C5.38053 75.5168 5.59025 75.3461 5.87313 75.2193C6.15601 75.0925 6.50718 75.0291 6.92662 75.0291C7.21926 75.0291 7.50457 75.0705 7.78258 75.1534C8.06546 75.2315 8.30932 75.3412 8.51417 75.4826L8.33127 75.9143C8.11667 75.7728 7.88744 75.668 7.64358 75.5997C7.39971 75.5265 7.16073 75.49 6.92662 75.49C6.47791 75.49 6.13894 75.5777 5.90971 75.7533C5.68536 75.924 5.57318 76.1459 5.57318 76.4191C5.57318 76.6239 5.63415 76.7897 5.75608 76.9166C5.88289 77.0385 6.03896 77.1336 6.22429 77.2019C6.41451 77.2653 6.66812 77.336 6.98515 77.414C7.3607 77.5067 7.66309 77.5994 7.89232 77.692C8.12643 77.7798 8.32395 77.9164 8.4849 78.1017C8.64585 78.2822 8.72633 78.5285 8.72633 78.8406C8.72633 79.0991 8.65561 79.3357 8.51417 79.5503C8.3776 79.76 8.16544 79.9283 7.87769 80.0551C7.58993 80.177 7.23633 80.238 6.81688 80.238Z" fill="#3D5D82"/>
<path d="M10.8294 75.5412H9.02971V75.0729H13.1705V75.5412H11.3708V80.1941H10.8294V75.5412Z" fill="#3D5D82"/>
<path d="M96.6588 79.6465V80.1058H93.1348V79.7398L95.2234 77.6943C95.4865 77.436 95.6636 77.2135 95.7545 77.0269C95.8502 76.8355 95.898 76.6441 95.898 76.4527C95.898 76.1561 95.7952 75.9264 95.5894 75.7637C95.3885 75.5962 95.099 75.5125 94.721 75.5125C94.1325 75.5125 93.6755 75.6991 93.3502 76.0723L92.9841 75.7565C93.1803 75.5269 93.4291 75.3498 93.7305 75.2254C94.0368 75.101 94.3813 75.0388 94.7641 75.0388C95.276 75.0388 95.6803 75.1608 95.977 75.4049C96.2784 75.6441 96.4291 75.9742 96.4291 76.3953C96.4291 76.6537 96.3717 76.9025 96.2569 77.1417C96.1421 77.3809 95.9243 77.6561 95.6038 77.9671L93.8956 79.6465H96.6588Z" fill="#3D5D82"/>
<path d="M99.2817 80.1489C98.8941 80.1489 98.5472 80.046 98.241 79.8403C97.9396 79.6346 97.7027 79.3403 97.5305 78.9575C97.363 78.5699 97.2793 78.1154 97.2793 77.5939C97.2793 77.0723 97.363 76.6202 97.5305 76.2374C97.7027 75.8498 97.9396 75.5532 98.241 75.3474C98.5472 75.1417 98.8941 75.0388 99.2817 75.0388C99.6693 75.0388 100.014 75.1417 100.315 75.3474C100.621 75.5532 100.861 75.8498 101.033 76.2374C101.205 76.6202 101.291 77.0723 101.291 77.5939C101.291 78.1154 101.205 78.5699 101.033 78.9575C100.861 79.3403 100.621 79.6346 100.315 79.8403C100.014 80.046 99.6693 80.1489 99.2817 80.1489ZM99.2817 79.6752C99.5736 79.6752 99.8295 79.5939 100.05 79.4312C100.275 79.2685 100.449 79.0317 100.574 78.7207C100.698 78.4097 100.76 78.0341 100.76 77.5939C100.76 77.1537 100.698 76.7781 100.574 76.4671C100.449 76.1561 100.275 75.9192 100.05 75.7565C99.8295 75.5938 99.5736 75.5125 99.2817 75.5125C98.9898 75.5125 98.7315 75.5938 98.5066 75.7565C98.2865 75.9192 98.1142 76.1561 97.9898 76.4671C97.8654 76.7781 97.8032 77.1537 97.8032 77.5939C97.8032 78.0341 97.8654 78.4097 97.9898 78.7207C98.1142 79.0317 98.2865 79.2685 98.5066 79.4312C98.7315 79.5939 98.9898 79.6752 99.2817 79.6752Z" fill="#3D5D82"/>
<path d="M105.448 79.6465V80.1058H101.924V79.7398L104.013 77.6943C104.276 77.436 104.453 77.2135 104.544 77.0269C104.639 76.8355 104.687 76.6441 104.687 76.4527C104.687 76.1561 104.584 75.9264 104.379 75.7637C104.178 75.5962 103.888 75.5125 103.51 75.5125C102.922 75.5125 102.465 75.6991 102.139 76.0723L101.773 75.7565C101.969 75.5269 102.218 75.3498 102.52 75.2254C102.826 75.101 103.17 75.0388 103.553 75.0388C104.065 75.0388 104.469 75.1608 104.766 75.4049C105.068 75.6441 105.218 75.9742 105.218 76.3953C105.218 76.6537 105.161 76.9025 105.046 77.1417C104.931 77.3809 104.713 77.6561 104.393 77.9671L102.685 79.6465H105.448Z" fill="#3D5D82"/>
<path d="M107.489 75.0819V80.1058H106.972V75.5412H105.788V75.0819H107.489Z" fill="#3D5D82"/>
<path d="M26.2951 48.254C25.8786 56.3868 26.9125 64.6741 30.0606 72.185C33.2077 79.696 38.5598 86.3935 45.6075 90.4752C48.1651 91.9567 51.0067 93.105 53.9623 93.1309C56.0885 93.1494 58.1878 92.5831 60.1409 91.7448C70.0905 87.4799 75.7563 76.6303 77.5891 65.9631C79.4209 55.2967 78.213 44.3676 78.611 33.5523" stroke="#646A89" stroke-width="1.33333" stroke-miterlimit="10" stroke-linecap="round" stroke-linejoin="round"/>
<path d="M22.8218 43.2659C26.8575 38.8511 32.689 36.1269 38.6658 35.8641C44.6427 35.6013 50.6907 37.8027 55.0995 41.8455C58.056 44.5577 60.3127 49.1038 58.1319 52.472C57.8589 52.894 57.4108 53.3178 56.9221 53.1975C56.6602 53.1327 56.4611 52.9227 56.289 52.7145C54.2396 50.2337 53.837 46.6813 54.633 43.5638C55.4281 40.4473 57.2831 37.7019 59.3649 35.2479C66.2127 27.1743 76.5168 21.4595 87.0728 22.2932" stroke="#646A89" stroke-width="1.33333" stroke-miterlimit="10" stroke-linecap="round" stroke-linejoin="round"/>
<path d="M66.0504 29.636C65.5802 25.6228 65.134 21.4079 66.6567 17.6649C66.8798 17.1162 67.1574 16.5666 67.6175 16.1927C68.0775 15.8198 68.7616 15.6671 69.2716 15.9669C69.7307 16.2371 69.9408 16.7877 70.0334 17.3105C70.2953 18.7818 69.8899 20.2836 69.4336 21.7059C68.595 24.3227 67.5721 26.8813 66.0504 29.636Z" stroke="#646A89" stroke-width="1.33333" stroke-miterlimit="10" stroke-linecap="round" stroke-linejoin="round"/>
<path d="M64.7217 30.0349C67.6578 28.5238 71.1308 28.0815 74.3529 28.8097C75.0388 28.9652 75.8608 29.3612 75.8284 30.0645C75.8108 30.4467 75.5266 30.7641 75.2239 30.9982C73.6402 32.2279 71.3936 32.0623 69.4452 31.5885C67.8216 31.1934 66.2453 30.629 64.7217 30.0349Z" stroke="#646A89" stroke-width="1.33333" stroke-miterlimit="10" stroke-linecap="round" stroke-linejoin="round"/>
<path d="M76.4167 22.7219C76.5269 21.2331 76.6537 19.6868 77.3961 18.3904C78.1375 17.094 79.6852 16.1289 81.118 16.5509C81.368 16.624 81.6142 16.7424 81.7771 16.9451C82.201 17.4734 81.8808 18.2563 81.4994 18.8161C80.2887 20.5955 78.5383 22.002 76.4167 22.7219Z" stroke="#646A89" stroke-width="1.33333" stroke-miterlimit="10" stroke-linecap="round" stroke-linejoin="round"/>
<path d="M75.7473 24.2547C78.6149 24.1474 81.8482 24.177 83.8586 26.2239C84.4575 26.8336 84.8241 27.9894 84.0938 28.4317C83.8494 28.5798 83.5495 28.5918 83.2635 28.5983C81.7065 28.639 79.9293 28.5872 78.9121 27.4074C78.128 26.4968 77.7439 24.9265 75.7473 24.2547Z" stroke="#646A89" stroke-width="1.33333" stroke-miterlimit="10" stroke-linecap="round" stroke-linejoin="round"/>
<path d="M45.5563 36.3469C43.9855 34.0817 42.6201 31.6731 41.4835 29.1608C40.9475 27.9754 40.4579 26.6124 40.9475 25.4067C41.0207 25.2281 41.1215 25.0495 41.2891 24.9542C41.5788 24.7886 41.9444 24.9311 42.2295 25.1041C43.954 26.146 44.8574 28.179 45.1369 30.174C45.4156 32.169 45.1749 34.1946 45.5563 36.3469Z" stroke="#646A89" stroke-width="1.33333" stroke-miterlimit="10" stroke-linecap="round" stroke-linejoin="round"/>
<path d="M45.8676 36.3392C42.8566 37.7077 39.5752 39.3511 38.3635 42.4279C38.0451 43.2348 37.8952 44.1416 38.1525 44.9688C38.4089 45.797 39.1457 46.5095 40.0112 46.5502C41.3691 46.6132 42.2586 45.1909 42.8251 43.9556C43.9766 41.4479 45.0531 38.907 45.8676 36.3392Z" stroke="#646A89" stroke-width="1.33333" stroke-miterlimit="10" stroke-linecap="round" stroke-linejoin="round"/>
<path d="M35.5493 37.0515C33.7174 36.1345 31.8856 35.2184 30.0538 34.3014C29.4345 33.9914 28.8005 33.6713 28.3219 33.1697C27.8434 32.6682 27.5425 31.94 27.7295 31.2728C28.0331 30.192 29.478 29.8024 30.5212 30.217C31.5644 30.6325 32.2836 31.58 32.9482 32.4841C34.1932 34.1793 35.4382 35.8736 35.5493 37.0515Z" stroke="#646A89" stroke-width="1.33333" stroke-miterlimit="10" stroke-linecap="round" stroke-linejoin="round"/>
<path d="M35.2201 36.5903C33.3892 37.4231 31.6453 38.6038 30.5855 40.312C29.5256 42.0211 29.2803 44.3307 30.3606 46.0268C30.5022 46.2489 30.6864 46.4729 30.9428 46.5302C31.1575 46.5783 31.3797 46.5006 31.5778 46.4081C33.2013 45.6447 34.0797 43.8662 34.5981 42.1488C35.1794 40.2231 35.4654 38.2087 35.2201 36.5903Z" stroke="#646A89" stroke-width="1.33333" stroke-miterlimit="10" stroke-linecap="round" stroke-linejoin="round"/>
<path d="M35.2107 58.226C38.2014 56.3902 42.0206 56.5752 45.4315 57.4052C46.8302 57.7458 48.2362 58.2001 49.3821 59.0727C50.5271 59.9453 51.3815 61.3065 51.3075 62.7194C52.0554 67.1111 50.4698 71.7054 51.5333 76.0313C51.6518 76.5125 51.8147 77.0066 52.1692 77.3518C52.7857 77.9514 53.7715 77.9218 54.612 77.7413C55.4524 77.56 56.317 77.2676 57.1519 77.4748" stroke="#646A89" stroke-width="1.33333" stroke-miterlimit="10" stroke-linecap="round" stroke-linejoin="round"/>
<path d="M58.5676 57.2686C59.6682 55.7899 61.363 54.7664 63.1847 54.4787C65.0063 54.1918 66.9335 54.6443 68.4358 55.7121" stroke="#646A89" stroke-width="1.33333" stroke-miterlimit="10" stroke-linecap="round" stroke-linejoin="round"/>
<path d="M94.1662 83.8021C93.9321 88.0707 93.698 92.3393 93.4648 96.6069" stroke="#646A89" stroke-width="1.33333" stroke-miterlimit="10" stroke-linecap="round" stroke-linejoin="round"/>
<path d="M87.6738 92.3479C91.6513 92.3423 95.6287 92.3368 99.6052 92.3303" stroke="#646A89" stroke-width="1.33333" stroke-miterlimit="10" stroke-linecap="round" stroke-linejoin="round"/>
<path d="M96.4476 89.7667C94.2251 91.8126 92.0017 93.8594 89.7793 95.9062" stroke="#646A89" stroke-width="1.33333" stroke-miterlimit="10" stroke-linecap="round" stroke-linejoin="round"/>
<path d="M90.3062 88.363C92.4703 90.4681 94.6344 92.5733 96.7985 94.6775" stroke="#646A89" stroke-width="1.33333" stroke-miterlimit="10" stroke-linecap="round" stroke-linejoin="round"/>
<path d="M9.3029 48.9696C8.93554 54.1838 8.56726 59.399 8.19897 64.6133" stroke="#646A89" stroke-width="1.33333" stroke-miterlimit="10" stroke-linecap="round" stroke-linejoin="round"/>
<path d="M2.50879 57.2754C6.23354 57.2041 9.95829 57.1338 13.683 57.0626" stroke="#646A89" stroke-width="1.33333" stroke-miterlimit="10" stroke-linecap="round" stroke-linejoin="round"/>
<path d="M12.1911 52.9178L5.53394 61.343" stroke="#646A89" stroke-width="1.33333" stroke-miterlimit="10" stroke-linecap="round" stroke-linejoin="round"/>
<path d="M5.60718 53.6077C7.77871 56.0589 10.1955 58.2917 12.8105 60.2627" stroke="#646A89" stroke-width="1.33333" stroke-miterlimit="10" stroke-linecap="round" stroke-linejoin="round"/>
<path d="M22.8217 84.4688C22.0101 84.4688 21.4455 84.7766 21.0744 85.2085C20.6915 85.6542 20.4835 86.2711 20.4831 86.9126C20.4827 87.5541 20.6899 88.1706 21.0725 88.616C21.443 89.0475 22.0079 89.3556 22.8217 89.3556C23.6336 89.3556 24.1983 89.0477 24.5694 88.6159C24.9524 88.1701 25.1604 87.5533 25.1607 86.9118C25.161 86.2703 24.9537 85.6538 24.5711 85.2084C24.2005 84.7769 23.6356 84.4688 22.8217 84.4688Z" fill="#646A89" stroke="#646A89" stroke-width="1.33333"/>
<path d="M21.3459 71.6514C21.2371 71.6514 21.2 71.6862 21.1809 71.7085C21.1499 71.7446 21.1181 71.8152 21.1181 71.9104C21.118 72.0057 21.1497 72.076 21.1805 72.1119C21.1993 72.1338 21.2363 72.1688 21.3459 72.1688C21.4547 72.1688 21.4917 72.134 21.5108 72.1118C21.5419 72.0756 21.5736 72.0051 21.5736 71.9098C21.5737 71.8145 21.542 71.7442 21.5113 71.7084C21.4924 71.6865 21.4554 71.6514 21.3459 71.6514Z" fill="#646A89" stroke="#646A89" stroke-width="1.33333"/>
<path d="M54.786 20.3128C54.6772 20.3128 54.6402 20.3476 54.6211 20.3698C54.59 20.406 54.5583 20.4765 54.5583 20.5718C54.5582 20.6671 54.5899 20.7374 54.6206 20.7732C54.6395 20.7951 54.6765 20.8302 54.786 20.8302C54.8948 20.8302 54.9319 20.7954 54.951 20.7731C54.982 20.737 55.0138 20.6664 55.0138 20.5712C55.0139 20.4759 54.9822 20.4056 54.9514 20.3697C54.9326 20.3478 54.8956 20.3128 54.786 20.3128Z" fill="#646A89" stroke="#646A89" stroke-width="1.33333"/>
<path d="M15.1677 32.1964L15.1417 32.1465L15.1244 32.093C15.1233 32.0896 15.1227 32.0888 15.1226 32.0887L15.1226 32.0886C15.1224 32.0883 15.1203 32.085 15.1137 32.0789L15.0955 32.062L15.0786 32.0439C15.0741 32.039 15.0711 32.0369 15.0695 32.0358C15.0678 32.0348 15.0649 32.0331 15.0592 32.0312L15.009 32.0145L14.962 31.99C14.9575 31.9877 14.9548 31.9868 14.9529 31.9864L14.8139 32.0052C14.7916 32.0143 14.7713 32.0261 14.7517 32.0418C14.726 32.0752 14.7004 32.1082 14.6753 32.1407C14.6605 32.1739 14.6536 32.2073 14.6533 32.2468V32.5295V32.5416L14.6528 32.5536C14.6525 32.5628 14.6534 32.567 14.6536 32.5683C14.6539 32.5695 14.6546 32.5722 14.6574 32.5775L14.6822 32.6252L14.6991 32.6763C14.7011 32.6821 14.7027 32.6849 14.7035 32.6862C14.7044 32.6875 14.7063 32.6904 14.7112 32.6948L14.7294 32.7117L14.7463 32.7299C14.7516 32.7356 14.7544 32.7375 14.7551 32.7379C14.7558 32.7383 14.7584 32.74 14.7652 32.7422L14.8162 32.7591L14.8639 32.7839C14.8681 32.7861 14.8708 32.787 14.8727 32.7875L14.9461 32.7775L15.0112 32.7687C15.0339 32.7595 15.0545 32.7474 15.0745 32.7312L15.1502 32.6339C15.1645 32.6012 15.1714 32.5675 15.1718 32.5272V32.2445V32.2323L15.1722 32.2201C15.1725 32.2119 15.1717 32.2075 15.1713 32.2057C15.1709 32.204 15.1702 32.2012 15.1677 32.1964Z" fill="#646A89" stroke="#646A89" stroke-width="1.33333"/>
<path d="M96.6562 37.3555H96.6441L96.6321 37.3551C96.6211 37.3547 96.6164 37.3557 96.6159 37.3559L96.6147 37.3562C96.6143 37.3563 96.6133 37.3567 96.6115 37.3577L96.5598 37.385L96.5043 37.4029C96.5003 37.4042 96.4989 37.4051 96.4988 37.4052L96.4988 37.4052L96.4988 37.4052C96.4986 37.4053 96.4965 37.4067 96.4924 37.4111L96.4732 37.432L96.4523 37.4511C96.4495 37.4538 96.4478 37.4556 96.4469 37.4566L96.4458 37.4582L96.4455 37.4585L96.4443 37.4618L96.4267 37.5163L96.4001 37.5671C96.3983 37.5704 96.3977 37.5722 96.3975 37.5731L96.4163 37.7125C96.4254 37.7348 96.4374 37.7552 96.4533 37.7749L96.5519 37.851C96.5841 37.8654 96.6176 37.8725 96.6585 37.8729H96.9414H96.9535L96.9657 37.8733C96.9741 37.8736 96.9785 37.8728 96.9804 37.8724C96.9822 37.872 96.9851 37.8712 96.99 37.8686L97.0376 37.8438L97.0887 37.8269C97.095 37.8249 97.0997 37.823 97.1099 37.8121L97.1245 37.7966L97.14 37.7821C97.151 37.7718 97.1527 37.7672 97.1547 37.761L97.1716 37.71L97.1965 37.6623C97.1986 37.6583 97.1995 37.6557 97.1999 37.654L97.1812 37.5159C97.1721 37.4934 97.16 37.4729 97.144 37.4531C97.137 37.4477 97.1299 37.4422 97.1227 37.4366C97.0978 37.4174 97.0716 37.3972 97.0457 37.3771C97.0107 37.3617 96.9776 37.3555 96.9414 37.3555H96.6562Z" fill="#646A89" stroke="#646A89" stroke-width="1.33333"/>
<path d="M93.1134 57.2288C92.1116 57.2288 91.4043 57.6105 90.9381 58.1533C90.4599 58.7099 90.2042 59.4745 90.2038 60.2639C90.2033 61.0532 90.4581 61.8176 90.9358 62.3739C91.4015 62.9162 92.1092 63.2982 93.1134 63.2982C94.1155 63.2982 94.8229 62.9165 95.2892 62.3737C95.7674 61.8171 96.023 61.0525 96.0234 60.2632C96.0238 59.4738 95.7689 58.7095 95.2912 58.1532C94.8254 57.6108 94.1177 57.2288 93.1134 57.2288Z" fill="#646A89" stroke="#646A89" stroke-width="1.33333"/>
<path d="M78.6398 92.8724C78.531 92.8724 78.4939 92.9072 78.4748 92.9294C78.4438 92.9655 78.4121 93.0361 78.412 93.1314C78.412 93.2267 78.4436 93.297 78.4744 93.3328C78.4932 93.3547 78.5302 93.3897 78.6398 93.3897C78.7486 93.3897 78.7857 93.3549 78.8048 93.3327C78.8358 93.2966 78.8675 93.226 78.8676 93.1307C78.8676 93.0355 78.836 92.9651 78.8052 92.9293C78.7864 92.9074 78.7494 92.8724 78.6398 92.8724Z" fill="#646A89" stroke="#646A89" stroke-width="1.33333"/>
</svg>
