<svg width="146" height="130" viewBox="0 0 146 130" fill="none" xmlns="http://www.w3.org/2000/svg">
<path d="M41.4507 74.3191C43.2391 70.6922 44.8133 66.9553 45.9983 63.0606C46.0305 62.9549 46.037 62.8486 46.0246 62.7451C46.1876 62.7671 46.3514 62.7821 46.5151 62.7821C46.578 62.7821 46.6416 62.7806 46.7041 62.7773C47.8722 62.7152 48.9654 62.0755 49.5557 61.1066C50.2849 59.911 50.2396 58.6168 49.4314 57.5554C48.4574 56.2765 46.5886 55.6369 45.0831 56.0663C43.8009 56.4337 42.984 57.5064 42.8429 59.0115C42.8053 59.4092 42.7855 59.9337 42.9646 60.4575C43.0995 60.8515 43.3437 61.2294 43.6898 61.5799C43.9859 61.8796 44.3283 62.1278 44.6967 62.3212C44.6214 62.403 44.5589 62.4984 44.5246 62.6121C43.4497 66.1454 42.0436 69.5595 40.4405 72.8845C39.3524 71.9448 37.9035 71.6656 36.5267 72.1615C34.9404 72.7328 33.894 74.2069 33.8604 75.9152C33.8264 77.6587 34.8315 79.3729 36.4445 80.4167C35.0815 82.8053 33.6678 85.158 32.2544 87.4848C31.7602 84.9793 31.1813 82.4895 30.5 80.0242C28.1776 70.3161 28.6889 58.1406 31.8472 48.1909C32.4247 46.3714 33.0852 44.5582 33.8224 42.7467C33.8673 42.8622 33.9053 42.9774 33.9594 43.0936C34.5658 44.3908 35.424 45.2219 36.4404 45.4982C36.6886 45.5655 36.9459 45.5988 37.2073 45.5988C37.9982 45.5988 38.8224 45.2958 39.5205 44.73C40.7004 43.7734 41.3155 42.2329 41.0882 40.8048C40.9767 40.106 40.6824 39.5117 40.2376 39.0881C39.8933 38.7599 39.4445 38.5175 38.8648 38.3483C37.8396 38.0486 36.7869 38.0724 35.8333 38.2164C36.7036 36.4126 37.6576 34.607 38.6938 32.796C38.7625 32.7996 38.8337 32.8088 38.901 32.8088C39.2588 32.8088 39.5969 32.762 39.9127 32.6702C40.8107 32.4086 41.6024 31.7316 42.0297 30.8596C42.4306 30.0416 42.5216 29.0825 42.2866 28.1581C42.2271 27.9249 42.1328 27.6815 41.9946 27.4418C42.8667 26.119 43.7848 24.7912 44.7486 23.4563C45.0074 23.524 45.2633 23.5594 45.4862 23.5795C45.7392 23.6022 45.9815 23.6135 46.2128 23.6135C47.4259 23.6135 48.3499 23.3025 49.0239 22.6709C49.7673 21.9746 50.0769 20.9866 49.8726 19.9592C49.6347 18.7593 48.7494 17.7085 47.6171 17.2816C46.7838 16.9661 45.965 17.0129 45.2498 17.4132C43.8159 18.2165 43.363 20.0608 43.2589 20.6062V20.6069C43.1675 21.0831 43.0151 21.881 43.4434 22.5689L43.4672 22.6C42.5615 23.8551 41.6963 25.1044 40.8707 26.3497C40.1682 25.9458 39.1525 25.6632 37.6839 25.6406H37.6824C37.1916 25.6358 36.462 25.6651 35.788 26.0181C34.4287 26.7312 33.8388 28.622 34.4996 30.1454C34.951 31.1867 35.9028 32.0175 37.1082 32.4648C35.9379 34.535 34.879 36.599 33.9207 38.663L33.9031 38.6681C33.8578 38.6816 33.8125 38.6963 33.7672 38.7105C33.2756 37.9693 32.7153 37.2693 32.118 36.6549L32.1177 36.6542C31.1038 35.6114 30.1209 35.0573 29.1133 34.963C27.565 34.811 26.0332 35.8709 25.6278 37.3644C25.2196 38.8651 26.0474 40.5775 27.4736 41.1809C28.1216 41.4547 28.8621 41.5274 29.8051 41.4097C30.9462 41.2679 32.0245 40.9138 33.0672 40.5632C32.0358 42.9452 31.1392 45.329 30.3786 47.7245C28.0624 55.0214 27.1421 63.4867 27.6732 71.364C27.1187 69.8867 26.5423 68.4163 25.9188 66.9619C25.478 65.936 25.0174 64.914 24.5459 63.8965C25.8669 63.2795 26.9235 61.9056 27.3647 60.7861C27.9561 59.2864 27.7825 57.596 26.9118 56.3752C26.4484 55.7231 25.8512 55.3967 25.2283 55.4684C24.6033 55.5353 24.1004 55.9669 23.7342 56.7527C23.2203 57.8551 22.9769 59.0236 22.7568 60.164C22.0112 58.6468 21.2572 57.1413 20.5112 55.6603C20.0185 54.6818 19.5225 53.6953 19.0291 52.7041C19.9819 52.7991 21.0309 52.5177 22.1987 51.6116C23.2378 50.8035 23.6311 49.3049 23.2499 47.6024C22.9626 46.3173 22.3431 45.4365 21.4582 45.0534C19.899 44.3802 18.2067 45.5125 17.4717 46.9953C17.2414 47.4603 17.0821 47.9391 16.9413 48.4113C15.5908 45.5476 14.32 42.6353 13.2607 39.6718C11.9479 36 10.7384 31.5153 10.3371 26.7543C11.0699 27.1472 11.8883 27.3489 12.6887 27.3489C13.2121 27.3489 13.7286 27.2623 14.2081 27.088C15.5678 26.5934 16.6233 25.2542 16.8342 23.7542C17.0196 22.4406 16.5301 21.2549 15.4918 20.5002C14.3722 19.6855 12.5871 19.6741 11.3152 20.0239C10.9533 20.1233 10.6262 20.256 10.3313 20.4117C10.5783 17.6595 11.1829 14.8941 12.2615 12.2095C12.5012 12.2947 12.7516 12.3513 13.0177 12.3513C13.6368 12.3513 14.3116 12.1218 14.9706 11.6744C15.2703 11.4712 15.7008 11.1455 15.9815 10.6594C16.5195 9.72812 16.4592 8.776 15.8156 8.04792C14.9621 7.08337 13.1558 6.72663 11.8704 7.2705C10.8671 7.69558 10.34 8.56839 10.4252 9.6638C10.4577 10.0838 10.6025 10.4982 10.8799 10.9701C10.9241 11.0447 10.9709 11.1075 11.0166 11.1759C7.97487 18.3748 8.268 26.1153 9.68286 32.7587C8.35499 32.0387 6.50446 32.7916 5.60789 33.5873C4.92038 34.1977 4.43024 35.0683 4.22848 36.038C4.08301 36.7368 4.12724 37.3508 4.36043 37.8629C4.50371 38.1776 4.72885 38.4748 5.02966 38.7449C5.76249 39.4032 6.76214 39.7442 7.83196 39.7442C8.5202 39.7442 9.23804 39.6027 9.93249 39.3143C10.2183 39.1963 10.586 39.0201 10.8916 38.7113C11.0016 38.5991 11.0973 38.474 11.1814 38.3384C11.3865 38.9744 11.5963 39.5947 11.8097 40.1908C12.7775 42.8981 13.9135 45.5534 15.123 48.1635C14.305 47.3692 13.4461 46.6408 12.4698 46.3093C10.9592 45.7958 9.36195 45.9833 8.19746 46.8071C6.83889 47.7673 6.25701 49.5765 6.84328 51.0166C7.23838 51.9866 8.11705 52.7786 9.45514 53.37C10.5677 53.8613 11.6642 54.1109 12.6906 54.1109C13.1745 54.1109 13.6427 54.0553 14.0893 53.9439C15.2257 53.661 16.2582 52.9874 16.9998 52.0798C17.7078 53.5177 18.4242 54.9432 19.1354 56.354C20.1376 58.3434 21.1552 60.3723 22.1413 62.4209C21.9231 62.3369 21.7042 62.2462 21.4765 62.1479C21.0192 61.9513 20.547 61.7477 20.0382 61.6099C18.8156 61.2784 17.5627 61.1128 16.3123 61.1351C15.8057 61.142 15.2122 61.1812 14.654 61.4202C13.3653 61.9725 12.79 63.2989 12.5352 64.3139C12.2794 65.3322 12.1387 66.8018 12.9227 68.0222C13.5963 69.072 14.9 69.7288 16.2831 69.7288C16.3463 69.7288 16.4095 69.7273 16.4728 69.724C17.6139 69.6743 18.7794 69.2222 19.9366 68.3804C21.3007 67.3881 22.4078 66.0332 23.1293 64.505C23.6019 65.5237 24.0631 66.5452 24.5028 67.5701C26.2963 71.75 27.7971 76.0344 29.0036 80.3912C29.0179 80.4511 29.0292 80.514 29.0438 80.5739L29.0617 80.6141C32.595 93.4893 33.5526 106.992 31.8114 120.314L33.3399 120.511C34.6824 110.237 34.4444 99.8577 32.6813 89.7304L32.727 89.6738C34.447 86.8466 36.1846 83.9855 37.8469 81.0677C38.0826 81.1269 38.3125 81.1624 38.5351 81.1624C38.6404 81.1624 38.7442 81.1554 38.8473 81.1426C39.984 80.999 40.8926 80.1839 41.4065 78.8473C41.9628 77.3995 41.9467 75.6016 41.4507 74.3191Z" fill="#646A89"/>
<path d="M47.9768 71.9402C47.5722 72.718 47.4092 73.5857 47.5181 74.3836C47.6431 75.3025 48.1233 76.1216 48.8346 76.6311C49.2502 76.9282 49.7633 77.1337 50.3598 77.2418C50.6281 77.2901 50.8953 77.3135 51.1581 77.3135C52.3288 77.3135 53.4089 76.8467 54.043 76.0306C54.8076 75.0474 54.8391 73.8043 54.8091 72.7173C54.7656 71.1321 53.9242 69.9987 52.5594 69.6855C50.8514 69.2955 48.839 70.2831 47.9768 71.9402Z" fill="#646A89"/>
<path d="M5.33768 15.8167C5.35669 15.597 5.33658 15.3631 5.2781 15.1197C4.99703 13.9523 3.92831 13.0816 2.73641 13.0491C1.70204 13.0564 0.86687 13.6544 0.552539 14.7034C0.278413 15.6197 0.626372 16.6749 1.39941 17.2703C1.8413 17.6113 2.39174 17.7871 2.9484 17.7871C3.31609 17.7871 3.68634 17.7103 4.02992 17.5539C4.77444 17.2147 5.27554 16.5495 5.33768 15.8167Z" fill="#646A89"/>
<path d="M19.0411 4.50785C19.4778 4.68951 19.9025 4.77979 20.3094 4.77979C20.4819 4.77979 20.6511 4.76408 20.8167 4.73119C21.5564 4.58316 22.1676 4.08937 22.4121 3.43987C22.6782 2.73336 22.4687 2.02027 22.3306 1.54913C22.0312 0.529753 21.245 -0.0620017 20.2768 0.00525045C19.0634 0.0896811 17.9288 1.15586 17.7472 2.38138C17.6821 2.82291 17.7359 3.21801 17.908 3.5572C18.1178 3.96948 18.4888 4.28088 19.0411 4.50785Z" fill="#646A89"/>
<path d="M44.9054 13.6848C45.3542 14.0448 45.9448 14.2513 46.6115 14.2813C46.6689 14.2838 46.7259 14.2849 46.7829 14.2849C47.81 14.2849 48.7855 13.8606 49.4207 13.1292C50.1711 12.2648 50.3718 11.0151 49.92 10.0213C49.2044 8.44531 47.0695 8.48331 45.852 9.00342C44.9653 9.38245 44.2979 10.1321 44.0669 11.0078C43.8063 11.9965 44.1429 13.0715 44.9054 13.6848Z" fill="#646A89"/>
<path d="M85.7772 10.4728C77.1982 10.4728 68.917 12.2524 61.1637 15.7612L61.9261 17.4451C69.4383 14.0459 77.4632 12.3218 85.7772 12.3218C117.711 12.3218 143.691 38.3017 143.691 70.2358C143.691 102.17 117.711 128.151 85.7772 128.151C69.4273 128.151 53.7601 121.188 42.7914 109.046L41.4197 110.285C52.7378 122.814 68.9057 130 85.7772 130C118.731 130 145.54 103.191 145.54 70.2358C145.54 37.2823 118.731 10.4728 85.7772 10.4728Z" fill="#3D5D82"/>
<path d="M58.4065 47.6963V44.6791H60.734C61.3886 44.6791 61.8926 44.8114 62.2493 45.0757C62.6061 45.3403 62.7833 45.7161 62.7833 46.2036C62.7833 46.6912 62.6086 47.0611 62.2585 47.3155C61.908 47.5699 61.405 47.6963 60.7522 47.6963H58.4065ZM58.4065 40.2639H60.594C61.2486 40.2639 61.7333 40.3874 62.0476 40.6367C62.3637 40.8849 62.5202 41.2379 62.5202 41.6941C62.5202 42.1506 62.3605 42.5004 62.0388 42.7434C61.7179 42.9872 61.2486 43.1089 60.6305 43.1089H58.4065V40.2639ZM64.2625 48.6839C64.9577 48.1499 65.3057 47.4215 65.3057 46.499C65.3057 45.8356 65.0798 45.2577 64.6313 44.765C64.181 44.2727 63.5827 43.9591 62.836 43.8246C63.4891 43.6901 64.0173 43.4046 64.4208 42.969C64.8239 42.5336 65.0242 41.9737 65.0242 41.2898C65.0242 40.4086 64.6887 39.724 64.0173 39.2365C63.3462 38.7496 62.386 38.5058 61.1375 38.5058H55.9368V49.4844H61.2424C62.5607 49.4844 63.5688 49.2176 64.2625 48.6839Z" fill="#3D5D82"/>
<path d="M83.034 45.8692C82.7256 46.413 82.2968 46.8304 81.7475 47.1199C81.1985 47.4105 80.5636 47.556 79.8396 47.556C79.1155 47.556 78.4795 47.4105 77.9302 47.1199C77.3808 46.8304 76.9521 46.413 76.6436 45.8692C76.3337 45.3242 76.1802 44.6893 76.1802 43.9642C76.1802 43.2379 76.3337 42.6031 76.6436 42.0592C76.9521 41.5142 77.3808 41.0976 77.9302 40.807C78.4795 40.5168 79.1155 40.3713 79.8396 40.3713C80.5636 40.3713 81.1985 40.5168 81.7475 40.807C82.2968 41.0976 82.7256 41.5142 83.034 42.0592C83.3443 42.6031 83.499 43.2379 83.499 43.9642C83.499 44.6893 83.3443 45.3242 83.034 45.8692ZM82.9829 39.0654C82.0424 38.5884 80.9953 38.3497 79.8396 38.3497C78.6838 38.3497 77.6352 38.5884 76.6962 39.0654C75.7558 39.5423 75.0157 40.2083 74.4722 41.0636C73.929 41.9192 73.6582 42.8856 73.6582 43.9642C73.6582 45.042 73.929 46.011 74.4722 46.8721C75.0157 47.7325 75.7558 48.4006 76.6962 48.8776C77.6352 49.355 78.6838 49.5933 79.8396 49.5933C80.9953 49.5933 82.0424 49.355 82.9829 48.8776C83.9222 48.4006 84.6638 47.7325 85.2069 46.8721C85.7486 46.011 86.0209 45.042 86.0209 43.9642C86.0209 42.8856 85.7486 41.9192 85.2069 41.0636C84.6638 40.2083 83.9222 39.5423 82.9829 39.0654Z" fill="#3D5D82"/>
<path d="M103.286 38.5058H94.0054V40.2478H97.4031V49.4844H99.8702V40.2478H103.286V38.5058Z" fill="#3D5D82"/>
<path d="M114.877 45.6126L116.698 40.9784L118.52 45.6126H114.877ZM115.297 38.6301L110.745 49.4844H113.354L114.229 47.276H119.185L120.043 49.4844H122.652L118.117 38.6301H115.297Z" fill="#3D5D82"/>
<path d="M82.431 71.7407H84.8999V60.7622H82.431V68.2886L76.8977 60.7622H74.4287V71.7407H76.8977V64.2765L82.431 71.7407Z" fill="#3D5D82"/>
<path d="M99.416 60.7622H96.947V71.7407H99.416V60.7622Z" fill="#3D5D82"/>
<path d="M58.3974 93.382C59.3017 93.8538 60.343 94.0889 61.5228 94.0889C63.0634 94.0889 64.3427 93.7369 65.358 93.0322C66.3738 92.3272 67.0448 91.3677 67.3712 90.1554H64.7805C64.5108 90.7456 64.0941 91.212 63.5283 91.5545C62.9611 91.8966 62.2809 92.0676 61.4881 92.0676C60.8335 92.0676 60.245 91.9222 59.7183 91.632C59.1931 91.3425 58.7852 90.9276 58.4936 90.3882C58.2019 89.8498 58.0557 89.2222 58.0557 88.5066C58.0557 87.7811 58.2019 87.1487 58.4936 86.6089C58.7852 86.0705 59.1931 85.656 59.7183 85.3655C60.245 85.0753 60.8335 84.9301 61.4881 84.9301C62.2809 84.9301 62.9611 85.1012 63.5283 85.4429C64.0941 85.785 64.5108 86.2518 64.7805 86.8424H67.3712C67.0448 85.6297 66.3738 84.671 65.358 83.9663C64.3427 83.2609 63.0634 82.9082 61.5228 82.9082C60.3324 82.9082 59.2863 83.1447 58.3883 83.6162C57.4884 84.088 56.7918 84.7489 56.2951 85.599C55.8002 86.4488 55.552 87.4177 55.552 88.5066C55.552 89.5848 55.8002 90.5494 56.2951 91.3988C56.7918 92.2489 57.4914 92.9101 58.3974 93.382Z" fill="#3D5D82"/>
<path d="M79.4528 90.1247L81.2737 85.4902L83.0957 90.1247H79.4528ZM79.8728 83.1418L75.3208 93.9961H77.9301L78.8044 91.7881H83.7606L84.6184 93.9961H87.2277L82.6926 83.1418H79.8728Z" fill="#3D5D82"/>
<path d="M102.883 92.317H98.733V83.0175H96.2637V93.9961H102.883V92.317Z" fill="#3D5D82"/>
<path d="M119.378 92.542C119.692 92.0708 119.85 91.5548 119.85 90.9948C119.85 90.2901 119.674 89.7196 119.325 89.2843C118.974 88.8493 118.552 88.5229 118.055 88.3044C117.559 88.0869 116.914 87.8541 116.12 87.6048C115.548 87.4392 115.095 87.289 114.763 87.1541C114.43 87.0193 114.156 86.8456 113.94 86.6329C113.724 86.4206 113.616 86.1534 113.616 85.8321C113.616 85.4282 113.756 85.1198 114.036 84.9067C114.315 84.6947 114.684 84.5887 115.139 84.5887C115.665 84.5887 116.079 84.7151 116.383 84.9692C116.686 85.2236 116.874 85.547 116.943 85.9414H119.605C119.499 85.0083 119.059 84.2616 118.282 83.7012C117.505 83.1417 116.465 82.8617 115.157 82.8617C113.896 82.8617 112.883 83.1343 112.119 83.6782C111.354 84.2228 110.972 84.967 110.972 85.9096C110.972 86.5942 111.144 87.149 111.488 87.5741C111.833 87.9992 112.25 88.3234 112.74 88.546C113.231 88.7689 113.861 88.9944 114.632 89.2225C115.228 89.3983 115.694 89.554 116.033 89.6889C116.371 89.8234 116.651 90.0028 116.874 90.2254C117.095 90.448 117.207 90.7309 117.207 91.0723C117.207 91.4561 117.068 91.77 116.794 92.0138C116.52 92.2576 116.126 92.3786 115.613 92.3786C115.039 92.3786 114.582 92.2309 114.238 91.9356C113.893 91.6403 113.691 91.2693 113.634 90.8241H111.007C111.065 91.4879 111.302 92.0679 111.716 92.565C112.131 93.0632 112.682 93.444 113.371 93.7087C114.06 93.9729 114.842 94.1052 115.717 94.1052C116.605 94.1052 117.357 93.9623 117.977 93.6769C118.595 93.3921 119.062 93.0142 119.378 92.542Z" fill="#3D5D82"/>
<path d="M58.158 104.73H57.2567V103.077H58.158C58.5688 103.077 58.8652 103.147 59.0476 103.289C59.2278 103.432 59.3181 103.637 59.3181 103.911C59.3181 104.455 58.9314 104.73 58.158 104.73ZM58.1763 102.87H56.9785V106.521H57.2567V104.934H58.1763C58.6412 104.934 58.9946 104.85 59.2384 104.675C59.4807 104.499 59.6024 104.243 59.6024 103.911C59.6024 103.582 59.4851 103.326 59.2505 103.144C59.0158 102.961 58.6576 102.87 58.1763 102.87Z" fill="#3D5D82"/>
<path d="M62.8933 102.87V105.113C62.8933 105.599 63.0304 105.961 63.3041 106.199C63.5764 106.436 63.9467 106.557 64.4116 106.557C64.8721 106.557 65.2376 106.436 65.507 106.199C65.7764 105.961 65.9116 105.599 65.9116 105.113V102.87H65.6273V105.113C65.6273 105.537 65.5191 105.848 65.3038 106.045C65.087 106.239 64.791 106.338 64.4116 106.338C64.0289 106.338 63.7267 106.239 63.5041 106.045C63.2815 105.848 63.17 105.537 63.17 105.113V102.87H62.8933Z" fill="#3D5D82"/>
<path d="M70.6639 104.777H69.7443V103.082H70.6639C71.0715 103.082 71.3664 103.154 71.5499 103.304C71.7338 103.45 71.8237 103.659 71.8237 103.933C71.8237 104.496 71.437 104.777 70.6639 104.777ZM72.1022 103.925C72.1022 103.6 71.9863 103.344 71.7531 103.154C71.5214 102.964 71.1632 102.87 70.6818 102.87H69.4658V106.521H69.7443V104.967H70.5583L71.8178 106.521H72.1398L70.8606 104.96C71.2641 104.938 71.5726 104.836 71.7846 104.66C71.9969 104.481 72.1022 104.236 72.1022 103.925Z" fill="#3D5D82"/>
<path d="M77.6892 103.066V102.87H75.4666V106.521H77.6892V106.323H75.7454V104.784H77.5042V104.598H75.7454V103.066H77.6892Z" fill="#3D5D82"/>
<path d="M85.3677 106.521H85.6462V103.268L88.189 106.521H88.4675V102.875H88.189V106.126L85.6462 102.875H85.3677V106.521Z" fill="#3D5D82"/>
<path d="M92.5353 105.38L93.486 103.253L94.4311 105.38H92.5353ZM93.331 102.968L91.7209 106.521H92.0291L92.4552 105.574H94.5167L94.9366 106.521H95.2389L93.6413 102.968H93.331Z" fill="#3D5D82"/>
<path d="M99.6447 106.521V103.066H100.898V102.87H98.1147V103.066H99.3622V106.521H99.6447Z" fill="#3D5D82"/>
<path d="M104.072 102.87V105.113C104.072 105.599 104.209 105.961 104.482 106.199C104.755 106.436 105.125 106.557 105.59 106.557C106.05 106.557 106.416 106.436 106.685 106.199C106.955 105.961 107.09 105.599 107.09 105.113V102.87H106.806V105.113C106.806 105.537 106.697 105.848 106.482 106.045C106.266 106.239 105.969 106.338 105.59 106.338C105.208 106.338 104.905 106.239 104.682 106.045C104.46 105.848 104.348 105.537 104.348 105.113V102.87H104.072Z" fill="#3D5D82"/>
<path d="M111.844 104.777H110.924V103.082H111.844C112.252 103.082 112.546 103.154 112.73 103.304C112.913 103.45 113.004 103.659 113.004 103.933C113.004 104.496 112.617 104.777 111.844 104.777ZM113.282 103.925C113.282 103.6 113.166 103.344 112.933 103.154C112.701 102.964 112.343 102.87 111.862 102.87H110.646V106.521H110.924V104.967H111.738L112.998 106.521H113.32L112.041 104.96C112.444 104.938 112.753 104.836 112.965 104.66C113.177 104.481 113.282 104.236 113.282 103.925Z" fill="#3D5D82"/>
<path d="M118.868 103.066V102.87H116.645V106.521H118.868V106.323H116.923V104.784H118.683V104.598H116.923V103.066H118.868Z" fill="#3D5D82"/>
<path d="M109.963 64.5833H112.184V64.3863H110.24V62.8486H111.999V62.6625H110.24V61.1289H112.184V60.9326H109.963V64.5833Z" fill="#3D5D82"/>
<path d="M116.653 61.0879C116.962 61.0879 117.205 61.1552 117.382 61.2875C117.559 61.4205 117.667 61.5682 117.71 61.7305H118.006C117.952 61.5028 117.81 61.3072 117.583 61.1431C117.354 60.979 117.045 60.8971 116.653 60.8971C116.267 60.8971 115.964 60.9812 115.746 61.1504C115.527 61.3196 115.419 61.5357 115.419 61.7977C115.419 62.0123 115.475 62.1841 115.59 62.3153C115.702 62.4468 115.841 62.5441 116.005 62.6077C116.17 62.6716 116.39 62.7389 116.665 62.8072C116.926 62.8734 117.13 62.9352 117.281 62.9936C117.429 63.0525 117.558 63.1376 117.66 63.2473C117.762 63.358 117.813 63.505 117.813 63.6877C117.813 63.8983 117.732 64.0741 117.567 64.2159C117.403 64.3577 117.168 64.4286 116.864 64.4286C116.625 64.4286 116.423 64.3884 116.259 64.3091C116.094 64.2301 115.969 64.1311 115.884 64.0141C115.8 63.8968 115.749 63.7831 115.728 63.6724H115.437C115.458 63.8416 115.531 63.998 115.654 64.1435C115.777 64.2886 115.943 64.4034 116.154 64.4904C116.363 64.5766 116.602 64.6194 116.87 64.6194C117.15 64.6194 117.382 64.5752 117.567 64.4849C117.751 64.3953 117.889 64.2791 117.974 64.1358C118.062 63.9922 118.104 63.8416 118.104 63.6822C118.104 63.4553 118.045 63.274 117.928 63.1391C117.81 63.0042 117.667 62.9034 117.499 62.8357C117.33 62.7689 117.106 62.7001 116.826 62.6311C116.575 62.5697 116.376 62.5101 116.23 62.4531C116.084 62.3957 115.963 62.3145 115.863 62.2093C115.764 62.104 115.716 61.9655 115.716 61.7922C115.716 61.5682 115.8 61.3949 115.972 61.2725C116.142 61.1497 116.371 61.0879 116.653 61.0879Z" fill="#3D5D82"/>
<path d="M123.944 60.9326H121.16V61.1289H122.407V64.5833H122.69V61.1289H123.944V60.9326Z" fill="#3D5D82"/>
<path d="M109.753 71.8289V71.989H112.678V71.7927H110.185C110.551 71.6089 110.914 71.3834 111.274 71.114C111.633 70.845 111.935 70.5544 112.178 70.2412C112.422 69.9294 112.542 69.6246 112.542 69.3278C112.542 68.9828 112.422 68.7255 112.184 68.5562C111.947 68.3866 111.641 68.3022 111.271 68.3022C110.855 68.3022 110.52 68.4093 110.265 68.6235C110.009 68.8373 109.868 69.1377 109.838 69.5241H110.111C110.135 69.2138 110.243 68.966 110.435 68.781C110.626 68.5964 110.901 68.504 111.259 68.504C111.612 68.504 111.868 68.5815 112.025 68.7375C112.181 68.8925 112.26 69.0946 112.26 69.3428C112.26 69.7258 112.032 70.1304 111.58 70.557C111.126 70.9839 110.518 71.4075 109.753 71.8289Z" fill="#3D5D82"/>
<path d="M118.471 69.2855C118.531 69.5209 118.561 69.8107 118.561 70.1561C118.561 70.5044 118.531 70.7972 118.471 71.0333C118.412 71.2705 118.297 71.4584 118.126 71.5976C117.955 71.7376 117.712 71.8074 117.401 71.8074C117.084 71.8074 116.84 71.7376 116.668 71.5976C116.499 71.4584 116.382 71.2705 116.324 71.0333C116.264 70.7972 116.234 70.5044 116.234 70.1561C116.234 69.8107 116.264 69.5209 116.324 69.2855C116.382 69.0508 116.499 68.8655 116.668 68.7295C116.84 68.5925 117.084 68.5249 117.401 68.5249C117.712 68.5249 117.955 68.5925 118.126 68.7295C118.297 68.8655 118.412 69.0508 118.471 69.2855ZM116.268 68.7891C116.06 69.1093 115.957 69.5654 115.957 70.1561C115.957 70.7537 116.06 71.2139 116.268 71.5381C116.476 71.8633 116.853 72.0249 117.401 72.0249C117.944 72.0249 118.319 71.8633 118.527 71.5381C118.734 71.2139 118.838 70.7537 118.838 70.1561C118.838 69.5654 118.736 69.1093 118.53 68.7891C118.325 68.4678 117.947 68.3074 117.401 68.3074C116.853 68.3074 116.476 68.4678 116.268 68.7891Z" fill="#3D5D82"/>
<path d="M121.78 71.8289V71.989H124.705V71.7927H122.212C122.579 71.6089 122.941 71.3834 123.301 71.114C123.661 70.845 123.962 70.5544 124.206 70.2412C124.45 69.9294 124.57 69.6246 124.57 69.3278C124.57 68.9828 124.45 68.7255 124.212 68.5562C123.974 68.3866 123.668 68.3022 123.298 68.3022C122.882 68.3022 122.547 68.4093 122.292 68.6235C122.036 68.8373 121.895 69.1377 121.866 69.5241H122.138C122.162 69.2138 122.271 68.966 122.462 68.781C122.653 68.5964 122.928 68.504 123.286 68.504C123.64 68.504 123.896 68.5815 124.052 68.7375C124.209 68.8925 124.287 69.0946 124.287 69.3428C124.287 69.7258 124.06 70.1304 123.607 70.557C123.154 70.9839 122.545 71.4075 121.78 71.8289Z" fill="#3D5D82"/>
<path d="M128.877 71.9939V68.3436H127.932V68.5607H128.586V71.9939H128.877Z" fill="#3D5D82"/>
</svg>
